<svg xmlns="http://www.w3.org/2000/svg" xmlns:xlink="http://www.w3.org/1999/xlink" width="277.402" height="185.13" viewBox="0 0 277.402 185.13"><defs><linearGradient id="a" x1="0.474" y1="0.415" x2="1.197" y2="0.415" gradientUnits="objectBoundingBox"><stop offset="0" stop-color="#5eb4fa"/><stop offset="1" stop-color="#4677f1"/></linearGradient><clipPath id="c"><path d="M2134.845,735.357l15.438,41.619,32.484-12.05Zm19.908,31.877-5.142-13.86,15.96,9.847Z" transform="translate(-2134.845 -735.357)" fill="url(#a)"/></clipPath><linearGradient id="d" x1="3.588" y1="2.575" x2="4.843" y2="2.575" gradientUnits="objectBoundingBox"><stop offset="0" stop-color="#2e719d"/><stop offset="1" stop-color="#2e3c84"/></linearGradient><linearGradient id="e" x1="3.928" y1="2.287" x2="5.183" y2="2.287" xlink:href="#d"/><linearGradient id="f" x1="4.269" y1="2" x2="5.525" y2="2" xlink:href="#d"/><linearGradient id="g" x1="4.608" y1="1.713" x2="5.863" y2="1.713" xlink:href="#d"/><linearGradient id="h" x1="4.951" y1="1.426" x2="6.206" y2="1.426" xlink:href="#d"/><linearGradient id="i" x1="5.291" y1="1.139" x2="6.547" y2="1.139" xlink:href="#d"/><linearGradient id="j" x1="5.631" y1="0.852" x2="6.886" y2="0.852" xlink:href="#d"/><linearGradient id="k" x1="5.97" y1="0.565" x2="7.225" y2="0.565" xlink:href="#d"/><linearGradient id="l" x1="6.315" y1="0.277" x2="7.57" y2="0.277" xlink:href="#d"/><linearGradient id="m" x1="6.651" y1="-0.01" x2="7.906" y2="-0.01" xlink:href="#d"/><linearGradient id="n" x1="6.993" y1="-0.297" x2="8.248" y2="-0.297" xlink:href="#d"/></defs><g transform="translate(-227.14 -464.782)"><g transform="translate(254.915 511.34)"><path d="M667.51,1936.052c0,2.393-46.892,4.335-104.737,4.335s-104.736-1.941-104.736-4.335,46.892-4.335,104.736-4.335S667.51,1933.658,667.51,1936.052Z" transform="translate(-458.037 -1801.816)" fill="#eff4ef"/><path d="M778.405,864.565v105.11l-64.5,9.557H665.332l-65.294-9.557V864.565a12.778,12.778,0,0,1,12.739-12.741H765.663A12.778,12.778,0,0,1,778.405,864.565Z" transform="translate(-582.957 -851.824)" fill="#3c4973"/><rect width="152.885" height="95.555" transform="translate(29.821 12.741)" fill="#fff"/><path d="M738.182,1831.536v3.185a12.776,12.776,0,0,1-12.738,12.741H559.817a12.778,12.778,0,0,1-12.742-12.741v-3.185H626.7l1.768,3.518a5.613,5.613,0,0,0,4.6,2.851h19.11a5.622,5.622,0,0,0,4.6-2.851l1.768-3.518Z" transform="translate(-536.365 -1713.686)" fill="#00223d"/></g><g transform="translate(456.62 497.33)"><path d="M2134.845,735.357l15.438,41.619,32.484-12.05Zm19.908,31.877-5.142-13.86,15.96,9.847Z" transform="translate(-2134.845 -735.357)" fill="url(#a)"/><g transform="translate(0 0)" clip-path="url(#c)"><path d="M2134.845,735.357l15.438,41.619,32.484-12.05Zm19.908,31.877-5.142-13.86,15.96,9.847Z" transform="translate(-2134.845 -735.357)" fill="#d5f2e8"/><g transform="translate(5.335 3.93)"><g transform="translate(34.479 21.347)"><path d="M2465.873,948.8a.718.718,0,0,1,.061-.629l1.443-2.34a.722.722,0,0,1,1.229.759l-1.443,2.338a.723.723,0,0,1-.994.236A.711.711,0,0,1,2465.873,948.8Z" transform="translate(-2465.827 -945.492)" fill="url(#d)"/></g><g transform="translate(31.031 19.212)"><path d="M2437.207,931.054a.719.719,0,0,1,.062-.631l1.443-2.338a.722.722,0,1,1,1.228.758l-1.444,2.339a.721.721,0,0,1-.993.235A.712.712,0,0,1,2437.207,931.054Z" transform="translate(-2437.161 -927.741)" fill="url(#e)"/></g><g transform="translate(27.584 17.077)"><path d="M2408.546,913.309a.719.719,0,0,1,.062-.63l1.445-2.339a.721.721,0,1,1,1.227.757l-1.443,2.34a.722.722,0,0,1-1.29-.128Z" transform="translate(-2408.501 -909.997)" fill="url(#f)"/></g><g transform="translate(24.135 14.942)"><path d="M2379.88,895.56a.723.723,0,0,1,.063-.631l1.443-2.338a.722.722,0,1,1,1.229.759l-1.443,2.338a.723.723,0,0,1-1.292-.127Z" transform="translate(-2379.835 -892.247)" fill="url(#g)"/></g><g transform="translate(20.688 12.808)"><path d="M2351.224,877.818a.722.722,0,0,1,.062-.63l1.443-2.339a.722.722,0,0,1,1.229.76l-1.443,2.338a.721.721,0,0,1-.994.235A.712.712,0,0,1,2351.224,877.818Z" transform="translate(-2351.179 -874.506)" fill="url(#h)"/></g><g transform="translate(17.24 10.673)"><path d="M2322.555,860.069a.721.721,0,0,1,.063-.631l1.443-2.338a.721.721,0,1,1,1.229.757l-1.444,2.339a.722.722,0,0,1-1.291-.127Z" transform="translate(-2322.51 -856.756)" fill="url(#i)"/></g><g transform="translate(13.792 8.538)"><path d="M2293.9,842.325a.725.725,0,0,1,.062-.631l1.444-2.338a.722.722,0,0,1,1.229.759l-1.443,2.338a.723.723,0,0,1-1.291-.127Z" transform="translate(-2293.85 -839.012)" fill="url(#j)"/></g><g transform="translate(10.343 6.404)"><path d="M2265.225,824.578a.722.722,0,0,1,.063-.631l1.444-2.339a.722.722,0,0,1,1.229.759l-1.444,2.338a.723.723,0,0,1-1.292-.128Z" transform="translate(-2265.181 -821.266)" fill="url(#k)"/></g><g transform="translate(6.897 4.27)"><path d="M2236.573,806.838a.719.719,0,0,1,.062-.63l1.443-2.339a.722.722,0,0,1,1.229.759l-1.443,2.338a.72.72,0,0,1-.992.235A.711.711,0,0,1,2236.573,806.838Z" transform="translate(-2236.527 -803.527)" fill="url(#l)"/></g><g transform="translate(3.448 2.135)"><path d="M2207.9,789.088a.721.721,0,0,1,.062-.631l1.444-2.337a.722.722,0,1,1,1.229.758l-1.444,2.338a.719.719,0,0,1-.991.235A.709.709,0,0,1,2207.9,789.088Z" transform="translate(-2207.859 -785.776)" fill="url(#m)"/></g><path d="M2179.24,771.344a.713.713,0,0,1,.063-.63l1.443-2.34a.722.722,0,1,1,1.228.759l-1.443,2.338a.721.721,0,0,1-.992.235A.71.71,0,0,1,2179.24,771.344Z" transform="translate(-2179.194 -768.032)" fill="url(#n)"/></g></g></g><path d="M1079.271,1403.244a10.03,10.03,0,0,1-7.845-.041l-24.591-12.3c-2.152-1.077-2.142-2.819.02-3.873l25.428-12.387a10.03,10.03,0,0,1,7.844.042l24.592,12.3c2.152,1.077,2.142,2.819-.021,3.873Z" transform="translate(-719.679 -799.726)" fill="#7a77ac"/><path d="M1079.271,1274.056a10.029,10.029,0,0,1-7.845-.041l-24.591-12.3c-2.152-1.077-2.142-2.819.02-3.873l25.428-12.387a10.03,10.03,0,0,1,7.844.041l24.592,12.3c2.152,1.077,2.142,2.819-.021,3.873Z" transform="translate(-719.679 -686.077)" fill="#665b9a"/><path d="M1079.271,1144.871a10.03,10.03,0,0,1-7.845-.042l-24.591-12.3c-2.152-1.077-2.142-2.819.02-3.873l25.428-12.387a10.03,10.03,0,0,1,7.844.042l24.592,12.3c2.152,1.077,2.142,2.819-.021,3.873Z" transform="translate(-719.679 -572.432)" fill="#7d6eb2"/><g transform="translate(237.014 499.5)"><path d="M379.785,782.654a4.387,4.387,0,0,1-4.374,4.374H313.6a4.387,4.387,0,0,1-4.374-4.374v-24.88A4.387,4.387,0,0,1,313.6,753.4h61.816a4.387,4.387,0,0,1,4.374,4.374Z" transform="translate(-309.221 -753.4)" fill="#f2f4fc"/><path d="M358.676,788.4a2.68,2.68,0,1,0,2.68-2.68A2.68,2.68,0,0,0,358.676,788.4Z" transform="translate(-352.727 -781.831)" fill="#b54273"/><path d="M358.676,873.584a2.68,2.68,0,1,0,2.68-2.68A2.68,2.68,0,0,0,358.676,873.584Z" transform="translate(-352.727 -856.769)" fill="#f5ca56"/><path d="M358.676,958.768a2.68,2.68,0,1,0,2.68-2.68A2.68,2.68,0,0,0,358.676,958.768Z" transform="translate(-352.727 -931.706)" fill="#7d6eb2"/><g transform="translate(14.044 15.72)"><path d="M427.066,886.273a1.094,1.094,0,1,1,0-2.187h49.477a1.094,1.094,0,1,1,0,2.187Z" transform="translate(-425.972 -884.085)" fill="#f5ca56"/></g><g transform="translate(14.044 5.473)"><path d="M427.066,801.089a1.094,1.094,0,0,1,0-2.187h49.477a1.094,1.094,0,0,1,0,2.187Z" transform="translate(-425.972 -798.901)" fill="#b54273"/></g><g transform="translate(14.044 25.968)"><path d="M476.543,971.465H427.066a1.094,1.094,0,1,1,0-2.187h49.477a1.094,1.094,0,1,1,0,2.187Z" transform="translate(-425.972 -969.278)" fill="#7d6eb2"/></g><circle cx="1.885" cy="1.885" r="1.885" transform="translate(53.071 4.683)" fill="#00223d"/><path d="M502.492,879.4a1.885,1.885,0,1,1-1.885-1.885A1.885,1.885,0,0,1,502.492,879.4Z" transform="translate(-475.928 -862.583)" fill="#00223d"/><path d="M636.656,964.586a1.885,1.885,0,1,1-1.885-1.885A1.885,1.885,0,0,1,636.656,964.586Z" transform="translate(-593.952 -937.524)" fill="#00223d"/></g><g transform="translate(378.458 464.782)"><path d="M1488.908,1106.692l-2.821,2.805a.595.595,0,0,1-.955-.68l1.732-3.583a1.273,1.273,0,0,1,2.292,1.109A1.32,1.32,0,0,1,1488.908,1106.692Z" transform="translate(-1485.073 -1027.562)" fill="#2d2e85"/><path d="M1550.406,471.557l-45.362,63.774L1495,544.864l-3.348-2.385,5.729-12.609L1542.74,466.1a3.147,3.147,0,0,1,4.376-.734l2.555,1.82A3.147,3.147,0,0,1,1550.406,471.557Z" transform="translate(-1490.859 -464.782)" fill="#00223d"/><path d="M1911.079,471.557l-1.772,2.487-7.666-5.462,1.772-2.486a3.147,3.147,0,0,1,4.376-.734l2.555,1.82A3.147,3.147,0,0,1,1911.079,471.557Z" transform="translate(-1851.532 -464.782)" fill="#7d6eb2"/><path d="M1508.216,974.32l-3.172,4.451L1495,988.3l-3.348-2.385,5.729-12.609,3.171-4.451Z" transform="translate(-1490.859 -908.223)" fill="#7d6eb2"/></g><g transform="translate(422.961 552.021)"><path d="M1855.031,1247.293a8.073,8.073,0,0,0,8.049,8.049h37.02a8.073,8.073,0,0,0,8.048-8.049v-49.227a8.072,8.072,0,0,0-8.048-8.049l-37.02,0a8.072,8.072,0,0,0-8.049,8.049Z" transform="translate(-1855.031 -1190.016)" fill="#abe0e3"/><g transform="translate(9.477 9.95)"><path d="M1938.708,1277l3.533,8.1,1.36-2.1,2.994,2.763,1.593-1.486-2.994-2.763,2.258-1.274Z" transform="translate(-1938.119 -1276.49)" fill="#00223d"/><path d="M1942.528,1282.4l-2.934-2.706-1.474,2.283-4.035-9.249,9.985,3.694-2.449,1.381,2.934,2.708Zm-3.055-3.623,3.055,2.818,1.16-1.08-3.055-2.819,2.068-1.167-7.5-2.774,3.033,6.948Z" transform="translate(-1934.052 -1272.729)" fill="#fff"/><path d="M2136.549,1281.954l-1.36,2.1-3.534-8.1,8.745,3.232-2.258,1.276,2.994,2.764-1.592,1.485Z" transform="translate(-2107.855 -1275.572)" fill="#fff"/><path d="M2136.038,1437.629v-.469a2.093,2.093,0,0,0,.508-.134.6.6,0,0,0,.28-.233.881.881,0,0,0,.114-.38,5.589,5.589,0,0,0,.023-.572v-7.075l-.62,0a1.9,1.9,0,0,0-.7.1,1.088,1.088,0,0,0-.426.313,1.852,1.852,0,0,0-.308.574q-.131.359-.216.68l-1.048,0v-2.493l9-.049v2.493l-1.047.006c-.1-.322-.174-.558-.231-.709a1.9,1.9,0,0,0-.187-.386,1.436,1.436,0,0,0-.218-.266.982.982,0,0,0-.244-.168,1.11,1.11,0,0,0-.326-.093,3.289,3.289,0,0,0-.509-.031l-.55,0v7.078c0,.251.008.44.022.571a1.013,1.013,0,0,0,.085.315.623.623,0,0,0,.149.195.824.824,0,0,0,.246.134,1.8,1.8,0,0,0,.423.094v.469Z" transform="translate(-2109.605 -1409.237)" fill="#fff"/><path d="M1933.813,1456.33l2.98-6.249,2.665-1.439,1.3,1.2,1.3,1.2-1.535,2.482Z" transform="translate(-1933.813 -1427.481)" fill="#fff"/><path d="M1985.5,1434.383l-3.7-3.412-1.21,2.109,2.641,2.438Z" transform="translate(-1974.962 -1411.936)" fill="#fff"/><path d="M1965.147,1470.7a1.033,1.033,0,0,1-.709-.284.848.848,0,0,1-.237-.994,1.053,1.053,0,0,1,1.632-.309.847.847,0,0,1,.236,1A1.028,1.028,0,0,1,1965.147,1470.7Zm-.022-1.3a.4.4,0,0,0-.355.237.306.306,0,0,0,.1.373.392.392,0,0,0,.629-.119.308.308,0,0,0-.1-.373A.391.391,0,0,0,1965.125,1469.4Z" transform="translate(-1960.482 -1445.259)" fill="#00223d"/><path d="M1938.07,1479.936l-4.257,3.569,3.823-3.972Z" transform="translate(-1933.813 -1454.657)" fill="#00223d"/><path d="M1981.319,1449.694l-2.559-2.444.442-.4,2.559,2.444Z" transform="translate(-1973.353 -1425.906)" fill="#00223d"/><path d="M1953.474,1602.946l-7.646.041v-6.932l7.646-.043Z" transform="translate(-1944.383 -1557.123)" fill="#00223d"/><path d="M1951.533,1601.147l-8.26.045v-7.5l8.26-.045Zm-7.647-.53,7.032-.037v-6.367l-7.032.039Z" transform="translate(-1942.135 -1555.039)" fill="#fff"/><path d="M2004.38,1591.327l-1.586.008v-1.474l1.586-.008Zm-.972-.565.359,0v-.331l-.359,0Z" transform="translate(-1994.496 -1551.706)" fill="#fff"/><path d="M2004.38,1648.982l-1.586.008v-1.471l1.586-.01Zm-.971-.564.357,0v-.332l-.359,0Z" transform="translate(-1994.496 -1602.426)" fill="#fff"/><path d="M1940.817,1591.681l-1.587.008v-1.473l1.587-.008Zm-.975-.566.359,0v-.332h-.358Z" transform="translate(-1938.579 -1552.018)" fill="#fff"/><path d="M1940.809,1649.326l-1.588.01v-1.473l1.586-.009Zm-.974-.565h.359v-.333l-.359,0Z" transform="translate(-1938.571 -1602.729)" fill="#fff"/><path d="M2139.779,1610.215l-3.751,3.5c-.711.666-.955,1.523-.539,1.907s1.338.152,2.05-.512l3.75-3.5Z" transform="translate(-2111.05 -1569.619)" fill="#00223d"/><path d="M2133.806,1613.15h0a1.107,1.107,0,0,1-.771-.269c-.545-.5-.309-1.517.538-2.309l3.967-3.7,1.945,1.793-3.967,3.7A2.686,2.686,0,0,1,2133.806,1613.15Zm3.735-5.474-3.532,3.3c-.617.576-.794,1.269-.541,1.5s1.064,0,1.616-.509l3.533-3.3Z" transform="translate(-2108.813 -1566.676)" fill="#fff"/><path d="M2185.965,1590.9l.258-.237c.712-.667,1.634-.9,2.05-.513s.174,1.24-.54,1.905l-.256.239Z" transform="translate(-2155.634 -1551.804)" fill="#fff"/><path d="M2184.309,1590.72l-1.943-1.794.474-.443c.817-.762,1.954-1,2.484-.514.545.5.309,1.518-.539,2.307Zm-1.075-1.8,1.076.995.039-.039c.619-.573.794-1.266.54-1.5s-1.064,0-1.615.51Z" transform="translate(-2152.468 -1549.825)" fill="#fff"/><path d="M2167.032,1597.3l.768-.719c.422-.4,1.351-.181,2.062.478l.407.373c.711.657.948,1.516.525,1.912l-.768.719Z" transform="translate(-2138.978 -1557.451)" fill="#fff"/><path d="M2166.847,1598.484l-3.428-3.164.988-.918c.533-.5,1.681-.278,2.495.473l.4.374a2.617,2.617,0,0,1,.771,1.185,1.081,1.081,0,0,1-.243,1.129Zm-2.56-3.169,2.56,2.365.551-.517a.578.578,0,0,0,.082-.583,2.079,2.079,0,0,0-.607-.924l-.4-.375c-.557-.513-1.351-.738-1.63-.479Z" transform="translate(-2135.799 -1555.47)" fill="#fff"/></g></g><g transform="translate(227.14 554.252)"><g transform="translate(2.373 1.56)"><path d="M272.714,1295.049a4.371,4.371,0,0,1-5.954,1.6l-17.713-10.226a4.373,4.373,0,0,1-1.6-5.955l32.769-56.756a4.372,4.372,0,0,1,5.954-1.6l17.713,10.226a4.373,4.373,0,0,1,1.6,5.955Z" transform="translate(-246.869 -1221.531)" fill="#d8dff5"/><path d="M479.3,1288.787,454.037,1274.2l6.851-11.865,25.263,14.585Z" transform="translate(-429.116 -1257.427)" fill="#7d6eb2"/><rect width="13.702" height="29.172" transform="matrix(0.5, -0.866, 0.866, 0.5, 15.234, 33.553)" fill="#402f7c" opacity="0.75"/><rect width="13.702" height="29.171" transform="translate(5.547 50.332) rotate(-60)" fill="#1f1164" opacity="0.5"/><path d="M414.827,1791.847a2.21,2.21,0,1,0,3.019-.808A2.211,2.211,0,0,0,414.827,1791.847Z" transform="translate(-394.362 -1722.271)" fill="#8076f5"/></g><g transform="translate(0.509)"><path d="M259.695,1282.647a4.372,4.372,0,0,1-5.339,3.082l-19.757-5.295a4.37,4.37,0,0,1-3.081-5.338l16.962-63.3a4.374,4.374,0,0,1,5.339-3.083L273.574,1214a4.373,4.373,0,0,1,3.082,5.339Z" transform="translate(-231.369 -1208.562)" fill="#eceffa"/><rect width="13.702" height="29.172" transform="translate(12.747 19.513) rotate(-74.999)" fill="#ffce83"/><path d="M323.826,1437.116l-28.177-7.551,3.546-13.235,28.178,7.55Z" transform="translate(-287.917 -1391.337)" fill="#f9c869" opacity="0.75"/><rect width="13.702" height="29.171" transform="matrix(0.259, -0.966, 0.966, 0.259, 2.718, 56.942)" fill="#f5ca56" opacity="0.5"/><path d="M414.607,1792.379a2.21,2.21,0,1,0,2.707-1.562A2.209,2.209,0,0,0,414.607,1792.379Z" transform="translate(-392.499 -1720.71)" fill="#8076f5"/></g><g transform="translate(0 3.07)"><path d="M256.312,1303.981a4.372,4.372,0,0,1-4.359,4.359H231.5a4.371,4.371,0,0,1-4.359-4.359v-65.537a4.371,4.371,0,0,1,4.359-4.359h20.454a4.372,4.372,0,0,1,4.359,4.359Z" transform="translate(-227.14 -1234.085)" fill="#fff"/><rect width="29.172" height="13.702" transform="translate(0 7.513)" fill="#e36099"/><rect width="29.172" height="13.702" transform="translate(0 26.888)" fill="#b54273" opacity="0.75"/><rect width="29.172" height="13.702" transform="translate(0 46.262)" fill="#c1507f" opacity="0.5"/><path d="M414.541,1792.955a2.21,2.21,0,1,0,2.209-2.211A2.209,2.209,0,0,0,414.541,1792.955Z" transform="translate(-391.998 -1723.783)" fill="#00223d"/></g></g></g></svg>