<svg xmlns="http://www.w3.org/2000/svg" xmlns:xlink="http://www.w3.org/1999/xlink" width="364.163" height="325.834" viewBox="0 0 364.163 325.834"><defs><linearGradient id="a" x1="0.5" x2="0.5" y2="1" gradientUnits="objectBoundingBox"><stop offset="0" stop-color="#fff"/><stop offset="1" stop-color="#d2e6ee"/></linearGradient><linearGradient id="c" x1="0.5" x2="0.5" y2="1" gradientUnits="objectBoundingBox"><stop offset="0" stop-color="#fff"/><stop offset="1" stop-color="#f1f1f1"/></linearGradient><linearGradient id="o" x1="0.5" x2="0.5" y2="1" gradientUnits="objectBoundingBox"><stop offset="0" stop-color="#fff"/><stop offset="1" stop-color="#d3d3d3"/></linearGradient></defs><g transform="translate(-300.174 -62.453)"><g transform="translate(555.558 83.879)"><g transform="translate(22.444 115.964)"><path d="M590.084,241.351c-8.2-4.732-14.841-16.193-14.841-25.6,0-3.489.924-6.188,2.494-7.978-4.5.326-7.541,4.092-7.541,10.447,0,9.406,6.644,20.867,14.841,25.6,5.149,2.973,9.671,2.565,12.328-.472A12.885,12.885,0,0,1,590.084,241.351Z" transform="translate(-559.444 -189.855)" fill="#12263f"/><path d="M605.2,239.188a29.422,29.422,0,0,0-.253-3.6l6-.759a54.278,54.278,0,0,0-2.719-9.082l-6.836-2.067a48,48,0,0,0-4.255-7.338l1.638-6.9a54.89,54.89,0,0,0-6.547-6.9l-3.68,4.759a29.838,29.838,0,0,0-3.007-2.027,23.041,23.041,0,0,0-3.007-1.445l-3.68-9.008a18.218,18.218,0,0,0-6.547-.66l1.638,8.789a9.392,9.392,0,0,0-4.255,2.426l-6.836-5.826a17.855,17.855,0,0,0-2.719,5.942l6,7.686a22.794,22.794,0,0,0-.253,3.3,29.405,29.405,0,0,0,.253,3.6l-6,.759a54.278,54.278,0,0,0,2.719,9.082l6.836,2.067a47.941,47.941,0,0,0,4.255,7.338l-1.638,6.9a54.821,54.821,0,0,0,6.547,6.9l3.68-4.76a29.8,29.8,0,0,0,3.007,2.028,23.319,23.319,0,0,0,3.007,1.445l3.68,9.008a18.215,18.215,0,0,0,6.547.659l-1.638-8.789a9.391,9.391,0,0,0,4.255-2.425l6.836,5.825a17.854,17.854,0,0,0,2.719-5.942l-6-7.685A22.818,22.818,0,0,0,605.2,239.188Zm-19.47,5.572c-8.2-4.731-14.841-16.192-14.841-25.6s6.645-13.193,14.841-8.461,14.84,16.193,14.84,25.6S593.925,249.493,585.729,244.76Z" transform="translate(-560.135 -190.795)" fill="url(#a)"/><path d="M587.078,200.7l-3.679-9.008-5.749,3.3L581.329,204Z" transform="translate(-558.931 -190.96)" fill="url(#a)"/><path d="M581.092,203.419a23.041,23.041,0,0,1,3.007,1.445,29.838,29.838,0,0,1,3.007,2.027l3.68-4.759h0s-.621-.39-.936-.572a23.178,23.178,0,0,0-3.007-1.445Z" transform="translate(-558.695 -190.381)" fill="url(#c)"/><path d="M583.82,191.735a18.246,18.246,0,0,0-6.547-.66l-5.75,3.3a18.218,18.218,0,0,1,6.547.66Z" transform="translate(-559.352 -191.007)" fill="url(#c)"/><path d="M602.459,205.813a54.833,54.833,0,0,0-6.547-6.9l-5.749,3.3a54.89,54.89,0,0,1,6.547,6.9Z" transform="translate(-558.071 -190.464)" fill="url(#c)"/><path d="M596.394,208.671l-1.638,6.9,5.749-3.3,1.638-6.9Z" transform="translate(-557.755 -190.02)" fill="url(#a)"/><path d="M594.756,215.125a48,48,0,0,1,4.255,7.338l5.749-3.3a48.061,48.061,0,0,0-4.255-7.339Z" transform="translate(-557.755 -189.577)" fill="url(#c)"/><path d="M598.737,221.992l6.836,2.067,5.749-3.3-6.835-2.067Z" transform="translate(-557.482 -189.105)" fill="url(#c)"/><path d="M605.133,223.925a54.278,54.278,0,0,1,2.719,9.082l5.749-3.3a54.26,54.26,0,0,0-2.719-9.081Z" transform="translate(-557.042 -188.972)" fill="url(#a)"/><path d="M573.769,202.815l-.477-2.556-4.864-4.146-5.75,3.3,6.836,5.826A9.392,9.392,0,0,1,573.769,202.815Z" transform="translate(-559.96 -190.656)" fill="#72b5e8"/><path d="M607.852,246.783a17.855,17.855,0,0,1-2.719,5.942l5.749-3.3a17.876,17.876,0,0,0,2.719-5.943Z" transform="translate(-557.042 -187.401)" fill="url(#a)"/><path d="M607.813,236.57a22.652,22.652,0,0,0,.253-3.3c0-.346-.022-.7-.041-1.049l-5.961.753a29.422,29.422,0,0,1,.253,3.6,22.818,22.818,0,0,1-.253,3.3Z" transform="translate(-557.253 -188.175)" fill="url(#a)"/><path d="M602.064,239.592l6,7.686,5.749-3.3-6-7.686Z" transform="translate(-557.253 -187.895)" fill="url(#c)"/><path d="M599.011,246.681a9.391,9.391,0,0,1-4.255,2.425l1.638,8.789,5.749-3.3-1.162-6.233Z" transform="translate(-557.755 -187.181)" fill="url(#a)"/><path d="M565.918,215.947l-5.783,3.394,6-.759C566.024,217.7,565.955,216.817,565.918,215.947Z" transform="translate(-560.135 -189.293)" fill="#d1ebff"/><path d="M581.329,244.878l-3.68,4.76,5.791-3.3C582.728,245.885,582.022,245.4,581.329,244.878Z" transform="translate(-558.931 -187.305)" fill="url(#a)"/><g transform="translate(0.29 3.276)" style="mix-blend-mode:color-dodge;isolation:isolate"><path d="M572.453,202.762l-.016-.089c-.274.1-.536.23-.8.359C571.908,202.936,572.174,202.835,572.453,202.762Z" transform="translate(-559.634 -193.481)" fill="#fff"/><path d="M565.386,218.508l-4.98.631c.019.1.046.193.066.29l4.944-.625C565.4,218.7,565.4,218.606,565.386,218.508Z" transform="translate(-560.406 -192.393)" fill="#fff"/><path d="M596.384,209.279l-1.638,6.9A47.992,47.992,0,0,1,599,223.515l6.836,2.068a54.5,54.5,0,0,1,2.653,8.791l.677-.112a54.284,54.284,0,0,0-2.718-9.082l-6.836-2.067a48.083,48.083,0,0,0-4.255-7.338l1.637-6.9a54.736,54.736,0,0,0-6.546-6.9l-.226.758A55.222,55.222,0,0,1,596.384,209.279Z" transform="translate(-558.357 -193.529)" fill="#fff"/><path d="M585.121,243.615c-8.2-4.732-14.841-16.192-14.841-25.6,0-4.154,1.3-7.2,3.461-8.906-2.491,1.6-4.024,4.8-4.024,9.309,0,9.4,6.644,20.866,14.841,25.6,4.138,2.389,7.877,2.6,10.569,1.02-.2.061-.408.1-.615.145C591.953,246.112,588.686,245.673,585.121,243.615Z" transform="translate(-559.766 -193.038)" fill="#fff"/><path d="M595.789,248.782a9.325,9.325,0,0,0,2.7-1.514l-.252-.216A9.388,9.388,0,0,1,595.789,248.782Z" transform="translate(-557.974 -190.431)" fill="#fff"/><path d="M569.294,205.185c-.25.011,0-.194.252-.4l-6.582-5.61c-.187.258-.355.54-.045.574Z" transform="translate(-560.245 -193.721)" fill="#fff"/><path d="M594.608,249.343l1.568,8.412c-.182-.01.176-.014.522-.046l-1.621-8.7C594.749,249.134,594.416,249.252,594.608,249.343Z" transform="translate(-558.059 -190.296)" fill="#fff" style="mix-blend-mode:color-dodge;isolation:isolate"/><path d="M602.625,236.475a28.381,28.381,0,0,0-.224-3.3l-.6.045a29.405,29.405,0,0,1,.253,3.6,22.8,22.8,0,0,1-.253,3.3l6,7.686a18.335,18.335,0,0,1-2.191,5.127l.04.476a17.856,17.856,0,0,0,2.718-5.942l-6-7.686A22.633,22.633,0,0,0,602.625,236.475Z" transform="translate(-557.561 -191.385)" fill="#fff"/><path d="M577.8,195.066l3.679,9.008a23.109,23.109,0,0,1,3.008,1.444,29.662,29.662,0,0,1,3.006,2.028l.115-.572a28,28,0,0,0-2.582-1.722,23.173,23.173,0,0,0-3.007-1.445l-3.68-9.008a18.22,18.22,0,0,0-6.547-.66l.071.378A21.426,21.426,0,0,1,577.8,195.066Z" transform="translate(-559.623 -194.072)" fill="#fff"/><path d="M580.636,245.25l-3.077,3.98c.129.116.255.24.386.355l3.115-4.03C580.919,245.451,580.776,245.356,580.636,245.25Z" transform="translate(-559.227 -190.555)" fill="#fff"/></g></g><g transform="translate(4.863 19.416)"><path d="M588.734,176.4c-12.33-7.118-22.325-24.357-22.325-38.505,0-5.249,1.39-9.309,3.752-12-6.766.489-11.344,6.154-11.344,15.715,0,14.148,9.995,31.387,22.325,38.505,7.746,4.472,14.548,3.857,18.545-.712C596.452,179.636,592.721,178.7,588.734,176.4Z" transform="translate(-542.644 -98.935)" fill="#12263f"/><path d="M611.472,173.143a43.845,43.845,0,0,0-.383-5.412l9.024-1.141a81.607,81.607,0,0,0-4.09-13.662l-10.282-3.109a72.278,72.278,0,0,0-6.4-11.039L601.8,128.4a82.39,82.39,0,0,0-9.847-10.378l-5.535,7.159a44.878,44.878,0,0,0-4.524-3.05,34.79,34.79,0,0,0-4.524-2.173L571.84,106.41a27.434,27.434,0,0,0-9.848-.993l2.464,13.221a14.124,14.124,0,0,0-6.4,3.65l-10.282-8.764a26.855,26.855,0,0,0-4.09,8.938l9.023,11.562a34.168,34.168,0,0,0-.382,4.972,44.027,44.027,0,0,0,.382,5.411l-9.023,1.141a81.612,81.612,0,0,0,4.09,13.662l10.281,3.11a72.355,72.355,0,0,0,6.4,11.038l-2.464,10.376a82.472,82.472,0,0,0,9.848,10.378l5.535-7.159A44.688,44.688,0,0,0,581.9,190a34.793,34.793,0,0,0,4.524,2.174l5.535,13.55a27.407,27.407,0,0,0,9.847.993L599.341,193.5a14.122,14.122,0,0,0,6.4-3.649l10.282,8.764a26.869,26.869,0,0,0,4.09-8.939l-9.024-11.562A34.016,34.016,0,0,0,611.472,173.143Zm-29.289,8.383c-12.329-7.119-22.325-24.357-22.325-38.505s10-19.846,22.325-12.729,22.324,24.357,22.324,38.506S594.512,188.644,582.183,181.526Z" transform="translate(-543.684 -100.349)" fill="url(#o)"/><path d="M584.212,115.243l-5.535-13.55-8.648,4.967,5.535,13.55Z" transform="translate(-541.873 -100.598)" fill="url(#o)"/><path d="M575.208,119.338a34.94,34.94,0,0,1,4.524,2.174,44.878,44.878,0,0,1,4.524,3.05l5.534-7.158h0s-.935-.587-1.407-.86a34.849,34.849,0,0,0-4.524-2.173Z" transform="translate(-541.517 -99.727)" fill="url(#c)"/><path d="M579.311,101.763a27.415,27.415,0,0,0-9.848-.994l-8.648,4.967a27.434,27.434,0,0,1,9.848.993Z" transform="translate(-542.507 -100.669)" fill="url(#o)"/><path d="M607.349,122.938A82.472,82.472,0,0,0,597.5,112.56l-8.648,4.969a82.307,82.307,0,0,1,9.847,10.377Z" transform="translate(-540.579 -99.851)" fill="url(#o)"/><path d="M598.226,127.238l-2.464,10.376,8.648-4.967,2.464-10.376Z" transform="translate(-540.105 -99.184)" fill="url(#o)"/><path d="M595.762,136.947a72.278,72.278,0,0,1,6.4,11.039l8.648-4.967a72.263,72.263,0,0,0-6.4-11.039Z" transform="translate(-540.105 -98.517)" fill="url(#o)"/><path d="M601.75,147.276l10.282,3.109,8.648-4.967L610.4,142.309Z" transform="translate(-539.693 -97.807)" fill="url(#c)"/><path d="M611.371,150.185a81.607,81.607,0,0,1,4.09,13.662l8.648-4.967a81.625,81.625,0,0,0-4.09-13.662Z" transform="translate(-539.032 -97.607)" fill="url(#o)"/><path d="M564.193,118.43l-.717-3.845-7.316-6.236-8.648,4.967,10.282,8.764A14.124,14.124,0,0,1,564.193,118.43Z" transform="translate(-543.421 -100.141)" fill="url(#o)"/><path d="M615.461,184.569a26.869,26.869,0,0,1-4.09,8.939l8.648-4.967a26.867,26.867,0,0,0,4.09-8.939Z" transform="translate(-539.032 -95.243)" fill="url(#o)"/><path d="M615.4,169.205a34.153,34.153,0,0,0,.382-4.971c0-.52-.034-1.051-.062-1.58l-8.967,1.135a44.044,44.044,0,0,1,.382,5.412,34.165,34.165,0,0,1-.382,4.971Z" transform="translate(-539.349 -96.408)" fill="url(#o)"/><path d="M606.755,173.751l9.024,11.561,8.648-4.967L615.4,168.784Z" transform="translate(-539.349 -95.987)" fill="url(#c)"/><path d="M602.162,184.414a14.122,14.122,0,0,1-6.4,3.649l2.463,13.221,8.648-4.967-1.747-9.376Z" transform="translate(-540.105 -94.913)" fill="url(#o)"/><path d="M552.382,138.184l-8.7,5.105,9.023-1.141C552.542,140.813,552.439,139.492,552.382,138.184Z" transform="translate(-543.684 -98.09)" fill="#d1ebff"/><path d="M575.564,181.7l-5.535,7.159,8.712-4.958C577.668,183.217,576.607,182.49,575.564,181.7Z" transform="translate(-541.873 -95.099)" fill="url(#o)"/><g transform="translate(0.435 4.927)" style="mix-blend-mode:color-dodge;isolation:isolate"><path d="M562.214,118.35l-.025-.134c-.411.158-.806.347-1.2.541C561.394,118.611,561.794,118.46,562.214,118.35Z" transform="translate(-542.929 -104.389)" fill="#fff"/><path d="M551.583,142.036l-7.492.948c.029.145.069.292.1.437l7.437-.942C551.609,142.331,551.6,142.185,551.583,142.036Z" transform="translate(-544.091 -102.752)" fill="#fff"/><path d="M598.21,128.153l-2.463,10.376a72.284,72.284,0,0,1,6.4,11.039l10.282,3.109a81.89,81.89,0,0,1,3.991,13.224l1.018-.168a81.631,81.631,0,0,0-4.09-13.662l-10.282-3.109a72.268,72.268,0,0,0-6.4-11.039l2.463-10.376a82.4,82.4,0,0,0-9.847-10.378l-.339,1.14A82.913,82.913,0,0,1,598.21,128.153Z" transform="translate(-541.008 -104.461)" fill="#fff"/><path d="M581.268,179.8c-12.33-7.119-22.325-24.357-22.325-38.505,0-6.25,1.961-10.829,5.2-13.4-3.748,2.413-6.052,7.227-6.052,14,0,14.148,9.995,31.388,22.324,38.506,6.225,3.593,11.85,3.912,15.9,1.534-.3.091-.613.151-.923.219C591.546,183.559,586.631,182.9,581.268,179.8Z" transform="translate(-543.128 -103.724)" fill="#fff"/><path d="M597.316,187.575a14.021,14.021,0,0,0,4.068-2.279l-.38-.324A14.117,14.117,0,0,1,597.316,187.575Z" transform="translate(-540.433 -99.801)" fill="#fff"/><path d="M557.461,122c-.376.016,0-.293.379-.6l-9.9-8.439c-.281.388-.534.812-.068.864Z" transform="translate(-543.849 -104.751)" fill="#fff"/><path d="M595.539,188.418l2.358,12.654c-.273-.014.265-.02.786-.069l-2.439-13.088C595.75,188.1,595.251,188.282,595.539,188.418Z" transform="translate(-540.561 -99.599)" fill="#fff" style="mix-blend-mode:color-dodge;isolation:isolate"/><path d="M607.6,169.063a42.474,42.474,0,0,0-.338-4.969l-.9.068a44.012,44.012,0,0,1,.382,5.411,34.153,34.153,0,0,1-.382,4.971l9.024,11.562a27.608,27.608,0,0,1-3.295,7.711l.058.717a26.868,26.868,0,0,0,4.09-8.939l-9.023-11.562A34.153,34.153,0,0,0,607.6,169.063Z" transform="translate(-539.811 -101.236)" fill="#fff"/><path d="M570.257,106.773l5.535,13.55a34.653,34.653,0,0,1,4.524,2.174,44.74,44.74,0,0,1,4.524,3.049l.173-.859a42.444,42.444,0,0,0-3.885-2.591,34.781,34.781,0,0,0-4.524-2.173l-5.535-13.552a27.431,27.431,0,0,0-9.847-.993l.106.569A32.253,32.253,0,0,1,570.257,106.773Z" transform="translate(-542.914 -105.279)" fill="#fff"/><path d="M574.522,182.262l-4.629,5.986c.2.175.385.363.58.535l4.686-6.062C574.948,182.566,574.732,182.421,574.522,182.262Z" transform="translate(-542.318 -99.987)" fill="#fff"/></g></g><path d="M589.9,100.868c.068-1.43,1.051-2.054,2.193-1.394a4.486,4.486,0,0,1,1.947,3.783c-.067,1.43-1.049,2.054-2.193,1.394A4.49,4.49,0,0,1,589.9,100.868Z" transform="translate(-535.645 -81.353)" fill="#12263f"/><path d="M583.912,260.867c.045-.951.7-1.366,1.459-.927a2.986,2.986,0,0,1,1.3,2.517c-.045.951-.7,1.366-1.459.927A2.986,2.986,0,0,1,583.912,260.867Z" transform="translate(-536.056 -70.317)" fill="#12263f"/><g transform="translate(89.12 115.933)"><path d="M623.056,196.44a.534.534,0,0,1-.461-.8l2.562-4.392a.534.534,0,1,1,.923.538l-1.872,3.21,3.78-1.164a.535.535,0,0,1,.315,1.022l-5.089,1.567A.54.54,0,0,1,623.056,196.44Z" transform="translate(-622.522 -190.978)" fill="#12263f"/></g><g transform="translate(56.55 20.506)"><path d="M626.777,201.85l-.718-.791c5.752-5.222,8.793-13.734,8.793-24.618,0-27.082-19.2-60.2-42.8-73.827l.534-.926c23.9,13.8,43.338,47.331,43.338,74.752C635.92,187.633,632.758,196.42,626.777,201.85Z" transform="translate(-592.047 -101.688)" fill="#12263f"/></g><g transform="translate(68.773 100.289)"><g transform="translate(38.929)"><path d="M640.444,178.48h-.009a.534.534,0,0,1-.526-.542q.008-.527.008-1.063a.534.534,0,1,1,1.069,0q0,.543-.008,1.079A.534.534,0,0,1,640.444,178.48Z" transform="translate(-639.91 -176.34)" fill="#a8cff0"/></g><g transform="translate(4.227 4.253)"><path d="M613.263,215.237a.534.534,0,0,1,0-1.069c.7-.005,1.4-.033,2.084-.085a.535.535,0,0,1,.079,1.067c-.711.053-1.436.082-2.155.088Zm-3.178-.123-.046,0q-1.056-.09-2.138-.242a.535.535,0,0,1-.455-.6.545.545,0,0,1,.6-.455q1.052.149,2.08.235a.534.534,0,0,1-.044,1.067Zm8.449-.366a.534.534,0,0,1-.1-1.06c.685-.125,1.369-.277,2.032-.451a.534.534,0,0,1,.271,1.033c-.689.182-1.4.339-2.111.469A.587.587,0,0,1,618.534,214.748Zm5.094-1.447a.535.535,0,0,1-.2-1.031c.643-.254,1.281-.538,1.9-.84a.534.534,0,1,1,.471.958c-.64.316-1.306.611-1.974.876A.531.531,0,0,1,623.627,213.3Zm4.693-2.439a.534.534,0,0,1-.295-.98c.578-.383,1.146-.792,1.685-1.215a.534.534,0,0,1,.659.841c-.562.441-1.153.867-1.756,1.265A.526.526,0,0,1,628.32,210.862Zm4.1-3.352a.535.535,0,0,1-.377-.913c.487-.488.961-1,1.41-1.526a.535.535,0,0,1,.812.7c-.466.545-.959,1.078-1.466,1.586A.533.533,0,0,1,632.42,207.511Zm3.372-4.081a.534.534,0,0,1-.441-.836c.391-.571.766-1.163,1.119-1.759a.534.534,0,1,1,.92.543c-.363.617-.752,1.229-1.156,1.82A.537.537,0,0,1,635.791,203.429Zm2.623-4.6a.52.52,0,0,1-.228-.051.535.535,0,0,1-.255-.712q.439-.931.836-1.915a.535.535,0,1,1,.992.4q-.409,1.012-.861,1.972A.534.534,0,0,1,638.414,198.828Zm1.921-4.938a.563.563,0,0,1-.161-.025.535.535,0,0,1-.348-.671q.309-.986.581-2.014a.534.534,0,0,1,1.033.273q-.277,1.053-.6,2.063A.534.534,0,0,1,640.335,193.891Zm1.3-5.141a.481.481,0,0,1-.1-.011.535.535,0,0,1-.423-.626c.133-.679.253-1.367.36-2.069a.535.535,0,0,1,1.057.162q-.165,1.074-.367,2.111A.535.535,0,0,1,641.632,188.75Zm.756-5.247a.418.418,0,0,1-.052,0,.533.533,0,0,1-.481-.582q.1-1.034.167-2.1a.518.518,0,0,1,.566-.5.535.535,0,0,1,.5.566c-.045.721-.1,1.432-.169,2.133A.535.535,0,0,1,642.388,183.5Z" transform="translate(-607.439 -180.319)" fill="#26aab7"/></g><g transform="translate(0 36.917)"><path d="M605.059,212.2a.6.6,0,0,1-.114-.012c-.352-.078-.7-.16-1.055-.248a.534.534,0,0,1,.256-1.038q.518.13,1.027.242a.534.534,0,0,1-.114,1.056Z" transform="translate(-603.484 -210.883)" fill="#a8cff0"/></g></g><g transform="translate(1.196 51.807)"><path d="M540.97,133.1a.535.535,0,0,1-.525-.439c-.064-.354-.127-.708-.185-1.06a.534.534,0,1,1,1.054-.176c.059.348.119.7.183,1.046a.535.535,0,0,1-.431.621A.594.594,0,0,1,540.97,133.1Z" transform="translate(-540.253 -130.976)" fill="#26aab7"/></g><path d="M639.571,147.289a.537.537,0,0,1-.5-.335q-.4-1-.827-1.992a.534.534,0,1,1,.983-.419q.426,1,.836,2.01a.536.536,0,0,1-.5.735Zm-2.144-4.975a.536.536,0,0,1-.486-.313q-.447-.979-.913-1.955a.534.534,0,1,1,.964-.462q.47.984.921,1.973a.535.535,0,0,1-.264.709A.545.545,0,0,1,637.427,142.314Zm-2.354-4.878a.536.536,0,0,1-.477-.293q-.487-.96-.993-1.915a.534.534,0,1,1,.944-.5q.51.962,1,1.931a.536.536,0,0,1-.235.719A.547.547,0,0,1,635.073,137.436Zm-2.551-4.775a.534.534,0,0,1-.466-.273q-.529-.941-1.071-1.873a.534.534,0,1,1,.922-.538q.548.939,1.079,1.887a.534.534,0,0,1-.465.8Zm-92.142-.493a.534.534,0,0,1-.529-.465q-.143-1.084-.26-2.161a.535.535,0,0,1,1.063-.115q.115,1.066.256,2.136a.534.534,0,0,1-.461.6A.523.523,0,0,1,540.38,132.168Zm89.4-4.172a.536.536,0,0,1-.455-.253q-.564-.919-1.145-1.826a.534.534,0,1,1,.9-.575q.585.914,1.155,1.84a.534.534,0,0,1-.455.814Zm-89.937-1.212a.534.534,0,0,1-.532-.5q-.074-1.092-.118-2.176a.536.536,0,0,1,.514-.555h.02a.534.534,0,0,1,.534.513q.042,1.068.115,2.146a.534.534,0,0,1-.5.569Zm87-3.333a.534.534,0,0,1-.442-.235q-.6-.893-1.22-1.776a.535.535,0,0,1,.877-.611q.619.888,1.228,1.789a.534.534,0,0,1-.442.834Zm-87.176-2.072h0a.534.534,0,0,1-.532-.536c0-.737.016-1.464.043-2.181a.534.534,0,0,1,.534-.514h.019a.535.535,0,0,1,.515.554c-.027.706-.04,1.421-.043,2.146A.535.535,0,0,1,539.668,121.378Zm84.061-2.346a.532.532,0,0,1-.43-.217q-.641-.867-1.293-1.722a.534.534,0,1,1,.85-.649q.657.861,1.3,1.736a.534.534,0,0,1-.43.852ZM539.9,115.976l-.047,0a.535.535,0,0,1-.486-.578q.094-1.1.225-2.172a.54.54,0,0,1,.6-.464.534.534,0,0,1,.466.6c-.087.7-.159,1.41-.222,2.132A.534.534,0,0,1,539.9,115.976Zm80.523-1.223a.534.534,0,0,1-.416-.2q-.675-.838-1.365-1.662a.535.535,0,0,1,.821-.686q.694.832,1.376,1.678a.534.534,0,0,1-.417.869Zm-3.483-4.13a.534.534,0,0,1-.4-.181q-.712-.808-1.435-1.6a.534.534,0,1,1,.787-.721q.733.8,1.45,1.613a.534.534,0,0,1-.4.887Zm-76.329-.007a.49.49,0,0,1-.1-.01.535.535,0,0,1-.431-.621q.2-1.092.44-2.143a.534.534,0,1,1,1.042.238q-.234,1.029-.43,2.1A.535.535,0,0,1,540.615,110.616Zm72.659-3.959a.538.538,0,0,1-.384-.161q-.753-.776-1.516-1.532a.535.535,0,0,1,.752-.76q.77.763,1.53,1.545a.533.533,0,0,1-.011.756A.527.527,0,0,1,613.274,106.658Zm-71.394-1.3a.555.555,0,0,1-.155-.022.534.534,0,0,1-.356-.667q.324-1.063.69-2.08a.534.534,0,1,1,1,.363q-.358.991-.671,2.027A.534.534,0,0,1,541.88,105.36Zm67.53-2.49a.531.531,0,0,1-.364-.143q-.789-.736-1.591-1.45a.535.535,0,1,1,.713-.8q.808.721,1.606,1.466a.533.533,0,0,1-.363.924ZM543.786,100.3a.533.533,0,0,1-.485-.757q.463-1.013.977-1.968a.534.534,0,1,1,.942.506q-.5.927-.948,1.908A.533.533,0,0,1,543.786,100.3Zm61.565-1.013a.534.534,0,0,1-.343-.124q-.827-.691-1.667-1.359a.534.534,0,1,1,.666-.836q.848.675,1.686,1.375a.533.533,0,0,1-.342.944ZM601.1,95.946a.533.533,0,0,1-.317-.1q-.869-.641-1.745-1.256a.534.534,0,1,1,.613-.875q.887.622,1.767,1.272a.534.534,0,0,1-.317.964Zm-54.68-.358a.528.528,0,0,1-.3-.091.535.535,0,0,1-.145-.742c.414-.613.849-1.213,1.294-1.782a.534.534,0,0,1,.841.659c-.43.548-.85,1.126-1.248,1.719A.533.533,0,0,1,546.419,95.588Zm50.229-2.716a.529.529,0,0,1-.289-.084q-.909-.584-1.824-1.138a.534.534,0,1,1,.553-.914q.928.561,1.85,1.152a.535.535,0,0,1-.29.984ZM549.829,91.4a.535.535,0,0,1-.38-.911c.517-.522,1.058-1.028,1.611-1.5a.534.534,0,1,1,.7.81c-.53.457-1.051.944-1.548,1.446A.533.533,0,0,1,549.829,91.4ZM592,90.109a.532.532,0,0,1-.256-.065q-.954-.521-1.9-1a.535.535,0,1,1,.482-.954q.96.486,1.931,1.014a.534.534,0,0,1-.255,1Zm-38-2.139a.534.534,0,0,1-.295-.98c.612-.406,1.248-.789,1.89-1.139a.534.534,0,0,1,.512.938c-.615.336-1.225.7-1.811,1.092A.533.533,0,0,1,553.994,87.971Zm33.154-.257a.539.539,0,0,1-.217-.046q-.994-.439-1.976-.83a.535.535,0,1,1,.4-.993q1,.4,2.012.845a.535.535,0,0,1-.216,1.024ZM582.1,85.765a.528.528,0,0,1-.167-.027q-1.032-.34-2.048-.625a.535.535,0,0,1,.29-1.029q1.037.292,2.091.639a.534.534,0,0,1-.167,1.042Zm-23.32-.281a.535.535,0,0,1-.2-1.032c.675-.265,1.375-.508,2.084-.72a.534.534,0,0,1,.307,1.024c-.68.2-1.352.437-2,.691A.542.542,0,0,1,558.783,85.484Zm18.1-1.119a.557.557,0,0,1-.109-.012q-1.061-.216-2.1-.373a.535.535,0,0,1,.158-1.058q1.069.162,2.16.385a.535.535,0,0,1-.107,1.058Zm-12.9-.336a.534.534,0,0,1-.092-1.06c.714-.126,1.447-.228,2.18-.3a.534.534,0,1,1,.108,1.063c-.706.072-1.414.17-2.1.291A.473.473,0,0,1,563.979,84.029Zm7.544-.391h-.033q-1.077-.069-2.129-.068a.534.534,0,0,1,0-1.069q1.085,0,2.2.069a.534.534,0,0,1-.034,1.068Z" transform="translate(-539.134 -82.501)" fill="#26aab7"/><g transform="translate(101.11 66.808)"><path d="M634.646,147.084a.534.534,0,0,1-.5-.351l-.37-1a.535.535,0,1,1,1-.373l.372,1.006a.535.535,0,0,1-.318.685A.56.56,0,0,1,634.646,147.084Z" transform="translate(-633.741 -145.012)" fill="#26aab7"/></g><g transform="translate(51.294 146.549)"><g transform="translate(30.396)"><path d="M616.512,221.681a.536.536,0,0,1-.5-.335q-.2-.491-.4-.982a.534.534,0,1,1,.985-.413c.139.33.276.663.41.994a.537.537,0,0,1-.3.7A.553.553,0,0,1,616.512,221.681Z" transform="translate(-615.57 -219.625)" fill="#12263f"/></g><g transform="translate(3.803 3.956)"><path d="M603.474,271.178h0c-.713,0-1.44-.04-2.161-.108a.534.534,0,0,1-.482-.582.555.555,0,0,1,.582-.482c.689.065,1.385.1,2.065.1a.534.534,0,0,1,0,1.069Zm3.162-.223a.535.535,0,0,1-.078-1.063,18.245,18.245,0,0,0,2.012-.416.535.535,0,0,1,.276,1.033,19.686,19.686,0,0,1-2.13.439A.5.5,0,0,1,606.637,270.955Zm-8.411-.373a.51.51,0,0,1-.112-.013c-.683-.146-1.385-.325-2.087-.528a.534.534,0,0,1,.3-1.027c.68.2,1.357.369,2.017.512a.534.534,0,0,1-.113,1.056Zm13.461-1.142a.534.534,0,0,1-.228-1.017,16.653,16.653,0,0,0,1.794-.986.534.534,0,1,1,.572.9,16.954,16.954,0,0,1-1.911,1.052A.546.546,0,0,1,611.687,269.44Zm-18.516-.405a.525.525,0,0,1-.2-.037c-.652-.256-1.31-.534-1.976-.839a.535.535,0,1,1,.445-.973q.97.444,1.922.816a.534.534,0,0,1-.195,1.032Zm22.875-2.55a.534.534,0,0,1-.363-.926,17.934,17.934,0,0,0,1.42-1.482.534.534,0,0,1,.812.693,18.556,18.556,0,0,1-1.506,1.572A.529.529,0,0,1,616.046,266.485Zm3.323-4.1a.527.527,0,0,1-.278-.078.535.535,0,0,1-.177-.735c.352-.575.685-1.184.991-1.81a.535.535,0,0,1,.961.469c-.322.656-.671,1.294-1.04,1.9A.536.536,0,0,1,619.369,262.388Zm2.225-4.787a.522.522,0,0,1-.173-.03.534.534,0,0,1-.331-.679c.22-.641.422-1.309.6-1.988a.535.535,0,0,1,1.034.274c-.186.7-.4,1.395-.624,2.062A.533.533,0,0,1,621.594,257.6Zm1.272-5.129a.5.5,0,0,1-.089-.007.533.533,0,0,1-.439-.615q.167-1.008.279-2.067a.535.535,0,0,1,1.063.113q-.117,1.089-.289,2.129A.535.535,0,0,1,622.866,252.472Zm.5-5.265h-.018a.535.535,0,0,1-.516-.553c.015-.479.022-.966.022-1.459l0-.634a.535.535,0,0,1,.527-.542.563.563,0,0,1,.542.528l0,.648c0,.506-.008,1-.022,1.5A.536.536,0,0,1,623.365,247.208Zm-.124-5.29a.536.536,0,0,1-.532-.494q-.077-1.04-.2-2.089a.535.535,0,0,1,1.062-.12q.119,1.068.2,2.128a.535.535,0,0,1-.493.574Zm-.639-5.255a.535.535,0,0,1-.526-.446q-.173-1.031-.382-2.066a.535.535,0,0,1,1.048-.211c.14.7.27,1.4.387,2.1a.536.536,0,0,1-.438.616A.528.528,0,0,1,622.6,236.663Zm-1.085-5.18a.535.535,0,0,1-.518-.4q-.253-1.018-.542-2.033a.535.535,0,1,1,1.029-.291q.29,1.032.549,2.063a.534.534,0,0,1-.388.649A.551.551,0,0,1,621.517,231.482Zm-1.475-5.085a.533.533,0,0,1-.507-.368q-.329-1-.685-1.989a.534.534,0,1,1,1.006-.361q.361,1.007.694,2.017a.534.534,0,0,1-.508.7Z" transform="translate(-590.687 -223.327)" fill="#12263f"/></g><g transform="translate(0 45.798)"><path d="M588.6,264.073a.527.527,0,0,1-.256-.066q-.47-.258-.943-.53a.534.534,0,1,1,.532-.927c.309.177.617.352.923.519a.535.535,0,0,1-.256,1Z" transform="translate(-587.129 -262.478)" fill="#12263f"/></g></g><g transform="translate(80.832 145.212)"><path d="M615.3,222.292h-.034a.534.534,0,0,1-.5-.566l.177-2.85a.534.534,0,0,1,.851-.4l2.4,1.782a.534.534,0,1,1-.636.857l-1.615-1.2-.115,1.869A.535.535,0,0,1,615.3,222.292Z" transform="translate(-614.768 -218.374)" fill="#12263f"/></g></g><path d="M435.211,133.835c-.019-3.509-4.961-6.362-11.038-6.373s-10.988,2.825-10.968,6.332c.017,3.212,4.162,5.866,9.521,6.3l.01,1.778c-1.016.155-1.766.684-1.762,1.321l.033,6.07c0,.76,1.074,1.378,2.391,1.381l1.8,0c1.317,0,2.381-.612,2.377-1.372l-.033-6.07c0-.637-.759-1.169-1.777-1.327l-.01-1.778C431.114,139.685,435.228,137.045,435.211,133.835Z" transform="translate(7.769 4.468)" fill="#fff"/><g transform="translate(371.733 62.453)"><path d="M571.577,386.5,380.523,276.135c-7.4-4.271-13.392-15.727-13.392-25.59V76.744c0-9.862,6-14.395,13.392-10.124L571.577,176.989c7.4,4.271,13.392,15.727,13.392,25.59v173.8C584.97,386.242,578.974,390.774,571.577,386.5Z" transform="translate(-367.131 -62.277)" fill="url(#o)"/><path d="M576.547,174.429,385.493,64.06c-2.926-1.69-5.633-2-7.837-1.151-.28.109-5.514,2.812-5.778,2.958l-.012.007c2.282-1.108,5.176-.9,8.331.921L571.252,177.165c7.4,4.271,13.392,15.727,13.392,25.59v173.8c0,6.154-2.335,10.232-5.89,11.392a2.223,2.223,0,0,0,1.173-.4c.17-.1,5.722-3.1,5.883-3.217,2.545-1.782,4.128-5.443,4.128-10.512v-173.8C589.94,190.157,583.943,178.7,576.547,174.429Z" transform="translate(-366.806 -62.453)" fill="#12263f"/><path d="M571.836,176.689,380.783,66.318c-3.033-1.752-5.821-2-8.067-1.03a9.883,9.883,0,0,1,6.459,1.512l191.054,110.37c7.4,4.271,13.392,15.726,13.392,25.59v173.8c0,5.818-2.1,9.76-5.327,11.155,4.133-.655,6.933-4.9,6.933-11.637v-173.8C585.228,192.415,579.232,180.959,571.836,176.689Z" transform="translate(-366.747 -62.296)" fill="#fff" style="mix-blend-mode:screen;isolation:isolate"/><path d="M374.169,90.449V248.8c0,7.735,3.682,15.295,9.635,19.078L572.817,377.052l.314.18a2.563,2.563,0,0,0,3.833-2.224V207.6Z" transform="translate(-366.647 -60.528)" fill="#12263f"/><path d="M576.694,375.807l-.313-.18L387.366,266.448c-5.953-3.782-9.635-11.341-9.635-19.077V92.506l-3.562-2.057V248.8c0,7.735,3.682,15.295,9.635,19.078L572.817,377.052l.314.18a2.557,2.557,0,0,0,3.675-1.379C576.77,375.834,576.731,375.827,576.694,375.807Z" transform="translate(-366.647 -60.528)" fill="#001a46"/><g transform="translate(180.664 114.407)"><path d="M553.967,182.444a8.122,8.122,0,0,0,3.686,6.358c2.035,1.176,3.686.234,3.686-2.1a8.125,8.125,0,0,0-3.686-6.358C555.617,179.167,553.967,180.109,553.967,182.444Z" transform="translate(-534.953 -168.791)" fill="#12263f"/><path d="M545.071,177.277a8.12,8.12,0,0,0,3.686,6.357c2.036,1.176,3.686.235,3.686-2.1a8.12,8.12,0,0,0-3.686-6.357C546.721,174,545.071,174.94,545.071,177.277Z" transform="translate(-535.565 -169.147)" fill="#12263f"/><path d="M536.176,172.109a8.12,8.12,0,0,0,3.686,6.358c2.035,1.176,3.686.235,3.686-2.1a8.125,8.125,0,0,0-3.686-6.358C537.826,168.833,536.176,169.773,536.176,172.109Z" transform="translate(-536.176 -169.502)" fill="#12263f"/></g></g><path d="M491.868,167.539l-13.862-8c-1.4-.808-2.536-.16-2.536,1.446a5.587,5.587,0,0,0,2.536,4.374l13.862,8c1.4.809,2.536.161,2.536-1.446A5.589,5.589,0,0,0,491.868,167.539Zm22.824,13.177-13.864-8c-1.4-.809-2.536-.161-2.536,1.446a5.587,5.587,0,0,0,2.536,4.373l13.864,8c1.4.808,2.536.161,2.536-1.446A5.59,5.59,0,0,0,514.691,180.717Zm22.823,13.177-13.862-8c-1.4-.808-2.536-.16-2.536,1.446a5.587,5.587,0,0,0,2.536,4.374l13.862,8c1.4.809,2.536.161,2.536-1.446A5.585,5.585,0,0,0,537.514,193.894Zm22.823,13.176-13.862-8c-1.4-.809-2.536-.161-2.536,1.446a5.587,5.587,0,0,0,2.536,4.374l13.862,8c1.4.808,2.536.161,2.536-1.446A5.587,5.587,0,0,0,560.337,207.07Z" transform="translate(12.048 6.649)" fill="url(#a)"/><g transform="translate(309.047 106.882)"><g transform="translate(9.72)"><path d="M439.344,177.963v59.661l6.526-3.82V173.974Z" transform="translate(-309.202 -99.217)" fill="#b0c0d2"/><path d="M447.738,182.518v59.661L317.571,167.533V107.7Z" transform="translate(-317.571 -103.772)" fill="url(#a)"/><path d="M317.571,107.955l130.167,74.816,6.5-3.989L324.03,104.025Z" transform="translate(-317.571 -104.025)" fill="#b0c0d2"/><path d="M317.571,107.7l130.167,74.816,6.5-3.989-6.519,3.081Z" transform="translate(-317.571 -103.772)" fill="#fff" opacity="0.7"/></g><g transform="translate(61.951 43.764)"><path d="M424.172,214.948v-2.533L383.09,189.061v2.533Z" transform="translate(-365.299 -141.944)" fill="#12263f"/><path d="M366.443,144.974v2.533l69.055,39.5v-2.533Z" transform="translate(-366.443 -144.974)" fill="#12263f"/><path d="M390.757,178.713l-24.314-14.038v2.533l24.314,14.038Z" transform="translate(-366.443 -143.62)" fill="#12263f"/><path d="M404.59,196.549v2.533l10.044,5.435v-2.533Z" transform="translate(-363.821 -141.429)" fill="#12263f"/><path d="M405.653,177.463l-39.21-22.638v2.533L405.653,180Z" transform="translate(-366.443 -144.297)" fill="#12263f"/><path d="M380.8,168.042l-14.362-8.292v2.533l14.362,8.292Z" transform="translate(-366.443 -143.959)" fill="#12263f"/><path d="M376.465,182.844l27.564,15.914v-2.533l-27.564-15.914Z" transform="translate(-365.754 -142.545)" fill="#12263f"/><path d="M382.215,168.855v2.533l38.7,21.979v-2.533Z" transform="translate(-365.359 -143.333)" fill="#12263f"/><path d="M391.527,179.157v2.533l19.348,11.171v-2.533Z" transform="translate(-364.719 -142.625)" fill="#12263f"/><path d="M374.66,179.269l-8.217-4.744v2.533l8.217,4.744Z" transform="translate(-366.443 -142.943)" fill="#12263f"/><path d="M405.465,179.887l27.351,15.426V192.78l-27.351-15.426Z" transform="translate(-363.761 -142.749)" fill="#fff"/><path d="M420.759,193.3l11.006,6.354v-2.533l-11.006-6.354Z" transform="translate(-362.71 -141.827)" fill="#12263f"/><path d="M366.443,152.433l69.055,39.5V189.4l-69.055-39.5Z" transform="translate(-366.443 -144.636)" fill="#12263f"/><path d="M411.965,193.49l20.4,11.416v-2.533l-20.4-11.416Z" transform="translate(-363.314 -141.814)" fill="#12263f"/><path d="M381.74,188.282l-15.3-8.832v2.533l15.3,8.832Z" transform="translate(-366.443 -142.605)" fill="#12263f"/><path d="M423.863,214.794l7.688,4.439V216.7l-7.688-4.439Z" transform="translate(-362.496 -140.35)" fill="#12263f"/><path d="M416.321,205.514l15.748,9.092v-2.533l-15.748-9.092Z" transform="translate(-363.015 -140.987)" fill="#12263f"/><path d="M366.443,172.133l69.055,39.5V209.1l-69.055-39.5Z" transform="translate(-366.443 -143.282)" fill="#12263f"/></g><path d="M354.865,136.5l-22.7-13.133c-3.968-2.291-7.186.141-7.186,5.433v26.278c0,5.291,3.218,11.44,7.186,13.731l22.7,13.132c3.968,2.292,7.186-.14,7.186-5.432V150.231C362.051,144.939,358.833,138.791,354.865,136.5Z" transform="translate(-307.342 -102.755)" fill="#12263f"/><path d="M357.671,179.8l-22.7-13.132c-3.968-2.291-7.186-8.44-7.186-13.732V126.66a8.609,8.609,0,0,1,.889-4.1c-2.2.366-3.695,2.638-3.695,6.239v26.277c0,5.292,3.218,11.441,7.186,13.732l22.7,13.132c2.714,1.567,5.074.923,6.3-1.332A5.283,5.283,0,0,1,357.671,179.8Z" transform="translate(-307.342 -102.751)" fill="#b0c0d2"/><g transform="translate(0 24.93)"><path d="M338.365,143.375l-22.7-13.133c-3.968-2.291-7.186.141-7.186,5.433v26.278c0,5.291,3.218,11.44,7.186,13.731l22.7,13.132c3.968,2.292,7.186-.14,7.186-5.432V157.106C345.551,151.814,342.333,145.666,338.365,143.375Z" transform="translate(-308.476 -127.212)" fill="#0fbab8"/><path d="M341.912,141.343l-22.7-13.133a4.7,4.7,0,0,0-4.49-.485l-.04-.043-3.928,2.306.015.048c1.265-.753,2.921-.7,4.739.345l22.7,13.133c3.968,2.291,7.186,8.439,7.186,13.731v26.278c0,2.572-.764,4.461-2,5.468l2.191-1.443a6.468,6.468,0,0,0,3.514-6.2V155.074C349.1,149.783,345.881,143.634,341.912,141.343Z" transform="translate(-308.32 -127.352)" fill="#0ba19f"/><path d="M338.605,143.06l-22.7-13.132c-1.972-1.139-3.757-1.109-5.055-.145a4.855,4.855,0,0,1,4.181.616l22.7,13.133c3.969,2.291,7.187,8.439,7.187,13.731V183.54c0,2.663-.816,4.6-2.132,5.577,1.818-.689,3.005-2.837,3.005-6.048V156.792C345.791,151.5,342.574,145.352,338.605,143.06Z" transform="translate(-308.313 -127.234)" fill="#fff" opacity="0.7"/><path d="M314.111,136.972v30.082l24.619,14.219V151.193Zm23.042,41.568-21.463-12.4V139.706l21.463,12.4Z" transform="translate(-308.089 -126.691)" fill="#fff"/><path d="M332.487,155.654c0,1.971-1.393,2.764-3.11,1.773a6.853,6.853,0,0,1-3.11-5.364c0-1.971,1.393-2.765,3.11-1.773A6.852,6.852,0,0,1,332.487,155.654Z" transform="translate(-307.253 -125.805)" fill="#fff"/><path d="M314.883,158.173l6.41-8.284,6.509,16.469,4.734-3.846,5.227,14.2-.1,1.438-22.682-12.13Z" transform="translate(-308.036 -125.803)" fill="#fff"/></g></g><g transform="translate(467.34 210.767)"><path d="M589.863,281.759v72.86l6.526-3.82v-73.03Z" transform="translate(-447.43 -195.967)" fill="#12263f"/><path d="M599.047,286.767v72.86L456.59,277.935v-73.03Z" transform="translate(-456.59 -200.976)" fill="url(#a)"/><path d="M456.59,205.158,599.047,287.02l6.5-3.989-142.5-81.8Z" transform="translate(-456.59 -201.228)" fill="url(#o)"/><path d="M456.59,204.905l142.458,81.862,6.5-3.989-6.519,3.081Z" transform="translate(-456.59 -200.976)" fill="#fff" opacity="0.7"/><ellipse cx="18.195" cy="31.516" rx="18.195" ry="31.516" transform="translate(79.84 86.764) rotate(-30.311)" fill="#12263f"/><path d="M564.451,324.788C552.1,317.66,542.1,300.4,542.1,286.23c0-5.286,1.395-9.392,3.783-12.1-3.674,2.451-5.921,7.258-5.921,13.966,0,14.167,10.009,31.43,22.356,38.558,7.74,4.469,14.559,3.892,18.571-.65C576.8,328.732,570.951,328.541,564.451,324.788Z" transform="translate(-450.86 -196.217)" fill="#fff"/><g transform="translate(8.272 38.449)"><path d="M504.769,242.7l-4.807-2.774v54.168l4.807,2.774Zm6.922-2.716-4.807-2.775v60.82l4.807,2.774Zm7.126,12.236-4.807-2.774V302.1l4.807,2.776Zm-33.107,3.815v29.675l4.806,2.776V258.806Zm11.932-8.25-4.807-2.774v44.771l4.807,2.775Zm28.164,19.472L521,264.479v41.69l4.806,2.776Zm6.855,17.191-4.806-2.776v28.5l4.806,2.774Zm-49.273-33.557-4.807-2.776v33.3l4.807,2.776Zm-19.059,1.965v20.176l4.806,2.775V255.629Zm11.932-7.913-4.806-2.775V277.1l4.806,2.776Z" transform="translate(-464.33 -237.205)" fill="#12263f"/><path d="M504.769,263.379l-4.807-2.774v32.905l4.807,2.774Zm6.922-14.96-4.807-2.775v51.8l4.807,2.774Zm7.126,12.833-4.807-2.775v43.041l4.807,2.775Zm-33.107,1.41v22.466l4.806,2.775V265.437Zm11.932-.881-4.807-2.774V289.2l4.807,2.775Zm-14.254-8.749-4.807-2.776V280.83l4.807,2.776ZM464.33,266.606v5.843l4.806,2.775v-5.844Zm11.932.012-4.806-2.776v12.678l4.806,2.775Zm49.544,7.816L521,271.659v33.93l4.806,2.775Zm6.855,13.659-4.806-2.774v24.275l4.806,2.774Z" transform="translate(-464.33 -236.625)" fill="#ffd947"/><g transform="translate(0 9.018)"><path d="M515.622,261.027l-4.806-2.775v-.6l4.806,2.775Z" transform="translate(-461.135 -244.818)" fill="#fff"/><path d="M508.954,249.019l-4.807-2.775v-.6l4.807,2.775Z" transform="translate(-461.593 -245.643)" fill="#fff"/><path d="M528.576,286.142l-4.806-2.775v-.6l4.806,2.775Z" transform="translate(-460.244 -243.092)" fill="#fff"/><path d="M502.477,263.017l-4.807-2.775v-.6l4.807,2.775Z" transform="translate(-462.038 -244.681)" fill="#fff"/><path d="M522.163,273.361l-4.807-2.775v-.6l4.807,2.775Z" transform="translate(-460.685 -243.97)" fill="#fff"/><path d="M475.8,266.048,471,263.273v-.6l4.807,2.775Z" transform="translate(-463.872 -244.473)" fill="#fff"/><path d="M482.472,253.336l-4.807-2.775v-.6l4.807,2.775Z" transform="translate(-463.413 -245.347)" fill="#fff"/><path d="M469.136,268.033v.6l-4.807-2.775v-.6Z" transform="translate(-464.33 -244.295)" fill="#fff"/><path d="M495.809,261.522,491,258.747v-.6l4.807,2.775Z" transform="translate(-462.497 -244.784)" fill="#fff"/><path d="M489.141,264.943l-4.807-2.775v-.6l4.807,2.775Z" transform="translate(-462.955 -244.549)" fill="#fff"/></g></g><g transform="translate(83.619 77.918)"><g transform="translate(0.199)"><path d="M540.577,291.534c.293-10.708,8.076-14.965,17.625-9.452,4.915,2.839,9.364,7.729,12.568,13.312l3.523-.886c-4.013-7.28-9.739-13.7-16.091-17.367-12.017-6.938-21.806-1.453-21.953,12.212l2.818,2.56Z" transform="translate(-534.932 -274.135)" fill="#d2e1f1"/><path d="M567.138,323.775a15.174,15.174,0,0,1-8.85-2.352c-9.046-5.222-16.513-17.384-17.527-28.041l-4.31-2.173c.008.078-1.441.371-1.433.449,1.246,13.266,12.009,28.2,23.271,34.706,4.089,2.361,6.857,3.6,10.139,3.253.138-.014,1.337-.356,1.473-.375Z" transform="translate(-535.017 -272.962)" fill="#d2e1f1"/><path d="M570.321,297.112a33.727,33.727,0,0,1,3.417,13.9c0,6.4-2.608,10.6-6.66,11.977l2.729,5.4c5.017-1.725,8.237-6.955,8.237-14.895a41.921,41.921,0,0,0-4.223-17.267Z" transform="translate(-532.813 -272.617)" fill="#d2e1f1"/></g><path d="M563.442,306.647a15.06,15.06,0,0,1-3.1-3.706c-.512-.857-.494-1.787,0-2.077a3.962,3.962,0,0,0,1.581-1.763c.543.151,1.215-.049,1.215-.793a2.943,2.943,0,0,0-.783-2c-.133-3.248-1.242-6.586-4.978-8.742a4.644,4.644,0,0,0-3.026-.854c-.171.033-1.652.423-1.8.495-1.013.5-.081,1.591-.156,3.353-.449-.1-.784.34-.784,1.1a3.592,3.592,0,0,0,1.216,2.2,17.666,17.666,0,0,0,1.58,3.588c.5.865.516,1.815,0,2.081a4.081,4.081,0,0,1-3.1.133,2.321,2.321,0,0,0-1.294-.052c-.108.03-1.439.375-1.538.424-.695.346.1.853.1,2.032V305.4a2.26,2.26,0,0,0,1.025,1.767l14.353,9.5c.249.143,1.659-.358,1.836-.424a.673.673,0,0,0,.37-.69v-3.349A7.974,7.974,0,0,0,563.442,306.647Z" transform="translate(-533.911 -273.274)" fill="#fc0"/><g transform="translate(0.551 0.276)"><path d="M539.674,291.793c.293-10.709,8.076-14.967,17.625-9.453,4.915,2.839,9.364,7.729,12.568,13.312l3.523-.886c-4.013-7.28-9.739-13.7-16.091-17.367-12.017-6.938-21.806-1.453-21.953,12.212Z" transform="translate(-535.347 -274.393)" fill="#fff"/><path d="M566.143,324.033a15.174,15.174,0,0,1-8.85-2.352c-9.046-5.222-16.513-17.384-17.527-28.041l-4.31-2.173c1.158,13.322,10.509,28.614,21.837,35.155,4.261,2.46,8.241,3.353,11.612,2.878Z" transform="translate(-535.34 -273.22)" fill="#fff"/><path d="M569.418,297.37a33.727,33.727,0,0,1,3.417,13.9c0,6.4-2.608,10.6-6.66,11.977l2.73,5.4c5.017-1.725,8.237-6.955,8.237-14.895a41.92,41.92,0,0,0-4.223-17.267Z" transform="translate(-533.228 -272.875)" fill="#fff"/></g><path d="M562.514,306.9a15.045,15.045,0,0,1-3.1-3.707c-.512-.856-.494-1.786,0-2.075A3.963,3.963,0,0,0,561,299.358c.543.151,1.215-.049,1.215-.793a2.943,2.943,0,0,0-.783-2c-.133-3.248-1.242-6.586-4.978-8.742s-4.846-.1-4.978,2.993c-.449-.1-.784.34-.784,1.1a3.592,3.592,0,0,0,1.216,2.2,17.662,17.662,0,0,0,1.58,3.588c.5.865.516,1.815,0,2.081a4.082,4.082,0,0,1-3.1.133c-1.569-.475-2.735.471-2.735,2.4v3.349a2.26,2.26,0,0,0,1.025,1.767l15.535,8.969c.565.327,1.024.065,1.024-.584v-3.349A7.974,7.974,0,0,0,562.514,306.9Z" transform="translate(-533.949 -273.256)" fill="#fff"/><g transform="translate(0 0.414)"><path d="M539.158,291.921c.293-10.708,8.076-14.965,17.625-9.452,4.915,2.839,9.364,7.729,12.568,13.312l3.523-.886c-4.013-7.28-9.739-13.7-16.091-17.367-12.017-6.938-21.806-1.453-21.953,12.212Z" transform="translate(-534.831 -274.522)" fill="#12263f"/><path d="M565.627,324.162a15.174,15.174,0,0,1-8.85-2.352c-9.046-5.222-16.513-17.384-17.527-28.041l-4.31-2.173c1.158,13.321,10.509,28.614,21.837,35.155,4.261,2.46,8.241,3.353,11.612,2.878Z" transform="translate(-534.824 -273.349)" fill="#12263f"/><path d="M568.9,297.5a33.727,33.727,0,0,1,3.417,13.9c0,6.4-2.608,10.6-6.66,11.977l2.73,5.4c5.017-1.725,8.237-6.955,8.237-14.895a41.921,41.921,0,0,0-4.223-17.267Z" transform="translate(-532.712 -273.004)" fill="#12263f"/></g><path d="M562,307.034a15.057,15.057,0,0,1-3.1-3.706c-.512-.857-.494-1.787,0-2.077a3.963,3.963,0,0,0,1.581-1.763c.543.151,1.215-.049,1.215-.793a2.943,2.943,0,0,0-.783-2c-.133-3.248-1.242-6.586-4.978-8.742s-4.846-.1-4.978,2.994c-.449-.1-.784.34-.784,1.1a3.592,3.592,0,0,0,1.216,2.2,17.666,17.666,0,0,0,1.58,3.588c.5.865.516,1.815,0,2.081a4.076,4.076,0,0,1-3.1.133c-1.569-.475-2.735.471-2.735,2.4v3.349a2.26,2.26,0,0,0,1.025,1.767l15.535,8.969c.565.327,1.024.065,1.024-.585v-3.348A7.974,7.974,0,0,0,562,307.034Z" transform="translate(-533.984 -273.247)" fill="#ffde17"/></g></g><g transform="translate(355.252 209.977)"><path d="M457.329,264.565v30.51l5.117-2.812v-30.68Z" transform="translate(-344.45 -196.29)" fill="#0ba19f"/><path d="M464.613,268.576v30.51L351.709,233.9v-30.68Z" transform="translate(-351.709 -200.302)" fill="#0fbab8"/><path d="M351.709,203.411l112.9,65.353,5.093-2.982L356.76,200.489Z" transform="translate(-351.709 -200.489)" fill="#3ecfcd"/><path d="M351.709,203.223l112.9,65.353,5.093-2.982-4.987,2.18Z" transform="translate(-351.709 -200.302)" fill="#fff" opacity="0.7"/><path d="M458.514,289.245,356.922,229.953V211.976l101.592,59.292Z" transform="translate(-351.351 -199.7)" fill="#fff"/><g transform="translate(9.828 17.357)"><path d="M360.905,216.73l2.055,1.186.95,9.813.038.022,1.008-8.683,2.326,1.343,1.008,9.846.04.022.949-8.715,1.841,1.062L369.745,234.7l-2.656-1.533-.969-8.356-.038-.022-.969,7.236-2.83-1.633Z" transform="translate(-360.905 -216.73)" fill="#084c94"/><path d="M372.285,223.345l2.055,1.186.949,9.813.038.022,1.009-8.682,2.326,1.342,1.008,9.847.038.021.95-8.716,1.841,1.063-1.375,12.072-2.656-1.533-.969-8.356-.038-.022-.969,7.237-2.83-1.634Z" transform="translate(-360.123 -216.275)" fill="#084c94"/><path d="M383.756,229.869l2.055,1.186.949,9.813.04.022,1.008-8.682,2.326,1.342,1.008,9.847.04.022.949-8.717,1.841,1.063L392.6,247.84l-2.656-1.533-.969-8.356-.039-.022-.969,7.237-2.83-1.634Z" transform="translate(-359.334 -215.827)" fill="#084c94"/></g></g><g transform="translate(387.595 93.114)"><g transform="translate(0 15.136)"><path d="M399.672,117.576v21.276l3.209-1.768V115.644Z" transform="translate(-380.756 -104.595)" fill="#fc0"/><path d="M400.912,118.166v21.276L381.973,128.5V107.059Z" transform="translate(-381.973 -105.185)" fill="#ffd70f"/><path d="M381.973,107.179l18.94,11.107,3.185-1.933-18.981-11.049Z" transform="translate(-381.973 -105.305)" fill="#ffde17"/><path d="M381.973,107.059l18.94,11.107,3.185-1.933-3.346.908Z" transform="translate(-381.973 -105.185)" fill="#fff"/></g><g transform="translate(4.939)"><path d="M415.255,111.013v34.452l5.2-2.862V107.884Z" transform="translate(-384.624 -89.992)" fill="#69599f"/><path d="M386.594,94.177l30.669,17.986,5.158-3.129L391.685,91.143Z" transform="translate(-386.594 -91.143)" fill="#8d7cc9"/><path d="M386.594,93.982l30.669,17.986,5.158-3.129-5.019,2.39Z" transform="translate(-386.594 -90.947)" fill="#fff" opacity="0.7"/></g><path d="M386.594,93.982v14.289l16.231,9.519v20.289l14.438,8.341V111.968Z" transform="translate(-381.655 -90.947)" fill="#7d6eb2"/></g><g transform="translate(467.572 182.815)"><path d="M476.594,188.793v23.786l3.588-1.976V186.632Z" transform="translate(-455.446 -174.28)" fill="#0ba19f"/><path d="M477.98,189.452v23.786l-21.174-12.233v-23.97Z" transform="translate(-456.806 -174.939)" fill="#0fbab8"/><path d="M456.806,177.169l21.174,12.418,3.561-2.161-21.22-12.352Z" transform="translate(-456.806 -175.074)" fill="#3ecfcd"/><path d="M456.806,177.035l21.174,12.418,3.561-2.161-3.741,1.015Z" transform="translate(-456.806 -174.939)" fill="#fff" opacity="0.7"/><g transform="translate(27.787 16.031)"><path d="M502.594,203.793v23.786l3.588-1.976V201.632Z" transform="translate(-481.446 -189.28)" fill="#0ba19f"/><path d="M503.98,204.452v23.786l-21.174-12.233v-23.97Z" transform="translate(-482.806 -189.939)" fill="#0fbab8"/><path d="M482.806,192.169l21.174,12.418,3.561-2.161-21.22-12.352Z" transform="translate(-482.806 -190.074)" fill="#3ecfcd"/><path d="M482.806,192.035l21.174,12.418,3.561-2.161-3.741,1.015Z" transform="translate(-482.806 -189.939)" fill="#fff" opacity="0.7"/></g><g transform="translate(55.396 31.884)"><path d="M528.427,218.626v23.786l3.588-1.976v-23.97Z" transform="translate(-507.279 -204.113)" fill="#0ba19f"/><path d="M529.813,219.286v23.786l-21.174-12.233v-23.97Z" transform="translate(-508.639 -204.773)" fill="#0fbab8"/><path d="M508.639,207l21.174,12.418,3.561-2.161-21.22-12.353Z" transform="translate(-508.639 -204.907)" fill="#3ecfcd"/><path d="M508.639,206.868l21.174,12.418,3.561-2.161-3.741,1.015Z" transform="translate(-508.639 -204.773)" fill="#fff" opacity="0.7"/></g><g transform="translate(82.649 47.38)"><path d="M553.927,233.126v23.786l3.588-1.976v-23.97Z" transform="translate(-532.779 -218.613)" fill="#0ba19f"/><path d="M555.313,233.786v23.786l-21.174-12.233v-23.97Z" transform="translate(-534.139 -219.273)" fill="#0fbab8"/><path d="M534.139,221.5l21.174,12.418,3.561-2.161-21.22-12.353Z" transform="translate(-534.139 -219.407)" fill="#3ecfcd"/><path d="M534.139,221.368l21.174,12.418,3.561-2.161-3.741,1.015Z" transform="translate(-534.139 -219.273)" fill="#fff" opacity="0.7"/></g><path d="M523.1,228.726a9.544,9.544,0,0,1-1.959-2.346c-.324-.542-.312-1.131,0-1.313a2.5,2.5,0,0,0,1-1.116c.344.1.769-.031.769-.5a1.858,1.858,0,0,0-.5-1.268,6.232,6.232,0,0,0-3.15-5.533c-2.365-1.365-3.066-.063-3.151,1.895-.283-.063-.5.215-.5.7a2.27,2.27,0,0,0,.769,1.39,11.185,11.185,0,0,0,1,2.27c.315.547.327,1.149,0,1.317a2.582,2.582,0,0,1-1.959.083c-.993-.3-1.73.3-1.73,1.521v2.12a1.432,1.432,0,0,0,.648,1.118l9.831,5.675c.358.207.648.042.648-.369v-2.119A5.045,5.045,0,0,0,523.1,228.726Z" transform="translate(-452.895 -172.255)" fill="#fff"/><path d="M537.719,242.882l3.432,1.981v-6.154l-3.432-1.98Zm5.433,3.137L546.584,248v-11.28l-3.432-1.981Zm5.434-13.27v16.408l3.432,1.98V234.729Z" transform="translate(-451.245 -171.11)" fill="#fff"/><path d="M498.663,213a7.962,7.962,0,0,0-.068-.971l1.621-.205a14.579,14.579,0,0,0-.735-2.455l-1.847-.559a13,13,0,0,0-1.15-1.982l.443-1.865a14.835,14.835,0,0,0-1.769-1.864l-.995,1.286a8.139,8.139,0,0,0-.812-.548,6.443,6.443,0,0,0-.813-.39l-.994-2.435a4.933,4.933,0,0,0-1.77-.178l.442,2.376a2.538,2.538,0,0,0-1.15.655l-1.847-1.574a4.826,4.826,0,0,0-.735,1.606l1.621,2.077a6.181,6.181,0,0,0-.068.893,8,8,0,0,0,.068.973l-1.621.205a14.7,14.7,0,0,0,.735,2.454l1.847.559a13.047,13.047,0,0,0,1.15,1.984l-.442,1.864a14.845,14.845,0,0,0,1.77,1.865l.994-1.287a7.964,7.964,0,0,0,.813.548,6.149,6.149,0,0,0,.812.39l.995,2.435a4.9,4.9,0,0,0,1.769.178l-.443-2.375a2.544,2.544,0,0,0,1.15-.656l1.847,1.574a4.809,4.809,0,0,0,.735-1.605l-1.621-2.078A6.181,6.181,0,0,0,498.663,213Zm-5.313-.619a4.7,4.7,0,0,1-2.134-3.681c0-1.352.955-1.9,2.134-1.216a4.7,4.7,0,0,1,2.133,3.681C495.484,212.522,494.528,213.067,493.351,212.386Z" transform="translate(-454.766 -173.305)" fill="#fff"/><g transform="translate(3.392 11.526)"><path d="M460.478,185.888l6.815,10.65,6.815-2.78.006.009a2.61,2.61,0,0,0-.809-.788l-12.024-6.942a1.025,1.025,0,0,0-.809-.145Z" transform="translate(-459.946 -185.859)" fill="#fff"/><path d="M474.164,193.788l-6.837,3.9-1.935-3.339-4.88,1.991-.021-.032,4.538-2.586-4.537-7.825a.855.855,0,0,0-.512.9v8.145a2.941,2.941,0,0,0,1.336,2.3l12.024,6.942c.737.426,1.336.085,1.336-.762v-8.145A2.8,2.8,0,0,0,474.164,193.788Zm-.021,10.42-4.88-7.625.364-.208,4.537,7.825Z" transform="translate(-459.98 -185.857)" fill="#fff"/></g></g><g transform="translate(300.174 216.563)"><g transform="translate(0 0)"><path d="M376.818,253.914v30.51l4.817-2.74V251Z" transform="translate(-294.906 -203.603)" fill="#12263f"/><path d="M382.11,256.78v30.51L300.174,240v-30.68Z" transform="translate(-300.174 -206.468)" fill="#7d6eb2"/><path d="M300.174,209.5l81.936,47.461,4.793-2.91-81.979-47.4Z" transform="translate(-300.174 -206.652)" fill="#12263f"/><path d="M300.174,209.318,382.11,256.78l4.793-2.91-4.987,2Z" transform="translate(-300.174 -206.468)" fill="#fff" opacity="0.7"/></g><path d="M331.425,231.787l-14.978-8.648c-.92-.531-1.665-.106-1.665.949v10.145a3.664,3.664,0,0,0,1.665,2.871l9.361,5.406,4.681,8.073v-5.371l.936.541c.919.531,1.664.106,1.664-.949V234.657A3.666,3.666,0,0,0,331.425,231.787Zm-10.559,1.9c-.487.278-1.278-.178-1.766-1.02s-.487-1.747,0-2.025,1.278.178,1.766,1.018S321.353,233.408,320.866,233.686Zm4.057,2.342c-.487.278-1.278-.178-1.766-1.018s-.487-1.748,0-2.026,1.278.178,1.766,1.02S325.41,235.75,324.922,236.028Zm4.057,2.343c-.488.278-1.278-.178-1.766-1.02s-.487-1.747,0-2.025,1.277.178,1.766,1.02S329.467,238.092,328.979,238.37Zm-15.446-4.857v-8.237l-5.721-3.3c-.919-.531-1.664-.106-1.664.949v10.145a3.666,3.666,0,0,0,1.664,2.871l.936.541v5.371l4.681-2.669,9.362,5.4c.919.531,1.664.106,1.664-.949v-.478l-8.009-4.623A6.429,6.429,0,0,1,313.533,233.513Z" transform="translate(-299.763 -205.614)" fill="#fff"/><path d="M334.548,235.916v2.533l39.143,22.6v-2.533Z" transform="translate(-297.811 -204.64)" fill="#fff"/><path d="M361.312,261.233l-26.764-15.467V248.3l26.764,15.467Z" transform="translate(-297.811 -203.963)" fill="#fff"/><path d="M334.548,243.374l39.143,22.6v-2.533l-39.143-22.6Z" transform="translate(-297.811 -204.302)" fill="#fff"/></g><g transform="translate(347.071 197.748)"><path d="M432.11,315.347l-25.445-14.286c2.2-1.612,3.487-3.529,3.487-5.592,0-5.692-9.715-10.306-21.7-10.306s-21.7,4.614-21.7,10.306,9.714,10.306,21.7,10.306a43.618,43.618,0,0,0,7.118-.579l27.4,15.388a7.669,7.669,0,0,0,6.9-.286C432.137,319.149,434.824,316.949,432.11,315.347Z" transform="translate(-342.495 -182.441)" fill="#92b4d1" opacity="0.2"/><g transform="translate(0 0)"><g transform="translate(55.344 84.271)"><path d="M428.529,310.973a5.824,5.824,0,1,1-7.889-2.364A5.824,5.824,0,0,1,428.529,310.973Z" transform="translate(-394.346 -265.148)" fill="#12263f"/><path d="M411.393,276.511,398.784,283.3,417.593,318h0c.009.017.015.034.025.051,1.092,2.027,4.8,2.15,8.283.275s5.418-5.041,4.325-7.069c-.009-.017-.019-.032-.029-.049h0Z" transform="translate(-395.638 -267.306)" fill="#167377"/><path d="M411.426,276.638c1.092,2.027-.844,5.192-4.326,7.068s-7.19,1.754-8.283-.275.844-5.192,4.326-7.068S410.332,274.611,411.426,276.638Z" transform="translate(-395.656 -267.408)" fill="#727997"/><path d="M403.339,267.9l-7.5,4.041,5.332,9.9h0l.015.031c.65,1.206,2.856,1.279,4.927.163s3.223-3,2.574-4.2l-.018-.03h0Z" transform="translate(-395.84 -267.898)" fill="#12263f"/></g><g transform="translate(8.325)"><path d="M385.191,193.769c-9.336-5.391-17.8-6.008-24-2.654-.174.094-9.066,5.055-9.346,5.485,6.306-4.756,15.639-4.683,26.056,1.331,18.988,10.963,34.38,37.512,34.38,59.3,0,11.118-4.009,18.845-10.457,22.293a7.694,7.694,0,0,0,1.678-.737c.184-.1,6.247-3.776,6.426-3.886,5.97-3.649,9.643-11.187,9.643-21.831C419.572,231.281,404.179,204.731,385.191,193.769Z" transform="translate(-351.845 -189.047)" fill="#00223d"/></g><path d="M378.436,197.663c-18.988-10.963-34.381-2.187-34.381,19.6s15.393,48.339,34.381,59.3,34.38,2.187,34.38-19.6S397.424,208.626,378.436,197.663Zm-.516,73.7c-16.113-9.3-29.175-31.833-29.175-50.322s13.062-25.937,29.175-16.634S407.1,236.24,407.1,254.729,394.033,280.666,377.92,271.362Z" transform="translate(-344.055 -188.779)" fill="#12263f"/><path d="M383.658,267.474c-16.113-9.3-29.175-31.833-29.175-50.323,0-7.542,2.175-13.245,5.842-16.725-7.2,1.935-11.881,9.039-11.881,20.1,0,18.489,13.062,41.02,29.175,50.322,9.541,5.508,18.009,5.143,23.333.092C396.112,272.241,390.132,271.211,383.658,267.474Z" transform="translate(-343.753 -188.265)" fill="url(#a)"/><path d="M379.281,196.89c-9.1-5.255-17.371-5.964-23.522-2.888,5.733-1.6,14.166-.736,21.873,3.713,18.988,10.963,34.38,37.512,34.38,59.3,0,11.345-5.5,19.48-12.178,22.821,8.394-2.348,13.828-10.7,13.828-23.645C413.662,234.4,398.269,207.853,379.281,196.89Z" transform="translate(-343.251 -188.832)" fill="#fff" style="mix-blend-mode:screen;isolation:isolate"/></g></g></g></svg>