<svg xmlns="http://www.w3.org/2000/svg" xmlns:xlink="http://www.w3.org/1999/xlink" width="252.868" height="225.481" viewBox="0 0 252.868 225.481"><defs><linearGradient id="a" x1="0.5" x2="0.5" y2="1" gradientUnits="objectBoundingBox"><stop offset="0" stop-color="#fff"/><stop offset="1" stop-color="#f8f8f8"/></linearGradient></defs><g transform="translate(-776.424 -15847.308)"><rect width="252.868" height="225.481" transform="translate(776.424 15847.308)" fill="url(#a)"/><g transform="translate(593.666 15532.854)"><path d="M387.41,447.592a5.443,5.443,0,0,0,2.79.748h.032a5.439,5.439,0,0,0,2.791-.748,4.927,4.927,0,0,0,2.077-2.074,5.706,5.706,0,0,0,0-5.644,5.017,5.017,0,0,0-2.109-2.078,5.768,5.768,0,0,0-2.758-.744H390.2a6.138,6.138,0,0,0-2.757.744,5.2,5.2,0,0,0-2.108,2.078,5.714,5.714,0,0,0,0,5.644,4.925,4.925,0,0,0,2.076,2.074Zm-1.265-7.233a4.544,4.544,0,0,1,1.751-1.751,5,5,0,0,1,2.3-.616h.032a5.014,5.014,0,0,1,2.305.616,4.549,4.549,0,0,1,1.75,1.751,4.8,4.8,0,0,1,0,4.7,4.38,4.38,0,0,1-1.719,1.72,4.672,4.672,0,0,1-2.337.615H390.2a4.661,4.661,0,0,1-2.335-.615,4.376,4.376,0,0,1-1.72-1.72,4.588,4.588,0,0,1,0-4.7Z" transform="translate(16.463 7.24)" fill="#0059a3"/><path d="M388.452,443.028h.583a1.072,1.072,0,0,1,.779.227.411.411,0,0,1,.13.1,5.75,5.75,0,0,1,.908,1.3h0l.553.975h1.167l-.713-1.2h0a7.919,7.919,0,0,0-.909-1.2,1.609,1.609,0,0,0-.519-.323,1.894,1.894,0,0,0,1.265-.552,1.594,1.594,0,0,0,.488-1.168,1.416,1.416,0,0,0-.293-.876,1.4,1.4,0,0,0-.778-.583,3.414,3.414,0,0,0-1.168-.161c-.1,0-.226-.035-.357-.035h-2.109v6.1h.974v-2.6Zm0-2.66h1.492a4.916,4.916,0,0,1,.616.1.723.723,0,0,1,.422.323.793.793,0,0,1,.13.488.817.817,0,0,1-.292.65,1.389,1.389,0,0,1-.876.259h-1.492v-1.816Z" transform="translate(16.718 7.458)" fill="#0059a3"/><path d="M257.671,443.11h8.758l-8.758-14.6-7.4-12.295L218.84,435.1l4.8,8.013Z" transform="translate(1.813 5.398)" fill="#0059a3"/><path d="M333.019,448.508h42.787l-26.633-44.378-29.456-48.984-12.133,7.3-19.268,11.581,19.268,32.083,25.434,42.4Z" transform="translate(7.954)" fill="#0059a3"/><path d="M318.055,455.555a19.028,19.028,0,0,0-10.38-3.081h-.1a19.269,19.269,0,0,0,0,38.538h.1a19.028,19.028,0,0,0,10.38-3.081h0v2.012h8.857V440.926h-8.857v14.629Zm0,18.2a10.639,10.639,0,0,1-10.38,8.6h-.1a10.593,10.593,0,0,1,0-21.184h.1a10.611,10.611,0,0,1,10.38,8.566h0v4.024Z" transform="translate(7.961 7.582)" fill="#0059a3"/><path d="M356.266,454.617a18.949,18.949,0,0,0-10.381-3.081h-.1a19.269,19.269,0,0,0,0,38.538h.1a18.95,18.95,0,0,0,10.381-3.081h0V489h8.856v-36.5h-8.856v2.108Zm0,18.2a10.639,10.639,0,0,1-10.381,8.6h-.1a10.593,10.593,0,0,1,0-21.184h.1a10.611,10.611,0,0,1,10.381,8.566h0v4.024Z" transform="translate(11.339 8.52)" fill="#0059a3"/><path d="M393.172,468.438c-.322-.162-.777-.324-1.3-.518a93.329,93.329,0,0,0-9.667-2.5c-3.925-.876-5.9-2.012-5.9-3.439a3.023,3.023,0,0,1,1.038-2.4q1.365-1.167,4.866-1.168c2.368,0,4.087.518,5.094,1.525a6.339,6.339,0,0,1,1.363,3.276h9.406c0-4.607-1.881-7.916-5.579-9.926a3.554,3.554,0,0,0-.616-.326,24.337,24.337,0,0,0-10.219-1.817c-5.158,0-9.05,1.364-11.646,4.123a11.318,11.318,0,0,0-3.082,8.074c0,3.96,1.947,6.813,5.9,8.665,1.492.713,5.126,1.72,10.9,2.949,3.861.845,5.808,2.044,5.808,3.571a3.044,3.044,0,0,1-1.233,2.4,7.376,7.376,0,0,1-4.866,1.364c-2.888,0-4.931-.486-6.131-1.427a4.667,4.667,0,0,1-1.818-3.927h-9.861a10.833,10.833,0,0,0,5.677,10.024c3.016,1.72,6.974,2.6,11.872,2.6a21.96,21.96,0,0,0,8.694-1.624c.519-.225.974-.453,1.461-.713,3.861-2.141,5.805-5.546,5.805-10.219,0-3.826-1.979-6.682-5.97-8.563Z" transform="translate(14.787 8.486)" fill="#0059a3"/><path d="M227.984,454.617a19.14,19.14,0,0,0-10.413-3.081h-.1a19.269,19.269,0,0,0,0,38.538h.1a19.14,19.14,0,0,0,10.413-3.081h0V489h8.856v-36.5h-8.856v2.108Zm0,18.2a10.648,10.648,0,0,1-10.413,8.6h-.1a10.593,10.593,0,0,1,0-21.184h.1a10.62,10.62,0,0,1,10.413,8.566h0v4.024Z" transform="translate(0 8.52)" fill="#0059a3"/><path d="M276.365,449.57H286V441.1h-9.635v8.467Z" transform="translate(6.897 7.598)" fill="#0059a3"/><path d="M276.365,489H286V451.536h-9.635V489Z" transform="translate(6.897 8.52)" fill="#0059a3"/><path d="M266.585,455.555a19.14,19.14,0,0,0-10.413-3.081h-.1a19.269,19.269,0,0,0,0,38.538h.1a19.14,19.14,0,0,0,10.413-3.081h0v2.012h8.855V440.926h-8.855v14.629Zm0,18.2a10.648,10.648,0,0,1-10.413,8.6h-.1a10.593,10.593,0,0,1,0-21.184h.1a10.62,10.62,0,0,1,10.413,8.566h0v4.024Z" transform="translate(3.409 7.582)" fill="#0059a3"/><path d="M321.1,445.81l-10.446-17.454L285,385.666l-30.4,18.3-1.038.617L254.6,406.3l23.746,39.513H321.1Z" transform="translate(4.882 2.698)" fill="#0059a3"/></g></g></svg>