<svg xmlns="http://www.w3.org/2000/svg" width="331.478" height="398.676" viewBox="0 0 331.478 398.676"><g transform="translate(0 0)"><g transform="translate(58.865 255.974)"><path d="M572.678,351.879c1.205-.259,11.069,44.924,9.782,62.5s-9.782,78.651-9.782,78.651H532l-7.334-86.436,1.382,86.436H471.4s-12.664-59.407-10.406-77.4,14.286-65.307,14.286-65.307Z" transform="translate(-460.723 -350.322)" fill="#26aab7"/><g transform="translate(64.403 11.961)"><path d="M517.626,360.215a8.7,8.7,0,0,1,.085,1.69c.015,1.087,0,2.66-.042,4.6-.088,3.887-.337,9.255-.835,15.167s-1.159,11.247-1.726,15.095c-.283,1.922-.534,3.476-.733,4.545a8.623,8.623,0,0,1-.366,1.652,8.783,8.783,0,0,1,.125-1.687c.14-1.2.319-2.732.533-4.568.453-3.857,1.039-9.187,1.54-15.09s.816-11.253,1.018-15.131c.1-1.846.179-3.388.242-4.593A8.924,8.924,0,0,1,517.626,360.215Z" transform="translate(-513.992 -360.215)" fill="#455a64"/></g><g transform="translate(71.668 15.552)"><path d="M523.714,363.249a1.48,1.48,0,0,1,.9-.014,3.726,3.726,0,0,1,2.115,1.272,3.868,3.868,0,0,1,.8,1.56,3.411,3.411,0,0,1-.146,2.029,4,4,0,0,1-3.652,2.546,3.933,3.933,0,0,1-3.539-2.7,3.438,3.438,0,0,1-.076-2.032,3.538,3.538,0,0,1,.891-1.517,3.325,3.325,0,0,1,2.241-1.037c.6-.006.9.155.885.183-.011.054-.325-.018-.863.062a3.291,3.291,0,0,0-1.938,1.1,2.972,2.972,0,0,0-.592,3.054,3.4,3.4,0,0,0,3,2.26,3.462,3.462,0,0,0,3.1-2.133,3.1,3.1,0,0,0-.465-3.094,3.783,3.783,0,0,0-1.828-1.314A8.068,8.068,0,0,1,523.714,363.249Z" transform="translate(-520.001 -363.185)" fill="#455a64"/></g><g transform="translate(94.257 11.944)"><path d="M562.435,371.453a3.51,3.51,0,0,1-1.065.4,16.654,16.654,0,0,1-3.055.563A19.2,19.2,0,0,1,540.552,364a16.547,16.547,0,0,1-1.5-2.72,3.564,3.564,0,0,1-.361-1.081c.106-.049.7,1.464,2.225,3.545a19.964,19.964,0,0,0,17.366,8.23C560.857,371.839,562.406,371.34,562.435,371.453Z" transform="translate(-538.685 -360.201)" fill="#455a64"/></g></g><path d="M487.675,190.312c-3.083,11.221-7.749,20.218-12.3,24.73s-9.419,9.8-9.256,16.2c.064,2.515.9,5.184-.2,7.447-1.427,2.94-5.231,3.576-8.081,5.178-4.213,2.368-6.563,7.385-6.392,12.215a19.636,19.636,0,0,0,6.009,12.826c3.54,3.563,9.147,6.055,13.545,3.628,2.656-1.465,4.169-4.334,5.507-7.057q10.4-21.144,18.818-43.185" transform="translate(-403.797 -127.793)" fill="#263238"/><path d="M506.456,152.208a28.908,28.908,0,0,1,50.386,19.651c-.079,7.514-3.018,15.388-.05,22.291,2.1,4.883,6.959,8.571,7.628,13.844.775,6.118-4.457,11.667-4.183,17.827.179,4.022,2.7,7.574,5.6,10.366s6.273,5.091,8.935,8.112c7.394,8.4,7.867,21.666,2.278,31.361s-16.38,15.776-27.493,17.092-22.438-1.746-32.273-7.084c-6.408-3.478-12.426-8.063-16.235-14.28s-5.114-14.266-2.1-20.907" transform="translate(-394.216 -137.732)" fill="#263238"/><g transform="translate(71.9 107.696)"><path d="M535.478,228.108s25.08,7.4,27.523,11.376,10.321,50.55,10.321,50.55l-15.405,54.86s12.733,20.5,13.368,30.858c-28.461,18.362-60.584,13.218-94.194-1.491l-2.384-53.645-3.2-85.691,20.707-7.246Z" transform="translate(-471.505 -227.679)" fill="#d2e1f1"/><g transform="translate(1.612 120.118)"><path d="M563.081,335.182a5.034,5.034,0,0,1-.922-.019l-2.636-.179-9.678-.773-31.909-2.784-31.9-2.969-9.662-.972-2.625-.3a5.075,5.075,0,0,1-.912-.146,5.022,5.022,0,0,1,.921.019l2.633.178,9.677.773,31.918,2.787,31.9,2.969,9.661.971,2.623.3A5.048,5.048,0,0,1,563.081,335.182Z" transform="translate(-472.838 -327.031)" fill="#12263f"/></g><g transform="translate(13.218 67.522)"><path d="M531.651,283.842c0,.174-11.018.314-24.6.314s-24.608-.14-24.608-.314,11.015-.314,24.608-.314S531.651,283.668,531.651,283.842Z" transform="translate(-482.438 -283.528)" fill="#12263f"/></g><g transform="translate(45.869 30.97)"><path d="M559.12,253.354a11.688,11.688,0,0,1-1.954.186l-5.33.3c-4.5.249-10.717.62-17.573,1.145s-13.058,1.107-17.545,1.548l-5.315.511a11.872,11.872,0,0,1-1.959.114,11.708,11.708,0,0,1,1.93-.358c1.248-.19,3.056-.434,5.3-.71,4.477-.554,10.678-1.205,17.545-1.734s13.092-.826,17.6-.961c2.255-.069,4.079-.1,5.341-.105A11.633,11.633,0,0,1,559.12,253.354Z" transform="translate(-509.444 -253.295)" fill="#12263f"/></g><g transform="translate(91.496 11.805)"><path d="M547.183,237.443l25.157,68.273,16.892-33.638,22.073,4.523-12.71,53.019a22.484,22.484,0,0,1-17.728,18.9h0a22.483,22.483,0,0,1-21.153-6.874l-7.9-8.671Z" transform="translate(-547.183 -237.443)" fill="#e0e0e0"/><g transform="translate(24.113 67.758)"><path d="M567.658,337.135a9.1,9.1,0,0,1-.181-1.712c-.078-1.1-.156-2.7-.224-4.681-.135-3.955-.19-9.424-.015-15.461s.554-11.5.92-15.435c.183-1.971.354-3.562.5-4.66a9,9,0,0,1,.282-1.7,9,9,0,0,1-.037,1.72c-.078,1.224-.178,2.792-.3,4.672-.253,3.944-.556,9.394-.734,15.421s-.191,11.482-.17,15.433c.01,1.885.017,3.457.023,4.681A8.962,8.962,0,0,1,567.658,337.135Z" transform="translate(-567.127 -293.487)" fill="#12263f"/></g><g transform="translate(29.755 59.325)"><path d="M599.2,296.932c-.062.163-6.248-2.036-13.817-4.911s-13.656-5.339-13.594-5.5,6.248,2.036,13.818,4.912S599.266,296.77,599.2,296.932Z" transform="translate(-571.794 -286.512)" fill="#12263f"/></g></g></g><path d="M608.471,263.373l-10.589,7.807-11.76-2.887,2.82-3.126Z" transform="translate(-375.648 -112.522)" fill="#ffbe9d"/><g transform="translate(0 55.83)"><g transform="translate(175.698 0.001)"><path d="M652.7,184.78l-85.691,37.126.418,24.832-9.7,10.158,32.738,29.262,9.562-10.7,25.477-3.567Z" transform="translate(-557.281 -184.78)" fill="#fafafa"/><path d="M652.774,184.78c-.752,2.436-11.088,35.922-26.916,87.2l-.054.174-.18.025-25.475,3.585.185-.1-9.557,10.7-.208.232-.232-.208c-5.362-4.79-10.989-9.818-16.713-14.935L557.6,257.129l-.239-.215.223-.232,9.7-10.154-.085.216c-.139-8.592-.273-16.888-.4-24.832l0-.195.178-.076,85.806-36.86L567.2,222.171l.174-.27c.139,7.944.284,16.238.434,24.832l0,.126-.087.091-9.691,10.162-.018-.449,16.029,14.323,16.708,14.94-.439.024,9.566-10.694.075-.083.111-.016,25.48-3.548-.234.2C641.461,220.632,652.008,187.21,652.774,184.78Z" transform="translate(-557.358 -184.78)" fill="#263238"/></g><path d="M611.578,238.962a13.442,13.442,0,1,1-1.064-18.98A13.442,13.442,0,0,1,611.578,238.962Z" transform="translate(-375.232 -178.137)" fill="#12263f"/><g transform="translate(226.324)"><path d="M644.022,184.78c.132.114-9.789,11.818-22.155,26.138s-22.5,25.841-22.634,25.728,9.787-11.814,22.158-26.139S643.891,184.666,644.022,184.78Z" transform="translate(-599.232 -184.779)" fill="#263238"/></g><path d="M419.183,466.406h0a21.427,21.427,0,0,1-1.777-30.164l161.114-182.3L610.47,282.5,449.516,464.619A21.426,21.426,0,0,1,419.183,466.406Z" transform="translate(-412.035 -170.324)" fill="#12263f"/><rect width="17.509" height="50.394" transform="translate(163.932 81.333) rotate(-48.209)" fill="#727997"/></g><g transform="translate(205.689)"><rect width="9.328" height="9.328" transform="matrix(0.766, 0.642, -0.642, 0.766, 64.053, 49.721)" fill="#12263f"/><g transform="translate(2.762 2.761)"><path d="M705.468,242.3c-.31.369-27.651-22.038-61.064-50.039s-60.261-51.008-59.953-51.376,27.645,22.033,61.07,50.043S705.776,241.936,705.468,242.3Z" transform="translate(-584.449 -140.884)" fill="#12263f"/></g><path d="M686.517,226.5a2.764,2.764,0,1,1-.343-3.894A2.764,2.764,0,0,1,686.517,226.5Z" transform="translate(-561.373 -121.178)" fill="#12263f"/><path d="M587.047,143.141a2.764,2.764,0,1,1-.343-3.894A2.764,2.764,0,0,1,587.047,143.141Z" transform="translate(-582.164 -138.601)" fill="#12263f"/></g><path d="M550,253.939l31.95,28.557-4.31,4.876-29.177-31.695Z" transform="translate(-383.518 -114.494)" opacity="0.3"/><path d="M565.793,248.865v22.851l4.646,4.785V253.018Z" transform="translate(-379.897 -115.554)" fill="#fff" opacity="0.5"/><g transform="translate(211.45 122.652)"><path d="M599.711,240.049l11.728,4.684,2.514,9.45-5.65,14.066-20.723,3.015,6.07-6.2-.781-5.4s-5.782-1.814-5.924-2.7.717-3.852,1.6-3.993,6.951,2.115,6.951,2.115-7.178-5.681-6.976-6.594.971-3.247,2.4-3.506,13.013,5.2,13.013,5.2l1.881,4.287,1.639-6.856S597.168,244.728,599.711,240.049Z" transform="translate(-586.929 -240.049)" fill="#ffbe9d"/><g transform="translate(8.625 14.909)"><path d="M596.745,259.625c.07.021.289-.406.4-1.168a6.367,6.367,0,0,0-2.012-5.436c-.578-.508-1.023-.69-1.061-.63-.116.14,1.411,1.239,2.153,3.315C597.012,257.766,596.567,259.594,596.745,259.625Z" transform="translate(-594.063 -252.381)" fill="#eb996e"/></g><g transform="translate(2.623 7.327)"><path d="M603.356,258.889a25.767,25.767,0,0,1-.464-3.073,13.431,13.431,0,0,0-.59-3.4,5.047,5.047,0,0,0-1.081-1.816,5.361,5.361,0,0,0-1.915-1.2c-2.805-1.018-5.329-1.84-7.178-2.437a16.185,16.185,0,0,0-3.029-.834,16.159,16.159,0,0,0,2.887,1.238c1.8.7,4.342,1.6,7.092,2.595a4.931,4.931,0,0,1,1.718,1.057,4.6,4.6,0,0,1,.982,1.6,14.806,14.806,0,0,1,.688,3.258A6.269,6.269,0,0,0,603.356,258.889Z" transform="translate(-589.099 -246.109)" fill="#eb996e"/></g><g transform="translate(18.719 13.462)"><path d="M603.263,255.709c.166-.028.132-1.063-.075-2.312s-.507-2.242-.672-2.214-.131,1.061.075,2.312S603.1,255.736,603.263,255.709Z" transform="translate(-602.412 -251.184)" fill="#eb996e"/></g></g><g transform="translate(140.627 185.062)"><path d="M530.768,331.027s18.806-6.459,19.246-6.667,13.28-6.188,12.187-9.63c0,0,3.663-2.892,2.533-4.516l-5.149,2.165s7.3-4.725,6.006-8.972c0,0,.757-1.439-.025-2.329s-4.548,1.8-7.348,3.487l-5.418,2.182a11.318,11.318,0,0,1-7.428.359h0a2.338,2.338,0,0,1-1.627-2.757,23.7,23.7,0,0,0-.4-12.681s-1.336.471-2.256,3.368c-1.184,3.718-4.9,6.581-6.26,9.026-.78,1.4-2.018,3.637-2.933,5.288a5.751,5.751,0,0,1-3.55,2.77l1.289,9.8Z" transform="translate(-528.35 -291.67)" fill="#ffbe9d"/><g transform="translate(22.803 12.273)"><path d="M547.211,311.164a2.918,2.918,0,0,0,.65-.2c.412-.146,1-.384,1.716-.7a39.517,39.517,0,0,0,10.228-6.643c.58-.526,1.037-.965,1.34-1.282a2.8,2.8,0,0,0,.449-.513,2.846,2.846,0,0,0-.532.424c-.326.289-.8.7-1.4,1.2a48.565,48.565,0,0,1-10.176,6.61c-.7.341-1.272.609-1.67.791A2.855,2.855,0,0,0,547.211,311.164Z" transform="translate(-547.211 -301.821)" fill="#eb996e"/></g><g transform="translate(23.128 20.372)"><path d="M547.48,313.508a5.479,5.479,0,0,0,1.384-.456A23.417,23.417,0,0,0,552,311.46a31.509,31.509,0,0,0,2.9-1.985,6.337,6.337,0,0,0,1.1-.951c-.06-.082-1.833,1.256-4.16,2.669-1.167.7-2.26,1.271-3.064,1.659A8.78,8.78,0,0,0,547.48,313.508Z" transform="translate(-547.48 -308.52)" fill="#eb996e"/></g><g transform="translate(22.965 23.056)"><path d="M547.345,317.545a9.182,9.182,0,0,0,1.768-.678,33.025,33.025,0,0,0,4.018-2.173,37.622,37.622,0,0,0,3.7-2.678,9.794,9.794,0,0,0,1.4-1.274,13.4,13.4,0,0,0-1.534,1.1c-.933.7-2.234,1.639-3.731,2.589s-2.911,1.711-3.947,2.238A14.965,14.965,0,0,0,547.345,317.545Z" transform="translate(-547.345 -310.74)" fill="#eb996e"/></g></g><g transform="translate(48.786 114.942)"><path d="M546.645,343.149,476.859,364.14A41.663,41.663,0,0,1,452.551,322.5c2.192-24.663,5.1-57.105,5.959-65.249,1.427-13.578,16.99-23.578,16.99-23.578,21.412,1.393,16.66,43.717,16.66,43.717l-8.611,48.686,60.677-2.431Z" transform="translate(-452.387 -233.672)" fill="#d2e1f1"/><g transform="translate(31.145 43.717)"><path d="M478.166,318.517a11.486,11.486,0,0,1,.085-1.945c.08-1.251.283-3.053.54-5.279.549-4.447,1.493-10.566,2.742-17.283s2.51-12.777,3.493-17.146c.491-2.184.906-3.948,1.211-5.163a11.2,11.2,0,0,1,.539-1.87,11.91,11.91,0,0,1-.3,1.924c-.261,1.337-.6,3.088-1.016,5.2-.87,4.39-2.067,10.454-3.309,17.168s-2.258,12.806-2.921,17.228c-.3,2.131-.548,3.9-.737,5.245A11.387,11.387,0,0,1,478.166,318.517Z" transform="translate(-478.147 -269.831)" fill="#263238"/></g><g transform="translate(26.614 89.944)"><path d="M539.626,308.094a2.656,2.656,0,0,1-.659.1l-1.9.162c-1.648.125-4.034.277-6.984.423-5.9.3-14.056.589-23.063.845l-23.068.661-6.989.222-1.9.045a2.6,2.6,0,0,1-.665-.028,2.694,2.694,0,0,1,.658-.1l1.9-.162c1.648-.126,4.034-.277,6.984-.423,5.9-.3,14.057-.589,23.068-.845l23.063-.661,6.989-.222,1.9-.045A2.662,2.662,0,0,1,539.626,308.094Z" transform="translate(-474.4 -308.066)" fill="#263238"/></g><g transform="translate(1.322 72.192)"><path d="M485.964,295.137a5.072,5.072,0,0,1-1.284-.022l-3.476-.259c-2.934-.226-6.987-.507-11.469-.7s-8.547-.245-11.489-.266l-3.486-.033a5.064,5.064,0,0,1-1.28-.086,5.042,5.042,0,0,1,1.274-.16c.822-.063,2.014-.121,3.487-.167,2.946-.093,7.023-.105,11.521.082s8.556.543,11.484.881c1.464.169,2.646.328,3.46.458A5.051,5.051,0,0,1,485.964,295.137Z" transform="translate(-453.48 -293.384)" fill="#12263f"/></g><g transform="translate(4.486 38.806)"><path d="M491.386,267.313c-.007.174-7.913-.017-17.656-.426s-17.639-.88-17.632-1.053,7.912.016,17.658.424S491.393,267.139,491.386,267.313Z" transform="translate(-456.097 -265.77)" fill="#12263f"/></g><g transform="translate(6.696 92.274)"><path d="M457.929,332.106a5.188,5.188,0,0,1,.672-1.117c.463-.7,1.179-1.679,2.1-2.861A71.887,71.887,0,0,1,477.947,312.4c1.26-.811,2.3-1.434,3.039-1.83a5.239,5.239,0,0,1,1.174-.568c.052.087-1.521,1.06-3.966,2.769a88.409,88.409,0,0,0-17.147,15.643C459.123,330.688,458.011,332.165,457.929,332.106Z" transform="translate(-457.925 -309.993)" fill="#12263f"/></g><g transform="translate(52.121 91.656)"><path d="M500.149,338.85c-.172.027-1.348-6.526-2.626-14.634s-2.176-14.706-2-14.733,1.347,6.524,2.626,14.635S500.321,338.823,500.149,338.85Z" transform="translate(-495.498 -309.483)" fill="#12263f"/></g></g><g transform="translate(69.638 221.685)" opacity="0.3"><path d="M472.833,345.687l78.156-23.726c-5.86,7.707-17.267,14.9-25.873,19.333s-17.811,7.568-26.978,10.684c-4.982,1.694-10.082,3.407-15.344,3.361s-10.4-1.556-13.16-6.033Z" transform="translate(-469.634 -321.961)"/></g><g transform="translate(67.521 14.681)"><path d="M486.294,177.352a8.267,8.267,0,0,0-2.881-9.833,8.9,8.9,0,0,0-10.355.53,9.652,9.652,0,0,0-2.964,10.055,9.849,9.849,0,0,0,19.16-1.382" transform="translate(-467.503 -147.533)" fill="#263238"/><g transform="translate(29.212 6.507)"><path d="M493.3,159.028l-.045,5.711-1.211,85.491c-.14,9.925,8.282,17.949,18.909,18.019h0c10.734.07,19.676-7.994,19.983-18.017.323-10.521.855-21.591.855-21.591s13.617-1.876,16.913-19.483c1.638-8.757,1.595-23.189,1.177-35a18.683,18.683,0,0,0-20.118-17.978Z" transform="translate(-492.044 -156.126)" fill="#ffbe9d"/><g transform="translate(45.544 22.942)"><g transform="translate(1.775 3.274)"><path d="M535.714,179.921a2.269,2.269,0,0,1-2.25,2.228,2.17,2.17,0,0,1-2.281-2.109,2.269,2.269,0,0,1,2.247-2.229A2.171,2.171,0,0,1,535.714,179.921Z" transform="translate(-531.183 -177.81)" fill="#263238"/></g><path d="M538.675,177.611c-.289.288-1.973-1.03-4.413-1.092-2.437-.1-4.263,1.111-4.519.8-.127-.135.174-.661.97-1.208a6.229,6.229,0,0,1,3.628-1.01,5.988,5.988,0,0,1,3.5,1.238C538.578,176.941,538.818,177.482,538.675,177.611Z" transform="translate(-529.715 -175.102)" fill="#263238"/></g><g transform="translate(21.54 22.736)"><g transform="translate(1.896 3.246)"><path d="M515.959,179.728a2.268,2.268,0,0,1-2.25,2.227,2.168,2.168,0,0,1-2.28-2.109,2.268,2.268,0,0,1,2.248-2.229A2.17,2.17,0,0,1,515.959,179.728Z" transform="translate(-511.429 -177.616)" fill="#263238"/></g><path d="M518.822,177.441c-.289.288-1.974-1.031-4.413-1.092-2.437-.1-4.263,1.11-4.521.8-.126-.135.173-.661.971-1.208a6.228,6.228,0,0,1,3.628-1.011,5.98,5.98,0,0,1,3.5,1.239C518.723,176.77,518.964,177.311,518.822,177.441Z" transform="translate(-509.861 -174.931)" fill="#263238"/></g><g transform="translate(38.275 23.222)"><path d="M524.287,195.7c-.007-.139,1.517-.359,3.985-.606.624-.047,1.217-.155,1.335-.578a3.184,3.184,0,0,0-.365-1.858q-.816-2.287-1.713-4.8c-2.372-6.827-4.072-12.434-3.8-12.527s2.423,5.364,4.8,12.192q.854,2.524,1.633,4.823a3.61,3.61,0,0,1,.256,2.454,1.565,1.565,0,0,1-1.05.884,4.262,4.262,0,0,1-1.063.117C525.828,195.87,524.293,195.839,524.287,195.7Z" transform="translate(-523.703 -175.334)" fill="#263238"/></g><g transform="translate(16.24 65.544)"><path d="M528.986,217.31a45,45,0,0,1-23.509-6.971s5.41,12.307,23.155,11.14Z" transform="translate(-505.477 -210.339)" fill="#eb996e"/></g><g transform="translate(30.343 47.686)"><path d="M524.465,197.323a4.4,4.4,0,0,0-3.9-1.741,4.019,4.019,0,0,0-2.813,1.41,2.546,2.546,0,0,0-.273,2.9,2.953,2.953,0,0,0,3.177.9,9.238,9.238,0,0,0,3.17-1.775,2.721,2.721,0,0,0,.717-.7.816.816,0,0,0,.022-.908" transform="translate(-517.141 -195.568)" fill="#eb996e"/></g><g transform="translate(31.197 45.078)"><path d="M518.282,193.412c.4-.013.33,2.637,2.546,4.58s5.043,1.729,5.054,2.1c.033.167-.643.5-1.837.5a6.6,6.6,0,0,1-4.223-1.6,5.753,5.753,0,0,1-1.964-3.836C517.787,194.04,518.1,193.391,518.282,193.412Z" transform="translate(-517.848 -193.412)" fill="#263238"/></g><g transform="translate(20.228 13.734)"><path d="M519.944,169.449c-.259.658-2.688.276-5.56.542-2.878.209-5.21.983-5.574.377-.162-.289.258-.9,1.209-1.518a9.7,9.7,0,0,1,8.482-.7C519.541,168.6,520.055,169.137,519.944,169.449Z" transform="translate(-508.776 -167.486)" fill="#263238"/></g><g transform="translate(45.504 15.715)"><path d="M537.979,171.773c-.445.542-2.11-.08-4.131-.162-2.018-.154-3.743.268-4.122-.322-.164-.287.12-.834.883-1.338a5.984,5.984,0,0,1,6.65.389C537.958,170.93,538.177,171.507,537.979,171.773Z" transform="translate(-529.682 -169.124)" fill="#263238"/></g></g><path d="M520.591,154.554c4.724,6.283-.195,15.179-5.638,20.851s-12.079,12.258-10.594,19.978c1.723,8.949,13.964,14.682,12.146,23.614-.664,3.261-3.235,6.039-3.247,9.366-.021,6.005,7.749,8.924,9.985,14.5,3.066,7.637-5.362,15.254-5.49,23.483-.073,4.673,2.574,9.031,2.715,13.7.289,9.569-11.029,16.573-20.308,14.219S484.524,282.853,482.5,273.5s1.043-22.513,2.541-31.969l-16.077,3.727c-3-2.854,1.1-5.892,1.775-9.973,1.693-10.234,8.418-18.9,11.62-28.765,2.8-8.624,2.817-17.861,4.041-26.845s4.008-18.346,10.868-24.272,18.737-6.656,24.287.513" transform="translate(-467.883 -150.744)" fill="#263238"/><g transform="translate(16.652 7.283)"><path d="M481.656,182.345a28.293,28.293,0,0,0,7.087.21,30.17,30.17,0,0,0,15.38-6.963,64.662,64.662,0,0,0,11.238-12.95c1.2-1.754,2.191-3.209,2.95-4.322a11.439,11.439,0,0,1,1.137-1.551,11.119,11.119,0,0,1-.93,1.684c-.636,1.062-1.574,2.587-2.788,4.439a59.807,59.807,0,0,1-11.2,13.184A29.5,29.5,0,0,1,488.789,183a19.751,19.751,0,0,1-5.263-.18,12.238,12.238,0,0,1-1.4-.312A1.562,1.562,0,0,1,481.656,182.345Z" transform="translate(-481.656 -156.768)" fill="#455a64"/></g><g transform="translate(17.222 35.218)"><path d="M502.519,179.881a9.633,9.633,0,0,1-2.581,1.8,21.921,21.921,0,0,1-14.821,2.168,9.652,9.652,0,0,1-2.989-.987c.034-.1,1.178.254,3.068.549a24.853,24.853,0,0,0,14.54-2.128C501.464,180.463,502.459,179.793,502.519,179.881Z" transform="translate(-482.128 -179.874)" fill="#455a64"/></g><g transform="translate(85.64 17.739)"><path d="M548.17,171.017c.03.155-2.707.2-5.5-1.476-2.817-1.649-4.088-4.072-3.938-4.12.155-.12,1.592,2.025,4.258,3.579C545.629,170.592,548.2,170.824,548.17,171.017Z" transform="translate(-538.717 -165.416)" fill="#455a64"/></g><g transform="translate(87.641 27.7)"><path d="M546.691,175.25c.042.157-1.509.563-3.374.089s-3.048-1.545-2.938-1.665c.108-.152,1.36.634,3.09,1.053C545.193,175.17,546.67,175.066,546.691,175.25Z" transform="translate(-540.372 -173.655)" fill="#455a64"/></g><g transform="translate(17.398 25.161)"><path d="M482.859,183.1c-.152.041-.81-2.581-.508-5.863.279-3.285,1.387-5.75,1.529-5.682.18.06-.633,2.552-.9,5.738C482.684,180.476,483.048,183.072,482.859,183.1Z" transform="translate(-482.273 -171.555)" fill="#d2e1f1"/></g></g></g></svg>