<svg xmlns="http://www.w3.org/2000/svg" xmlns:xlink="http://www.w3.org/1999/xlink" width="497.415" height="640.684" viewBox="0 0 497.415 640.684"><defs><linearGradient id="a" x1="0.5" x2="0.5" y2="1" gradientUnits="objectBoundingBox"><stop offset="0" stop-color="#fff"/><stop offset="1" stop-color="#d2e6ee"/></linearGradient><linearGradient id="e" x1="0.5" x2="0.5" y2="1" gradientUnits="objectBoundingBox"><stop offset="0" stop-color="#fff"/><stop offset="1" stop-color="#f1f1f1"/></linearGradient></defs><g transform="translate(-914.837 -5638.46)"><g transform="translate(931.355 6144.129) rotate(-90)"><g transform="translate(0)"><g transform="translate(0 55.509)"><path d="M.4,2.685a.463.463,0,0,1-.3-.4C.053,1.684.02,1.069,0,.461A.448.448,0,0,1,.446,0c.617-.014.45.6.572,2.235a.448.448,0,0,1-.426.479A.482.482,0,0,1,.4,2.685Z" transform="translate(0 45.278)" fill="#00223d"/><path d="M0,40.046c.113-1.158.274-2.325.479-3.47a.452.452,0,0,1,.533-.36c.682.132.237.517-.1,3.929a.45.45,0,0,1-.5.4A.463.463,0,0,1,0,40.046Zm1.837-8.988c.351-1.114.753-2.235,1.182-3.293a.462.462,0,0,1,.857.346c-.426,1.054-.814,2.136-1.158,3.227a.462.462,0,0,1-.881-.28Zm3.648-8.411c.571-1.011,1.191-2.013,1.843-2.976a.462.462,0,0,1,.77.509c-.638.944-1.246,1.926-1.805,2.916A.462.462,0,0,1,5.488,22.646Zm5.383-6.838a.448.448,0,0,1-.049-.639c.772-.872,1.59-1.724,2.431-2.534.433-.416,1.082.236.65.652-.824.793-1.625,1.629-2.382,2.483A.464.464,0,0,1,10.871,15.808Zm6.66-6.229a.446.446,0,0,1,.084-.634c.94-.7,1.919-1.365,2.911-1.987a.458.458,0,0,1,.5.766c-.972.609-1.932,1.264-2.853,1.947A.468.468,0,0,1,17.531,9.58ZM25.612,5.06a.463.463,0,0,1-.255-.231.444.444,0,0,1,.213-.6c1.067-.493,2.166-.951,3.268-1.36a.469.469,0,0,1,.6.265.445.445,0,0,1-.26.583c-1.079.4-2.157.849-3.2,1.333A.467.467,0,0,1,25.612,5.06Zm8.7-2.991a.465.465,0,0,1-.288-.318.446.446,0,0,1,.334-.545c1.148-.268,2.322-.5,3.49-.674a.467.467,0,0,1,.532.378A.446.446,0,0,1,38,1.427c-1.144.175-2.294.4-3.419.661A.466.466,0,0,1,34.308,2.069ZM43.168.481a.448.448,0,0,1,.441-.465C44.791-.015,45.992,0,47.177.06a.453.453,0,1,1-.034.9c-1.161-.059-2.338-.074-3.5-.043A.465.465,0,0,1,43.168.481ZM72.68,10.317c-2.759-2.107-3.38-2.073-3-2.644a.462.462,0,0,1,.637-.126c1,.645,1.979,1.338,2.923,2.058A.452.452,0,1,1,72.68,10.317ZM52.415,1.083a.452.452,0,0,1,.53-.365c1.167.208,2.343.463,3.494.759a.452.452,0,1,1-.22.876c-1.128-.29-2.281-.54-3.425-.743A.461.461,0,0,1,52.415,1.083Zm12.44,4.427C61.732,4,61.124,4.155,61.375,3.516a.469.469,0,0,1,.6-.251c1.109.435,2.213.918,3.28,1.433a.452.452,0,1,1-.4.812Z" transform="translate(0.181)" fill="#00223d"/><path d="M1.413,2.074C.355.944-.3.561.139.13A.466.466,0,0,1,.79.136C1.932,1.26,2.5,1.709,2.064,2.105A.526.526,0,0,1,1.413,2.074Z" transform="translate(77.028 13.29)" fill="#00223d"/><g transform="translate(10.788 45.684)"><path d="M.3,2.684A.461.461,0,0,1,0,2.231c.033-.6.052-1.2.06-1.79A.448.448,0,0,1,.526,0,.466.466,0,0,1,.981.465C.974,1.071.953,1.685.92,2.292a.449.449,0,0,1-.484.421A.477.477,0,0,1,.3,2.684Z" transform="translate(79.673)" fill="#00223d"/><path d="M12.113,32.885c-1.185-.485-2.364-1.024-3.5-1.6a.454.454,0,0,1-.2-.611c.322-.625.584-.039,4.051,1.38a.456.456,0,0,1,.256.593A.47.47,0,0,1,12.113,32.885Zm5.6,1.429c.175-.679.578-.161,4.244.488a.461.461,0,0,1,.38.526.452.452,0,0,1-.529.365c-1.255-.222-2.52-.5-3.76-.825A.46.46,0,0,1,17.715,34.314ZM3.238,28.077c-1.05-.727-2.083-1.507-3.07-2.319A.449.449,0,0,1,.1,25.12c.455-.538.578.088,3.656,2.218a.452.452,0,0,1,.118.632A.464.464,0,0,1,3.238,28.077Zm24.635,8.259a.462.462,0,0,1-.3-.442.449.449,0,0,1,.472-.433c1.252.05,2.518.049,3.763,0a.465.465,0,0,1,.487.432.447.447,0,0,1-.433.472c-1.271.055-2.564.056-3.841,0A.475.475,0,0,1,27.873,36.336Zm9.925-.683a.466.466,0,0,1-.293-.341.446.446,0,0,1,.363-.527c1.225-.22,2.455-.5,3.658-.818a.47.47,0,0,1,.57.319.445.445,0,0,1-.315.556c-1.227.329-2.483.609-3.734.834A.465.465,0,0,1,37.8,35.654Zm9.5-2.809a.466.466,0,0,1-.262-.246.444.444,0,0,1,.235-.593c1.143-.479,2.28-1.013,3.377-1.585a.47.47,0,0,1,.625.189.445.445,0,0,1-.184.612c-1.12.584-2.28,1.128-3.446,1.618A.468.468,0,0,1,47.3,32.845Zm8.62-4.788a.467.467,0,0,1-.211-.159.445.445,0,0,1,.1-.632c1.006-.714,1.993-1.479,2.934-2.275a.467.467,0,0,1,.65.052.446.446,0,0,1-.043.638c-.96.812-1.968,1.594-2.994,2.322A.465.465,0,0,1,55.918,28.057ZM63.1,21.435c-.54-.469.1-.563,2.3-3.5a.461.461,0,0,1,.744.544c-.752,1-1.557,1.985-2.394,2.92A.465.465,0,0,1,63.1,21.435Zm5.744-7.926c-.631-.342-.037-.567,1.449-3.922a.462.462,0,0,1,.846.372c-.507,1.145-1.069,2.28-1.672,3.375A.46.46,0,0,1,68.844,13.508ZM72.617,4.5a.458.458,0,0,1-.284-.551c.339-1.184.629-2.392.864-3.59a.453.453,0,0,1,.54-.351A.461.461,0,0,1,74.1.545c-.24,1.223-.536,2.455-.882,3.663a.455.455,0,0,1-.568.305Z" transform="translate(5.735 7.825)" fill="#00223d"/><path d="M1.343,2.142C.254.966-.3.494.162.118.638-.273.905.333,2.02,1.538a.446.446,0,0,1-.026.639A.467.467,0,0,1,1.343,2.142Z" transform="translate(0 27.141)" fill="#00223d"/></g><g transform="translate(11.445 10.94)"><path d="M5.723,52.581l6.547-.811a29.3,29.3,0,0,0,7.1,6.057c.256,6.313-.174,6.774.5,7l7.545,2.514a.543.543,0,0,0,.6-.178l3.974-5.13a29.185,29.185,0,0,0,9.3-.594l4.763,4.579a.553.553,0,0,0,.624.1l7.063-3.441a.523.523,0,0,0,.291-.546l-.924-6.448a27.83,27.83,0,0,0,6.055-6.888l6.607-.024a.533.533,0,0,0,.507-.362l2.443-7.38a.535.535,0,0,0-.19-.594l-5.279-3.984a27.933,27.933,0,0,0-.745-9.154c4.383-4.6,5-4.6,4.679-5.225-3.659-6.8-3.45-7.378-4.167-7.29l-6.547.811a29.3,29.3,0,0,0-7.1-6.057c-.255-6.309.174-6.774-.5-7C41.332.168,41.152-.35,40.724.2l-3.974,5.13a29.182,29.182,0,0,0-9.3.594C22.761,1.6,22.7.936,22.062,1.246c-6.929,3.528-7.453,3.29-7.354,3.986l.924,6.449a27.826,27.826,0,0,0-6.056,6.888c-6.306.153-6.89-.288-7.113.386C.178,26.3-.36,26.5.211,26.929L5.49,30.913a27.939,27.939,0,0,0,.745,9.153c-4.368,4.584-5,4.6-4.678,5.225C5.215,52.091,5.006,52.67,5.723,52.581Z" fill="#8ec8c8"/><path d="M.017,6.987A7.562,7.562,0,0,1,8.243.025,7.8,7.8,0,0,1,15.45,8.217a7.563,7.563,0,0,1-8.225,6.962h0A7.794,7.794,0,0,1,.017,6.987ZM7.27,14.5l0,0ZM8.152,1.379A6.2,6.2,0,0,0,1.4,7.1a6.4,6.4,0,0,0,5.919,6.728,6.211,6.211,0,0,0,6.756-5.717A6.4,6.4,0,0,0,8.152,1.379Z" transform="translate(26.637 26.08)" fill="url(#a)"/><path d="M12.956,37.628h0a20.452,20.452,0,0,1-3.09-1.472.682.682,0,0,1-.3-.826.642.642,0,0,1,.051-.106.693.693,0,0,1,.945-.233,19.122,19.122,0,0,0,3.589,1.624h0A18.294,18.294,0,0,0,37.132,26q.131-.345.248-.7A18.327,18.327,0,0,0,25.513,2.286,18.272,18.272,0,0,0,2.282,13.6c-1.871,5.653-.236,9.446-.456,10.028a.7.7,0,0,1-1.322-.1,19.108,19.108,0,0,1,.729-11.116C7.2-3.371,29.661-4.332,37.489,10.848a19.125,19.125,0,0,1,1.206,14.887q-.126.382-.268.757A19.057,19.057,0,0,1,28.85,36.94a19.949,19.949,0,0,1-15.128.96Q13.337,37.771,12.956,37.628Z" transform="translate(14.683 14.146)" fill="url(#a)"/></g></g><g transform="translate(101.738 0)"><path d="M.618,4.166A.719.719,0,0,1,.153,3.55C.083,2.613.031,1.659,0,.714A.7.7,0,0,1,.691,0c.957-.021.7.933.887,3.468a.694.694,0,0,1-.661.743A.748.748,0,0,1,.618,4.166Z" transform="translate(0 70.257)" fill="#00223d"/><path d="M0,62.138c.175-1.8.425-3.608.743-5.384a.7.7,0,0,1,.828-.558c1.059.206.368.8-.148,6.1a.7.7,0,0,1-.779.621A.718.718,0,0,1,0,62.138ZM2.854,48.191c.545-1.729,1.169-3.468,1.834-5.109a.717.717,0,0,1,1.329.536c-.662,1.636-1.264,3.315-1.8,5.007a.717.717,0,0,1-1.366-.434ZM8.515,35.14c.887-1.569,1.848-3.123,2.859-4.618a.716.716,0,0,1,1.194.789c-.991,1.465-1.933,2.988-2.8,4.525A.717.717,0,0,1,8.515,35.14Zm8.353-10.61a.7.7,0,0,1-.076-.992c1.2-1.353,2.467-2.675,3.772-3.932.671-.646,1.679.366,1.008,1.011-1.279,1.231-2.522,2.527-3.7,3.853A.721.721,0,0,1,16.868,24.53ZM27.2,14.865a.691.691,0,0,1,.13-.983c1.458-1.081,2.978-2.118,4.517-3.083a.711.711,0,0,1,.781,1.189c-1.508.945-3,1.961-4.427,3.021A.727.727,0,0,1,27.2,14.865ZM39.742,7.852a.718.718,0,0,1-.4-.358.689.689,0,0,1,.331-.934c1.656-.766,3.362-1.475,5.07-2.11a.728.728,0,0,1,.927.411.69.69,0,0,1-.4.905C43.6,6.387,41.924,7.083,40.3,7.834A.725.725,0,0,1,39.742,7.852ZM53.235,3.211a.721.721,0,0,1-.446-.493.692.692,0,0,1,.518-.846c1.781-.416,3.6-.768,5.415-1.046a.725.725,0,0,1,.825.586.692.692,0,0,1-.584.8c-1.775.272-3.56.618-5.305,1.026A.725.725,0,0,1,53.235,3.211ZM66.983.746a.694.694,0,0,1,.684-.721C69.5-.024,71.365,0,73.2.093a.7.7,0,1,1-.053,1.4c-1.8-.092-3.627-.114-5.425-.067A.722.722,0,0,1,66.983.746Zm45.794,15.264c-4.282-3.269-5.244-3.216-4.657-4.1a.717.717,0,0,1,.988-.2c1.546,1,3.071,2.076,4.535,3.194A.7.7,0,1,1,112.777,16.009ZM81.331,1.68a.7.7,0,0,1,.822-.566c1.812.322,3.636.718,5.422,1.178a.7.7,0,1,1-.342,1.359C85.483,3.2,83.695,2.812,81.92,2.5A.716.716,0,0,1,81.331,1.68Zm19.3,6.869c-4.846-2.342-5.789-2.1-5.4-3.093a.728.728,0,0,1,.924-.39c1.721.675,3.434,1.424,5.09,2.224a.7.7,0,1,1-.615,1.259Z" transform="translate(0.281)" fill="#00223d"/><path d="M2.193,3.218C.551,1.465-.467.871.215.2A.723.723,0,0,1,1.226.211C3,1.956,3.884,2.651,3.2,3.267A.816.816,0,0,1,2.193,3.218Z" transform="translate(119.524 20.622)" fill="#00223d"/><g transform="translate(16.74 70.887)"><path d="M.467,4.165A.716.716,0,0,1,0,3.462C.052,2.538.082,1.6.093.684A.7.7,0,0,1,.817,0a.723.723,0,0,1,.706.721c-.011.939-.044,1.893-.095,2.835a.7.7,0,0,1-.751.654A.751.751,0,0,1,.467,4.165Z" transform="translate(123.628)" fill="#00223d"/><path d="M18.8,51.028c-1.839-.752-3.668-1.59-5.436-2.49a.7.7,0,0,1-.318-.947c.5-.97.905-.06,6.286,2.141a.707.707,0,0,1,.4.919A.728.728,0,0,1,18.8,51.028Zm8.692,2.217c.271-1.054.9-.249,6.585.757a.715.715,0,0,1,.589.817.7.7,0,0,1-.821.567c-1.947-.344-3.91-.775-5.834-1.28A.713.713,0,0,1,27.488,53.244ZM5.024,43.567C3.4,42.439,1.793,41.229.261,39.969a.7.7,0,0,1-.1-.99c.706-.835.9.137,5.673,3.442a.7.7,0,0,1,.183.98A.72.72,0,0,1,5.024,43.567ZM43.25,56.383a.716.716,0,0,1-.467-.685.7.7,0,0,1,.733-.673c1.942.078,3.906.076,5.839-.006a.722.722,0,0,1,.756.671.694.694,0,0,1-.671.733c-1.973.085-3.978.087-5.96.007A.728.728,0,0,1,43.25,56.383Zm15.4-1.059a.721.721,0,0,1-.455-.529.692.692,0,0,1,.563-.818c1.9-.342,3.81-.769,5.675-1.269a.729.729,0,0,1,.885.494.691.691,0,0,1-.49.862c-1.9.51-3.853.945-5.793,1.294A.721.721,0,0,1,58.65,55.323Zm14.741-4.359a.724.724,0,0,1-.406-.382.69.69,0,0,1,.365-.921c1.774-.743,3.537-1.571,5.24-2.459a.729.729,0,0,1,.97.294.69.69,0,0,1-.285.949c-1.738.906-3.537,1.75-5.348,2.51A.726.726,0,0,1,73.392,50.965Zm13.376-7.429a.724.724,0,0,1-.327-.247.691.691,0,0,1,.151-.98c1.561-1.108,3.093-2.3,4.553-3.53a.724.724,0,0,1,1.009.081.692.692,0,0,1-.067.99c-1.49,1.26-3.053,2.473-4.647,3.6A.72.72,0,0,1,86.767,43.535ZM97.912,33.26c-.838-.728.149-.873,3.568-5.43a.716.716,0,0,1,1.155.844c-1.166,1.555-2.416,3.08-3.714,4.53A.722.722,0,0,1,97.912,33.26Zm8.912-12.3c-.979-.53-.057-.88,2.249-6.086a.717.717,0,0,1,1.312.577c-.787,1.776-1.659,3.538-2.594,5.236A.714.714,0,0,1,106.824,20.961ZM112.68,6.984a.71.71,0,0,1-.44-.854c.525-1.838.976-3.712,1.34-5.571a.7.7,0,0,1,.837-.545.715.715,0,0,1,.567.831c-.372,1.9-.832,3.809-1.368,5.683a.706.706,0,0,1-.881.474Z" transform="translate(8.898 12.143)" fill="#00223d"/><path d="M2.084,3.324C.394,1.5-.459.766.252.184.991-.424,1.4.517,3.135,2.387a.693.693,0,0,1-.041.992A.725.725,0,0,1,2.084,3.324Z" transform="translate(0 42.115)" fill="#00223d"/></g><g transform="translate(17.759 16.975)"><path d="M8.881,81.59,19.04,80.332a45.474,45.474,0,0,0,11.016,9.4c.4,9.8-.27,10.511.777,10.859l11.708,3.9a.843.843,0,0,0,.933-.276l6.166-7.96a45.284,45.284,0,0,0,14.433-.921l7.391,7.1a.858.858,0,0,0,.968.155l10.959-5.339a.812.812,0,0,0,.451-.847L82.409,86.4a43.181,43.181,0,0,0,9.4-10.688l10.251-.038a.827.827,0,0,0,.786-.562l3.791-11.451a.83.83,0,0,0-.3-.922L98.147,56.56a43.338,43.338,0,0,0-1.155-14.2c6.8-7.137,7.757-7.143,7.26-8.107C98.574,23.7,98.9,22.8,97.785,22.938L87.626,24.2a45.468,45.468,0,0,0-11.017-9.4c-.4-9.79.271-10.511-.777-10.86C64.134.261,63.854-.544,63.192.313l-6.166,7.96a45.284,45.284,0,0,0-14.434.921c-7.275-6.711-7.37-7.741-8.359-7.26-10.752,5.474-11.565,5.1-11.41,6.185l1.433,10.007a43.175,43.175,0,0,0-9.4,10.688c-9.785.237-10.691-.446-11.037.6-3.547,11.4-4.382,11.7-3.5,12.372l8.192,6.182a43.359,43.359,0,0,0,1.155,14.2c-6.778,7.113-7.759,7.138-7.26,8.107C8.091,80.829,7.768,81.728,8.881,81.59Z" fill="#3c4973"/><path d="M.026,10.841A11.734,11.734,0,0,1,12.79.039,12.1,12.1,0,0,1,23.973,12.75a11.735,11.735,0,0,1-12.763,10.8h0A12.093,12.093,0,0,1,.026,10.841ZM11.28,22.5l.007,0ZM12.649,2.14A9.626,9.626,0,0,0,2.166,11.011a9.932,9.932,0,0,0,9.185,10.44A9.638,9.638,0,0,0,21.834,12.58,9.932,9.932,0,0,0,12.649,2.14Z" transform="translate(41.333 40.468)" fill="url(#a)"/><path d="M20.1,58.387h0A31.753,31.753,0,0,1,15.309,56.1a1.058,1.058,0,0,1-.469-1.282,1,1,0,0,1,.079-.164,1.075,1.075,0,0,1,1.465-.361,29.676,29.676,0,0,0,5.569,2.519h0C36.6,61.691,52.335,54.322,57.618,40.337q.2-.536.384-1.085c4.892-14.775-3.423-30.706-18.413-35.7C24.619-1.439,8.426,6.375,3.541,21.11c-2.9,8.771-.366,14.658-.707,15.561a1.08,1.08,0,0,1-2.051-.158A29.649,29.649,0,0,1,1.913,19.264C11.166-5.23,46.024-6.722,58.171,16.833a29.676,29.676,0,0,1,1.871,23.1q-.2.593-.416,1.176A29.571,29.571,0,0,1,44.767,57.319a30.955,30.955,0,0,1-23.474,1.49Q20.694,58.61,20.1,58.387Z" transform="translate(22.784 21.951)" fill="url(#a)"/></g></g></g></g><g transform="translate(914.837 5638.46)"><g transform="translate(0 0)"><g transform="translate(0 41.275)"><g transform="translate(0.368 0.368)"><rect width="205.095" height="137.324" fill="#fff"/></g><path d="M490.133,211.124s-.021-.859-.032-2.5-.018-4.076-.032-7.245c-.018-6.356-.042-15.68-.076-27.619-.036-23.857-.09-58.153-.153-99.962l.293.294-205.078.073h-.017l.367-.367c-.011,48.923-.021,95.444-.03,137.323l-.337-.335,147.758.165c18.09.038,32.4.07,42.213.09l11.229.041q1.9.014,2.9.021c.654.006,1,.02,1,.02s-.315.012-.956.02l-2.861.02-11.161.041c-9.792.02-24.08.052-42.139.09l-147.978.165-.337,0v-.338c-.009-41.879-.02-88.4-.03-137.323v-.367h.384l205.078.074h.294V73.8c-.065,41.887-.118,76.243-.155,100.146-.032,11.909-.058,21.212-.074,27.551-.015,3.146-.026,5.553-.033,7.191C490.154,210.308,490.133,211.124,490.133,211.124Z" transform="translate(-284.671 -73.432)" fill="#e0e0e0"/><g transform="translate(0.367 12.255)"><path d="M284.913,81.874c0-.2,45.878-.367,102.459-.367,56.6,0,102.466.164,102.466.367s-45.867.367-102.466.367C330.791,82.242,284.913,82.078,284.913,81.874Z" transform="translate(-284.913 -81.507)" fill="#e0e0e0"/></g><g transform="translate(5.172 4.797)"><g opacity="0.3"><path d="M291.366,78.237a1.644,1.644,0,1,1-1.644-1.644A1.644,1.644,0,0,1,291.366,78.237Z" transform="translate(-288.079 -76.593)" fill="#e0e0e0"/></g><g transform="translate(5.632)" opacity="0.3"><path d="M295.077,78.237a1.644,1.644,0,1,1-1.644-1.644A1.644,1.644,0,0,1,295.077,78.237Z" transform="translate(-291.79 -76.593)" fill="#e0e0e0"/></g><g transform="translate(11.183)" opacity="0.3"><path d="M298.735,78.237a1.644,1.644,0,1,1-1.644-1.644A1.644,1.644,0,0,1,298.735,78.237Z" transform="translate(-295.448 -76.593)" fill="#e0e0e0"/></g></g><g transform="translate(18 26.943)"><rect width="54.708" height="54.709" fill="#e0e0e0"/></g><g transform="translate(82.028 42.039)"><path d="M434.03,101.5c0,.2-21.338.367-47.652.367s-47.657-.165-47.657-.367,21.333-.369,47.657-.369S434.03,101.3,434.03,101.5Z" transform="translate(-338.721 -101.132)" fill="#e0e0e0"/></g><g transform="translate(82.028 52.205)"><path d="M434.03,108.2c0,.2-21.338.367-47.652.367s-47.657-.165-47.657-.367,21.333-.369,47.657-.369S434.03,108,434.03,108.2Z" transform="translate(-338.721 -107.831)" fill="#e0e0e0"/></g><g transform="translate(82.028 62.372)"><path d="M434.03,114.9c0,.2-21.338.367-47.652.367s-47.657-.165-47.657-.367,21.333-.369,47.657-.369S434.03,114.7,434.03,114.9Z" transform="translate(-338.721 -114.53)" fill="#e0e0e0"/></g><g transform="translate(82.028 72.538)"><path d="M395.049,121.6a12.6,12.6,0,0,1-2.213.144c-1.557.03-3.588.068-6.036.117-5.1.067-12.138.108-19.914.108s-14.82-.041-19.918-.108c-2.448-.049-4.479-.087-6.036-.117a12.6,12.6,0,0,1-2.213-.144,12.923,12.923,0,0,1,2.213-.143l6.036-.117c5.1-.067,12.14-.108,19.918-.108s14.817.041,19.914.108l6.036.117A12.925,12.925,0,0,1,395.049,121.6Z" transform="translate(-338.721 -121.229)" fill="#e0e0e0"/></g><g transform="translate(21.423 100.097)"><rect width="25.711" height="25.711" fill="#e0e0e0"/></g><g transform="translate(68.05 100.097)"><rect width="25.711" height="25.711" fill="#e0e0e0"/></g><g transform="translate(114.677 100.097)"><rect width="25.711" height="25.711" fill="#e0e0e0"/></g><g transform="translate(161.304 100.097)"><rect width="25.711" height="25.711" fill="#e0e0e0"/></g></g><g transform="translate(181.678)"><g transform="translate(2.948 3.563)"><g transform="translate(83.031 84.236)"><path d="M461.036,105.276a4.032,4.032,0,0,1,1.791-.208l.6.012-.2.194c.029-.694.1-1.187.2-1.187s.165.493.194,1.187l.009.193-.2,0-.6.012A4.07,4.07,0,0,1,461.036,105.276Z" transform="translate(-461.036 -104.088)" fill="#e0e0e0"/></g><g transform="translate(78.248 85.217)"><path d="M457.884,104.942c0-.115.536-.208,1.2-.208s1.2.093,1.2.208-.536.206-1.2.206S457.884,105.056,457.884,104.942Z" transform="translate(-457.884 -104.734)" fill="#e0e0e0"/></g><g transform="translate(73.464 85.217)"><path d="M454.732,104.942c0-.115.534-.208,1.2-.208s1.2.093,1.2.208-.536.206-1.2.206S454.732,105.056,454.732,104.942Z" transform="translate(-454.732 -104.734)" fill="#e0e0e0"/></g><g transform="translate(68.679 85.217)"><path d="M451.579,104.942c0-.115.536-.208,1.2-.208s1.2.093,1.2.208-.534.206-1.2.206S451.579,105.056,451.579,104.942Z" transform="translate(-451.579 -104.734)" fill="#e0e0e0"/></g><g transform="translate(63.895 85.217)"><path d="M448.427,104.942c0-.115.536-.208,1.2-.208s1.2.093,1.2.208-.536.206-1.2.206S448.427,105.056,448.427,104.942Z" transform="translate(-448.427 -104.734)" fill="#e0e0e0"/></g><g transform="translate(59.11 85.217)"><path d="M445.274,104.942c0-.115.536-.208,1.2-.208s1.2.093,1.2.208-.536.206-1.2.206S445.274,105.056,445.274,104.942Z" transform="translate(-445.274 -104.734)" fill="#e0e0e0"/></g><g transform="translate(54.327 85.217)"><path d="M442.122,104.942c0-.115.536-.208,1.2-.208s1.2.093,1.2.208-.536.206-1.2.206S442.122,105.056,442.122,104.942Z" transform="translate(-442.122 -104.734)" fill="#e0e0e0"/></g><g transform="translate(49.542 85.217)"><path d="M438.969,104.942c0-.115.536-.208,1.2-.208s1.2.093,1.2.208-.536.206-1.2.206S438.969,105.056,438.969,104.942Z" transform="translate(-438.969 -104.734)" fill="#e0e0e0"/></g><g transform="translate(44.758 85.217)"><path d="M435.817,104.942c0-.115.536-.208,1.2-.208s1.2.093,1.2.208-.534.206-1.2.206S435.817,105.056,435.817,104.942Z" transform="translate(-435.817 -104.734)" fill="#e0e0e0"/></g><g transform="translate(39.974 85.217)"><path d="M432.665,104.942c0-.115.536-.208,1.2-.208s1.2.093,1.2.208-.536.206-1.2.206S432.665,105.056,432.665,104.942Z" transform="translate(-432.665 -104.734)" fill="#e0e0e0"/></g><g transform="translate(35.189 85.217)"><path d="M429.512,104.942c0-.115.536-.208,1.2-.208s1.2.093,1.2.208-.534.206-1.2.206S429.512,105.056,429.512,104.942Z" transform="translate(-429.512 -104.734)" fill="#e0e0e0"/></g><g transform="translate(30.406 85.217)"><path d="M426.36,104.942c0-.115.536-.208,1.2-.208s1.2.093,1.2.208-.536.206-1.2.206S426.36,105.056,426.36,104.942Z" transform="translate(-426.36 -104.734)" fill="#e0e0e0"/></g><g transform="translate(25.621 85.217)"><path d="M423.207,104.942c0-.115.536-.208,1.2-.208s1.2.093,1.2.208-.536.206-1.2.206S423.207,105.056,423.207,104.942Z" transform="translate(-423.207 -104.734)" fill="#e0e0e0"/></g><g transform="translate(20.837 85.217)"><path d="M420.055,104.942c0-.115.536-.208,1.2-.208s1.2.093,1.2.208-.536.206-1.2.206S420.055,105.056,420.055,104.942Z" transform="translate(-420.055 -104.734)" fill="#e0e0e0"/></g><g transform="translate(16.054 85.217)"><path d="M416.9,104.942c0-.115.536-.208,1.2-.208s1.2.093,1.2.208-.536.206-1.2.206S416.9,105.056,416.9,104.942Z" transform="translate(-416.903 -104.734)" fill="#e0e0e0"/></g><g transform="translate(11.268 85.217)"><path d="M413.75,104.942c0-.115.536-.208,1.2-.208s1.2.093,1.2.208-.534.206-1.2.206S413.75,105.056,413.75,104.942Z" transform="translate(-413.75 -104.734)" fill="#e0e0e0"/></g><g transform="translate(6.485 85.217)"><path d="M410.6,104.942c0-.115.536-.208,1.2-.208s1.2.093,1.2.208-.536.206-1.2.206S410.6,105.056,410.6,104.942Z" transform="translate(-410.598 -104.734)" fill="#e0e0e0"/></g><g transform="translate(1.7 85.217)"><path d="M407.445,104.942c0-.115.536-.208,1.2-.208s1.2.093,1.2.208-.536.206-1.2.206S407.445,105.056,407.445,104.942Z" transform="translate(-407.445 -104.734)" fill="#e0e0e0"/></g><g transform="translate(0 82.133)"><path d="M406.533,102.7c.114,0,.206.536.206,1.2s-.093,1.2-.206,1.2-.208-.536-.208-1.2S406.418,102.7,406.533,102.7Z" transform="translate(-406.325 -102.702)" fill="#e0e0e0"/></g><g transform="translate(0 77.348)"><path d="M406.533,99.549c.114,0,.206.536.206,1.2s-.093,1.2-.206,1.2-.208-.536-.208-1.2S406.418,99.549,406.533,99.549Z" transform="translate(-406.325 -99.549)" fill="#e0e0e0"/></g><g transform="translate(0 72.564)"><path d="M406.533,96.4c.114,0,.206.536.206,1.2s-.093,1.2-.206,1.2-.208-.536-.208-1.2S406.418,96.4,406.533,96.4Z" transform="translate(-406.325 -96.397)" fill="#e0e0e0"/></g><g transform="translate(0 67.781)"><path d="M406.533,93.245c.114,0,.206.534.206,1.2s-.093,1.2-.206,1.2-.208-.536-.208-1.2S406.418,93.245,406.533,93.245Z" transform="translate(-406.325 -93.245)" fill="#e0e0e0"/></g><g transform="translate(0 62.996)"><path d="M406.533,90.092c.114,0,.206.536.206,1.2s-.093,1.2-.206,1.2-.208-.534-.208-1.2S406.418,90.092,406.533,90.092Z" transform="translate(-406.325 -90.092)" fill="#e0e0e0"/></g><g transform="translate(0 58.212)"><path d="M406.533,86.94c.114,0,.206.536.206,1.2s-.093,1.2-.206,1.2-.208-.536-.208-1.2S406.418,86.94,406.533,86.94Z" transform="translate(-406.325 -86.94)" fill="#e0e0e0"/></g><g transform="translate(0 53.427)"><path d="M406.533,83.787c.114,0,.206.536.206,1.2s-.093,1.2-.206,1.2-.208-.536-.208-1.2S406.418,83.787,406.533,83.787Z" transform="translate(-406.325 -83.787)" fill="#e0e0e0"/></g><g transform="translate(0 48.643)"><path d="M406.533,80.635c.114,0,.206.536.206,1.2s-.093,1.2-.206,1.2-.208-.536-.208-1.2S406.418,80.635,406.533,80.635Z" transform="translate(-406.325 -80.635)" fill="#e0e0e0"/></g><g transform="translate(0 43.86)"><path d="M406.533,77.483c.114,0,.206.534.206,1.2s-.093,1.2-.206,1.2-.208-.536-.208-1.2S406.418,77.483,406.533,77.483Z" transform="translate(-406.325 -77.483)" fill="#e0e0e0"/></g><g transform="translate(0 39.075)"><path d="M406.533,74.33c.114,0,.206.536.206,1.2s-.093,1.2-.206,1.2-.208-.536-.208-1.2S406.418,74.33,406.533,74.33Z" transform="translate(-406.325 -74.33)" fill="#e0e0e0"/></g><g transform="translate(0 34.291)"><path d="M406.533,71.178c.114,0,.206.536.206,1.2s-.093,1.2-.206,1.2-.208-.536-.208-1.2S406.418,71.178,406.533,71.178Z" transform="translate(-406.325 -71.178)" fill="#e0e0e0"/></g><g transform="translate(0 29.506)"><path d="M406.533,68.025c.114,0,.206.536.206,1.2s-.093,1.2-.206,1.2-.208-.534-.208-1.2S406.418,68.025,406.533,68.025Z" transform="translate(-406.325 -68.025)" fill="#e0e0e0"/></g><g transform="translate(0 24.722)"><path d="M406.533,64.873c.114,0,.206.536.206,1.2s-.093,1.2-.206,1.2-.208-.536-.208-1.2S406.418,64.873,406.533,64.873Z" transform="translate(-406.325 -64.873)" fill="#e0e0e0"/></g><g transform="translate(0 19.937)"><path d="M406.533,61.72c.114,0,.206.536.206,1.2s-.093,1.2-.206,1.2-.208-.536-.208-1.2S406.418,61.72,406.533,61.72Z" transform="translate(-406.325 -61.72)" fill="#e0e0e0"/></g><g transform="translate(0 15.154)"><path d="M406.533,58.568c.114,0,.206.536.206,1.2s-.093,1.2-.206,1.2-.208-.536-.208-1.2S406.418,58.568,406.533,58.568Z" transform="translate(-406.325 -58.568)" fill="#e0e0e0"/></g><g transform="translate(0 10.37)"><path d="M406.533,55.416c.114,0,.206.534.206,1.2s-.093,1.2-.206,1.2-.208-.536-.208-1.2S406.418,55.416,406.533,55.416Z" transform="translate(-406.325 -55.416)" fill="#e0e0e0"/></g><g transform="translate(0 5.585)"><path d="M406.533,52.263c.114,0,.206.536.206,1.2s-.093,1.2-.206,1.2-.208-.534-.208-1.2S406.418,52.263,406.533,52.263Z" transform="translate(-406.325 -52.263)" fill="#e0e0e0"/></g><g transform="translate(0 0.801)"><path d="M406.533,49.111c.114,0,.206.536.206,1.2s-.093,1.2-.206,1.2-.208-.536-.208-1.2S406.418,49.111,406.533,49.111Z" transform="translate(-406.325 -49.111)" fill="#e0e0e0"/></g><g transform="translate(2.005)"><path d="M410.039,48.791c0,.114-.536.206-1.2.206s-1.2-.093-1.2-.206.536-.208,1.2-.208S410.039,48.676,410.039,48.791Z" transform="translate(-407.646 -48.583)" fill="#e0e0e0"/></g><g transform="translate(6.79)"><path d="M413.191,48.791c0,.114-.536.206-1.2.206s-1.2-.093-1.2-.206.536-.208,1.2-.208S413.191,48.676,413.191,48.791Z" transform="translate(-410.799 -48.583)" fill="#e0e0e0"/></g><g transform="translate(11.573)"><path d="M416.344,48.791c0,.114-.536.206-1.2.206s-1.2-.093-1.2-.206.536-.208,1.2-.208S416.344,48.676,416.344,48.791Z" transform="translate(-413.951 -48.583)" fill="#e0e0e0"/></g><g transform="translate(16.359)"><path d="M419.5,48.791c0,.114-.536.206-1.2.206s-1.2-.093-1.2-.206.536-.208,1.2-.208S419.5,48.676,419.5,48.791Z" transform="translate(-417.104 -48.583)" fill="#e0e0e0"/></g><g transform="translate(21.142)"><path d="M422.648,48.791c0,.114-.534.206-1.2.206s-1.2-.093-1.2-.206.536-.208,1.2-.208S422.648,48.676,422.648,48.791Z" transform="translate(-420.256 -48.583)" fill="#e0e0e0"/></g><g transform="translate(25.927)"><path d="M425.8,48.791c0,.114-.536.206-1.2.206s-1.2-.093-1.2-.206.534-.208,1.2-.208S425.8,48.676,425.8,48.791Z" transform="translate(-423.409 -48.583)" fill="#e0e0e0"/></g><g transform="translate(30.711)"><path d="M428.953,48.791c0,.114-.536.206-1.2.206s-1.2-.093-1.2-.206.536-.208,1.2-.208S428.953,48.676,428.953,48.791Z" transform="translate(-426.561 -48.583)" fill="#e0e0e0"/></g><g transform="translate(35.494)"><path d="M432.106,48.791c0,.114-.536.206-1.2.206s-1.2-.093-1.2-.206.536-.208,1.2-.208S432.106,48.676,432.106,48.791Z" transform="translate(-429.713 -48.583)" fill="#e0e0e0"/></g><g transform="translate(40.279)"><path d="M435.258,48.791c0,.114-.536.206-1.2.206s-1.2-.093-1.2-.206.536-.208,1.2-.208S435.258,48.676,435.258,48.791Z" transform="translate(-432.866 -48.583)" fill="#e0e0e0"/></g><g transform="translate(45.063)"><path d="M438.41,48.791c0,.114-.534.206-1.2.206s-1.2-.093-1.2-.206.536-.208,1.2-.208S438.41,48.676,438.41,48.791Z" transform="translate(-436.018 -48.583)" fill="#e0e0e0"/></g><g transform="translate(49.848)"><path d="M441.563,48.791c0,.114-.536.206-1.2.206s-1.2-.093-1.2-.206.534-.208,1.2-.208S441.563,48.676,441.563,48.791Z" transform="translate(-439.171 -48.583)" fill="#e0e0e0"/></g><g transform="translate(54.632)"><path d="M444.715,48.791c0,.114-.536.206-1.2.206s-1.2-.093-1.2-.206.536-.208,1.2-.208S444.715,48.676,444.715,48.791Z" transform="translate(-442.323 -48.583)" fill="#e0e0e0"/></g><g transform="translate(59.415)"><path d="M447.868,48.791c0,.114-.536.206-1.2.206s-1.2-.093-1.2-.206.536-.208,1.2-.208S447.868,48.676,447.868,48.791Z" transform="translate(-445.475 -48.583)" fill="#e0e0e0"/></g><g transform="translate(64.2)"><path d="M451.02,48.791c0,.114-.536.206-1.2.206s-1.2-.093-1.2-.206.536-.208,1.2-.208S451.02,48.676,451.02,48.791Z" transform="translate(-448.628 -48.583)" fill="#e0e0e0"/></g><g transform="translate(68.984)"><path d="M454.172,48.791c0,.114-.534.206-1.2.206s-1.2-.093-1.2-.206.536-.208,1.2-.208S454.172,48.676,454.172,48.791Z" transform="translate(-451.78 -48.583)" fill="#e0e0e0"/></g><g transform="translate(73.769)"><path d="M457.325,48.791c0,.114-.536.206-1.2.206s-1.2-.093-1.2-.206.536-.208,1.2-.208S457.325,48.676,457.325,48.791Z" transform="translate(-454.933 -48.583)" fill="#e0e0e0"/></g><g transform="translate(78.553)"><path d="M460.477,48.791c0,.114-.536.206-1.2.206s-1.2-.093-1.2-.206.536-.208,1.2-.208S460.477,48.676,460.477,48.791Z" transform="translate(-458.085 -48.583)" fill="#e0e0e0"/></g><g transform="translate(83.338)"><path d="M463.325,49.1c-.053,0-.1-.114-.138-.305l.138.137a4.956,4.956,0,0,1-.891.07c-.662,0-1.2-.093-1.2-.206s.534-.208,1.2-.208a4.817,4.817,0,0,1,.891.07l.158.03-.021.108C463.425,48.982,463.376,49.1,463.325,49.1Z" transform="translate(-461.238 -48.583)" fill="#e0e0e0"/></g><g transform="translate(85.217 2.905)"><path d="M462.684,52.889c-.115,0-.208-.536-.208-1.2s.093-1.2.208-1.2.206.536.206,1.2S462.8,52.889,462.684,52.889Z" transform="translate(-462.476 -50.497)" fill="#e0e0e0"/></g><g transform="translate(85.217 7.688)"><path d="M462.684,56.041c-.115,0-.208-.534-.208-1.2s.093-1.2.208-1.2.206.536.206,1.2S462.8,56.041,462.684,56.041Z" transform="translate(-462.476 -53.649)" fill="#e0e0e0"/></g><g transform="translate(85.217 12.473)"><path d="M462.684,59.194c-.115,0-.208-.536-.208-1.2s.093-1.2.208-1.2.206.534.206,1.2S462.8,59.194,462.684,59.194Z" transform="translate(-462.476 -56.802)" fill="#e0e0e0"/></g><g transform="translate(85.217 17.257)"><path d="M462.684,62.346c-.115,0-.208-.536-.208-1.2s.093-1.2.208-1.2.206.536.206,1.2S462.8,62.346,462.684,62.346Z" transform="translate(-462.476 -59.954)" fill="#e0e0e0"/></g><g transform="translate(85.217 22.041)"><path d="M462.684,65.5c-.115,0-.208-.536-.208-1.2s.093-1.2.208-1.2.206.536.206,1.2S462.8,65.5,462.684,65.5Z" transform="translate(-462.476 -63.106)" fill="#e0e0e0"/></g><g transform="translate(85.217 26.826)"><path d="M462.684,68.651c-.115,0-.208-.536-.208-1.2s.093-1.2.208-1.2.206.536.206,1.2S462.8,68.651,462.684,68.651Z" transform="translate(-462.476 -66.259)" fill="#e0e0e0"/></g><g transform="translate(85.217 31.609)"><path d="M462.684,71.8c-.115,0-.208-.536-.208-1.2s.093-1.2.208-1.2.206.536.206,1.2S462.8,71.8,462.684,71.8Z" transform="translate(-462.476 -69.411)" fill="#e0e0e0"/></g><g transform="translate(85.217 36.394)"><path d="M462.684,74.956c-.115,0-.208-.536-.208-1.2s.093-1.2.208-1.2.206.534.206,1.2S462.8,74.956,462.684,74.956Z" transform="translate(-462.476 -72.564)" fill="#e0e0e0"/></g><g transform="translate(85.217 41.178)"><path d="M462.684,78.108c-.115,0-.208-.536-.208-1.2s.093-1.2.208-1.2.206.536.206,1.2S462.8,78.108,462.684,78.108Z" transform="translate(-462.476 -75.716)" fill="#e0e0e0"/></g><g transform="translate(85.217 45.963)"><path d="M462.684,81.261c-.115,0-.208-.536-.208-1.2s.093-1.2.208-1.2.206.534.206,1.2S462.8,81.261,462.684,81.261Z" transform="translate(-462.476 -78.869)" fill="#e0e0e0"/></g><g transform="translate(85.217 50.747)"><path d="M462.684,84.413c-.115,0-.208-.536-.208-1.2s.093-1.2.208-1.2.206.536.206,1.2S462.8,84.413,462.684,84.413Z" transform="translate(-462.476 -82.021)" fill="#e0e0e0"/></g><g transform="translate(85.217 55.53)"><path d="M462.684,87.566c-.115,0-.208-.536-.208-1.2s.093-1.2.208-1.2.206.536.206,1.2S462.8,87.566,462.684,87.566Z" transform="translate(-462.476 -85.173)" fill="#e0e0e0"/></g><g transform="translate(85.217 60.315)"><path d="M462.684,90.718c-.115,0-.208-.536-.208-1.2s.093-1.2.208-1.2.206.534.206,1.2S462.8,90.718,462.684,90.718Z" transform="translate(-462.476 -88.326)" fill="#e0e0e0"/></g><g transform="translate(85.217 65.099)"><path d="M462.684,93.87c-.115,0-.208-.534-.208-1.2s.093-1.2.208-1.2.206.536.206,1.2S462.8,93.87,462.684,93.87Z" transform="translate(-462.476 -91.478)" fill="#e0e0e0"/></g><g transform="translate(85.217 69.884)"><path d="M462.684,97.023c-.115,0-.208-.536-.208-1.2s.093-1.2.208-1.2.206.534.206,1.2S462.8,97.023,462.684,97.023Z" transform="translate(-462.476 -94.631)" fill="#e0e0e0"/></g><g transform="translate(85.217 74.668)"><path d="M462.684,100.175c-.115,0-.208-.536-.208-1.2s.093-1.2.208-1.2.206.536.206,1.2S462.8,100.175,462.684,100.175Z" transform="translate(-462.476 -97.783)" fill="#e0e0e0"/></g><g transform="translate(85.217 79.453)"><path d="M462.684,103.328c-.115,0-.208-.536-.208-1.2s.093-1.2.208-1.2.206.534.206,1.2S462.8,103.328,462.684,103.328Z" transform="translate(-462.476 -100.936)" fill="#e0e0e0"/></g></g><rect width="6.311" height="6.311" transform="translate(85.217 84.968)" fill="#e0e0e0"/><rect width="6.311" height="6.311" transform="translate(0 85.831)" fill="#e0e0e0"/><rect width="6.311" height="6.311" transform="translate(85.217)" fill="#e0e0e0"/><rect width="6.311" height="6.311" transform="translate(0 0.614)" fill="#e0e0e0"/></g></g><g transform="matrix(0.799, -0.602, 0.602, 0.799, 305.736, 92.833)"><g transform="translate(0)"><g transform="translate(19.773)"><g transform="translate(0.048 0.256)"><path d="M515.532,134.521l17.43,18.145a3.035,3.035,0,0,0,4.287.137L606.6,86.176a3.032,3.032,0,0,0,.036-4.289l-17.43-18.145a3.033,3.033,0,0,0-4.286-.137l-69.357,66.626A3.033,3.033,0,0,0,515.532,134.521Z" transform="translate(-514.662 -62.785)" fill="#f5f5f5"/></g><path d="M515.548,134.608a2.292,2.292,0,0,1-.434-.519,3.06,3.06,0,0,1,0-3.313,9.885,9.885,0,0,1,1.22-1.29q1.375-1.334,3.157-3.066l20.166-19.489,29.955-28.855,8.664-8.335,4.476-4.3c.771-.725,1.469-1.451,2.311-2.185a3.284,3.284,0,0,1,3.277-.354,4,4,0,0,1,1.338,1.029l1.114,1.159,2.242,2.331,4.538,4.721,9.268,9.648a3.359,3.359,0,0,1,.768,3.4,3.47,3.47,0,0,1-1.017,1.468l-1.208,1.161q-2.415,2.317-4.794,4.6-4.763,4.569-9.375,9l-17.728,17.007c-11.3,10.828-21.484,20.581-30.037,28.776q-3.21,3.069-6.107,5.837a3.181,3.181,0,0,1-3.8.366,7.461,7.461,0,0,1-1.387-1.281l-1.24-1.3c-3.242-3.4-6.036-6.332-8.324-8.731-2.271-2.393-4.034-4.254-5.247-5.533L516,135.115c-.3-.328-.448-.507-.448-.507s.172.153.487.469l1.393,1.411c1.228,1.263,3.017,3.1,5.318,5.463,2.305,2.384,5.122,5.294,8.39,8.67l1.247,1.29a7.3,7.3,0,0,0,1.33,1.222,2.854,2.854,0,0,0,3.4-.34l6.078-5.861c8.531-8.218,18.685-18,29.958-28.858l17.706-17.029,9.368-9.006,4.793-4.606,1.208-1.161a2.9,2.9,0,0,0,.882-1.258,2.824,2.824,0,0,0-.648-2.861L597.2,72.5q-2.286-2.379-4.536-4.723-1.124-1.172-2.24-2.334l-1.114-1.159a3.463,3.463,0,0,0-1.173-.915,2.763,2.763,0,0,0-2.756.293c-.745.651-1.515,1.436-2.266,2.141l-4.48,4.3q-4.434,4.252-8.676,8.321L539.921,107.2l-20.283,19.368-3.19,3.031a9.994,9.994,0,0,0-1.219,1.249,2.962,2.962,0,0,0-.483,1.332,3.088,3.088,0,0,0,.413,1.879C515.39,134.439,515.562,134.6,515.548,134.608Z" transform="translate(-514.63 -62.616)" fill="#263238"/></g><g transform="translate(78.735 3.525)"><rect width="17.576" height="25.628" transform="matrix(0.717, -0.697, 0.697, 0.717, 0, 12.257)" fill="#e8505b"/></g><g transform="translate(37.707 43.445)"><rect width="17.576" height="25.628" transform="translate(0 12.257) rotate(-44.216)" fill="#e8505b"/></g><g transform="translate(51.399 30.123)"><rect width="17.576" height="25.628" transform="matrix(0.717, -0.697, 0.697, 0.717, 0, 12.257)" fill="#e8505b"/></g><g transform="translate(65.101 16.791)"><rect width="17.576" height="25.628" transform="matrix(0.717, -0.697, 0.697, 0.717, 0, 12.257)" fill="#e8505b"/></g><g transform="translate(78.735 3.525)" opacity="0.8"><rect width="17.576" height="25.628" transform="matrix(0.717, -0.697, 0.697, 0.717, 0, 12.257)" fill="#c9916f"/></g><g transform="translate(37.707 43.445)" opacity="0.5"><rect width="17.576" height="25.628" transform="translate(0 12.257) rotate(-44.216)" fill="#c0626d"/></g><g transform="translate(51.399 30.123)" opacity="0.6"><rect width="17.576" height="25.628" transform="matrix(0.717, -0.697, 0.697, 0.717, 0, 12.257)" fill="#a85b6a"/></g><g transform="translate(65.101 16.791)" opacity="0.7"><rect width="17.576" height="25.628" transform="matrix(0.717, -0.697, 0.697, 0.717, 0, 12.257)" fill="#bc5c7e"/></g><g transform="translate(21.425 18.285)"><g transform="translate(0.04 0.258)"><path d="M516.142,125.18,528.317,147.2a3.013,3.013,0,0,0,4.07,1.255L615.35,102.58a3.013,3.013,0,0,0,1.1-4.114L604.277,76.447a3.011,3.011,0,0,0-4.07-1.254l-82.965,45.872A3.012,3.012,0,0,0,516.142,125.18Z" transform="translate(-515.745 -74.835)" fill="#f5f5f5"/></g><path d="M516.156,125.268a2.346,2.346,0,0,1-.286-.606,3.092,3.092,0,0,1,.014-1.953,2.942,2.942,0,0,1,.8-1.223,8.945,8.945,0,0,1,1.49-.927l3.8-2.128c5.738-3.195,14.014-7.8,24.232-13.495L582.173,84.98l10.4-5.761,5.372-2.975,1.36-.753a7.658,7.658,0,0,1,1.454-.709,3.282,3.282,0,0,1,3.155.832,5.543,5.543,0,0,1,.923,1.369l.769,1.392,1.55,2.8,3.135,5.667,6.4,11.577a3.275,3.275,0,0,1-1.437,4.611l-1.451.8q-2.9,1.6-5.753,3.181L596.8,113.227c-7.376,4.073-14.492,8-21.27,11.743L539.5,144.827c-2.577,1.407-4.979,2.765-7.346,4.016a3.179,3.179,0,0,1-3.645-1c-.712-1.082-1.209-2.141-1.794-3.16-2.234-4.075-4.158-7.587-5.734-10.463l-3.606-6.623c-.4-.75-.709-1.323-.926-1.73-.206-.39-.3-.6-.3-.6s.124.19.346.572c.229.4.551.967.973,1.7.853,1.519,2.094,3.73,3.693,6.574,1.6,2.864,3.548,6.362,5.812,10.42.578.994,1.125,2.116,1.782,3.1a2.852,2.852,0,0,0,3.27.888c2.287-1.226,4.737-2.621,7.292-4.031L575.3,124.542l21.255-11.769,11.246-6.222,5.752-3.182,1.451-.8a2.808,2.808,0,0,0,1.15-.983,2.839,2.839,0,0,0,.079-2.906l-6.4-11.578L606.7,81.429q-.779-1.407-1.548-2.8l-.769-1.392a4.982,4.982,0,0,0-.83-1.249,2.759,2.759,0,0,0-2.651-.706,7.423,7.423,0,0,0-1.345.662l-1.36.751q-2.716,1.5-5.376,2.968L582.41,85.408l-36.027,19.855-24.314,13.348-3.82,2.085a8.892,8.892,0,0,0-1.478.888,2.855,2.855,0,0,0-.784,1.159,3.088,3.088,0,0,0-.064,1.9C516.048,125.066,516.171,125.26,516.156,125.268Z" transform="translate(-515.719 -74.665)" fill="#263238"/></g><g transform="translate(90.071 22.914)"><rect width="17.576" height="25.628" transform="matrix(0.872, -0.489, 0.489, 0.872, 0, 8.596)" fill="#e8505b"/></g><g transform="translate(40.141 50.911)"><rect width="17.576" height="25.628" transform="translate(0 8.596) rotate(-29.28)" fill="#e8505b"/></g><g transform="translate(56.803 41.568)"><rect width="17.576" height="25.628" transform="matrix(0.872, -0.489, 0.489, 0.872, 0, 8.596)" fill="#e8505b"/></g><g transform="translate(73.479 32.218)"><rect width="17.576" height="25.628" transform="translate(0 8.596) rotate(-29.28)" fill="#e8505b"/></g><g transform="translate(90.071 22.914)" opacity="0.5"><rect width="17.576" height="25.628" transform="matrix(0.872, -0.489, 0.489, 0.872, 0, 8.596)" fill="#ffd947"/></g><g transform="translate(40.141 50.911)" opacity="0.2"><rect width="17.576" height="25.628" transform="translate(0 8.596) rotate(-29.28)" fill="#26aab7"/></g><g transform="translate(56.803 41.568)" opacity="0.3"><rect width="17.576" height="25.628" transform="matrix(0.872, -0.489, 0.489, 0.872, 0, 8.596)" fill="#19768e"/></g><g transform="translate(73.479 32.218)" opacity="0.4"><rect width="17.576" height="25.628" transform="translate(0 8.596) rotate(-29.28)" fill="#7d6eb2"/></g><g transform="translate(18.71 43.439)"><g transform="translate(0.025 0.256)"><path d="M514.017,116.4l5.371,24.58a3.086,3.086,0,0,0,3.688,2.334l97.3-21.262a3.087,3.087,0,0,0,2.378-3.661l-5.371-24.58a3.087,3.087,0,0,0-3.688-2.334l-97.3,21.264A3.084,3.084,0,0,0,514.017,116.4Z" transform="translate(-513.946 -91.408)" fill="#f5f5f5"/></g><path d="M514.026,116.491a2.308,2.308,0,0,1-.1-.689,3.051,3.051,0,0,1,.666-1.914,3.233,3.233,0,0,1,1.2-.929,12.252,12.252,0,0,1,1.763-.461l4.412-.988c6.659-1.477,16.266-3.606,28.131-6.234L591.836,96.1,603.9,93.45l6.233-1.364,3.161-.694a3.916,3.916,0,0,1,1.718-.094,3.373,3.373,0,0,1,1.574.771,3.288,3.288,0,0,1,.973,1.471c.159.577.247,1.085.375,1.633q.353,1.616.71,3.248l1.437,6.571q1.448,6.622,2.937,13.428a3.344,3.344,0,0,1-1.233,3.351,3.753,3.753,0,0,1-1.684.7l-1.682.367-6.672,1.457L598.7,127.146c-8.553,1.862-16.8,3.661-24.661,5.372l-41.764,9.069-8.481,1.833c-.338.07-.657.153-1.018.2a3.438,3.438,0,0,1-1.052-.056,3.273,3.273,0,0,1-1.756-1.026,3.535,3.535,0,0,1-.8-1.786l-.388-1.8c-1.014-4.718-1.886-8.787-2.6-12.118-.7-3.314-1.247-5.893-1.624-7.663q-.264-1.3-.408-2c-.089-.451-.121-.684-.121-.684s.067.226.175.672c.108.464.261,1.125.46,1.985.4,1.765.977,4.336,1.721,7.641.741,3.327,1.644,7.388,2.691,12.1q.2.883.4,1.8a3.19,3.19,0,0,0,.739,1.641,2.951,2.951,0,0,0,1.586.917,4.073,4.073,0,0,0,1.929-.155l8.473-1.871,41.74-9.179,24.654-5.4q6.415-1.4,13.043-2.855l6.672-1.458,1.683-.367a3.212,3.212,0,0,0,1.473-.605,2.816,2.816,0,0,0,1.037-2.82q-1.484-6.8-2.932-13.427-.724-3.312-1.436-6.574-.355-1.63-.709-3.246c-.12-.527-.226-1.1-.359-1.586a2.774,2.774,0,0,0-.818-1.24A2.957,2.957,0,0,0,613.4,91.9l-3.163.689-6.233,1.358q-6.169,1.345-12.068,2.629l-41.761,9.068-28.167,6.069-4.422.942a12.486,12.486,0,0,0-1.744.428,3.124,3.124,0,0,0-1.167.874,3.038,3.038,0,0,0-.7,1.847C513.977,116.257,514.044,116.488,514.026,116.491Z" transform="translate(-513.93 -91.239)" fill="#263238"/></g><g transform="translate(0 68.663)"><path d="M520.2,107.987c0,.094-1.225.024-3.362.414a18.031,18.031,0,0,0-8.156,3.876,17.385,17.385,0,0,0-6.033,11.621,17.062,17.062,0,0,0,31.8,9.915,17.6,17.6,0,0,0,2.368-8.71c-.015-.536-.03-1.017-.043-1.443s-.085-.766-.108-1.053a2.885,2.885,0,0,1-.039-.886,2.722,2.722,0,0,1,.25.85c.058.285.156.634.211,1.058s.09.921.141,1.466a17.2,17.2,0,0,1-2.128,9.086,17.621,17.621,0,0,1-10.757,8.556,17.764,17.764,0,0,1-16.318-3.489,17.972,17.972,0,0,1-6.351-15.439,17.921,17.921,0,0,1,6.527-12.109,17.585,17.585,0,0,1,8.567-3.7,14.643,14.643,0,0,1,2.547-.123A2.4,2.4,0,0,1,520.2,107.987Z" transform="translate(-501.601 -107.86)" fill="#263238"/></g><g transform="translate(30.289 75.645)"><path d="M529.136,115.475a3.832,3.832,0,1,1-4.562-2.926A3.83,3.83,0,0,1,529.136,115.475Z" transform="translate(-521.559 -112.46)" fill="#263238"/></g><g transform="translate(102.02 47.053)"><rect width="17.576" height="25.628" transform="matrix(0.977, -0.213, 0.213, 0.977, 0, 3.753)" fill="#ffd947"/></g><g transform="translate(83.436 51.114)"><rect width="17.576" height="25.628" transform="translate(0 3.752) rotate(-12.327)" fill="#7d6eb2"/></g><g transform="translate(64.758 55.196)"><rect width="17.576" height="25.628" transform="translate(0 3.752) rotate(-12.327)" fill="#167377"/></g><g transform="translate(46.096 59.274)"><rect width="17.576" height="25.628" transform="matrix(0.977, -0.213, 0.213, 0.977, 0, 3.752)" fill="#26aab7"/></g></g></g><g transform="translate(98.809 179.303)"><g transform="translate(14.968 136.087) rotate(-19)"><g transform="translate(198.76 0.001)"><path d="M665.163,184.78l-96.939,42,.473,28.092-10.969,11.491,37.036,33.1,10.817-12.1,28.822-4.035Z" transform="translate(-557.222 -184.78)" fill="#fafafa"/><path d="M665.3,184.78c-.851,2.756-12.543,40.637-30.449,98.645l-.062.2-.2.029-28.819,4.055.209-.112L595.163,299.7l-.235.263-.262-.235c-6.066-5.419-12.431-11.107-18.907-16.9l-18.129-16.207-.271-.243.252-.263,10.973-11.487-.1.245c-.157-9.72-.309-19.1-.454-28.091l0-.22.2-.086,97.069-41.7-96.808,42.3.2-.305c.157,8.987.321,18.37.491,28.091l0,.142-.1.1-10.964,11.5-.02-.507q8.881,7.937,18.133,16.2l18.9,16.9-.5.027,10.821-12.1.085-.094.126-.018,28.824-4.014-.265.226C652.5,225.338,664.432,187.529,665.3,184.78Z" transform="translate(-557.358 -184.78)" fill="#263238"/></g><path d="M614.658,241.9a15.207,15.207,0,1,1-1.2-21.472A15.207,15.207,0,0,1,614.658,241.9Z" transform="translate(-347.288 -173.093)" fill="#12263f"/><g transform="translate(256.032 0)"><path d="M649.9,184.78c.149.129-11.075,13.369-25.063,29.569s-25.456,29.233-25.6,29.1,11.072-13.365,25.066-29.57S649.752,184.652,649.9,184.78Z" transform="translate(-599.232 -184.779)" fill="#263238"/></g><path d="M420.121,494.3h0a24.239,24.239,0,0,1-2.011-34.123L600.373,253.939l36.144,32.305L454.436,492.273A24.239,24.239,0,0,1,420.121,494.3Z" transform="translate(-412.035 -159.348)" fill="#12263f"/><rect width="19.808" height="57.009" transform="translate(185.45 92.009) rotate(-48.209)" fill="#727997"/></g><g transform="translate(214.417 0.614) rotate(-19)"><rect width="10.553" height="10.553" transform="matrix(0.766, 0.642, -0.642, 0.766, 72.461, 56.248)" fill="#12263f"/><g transform="translate(0)"><g transform="translate(3.125 3.123)"><path d="M721.353,255.616c-.35.417-31.281-24.931-69.079-56.607s-68.171-57.7-67.822-58.12,31.274,24.925,69.086,56.612S721.7,255.2,721.353,255.616Z" transform="translate(-584.449 -140.884)" fill="#12263f"/></g><path d="M687.158,227.1a3.127,3.127,0,1,1-.388-4.405A3.127,3.127,0,0,1,687.158,227.1Z" transform="translate(-545.588 -107.949)" fill="#12263f"/><path d="M587.688,143.737a3.127,3.127,0,1,1-.388-4.405A3.127,3.127,0,0,1,587.688,143.737Z" transform="translate(-582.164 -138.601)" fill="#12263f"/></g></g><path d="M550.206,253.939l36.144,32.306-4.875,5.516-33.007-35.855Z" transform="translate(-379.062 103.232) rotate(-19)" opacity="0.3"/><g transform="translate(260.331 100.13)"><g transform="translate(4.31 5.238)"><g transform="translate(123.927 128.74)"><path d="M674.005,338.51c0-.252,1.179-.457,2.634-.457s2.636.205,2.636.457-1.179.458-2.636.458S674.005,338.763,674.005,338.51Z" transform="translate(-674.005 -338.053)" fill="#e0e0e0"/></g><g transform="translate(113.385 128.74)"><path d="M666.3,338.51c0-.252,1.18-.457,2.636-.457s2.636.205,2.636.457-1.18.458-2.636.458S666.3,338.763,666.3,338.51Z" transform="translate(-666.297 -338.053)" fill="#e0e0e0"/></g><g transform="translate(102.844 128.74)"><path d="M658.59,338.51c0-.252,1.179-.457,2.636-.457s2.634.205,2.634.457-1.179.458-2.634.458S658.59,338.763,658.59,338.51Z" transform="translate(-658.59 -338.053)" fill="#e0e0e0"/></g><g transform="translate(92.301 128.74)"><path d="M650.882,338.51c0-.252,1.18-.457,2.636-.457s2.636.205,2.636.457-1.18.458-2.636.458S650.882,338.763,650.882,338.51Z" transform="translate(-650.882 -338.053)" fill="#e0e0e0"/></g><g transform="translate(81.76 128.74)"><path d="M643.175,338.51c0-.252,1.18-.457,2.636-.457s2.636.205,2.636.457-1.18.458-2.636.458S643.175,338.763,643.175,338.51Z" transform="translate(-643.175 -338.053)" fill="#e0e0e0"/></g><g transform="translate(71.218 128.74)"><path d="M635.467,338.51c0-.252,1.18-.457,2.636-.457s2.636.205,2.636.457-1.18.458-2.636.458S635.467,338.763,635.467,338.51Z" transform="translate(-635.467 -338.053)" fill="#e0e0e0"/></g><g transform="translate(60.677 128.74)"><path d="M627.76,338.51c0-.252,1.18-.457,2.635-.457s2.636.205,2.636.457-1.181.458-2.636.458S627.76,338.763,627.76,338.51Z" transform="translate(-627.76 -338.053)" fill="#e0e0e0"/></g><g transform="translate(50.135 128.74)"><path d="M620.052,338.51c0-.252,1.18-.457,2.636-.457s2.635.205,2.635.457-1.18.458-2.635.458S620.052,338.763,620.052,338.51Z" transform="translate(-620.052 -338.053)" fill="#e0e0e0"/></g><g transform="translate(39.594 128.74)"><path d="M612.345,338.51c0-.252,1.18-.457,2.636-.457s2.635.205,2.635.457-1.18.458-2.635.458S612.345,338.763,612.345,338.51Z" transform="translate(-612.345 -338.053)" fill="#e0e0e0"/></g><g transform="translate(29.053 128.74)"><path d="M604.638,338.51c0-.252,1.179-.457,2.634-.457s2.636.205,2.636.457-1.179.458-2.636.458S604.638,338.763,604.638,338.51Z" transform="translate(-604.638 -338.053)" fill="#e0e0e0"/></g><g transform="translate(18.511 128.74)"><path d="M596.93,338.51c0-.252,1.18-.457,2.636-.457s2.636.205,2.636.457-1.18.458-2.636.458S596.93,338.763,596.93,338.51Z" transform="translate(-596.93 -338.053)" fill="#e0e0e0"/></g><g transform="translate(7.97 128.74)"><path d="M589.223,338.51c0-.252,1.179-.457,2.634-.457s2.636.205,2.636.457-1.179.458-2.636.458S589.223,338.763,589.223,338.51Z" transform="translate(-589.223 -338.053)" fill="#e0e0e0"/></g><g transform="translate(0 126.167)"><path d="M583.854,336.172c.252,0,.457,1.18.457,2.636,0,.13,0,.256-.005.394l-.451-.451c1.269.033,2.24.223,2.24.451s-.971.42-2.24.453l-.447.012-.005-.465c0-.138,0-.264-.006-.394C583.4,337.352,583.6,336.172,583.854,336.172Z" transform="translate(-583.396 -336.172)" fill="#e0e0e0"/></g><g transform="translate(0 115.626)"><path d="M583.854,328.465c.252,0,.457,1.179.457,2.634s-.205,2.636-.457,2.636-.458-1.179-.458-2.636S583.6,328.465,583.854,328.465Z" transform="translate(-583.396 -328.465)" fill="#e0e0e0"/></g><g transform="translate(0 105.084)"><path d="M583.854,320.757c.252,0,.457,1.18.457,2.636s-.205,2.636-.457,2.636-.458-1.18-.458-2.636S583.6,320.757,583.854,320.757Z" transform="translate(-583.396 -320.757)" fill="#e0e0e0"/></g><g transform="translate(0 94.543)"><path d="M583.854,313.05c.252,0,.457,1.179.457,2.634s-.205,2.636-.457,2.636-.458-1.179-.458-2.636S583.6,313.05,583.854,313.05Z" transform="translate(-583.396 -313.05)" fill="#e0e0e0"/></g><g transform="translate(0 84.001)"><path d="M583.854,305.342c.252,0,.457,1.18.457,2.636s-.205,2.636-.457,2.636-.458-1.18-.458-2.636S583.6,305.342,583.854,305.342Z" transform="translate(-583.396 -305.342)" fill="#e0e0e0"/></g><g transform="translate(0 73.46)"><path d="M583.854,297.635c.252,0,.457,1.179.457,2.634s-.205,2.636-.457,2.636-.458-1.179-.458-2.636S583.6,297.635,583.854,297.635Z" transform="translate(-583.396 -297.635)" fill="#e0e0e0"/></g><g transform="translate(0 62.917)"><path d="M583.854,289.927c.252,0,.457,1.18.457,2.636s-.205,2.636-.457,2.636-.458-1.18-.458-2.636S583.6,289.927,583.854,289.927Z" transform="translate(-583.396 -289.927)" fill="#e0e0e0"/></g><g transform="translate(0 52.377)"><path d="M583.854,282.22c.252,0,.457,1.18.457,2.636s-.205,2.636-.457,2.636-.458-1.18-.458-2.636S583.6,282.22,583.854,282.22Z" transform="translate(-583.396 -282.22)" fill="#e0e0e0"/></g><g transform="translate(0 41.834)"><path d="M583.854,274.512c.252,0,.457,1.18.457,2.636s-.205,2.636-.457,2.636-.458-1.18-.458-2.636S583.6,274.512,583.854,274.512Z" transform="translate(-583.396 -274.512)" fill="#e0e0e0"/></g><g transform="translate(0 31.293)"><path d="M583.854,266.8c.252,0,.457,1.18.457,2.634s-.205,2.637-.457,2.637-.458-1.18-.458-2.637S583.6,266.8,583.854,266.8Z" transform="translate(-583.396 -266.805)" fill="#e0e0e0"/></g><g transform="translate(0 20.751)"><path d="M583.854,259.1c.252,0,.457,1.18.457,2.636s-.205,2.636-.457,2.636-.458-1.18-.458-2.636S583.6,259.1,583.854,259.1Z" transform="translate(-583.396 -259.097)" fill="#e0e0e0"/></g><g transform="translate(0 10.21)"><path d="M583.854,251.39c.252,0,.457,1.18.457,2.636s-.205,2.636-.457,2.636-.458-1.18-.458-2.636S583.6,251.39,583.854,251.39Z" transform="translate(-583.396 -251.39)" fill="#e0e0e0"/></g><g transform="translate(0 0.086)"><path d="M584.643,244.36c0,.127-.3.243-.789.326l.326-.326a11.544,11.544,0,0,1,.131,1.845c0,1.457-.205,2.636-.457,2.636s-.458-1.179-.458-2.636a11.536,11.536,0,0,1,.131-1.845l.063-.372.264.045C584.341,244.117,584.643,244.231,584.643,244.36Z" transform="translate(-583.396 -243.988)" fill="#e0e0e0"/></g><g transform="translate(6.517)"><path d="M593.432,244.383c0,.252-1.18.457-2.636.457s-2.636-.205-2.636-.457,1.18-.458,2.636-.458S593.432,244.13,593.432,244.383Z" transform="translate(-588.161 -243.925)" fill="#e0e0e0"/></g><g transform="translate(17.059)"><path d="M601.14,244.383c0,.252-1.18.457-2.636.457s-2.635-.205-2.635-.457,1.18-.458,2.635-.458S601.14,244.13,601.14,244.383Z" transform="translate(-595.869 -243.925)" fill="#e0e0e0"/></g><g transform="translate(27.6)"><path d="M608.847,244.383c0,.252-1.18.457-2.636.457s-2.636-.205-2.636-.457,1.18-.458,2.636-.458S608.847,244.13,608.847,244.383Z" transform="translate(-603.576 -243.925)" fill="#e0e0e0"/></g><g transform="translate(38.143)"><path d="M616.554,244.383c0,.252-1.179.457-2.634.457s-2.635-.205-2.635-.457,1.179-.458,2.635-.458S616.554,244.13,616.554,244.383Z" transform="translate(-611.284 -243.925)" fill="#e0e0e0"/></g><g transform="translate(48.684)"><path d="M624.262,244.383c0,.252-1.18.457-2.635.457s-2.636-.205-2.636-.457,1.18-.458,2.636-.458S624.262,244.13,624.262,244.383Z" transform="translate(-618.991 -243.925)" fill="#e0e0e0"/></g><g transform="translate(59.226 0)"><ellipse cx="2.635" cy="0.457" rx="2.635" ry="0.457" fill="#e0e0e0"/></g><g transform="translate(69.767)"><path d="M639.677,244.383c0,.252-1.18.457-2.636.457s-2.636-.205-2.636-.457,1.18-.458,2.636-.458S639.677,244.13,639.677,244.383Z" transform="translate(-634.406 -243.925)" fill="#e0e0e0"/></g><g transform="translate(80.309)"><path d="M647.384,244.383c0,.252-1.179.457-2.634.457s-2.636-.205-2.636-.457,1.179-.458,2.636-.458S647.384,244.13,647.384,244.383Z" transform="translate(-642.114 -243.925)" fill="#e0e0e0"/></g><g transform="translate(90.85)"><path d="M655.092,244.383c0,.252-1.18.457-2.636.457s-2.636-.205-2.636-.457,1.18-.458,2.636-.458S655.092,244.13,655.092,244.383Z" transform="translate(-649.821 -243.925)" fill="#e0e0e0"/></g><g transform="translate(101.393)"><path d="M662.8,244.383c0,.252-1.179.457-2.634.457s-2.635-.205-2.635-.457,1.179-.458,2.635-.458S662.8,244.13,662.8,244.383Z" transform="translate(-657.529 -243.925)" fill="#e0e0e0"/></g><g transform="translate(111.934)"><path d="M670.507,244.383c0,.252-1.18.457-2.636.457s-2.636-.205-2.636-.457,1.18-.458,2.636-.458S670.507,244.13,670.507,244.383Z" transform="translate(-665.236 -243.925)" fill="#e0e0e0"/></g><g transform="translate(122.476)"><path d="M678.214,244.383c0,.252-1.179.457-2.635.457s-2.634-.205-2.634-.457,1.179-.458,2.634-.458S678.214,244.13,678.214,244.383Z" transform="translate(-672.944 -243.925)" fill="#e0e0e0"/></g><g transform="translate(128.74 4.277)"><path d="M677.981,252.323c-.252,0-.457-1.18-.457-2.636s.205-2.636.457-2.636.458,1.18.458,2.636S678.234,252.323,677.981,252.323Z" transform="translate(-677.524 -247.052)" fill="#e0e0e0"/></g><g transform="translate(128.74 14.819)"><path d="M677.981,260.03c-.252,0-.457-1.179-.457-2.634s.205-2.636.457-2.636.458,1.179.458,2.636S678.234,260.03,677.981,260.03Z" transform="translate(-677.524 -254.76)" fill="#e0e0e0"/></g><g transform="translate(128.74 25.36)"><path d="M677.981,267.738c-.252,0-.457-1.18-.457-2.636s.205-2.636.457-2.636.458,1.18.458,2.636S678.234,267.738,677.981,267.738Z" transform="translate(-677.524 -262.467)" fill="#e0e0e0"/></g><g transform="translate(128.74 35.902)"><path d="M677.981,275.445c-.252,0-.457-1.179-.457-2.634s.205-2.636.457-2.636.458,1.179.458,2.636S678.234,275.445,677.981,275.445Z" transform="translate(-677.524 -270.175)" fill="#e0e0e0"/></g><g transform="translate(128.74 46.443)"><path d="M677.981,283.153c-.252,0-.457-1.18-.457-2.636s.205-2.636.457-2.636.458,1.18.458,2.636S678.234,283.153,677.981,283.153Z" transform="translate(-677.524 -277.882)" fill="#e0e0e0"/></g><g transform="translate(128.74 56.986)"><path d="M677.981,290.86c-.252,0-.457-1.179-.457-2.636s.205-2.634.457-2.634.458,1.179.458,2.634S678.234,290.86,677.981,290.86Z" transform="translate(-677.524 -285.59)" fill="#e0e0e0"/></g><g transform="translate(128.74 67.527)"><path d="M677.981,298.568c-.252,0-.457-1.18-.457-2.636s.205-2.636.457-2.636.458,1.18.458,2.636S678.234,298.568,677.981,298.568Z" transform="translate(-677.524 -293.297)" fill="#e0e0e0"/></g><g transform="translate(128.74 78.069)"><path d="M677.981,306.275c-.252,0-.457-1.179-.457-2.634s.205-2.636.457-2.636.458,1.179.458,2.636S678.234,306.275,677.981,306.275Z" transform="translate(-677.524 -301.005)" fill="#e0e0e0"/></g><g transform="translate(128.74 88.61)"><path d="M677.981,313.983c-.252,0-.457-1.18-.457-2.636s.205-2.636.457-2.636.458,1.18.458,2.636S678.234,313.983,677.981,313.983Z" transform="translate(-677.524 -308.712)" fill="#e0e0e0"/></g><g transform="translate(128.74 99.151)"><path d="M677.981,321.69c-.252,0-.457-1.18-.457-2.636s.205-2.636.457-2.636.458,1.18.458,2.636S678.234,321.69,677.981,321.69Z" transform="translate(-677.524 -316.419)" fill="#e0e0e0"/></g><g transform="translate(128.74 109.693)"><path d="M677.981,329.4c-.252,0-.457-1.18-.457-2.636s.205-2.636.457-2.636.458,1.179.458,2.636S678.234,329.4,677.981,329.4Z" transform="translate(-677.524 -324.127)" fill="#e0e0e0"/></g><g transform="translate(128.74 120.234)"><path d="M677.981,337.105c-.252,0-.457-1.18-.457-2.636s.205-2.636.457-2.636.458,1.18.458,2.636S678.234,337.105,677.981,337.105Z" transform="translate(-677.524 -331.834)" fill="#e0e0e0"/></g></g><rect width="9.535" height="9.535" transform="translate(128.739 128.363)" fill="#e0e0e0"/><rect width="9.535" height="9.534" transform="translate(0 129.668)" fill="#e0e0e0"/><rect width="9.535" height="9.535" transform="translate(128.739 0)" fill="#e0e0e0"/><rect width="9.535" height="9.535" transform="translate(0 0.928)" fill="#e0e0e0"/></g></g><g transform="translate(98.809 129.054)"><g transform="translate(0 0)"><path d="M348.728,350.617c-1.5-.328-13.754,57.218-12.156,79.6s12.156,100.173,12.156,100.173H474.576s15.738-75.663,12.93-98.575-17.752-83.177-17.752-83.177Z" transform="translate(-276.748 -18.757)" fill="#167377"/><g transform="translate(0 91.588)"><g transform="translate(0.693)"><path d="M352.751,323.089l-17.981-80.967-1.041-13.4s-4.117-30.054-4.146-32.992c-.032-3.393-1.676-4.195-2.926-4.1-1.949.152-3.3,2.568-3.366,5.482-.021,1.008.279,16.91.279,16.91a37.642,37.642,0,0,0-3.126-4.259c-2.386-2.952-7.927-4.592-13.593-4.348s-7.23.813-7.238,3.019a2.807,2.807,0,0,0,1.135,2.128,5.554,5.554,0,0,0,3.752,1.248c9.079-.266,11.577,4.559,11.577,4.559l.137,1.754s-5.564-3.881-9.939-2.169a5.315,5.315,0,0,0-1.742,1.1,7.1,7.1,0,0,0-6.04,10.664c.6,1.04,1.7,2,2.873,1.75a3.786,3.786,0,0,0,1.6-.994,5.769,5.769,0,0,1,.8-.607l1.07,4.859s2.985,10.787,3.753,15.629l4.809,80.248a19.933,19.933,0,0,0,21.441,18.681h0A19.934,19.934,0,0,0,352.751,323.089Z" transform="translate(-297.561 -191.621)" fill="#ffbe9d"/></g><g transform="translate(17.741 28.494)"><g transform="translate(0.481 0.461)"><path d="M326.166,231.18c-1.662.475-3.384-.727-4.3-2.193s-1.308-3.2-2.117-4.726c-2.416-4.568-8.16-6.7-10.355-11.376-.307-.653-.48-1.553.093-1.991.531-.405,1.289-.1,1.876.22l15.066,8.125" transform="translate(-309.111 -210.7)" fill="#ffbe9d"/></g><path d="M326.593,219.4a6.826,6.826,0,0,0-1.539-1.046c-1.021-.618-2.515-1.483-4.369-2.533-1.936-1.081-4.137-2.307-6.54-3.645l-1.9-1.043a3.391,3.391,0,0,0-2.475-.674,1.446,1.446,0,0,0-.973,1.295,2.971,2.971,0,0,0,.264,1.376,11.219,11.219,0,0,0,1.316,2.154c2.1,2.671,4.8,4.334,6.752,6.28a12.884,12.884,0,0,1,2.405,3.016c.58,1.055.949,2.166,1.395,3.154a6.023,6.023,0,0,0,3.516,3.7,2.167,2.167,0,0,0,1.882-.09,4.985,4.985,0,0,1-1.754-.269,5.838,5.838,0,0,1-3.008-3.607c-.392-.968-.719-2.1-1.316-3.266a13.278,13.278,0,0,0-2.487-3.275c-2.009-2.053-4.676-3.756-6.611-6.234a10.413,10.413,0,0,1-1.2-1.941c-.291-.648-.261-1.31.115-1.38.4-.14,1.091.232,1.733.586s1.287.683,1.912,1.012l6.638,3.462c1.9.973,3.44,1.745,4.516,2.26A6.884,6.884,0,0,0,326.593,219.4Z" transform="translate(-308.794 -210.396)" fill="#eb996e"/></g><g transform="translate(2.602 15.792)"><path d="M315.776,212.814a7.077,7.077,0,0,0-1.076-3.049,5.444,5.444,0,0,0-2.788-1.974,13.93,13.93,0,0,0-4.3-.574,22.229,22.229,0,0,1-4.494-.343,7.177,7.177,0,0,1-3.359-1.63,2.8,2.8,0,0,1-.921-2.34,1.673,1.673,0,0,1,.29-.877c.059.017-.041.331-.046.889a2.642,2.642,0,0,0,.98,2,7.089,7.089,0,0,0,3.175,1.39,24.588,24.588,0,0,0,4.384.281,13.58,13.58,0,0,1,4.485.656,5.713,5.713,0,0,1,2.962,2.273,5.061,5.061,0,0,1,.794,2.384A1.742,1.742,0,0,1,315.776,212.814Z" transform="translate(-298.818 -202.027)" fill="#eb996e"/></g><g transform="translate(25.913 4.366)"><path d="M314.73,194.5a17.805,17.805,0,0,1,.081,3.161c0,2.169,0,4.753,0,7.611.043,2.858.082,5.442.115,7.611a17.612,17.612,0,0,1-.033,3.161,14.229,14.229,0,0,1-.413-3.14c-.155-1.949-.276-4.645-.3-7.628s.058-5.679.184-7.631A14.234,14.234,0,0,1,314.73,194.5Z" transform="translate(-314.178 -194.498)" fill="#eb996e"/></g><g transform="translate(5.402 26.199)"><path d="M311.271,212.887a3.845,3.845,0,0,1-.927-.348,2.931,2.931,0,0,0-2.443-.091,1.574,1.574,0,0,0-.809,1.331,8.364,8.364,0,0,0,.171,2.053,3.542,3.542,0,0,1-.35,2.492,3.014,3.014,0,0,1-2.407,1.285,3.431,3.431,0,0,1-2.5-1.05,4.3,4.3,0,0,1-1.2-2.2,13.861,13.861,0,0,1,.02-4.069,8.18,8.18,0,0,1,.779-2.626c.32-.577.621-.8.639-.782.042.038-.181.311-.417.885a9.725,9.725,0,0,0-.559,2.575,14.947,14.947,0,0,0,.108,3.9,3.393,3.393,0,0,0,3.108,2.732,2.428,2.428,0,0,0,1.915-.994,3.028,3.028,0,0,0,.29-2.081,8.291,8.291,0,0,1-.114-2.2,2.034,2.034,0,0,1,1.126-1.659,3.073,3.073,0,0,1,2.748.266C311.015,212.633,311.289,212.854,311.271,212.887Z" transform="translate(-300.663 -208.884)" fill="#eb996e"/></g><g transform="translate(0 25.579)"><path d="M304.1,218.286c.029-.006.12.331-.079.9a2.752,2.752,0,0,1-1.827,1.653A3.668,3.668,0,0,1,298.7,219.8a6,6,0,0,1-1.6-4.166,7.269,7.269,0,0,1,1.313-4.26,6.946,6.946,0,0,1,2.812-2.307,6.572,6.572,0,0,1,2.367-.586,1.878,1.878,0,0,1,.888.077,11.459,11.459,0,0,0-3.061.911,6.851,6.851,0,0,0-2.528,2.234,6.934,6.934,0,0,0-1.161,3.922,5.585,5.585,0,0,0,1.384,3.768,3.255,3.255,0,0,0,2.97,1.012,2.606,2.606,0,0,0,1.712-1.319C304.047,218.606,304.049,218.282,304.1,218.286Z" transform="translate(-297.104 -208.475)" fill="#eb996e"/></g><g transform="translate(18.063 39.233)"><path d="M309.006,224.137a2.589,2.589,0,0,1,1.519,0,5.97,5.97,0,0,1,3.331,1.967l-.533.162a17.661,17.661,0,0,1,.329-2.123c.877-4.1,3.1-6.793,3.2-6.672.168.1-1.75,2.855-2.589,6.805-.155.712-.267,1.407-.343,2.05l-.085.713-.448-.551a6.247,6.247,0,0,0-2.961-1.985C309.564,224.237,309,224.221,309.006,224.137Z" transform="translate(-309.006 -217.472)" fill="#eb996e"/></g><g transform="translate(13.033 18.832)"><path d="M310.128,204.039c.15.071-.451,1.219-1.842,1.832s-2.639.307-2.594.147c.017-.184,1.135-.171,2.337-.722C309.242,204.769,309.981,203.929,310.128,204.039Z" transform="translate(-305.691 -204.029)" fill="#eb996e"/></g></g><path d="M462.5,232.942c6.585,0,22.418,18.7,25.179,47.136,1.264,13.015,7.787,66.339,10.942,91.97a25.578,25.578,0,0,1-10.411,23.824c-17.041,12.375-51.147,31.84-96.515,31.3L364.2,404.113l89.231-37.605.049-2.034,3.891-4.261-11.136-68.286S435.831,232.943,462.5,232.942Z" transform="translate(-262.373 -78.644)" fill="url(#e)"/><g transform="translate(88.534 8.374)"><g transform="translate(56.17 25.802)"><path d="M424.647,153.791c.337,9.236,12.648,14.833,12.49,24.073-.068,3.966-2.528,7.526-3.011,11.463-.648,5.292,2.308,10.288,3.4,15.506,2.251,10.751-4,22.092-13.276,27.978s-20.916,7.008-31.8,5.52" transform="translate(-392.452 -153.791)" fill="#263238"/></g><g transform="translate(0 23.537)"><path d="M369.458,152.3c.366,4.958-2.908,9.387-6.207,13.106s-6.97,7.6-7.682,12.514c-1.264,8.72,7.272,16.815,5.512,25.448-.944,4.627-4.732,8.344-5.407,13.017-.653,4.52,1.77,8.945,4.773,12.385s6.48,2.938,9.136,6.653A37.354,37.354,0,0,0,381.1,245.664c9.567,5.239,21.05-2.34,25.665-3.7" transform="translate(-355.44 -152.299)" fill="#263238"/></g><g transform="translate(13.859)"><path d="M440.931,167.909c.129-4.5-4.029-7.971-8.215-9.617s-8.839-2.269-12.569-4.779c-3.3-2.225-5.524-5.693-8.321-8.528a27.688,27.688,0,0,0-46.567,12.7c-1.607,6.4-.51,13.974,4.538,18.23,5.858,4.938,14.543,3.843,22.05,2.305s16-3.051,22.27,1.357c3.78,2.659,5.946,6.983,8.256,10.985s5.212,8.089,9.581,9.593,10.3-1.094,10.472-5.711" transform="translate(-364.573 -136.79)" fill="#263238"/></g><g transform="translate(9.524 21.777)"><path d="M382.641,265.217c-.061-10.317-.121-20.371-.126-20.318,0,0-16.389-2.758-19.738-24.158-1.666-10.642-1.093-28.082-.164-42.339.838-12.832,9.375-28.559,22.159-27.178L424.68,161.4a7.524,7.524,0,0,1,6.714,7.647h0l-3.653,96.883a22.558,22.558,0,0,1-22.989,21.7h0A22.559,22.559,0,0,1,382.641,265.217Z" transform="translate(-361.716 -151.139)" fill="#ffbe9d"/><g transform="translate(4.618 33.473)"><g transform="translate(3.071 3.542)"><path d="M366.784,178a2.744,2.744,0,0,0,2.639,2.774,2.624,2.624,0,0,0,2.833-2.468,2.743,2.743,0,0,0-2.636-2.774A2.626,2.626,0,0,0,366.784,178Z" transform="translate(-366.782 -175.529)" fill="#263238"/></g><path d="M364.8,176.066c.34.36,2.422-1.175,5.374-1.159,2.949-.029,5.113,1.495,5.433,1.134.158-.159-.187-.806-1.129-1.495a7.533,7.533,0,0,0-4.348-1.351,7.232,7.232,0,0,0-4.278,1.37C364.944,175.26,364.635,175.907,364.8,176.066Z" transform="translate(-364.758 -173.195)" fill="#263238"/></g><g transform="translate(33.636 34.088)"><g transform="translate(2.716 3.668)"><path d="M385.671,178.489a2.744,2.744,0,0,0,2.639,2.774,2.625,2.625,0,0,0,2.833-2.468,2.744,2.744,0,0,0-2.638-2.774A2.623,2.623,0,0,0,385.671,178.489Z" transform="translate(-385.669 -176.017)" fill="#263238"/></g><path d="M383.921,176.473c.34.358,2.425-1.175,5.376-1.161,2.949-.029,5.111,1.495,5.433,1.135.156-.161-.184-.806-1.131-1.495a7.515,7.515,0,0,0-4.348-1.352,7.24,7.24,0,0,0-4.278,1.37C384.067,175.666,383.756,176.312,383.921,176.473Z" transform="translate(-383.879 -173.6)" fill="#263238"/></g><g transform="translate(15.4 34.235)"><path d="M379.38,198.292c.014-.167-1.82-.489-4.793-.876-.754-.079-1.468-.231-1.593-.745a3.844,3.844,0,0,1,.508-2.234q1.07-2.734,2.243-5.735c3.113-8.165,5.369-14.88,5.039-15s-3.122,6.4-6.234,14.563c-.75,2.014-1.468,3.932-2.149,5.77a4.364,4.364,0,0,0-.4,2.958,1.9,1.9,0,0,0,1.237,1.1,5.162,5.162,0,0,0,1.281.181C377.512,198.442,379.368,198.46,379.38,198.292Z" transform="translate(-371.863 -173.697)" fill="#263238"/></g><g transform="translate(20.799 86.182)"><path d="M375.421,215.5a54.418,54.418,0,0,0,28.667-7.578c-.241.05-7.889,14.87-28.389,12.63Z" transform="translate(-375.421 -207.926)" fill="#eb996e"/></g><g transform="translate(23.853 63.95)"><path d="M377.729,195.274a5.325,5.325,0,0,1,4.773-1.965,4.862,4.862,0,0,1,3.351,1.807,3.078,3.078,0,0,1,.226,3.518,3.571,3.571,0,0,1-3.873.971,11.175,11.175,0,0,1-3.768-2.261,3.265,3.265,0,0,1-.841-.874.987.987,0,0,1,.006-1.1" transform="translate(-377.433 -193.277)" fill="#e8505b"/></g><g transform="translate(22.173 60.89)"><path d="M385.754,191.261c-.481-.029-.493,3.176-3.242,5.444s-6.159,1.909-6.184,2.357c-.045.2.76.624,2.2.666a7.983,7.983,0,0,0,5.163-1.785,6.954,6.954,0,0,0,2.512-4.565C386.329,192.038,385.972,191.243,385.754,191.261Z" transform="translate(-376.326 -191.261)" fill="#263238"/></g><g transform="translate(32.347 29.587)"><path d="M383.045,172.836c.29.8,3.239.429,6.7.854,3.471.355,6.262,1.376,6.723.657.206-.344-.279-1.1-1.407-1.88a11.745,11.745,0,0,0-10.227-1.152C383.563,171.825,382.921,172.455,383.045,172.836Z" transform="translate(-383.03 -170.635)" fill="#263238"/></g><g transform="translate(5.691 24.757)"><path d="M365.541,170.5c.517.672,2.553-.02,5-.047,2.443-.112,4.515.46,4.993-.24.21-.34-.115-1.012-1.018-1.648a7.238,7.238,0,0,0-8.051.231C365.6,169.481,365.313,170.17,365.541,170.5Z" transform="translate(-365.466 -167.452)" fill="#263238"/></g></g><g transform="translate(27.636 17.215)"><path d="M427.556,234.526c-5.884,1.185-6.408-1.808-10.8-5.895a19.317,19.317,0,0,1-5.911-16.3c.665-5.254,3.5-10.6,1.676-15.571-2.409-6.576-11.624-8.6-14.07-15.158-1.42-3.814-.146-8.274-1.756-12.011-1.515-3.513-5.212-5.538-8.811-6.838s-7.456-2.2-10.478-4.548-4.9-6.781-2.956-10.074a202.774,202.774,0,0,1,46.745,11.358c3.491,1.3,7.159,2.871,9.223,5.973,2.184,3.284,2.079,7.526,1.9,11.466q-1.345,28.811-2.689,57.623" transform="translate(-373.65 -148.133)" fill="#263238"/></g><g transform="translate(90.09 45.141)"><path d="M419.71,181.361a16.415,16.415,0,0,1,31.069-5.684c2.974,6.042,1.946,13.393-.83,19.529-3.3,7.291-10.056,13.952-18.049,13.589-7.52-.341-13.575-6.946-15.742-14.156s-1.293-14.938-.4-22.412" transform="translate(-414.803 -166.534)" fill="#263238"/></g><g transform="translate(98.211 48.793)"><path d="M421.129,209.414a3.772,3.772,0,0,0,1.122-1.241,10.518,10.518,0,0,0,1.6-4.281,20.5,20.5,0,0,0-.193-6.758c-.436-2.518-1.284-5.154-1.9-7.955a19.876,19.876,0,0,1-.467-7.914c.439-2.383,1.559-4.406,2.052-6.288a8.126,8.126,0,0,0,.128-4.574c-.337-1.056-.8-1.49-.832-1.46-.071.043.27.539.478,1.55a8.466,8.466,0,0,1-.41,4.292c-.542,1.774-1.732,3.746-2.266,6.316a19.86,19.86,0,0,0,.4,8.282c.631,2.856,1.5,5.483,1.967,7.91a21.276,21.276,0,0,1,.387,6.509C422.787,207.555,420.945,209.318,421.129,209.414Z" transform="translate(-420.153 -168.94)" fill="#455a64"/></g><g transform="translate(99.493 63.57)"><path d="M421,178.685c-.076.055.941,1.543,3.28,3.211a18.768,18.768,0,0,0,21.144.37c2.4-1.586,3.463-3.037,3.39-3.094-.114-.12-1.337,1.143-3.738,2.527a19.545,19.545,0,0,1-20.429-.358C422.3,179.873,421.119,178.568,421,178.685Z" transform="translate(-420.998 -178.677)" fill="#455a64"/></g><g transform="translate(100.548 66.926)"><path d="M421.7,180.892a9.768,9.768,0,0,0,1.812,3.36,23.409,23.409,0,0,0,15.5,9.321,9.788,9.788,0,0,0,3.817.026,35.415,35.415,0,0,0-3.7-.681,26.621,26.621,0,0,1-15.088-9.074A36.2,36.2,0,0,0,421.7,180.892Z" transform="translate(-421.693 -180.889)" fill="#455a64"/></g><g transform="translate(27.955 9.993)"><path d="M441.079,229.809c.012.011.091-.079.234-.266a7.644,7.644,0,0,0,.59-.856,11.34,11.34,0,0,0,1.408-3.741,13.146,13.146,0,0,0-.343-6.316,12.085,12.085,0,0,0-4.978-6.7c-2.539-1.789-5.843-3.035-7.943-5.882a6.425,6.425,0,0,1-1.161-5.023,28.559,28.559,0,0,1,1.861-5.552,15.965,15.965,0,0,0-.275-12.772,14,14,0,0,0-4.342-5.392,16.937,16.937,0,0,0-6.561-2.72c-2.317-.528-4.627-.835-6.773-1.483a13.2,13.2,0,0,1-5.671-3.1,9.419,9.419,0,0,1-2.46-5.612,47.989,47.989,0,0,0-1.008-6.219,21.444,21.444,0,0,0-5.773-10.121,16.914,16.914,0,0,0-9.088-4.509,13.514,13.514,0,0,0-8.27,1.252,13.079,13.079,0,0,0-4.783,4.142,11.077,11.077,0,0,0-1.674,3.63,5.706,5.706,0,0,0-.208,1.377,13.6,13.6,0,0,1,2.179-4.793,12.887,12.887,0,0,1,12.651-4.951,16.311,16.311,0,0,1,8.652,4.413,20.761,20.761,0,0,1,5.476,9.777,48.172,48.172,0,0,1,.958,6.134,10.309,10.309,0,0,0,2.691,6.127,14.056,14.056,0,0,0,6.06,3.351c2.248.68,4.567.985,6.834,1.5a16.091,16.091,0,0,1,6.216,2.557,13.092,13.092,0,0,1,4.058,5.028,15.1,15.1,0,0,1,.3,12.076,28.909,28.909,0,0,0-1.868,5.734,7.234,7.234,0,0,0,1.349,5.606c2.334,3.069,5.735,4.263,8.2,5.973a11.564,11.564,0,0,1,4.85,6.3,13.035,13.035,0,0,1,.486,6.1A14.341,14.341,0,0,1,441.079,229.809Z" transform="translate(-373.861 -143.374)" fill="#455a64"/></g><g transform="translate(25.802 2.892)"><path d="M440.38,172.506a2.355,2.355,0,0,0,.264-.986,4.607,4.607,0,0,0-.71-2.841,7.268,7.268,0,0,0-3.577-2.959,11.262,11.262,0,0,0-6.143-.2c-2.243.425-4.567,1.32-7.112,1.814-2.5.481-5.482.551-7.737-1.217-2.275-1.729-3.415-4.723-4.582-7.7a31.94,31.94,0,0,0-4.943-8.81,29.6,29.6,0,0,0-16.188-10.472,16.971,16.971,0,0,0-8.547.225,13.3,13.3,0,0,0-6.26,4.046,9.88,9.88,0,0,0-2.367,5.668,9.724,9.724,0,0,0,.707,4.586,7.39,7.39,0,0,0,1.61,2.443,3.034,3.034,0,0,0,.789.642,10.373,10.373,0,0,1-2.059-3.222,9.581,9.581,0,0,1-.524-4.4,9.39,9.39,0,0,1,2.351-5.287,12.711,12.711,0,0,1,5.978-3.732,16.305,16.305,0,0,1,8.138-.124,29.036,29.036,0,0,1,15.639,10.211,31.326,31.326,0,0,1,4.82,8.563c1.184,2.952,2.355,6.115,4.917,8.051a8.111,8.111,0,0,0,4.222,1.586,14.449,14.449,0,0,0,4.187-.294c2.639-.549,4.926-1.477,7.1-1.927a10.879,10.879,0,0,1,5.825.046,7,7,0,0,1,3.451,2.66,4.646,4.646,0,0,1,.83,2.636C440.456,172.159,440.324,172.492,440.38,172.506Z" transform="translate(-372.442 -138.695)" fill="#455a64"/></g></g><path d="M496.125,236.437,458.2,226.78H412.978s-23.441,1.348-36.493,12.87c-.355.314-4.41,3.994-7.112,11.634l-20.1,46.006L338.957,239.6l-36.091,5.127L308.691,344a48.742,48.742,0,0,0,38.428,42.825l20.534-23.088c2.369,18.831,4.471,34.985,4.683,34.772.505-.505,112.419-7.292,112.419-7.292l-11.329-38.3Z" transform="translate(-294.121 -81.834)" fill="url(#e)"/><g transform="translate(6.84)"><path d="M353.359,157.418a25.875,25.875,0,1,0-37.143,23.024c-.032,3.066-.068,6.527-.068,6.527l22.677.237s.176-3.662.261-6.933A25.864,25.864,0,0,0,353.359,157.418Z" transform="translate(-301.611 -131.272)" fill="#ffd947"/><g transform="translate(11.926 25.927)"><path d="M326.559,178.168s0-.108.029-.319l.115-.932c.108-.818.267-2.026.511-3.576s.571-3.444,1.088-5.614a38.361,38.361,0,0,1,2.422-7.175,24.72,24.72,0,0,1,2.169-3.85,4.764,4.764,0,0,1,1.785-1.569,2.673,2.673,0,0,1,2.457.1,1.765,1.765,0,0,1,.807,1.033,1.805,1.805,0,0,1-.121,1.326,3.678,3.678,0,0,1-2.017,1.7,7.079,7.079,0,0,1-5.374-.437,7.174,7.174,0,0,1-3.609-4.356,5.417,5.417,0,0,1-.121-2.987,2.325,2.325,0,0,1,2.369-1.773,1.673,1.673,0,0,1,1.308.926,2.349,2.349,0,0,1,.191,1.6,5.06,5.06,0,0,1-1.845,2.551,7.721,7.721,0,0,1-6.049,1.688,6.724,6.724,0,0,1-4.964-3.782,3.9,3.9,0,0,1-.143-3.135,1.979,1.979,0,0,1,1.147-1.134,1.942,1.942,0,0,1,1.59.164,2.564,2.564,0,0,1,1.081,1.147,4.036,4.036,0,0,1,.379,1.493,7.45,7.45,0,0,1-.425,2.953,7.7,7.7,0,0,1-3.692,4.3,7.835,7.835,0,0,1-5.362.68,4.1,4.1,0,0,1-2.316-1.26,2,2,0,0,1-.117-2.493,1.687,1.687,0,0,1,1.169-.555,2.439,2.439,0,0,1,1.231.252,3.744,3.744,0,0,1,1.566,1.792c.636,1.41,1.143,2.779,1.659,4.087,2.014,5.236,3.437,9.549,4.389,12.536.475,1.495.827,2.66,1.062,3.451q.166.58.259.9c.056.2.077.311.077.311s-.041-.1-.109-.3-.165-.51-.29-.892c-.259-.8-.636-1.952-1.117-3.433-.988-2.975-2.443-7.273-4.483-12.493-.517-1.3-1.04-2.682-1.668-4.06a3.516,3.516,0,0,0-1.458-1.671,1.55,1.55,0,0,0-1.959,2.4,3.836,3.836,0,0,0,2.169,1.16,7.573,7.573,0,0,0,5.163-.668,7.408,7.408,0,0,0,3.542-4.142,7.167,7.167,0,0,0,.4-2.829,2.812,2.812,0,0,0-1.3-2.392,1.625,1.625,0,0,0-1.339-.141,1.665,1.665,0,0,0-.962.962A3.6,3.6,0,0,0,318,152.6a6.411,6.411,0,0,0,4.729,3.6,7.405,7.405,0,0,0,5.8-1.618,4.774,4.774,0,0,0,1.739-2.377,2.03,2.03,0,0,0-.162-1.383,1.355,1.355,0,0,0-1.064-.762,1.816,1.816,0,0,0-1.292.4,2.237,2.237,0,0,0-.75,1.15,5.124,5.124,0,0,0,.118,2.811,6.825,6.825,0,0,0,8.593,4.618,3.417,3.417,0,0,0,1.87-1.557,1.526,1.526,0,0,0-.578-2.017,2.412,2.412,0,0,0-2.213-.1,4.531,4.531,0,0,0-1.694,1.486,24.5,24.5,0,0,0-2.161,3.8,38.584,38.584,0,0,0-2.455,7.124c-.531,2.16-.873,4.048-1.138,5.591-.246,1.537-.437,2.736-.569,3.565-.064.4-.112.706-.147.927S326.559,178.168,326.559,178.168Z" transform="translate(-309.469 -148.356)" fill="#263238"/></g><path d="M332.087,171.948l-19.47-.2a1.46,1.46,0,0,1-1.446-1.477h0a1.462,1.462,0,0,1,1.477-1.446l19.471.2a1.462,1.462,0,0,1,1.445,1.477h0A1.46,1.46,0,0,1,332.087,171.948Z" transform="translate(-296.662 -111.835)" fill="#263238"/><path d="M332.09,171.792l-19.471-.2a1.462,1.462,0,0,0-.03,2.923l2.137.021,2.779,5.427a1.88,1.88,0,0,0,1.651,1.021l6.958.073a1.878,1.878,0,0,0,1.682-1l2.811-5.35,1.454.015a1.462,1.462,0,1,0,.03-2.923Z" transform="translate(-296.677 -110.403)" fill="#263238"/><g transform="translate(2.897 4.674)" opacity="0.2"><path d="M310.047,138.893a19.075,19.075,0,0,1,5.218-3.39,13.755,13.755,0,0,1,4-1.117c.98-.091,1.537.009,1.583.216.106.472-1.862,1.147-4.522,2.885a21.276,21.276,0,0,0-9.918,20.793c.325,3.161,1.038,5.116.606,5.328-.19.1-.618-.273-1.164-1.093A13.756,13.756,0,0,1,304.2,158.7a18.986,18.986,0,0,1-.65-6.189,20.12,20.12,0,0,1,1.889-7.461" transform="translate(-303.52 -134.352)" fill="#fff"/></g><g transform="translate(23.183 2.925)" opacity="0.2"><path d="M320.138,136.378c-1.641-.032-3.082-.495-3.242-1.366-.067-.431.241-.886.838-1.238a5.19,5.19,0,0,1,4.888.076c.584.37.879.836.8,1.264" transform="translate(-316.887 -133.2)" fill="#fff"/></g><g transform="translate(21.521 68.91)"><path d="M325.021,177.874c-.024.047-.511-.182-1.334-.426a10.837,10.837,0,0,0-6.579.121c-.812.276-1.292.522-1.316.475a3.963,3.963,0,0,1,1.238-.686,9.488,9.488,0,0,1,6.726-.124A3.973,3.973,0,0,1,325.021,177.874Z" transform="translate(-315.792 -176.678)" fill="#455a64"/></g><g transform="translate(18.246 64.103)"><path d="M329.357,173.771c0,.088-3.521.123-7.863.077s-7.861-.153-7.86-.241,3.521-.121,7.863-.076S329.358,173.684,329.357,173.771Z" transform="translate(-313.634 -173.511)" fill="#455a64"/></g><g transform="translate(19.596 66.609)"><path d="M327.653,175.213a11.081,11.081,0,0,1-1.918.175c-1.188.062-2.831.114-4.646.12s-3.459-.032-4.647-.085a10.888,10.888,0,0,1-1.92-.162,12.274,12.274,0,0,1,1.924-.062c1.284,0,2.877-.006,4.641-.008l4.641-.027A12.048,12.048,0,0,1,327.653,175.213Z" transform="translate(-314.523 -175.162)" fill="#455a64"/></g></g><g transform="translate(73.832 199.197)"><path d="M349.678,305.717a6.086,6.086,0,0,1-1.138-1.4,15.625,15.625,0,0,1-2.024-4.5c-1.2-4.032-1.052-10.039.959-16.085,2.034-6.026,4.694-11.094,6.174-14.933.768-1.909,1.326-3.478,1.679-4.576a8.711,8.711,0,0,1,.605-1.691,7.219,7.219,0,0,1-.31,1.776,43.6,43.6,0,0,1-1.452,4.691c-1.36,3.922-3.946,9.047-5.945,14.979-1.97,5.931-2.2,11.751-1.169,15.7A23.279,23.279,0,0,0,349.678,305.717Z" transform="translate(-345.753 -262.527)" fill="#263238"/></g><g transform="translate(182.555 203.201)"><path d="M417.4,265.165a3.25,3.25,0,0,1,.214.782l.46,2.267c.386,2.088.906,4.917,1.542,8.362,1.261,7.069,2.94,16.846,4.7,27.659s3.26,20.626,4.236,27.742c.492,3.557.841,6.444,1.056,8.441.082.927.149,1.689.2,2.305a3.217,3.217,0,0,1,.018.809,3.055,3.055,0,0,1-.176-.791c-.094-.61-.21-1.366-.351-2.284-.326-2.1-.766-4.94-1.3-8.4-1.159-7.191-2.729-16.931-4.463-27.7s-3.31-20.5-4.472-27.692c-.533-3.463-.97-6.306-1.293-8.4-.126-.923-.229-1.68-.314-2.292A3.073,3.073,0,0,1,417.4,265.165Z" transform="translate(-417.393 -265.165)" fill="#263238"/></g><g transform="translate(54.121 215.055)"><path d="M332.8,301.79a26.994,26.994,0,0,1,.26-4.228c.222-2.6.478-6.192.584-10.165s.035-7.578-.05-10.185a26.913,26.913,0,0,1-.038-4.236,19.465,19.465,0,0,1,.6,4.2,95.162,95.162,0,0,1-.537,20.446A19.487,19.487,0,0,1,332.8,301.79Z" transform="translate(-332.765 -272.976)" fill="#263238"/></g><g transform="translate(194.757 281.274)"><path d="M439.055,326.976c-.126.026-.351-1-1.071-2.48a13.007,13.007,0,0,0-9.866-7.3c-1.628-.256-2.673-.173-2.685-.3a5.518,5.518,0,0,1,2.75-.253,12.077,12.077,0,0,1,10.312,7.632A5.525,5.525,0,0,1,439.055,326.976Z" transform="translate(-425.433 -316.609)" fill="#263238"/></g><g transform="translate(190.865 287.614)"><path d="M432.048,329.294c-.22.1-1.357-2.586-3.941-4.937-2.551-2.39-5.322-3.308-5.236-3.536.012-.2,3.058.423,5.772,2.955C431.382,326.278,432.243,329.265,432.048,329.294Z" transform="translate(-422.869 -320.787)" fill="#263238"/></g><g transform="translate(172.093 287.719)"><path d="M410.5,329.28c-.077-.212,4.231-1.97,9.47-4.292s9.444-4.321,9.547-4.119c.1.185-3.955,2.515-9.227,4.841S410.572,329.478,410.5,329.28Z" transform="translate(-410.499 -320.856)" fill="#263238"/></g><g transform="translate(24.512 232.16)"><path d="M313.255,284.247s21.784,103.794,21.784,102.436c0-1.238,109.975,4.717,129.659,5.582l4.095-1,31.045-28.58-35.713-2.879-12.772-73.03Z" transform="translate(-313.255 -284.247)" fill="#e0e0e0"/><g transform="translate(138.088 2.531)"><path d="M404.253,285.915c.215-.036,4.293,23.328,9.109,52.176s8.547,52.276,8.332,52.313-4.293-23.323-9.11-52.182S404.037,285.95,404.253,285.915Z" transform="translate(-404.244 -285.915)" fill="#455a64"/></g><g transform="translate(134.379 2.582)"><path d="M405.919,285.949a4.372,4.372,0,0,1-.788.777,20.807,20.807,0,0,0-2.269,2.158c-.381.508-.9,1.2-.625,1.929.214.835.326,1.718.511,2.68.341,1.933.725,4.117,1.149,6.523,1.657,9.752,3.925,23.08,6.427,37.8,2.416,14.745,4.6,28.087,6.2,37.85.745,4.784,1.352,8.684,1.789,11.484.185,1.3.334,2.337.448,3.129a5.778,5.778,0,0,1,.1,1.1,5.906,5.906,0,0,1-.26-1.075l-.593-3.1-2.037-11.443c-1.659-9.754-3.925-23.082-6.43-37.812-2.415-14.739-4.6-28.079-6.2-37.842l-1.033-6.543c-.162-.953-.261-1.879-.443-2.665a2.44,2.44,0,0,1,.757-2.214,17.05,17.05,0,0,1,2.4-2.084A8.532,8.532,0,0,1,405.919,285.949Z" transform="translate(-401.8 -285.948)" fill="#455a64"/></g><g transform="translate(1.162 4.018)"><path d="M447.335,289.246a8.8,8.8,0,0,1-1.355.049l-3.885-.018-14.287-.2-47.129-.832-47.135-.788-14.284-.214-3.885-.085a8.786,8.786,0,0,1-1.354-.083,8.629,8.629,0,0,1,1.355-.076l3.884-.064c3.374-.045,8.256-.047,14.289-.036,12.065.036,28.733.226,47.145.557s35.066.722,47.126,1.062l14.282.449,3.881.167A8.8,8.8,0,0,1,447.335,289.246Z" transform="translate(-314.021 -286.894)" fill="#455a64"/></g><g transform="translate(150.78 78.472)"><path d="M412.607,336a11.048,11.048,0,0,1,2.113-.02l5.772.231c4.882.228,11.657.595,19.224,1.052l.979.059-.747.636c-.445.376-.918.78-1.4,1.187-6.1,5.18-11.648,9.834-15.689,13.173l-4.814,3.923a12.407,12.407,0,0,1-1.835,1.355,12.76,12.76,0,0,1,1.636-1.59l4.652-4.114c3.949-3.448,9.441-8.169,15.539-13.349l1.4-1.185.231.694c-7.565-.47-14.334-.93-19.209-1.3l-5.756-.475A11.387,11.387,0,0,1,412.607,336Z" transform="translate(-412.607 -335.954)" fill="#455a64"/></g><path d="M350.04,361.352h0l-1.408-16.9s5.633-.806,6.036,5.432V339.421s6.439-1.408,7.848,7.043a59.655,59.655,0,0,0,3.422,13.017l3.418,1.871-3.219-19.517s6.841.6,8.048,7.042a63.211,63.211,0,0,0,3.041,10.962l10.809,3.022s-6.2-5.532-5.6-7.342.2-1.7,1.408-1.956,3.917.533,5.767,1.518c1.965,1.047,13.348,7.781,13.348,7.781v8.345s-26.5,1.918-32.48.8l-11.59-2.683A12.279,12.279,0,0,1,350.04,361.352Z" transform="translate(-294.943 -255.732)" fill="#ffbe9d"/><path d="M371.208,319.63c.738,4.444-1.894,8.582-5.879,9.244s-7.813-2.4-8.55-6.849,1.894-8.582,5.879-9.244S370.47,315.186,371.208,319.63Z" transform="translate(-290.79 -269.523)" fill="#fafafa"/></g><g transform="translate(194.514 280.083)" opacity="0.4"><path d="M425.648,316.871a19.655,19.655,0,0,1,13.8.414,14.148,14.148,0,0,1,8.385,10.6,6.735,6.735,0,0,1-.231,3.223,3.592,3.592,0,0,1-2.205,2.249c-1.682.513-3.48-.636-4.432-2.114a26.851,26.851,0,0,1-1.961-4.884,15.4,15.4,0,0,0-13.733-9.526l.718.194" transform="translate(-425.273 -315.824)"/></g><path d="M373.159,237.926c.9-2.853.091-5.923-.411-8.874s-.569-6.324,1.439-8.544c2-2.205,5.3-2.483,8.274-2.612l36.737-1.6c2.506-.108,5.409-.047,6.978,1.909a5.387,5.387,0,0,1,1.291,4.513c-1.888,7-1.3,12.888,1.448,17.816" transform="translate(-258.102 -87.275)" fill="url(#e)"/><g transform="translate(116.246 147.139)"><path d="M422.284,228.231a10.722,10.722,0,0,1-1.607,1.352,42.857,42.857,0,0,1-4.838,3.058,47.411,47.411,0,0,1-18,5.492,42.447,42.447,0,0,1-10.419-.2,24.616,24.616,0,0,1-8.107-2.619,14.894,14.894,0,0,1-4.466-3.614,8.685,8.685,0,0,1-.9-1.276c-.182-.307-.267-.473-.244-.489a18.052,18.052,0,0,0,5.873,4.884,25.228,25.228,0,0,0,7.954,2.395,43.981,43.981,0,0,0,10.235.134,50.257,50.257,0,0,0,17.812-5.2C419.854,229.979,422.194,228.1,422.284,228.231Z" transform="translate(-373.701 -228.225)" fill="#263238"/></g><g transform="translate(135.98 130.434)"><path d="M390.475,243.951a21.677,21.677,0,0,1-.955-4.046c-.489-2.516-1.112-6-1.751-9.859-.307-1.915-.6-3.741-.87-5.445a9.736,9.736,0,0,1,.152-4.6,4.49,4.49,0,0,1,1.927-2.456c.665-.364,1.1-.346,1.1-.307.018.065-.379.156-.933.565a4.508,4.508,0,0,0-1.563,2.368,9.769,9.769,0,0,0,.035,4.318c.291,1.7.6,3.521.93,5.43.639,3.858,1.175,7.356,1.524,9.9A21.748,21.748,0,0,1,390.475,243.951Z" transform="translate(-386.704 -217.218)" fill="#263238"/></g><g transform="translate(154.183 129.385)"><path d="M403.36,238.5a14.749,14.749,0,0,1-.689-3.336c-.326-2.073-.722-4.944-1.111-8.119-.414-3.158-.641-6.1-.938-8.106a3.064,3.064,0,0,0-1.146-1.952c-.449-.317-.788-.343-.779-.408-.008-.039.36-.134.938.144a3.187,3.187,0,0,1,1.528,2.079c.464,2.122.76,4.957,1.181,8.145.388,3.176.7,6.058.88,8.148A14.464,14.464,0,0,1,403.36,238.5Z" transform="translate(-398.698 -216.527)" fill="#263238"/></g><g transform="translate(119.082 130.633)"><path d="M380.38,217.367a8.145,8.145,0,0,0-2.471,2.067,7.89,7.89,0,0,0-1.351,3.175,16.411,16.411,0,0,0-.128,4.322c.284,3.12.548,5.976.677,8.034a14.235,14.235,0,0,1,.058,3.356,14.116,14.116,0,0,1-.613-3.3c-.272-2.053-.622-4.872-.911-8.031a15.5,15.5,0,0,1,.2-4.53,7.864,7.864,0,0,1,1.624-3.372C378.9,217.4,380.408,217.286,380.38,217.367Z" transform="translate(-375.569 -217.349)" fill="#263238"/></g></g></g></g></g></svg>