<svg xmlns="http://www.w3.org/2000/svg" width="90.055" height="101.27" viewBox="0 0 90.055 101.27"><g transform="translate(-2147.314 -937.176)"><path d="M2167.191,973.969a1.24,1.24,0,0,0-2.117.877v22.016a1.24,1.24,0,0,0,1.24,1.24h22.015a1.24,1.24,0,0,0,.877-2.117Zm.363,21.653V977.841l17.78,17.781Z" transform="translate(7.21 14.789)" fill="#636363"/><path d="M2237.007,944.819l-6.45-6.451a1.24,1.24,0,0,0-1.753,0l-37.278,37.277a1.25,1.25,0,0,0-.276.419l-4.086,10.259-16.442-16.443,2.95-2.95a1.24,1.24,0,0,0-1.753-1.755l-2.951,2.951-4.949-4.95V938.416a1.241,1.241,0,0,0-1.241-1.24h-14.221a1.241,1.241,0,0,0-1.242,1.24v98.789a1.241,1.241,0,0,0,1.242,1.24h14.221a1.24,1.24,0,0,0,1.241-1.24v-13.566h56.953l3.464,3.465a1.241,1.241,0,0,0,1.755-1.755l-37.139-37.139,10.26-4.086a1.246,1.246,0,0,0,.419-.274l37.277-37.278a1.24,1.24,0,0,0,0-1.753Zm-75.47,91.146H2149.8v-2.208h2.131a1.241,1.241,0,0,0,0-2.481H2149.8v-3.906h2.131a1.241,1.241,0,0,0,0-2.482H2149.8v-3.9h2.131a1.241,1.241,0,0,0,0-2.481H2149.8V1014.6h2.131a1.24,1.24,0,1,0,0-2.48H2149.8v-3.906h2.131a1.241,1.241,0,0,0,0-2.482H2149.8v-3.906h2.131a1.24,1.24,0,1,0,0-2.48H2149.8v-3.906h2.131a1.241,1.241,0,0,0,0-2.482H2149.8v-3.9h2.131a1.241,1.241,0,0,0,0-2.482H2149.8v-3.906h2.131a1.24,1.24,0,1,0,0-2.48H2149.8v-3.906h2.131a1.241,1.241,0,0,0,0-2.481H2149.8v-3.906h2.131a1.24,1.24,0,1,0,0-2.48H2149.8v-3.906h2.131a1.241,1.241,0,0,0,0-2.482H2149.8v-3.906h2.131a1.24,1.24,0,1,0,0-2.48H2149.8v-3.906h2.131a1.241,1.241,0,0,0,0-2.482H2149.8v-3.906h2.131a1.24,1.24,0,1,0,0-2.48H2149.8v-2.207h11.741v96.308Zm2.482-14.808V966.686l6.036,6.036-3.529,3.53a1.241,1.241,0,0,0,1.755,1.755l3.529-3.53,2.761,2.761-3.529,3.531a1.241,1.241,0,0,0,1.755,1.755l3.529-3.53,2.761,2.761-3.529,3.53a1.241,1.241,0,0,0,1.754,1.755l3.529-3.53,2.761,2.761-3.529,3.53a1.241,1.241,0,0,0,1.755,1.755l3.529-3.531,2.761,2.761-3.529,3.53a1.241,1.241,0,0,0,1.755,1.755l3.529-3.53,2.761,2.761-3.529,3.53a1.241,1.241,0,0,0,1.754,1.755l3.529-3.53,2.761,2.761-3.529,3.53a1.24,1.24,0,1,0,1.755,1.753l3.529-3.529,2.761,2.761-3.529,3.53a1.24,1.24,0,1,0,1.753,1.753l3.531-3.529,2.761,2.761-3.529,3.53a1.24,1.24,0,1,0,1.753,1.753l3.53-3.529,2.762,2.761-3.529,3.53a1.24,1.24,0,1,0,1.753,1.753l3.531-3.529,6.037,6.037Zm33.364-41.41,30.845-30.846,1.47,1.471-30.845,30.846Zm-1.755-1.755-1.47-1.471L2225,945.676l1.47,1.471Zm-2.77.74,3.785,3.785-6.29,2.505Zm38.6-30.114-4.7-4.7L2229.68,941l4.695,4.695Z" transform="translate(0 0)" fill="#636363"/><path d="M2206.182,1002.149a1.241,1.241,0,0,0-1.754,1.755l3.827,3.827a1.24,1.24,0,0,0,1.755-1.753Z" transform="translate(23.039 26.23)" fill="#636363"/><path d="M2211.058,1007.027a1.24,1.24,0,1,0-1.753,1.755l.077.077a1.241,1.241,0,0,0,1.755-1.755Z" transform="translate(25.019 28.21)" fill="#636363"/><path d="M2182.584,942.583a1.232,1.232,0,0,0,.877-.364l.2-.2a1.241,1.241,0,0,0-1.755-1.755l-.2.2a1.24,1.24,0,0,0,.877,2.117Z" transform="translate(13.815 1.107)" fill="#636363"/><path d="M2177.706,948.507a1.236,1.236,0,0,0,.877-.363l3.827-3.827a1.24,1.24,0,0,0-1.753-1.755l-3.828,3.827a1.24,1.24,0,0,0,.877,2.117Z" transform="translate(11.835 2.039)" fill="#636363"/><path d="M2172.828,953.386a1.237,1.237,0,0,0,.877-.363l3.828-3.828a1.24,1.24,0,0,0-1.754-1.753l-3.829,3.827a1.24,1.24,0,0,0,.877,2.118Z" transform="translate(9.854 4.02)" fill="#636363"/><path d="M2167.951,958.264a1.232,1.232,0,0,0,.876-.364l3.828-3.827a1.241,1.241,0,0,0-1.755-1.755l-3.827,3.828a1.24,1.24,0,0,0,.877,2.117Z" transform="translate(7.874 6)" fill="#636363"/></g></svg>