<svg xmlns="http://www.w3.org/2000/svg" width="252.868" height="225.48" viewBox="0 0 252.868 225.48"><g transform="translate(-215.521 -24489.309)"><rect width="252.868" height="225.481" transform="translate(215.521 24489.309)" fill="#dc2a0a"/><g transform="translate(1029.35 24377.064)"><g transform="translate(-799.35 180.998)"><path d="M-799.35,233.846c.609-2.637,1.036-5.332,1.858-7.9,5.683-17.757,16.718-31.336,32.7-40.921a23.392,23.392,0,0,1,12.85-3.735c3.606.111,5.522,2.008,5.486,5.6a8.791,8.791,0,0,1-4.318,7.9c-.748.451-2.269.646-2.784.2a3.636,3.636,0,0,1-.852-2.874,5.2,5.2,0,0,1,4-4.474c.63-.188,1.075-.993,1.605-1.514-.668-.538-1.4-1.591-1.993-1.518-1.824.223-3.926.428-5.325,1.448-4.307,3.138-8.784,6.239-12.386,10.1-8.766,9.4-16.16,19.821-19.714,32.38a39.516,39.516,0,0,0-1.411,11.28c.165,9.7,6.861,15.168,16.345,13.156,7.651-1.624,15.139-4.007,22.7-6.063,10.3-2.8,20.709-4.393,31.346-2.27a33.977,33.977,0,0,1,20.151,12.023c-9.479-3.275-18.708-6.506-27.926.652.148.044-.068.048-.133-.048-4.446-6.627-11.1-8.075-18.265-6.829-6.851,1.192-13.484,3.585-20.3,5.034a82.67,82.67,0,0,1-15.859,2.185c-8.148.114-15.473-6.812-17.162-15.264-.163-.818-.407-1.621-.614-2.431Z" transform="translate(799.35 -181.135)" fill="#fff"/><path d="M-500.506,235.371c2.473.257,3.731-.793,4.687-2.811,7.987-16.845,18.345-32.012,32.336-44.531a49.89,49.89,0,0,1,7.159-5.322,9.7,9.7,0,0,1,4.594-1.147c.676-.023,1.681,1.018,2,1.794.269.654-.238,1.624-.813,2.726-.963-2.694-2.476-2.1-3.662-1-4.424,4.091-9.191,7.934-12.988,12.554-7.258,8.833-12.9,18.772-18.056,28.962a3.645,3.645,0,0,0-.406,2.211,49.087,49.087,0,0,0,4.368-3.524c6.065-6.1,12.032-12.3,18.086-18.411a21.769,21.769,0,0,1,3.025-2.176l.457.575a8.215,8.215,0,0,1-.677,1.033c-8.312,9.374-16.694,18.674-26.695,26.361a6.833,6.833,0,0,0-2.234,2.944A115.262,115.262,0,0,0-492.7,246.8c-.292,1.225.4,2.683.646,4.035,1.191-.682,2.719-1.1,3.509-2.1,2.317-2.928,4.294-6.12,6.49-9.147,3.39-4.675,6.7-9.421,10.35-13.889a23.934,23.934,0,0,1,5.936-4.782c2.954-1.848,5.07-1.5,7.776.82,1.932-3.587,5.256-1.28,8.477-2.222-.608,1.3-.956,2.116-1.364,2.9-4.194,8.071-8.437,16.117-12.557,24.226a16.885,16.885,0,0,0-.929,4c1.295-.582,2.879-.869,3.828-1.8,2.729-2.676,5.168-5.643,7.8-8.42a4.968,4.968,0,0,1,2.67-1.3c-4.171,6.642-8.819,12.8-15.351,17.188-4.846,3.257-7.488,1.943-8.034-3.956-1.578,1.31-2.995,2.618-4.548,3.741-1.889,1.366-3.961,2.65-6.373,1.434-2.383-1.2-2.286-3.562-2.261-5.8,0-.25-.049-.5-.133-1.275a21.742,21.742,0,0,1-1.852,1.9c-2.192,1.724-4.247,3.733-6.684,5-3.2,1.668-6.364.128-6.6-3.4a39.888,39.888,0,0,1,1.149-10.223c.4-2.033,1.519-3.927,2.375-6.033-2.161-.507-3.383.159-4.622,1.992a134.544,134.544,0,0,1-9.891,13.237,19.757,19.757,0,0,1-6.941,4.594c-3.243,1.423-5.965-.109-6.328-3.62a20.192,20.192,0,0,1,.79-7.993,47.108,47.108,0,0,1,14.859-22.172,21.378,21.378,0,0,1,6.424-3.553c3.653-1.313,6.241.469,6.169,4.3a39.819,39.819,0,0,1-1.4,7.688A24.577,24.577,0,0,1-500.506,235.371Zm22.785,12.855c-.055,2.271,1,2.963,2.387,2.073a11.661,11.661,0,0,0,3.737-3.672c3.862-6.567,7.549-13.237,11.207-19.919a9.059,9.059,0,0,0,.481-2.9,12.157,12.157,0,0,0-3.215.967,9.653,9.653,0,0,0-2.928,2.8q-5.47,8.525-10.685,17.212A12.29,12.29,0,0,0-477.72,248.227Zm-26.113-9.838-6.827-6.214c-2.981,4.266-5.856,8.607-6.924,13.772-.283,1.367.492,2.95.781,4.434,1.457-.387,3.429-.309,4.28-1.243C-509.409,245.717-506.667,241.959-503.833,238.389Zm3.888-10.418c.113-3.98-.713-5.1-2.639-4.884-2.161.241-4.8,3.008-5.152,5.4-.387,2.638,1.153,5.594,3.52,6.424a1.937,1.937,0,0,0,1.77-.555C-501.369,231.9-500.475,229.362-499.946,227.971Z" transform="translate(666.559 -181.271)" fill="#fff"/><path d="M-694.463,251.377c-1.317,1.066-2.911,2.471-4.625,3.709-1.791,1.294-4.081,2.4-5.886.893-1.28-1.067-1.59-3.308-2.272-5.048a7.639,7.639,0,0,1-.155-1.8,28.663,28.663,0,0,1-3.213,2.929c-2.187,1.442-4.35,3.117-6.781,3.954-6.565,2.26-11.283-1.918-10.108-8.769a36.9,36.9,0,0,1,1.691-6.117c.71-1.987,1.682-3.881,2.618-5.994-2.208-.05-3.672.591-4.712,2.618a45.882,45.882,0,0,1-11.8,15.235,18.815,18.815,0,0,1-6.193,3.348c-2.81.845-5.16-.6-5.419-3.483a24.619,24.619,0,0,1,.656-9.239,43.186,43.186,0,0,1,15.536-21.924,17.913,17.913,0,0,1,6.378-3.009c3.389-.844,5.625.969,5.5,4.412a93.8,93.8,0,0,1-1.328,9.613,12.479,12.479,0,0,0,2.983-1.37c2.289-1.894,4.408-3.991,6.64-5.957s4.327-4.16,6.836-5.673a9.748,9.748,0,0,1,5.592-.912,4.755,4.755,0,0,1,3.037,2.34c1.541,2.8-1.361,9.9-4.315,11.125-1.609.666-2.734-.047-2.65-1.845a4.993,4.993,0,0,1,3.683-4.966c1.461-.412,1.984-1.269,1.426-2.334a2.831,2.831,0,0,0-2.478-.869,6.431,6.431,0,0,0-2.8,1.665c-6.282,5.751-9.935,13.074-12.446,21.04a7.858,7.858,0,0,0-.174,2.783c.181,2.949,2.2,4.265,4.93,3.108,3.928-1.666,6.533-4.853,8.875-8.222,3.494-5.026,6.628-10.32,10.382-15.139a43.187,43.187,0,0,1,8.2-7.588c2.952-2.228,5.521-1.869,8.393.44,2.04-3.48,5.152-1.443,8.269-1.935-.621,1.329-.978,2.17-1.4,2.978q-5.927,11.431-11.871,22.853a13.525,13.525,0,0,0-1.21,2.52,11.846,11.846,0,0,0-.153,2.578c.834-.239,1.927-.223,2.46-.76,3.113-3.135,6.068-6.425,9.141-9.6a14.561,14.561,0,0,1,2.4-1.66l.537.582a32.243,32.243,0,0,1-2.222,3.229c-3.361,3.838-6.742,7.662-10.231,11.384a9.967,9.967,0,0,1-3.7,2.669c-1.824.638-4.107,1.342-5.721.748C-693.321,255.489-693.712,252.987-694.463,251.377Zm13.766-29.813a23.751,23.751,0,0,0-3.215,1.995,53.567,53.567,0,0,0-13.734,21.128c-.481,1.287.087,2.963.171,4.459,1.408-.771,3.408-1.184,4.128-2.369,4.53-7.453,8.8-15.065,13.064-22.673C-680.016,223.629-680.483,222.746-680.7,221.564Zm-48.077,14.65-7.287-5.631c-2.884,4.3-5.811,8.711-6.761,13.99-.244,1.356.6,2.906.952,4.367,1.373-.419,3.231-.417,4.034-1.332C-734.624,243.947-731.738,240-728.774,236.214Zm3.547-10.186c-.187-2.414-.337-4.114-2.519-4.249-2.158-.133-5.077,3.034-5.374,5.673a4.723,4.723,0,0,0,4.18,5.109,2.1,2.1,0,0,0,1.766-.777C-726.332,229.693-725.711,227.515-725.227,226.028Z" transform="translate(776.066 -199.109)" fill="#fff"/><path d="M-575.9,242.267c1.186-7.464,3.133-14.2,8.8-19.095a18.128,18.128,0,0,1,6.463-3.372c3.355-1.024,6.145.885,6.267,4.386a24.2,24.2,0,0,1-1.072,8.986,42.928,42.928,0,0,1-17.877,21.973,17.79,17.79,0,0,1-4.645,2.036c-6.018,1.677-10.867-.764-13.168-6.552-2.012-5.06-1.536-10.17-.067-15.248,4.51-15.592,13.6-28.4,24.63-40.016a49.7,49.7,0,0,1,16-11.7c2.9-1.267,6.154-1.775,9.287-2.447a3.579,3.579,0,0,1,2.676.545c1.923,1.566,3.642,1.162,5.771.357a18.188,18.188,0,0,1,13.517.386c4.872,1.987,9.538,4.473,14.535,6.856l-5.617,6.137c-3.759-2.175-7.24-4.533-11.01-6.267a67.11,67.11,0,0,0-10.579-3.5c-1.94-.524-2.841.431-2.833,2.643.023,6.737-2.134,12.759-7.149,17.4a18.338,18.338,0,0,1-6.309,3.659,3.866,3.866,0,0,1-5.315-4.016c.307-2.945.9-6.247,2.53-8.58,2.493-3.557,5.959-6.449,9.085-9.551a27.221,27.221,0,0,1,3.186-2.352,5.036,5.036,0,0,0-5.673.427c-3.675,2.433-7.483,4.859-10.564,7.952a117.022,117.022,0,0,0-25.729,38.91c-1.9,4.692-3.012,9.575-1.746,14.686,1.054,4.256,4.4,6.073,8.574,4.67,7.063-2.373,17.49-15.989,17.694-23.354.035-1.272-.808-2.568-1.245-3.854-1.424.528-3.366.651-4.166,1.667-1.809,2.294-3.015,5.053-4.548,7.573a10.624,10.624,0,0,1-2.1,2.606C-570.635,238.19-573.067,240.029-575.9,242.267Zm38.939-55.014-.729-.678c-3.034,2.638-6.386,5-9,8a29.521,29.521,0,0,0-4.586,8.322,4.448,4.448,0,0,0,.777,4.031c.633.594,2.681.021,3.931-.463a9.67,9.67,0,0,0,3.057-2.24C-538.748,199.549-536.864,193.763-536.959,187.252Z" transform="translate(698.758 -180.998)" fill="#fff"/><path d="M-376.166,185.449c-6.561,8.582-14.327,15.421-25.894,16.481,2.647-3.367,5.105-6.515,9.6-8.141C-386.789,191.734-381.613,188.312-376.166,185.449Z" transform="translate(606.166 -183.162)" fill="#fff"/><path d="M-574.585,218.761c-2.871,6.2-3.719,6.7-9.624,5.787C-581.971,218.638-580.664,217.827-574.585,218.761Z" transform="translate(694.737 -199.201)" fill="#fff"/></g></g></g></svg>