<svg xmlns="http://www.w3.org/2000/svg" width="446.311" height="299.465" viewBox="0 0 446.311 299.465"><g transform="translate(-31.911 -39.112)"><g transform="translate(31.911 46.802)"><g transform="translate(0 32.329)"><rect width="141.923" height="53.784" fill="#fafafa"/><g transform="translate(22.219 12.548)"><path d="M173.011,118.227c0,.1-24.119.174-53.864.174s-53.869-.078-53.869-.174,24.114-.173,53.869-.173S173.011,118.132,173.011,118.227Z" transform="translate(-65.277 -118.054)" fill="#ebebeb"/></g><g transform="translate(22.219 18.912)"><path d="M173.011,127.784c0,.1-24.119.174-53.864.174s-53.869-.078-53.869-.174,24.114-.173,53.869-.173S173.011,127.688,173.011,127.784Z" transform="translate(-65.277 -127.611)" fill="#ebebeb"/></g><g transform="translate(22.219 25.276)"><path d="M173.011,137.341c0,.1-24.119.174-53.864.174s-53.869-.078-53.869-.174,24.114-.173,53.869-.173S173.011,137.246,173.011,137.341Z" transform="translate(-65.277 -137.168)" fill="#ebebeb"/></g><g transform="translate(22.219 31.64)"><path d="M173.011,146.9c0,.1-24.119.174-53.864.174s-53.869-.078-53.869-.174,24.114-.173,53.869-.173S173.011,146.8,173.011,146.9Z" transform="translate(-65.277 -146.725)" fill="#ebebeb"/></g><g transform="translate(22.219 38.004)"><path d="M173.011,156.455c0,.1-24.119.174-53.864.174s-53.869-.078-53.869-.174,24.114-.173,53.869-.173S173.011,156.359,173.011,156.455Z" transform="translate(-65.277 -156.282)" fill="#ebebeb"/></g><g transform="translate(21.352 18.303)"><path d="M163.194,139.158s-.074.1-.234.28a2.815,2.815,0,0,1-.906.575,4.279,4.279,0,0,1-3.932-.723,7.211,7.211,0,0,1-1.851-2.333c-.517-.965-.926-2.079-1.41-3.244a10.215,10.215,0,0,0-2.108-3.385,4.691,4.691,0,0,0-1.83-1.117,4.851,4.851,0,0,0-2.253-.125,8.614,8.614,0,0,0-4.3,2.279c-1.283,1.158-2.411,2.585-3.792,3.878a8.689,8.689,0,0,1-5.2,2.558,4.779,4.779,0,0,1-2.979-.794,7.112,7.112,0,0,1-2.075-2.392c-1.071-1.849-1.613-4-3.006-5.687a4.885,4.885,0,0,0-2.609-1.8,3.62,3.62,0,0,0-3.063.736,6.92,6.92,0,0,0-2.014,2.68,16.916,16.916,0,0,0-.954,3.352,20.785,20.785,0,0,1-.945,3.479,8.315,8.315,0,0,1-.87,1.626,7.5,7.5,0,0,1-1.273,1.354,8.037,8.037,0,0,1-3.286,1.641,7.813,7.813,0,0,1-3.625.053,8.171,8.171,0,0,1-3.2-1.58c-.946-.7-1.8-1.486-2.7-2.187a8.034,8.034,0,0,0-2.911-1.585,4.211,4.211,0,0,0-3.117.4,7.357,7.357,0,0,0-2.325,2.164,20.624,20.624,0,0,0-1.572,2.756,21.492,21.492,0,0,1-1.556,2.731,7.3,7.3,0,0,1-2.235,2.121,4.551,4.551,0,0,1-2.917.683,4.194,4.194,0,0,1-2.532-1.414,7.138,7.138,0,0,1-1.4-2.429,18.232,18.232,0,0,1-.637-2.6,12.32,12.32,0,0,0-1.5-4.689,5.252,5.252,0,0,0-3.463-2.575,3.854,3.854,0,0,0-1.994.248,5.31,5.31,0,0,0-1.6,1.055c-1.819,1.742-2.694,3.846-4.043,5.064a5.44,5.44,0,0,1-3.615,1.818,3.012,3.012,0,0,1-1.054-.187c-.223-.095-.333-.151-.333-.151a3.692,3.692,0,0,0,1.386.268,5.42,5.42,0,0,0,3.522-1.844c1.314-1.209,2.16-3.309,4-5.109a5.5,5.5,0,0,1,1.655-1.1,4.059,4.059,0,0,1,2.106-.274,5.477,5.477,0,0,1,3.637,2.662,8.273,8.273,0,0,1,1.006,2.261c.23.811.384,1.655.549,2.509a17.907,17.907,0,0,0,.637,2.562,6.856,6.856,0,0,0,1.348,2.327,3.905,3.905,0,0,0,2.359,1.314,4.257,4.257,0,0,0,2.722-.651,7,7,0,0,0,2.136-2.039,21.312,21.312,0,0,0,1.526-2.694,20.82,20.82,0,0,1,1.592-2.8,7.662,7.662,0,0,1,2.431-2.264,4.545,4.545,0,0,1,3.355-.44,8.353,8.353,0,0,1,3.039,1.643c.912.711,1.769,1.491,2.7,2.18a7.833,7.833,0,0,0,3.072,1.519,7.482,7.482,0,0,0,3.467-.053,7.7,7.7,0,0,0,3.146-1.572,7.1,7.1,0,0,0,1.212-1.289,7.974,7.974,0,0,0,.831-1.554,20.616,20.616,0,0,0,.929-3.421,17.186,17.186,0,0,1,.978-3.419,7.256,7.256,0,0,1,2.12-2.81,3.962,3.962,0,0,1,3.345-.793,5.205,5.205,0,0,1,2.791,1.924c1.443,1.764,1.985,3.942,3.026,5.736a6.82,6.82,0,0,0,1.973,2.292,4.473,4.473,0,0,0,2.786.748,8.408,8.408,0,0,0,5.026-2.465c1.363-1.267,2.5-2.693,3.808-3.866a8.856,8.856,0,0,1,4.438-2.322,5.084,5.084,0,0,1,2.363.145,4.917,4.917,0,0,1,1.913,1.181,10.387,10.387,0,0,1,2.134,3.469c.479,1.177.876,2.285,1.377,3.242a7.112,7.112,0,0,0,1.787,2.3,4.227,4.227,0,0,0,3.826.764A2.949,2.949,0,0,0,163.194,139.158Z" transform="translate(-63.975 -126.695)" fill="#e0e0e0"/></g><g transform="translate(20.472 13.389)"><path d="M169.569,135.208s-.125.015-.374.026c-.124,0-.276-.037-.458-.063a4,4,0,0,1-.6-.217,10.177,10.177,0,0,1-3.207-2.7q-.45-.519-.918-1.121a12.753,12.753,0,0,0-.995-1.228,5.281,5.281,0,0,0-3.171-1.444,4.459,4.459,0,0,0-1.935.244,4.977,4.977,0,0,0-1.725,1.163,40.7,40.7,0,0,0-2.837,3.669,8.411,8.411,0,0,1-1.816,1.765,5.61,5.61,0,0,1-2.484.93,11.119,11.119,0,0,1-5.468-1.023c-1.787-.742-3.5-1.766-5.419-2.421a10.036,10.036,0,0,0-2.991-.6,6.511,6.511,0,0,0-3.019.66c-1.925.922-3.429,2.6-5.241,3.975a10.714,10.714,0,0,1-3.034,1.663,11.394,11.394,0,0,1-3.477.6,12.817,12.817,0,0,1-6.9-1.913,16.743,16.743,0,0,1-5.237-5.215,47.3,47.3,0,0,1-3.187-6.668,13.587,13.587,0,0,0-1.853-3.033,8.062,8.062,0,0,0-2.73-2.109A4.877,4.877,0,0,0,97.2,119.8a5.493,5.493,0,0,0-2.734,1.8,9.23,9.23,0,0,0-1.636,2.837,22.6,22.6,0,0,0-.845,3.138c-.225,1.053-.427,2.1-.715,3.124a13.679,13.679,0,0,1-1.172,2.911,13.2,13.2,0,0,1-3.954,4.464,11.61,11.61,0,0,1-5.159,2.088,10.846,10.846,0,0,1-5.1-.591,10.04,10.04,0,0,1-6.15-6.033c-.425-1.238-.639-2.43-.946-3.492a8.044,8.044,0,0,0-1.227-2.728A4.365,4.365,0,0,0,64,125.49a2.759,2.759,0,0,0-1.35.49A2.269,2.269,0,0,1,64,125.42a4.419,4.419,0,0,1,3.669,1.811A8.143,8.143,0,0,1,68.947,130c.318,1.069.543,2.259.97,3.473a9.841,9.841,0,0,0,6.05,5.867,10.607,10.607,0,0,0,4.981.556,11.357,11.357,0,0,0,5.028-2.056,12.93,12.93,0,0,0,3.854-4.376,20.113,20.113,0,0,0,1.842-5.956,22.84,22.84,0,0,1,.853-3.184,9.543,9.543,0,0,1,1.691-2.942,5.82,5.82,0,0,1,2.9-1.9,5.213,5.213,0,0,1,3.515.362,8.4,8.4,0,0,1,2.852,2.2,13.9,13.9,0,0,1,1.9,3.109,47.335,47.335,0,0,0,3.166,6.626,16.412,16.412,0,0,0,5.125,5.109,12.484,12.484,0,0,0,6.716,1.867,11.042,11.042,0,0,0,3.373-.58,10.357,10.357,0,0,0,2.944-1.609c1.783-1.341,3.3-3.039,5.3-4a6.821,6.821,0,0,1,3.164-.684,10.343,10.343,0,0,1,3.083.624c1.955.673,3.676,1.71,5.43,2.444a10.884,10.884,0,0,0,5.325,1.023,5.356,5.356,0,0,0,2.373-.877,8.181,8.181,0,0,0,1.769-1.705,39.961,39.961,0,0,1,2.873-3.673,5.18,5.18,0,0,1,1.807-1.2,4.658,4.658,0,0,1,2.025-.242,5.445,5.445,0,0,1,3.269,1.52,12.527,12.527,0,0,1,1,1.254q.46.6.9,1.124a10.35,10.35,0,0,0,3.134,2.727A2.767,2.767,0,0,0,169.569,135.208Z" transform="translate(-62.654 -119.316)" fill="#e0e0e0"/></g><g transform="translate(11.974 12.865)"><path d="M52.741,118.7a3.073,3.073,0,0,1-1.425.174,3.071,3.071,0,0,1-1.424-.174,3.076,3.076,0,0,1,1.424-.173A3.078,3.078,0,0,1,52.741,118.7Z" transform="translate(-49.892 -118.529)" fill="#e0e0e0"/></g><g transform="translate(11.974 18.912)"><path d="M52.741,127.784a3.073,3.073,0,0,1-1.425.174,3.071,3.071,0,0,1-1.424-.174,3.076,3.076,0,0,1,1.424-.173A3.078,3.078,0,0,1,52.741,127.784Z" transform="translate(-49.892 -127.611)" fill="#e0e0e0"/></g><g transform="translate(11.974 24.96)"><path d="M52.741,136.866a3.072,3.072,0,0,1-1.425.174,3.07,3.07,0,0,1-1.424-.174,3.086,3.086,0,0,1,1.424-.173A3.088,3.088,0,0,1,52.741,136.866Z" transform="translate(-49.892 -136.693)" fill="#e0e0e0"/></g><g transform="translate(11.974 31.008)"><path d="M52.741,145.948a3.073,3.073,0,0,1-1.425.174,3.071,3.071,0,0,1-1.424-.174,3.086,3.086,0,0,1,1.424-.173A3.088,3.088,0,0,1,52.741,145.948Z" transform="translate(-49.892 -145.775)" fill="#e0e0e0"/></g><g transform="translate(11.974 37.056)"><path d="M52.741,155.031a3.088,3.088,0,0,1-1.425.173,3.086,3.086,0,0,1-1.424-.173,3.071,3.071,0,0,1,1.424-.174A3.073,3.073,0,0,1,52.741,155.031Z" transform="translate(-49.892 -154.857)" fill="#e0e0e0"/></g><g transform="translate(22.219 44.829)"><path d="M70.976,166.7a11.837,11.837,0,0,1-2.849.174,11.837,11.837,0,0,1-2.849-.174,11.86,11.86,0,0,1,2.849-.173A11.86,11.86,0,0,1,70.976,166.7Z" transform="translate(-65.277 -166.531)" fill="#e0e0e0"/></g><g transform="translate(47.339 44.829)"><path d="M108.7,166.7a11.837,11.837,0,0,1-2.849.174A11.837,11.837,0,0,1,103,166.7a11.86,11.86,0,0,1,2.849-.173A11.86,11.86,0,0,1,108.7,166.7Z" transform="translate(-103 -166.531)" fill="#e0e0e0"/></g><g transform="translate(72.458 44.829)"><path d="M146.421,166.7a23.437,23.437,0,0,1-5.7,0,23.529,23.529,0,0,1,5.7,0Z" transform="translate(-140.723 -166.531)" fill="#e0e0e0"/></g><g transform="translate(97.578 44.829)"><path d="M184.144,166.7a23.437,23.437,0,0,1-5.7,0,23.53,23.53,0,0,1,5.7,0Z" transform="translate(-178.446 -166.531)" fill="#e0e0e0"/></g><g transform="translate(122.698 44.829)"><path d="M221.867,166.7a23.437,23.437,0,0,1-5.7,0,23.529,23.529,0,0,1,5.7,0Z" transform="translate(-216.169 -166.531)" fill="#e0e0e0"/></g></g><g transform="translate(206.837 170.9)"><rect width="115.537" height="71.509" fill="#fafafa"/><g transform="translate(12.28 21.048)"><path d="M436.327,369.569c-8.011-3.038-17.227,5.363-25.081,1.937-4.57-1.994-6.642-7.162-8.881-11.617s-6.1-9.154-11.056-8.637c-5,.521-9.046,6.313-13.878,4.917-3.045-.88-4.565-4.257-5.329-7.334s-1.293-6.477-3.615-8.634-7.16-1.58-7.525,1.568v37.909h90.352S439.1,370.62,436.327,369.569Z" transform="translate(-360.963 -338.915)" fill="#ebebeb"/></g><g transform="translate(7.222 61.665)"><path d="M451.19,400.057c0,.081-21.9.147-48.909.147s-48.913-.066-48.913-.147,21.9-.147,48.913-.147S451.19,399.976,451.19,400.057Z" transform="translate(-353.368 -399.91)" fill="#e0e0e0"/></g><g transform="translate(7.222 45.108)"><path d="M451.19,375.191c0,.081-21.9.147-48.909.147s-48.913-.066-48.913-.147,21.9-.147,48.913-.147S451.19,375.111,451.19,375.191Z" transform="translate(-353.368 -375.045)" fill="#e0e0e0"/></g><g transform="translate(7.222 28.549)"><path d="M451.19,350.326c0,.081-21.9.147-48.909.147s-48.913-.066-48.913-.147,21.9-.147,48.913-.147S451.19,350.245,451.19,350.326Z" transform="translate(-353.368 -350.179)" fill="#e0e0e0"/></g><g transform="translate(7.222 12.813)"><path d="M451.19,326.7c0,.081-21.9.147-48.909.147s-48.913-.065-48.913-.147,21.9-.147,48.913-.147S451.19,326.614,451.19,326.7Z" transform="translate(-353.368 -326.548)" fill="#e0e0e0"/></g></g><g transform="translate(329.592)"><g transform="translate(0.23 0.23)"><rect width="85.997" height="76.938" fill="#fafafa"/></g><path d="M613.094,127.829s-.015-.493-.022-1.428-.013-2.325-.023-4.123c-.011-3.612-.029-8.892-.051-15.617-.024-13.443-.059-32.652-.1-55.77l.194.2L527.1,51.12H527.1l.23-.23c-.01,27.991-.019,54.33-.027,76.938l-.2-.2,62.2.1,17.543.053,4.644.024,1.2.011c.27,0,.413.012.413.012s-.128.007-.39.011l-1.175.011-4.6.024-17.5.053-62.329.1h-.2v-.2c-.008-22.607-.017-48.946-.027-76.938v-.23h.237l85.989.035h.2v.2c-.041,23.169-.076,42.421-.1,55.894-.022,6.706-.039,11.972-.051,15.573-.01,1.782-.017,3.15-.023,4.085S613.094,127.829,613.094,127.829Z" transform="translate(-526.867 -50.661)" fill="#e0e0e0"/><g transform="translate(12.985 13.67)"><path d="M566.586,71.42c0,.127-4.526.23-10.108.23s-10.11-.1-10.11-.23,4.526-.23,10.11-.23S566.586,71.293,566.586,71.42Z" transform="translate(-546.367 -71.19)" fill="#e0e0e0"/></g><g transform="translate(14.096 19.447)"><path d="M603.581,80.095c0,.127-12.435.23-27.771.23s-27.775-.1-27.775-.23,12.433-.23,27.775-.23S603.581,79.968,603.581,80.095Z" transform="translate(-548.035 -79.865)" fill="#e0e0e0"/></g><g transform="translate(13.133 29.462)"><rect width="3.623" height="3.623" fill="#e0e0e0"/></g><g transform="translate(22.052 29.462)"><rect width="3.623" height="3.623" fill="#e0e0e0"/></g><g transform="translate(31.134 29.298)"><rect width="3.623" height="3.623" fill="#e0e0e0"/></g><g transform="translate(39.888 29.462)"><rect width="3.623" height="3.623" fill="#e0e0e0"/></g><g transform="translate(48.806 29.462)"><rect width="3.623" height="3.623" fill="#e0e0e0"/></g><g transform="translate(57.725 29.462)"><rect width="3.623" height="3.623" fill="#e0e0e0"/></g><g transform="translate(66.643 29.462)"><rect width="3.623" height="3.623" fill="#ebebeb"/></g><g transform="translate(13.133 37.165)"><rect width="3.623" height="3.623" fill="#ebebeb"/></g><g transform="translate(22.052 37.165)"><rect width="3.623" height="3.623" fill="#e0e0e0"/></g><g transform="translate(30.97 37.165)"><rect width="3.623" height="3.623" fill="#ebebeb"/></g><g transform="translate(39.888 37.165)"><rect width="3.623" height="3.623" fill="#e0e0e0"/></g><g transform="translate(48.806 37.165)"><rect width="3.623" height="3.623" fill="#e0e0e0"/></g><g transform="translate(57.889 37)"><rect width="3.623" height="3.623" fill="#e0e0e0"/></g><g transform="translate(66.643 37.165)"><rect width="3.623" height="3.623" fill="#e0e0e0"/></g><g transform="translate(13.133 44.867)"><rect width="3.623" height="3.623" fill="#e0e0e0"/></g><g transform="translate(22.216 44.703)"><rect width="3.623" height="3.623" fill="#e0e0e0"/></g><g transform="translate(30.97 44.867)"><rect width="3.623" height="3.623" fill="#e0e0e0"/></g><g transform="translate(39.888 44.867)"><rect width="3.623" height="3.623" fill="#ebebeb"/></g><g transform="translate(48.806 44.867)"><rect width="3.623" height="3.623" fill="#e0e0e0"/></g><g transform="translate(57.725 44.867)"><rect width="3.623" height="3.623" fill="#e0e0e0"/></g><g transform="translate(66.643 44.867)"><rect width="3.623" height="3.623" fill="#e0e0e0"/></g><g transform="translate(13.133 52.569)"><rect width="3.623" height="3.623" fill="#e0e0e0"/></g><g transform="translate(22.052 52.569)"><rect width="3.623" height="3.623" fill="#e0e0e0"/></g><g transform="translate(30.97 52.569)"><rect width="3.623" height="3.623" fill="#e0e0e0"/></g><g transform="translate(40.053 52.405)"><rect width="3.623" height="3.623" fill="#e0e0e0"/></g><g transform="translate(48.806 52.569)"><rect width="3.623" height="3.623" fill="#e0e0e0"/></g><g transform="translate(57.725 52.569)"><rect width="3.623" height="3.623" fill="#ebebeb"/></g><g transform="translate(66.643 52.569)"><rect width="3.623" height="3.623" fill="#e0e0e0"/></g><g transform="translate(13.133 60.272)"><rect width="3.623" height="3.623" fill="#e0e0e0"/></g><g transform="translate(22.052 60.272)"><rect width="3.623" height="3.623" fill="#ebebeb"/></g><g transform="translate(30.97 60.272)"><rect width="3.623" height="3.623" fill="#e0e0e0"/></g><g transform="translate(39.888 60.272)"><rect width="3.623" height="3.623" fill="#e0e0e0"/></g><g transform="translate(48.806 60.272)"><rect width="3.623" height="3.623" fill="#e0e0e0"/></g><g transform="translate(57.889 60.107)"><rect width="3.623" height="3.623" fill="#e0e0e0"/></g><g transform="translate(66.643 60.272)"><rect width="3.623" height="3.623" fill="#e0e0e0"/></g></g></g><g transform="translate(183.444 53.026)"><g transform="translate(129.897 0.967)"><path d="M468.945,61.459s10.182.143,5.825,20.3-3.795,23.97-3.795,31.945a13.907,13.907,0,0,0,7.53,12.69H464.7L454.541,79.342V61.459Z" transform="translate(-454.541 -61.459)" fill="#e0e0e0"/></g><g transform="translate(7.864 16.399)"><path d="M410.712,227.909H271.282L272.524,91.5l131.328-6.864Z" transform="translate(-271.282 -84.634)" fill="#e0e0e0"/></g><g transform="translate(3.078 17.098)"><path d="M403.525,224.738H264.094l1.242-136.412,135.382-2.643Z" transform="translate(-264.094 -85.683)" fill="#ebebeb"/></g><g transform="translate(0.296 15.461)"><g transform="translate(0.174 0.15)"><path d="M399.325,220.188H260.177V83.777l139.233-.325Z" transform="translate(-260.177 -83.451)" fill="#fafafa"/></g><path d="M399.238,220.113c0-1.275-.026-54.721-.065-136.738l.15.15-139.014.348h-.218l.173-.173c-.009,49.9-.017,96.694-.023,136.411l-.15-.15,139.148.15-139.148.151h-.15v-.151c-.007-39.717-.015-86.51-.023-136.411v-.173h.392l139.014-.3h.15v.15C399.332,165.392,399.24,218.84,399.238,220.113Z" transform="translate(-259.916 -83.226)" fill="#263238"/></g><g transform="translate(0 0.473)"><path d="M399.174,75.488c-7.188-8.37,1.153-14.565,3.965-14.7l-132.495-.075a11.159,11.159,0,0,0-11,13.064,15.355,15.355,0,0,0,.537,2.074" transform="translate(-259.472 -60.717)" fill="#f5f5f5"/></g><g transform="translate(136.765 0.832)"><path d="M471.306,126.328a.871.871,0,0,1,.182-.015l.535-.015,2.081-.027,7.848-.049-.031.206a8.4,8.4,0,0,1-3.2-1.833,10.425,10.425,0,0,1-2.389-3.4,22.78,22.78,0,0,1-1.428-4.356c-.181-.776-.34-1.573-.489-2.387-.072-.407-.156-.814-.192-1.241a10.258,10.258,0,0,1-.1-1.28,47.44,47.44,0,0,1,.178-5.3c.133-1.813.336-3.67.555-5.566.454-3.791,1.025-7.738,1.7-11.784.276-1.729.626-3.435.912-5.107s.5-3.345.709-4.982.39-3.25.58-4.826c.085-.791.194-1.57.212-2.333a14.052,14.052,0,0,0-.127-2.272,13.636,13.636,0,0,0-1.256-4.182A8.343,8.343,0,0,0,475.04,62.4a5,5,0,0,0-3.622-.809,6.648,6.648,0,0,0-3.225,1.34,7.952,7.952,0,0,0-2.014,2.492,10.726,10.726,0,0,0-.978,2.713,7.083,7.083,0,0,0,.529,4.511,15.006,15.006,0,0,0,1.467,2.548l.447.625a1.536,1.536,0,0,1,.146.218,1.413,1.413,0,0,1-.174-.2c-.113-.132-.271-.336-.476-.6a13.956,13.956,0,0,1-1.534-2.534,7.189,7.189,0,0,1-.6-4.606,10.847,10.847,0,0,1,.972-2.775,8.145,8.145,0,0,1,2.056-2.582,6.891,6.891,0,0,1,3.341-1.413,5.274,5.274,0,0,1,3.822.838,8.611,8.611,0,0,1,2.654,3.274,13.908,13.908,0,0,1,1.3,4.273,14.45,14.45,0,0,1,.136,2.324c-.017.791-.126,1.574-.208,2.362q-.264,2.37-.572,4.832c-.209,1.64-.432,3.308-.705,5-.288,1.691-.635,3.377-.91,5.109-.671,4.041-1.245,7.983-1.7,11.767-.222,1.892-.427,3.745-.565,5.552a47.482,47.482,0,0,0-.193,5.265,9.813,9.813,0,0,0,.089,1.253c.033.411.115.821.185,1.227.144.81.3,1.6.476,2.375a22.61,22.61,0,0,0,1.388,4.31,10.218,10.218,0,0,0,2.311,3.34,8.217,8.217,0,0,0,3.1,1.808l.652.21-.683,0-7.848-.049-2.081-.027-.535-.015A.814.814,0,0,1,471.306,126.328Z" transform="translate(-464.855 -61.257)" fill="#263238"/></g><g transform="translate(55.689 4.717)"><path d="M344.809,67.091c.054.038-.342.568-.737,1.536a8.731,8.731,0,0,0-.5,1.756,9.022,9.022,0,0,0,.338,4.414,8.729,8.729,0,0,0,.762,1.659c.537.9,1.01,1.359.962,1.4-.017.017-.144-.087-.362-.294a5.672,5.672,0,0,1-.808-.979,7.776,7.776,0,0,1-.857-1.685,8.562,8.562,0,0,1-.351-4.578,7.775,7.775,0,0,1,.589-1.8,5.665,5.665,0,0,1,.649-1.091C344.681,67.2,344.791,67.077,344.809,67.091Z" transform="translate(-343.1 -67.09)" fill="#263238"/></g><g transform="translate(50.592)"><path d="M338.944,60.008a14.217,14.217,0,0,0-1.76,2.15A8.8,8.8,0,0,0,339.4,74.052a14.272,14.272,0,0,0,2.416,1.37,2.634,2.634,0,0,1-.731-.2,7.979,7.979,0,0,1-1.83-.972,8.792,8.792,0,0,1-2.279-12.224,7.949,7.949,0,0,1,1.356-1.567A2.61,2.61,0,0,1,338.944,60.008Z" transform="translate(-335.446 -60.007)" fill="#263238"/></g><g transform="translate(18.685 47.82)"><path d="M397.824,190.485s-.148.012-.436.018l-1.279.017-4.918.033-18.087.055-59.673.051L287.7,190.65h-.166v-.165c.025-17.048.047-31.712.062-42.125.021-5.192.037-9.325.048-12.171.011-1.409.021-2.5.027-3.248.006-.36.011-.638.014-.838s.015-.284.015-.284.009.1.014.284.008.477.014.838c.007.75.015,1.839.027,3.248.011,2.847.027,6.979.048,12.171.015,10.413.037,25.077.062,42.125l-.165-.164,25.734-.009,59.673.051,18.087.055,4.918.033,1.279.017C397.677,190.473,397.824,190.485,397.824,190.485Z" transform="translate(-287.531 -131.819)" fill="#263238"/></g><g transform="translate(27.801 91.992)"><rect width="11.124" height="11.124" fill="#12263f"/></g><g transform="translate(44.11 84.039)"><rect width="11.124" height="19.077" fill="#12263f"/></g><g transform="translate(60.484 75.005)"><rect width="11.124" height="28.111" fill="#12263f"/></g><g transform="translate(76.357 64.949)"><rect width="11.124" height="38.168" fill="#12263f"/></g><g transform="translate(92.6 52.073)"><rect width="11.124" height="51.044" fill="#12263f"/></g><g transform="translate(108.721 42.253)"><rect width="11.125" height="60.336" fill="#12263f"/></g><g transform="translate(27.801 30.637)"><path d="M301.221,155.965a.839.839,0,0,1,.142-.11l.434-.3,1.695-1.134,6.375-4.2,22.076-14.428.255-.167v.306c0,1.576,0,3.262,0,4.979l-.264-.141,8.7-5.833,30.7-20.51,9.325-6.182,2.545-1.666.667-.426a1.482,1.482,0,0,1,.234-.135,1.588,1.588,0,0,1-.214.164l-.648.455-2.508,1.72-9.263,6.274-30.642,20.594-8.7,5.827-.264.178v-.319c0-1.717,0-3.4,0-4.979l.256.139-22.143,14.324-6.427,4.122-1.725,1.089-.449.275A.829.829,0,0,1,301.221,155.965Z" transform="translate(-301.221 -106.016)" fill="#263238"/></g><g transform="translate(105.101 30.439)"><path d="M422.888,110.625a5.751,5.751,0,0,1-.118-1.372c-.031-.852-.051-2.035-.055-3.362l.172.172h-.425c-1.425,0-2.715-.019-3.648-.051a6.59,6.59,0,0,1-1.511-.123,6.589,6.589,0,0,1,1.511-.123c.934-.031,2.223-.051,3.648-.051h.6v.172c0,1.327-.025,2.51-.055,3.362A5.748,5.748,0,0,1,422.888,110.625Z" transform="translate(-417.304 -105.718)" fill="#263238"/></g><g transform="translate(9.951 115.284)"><g transform="translate(26.591)"><path d="M329.706,233.306c0,.1-3.439.173-7.679.173s-7.68-.078-7.68-.173,3.438-.174,7.68-.174S329.706,233.21,329.706,233.306Z" transform="translate(-314.347 -233.132)" fill="#263238"/></g><g transform="translate(33.889 1.834)"><path d="M325.481,239.484a9.4,9.4,0,0,1,0-3.6,9.431,9.431,0,0,1,0,3.6Z" transform="translate(-325.307 -235.886)" fill="#263238"/></g><g transform="translate(11.647 7.057)"><path d="M333.139,243.9c0,.1-9.231.173-20.616.173s-20.618-.077-20.618-.173,9.229-.173,20.618-.173S333.139,243.807,333.139,243.9Z" transform="translate(-291.906 -243.73)" fill="#263238"/></g><g transform="translate(11.751 7.369)"><path d="M292.235,249.179a17.931,17.931,0,0,1,0-4.981,18,18,0,0,1,0,4.981Z" transform="translate(-292.061 -244.198)" fill="#263238"/></g><g transform="translate(26.418 7.507)"><path d="M314.26,248.7a13.367,13.367,0,0,1,0-4.289,13.32,13.32,0,0,1,0,4.289Z" transform="translate(-314.087 -244.406)" fill="#263238"/></g><g transform="translate(41.5 7.369)"><path d="M336.909,248.9a16.067,16.067,0,0,1,0-4.7,16,16,0,0,1,0,4.7Z" transform="translate(-336.736 -244.198)" fill="#263238"/></g><g transform="translate(52.984 7.23)"><path d="M354.156,248.833a16.954,16.954,0,0,1,0-4.843,17.022,17.022,0,0,1,0,4.843Z" transform="translate(-353.982 -243.99)" fill="#263238"/></g><g transform="translate(7.081 13.56)"><path d="M295.012,253.669a71.736,71.736,0,0,1-9.963,0,71.749,71.749,0,0,1,9.963,0Z" transform="translate(-285.049 -253.496)" fill="#263238"/></g><g transform="translate(22.163 13.56)"><path d="M315.308,253.669a41.892,41.892,0,0,1-7.61,0,41.9,41.9,0,0,1,7.61,0Z" transform="translate(-307.698 -253.496)" fill="#263238"/></g><g transform="translate(37.799 13.975)"><path d="M339.342,254.292a48.032,48.032,0,0,1-8.164,0,48.2,48.2,0,0,1,8.164,0Z" transform="translate(-331.178 -254.119)" fill="#263238"/></g><g transform="translate(50.39 13.283)"><path d="M358.8,253.253a54.752,54.752,0,0,1-8.717,0,54.944,54.944,0,0,1,8.717,0Z" transform="translate(-350.087 -253.08)" fill="#263238"/></g><g transform="translate(3.372 15.671)"><g transform="translate(8.517)"><path d="M292.442,259.571a6.185,6.185,0,0,1,0-2.906,6.159,6.159,0,0,1,0,2.906Z" transform="translate(-292.269 -256.665)" fill="#263238"/></g><g transform="translate(0.173 2.732)"><path d="M297.727,260.942c0,.1-4.027.173-8.994.173s-8.994-.078-8.994-.173,4.026-.174,8.994-.174S297.727,260.846,297.727,260.942Z" transform="translate(-279.739 -260.768)" fill="#263238"/></g><g transform="translate(17.987 2.906)"><path d="M306.665,265.18a12.475,12.475,0,0,1,0-4.151,12.525,12.525,0,0,1,0,4.151Z" transform="translate(-306.491 -261.029)" fill="#263238"/></g><g transform="translate(0 2.906)"><path d="M279.652,265.457a14.241,14.241,0,0,1,0-4.428,14.241,14.241,0,0,1,0,4.428Z" transform="translate(-279.479 -261.029)" fill="#263238"/></g></g><g transform="translate(33.351 15.671)"><g transform="translate(8.517)"><path d="M337.463,259.571a6.161,6.161,0,0,1,0-2.906,6.183,6.183,0,0,1,0,2.906Z" transform="translate(-337.289 -256.665)" fill="#263238"/></g><g transform="translate(0.173 2.732)"><path d="M355.142,260.942c0,.1-6.8.173-15.191.173s-15.193-.078-15.193-.173,6.8-.174,15.193-.174S355.142,260.846,355.142,260.942Z" transform="translate(-324.759 -260.768)" fill="#263238"/></g><g transform="translate(17.987 2.906)"><path d="M351.685,265.18a12.475,12.475,0,0,1,0-4.151,12.527,12.527,0,0,1,0,4.151Z" transform="translate(-351.511 -261.029)" fill="#263238"/></g><g transform="translate(31.004 2.906)"><path d="M371.231,265.18a12.523,12.523,0,0,1,0-4.151,12.523,12.523,0,0,1,0,4.151Z" transform="translate(-371.058 -261.029)" fill="#263238"/></g><g transform="translate(0 2.906)"><path d="M324.672,265.457a14.238,14.238,0,0,1,0-4.428,14.189,14.189,0,0,1,0,4.428Z" transform="translate(-324.499 -261.029)" fill="#263238"/></g></g><g transform="translate(0 25.382)"><path d="M281.506,271.422a36.386,36.386,0,0,1-7.091,0,36.373,36.373,0,0,1,7.091,0Z" transform="translate(-274.415 -271.249)" fill="#263238"/></g><g transform="translate(17.044 24.874)"><path d="M307.672,270.66a42.472,42.472,0,0,1-7.662,0,42.308,42.308,0,0,1,7.662,0Z" transform="translate(-300.01 -270.486)" fill="#263238"/></g><g transform="translate(30.689 24.874)"><path d="M327.249,270.66a32.96,32.96,0,0,1-6.748,0,32.833,32.833,0,0,1,6.748,0Z" transform="translate(-320.501 -270.486)" fill="#263238"/></g><g transform="translate(47.275 24.874)"><path d="M352.728,270.66a38.762,38.762,0,0,1-7.319,0,38.613,38.613,0,0,1,7.319,0Z" transform="translate(-345.409 -270.486)" fill="#263238"/></g><g transform="translate(60.884 24.417)"><path d="M373.279,269.972a39.822,39.822,0,0,1-7.433,0,39.989,39.989,0,0,1,7.433,0Z" transform="translate(-365.846 -269.799)" fill="#263238"/></g></g><g transform="translate(81.902 113.485)"><path d="M429.442,259.519H382.465V230.431h46.977Zm-46.943-.034h46.91V230.464H382.5Z" transform="translate(-382.465 -230.431)" fill="#263238"/><g transform="translate(5.007 8.569)"><path d="M420.6,255.753c-3.256-1.234-7,2.179-10.19.787-1.857-.81-2.7-2.91-3.609-4.72s-2.477-3.719-4.492-3.509c-2.032.212-3.675,2.565-5.638,2-1.237-.357-1.855-1.729-2.166-2.979s-.525-2.632-1.468-3.508-2.909-.642-3.057.637v15.4h36.709A64.423,64.423,0,0,0,420.6,255.753Z" transform="translate(-389.984 -243.299)" fill="#f9c869"/></g><g transform="translate(2.952 25.071)"><path d="M426.642,268.141c0,.033-8.9.059-19.871.059s-19.873-.027-19.873-.059,8.9-.06,19.873-.06S426.642,268.108,426.642,268.141Z" transform="translate(-386.898 -268.081)" fill="#e0e0e0"/></g><g transform="translate(2.952 18.344)"><path d="M426.642,258.038c0,.033-8.9.06-19.871.06s-19.873-.027-19.873-.06,8.9-.06,19.873-.06S426.642,258.005,426.642,258.038Z" transform="translate(-386.898 -257.978)" fill="#263238"/></g><g transform="translate(2.952 11.617)"><path d="M426.642,247.935c0,.033-8.9.06-19.871.06s-19.873-.027-19.873-.06,8.9-.059,19.873-.059S426.642,247.9,426.642,247.935Z" transform="translate(-386.898 -247.876)" fill="#263238"/></g><g transform="translate(2.952 5.223)"><path d="M426.642,238.334c0,.033-8.9.06-19.871.06s-19.873-.027-19.873-.06,8.9-.06,19.873-.06S426.642,238.3,426.642,238.334Z" transform="translate(-386.898 -238.274)" fill="#263238"/></g></g><g transform="translate(14.75 25.481)"><path d="M285.728,98.281a.269.269,0,0,1,.065,0h.19a4.278,4.278,0,0,1,.731.066,4.011,4.011,0,0,1,1.106.378A3.66,3.66,0,0,1,289,99.735a4.233,4.233,0,0,1,.776,1.729,4.1,4.1,0,0,1-.273,2.168,6.416,6.416,0,0,1-.538,1.067,11.348,11.348,0,0,0-.608,1.075,9.422,9.422,0,0,0-.813,2.47l-.01.058h-.057l-1.74-.042-1.825-.045h-.065v-.066a5.211,5.211,0,0,0-.748-2.441c-.2-.37-.414-.717-.617-1.067a10.236,10.236,0,0,1-.577-1.034,3.4,3.4,0,0,1-.19-2.156,4.581,4.581,0,0,1,.75-1.727,3.4,3.4,0,0,1,1.188-.986,4.31,4.31,0,0,1,1.1-.374,4.645,4.645,0,0,1,.724-.088c.083,0,.147,0,.189,0a.279.279,0,0,1,.064.007.269.269,0,0,1-.064.006l-.188.012a5.3,5.3,0,0,0-.715.111,4.346,4.346,0,0,0-1.076.389,3.345,3.345,0,0,0-1.149.977,4.521,4.521,0,0,0-.719,1.7,3.3,3.3,0,0,0,.2,2.087,10.119,10.119,0,0,0,.577,1.02c.2.346.422.7.622,1.069a5.311,5.311,0,0,1,.769,2.5l-.064-.067,1.825.044,1.74.043-.067.057a9.489,9.489,0,0,1,.83-2.508,11.626,11.626,0,0,1,.617-1.084,6.354,6.354,0,0,0,.533-1.046,4.008,4.008,0,0,0,.279-2.108,4.175,4.175,0,0,0-.744-1.694,3.629,3.629,0,0,0-1.142-1,4.075,4.075,0,0,0-1.082-.392,4.992,4.992,0,0,0-.723-.089l-.189-.013A.217.217,0,0,1,285.728,98.281Z" transform="translate(-281.621 -98.273)" fill="#263238"/><g transform="translate(1.814 3.29)"><path d="M287.147,109.748s0-.019-.009-.055l-.02-.164c-.017-.147-.041-.36-.071-.633-.057-.549-.143-1.345-.182-2.333-.009-.247-.015-.506-.015-.776s0-.551.029-.842a2.359,2.359,0,0,1,.234-.873,1.338,1.338,0,0,1,.7-.645.9.9,0,0,1,.951.221.669.669,0,0,1,.186.491.854.854,0,0,1-.2.5,1.145,1.145,0,0,1-.438.325,2.208,2.208,0,0,1-.53.152,6.323,6.323,0,0,1-1.116.085,6.587,6.587,0,0,1-1.116-.1,2.109,2.109,0,0,1-.524-.174,1.384,1.384,0,0,1-.431-.334,1.024,1.024,0,0,1-.236-.481.794.794,0,0,1,.084-.519.71.71,0,0,1,.382-.344.637.637,0,0,1,.5.043.957.957,0,0,1,.362.333,1.317,1.317,0,0,1,.169.446,5.3,5.3,0,0,1,.053.9c.007.581.013,1.122.019,1.616.01.986.018,1.785.023,2.34,0,.274,0,.488,0,.636,0,.071,0,.127,0,.166s0,.057,0,.057,0-.019,0-.057l-.005-.165c0-.148-.008-.362-.014-.637-.009-.555-.023-1.353-.041-2.339-.008-.494-.017-1.035-.026-1.615a5.285,5.285,0,0,0-.055-.893,1.25,1.25,0,0,0-.164-.429.891.891,0,0,0-.342-.315.584.584,0,0,0-.46-.04.655.655,0,0,0-.354.32.745.745,0,0,0-.078.485.979.979,0,0,0,.225.456,1.591,1.591,0,0,0,.925.489,6.437,6.437,0,0,0,1.105.1,6.27,6.27,0,0,0,1.107-.083,2.182,2.182,0,0,0,.517-.148,1.1,1.1,0,0,0,.418-.31.808.808,0,0,0,.189-.465.619.619,0,0,0-.171-.452.849.849,0,0,0-.9-.209,1.289,1.289,0,0,0-.673.62,2.316,2.316,0,0,0-.231.855c-.028.288-.029.568-.032.838s0,.527.011.774c.034.986.114,1.783.164,2.333.027.273.047.486.061.633l.015.165C287.147,109.729,287.147,109.748,287.147,109.748Z" transform="translate(-284.346 -103.214)" fill="#263238"/></g><g transform="translate(2.211 9.802)"><path d="M285.024,113.015c.009.009.015.22.022.587q.008.638.017,1.528l-.013-.037,1.13,1.414-.06-.029,1.373-.022-.059.027.716-.806.359-.4-.02.053c.013-.8.027-1.565.039-2.259l.072.074-2.561-.075-.74-.031a1.972,1.972,0,0,1-.276-.021,1.3,1.3,0,0,1,.245-.013l.724-.009,2.61,0h.073v.075c-.007.694-.015,1.455-.023,2.259v.03l-.021.023-.358.4-.718.8-.024.027H287.5l-1.373.011h-.038l-.023-.029-1.107-1.432-.013-.018v-.02l.048-1.565A4.753,4.753,0,0,1,285.024,113.015Z" transform="translate(-284.942 -112.993)" fill="#263238"/></g><g transform="translate(2.326 11.442)"><path d="M288.539,115.964a.819.819,0,0,1-.128-.061c-.081-.041-.2-.1-.35-.155a3.467,3.467,0,0,0-2.464-.024,3.787,3.787,0,0,0-.353.148.781.781,0,0,1-.129.057.671.671,0,0,1,.119-.077,2.882,2.882,0,0,1,.349-.165,3.293,3.293,0,0,1,2.493.024,2.934,2.934,0,0,1,.346.172A.6.6,0,0,1,288.539,115.964Z" transform="translate(-285.114 -115.455)" fill="#263238"/></g><g transform="translate(2.348 10.894)"><path d="M288.571,115.14a.758.758,0,0,1-.128-.06c-.081-.041-.2-.1-.35-.155a3.473,3.473,0,0,0-2.465-.025c-.151.056-.271.109-.353.149a.817.817,0,0,1-.128.058.563.563,0,0,1,.119-.077,2.778,2.778,0,0,1,.349-.166,3.3,3.3,0,0,1,2.492.025,2.789,2.789,0,0,1,.346.172A.631.631,0,0,1,288.571,115.14Z" transform="translate(-285.147 -114.632)" fill="#263238"/></g><g transform="translate(2.336 10.371)"><path d="M288.554,114.355a.757.757,0,0,1-.128-.06c-.081-.041-.2-.1-.35-.155a3.468,3.468,0,0,0-2.465-.024c-.151.055-.271.109-.353.148a.814.814,0,0,1-.129.058.6.6,0,0,1,.119-.077,2.872,2.872,0,0,1,.349-.166,3.3,3.3,0,0,1,2.492.025,2.882,2.882,0,0,1,.346.172A.632.632,0,0,1,288.554,114.355Z" transform="translate(-285.13 -113.847)" fill="#263238"/></g></g><g transform="translate(32.729 50.305)"><g transform="translate(0 0.395)"><path d="M309.119,136.144s-1.344,12.283.384,19.009l16.412-.718s-3.517-12.117-1.358-17.485Z" transform="translate(-308.621 -136.144)" fill="#ebebeb"/></g><g transform="translate(0.563)"><path d="M309.467,135.551s.113,13.261.786,17.307l16.634-.786s-1.461-13.037-.9-16.521Z" transform="translate(-309.467 -135.551)" fill="#ffd947"/><g transform="translate(2.852 5.552)"><path d="M324.912,143.907c0,.061-2.492.261-5.574.447s-5.584.286-5.588.224,2.492-.261,5.574-.446S324.908,143.846,324.912,143.907Z" transform="translate(-313.75 -143.889)" fill="#fff"/></g><g transform="translate(2.857 8.361)"><path d="M324.919,148.125c0,.061-2.492.261-5.574.447s-5.584.286-5.588.225,2.492-.261,5.574-.447S324.915,148.065,324.919,148.125Z" transform="translate(-313.757 -148.108)" fill="#fff"/></g><g transform="translate(4.832 11.108)"><path d="M323.082,152.261a3.92,3.92,0,0,1-.927.135c-.574.055-1.368.115-2.246.168s-1.674.088-2.25.1a3.942,3.942,0,0,1-.936-.022,3.92,3.92,0,0,1,.926-.135c.575-.055,1.368-.115,2.247-.168s1.673-.089,2.25-.1A3.944,3.944,0,0,1,323.082,152.261Z" transform="translate(-316.723 -152.232)" fill="#fff"/></g></g></g><g transform="translate(27.762 28.598)"><path d="M344.62,103.127c0,.1-9.729.173-21.728.173s-21.729-.077-21.729-.173,9.727-.174,21.729-.174S344.62,103.031,344.62,103.127Z" transform="translate(-301.163 -102.953)" fill="#263238"/></g><g transform="translate(27.423 32.558)"><path d="M316.95,109.075c0,.1-3.648.173-8.148.173s-8.149-.077-8.149-.173,3.648-.174,8.149-.174S316.95,108.979,316.95,109.075Z" transform="translate(-300.653 -108.901)" fill="#263238"/></g><g transform="translate(46.095 32.558)"><path d="M334.975,109.075a28.574,28.574,0,0,1-6.281,0,28.466,28.466,0,0,1,6.281,0Z" transform="translate(-328.694 -108.901)" fill="#263238"/></g><g transform="translate(139.694 15.611)"><path d="M472.776,142.348a.493.493,0,0,1-.027-.151c-.012-.121-.026-.267-.044-.445q-.049-.632-.135-1.714c-.1-1.522-.251-3.668-.432-6.307-.333-5.356-.789-12.7-1.293-20.819-.465-8.121-.886-15.472-1.192-20.829-.135-2.642-.244-4.791-.322-6.314q-.044-1.084-.07-1.718c0-.178-.007-.325-.009-.447a.488.488,0,0,1,.009-.153.52.52,0,0,1,.027.151l.044.445q.049.632.135,1.713c.1,1.522.251,3.668.431,6.307.333,5.357.789,12.7,1.294,20.822.464,8.118.885,15.467,1.191,20.825.135,2.642.244,4.791.322,6.315q.044,1.083.07,1.718c0,.178.007.326.009.447A.53.53,0,0,1,472.776,142.348Z" transform="translate(-469.253 -83.451)" fill="#263238"/></g><g transform="translate(0.238 0.144)"><path d="M399.293,60.625s-.131.012-.386.017l-1.133.015-4.355.023L377.4,60.7l-52.843-.065-54.706-.176.028,0a13.164,13.164,0,0,0-6.955,4.336,12.834,12.834,0,0,0-2.7,5.579,13.39,13.39,0,0,0-.258,3.92c.041.448.083.788.121,1.016s.045.346.045.346A9.206,9.206,0,0,1,259.9,74.3a13.135,13.135,0,0,1,2.885-9.624,13.332,13.332,0,0,1,7.042-4.446l.014,0h.015l54.707.065,52.843.166,16.017.091,4.355.042,1.133.019C399.162,60.613,399.293,60.625,399.293,60.625Z" transform="translate(-259.829 -60.223)" fill="#263238"/></g></g><g transform="translate(273.334 79.581)"><g transform="translate(0 0)"><g transform="translate(50.424 230.911)"><g transform="translate(0.05)"><path d="M484.927,446.677l-1.081,13.67s-13.508,4.34-13.586,6.871l26.424.347.781-20.917Z" transform="translate(-470.26 -446.649)" fill="#26aab7"/></g><g transform="translate(20.515 12.269)"><path d="M502.257,465.111a1.082,1.082,0,0,1,.784,1.21,1.039,1.039,0,0,1-1.193.788,1.139,1.139,0,0,1-.823-1.286,1.077,1.077,0,0,1,1.331-.681" transform="translate(-500.992 -465.073)" fill="#ebebeb"/></g><g transform="translate(0 18.797)"><path d="M496.659,477l-.053-2.12-25.023.153s-1.435.854-1.4,1.679Z" transform="translate(-470.185 -474.877)" fill="#ebebeb"/></g><g transform="translate(13.203 13.444)"><path d="M490.013,466.971c.008.129.656.168,1.3.564.659.38,1,.929,1.12.874.118-.029-.1-.8-.89-1.261S489.981,466.854,490.013,466.971Z" transform="translate(-490.012 -466.839)" fill="#263238"/></g><g transform="translate(10.464 14.751)"><path d="M485.9,468.857c-.026.126.54.329.995.862.471.519.6,1.107.728,1.1.122.017.188-.742-.39-1.394S485.9,468.734,485.9,468.857Z" transform="translate(-485.899 -468.801)" fill="#263238"/></g><g transform="translate(7.89 15.976)"><path d="M483.133,472.839c.119.024.278-.627-.074-1.324s-.966-.96-1.017-.851c-.07.109.334.476.615,1.053S483,472.83,483.133,472.839Z" transform="translate(-482.034 -470.64)" fill="#263238"/></g><g transform="translate(13.338 9.951)"><path d="M490.219,462.095c.058.117.645-.08,1.376-.052.732.013,1.307.24,1.371.128.072-.1-.5-.557-1.359-.577S490.153,462,490.219,462.095Z" transform="translate(-490.214 -461.592)" fill="#263238"/></g><g transform="translate(13.212 5.474)"><path d="M490.026,457.1a2.484,2.484,0,0,0,1.324-.047,5.953,5.953,0,0,0,1.373-.467,6.273,6.273,0,0,0,.749-.426,1.632,1.632,0,0,0,.39-.324.562.562,0,0,0,.039-.689.71.71,0,0,0-.575-.278,1.725,1.725,0,0,0-.495.083,4.743,4.743,0,0,0-.814.308,4.664,4.664,0,0,0-1.2.838c-.6.587-.791,1.075-.746,1.1.06.041.346-.372.956-.86a5.292,5.292,0,0,1,1.161-.7,4.924,4.924,0,0,1,.753-.258c.278-.082.516-.091.592.031.027.047.031.065-.025.149a1.333,1.333,0,0,1-.288.236,6.921,6.921,0,0,1-.687.421,7.343,7.343,0,0,1-1.266.529A9.033,9.033,0,0,0,490.026,457.1Z" transform="translate(-490.026 -454.87)" fill="#263238"/></g><g transform="translate(11.56 3.714)"><path d="M489.371,456.4a2.112,2.112,0,0,0,.31-1.289,4.3,4.3,0,0,0-.224-1.444,4.354,4.354,0,0,0-.362-.794,1.1,1.1,0,0,0-.865-.643.618.618,0,0,0-.542.386,1.8,1.8,0,0,0-.121.489,2.94,2.94,0,0,0,.026.892,3.044,3.044,0,0,0,.607,1.351c.537.669,1.081.808,1.09.764.041-.067-.416-.3-.832-.949a3.049,3.049,0,0,1-.456-1.232,2.734,2.734,0,0,1,0-.766c.033-.282.131-.512.238-.487.131-.006.361.2.476.42a4.355,4.355,0,0,1,.35.708,4.742,4.742,0,0,1,.3,1.314C489.424,455.892,489.3,456.38,489.371,456.4Z" transform="translate(-487.545 -452.226)" fill="#263238"/></g></g><g transform="translate(110.881 228.664)"><path d="M572.37,443.274l3.054,15.965,6.056,11.932a1.665,1.665,0,0,1-.834,2.287h0a1.654,1.654,0,0,1-1.52-.113c-2.926-1.8-13.654-8.494-13.812-9.676-.183-1.367-4.34-16.627-4.34-16.627Z" transform="translate(-560.974 -443.274)" fill="#26aab7"/><g transform="translate(4.109 19.323)"><path d="M582.708,483.152l-15.564-10.86.145.673a2.506,2.506,0,0,0,.923,1.464c1.264.969,4.813,3.567,12.927,8.621a1.664,1.664,0,0,0,1.568.1Z" transform="translate(-567.144 -472.292)" fill="#ebebeb"/></g><g transform="translate(4.971 14.563)"><path d="M569.747,465.218a1.008,1.008,0,0,1,.546,1.229.969.969,0,0,1-1.213.553,1.063,1.063,0,0,1-.572-1.3,1,1,0,0,1,1.325-.434" transform="translate(-568.438 -465.144)" fill="#ebebeb"/></g><g transform="translate(14.511 21.642)"><path d="M582.8,478.153a3.595,3.595,0,0,1,2.882-2.279c.005-.042-.222-.123-.605-.1a2.656,2.656,0,0,0-2.229,1.763C582.733,477.909,582.758,478.149,582.8,478.153Z" transform="translate(-582.765 -475.774)" fill="#263238"/></g><g transform="translate(16.12 24.28)"><path d="M585.2,481.362c.091.053.489-.573,1.261-.986a13.529,13.529,0,0,1,1.509-.534,1.846,1.846,0,0,0-1.681.221C585.41,480.538,585.106,481.337,585.2,481.362Z" transform="translate(-585.182 -479.736)" fill="#263238"/></g><g transform="translate(11.843 19.003)"><path d="M578.768,474.555a8.555,8.555,0,0,1,4.082-2.71,4.554,4.554,0,0,0-4.082,2.71Z" transform="translate(-578.759 -471.811)" fill="#263238"/></g><g transform="translate(10.515 15.714)"><path d="M576.768,468.129c.063.087.862-.469,2-.756,1.129-.3,2.1-.207,2.111-.313a4.132,4.132,0,0,0-4.107,1.069Z" transform="translate(-576.764 -466.873)" fill="#263238"/></g><g transform="translate(9.5 11.056)"><path d="M575.244,461.128a5.291,5.291,0,0,1,4.277-.766c.019-.039-.2-.2-.609-.334a3.63,3.63,0,0,0-3.212.576C575.359,460.871,575.213,461.1,575.244,461.128Z" transform="translate(-575.24 -459.877)" fill="#263238"/></g><g transform="translate(8.601 7.585)"><path d="M576.63,457.662a1.41,1.41,0,0,0-.108-.605,4.27,4.27,0,0,0-.816-1.472,1.893,1.893,0,0,0-.984-.713.669.669,0,0,0-.706.3,1.088,1.088,0,0,0-.1.771,2.354,2.354,0,0,0,2.474,1.7,2.731,2.731,0,0,0,2.322-1.96.946.946,0,0,0-.122-.78.657.657,0,0,0-.745-.2,2.33,2.33,0,0,0-.93.77,4.775,4.775,0,0,0-.819,1.468,1.461,1.461,0,0,0-.126.6,7.609,7.609,0,0,1,1.137-1.906,2.178,2.178,0,0,1,.827-.651.351.351,0,0,1,.407.1.652.652,0,0,1,.05.517,2.438,2.438,0,0,1-2.032,1.677,2.045,2.045,0,0,1-2.122-1.409.792.792,0,0,1,.045-.541.362.362,0,0,1,.388-.174,1.71,1.71,0,0,1,.844.589A6.329,6.329,0,0,1,576.63,457.662Z" transform="translate(-573.89 -454.665)" fill="#263238"/></g></g><g transform="translate(62.767 100.691)"><path d="M490.915,255.714c-.169-.005-2.194,133.945-2.194,133.945l16.185-.559,5.6-65.854,1.346-48.345,11.013,44.713,13.737,70.179,16.164-4.057L532.2,254.842,512.829,251.1Z" transform="translate(-488.721 -251.095)" fill="#12263f"/></g><g transform="translate(75.838)"><g transform="translate(0.012)"><path d="M532.66,122.437c1.936-3.826,2.548-10.694.326-14.5s-6.716-6.549-10.941-7.8a3.645,3.645,0,0,0-2.169-.139,1.457,1.457,0,0,0-1.027,1.7,9.243,9.243,0,0,0-2.638-1.524,3.131,3.131,0,0,0-2.907.41,1.921,1.921,0,0,0-.278,2.706,3.3,3.3,0,0,0-4.493,4.069,10.5,10.5,0,0,0,2.156,3.387,2.962,2.962,0,0,1,.679,2.963" transform="translate(-508.367 -99.885)" fill="#263238"/></g><g transform="translate(0 2.161)"><g transform="translate(2.29 0.976)"><path d="M517.845,155.512c.117-1.835.414-18.443.412-18.519,0,0-6.165-.763-6.432-6.9-.128-2.962.1-9.084.376-14.621a11.436,11.436,0,0,1,11.067-10.863l.592-.018c6.394.174,9.817,5.7,9.466,12.088l-.875,35.539" transform="translate(-511.788 -104.596)" fill="#ffbe9d"/><g transform="translate(6.402 29.787)"><path d="M521.469,151.938a14.827,14.827,0,0,0,7.914-2.61s-1.841,3.837-7.979,3.475Z" transform="translate(-521.403 -149.328)" fill="#eb996e"/></g><g transform="translate(1.442 9.28)"><g transform="translate(0 3.476)"><g transform="translate(0 0.112)"><g transform="translate(0 1.336)"><path d="M513.954,126.747a.876.876,0,0,0,.872.858.838.838,0,0,0,.878-.818.877.877,0,0,0-.871-.858A.839.839,0,0,0,513.954,126.747Z" transform="translate(-513.954 -125.928)" fill="#263238"/></g><g transform="translate(0.368)"><path d="M514.521,124.9c.112.111.76-.4,1.7-.428s1.648.424,1.747.3c.049-.053-.069-.255-.376-.465a2.407,2.407,0,0,0-1.4-.386,2.309,2.309,0,0,0-1.351.483C514.558,124.637,514.466,124.847,514.521,124.9Z" transform="translate(-514.506 -123.921)" fill="#263238"/></g></g><g transform="translate(9.448)"><g transform="translate(0 1.585)"><path d="M528.142,126.952a.876.876,0,0,0,.872.857.838.838,0,0,0,.878-.818.877.877,0,0,0-.871-.858A.84.84,0,0,0,528.142,126.952Z" transform="translate(-528.142 -126.133)" fill="#263238"/></g><g transform="translate(0.191)"><path d="M528.445,124.728c.112.111.762-.4,1.7-.428s1.648.423,1.747.3c.049-.053-.067-.256-.377-.465a2.41,2.41,0,0,0-1.4-.386,2.318,2.318,0,0,0-1.352.483C528.482,124.468,528.39,124.678,528.445,124.728Z" transform="translate(-528.43 -123.752)" fill="#263238"/></g></g><g transform="translate(4.027 0.205)"><path d="M522.425,131.928a6.219,6.219,0,0,0-1.54-.229c-.242-.017-.471-.058-.517-.221a1.229,1.229,0,0,1,.138-.719l.655-1.855a31.559,31.559,0,0,0,1.45-4.844,31.53,31.53,0,0,0-1.836,4.717q-.327.976-.625,1.865a1.4,1.4,0,0,0-.1.948.6.6,0,0,0,.407.34,1.616,1.616,0,0,0,.41.045A6.193,6.193,0,0,0,522.425,131.928Z" transform="translate(-520.002 -124.059)" fill="#263238"/></g><g transform="translate(6.318 8.639)"><path d="M526.369,136.725c-.154,0-.124,1.019-.977,1.773s-1.946.675-1.95.818c-.012.065.249.191.71.189a2.551,2.551,0,0,0,1.63-.625,2.222,2.222,0,0,0,.753-1.484C526.561,136.967,526.439,136.717,526.369,136.725Z" transform="translate(-523.442 -136.725)" fill="#263238"/></g></g><g transform="translate(9.29)"><path d="M527.911,119.3c.1.254,1.039.1,2.148.2,1.113.077,2.014.373,2.154.139.062-.113-.1-.348-.469-.585a3.748,3.748,0,0,0-3.278-.259C528.065,118.969,527.867,119.176,527.911,119.3Z" transform="translate(-527.905 -118.531)" fill="#263238"/></g><g transform="translate(0.618 0.796)"><path d="M514.908,120.756c.172.209.814-.033,1.6-.068.779-.062,1.446.1,1.592-.13.063-.111-.047-.322-.342-.516a2.313,2.313,0,0,0-2.568.16C514.916,120.431,514.832,120.654,514.908,120.756Z" transform="translate(-514.881 -119.727)" fill="#263238"/></g></g></g><g transform="translate(23.416 17.385)"><path d="M543.567,129.475c.1-.049,4.176-1.378,4.173,2.82s-4.217,3.329-4.224,3.208S543.567,129.475,543.567,129.475Z" transform="translate(-543.514 -129.237)" fill="#ffbe9d"/><g transform="translate(1.281 1.356)"><path d="M545.441,134.594c.018-.013.073.051.2.108a.73.73,0,0,0,.547.012,1.809,1.809,0,0,0,.838-1.623,2.412,2.412,0,0,0-.2-1.047.843.843,0,0,0-.549-.561.373.373,0,0,0-.432.2c-.056.117-.029.2-.052.208s-.09-.071-.056-.244a.466.466,0,0,1,.165-.263.554.554,0,0,1,.4-.107,1.028,1.028,0,0,1,.763.651,2.485,2.485,0,0,1,.253,1.171,1.9,1.9,0,0,1-1.069,1.812.784.784,0,0,1-.669-.112C545.448,134.7,545.426,134.6,545.441,134.594Z" transform="translate(-545.437 -131.274)" fill="#eb996e"/></g></g><path d="M508.375,107.058c-.491,5.443,6.213,7.715,9.155,4.672,1.36-1.408,2.547-3.166,4.4-3.8a4.983,4.983,0,0,1,3.826.4l.035.018a6.394,6.394,0,0,1,3.018,4.832c.374,2.692-.057,5.065.641,7.536a1.669,1.669,0,0,0,.519.952,1.332,1.332,0,0,0,1.659-.421,5.181,5.181,0,0,0,1.053-2.77,17.262,17.262,0,0,0-.252-6.8,11.758,11.758,0,0,0-3.412-5.828,11.133,11.133,0,0,0-7.9-2.707,13.671,13.671,0,0,0-7.837,3.08,8.013,8.013,0,0,0-2.483,3.047" transform="translate(-508.35 -103.13)" fill="#263238"/></g><g transform="translate(1.439 3.075)"><path d="M513.542,104.523a1.231,1.231,0,0,0-.581.024,2.887,2.887,0,0,0-1.387.772,3.565,3.565,0,0,0-1.041,2.114,4.029,4.029,0,0,0,.8,2.766,5.28,5.28,0,0,0,2.272,1.771,7.136,7.136,0,0,0,2.289.508,8.841,8.841,0,0,0,1.572-.047,1.753,1.753,0,0,0,.565-.117c0-.059-.82.059-2.118-.063a7.453,7.453,0,0,1-2.192-.555,5.138,5.138,0,0,1-2.127-1.687,3.814,3.814,0,0,1-.768-2.546,3.43,3.43,0,0,1,.908-1.985,3.012,3.012,0,0,1,1.257-.81A5.409,5.409,0,0,0,513.542,104.523Z" transform="translate(-510.511 -104.502)" fill="#455a64"/></g><g transform="translate(6.188 1.157)"><path d="M518.734,101.638c0-.017-.154-.047-.4.071a1.323,1.323,0,0,0-.655.9,2.449,2.449,0,0,0,.32,1.607,7.03,7.03,0,0,0,1.15,1.606,7.258,7.258,0,0,0,3,1.9,3.457,3.457,0,0,0,1.451.247c.01-.057-.548-.13-1.374-.461a7.967,7.967,0,0,1-2.845-1.91,7.426,7.426,0,0,1-1.121-1.523,2.319,2.319,0,0,1-.359-1.425,1.274,1.274,0,0,1,.495-.831C518.594,101.681,518.739,101.664,518.734,101.638Z" transform="translate(-517.643 -101.621)" fill="#455a64"/></g></g><g transform="translate(0 49.403)"><path d="M441.025,180.213l-28.87-2.74-4.571-1.1s-10.441-1.867-11.421-2.174c-1.133-.355-1.576.106-1.678.532-.16.665.5,1.376,1.461,1.71.332.116,5.655,1.728,5.655,1.728a13.11,13.11,0,0,0-1.754.582c-1.239.475-2.381,2.142-2.91,4.053s-.508,2.493.224,2.733a.981.981,0,0,0,.83-.148,1.943,1.943,0,0,0,.819-1.113c.889-3.049,2.763-3.359,2.763-3.359l.6.143s-1.891,1.433-1.792,3.072a1.868,1.868,0,0,0,.178.7,2.485,2.485,0,0,0,2.9,3.158c.41-.088.848-.35.891-.768a1.311,1.311,0,0,0-.159-.637,2.046,2.046,0,0,1-.115-.332l1.731.168s3.91.168,5.6.434l27.212,7.043a6.969,6.969,0,0,0,8.523-5.12h0A6.969,6.969,0,0,0,441.025,180.213Z" transform="translate(-394.462 -174.075)" fill="#ffbe9d"/><g transform="translate(8.327 2.782)"><g transform="translate(0.167 0.001)"><path d="M415.78,179.628a1.448,1.448,0,0,1-1.193,1.194c-.586.147-1.2.091-1.8.2-1.779.312-3.107,1.994-4.9,2.219-.25.031-.568-.008-.652-.246-.078-.22.107-.439.275-.6l4.326-4.137" transform="translate(-407.217 -178.254)" fill="#ffbe9d"/></g><path d="M411.753,178.253a2.428,2.428,0,0,0-.514.4c-.315.273-.764.677-1.313,1.181l-1.916,1.783-.551.519c-.162.178-.453.338-.491.751a.507.507,0,0,0,.326.463,1.03,1.03,0,0,0,.486.06,3.889,3.889,0,0,0,.858-.205,22.817,22.817,0,0,0,2.816-1.57,4.507,4.507,0,0,1,1.263-.475c.414-.08.822-.083,1.2-.125a2.1,2.1,0,0,0,1.608-.771c.252-.374.184-.646.173-.636a1.746,1.746,0,0,1-.278.555,2.041,2.041,0,0,1-1.524.612c-.365.026-.776.013-1.229.086a4.641,4.641,0,0,0-1.357.475,26.731,26.731,0,0,1-2.785,1.528,3.652,3.652,0,0,1-.775.188c-.247.027-.464-.054-.446-.186,0-.148.194-.338.382-.513l.543-.527,1.867-1.835c.528-.526.951-.956,1.238-1.259A2.4,2.4,0,0,0,411.753,178.253Z" transform="translate(-406.967 -178.252)" fill="#eb996e"/></g><g transform="translate(2.38 6.745)"><path d="M403.417,184.382a2.467,2.467,0,0,0-1.13.03,1.908,1.908,0,0,0-.958.714,4.9,4.9,0,0,0-.654,1.37,7.767,7.767,0,0,1-.6,1.458,2.505,2.505,0,0,1-.9.941.979.979,0,0,1-.878.055c-.191-.093-.266-.184-.26-.19s.105.049.29.111a.923.923,0,0,0,.771-.111,2.482,2.482,0,0,0,.8-.906,8.508,8.508,0,0,0,.565-1.428,4.747,4.747,0,0,1,.7-1.421,2,2,0,0,1,1.075-.74,1.774,1.774,0,0,1,.879-.007C403.324,184.308,403.422,184.371,403.417,184.382Z" transform="translate(-398.036 -184.204)" fill="#eb996e"/></g><g transform="translate(1.115 2.23)"><path d="M396.137,177.428a6.166,6.166,0,0,1,1.061.314l2.531.819,2.544.782a6.259,6.259,0,0,1,1.048.351,4.92,4.92,0,0,1-1.089-.2c-.665-.158-1.576-.409-2.57-.722s-1.883-.631-2.518-.883A4.964,4.964,0,0,1,396.137,177.428Z" transform="translate(-396.137 -177.424)" fill="#eb996e"/></g><g transform="translate(6.279 8.493)"><path d="M406.2,186.831c.012.012-.073.1-.216.271a1.025,1.025,0,0,0-.293.8.549.549,0,0,0,.356.412,2.91,2.91,0,0,0,.7.164,1.24,1.24,0,0,1,.792.385,1.054,1.054,0,0,1,.168.94,1.2,1.2,0,0,1-.619.718,1.494,1.494,0,0,1-.86.163,4.862,4.862,0,0,1-1.352-.445,2.862,2.862,0,0,1-.79-.542c-.156-.168-.2-.292-.19-.3s.084.093.249.234a3.387,3.387,0,0,0,.8.463,5.2,5.2,0,0,0,1.309.384,1.186,1.186,0,0,0,1.244-.74.849.849,0,0,0-.125-.744,1.06,1.06,0,0,0-.661-.32,2.922,2.922,0,0,1-.743-.2.712.712,0,0,1-.43-.553,1.073,1.073,0,0,1,.384-.886C406.083,186.888,406.186,186.821,406.2,186.831Z" transform="translate(-403.891 -186.83)" fill="#eb996e"/></g><g transform="translate(5.948 10.875)"><path d="M406.785,191.582c0-.011.123,0,.29.123a.961.961,0,0,1,.353.786,1.283,1.283,0,0,1-.721,1.05,2.1,2.1,0,0,1-1.558.083,2.538,2.538,0,0,1-1.276-.9,2.422,2.422,0,0,1-.464-1.183,2.3,2.3,0,0,1,.06-.851c.054-.194.109-.291.121-.287a4.022,4.022,0,0,0-.027,1.116,2.388,2.388,0,0,0,.471,1.082,2.418,2.418,0,0,0,1.18.808,1.948,1.948,0,0,0,1.4-.054,1.14,1.14,0,0,0,.657-.88.916.916,0,0,0-.254-.711C406.885,191.635,406.777,191.6,406.785,191.582Z" transform="translate(-403.394 -190.407)" fill="#eb996e"/></g><g transform="translate(12.653 6.171)"><path d="M414.836,186.673c-.02,0,0-.207.165-.5a2.084,2.084,0,0,1,1.013-.9l0,.194a6.214,6.214,0,0,1-.671-.338,4.752,4.752,0,0,1-1.874-1.785,12.045,12.045,0,0,0,1.985,1.594c.22.128.439.24.645.335l.228.105-.232.089a2.183,2.183,0,0,0-.979.772C414.929,186.5,414.863,186.682,414.836,186.673Z" transform="translate(-413.463 -183.343)" fill="#eb996e"/></g><g transform="translate(4.953 6.782)"><path d="M401.909,184.263c.04-.043.357.281.411.81s-.182.911-.23.878.065-.4.011-.855S401.856,184.3,401.909,184.263Z" transform="translate(-401.9 -184.259)" fill="#eb996e"/></g></g><g transform="translate(26.876 36.696)"><path d="M455.027,187.95l18.829-4.346s-.974,34.52-.971,34.847-1.554.868-1.421,3.373l1.353,2.98,41.289.554,1.114-33.526,3.768-26-8.661-5.359-3.048-4.137L495.368,168.9l-2.962-10.72.085-3.19-2.944,3.195-15.879,4.579-20.979,9.781-14.184-1.083-3.683,12.411Z" transform="translate(-434.822 -154.992)" fill="#26aab7"/><g transform="translate(54.988 3.478)"><path d="M521.313,166.787a1.914,1.914,0,0,0-.852.95,3.84,3.84,0,0,0-.259,1.45,5.473,5.473,0,0,1-.281,1.975l-.143.344-.148-.344a18.78,18.78,0,0,1-.931-3.054c-.5-2.157-.823-4.132-1.037-5.564a13.81,13.81,0,0,1-.25-2.331,18.048,18.048,0,0,1,.491,2.29c.276,1.418.635,3.383,1.133,5.525a20.95,20.95,0,0,0,.884,3h-.291a5.5,5.5,0,0,0,.306-1.861,3.808,3.808,0,0,1,.35-1.518,1.73,1.73,0,0,1,.681-.76C521.178,166.783,521.311,166.775,521.313,166.787Z" transform="translate(-517.399 -160.215)" fill="#263238"/></g><g transform="translate(64.001 4.783)"><path d="M541.12,162.176a2.745,2.745,0,0,1-.4.579c-.276.358-.685.868-1.2,1.494-1.022,1.252-2.453,2.966-4.049,4.844l-2.542,2.966-.2.23L532.66,172c-.361-1.446-.655-2.67-.851-3.528-.08-.43-.321-.677-.553-.681a.5.5,0,0,0-.32.092c-.017.005.046-.176.323-.19a.6.6,0,0,1,.438.18,1.3,1.3,0,0,1,.291.55c.25.851.585,2.06.974,3.5l-.27-.062,2.515-2.989c1.6-1.879,3.056-3.568,4.126-4.779.535-.605.973-1.092,1.281-1.423A2.746,2.746,0,0,1,541.12,162.176Z" transform="translate(-530.934 -162.175)" fill="#263238"/></g><g transform="translate(56.546 16.124)"><path d="M519.816,223a2.156,2.156,0,0,1-.033-.447c-.007-.328-.017-.754-.029-1.281-.021-1.113-.021-2.723,0-4.713.046-3.979.235-9.476.686-15.533s1.086-11.523,1.632-15.466c.272-1.971.513-3.563.7-4.66l.219-1.263a2.257,2.257,0,0,1,.1-.437,2.134,2.134,0,0,1-.031.447c-.039.326-.091.748-.154,1.271-.144,1.145-.344,2.731-.589,4.673-.484,3.946-1.075,9.409-1.53,15.459s-.677,11.538-.786,15.513c-.047,1.956-.085,3.555-.113,4.708-.015.527-.027.952-.036,1.281A2.194,2.194,0,0,1,519.816,223Z" transform="translate(-519.738 -179.206)" fill="#263238"/></g><g transform="translate(52.948 62.094)"><path d="M514.649,254.159a7.754,7.754,0,0,1-.308-2.963,10.659,10.659,0,0,1,.343-2.956,16.027,16.027,0,0,1,0,2.964C514.636,252.83,514.744,254.143,514.649,254.159Z" transform="translate(-514.335 -248.24)" fill="#263238"/></g><g transform="translate(41.855 58.32)"><path d="M526,242.575a7.135,7.135,0,0,1-1.063.4c-.691.24-1.7.557-2.954.922a97.355,97.355,0,0,1-20.08,3.567c-1.3.09-2.36.14-3.09.152a7.034,7.034,0,0,1-1.136-.01,7.1,7.1,0,0,1,1.129-.124l3.078-.262c2.6-.238,6.176-.66,10.094-1.354s7.421-1.536,9.941-2.205l2.981-.814A7.048,7.048,0,0,1,526,242.575Z" transform="translate(-497.677 -242.572)" fill="#263238"/></g><g transform="translate(38.69 14.013)"><path d="M493.062,197.916c-.1,0-.156-4.9-.135-10.94s.116-10.94.212-10.939.156,4.9.135,10.941S493.158,197.916,493.062,197.916Z" transform="translate(-492.924 -176.036)" fill="#263238"/></g></g><g transform="translate(105.663 47.064)"><path d="M557.747,170.562s5.2,4.463,5.544,6.989c.264,1.954,5.381,20.3,7.686,28.513a11.981,11.981,0,0,1-.435,7.746l-6.648,16.449-10.757-6.363,5.378-15.428-4.454-13.09Z" transform="translate(-553.138 -170.562)" fill="#26aab7"/></g><g transform="translate(101.509 48.341)"><path d="M561.811,230.9a.972.972,0,0,1-.2-.1l-.574-.317-2.175-1.245-7.874-4.589-.094-.055.036-.1,5.343-15.44v.116l-1.961-5.264-4.446-11.982.005.013A28.272,28.272,0,0,1,547,183.659a11.605,11.605,0,0,1,.111-3.718,10.972,10.972,0,0,1,1.08-2.991,12.431,12.431,0,0,1,2.778-3.507,9.936,9.936,0,0,1,.934-.74,2.372,2.372,0,0,1,.345-.223,2.415,2.415,0,0,1-.313.266c-.211.166-.52.42-.9.776a12.831,12.831,0,0,0-2.674,3.52,10.872,10.872,0,0,0-1.023,2.945,11.456,11.456,0,0,0-.074,3.637,28.362,28.362,0,0,0,2.895,8.172l0,.006,0,.007c1.376,3.688,2.887,7.734,4.47,11.974.67,1.8,1.328,3.573,1.957,5.266l.021.058-.02.058-5.414,15.415-.058-.159,7.814,4.691,2.138,1.307.554.35A.979.979,0,0,1,561.811,230.9Z" transform="translate(-546.901 -172.479)" fill="#263238"/></g><g transform="translate(88.695 47.074)" opacity="0.3"><path d="M527.658,172.977a1.6,1.6,0,0,1,1.6,1.171c.133.717.033,1.469.22,2.174s.829,1.392,1.544,1.245a1.9,1.9,0,0,0,1.021-.8,24.988,24.988,0,0,0,3.356-6.186c-.02.052-3.688,4.234-3.688,4.234a12.27,12.27,0,0,0-.828-3.08c-.124-.318-.264-.862-.575-1-.5-.229-1.163.5-1.494.943a8.754,8.754,0,0,1-1.155,1.243" transform="translate(-527.658 -170.576)"/></g><g transform="translate(82.676 45.613)" opacity="0.3"><path d="M518.625,168.446a21.585,21.585,0,0,0,1.343,6.847,1.539,1.539,0,0,0,.36.6.553.553,0,0,0,.647.094,7.716,7.716,0,0,0,.661-1.417c.341-.951,1.721-1.039,1.721-1.039a24.8,24.8,0,0,0-.9-3.17.879.879,0,0,0-.858-.553,1.425,1.425,0,0,0-.946,1.085,15.334,15.334,0,0,1-.434,3.088c-.647-1.818-1.171-4.009-1.6-5.6" transform="translate(-518.618 -168.383)"/></g><g transform="translate(71.22 93.256)" opacity="0.3"><path d="M523.091,242.794a1.453,1.453,0,0,0,.318-2.054,2.219,2.219,0,0,0-2.079-.79,4.691,4.691,0,0,0-2.106.95c-.631.455-1.215.979-1.878,1.386a10.806,10.806,0,0,1-5.534,1.262,32.838,32.838,0,0,0-5.732.256,6.589,6.589,0,0,0-4.666,3.021S517.783,245.634,523.091,242.794Z" transform="translate(-501.414 -239.929)"/></g><g transform="translate(94.791 101.945)"><path d="M545.621,271.2a13.539,13.539,0,0,1-4.288-4.42.172.172,0,0,0,.005-.145.238.238,0,0,0-.163-.1,23.185,23.185,0,0,1-1.255-2.2c1.336-.869,3.082-2.184,1.183-2.454-2.337-.332-4.008-1.469-4.246-2.09s.541-1.181,1.157-.783a8.6,8.6,0,0,0,2.25.776,5.609,5.609,0,0,0,1.905.121c.4-.044,1.789-1,3.279-1.7a1.164,1.164,0,0,1,.679-.09l.569-.039a1.765,1.765,0,0,0,1.446-.948l2.16-4.157,6.526,3.861-5.165,7.169A86.274,86.274,0,0,1,545.621,271.2Z" transform="translate(-536.812 -252.977)" fill="#ffbe9d"/></g><g transform="translate(97.598 112.707)"><path d="M548.376,277.354a5.334,5.334,0,0,1-1.5-.711,13.625,13.625,0,0,1-5.3-5.928,5.319,5.319,0,0,1-.537-1.574,17.408,17.408,0,0,0,7.344,8.213Z" transform="translate(-541.027 -269.14)" fill="#455a64"/></g><g transform="translate(79.804 107.597)"><path d="M518.887,278.99c0,.011-.067-.009-.182-.057a2.183,2.183,0,0,1-.463-.294,3.914,3.914,0,0,1-1.065-1.693,27.644,27.644,0,0,1-.724-2.853c-.239-1.077-.489-2.264-.734-3.514-.491-2.5-.865-4.776-1.1-6.427-.119-.826-.205-1.5-.256-1.96a2.92,2.92,0,0,1-.043-.726,2.939,2.939,0,0,1,.176.705l.364,1.941c.3,1.639.713,3.9,1.2,6.4.25,1.241.487,2.424.706,3.514s.4,2.06.644,2.84a4.094,4.094,0,0,0,.924,1.672C518.661,278.855,518.9,278.961,518.887,278.99Z" transform="translate(-514.306 -261.466)" fill="#455a64"/></g><g transform="translate(82.279 109.856)"><path d="M519.573,265.169c0-.02.11-.041.295.021a1.127,1.127,0,0,1,.608.539,1.139,1.139,0,0,1-.062,1.219,1.343,1.343,0,0,1-1.4.532,1.39,1.39,0,0,1-.978-1.132,1.281,1.281,0,0,1,.419-1.145c.552-.475,1.05-.336,1.024-.3a2.072,2.072,0,0,0-.851.477,1.057,1.057,0,0,0-.277.918,1.1,1.1,0,0,0,.751.849,1.05,1.05,0,0,0,1.052-.385.9.9,0,0,0,.1-.924C520.01,265.282,519.548,265.22,519.573,265.169Z" transform="translate(-518.022 -264.857)" fill="#455a64"/></g><g transform="translate(65.026 107.494)"><path d="M496.758,261.311a3.873,3.873,0,0,1,.174,1.534,8.26,8.26,0,0,1-3.442,6.4,3.873,3.873,0,0,1-1.376.7c-.028-.055.5-.316,1.229-.9a9.038,9.038,0,0,0,3.344-6.216C496.769,261.9,496.7,261.318,496.758,261.311Z" transform="translate(-492.113 -261.311)" fill="#455a64"/></g><g transform="translate(43.805 54.173)"><path d="M460.27,187.836a22.309,22.309,0,0,1,.335-3.308,22.267,22.267,0,0,1,.485-3.29,20.486,20.486,0,0,1-.82,6.6Z" transform="translate(-460.246 -181.238)" fill="#263238"/></g><g transform="translate(26.688 53.168)"><path d="M438.411,179.729a.949.949,0,0,1-.045.234l-.176.67-.708,2.531-2.611,9.018-.107-.187c3.765.935,8.3,1.695,13.14,2.586,2.411.448,4.737.938,6.881,1.472h-.078L468.215,193l3.934-.858,1.055-.215a1.832,1.832,0,0,1,.37-.055,1.793,1.793,0,0,1-.356.113l-1.043.269-3.911.953-13.481,3.175-.038.009-.04-.009c-2.137-.523-4.456-1.008-6.864-1.455-4.83-.89-9.377-1.67-13.148-2.638l-.152-.039.045-.148c1.123-3.7,2.061-6.782,2.73-8.982.331-1.055.595-1.9.787-2.508l.218-.657A.9.9,0,0,1,438.411,179.729Z" transform="translate(-434.54 -179.729)" fill="#263238"/></g></g></g><g transform="translate(109.527 90.931)"><g transform="translate(3.587 195.64)"><g transform="translate(2.582)"><path d="M159.656,410.727l-1.923,35.635,12.908,3.119,2.571-34.811Z" transform="translate(-157.733 -410.727)" fill="#aa6550"/></g><g transform="translate(0 35.332)"><path d="M156.054,463.785l-2.2,9.67H168.71l.636-6.3Z" transform="translate(-153.856 -463.785)" fill="#7d6eb2"/><g transform="translate(0.403 7.779)"><path d="M169.215,475.954a10.448,10.448,0,0,1-2.164.124c-1.337.015-3.184-.021-5.22-.1l-5.212-.222a12.129,12.129,0,0,1-2.158-.174,10.513,10.513,0,0,1,2.164-.117c1.337-.011,3.184.026,5.221.1l5.211.216A12.314,12.314,0,0,1,169.215,475.954Z" transform="translate(-154.461 -475.467)" fill="#263238"/></g><g transform="translate(8.361 1.885)"><path d="M166.915,466.616a23.811,23.811,0,0,1-.42,6.235,23.805,23.805,0,0,1,.42-6.235Z" transform="translate(-166.411 -466.616)" fill="#263238"/></g><g transform="translate(0 7.898)" opacity="0.6"><path d="M153.856,477.418H168.71l.142-1.4-14.728-.367-.268,1.6" transform="translate(-153.856 -475.646)" fill="#fff"/></g></g></g><g transform="translate(57.103 212.965)"><path d="M234.221,436.745l3.133,23.611,11.426-.795-2.4-21.646Z" transform="translate(-234.221 -436.745)" fill="#aa6550"/><g transform="translate(2.959 16.304)"><g transform="translate(0 3.713)"><g transform="translate(0 0.237)"><path d="M250.384,467.16h0s12.836,4.338,13.048,6.678l-24.547.716-.22-6.418.908.18A18.243,18.243,0,0,0,250.384,467.16Z" transform="translate(-238.665 -467.16)" fill="#7d6eb2"/></g><g transform="translate(2.186 2.284)" opacity="0.6"><path d="M242.634,470.283a1,1,0,0,0-.659,1.164.964.964,0,0,0,1.148.665,1.059,1.059,0,0,0,.693-1.237,1,1,0,0,0-1.271-.559" transform="translate(-241.948 -470.235)" fill="#fff"/></g><g transform="translate(0.22 5.64)" opacity="0.6"><path d="M238.995,477.265l.01-1.991,23.531.058s1.107.443,1.006,1.217Z" transform="translate(-238.995 -475.274)" fill="#fff"/></g><g transform="translate(9.914)"><path d="M255.752,466.9c0,.121-.6.192-1.177.595-.589.388-.878.916-.99.872-.111-.021.047-.742.756-1.217S255.774,466.794,255.752,466.9Z" transform="translate(-253.553 -466.805)" fill="#263238"/></g><g transform="translate(13.137 1.045)"><path d="M259.975,468.419c.031.115-.483.334-.875.853-.408.507-.494,1.058-.614,1.057-.112.022-.215-.678.285-1.313S259.969,468.3,259.975,468.419Z" transform="translate(-258.393 -468.374)" fill="#263238"/></g><g transform="translate(16.112 2.034)"><path d="M263.019,471.954c-.109.029-.293-.565,0-1.231s.842-.943.895-.844c.071.1-.283.459-.511,1.009S263.138,471.939,263.019,471.954Z" transform="translate(-262.861 -469.86)" fill="#263238"/></g></g><g transform="translate(8.069 1.864)"><path d="M254.557,465.916a2.308,2.308,0,0,1-1.229.029,5.5,5.5,0,0,1-1.3-.358,5.8,5.8,0,0,1-.717-.354,1.538,1.538,0,0,1-.38-.278.522.522,0,0,1-.073-.636.658.658,0,0,1,.517-.29,1.6,1.6,0,0,1,.463.051,4.339,4.339,0,0,1,1.927.95c.585.511.792.954.752.978-.053.041-.341-.326-.934-.744a4.888,4.888,0,0,0-1.114-.585,4.491,4.491,0,0,0-.713-.2c-.262-.061-.483-.057-.546.061-.023.045-.026.063.031.137a1.25,1.25,0,0,0,.279.2,6.5,6.5,0,0,0,.661.352,6.826,6.826,0,0,0,1.2.421A8.336,8.336,0,0,1,254.557,465.916Z" transform="translate(-250.782 -464.028)" fill="#263238"/></g><g transform="translate(11.322)"><path d="M256.038,465.157a1.965,1.965,0,0,1-.359-1.178,3.977,3.977,0,0,1,.42-2.106,1.014,1.014,0,0,1,.766-.643.573.573,0,0,1,.523.328,1.686,1.686,0,0,1,.14.447,2.743,2.743,0,0,1,.025.828,2.823,2.823,0,0,1-.488,1.286c-.461.65-.957.808-.968.767-.042-.059.37-.3.719-.924a2.834,2.834,0,0,0,.355-1.167,2.507,2.507,0,0,0-.043-.71c-.046-.26-.15-.467-.247-.437-.122,0-.324.2-.418.415a4.143,4.143,0,0,0-.285.675,4.458,4.458,0,0,0-.2,1.234C255.961,464.691,256.1,465.137,256.038,465.157Z" transform="translate(-255.667 -461.228)" fill="#263238"/></g></g></g><g transform="translate(6.345 93.446)"><path d="M169.29,257.26s-9.059,15.136-9.059,24.19L158,391.728l14.317,3.412,10.922-107.767s26.451,108.047,27.3,108.047,13.873-2.335,13.873-2.335L204.658,257.745Z" transform="translate(-157.998 -257.26)" fill="#12263f"/><g transform="translate(5.925 27.15)"><path d="M177.9,298.032a1.48,1.48,0,0,1-.027.278c-.029.2-.069.47-.119.81-.117.734-.282,1.777-.493,3.109-.443,2.7-1.057,6.605-1.785,11.438-1.455,9.64-3.271,23.028-4.8,37.882s-2.451,28.315-2.98,38.074c-.267,4.88-.457,8.831-.57,11.561-.063,1.347-.113,2.4-.147,3.144-.02.343-.036.613-.048.817a1.511,1.511,0,0,1-.03.278,1.45,1.45,0,0,1-.011-.28c0-.2.005-.475.009-.818.017-.743.042-1.8.073-3.147.065-2.733.213-6.687.445-11.57.458-9.767,1.35-23.252,2.866-38.1s3.383-28.228,4.913-37.884c.763-4.829,1.42-8.731,1.909-11.421.243-1.327.433-2.366.567-3.1.066-.337.118-.6.156-.8A1.472,1.472,0,0,1,177.9,298.032Z" transform="translate(-166.896 -298.032)" fill="#455a64"/></g><g transform="translate(39.59 28.975)"><path d="M217.453,300.772c.107-.019,4.475,24.183,9.753,54.05s9.474,54.1,9.367,54.124-4.474-24.178-9.755-54.055S217.346,300.791,217.453,300.772Z" transform="translate(-217.451 -300.772)" fill="#455a64"/></g><g transform="translate(22.037 0.248)"><path d="M193.785,287.31a1.082,1.082,0,0,1-.149-.274c-.087-.185-.214-.458-.366-.816a28.881,28.881,0,0,1-1.062-3.111,31.608,31.608,0,0,1-1.023-10.765c.071-1.06.216-2.087.38-3.075.18-.992.432-1.922.683-2.8.5-1.765,1.027-3.329,1.478-4.639s.842-2.361,1.119-3.083l.331-.828a1.054,1.054,0,0,1,.139-.28,1.081,1.081,0,0,1-.073.3l-.27.85c-.256.789-.6,1.841-1.014,3.116-.42,1.317-.92,2.887-1.4,4.647-.241.88-.485,1.809-.656,2.778s-.3,1.994-.369,3.043a33.393,33.393,0,0,0,.914,10.676c.336,1.338.705,2.393.952,3.126A8.263,8.263,0,0,1,193.785,287.31Z" transform="translate(-191.091 -257.633)" fill="#455a64"/></g><g transform="translate(28.77 11.25)"><path d="M201.218,274.309a1.275,1.275,0,0,1,.021.212c.009.16.019.352.032.583.023.542.055,1.27.093,2.178.067,1.892.159,4.525.27,7.672l-.092-.134,5.51,2.245-.152.011,4.475-2.724.291-.176-.083.132c.338-3.64.655-7.06.928-10.012l.151.166-8.239-.077-2.348-.04-.631-.018a1.23,1.23,0,0,1-.228-.017,6.8,6.8,0,0,1,.794-.035l2.313-.04,8.338-.077.166,0-.015.168c-.261,2.954-.564,6.375-.886,10.016l-.008.087-.075.046-.291.176-4.48,2.716-.073.045-.079-.033-5.5-2.281-.091-.038v-.1c-.049-3.188-.09-5.855-.119-7.772-.007-.894-.011-1.611-.015-2.146A5.935,5.935,0,0,1,201.218,274.309Z" transform="translate(-201.203 -274.155)" fill="#455a64"/></g><g transform="translate(6.202 8.491)"><path d="M169.173,270.013a7.269,7.269,0,0,1-.095.742c-.077.506-.181,1.18-.309,2.017-.284,1.753-.677,4.185-1.147,7.09l-.058-.145,4.163,3.087-.145-.027,5.06-1.408.258-.071-.121.119,2.662-9.073.113.19-7.476-1.783-2.13-.525c-.5-.126-.766-.2-.776-.212a5.985,5.985,0,0,1,.728.13l2.112.441,7.609,1.653.158.035-.045.156c-.772,2.679-1.668,5.782-2.622,9.085l-.027.093-.093.026-.258.071-5.063,1.4-.08.022-.065-.049-4.14-3.117-.074-.055.016-.089c.539-2.935.991-5.39,1.316-7.16.158-.818.284-1.476.38-1.97A5.367,5.367,0,0,1,169.173,270.013Z" transform="translate(-167.312 -270.011)" fill="#455a64"/></g><g transform="translate(24.724 27.775)"><path d="M207.383,298.981a56.8,56.8,0,0,1-6.09,1.5,56.915,56.915,0,0,1-6.166,1.161,56.845,56.845,0,0,1,6.092-1.5A57.091,57.091,0,0,1,207.383,298.981Z" transform="translate(-195.127 -298.97)" fill="#455a64"/></g><g transform="translate(8.884 25.889)"><path d="M181.636,298.513a5.521,5.521,0,0,1-1.563,0,25.8,25.8,0,0,1-3.723-.584,25.187,25.187,0,0,1-3.605-1.1,5.613,5.613,0,0,1-1.405-.683,9.234,9.234,0,0,1,1.488.453c.91.294,2.177.669,3.6.993s2.724.547,3.672.679A9.511,9.511,0,0,1,181.636,298.513Z" transform="translate(-171.339 -296.138)" fill="#455a64"/></g></g><g transform="translate(6.087)"><g transform="translate(0 6.829)"><path d="M175.46,127.186c.494,1.426-1.2,2.64-2.666,2.977s-3.253.549-3.927,1.9c-.584,1.171.008,2.658-.523,3.854-1.012,2.275-5.1,1.8-5.9,4.158-.55,1.617.97,3.286.779,4.984-.164,1.463-1.5,2.459-2.679,3.344s-2.411,2.108-2.226,3.568c.214,1.687,2.273,2.854,2.084,4.544-.186,1.663-2.429,2.439-2.751,4.08-.383,1.948,2.056,3.2,2.84,5.024.6,1.394.229,3.188,1.241,4.318,1.037,1.158,2.876.931,4.4.609l15.159-3.214c-1.025-2.4-.061-5.2,1.4-7.358s3.407-3.98,4.661-6.263,1.667-5.34.024-7.362" transform="translate(-157.61 -127.186)" fill="#263238"/></g><g transform="translate(41.408 15.092)"><path d="M222.893,143.453a15.581,15.581,0,0,0-.5-2.394,2.409,2.409,0,0,0-.607-.984c-.3-.284-.689-.1-.936.3a7.4,7.4,0,0,0,0,6.145c.247.409.637.589.936.3a2.409,2.409,0,0,0,.607-.984,15.6,15.6,0,0,0,.5-2.393,1.826,1.826,0,0,1,.052.669,6.407,6.407,0,0,1-.285,1.816,2.594,2.594,0,0,1-.661,1.143.815.815,0,0,1-.806.188,1.326,1.326,0,0,1-.641-.543,7.431,7.431,0,0,1,0-6.549,1.33,1.33,0,0,1,.641-.543.815.815,0,0,1,.806.188,2.594,2.594,0,0,1,.661,1.143,6.4,6.4,0,0,1,.285,1.816A1.835,1.835,0,0,1,222.893,143.453Z" transform="translate(-219.793 -139.594)" fill="#263238"/></g><g transform="translate(15.201)"><g transform="translate(0 2.517)"><path d="M185.015,151.1c-2.742-4.634-3.528-10.806-4.221-16.146-.326-2.513-.9-6.091.868-7.663,1.893-1.684,2.075-4.28,4.25-5.58a6.683,6.683,0,0,1,7.177.08" transform="translate(-180.438 -120.71)" fill="#263238"/></g><g transform="translate(2.861)"><g transform="translate(3.166 5.082)"><path d="M195.637,168.8h0a7.436,7.436,0,0,0,8.019-7.106c.168-4.047.315-8.138.315-8.138s6.135-.557,6.6-6.626.3-20.082.3-20.082h0a21.151,21.151,0,0,0-21.38,1.312l.316,21.364-.034,11.493C189.8,164.876,191.794,168.5,195.637,168.8Z" transform="translate(-189.489 -124.561)" fill="#aa6550"/></g><path d="M202.952,136.956a3.111,3.111,0,0,0-4.145-.918,3.529,3.529,0,0,0-1.189,4.408,4.649,4.649,0,0,0,2.971,2.26,2.331,2.331,0,0,1,1.818,2.515c-.179,1.523-2.716,2.088-3.863,3.345-1.785,1.956-5.692,2.775-8.323,3.078-2.586.3-2.274.324-3.772-1.805a8.153,8.153,0,0,1-1.462-4.932q-.119-6.713-.238-13.427a19.226,19.226,0,0,1,.32-4.816,6.468,6.468,0,0,1,2.552-3.977c1.48-.967,3.35-1.045,5.034-1.584,2.1-.674,3.894-2.063,5.863-3.063s4.383-1.595,6.355-.6c1.416.715,2.362,2.133,3.738,2.921,1.959,1.122,4.631.876,5.576,3.765a4.89,4.89,0,0,1-.042,3.086c-1.342,3.923-6.21,5.492-9.708,3.784-.071.665.579,2.147-.127,4.246-.226.671-.308,1.694-1.358,1.71" transform="translate(-184.735 -116.93)" fill="#263238"/><g transform="translate(14.787 20.864)"><path d="M209.274,151.211c.025.009.024.115-.085.262a.906.906,0,0,1-.678.336,1.671,1.671,0,0,1-1.568-1.68,1.755,1.755,0,0,1,.449-1.283,1.817,1.817,0,0,1,.952-.545c.625-.129.985.1.959.142-.015.069-.374-.029-.875.153a1.523,1.523,0,0,0-1.052,1.513,1.415,1.415,0,0,0,1.138,1.393C209.023,151.534,209.23,151.172,209.274,151.211Z" transform="translate(-206.941 -148.263)" fill="#995037"/></g></g></g><g transform="translate(36.291 18.632)"><path d="M220.342,144.937a44.093,44.093,0,0,1-8.232,1.348,44.24,44.24,0,0,1,8.232-1.348Z" transform="translate(-212.11 -144.91)" fill="#263238"/></g><g transform="translate(18.785 25.425)"><path d="M187.3,168.52a1.765,1.765,0,0,0,2.11.846,5.048,5.048,0,0,0,2.039-1.383,5.342,5.342,0,0,1,2.022-1.413c1.619-.492,3.6.589,4.963-.416,1.24-.915,1.078-2.985,2.3-3.929.646-.5,1.548-.566,2.205-1.052,1.23-.909,1.027-2.94-.007-4.068a8.283,8.283,0,0,0-4.064-1.993l-13.044,5.56Z" transform="translate(-185.82 -155.111)" fill="#263238"/></g><g transform="translate(5.189 15.259)"><path d="M195.975,139.848c0,.006-.033.033-.109.08a3.346,3.346,0,0,1-.345.192,6.935,6.935,0,0,1-1.428.516,16.5,16.5,0,0,1-2.369.376,23.917,23.917,0,0,0-3.113.43,5.863,5.863,0,0,0-3.221,1.759c-.881,1.021-1.209,2.49-1.89,3.909a5.063,5.063,0,0,1-1.518,1.912,7.94,7.94,0,0,1-2.271,1.119c-1.6.537-3.367.86-4.7,1.992a3.37,3.37,0,0,0-1.2,2.134,14.764,14.764,0,0,0,0,2.534,4.148,4.148,0,0,1-2.245,4.2c-1.364.8-2.794,1.229-3.935,1.956a4.61,4.61,0,0,0-1.4,1.3,3.41,3.41,0,0,0-.533,1.661,11.655,11.655,0,0,0,.424,3.085,8.057,8.057,0,0,1,.218,2.4,3.4,3.4,0,0,1-.435,1.458,1.707,1.707,0,0,1-.33.416,3.617,3.617,0,0,0,.611-1.885,8.248,8.248,0,0,0-.28-2.337,11.516,11.516,0,0,1-.487-3.151,3.689,3.689,0,0,1,.555-1.809,4.9,4.9,0,0,1,1.485-1.407c1.185-.768,2.62-1.209,3.922-1.991a3.791,3.791,0,0,0,2.048-3.878,14.827,14.827,0,0,1,0-2.6,3.765,3.765,0,0,1,1.336-2.375c1.446-1.219,3.274-1.534,4.835-2.058a7.606,7.606,0,0,0,2.167-1.054,4.7,4.7,0,0,0,1.42-1.772c.667-1.354,1.01-2.863,1.966-3.96a6.123,6.123,0,0,1,3.408-1.819,22.946,22.946,0,0,1,3.155-.378,17.924,17.924,0,0,0,2.355-.306A10.624,10.624,0,0,0,195.975,139.848Z" transform="translate(-165.403 -139.845)" fill="#455a64"/></g><g transform="translate(14.896 17.392)"><path d="M197.331,143.093c0,.043-.468,0-1.27.182a5.768,5.768,0,0,0-2.925,1.748,5.277,5.277,0,0,0-1.165,2.038,9.162,9.162,0,0,0-.238,2.724,7.12,7.12,0,0,1-.451,3.115,3.175,3.175,0,0,1-1.139,1.281,13.783,13.783,0,0,1-1.5.8,3.916,3.916,0,0,0-1.3.922,2.33,2.33,0,0,0-.509,1.4,7.678,7.678,0,0,1-.349,3.11,5.123,5.123,0,0,1-2.029,2.012c-.766.455-1.508.791-2.138,1.171a5.282,5.282,0,0,0-1.5,1.246,3.419,3.419,0,0,0-.648,1.313,3.045,3.045,0,0,0,.023,1.258.763.763,0,0,1-.133-.312,2.28,2.28,0,0,1-.04-.976,3.449,3.449,0,0,1,.623-1.416,5.361,5.361,0,0,1,1.534-1.35c.637-.4,1.38-.759,2.112-1.212a4.851,4.851,0,0,0,1.873-1.89,7.617,7.617,0,0,0,.291-2.981,2.712,2.712,0,0,1,.593-1.619,4.262,4.262,0,0,1,1.42-1.023,4.593,4.593,0,0,0,2.474-1.9,6.9,6.9,0,0,0,.435-2.945,9.264,9.264,0,0,1,.288-2.82,5.5,5.5,0,0,1,1.273-2.132,5.708,5.708,0,0,1,3.1-1.709,4.048,4.048,0,0,1,.966-.073A1.063,1.063,0,0,1,197.331,143.093Z" transform="translate(-179.98 -143.048)" fill="#455a64"/></g></g><g transform="translate(25.843 35.984)"><path d="M204.721,174.734l-1.578-3.248-13.713-.517-2.152,4.218H204.5" transform="translate(-187.278 -170.969)" fill="#7d6eb2"/></g><g transform="translate(0 21.339)"><g transform="translate(45.935 21.229)"><path d="M261.93,207.365c-.1-.493,3.628-19.854,4.655-25.171a1.125,1.125,0,0,0-1.105-1.338H238.025a1.125,1.125,0,0,0-1.1.866l-5.622,23.7-13.856,1.033.487.909Z" transform="translate(-217.451 -180.855)" fill="#12263f"/><g transform="translate(14.782 1.302)"><path d="M268.155,206.309l4.442-23.473L245.608,183l-5.928,23.343Z" transform="translate(-239.66 -182.819)" fill="#ebebeb"/><path d="M239.649,206.35l0-.021,5.931-23.355h.013l27.009-.164,0,.021-4.444,23.486h-.014Zm5.962-23.343-5.919,23.311,28.439-.034,4.436-23.439Z" transform="translate(-239.649 -182.81)" fill="#263238"/></g><g transform="translate(7.975 24.782)"><path d="M264.7,218.243c0,.1-7.9.173-17.637.173s-17.638-.077-17.638-.173,7.9-.173,17.638-.173S264.7,218.147,264.7,218.243Z" transform="translate(-229.427 -218.07)" fill="#263238"/></g><g transform="translate(19.877 3.862)"><g transform="translate(0 2.153)"><path d="M268.812,202.9a1.354,1.354,0,0,1-.353.035l-1.011.033-3.72.055c-3.141.032-7.479.051-12.272.051l-3.938,0H247.3l.054-.21c.956-3.7,1.79-6.925,2.4-9.291.3-1.118.549-2.03.734-2.711a6.565,6.565,0,0,1,.3-.97,6.608,6.608,0,0,1-.191,1c-.16.688-.374,1.607-.637,2.736-.581,2.372-1.375,5.612-2.284,9.32l-.164-.21,3.938,0c4.792,0,9.131.019,12.272.051l3.72.055,1.011.033A1.381,1.381,0,0,1,268.812,202.9Z" transform="translate(-247.301 -189.889)" fill="#455a64"/><g transform="translate(1.962 9.857)"><path d="M250.247,206.956l.505-2.264h3.473l-.444,2.264Z" transform="translate(-250.247 -204.692)" fill="#12263f"/></g><g transform="translate(6.685 7.665)"><path d="M257.34,205.856l1.049-4.456h3.473l-.988,4.456Z" transform="translate(-257.34 -201.4)" fill="#12263f"/></g><g transform="translate(11.408 9.857)"><path d="M264.432,206.956l.505-2.264h3.473l-.444,2.264Z" transform="translate(-264.432 -204.692)" fill="#12263f"/></g><g transform="translate(16.131 3.464)"><path d="M271.525,203.748l1.989-8.657h3.473l-1.928,8.657Z" transform="translate(-271.525 -195.091)" fill="#12263f"/></g><g transform="translate(1.883 14.464)"><path d="M252.931,211.8a5.761,5.761,0,0,1-2.8-.027,5.739,5.739,0,0,1,2.8.027Z" transform="translate(-250.128 -211.61)" fill="#455a64"/></g><g transform="translate(6.461 14.458)"><path d="M259.807,211.787a5.764,5.764,0,0,1-2.8-.027,5.764,5.764,0,0,1,2.8.027Z" transform="translate(-257.003 -211.6)" fill="#455a64"/></g><g transform="translate(11.039 14.45)"><path d="M266.683,211.776a5.763,5.763,0,0,1-2.8-.027,5.764,5.764,0,0,1,2.8.027Z" transform="translate(-263.879 -211.589)" fill="#455a64"/></g><g transform="translate(15.618 14.443)"><path d="M273.558,211.765a5.762,5.762,0,0,1-2.8-.027,5.761,5.761,0,0,1,2.8.027Z" transform="translate(-270.755 -211.578)" fill="#455a64"/></g></g><g transform="translate(3.916 0.962)"><path d="M260.955,188.272a43.547,43.547,0,0,1-7.774,0,43.719,43.719,0,0,1,7.774,0Z" transform="translate(-253.181 -188.099)" fill="#455a64"/></g><g transform="translate(4.156)"><path d="M256.988,186.828a8.627,8.627,0,0,1-3.446,0,8.661,8.661,0,0,1,3.446,0Z" transform="translate(-253.542 -186.655)" fill="#455a64"/></g></g></g><g transform="translate(60.338 46.435)"><path d="M244.711,234.286l15.888-11.5-.591-.962a7.672,7.672,0,0,0-3.714-3.116l-2.484.446L239.08,221.4Z" transform="translate(-239.08 -218.708)" fill="#7d6eb2"/></g><g transform="translate(8.981 43.191)"><path d="M162.461,230.015l13.2-5.245-2.946-10.933-10.758,3.657Z" transform="translate(-161.956 -213.837)" fill="#d5f2e8"/></g><g transform="translate(0 18.094)"><path d="M213.889,220.374c3.29-1.634,4.135-5.558,2.528-8.861l-13.678-29.231a5.277,5.277,0,0,0-1.376-1.887,15.466,15.466,0,0,0-11.314-3.874l-14.265-.374s-11.2,0-15.409,8.832c-.308.646-6.821,13.564-11.115,22.077a7.363,7.363,0,0,0,4.038,10.229h0a7.365,7.365,0,0,0,9.257-3.9l4.665-10.4,2.937,14.9L165.93,230.16l35.367.485-2.72-16.424-.858-11.711,7.173,14.791a6.689,6.689,0,0,0,9,3.072Z" transform="translate(-148.469 -176.147)" fill="#7d6eb2"/><g transform="translate(22.686 30.698)" opacity="0.2"><path d="M182.735,233c2.678,2,6.621,1.336,9.921.788a14.324,14.324,0,0,0,8.64-4.68,5.808,5.808,0,0,0,1.6-4.084,2.925,2.925,0,0,0-2.945-2.761c-1.709.206-2.532,2.122-3.355,3.633a13.253,13.253,0,0,1-13.808,6.485S182.258,232.643,182.735,233Z" transform="translate(-182.536 -222.247)"/></g><g transform="translate(44.722 18.434)" opacity="0.2"><path d="M215.629,203.83c.834,6.728.461,6.216,1.864,12.849.691,3.262,1.529,6.667,3.779,9.128l-1.114-14.047Z" transform="translate(-215.629 -203.83)"/></g></g><g transform="translate(11.511)"><path d="M165.755,148.975" transform="translate(-165.755 -148.975)" fill="none" stroke="#839198" stroke-miterlimit="10" stroke-width="1"/></g><g transform="translate(16.448 64.724)"><path d="M174.183,253.556l-1.014-2.953,2.635-1.755,32.443-2.675,2.288,4.3-.985,3.571Z" transform="translate(-173.169 -246.172)" fill="#7d6eb2"/></g><g transform="translate(19.739 12.701)"><path d="M182.533,171.79a4.839,4.839,0,0,0-2.254,7.223,2.355,2.355,0,0,1,.619,1.34c-.063,1.2-2,1.231-2.609,2.263a1.859,1.859,0,0,0,.519,2.168,14.749,14.749,0,0,0,2,1.334,2.435,2.435,0,0,1,1.225,1.95c.677-.019,1.077-.838.974-1.508a6.578,6.578,0,0,0-.832-1.841,1.932,1.932,0,0,1-.084-1.93c.443-.63,1.344-.656,2.062-.934a2.876,2.876,0,0,0,1.524-3.7c-.435-.974-1.448-1.958-.955-2.9.275-.527.907-.729,1.427-1.017a3.714,3.714,0,0,0,.482-6.184" transform="translate(-178.111 -168.048)" fill="#263238"/></g><g transform="translate(12.388 46.357)"><path d="M173.35,218.591a8.7,8.7,0,0,1-.719,1.661c-.492,1-1.212,2.369-2.08,3.836s-1.722,2.756-2.365,3.669a8.722,8.722,0,0,1-1.111,1.43,10.1,10.1,0,0,1,.906-1.565c.589-.946,1.405-2.249,2.271-3.71s1.615-2.8,2.162-3.774A10.11,10.11,0,0,1,173.35,218.591Z" transform="translate(-167.072 -218.59)" fill="#263238"/></g><g transform="translate(14.081 51.968)"><path d="M171.087,227.017a5.668,5.668,0,0,1-1.464,4.569c-.085-.059.513-.969.909-2.228S170.983,227.016,171.087,227.017Z" transform="translate(-169.615 -227.017)" fill="#263238"/></g><g transform="translate(55.324 26.401)"><path d="M243.6,214.629c-.087.041-2.853-5.749-6.178-12.93s-5.952-13.038-5.865-13.078,2.853,5.749,6.179,12.932S243.683,214.589,243.6,214.629Z" transform="translate(-231.551 -188.622)" fill="#263238"/></g><g transform="translate(44.48 22.543)"><path d="M221.306,182.833c.021.055-.6.273-1.478.822a9.194,9.194,0,0,0-4.288,6.532c-.153,1.027-.108,1.679-.166,1.683a4.374,4.374,0,0,1-.077-1.712,8.575,8.575,0,0,1,4.407-6.714A4.349,4.349,0,0,1,221.306,182.833Z" transform="translate(-215.265 -182.828)" fill="#263238"/></g><g transform="translate(14.876 29.629)"><path d="M177.58,223.816c-.094.021-1.685-6.756-3.553-15.135s-3.308-15.191-3.214-15.211,1.684,6.754,3.553,15.136S177.674,223.8,177.58,223.816Z" transform="translate(-170.809 -193.47)" fill="#263238"/></g><g transform="translate(79.716 47.739)"><path d="M270.322,223.439l6.449-2.774H268.18l1.877,2.432" transform="translate(-268.18 -220.665)" fill="#aa6550"/></g><g transform="translate(65.525 48.232)"><path d="M249.952,224.4a11.191,11.191,0,0,1-1.564-1.47,11.31,11.31,0,0,1-1.516-1.52,7.545,7.545,0,0,1,3.08,2.991Z" transform="translate(-246.869 -221.406)" fill="#263238"/></g><g transform="translate(44.595 36.099)"><path d="M227.562,226.879a6.113,6.113,0,0,1-.543-.9c-.331-.587-.792-1.446-1.351-2.513-1.12-2.134-2.608-5.111-4.238-8.4s-3.123-6.264-4.23-8.4l-1.311-2.531a6.046,6.046,0,0,1-.449-.948,6.1,6.1,0,0,1,.567.882c.347.578.828,1.426,1.41,2.482,1.164,2.11,2.694,5.068,4.325,8.363l4.145,8.446,1.253,2.562A6.1,6.1,0,0,1,227.562,226.879Z" transform="translate(-215.438 -203.186)" fill="#263238"/></g><g transform="translate(25.884 50.747)"><path d="M205.427,225.184c.011,0,.008.081-.01.232a5.136,5.136,0,0,1-.111.656,8.562,8.562,0,0,1-.881,2.284,12.939,12.939,0,0,1-5.97,5.3,26.033,26.033,0,0,1-7.8,1.946c-1.021.115-1.851.182-2.423.22a4.433,4.433,0,0,1-.894.023,4.4,4.4,0,0,1,.88-.157l2.406-.33a28.362,28.362,0,0,0,7.684-2.018,13.238,13.238,0,0,0,5.9-5.105A12.823,12.823,0,0,0,205.427,225.184Z" transform="translate(-187.34 -225.183)" fill="#263238"/></g><g transform="translate(17.235 67.882)"><path d="M193.972,250.936c.007.1-4.381.481-9.8.861s-9.817.611-9.823.515,4.38-.481,9.8-.861S193.966,250.841,193.972,250.936Z" transform="translate(-174.351 -250.915)" fill="#263238"/></g><g transform="translate(42.493 65.273)"><path d="M212.3,247a16.036,16.036,0,0,1,.707,6.716c-.1,0-.143-1.512-.341-3.359S212.2,247.02,212.3,247Z" transform="translate(-212.281 -246.997)" fill="#263238"/></g><g transform="translate(44.132 63.156)"><path d="M215.4,243.818a4.382,4.382,0,0,1,.294,1.34,16.979,16.979,0,0,1-.46,6.574,4.365,4.365,0,0,1-.478,1.286c-.1-.03.515-2.026.685-4.575C215.627,245.9,215.291,243.833,215.4,243.818Z" transform="translate(-214.743 -243.818)" fill="#263238"/></g></g><g transform="translate(29.19 39.152)"><path d="M206.436,176.556c-.005.1-3.174,0-7.075-.224s-7.062-.475-7.057-.57,3.173,0,7.076.224S206.441,176.46,206.436,176.556Z" transform="translate(-192.304 -175.725)" fill="#263238"/></g></g><g transform="translate(419.102 138.174)"><g transform="translate(0 0)"><path d="M656.828,192.686l-2.82-4.81-2.677,4.81H613.365v19.849h59.12V192.686Z" transform="translate(-613.365 -187.876)" fill="#7d6eb2"/><g transform="translate(4.589 9.281)"><path d="M626.3,207.441a2.911,2.911,0,0,0,1.758-2.679,2.737,2.737,0,1,0-5.462-.072,2.907,2.907,0,0,0,1.717,2.734c-4.208.6-4.056,5.167-4.056,5.167l9.938.13S630.46,208.105,626.3,207.441Z" transform="translate(-620.256 -201.814)" fill="#fafafa"/><g transform="translate(14.081 1.311)"><path d="M675.106,203.884c0,.056-7.545.1-16.851.1s-16.853-.045-16.853-.1,7.544-.1,16.853-.1S675.106,203.827,675.106,203.884Z" transform="translate(-641.401 -203.782)" fill="#fafafa"/></g><g transform="translate(14.081 4.337)"><path d="M675.106,208.428c0,.057-7.545.1-16.851.1s-16.853-.045-16.853-.1,7.544-.1,16.853-.1S675.106,208.372,675.106,208.428Z" transform="translate(-641.401 -208.327)" fill="#fafafa"/></g><g transform="translate(14.081 7.364)"><path d="M675.106,212.973c0,.057-7.545.1-16.851.1s-16.853-.045-16.853-.1,7.544-.1,16.853-.1S675.106,212.917,675.106,212.973Z" transform="translate(-641.401 -212.872)" fill="#fafafa"/></g><g transform="translate(14.081 10.359)"><path d="M658.254,217.472c0,.056-3.773.1-8.426.1s-8.427-.046-8.427-.1,3.772-.1,8.427-.1S658.254,217.416,658.254,217.472Z" transform="translate(-641.401 -217.37)" fill="#fafafa"/></g></g></g></g><g transform="translate(74.231 39.112)"><g transform="translate(0 101.199)"><g transform="translate(2.518)"><g transform="translate(0.18 0.065)"><path d="M113.688,193.6a10.487,10.487,0,0,1,2.692.711l1.978-1.657,3.4,2.586-1.071,2.349a10.442,10.442,0,0,1,1.4,2.4l2.57.227.574,4.231-2.417.9a10.455,10.455,0,0,1-.711,2.692l1.657,1.979-2.586,3.4-2.349-1.07a10.467,10.467,0,0,1-2.405,1.4l-.226,2.57-4.232.575-.9-2.417a10.469,10.469,0,0,1-2.692-.711l-1.978,1.658-3.4-2.586,1.071-2.349a10.494,10.494,0,0,1-1.4-2.405l-2.57-.226-.575-4.232,2.417-.9a10.405,10.405,0,0,1,.711-2.692l-1.658-1.978,2.586-3.4,2.349,1.071a10.48,10.48,0,0,1,2.405-1.4l.226-2.57,4.232-.574.9,2.417Zm-1.737,5.875a4.581,4.581,0,1,0,5.155,3.923A4.581,4.581,0,0,0,111.95,199.473Z" transform="translate(-99.516 -191.181)" fill="#26aab7"/></g><g transform="translate(8.499 8.261)"><path d="M116.124,203.585a.886.886,0,0,1,.288-.062,3.569,3.569,0,0,1,.847-.018,4.559,4.559,0,0,1,2.809,1.291,4.712,4.712,0,0,1-.023,6.75,4.723,4.723,0,0,1-5.578.757,4.713,4.713,0,0,1-1.821-6.5,4.557,4.557,0,0,1,2.363-1.992,3.563,3.563,0,0,1,.821-.208.9.9,0,0,1,.295-.017c.007.039-.4.079-1.062.36a4.568,4.568,0,0,0-2.189,1.987,4.458,4.458,0,0,0-.035,4.238,4.37,4.37,0,0,0,1.8,1.815,4.391,4.391,0,0,0,5.153-.7,4.365,4.365,0,0,0,1.253-2.229,4.457,4.457,0,0,0-1.163-4.076,4.57,4.57,0,0,0-2.64-1.332C116.532,203.554,116.127,203.625,116.124,203.585Z" transform="translate(-112.008 -203.489)" fill="#e8505b"/></g><path d="M113.6,193.565a.677.677,0,0,1-.068-.144l-.184-.451-.707-1.8.063.038-4.227.608.081-.085c-.065.78-.136,1.645-.212,2.572l-.005.065-.061.026a10.407,10.407,0,0,0-2.372,1.4l-.058.045-.067-.031-2.353-1.061.159-.041-2.574,3.406,0-.181,1.663,1.974.06.071-.035.086a10.328,10.328,0,0,0-.695,2.653l-.011.1-.091.034-2.415.908.106-.176c.182,1.329.38,2.762.581,4.23l-.155-.148,2.57.223.106.009.041.1a10.378,10.378,0,0,0,1.381,2.363l.067.085-.045.1-1.069,2.35-.055-.219,3.4,2.584-.229.006,1.978-1.659.086-.072.1.043a10.322,10.322,0,0,0,2.642.7h0l.151.119v0l0,.005,0,.009.007.019.014.038.029.077.057.152.113.3.227.606.449,1.2-.2-.118,4.232-.573-.158.165.228-2.57.01-.109.1-.042a10.314,10.314,0,0,0,2.365-1.376l.086-.067.1.045,2.348,1.073-.214.054,2.591-3.394,0,.212-1.654-1.982-.065-.077.039-.093a10.315,10.315,0,0,0,.705-2.648l.013-.1.091-.033,2.419-.9-.1.164c-.2-1.489-.384-2.895-.561-4.233l.127.122-2.569-.235-.081-.007-.031-.074a10.352,10.352,0,0,0-1.376-2.381l-.045-.059.031-.066,1.081-2.343.033.132-3.382-2.607.1,0-1.994,1.64-.028.023-.033-.014a11.063,11.063,0,0,0-1.993-.627l-.508-.1a.72.72,0,0,1-.168-.038.961.961,0,0,1,.172.007c.114.012.286.032.515.071a9.98,9.98,0,0,1,2.027.577l-.061.009,1.963-1.676.05-.043.053.041,3.414,2.565.069.052-.036.081-1.059,2.353-.015-.125a10.575,10.575,0,0,1,1.429,2.429l-.111-.081,2.571.218.113.009.015.113c.185,1.338.38,2.742.586,4.23l.017.122-.115.043-2.415.909.1-.13a10.611,10.611,0,0,1-.716,2.735l-.026-.169,1.661,1.975.088.1-.083.109-2.581,3.4-.085.113-.129-.059-2.35-1.068.184-.021a10.647,10.647,0,0,1-2.446,1.428l.111-.152q-.111,1.273-.224,2.57l-.013.146-.145.02-4.232.575-.146.02-.052-.138-.45-1.205-.227-.606-.113-.3-.057-.152-.028-.076-.015-.038-.007-.019,0-.009v-.007l.15.119h0a10.667,10.667,0,0,1-2.736-.723l.188-.029-1.979,1.657-.113.094-.117-.089-3.4-2.588-.115-.088.06-.132,1.073-2.347.021.184a10.7,10.7,0,0,1-1.423-2.447l.146.107-2.57-.23-.137-.013-.018-.136c-.2-1.47-.389-2.9-.567-4.233l-.017-.131.123-.046,2.419-.9-.1.129a10.6,10.6,0,0,1,.729-2.73l.024.157-1.653-1.983-.075-.09.071-.092,2.6-3.389.064-.085.1.044,2.345,1.08-.125.015a10.6,10.6,0,0,1,2.438-1.406l-.067.091c.087-.925.168-1.79.241-2.568l.007-.075.074-.01,4.236-.539.048-.006.015.044.64,1.8c.066.194.119.348.16.47A.958.958,0,0,1,113.6,193.565Z" transform="translate(-99.245 -191.084)" fill="#e8505b"/></g><g transform="translate(0 29.477)"><g transform="translate(0.113 0.041)"><path d="M104.534,236.93a6.6,6.6,0,0,1,1.69.446l1.243-1.041,2.134,1.624-.672,1.475a6.6,6.6,0,0,1,.881,1.51l1.614.143.36,2.658-1.518.567A6.576,6.576,0,0,1,109.82,246l1.041,1.243-1.624,2.134-1.475-.673a6.576,6.576,0,0,1-1.511.881l-.142,1.614-2.658.361-.567-1.518a6.575,6.575,0,0,1-1.691-.446l-1.243,1.041-2.134-1.624.673-1.475a6.621,6.621,0,0,1-.881-1.51l-1.613-.143-.361-2.658,1.518-.567a6.583,6.583,0,0,1,.447-1.691l-1.041-1.243,1.624-2.134,1.476.673a6.545,6.545,0,0,1,1.51-.881l.143-1.614,2.657-.36.568,1.518Zm-1.091,3.69a2.877,2.877,0,1,0,3.238,2.464A2.878,2.878,0,0,0,103.443,240.619Z" transform="translate(-95.634 -235.412)" fill="none"/></g><g transform="translate(5.337 5.188)"><path d="M106.064,243.2a.558.558,0,0,1,.181-.039,2.216,2.216,0,0,1,.532-.011,2.863,2.863,0,0,1,1.764.81,2.96,2.96,0,0,1-.015,4.24,2.965,2.965,0,0,1-3.5.475,2.959,2.959,0,0,1-1.144-4.083,2.863,2.863,0,0,1,1.484-1.251,2.2,2.2,0,0,1,.515-.131.552.552,0,0,1,.185-.011c0,.025-.252.05-.667.226a2.867,2.867,0,0,0-1.374,1.249,2.8,2.8,0,0,0-.023,2.662,2.745,2.745,0,0,0,1.132,1.14,2.758,2.758,0,0,0,3.237-.44,2.748,2.748,0,0,0,.787-1.4,2.8,2.8,0,0,0-.731-2.559,2.868,2.868,0,0,0-1.657-.837C106.32,243.183,106.066,243.227,106.064,243.2Z" transform="translate(-103.479 -243.142)" fill="#263238"/></g><path d="M104.478,236.909a.416.416,0,0,1-.043-.091l-.115-.283q-.159-.4-.444-1.131l.04.024-2.655.382.051-.053c-.041.49-.085,1.033-.133,1.615l0,.041-.039.017a6.54,6.54,0,0,0-1.49.878l-.036.029-.043-.019-1.478-.667.1-.025-1.617,2.139,0-.114,1.045,1.24.037.044-.023.055a6.484,6.484,0,0,0-.436,1.666l-.007.06-.057.021-1.516.571.066-.111c.115.834.238,1.735.366,2.657l-.1-.093,1.614.141.067.005.025.062a6.524,6.524,0,0,0,.868,1.484l.042.054-.028.062-.671,1.476-.035-.138,2.135,1.623-.144,0,1.242-1.041.054-.045.065.027a6.478,6.478,0,0,0,1.659.438h0l.095.075h0v0l0,.006,0,.012.009.024.018.048.035.1.071.191.143.38c.095.253.189.506.282.757l-.124-.075,2.658-.36-.1.1q.072-.815.143-1.614l.007-.069.063-.026a6.459,6.459,0,0,0,1.486-.864l.054-.042.062.029,1.474.674-.135.033q.834-1.091,1.627-2.132l0,.134-1.039-1.245-.041-.049.024-.058a6.476,6.476,0,0,0,.443-1.663l.007-.061.057-.021,1.519-.563-.062.1c-.124-.935-.241-1.818-.353-2.658l.081.077-1.613-.148-.051,0-.019-.047a6.517,6.517,0,0,0-.864-1.5l-.028-.037.019-.042.68-1.472.021.083-2.124-1.637h.065l-1.252,1.029-.018.015-.021-.009A6.9,6.9,0,0,0,104.9,237l-.319-.063a.419.419,0,0,1-.105-.024.6.6,0,0,1,.108,0c.072.007.18.02.324.045a6.282,6.282,0,0,1,1.273.362l-.038.006,1.233-1.052.032-.027.033.025,2.144,1.611.043.033-.023.051-.665,1.478-.009-.078a6.643,6.643,0,0,1,.9,1.525l-.069-.051,1.614.137.071.006.01.071c.117.84.238,1.722.368,2.656l.01.077-.072.027-1.517.571.065-.081a6.639,6.639,0,0,1-.45,1.717l-.016-.107,1.043,1.241.055.065-.052.069-1.621,2.136-.053.07-.081-.037-1.476-.671.115-.013a6.69,6.69,0,0,1-1.536.9l.069-.1q-.069.8-.141,1.614l-.008.091-.091.013-2.658.362-.092.013-.033-.087-.283-.757-.142-.38-.071-.191-.036-.1-.018-.047-.009-.024,0-.012,0-.006v0l.094.075h0a6.69,6.69,0,0,1-1.719-.454l.119-.019-1.243,1.041-.071.059-.073-.056-2.133-1.625-.073-.055.037-.083.675-1.474.013.115a6.681,6.681,0,0,1-.894-1.537l.092.068-1.613-.144-.087-.008-.011-.085c-.124-.923-.244-1.823-.356-2.658l-.011-.083.077-.029,1.519-.564-.065.082a6.683,6.683,0,0,1,.457-1.715l.015.1-1.038-1.245-.047-.057.044-.058,1.631-2.128.041-.053.06.028,1.472.678-.079.009a6.64,6.64,0,0,1,1.532-.883l-.042.057.151-1.613,0-.048.047-.006,2.66-.338.03,0,.009.027.4,1.131.1.3A.63.63,0,0,1,104.478,236.909Z" transform="translate(-95.464 -235.351)" fill="#263238"/></g></g><g transform="translate(65.043)"><g transform="translate(0)"><circle cx="14.479" cy="14.479" r="14.479" transform="translate(0 8.263) rotate(-16.58)" fill="#f5f5f5"/><g transform="translate(3.497 3.404)"><path d="M198.456,57.879a1.2,1.2,0,0,1,.014.236c0,.172,0,.4.007.689v.506c.009.186.037.388.056.608a10.491,10.491,0,0,0,.209,1.507,13.836,13.836,0,0,0,1.357,3.923,14.345,14.345,0,0,0,16.792,7.222,13.168,13.168,0,0,0,3.742-1.709,13.11,13.11,0,0,0,3.218-2.836,13.846,13.846,0,0,0,2.3-3.8,14.179,14.179,0,0,0,.593-9.011,13.847,13.847,0,0,0-1.782-4.07,13.1,13.1,0,0,0-2.819-3.233,13.168,13.168,0,0,0-3.487-2.185A14.383,14.383,0,0,0,201.06,50.69,13.827,13.827,0,0,0,199.2,54.4a10.542,10.542,0,0,0-.4,1.466c-.048.216-.1.413-.135.6s-.047.35-.067.5c-.041.285-.073.511-.1.681a1.222,1.222,0,0,1-.045.232,1.15,1.15,0,0,1,.01-.234c.016-.172.037-.4.063-.687q.023-.23.051-.507c.027-.185.077-.384.119-.6a10.279,10.279,0,0,1,.378-1.486,13.711,13.711,0,0,1,1.827-3.779,14.584,14.584,0,0,1,10.248-6.261,14.645,14.645,0,0,1,7.628,1.117,13.416,13.416,0,0,1,3.571,2.223,13.375,13.375,0,0,1,2.891,3.3,14.145,14.145,0,0,1,1.829,4.163,14.488,14.488,0,0,1-.607,9.225,14.164,14.164,0,0,1-2.357,3.888,13.4,13.4,0,0,1-3.3,2.895,13.5,13.5,0,0,1-3.83,1.737,14.643,14.643,0,0,1-7.707.11,14.58,14.58,0,0,1-9.342-7.547,13.715,13.715,0,0,1-1.318-3.986,10.251,10.251,0,0,1-.18-1.523c-.014-.222-.036-.426-.039-.613l.016-.509c.011-.289.02-.517.027-.69A1.191,1.191,0,0,1,198.456,57.879Z" transform="translate(-198.392 -44.223)" fill="#263238"/></g></g><g transform="translate(17.834 9.921)"><path d="M226.671,62.544a2.955,2.955,0,0,1-.511.033l-1.407.029c-1.195.017-2.858.028-4.736.031h-.093v-.093c0-.3,0-.618,0-.939,0-2.1.011-4,.027-5.37.012-.663.022-1.211.03-1.627a3.593,3.593,0,0,1,.037-.6,3.654,3.654,0,0,1,.036.6c.008.417.018.965.03,1.627.017,1.374.027,3.273.027,5.37,0,.321,0,.638,0,.939l-.093-.093c1.878,0,3.541.014,4.736.031l1.407.029A2.822,2.822,0,0,1,226.671,62.544Z" transform="translate(-219.923 -54.01)" fill="#263238"/></g><g transform="translate(17.879 5.908)"><path d="M220.083,47.984a4.018,4.018,0,0,1,.094,1.216,4.021,4.021,0,0,1-.094,1.217,4.058,4.058,0,0,1-.093-1.217A4.055,4.055,0,0,1,220.083,47.984Z" transform="translate(-219.99 -47.984)" fill="#263238"/></g><g transform="translate(22.871 7.858)"><path d="M229.185,50.916a7.677,7.677,0,0,1-1.7,1.7,7.754,7.754,0,0,1,1.7-1.7Z" transform="translate(-227.487 -50.913)" fill="#263238"/></g><g transform="translate(26.377 12.069)"><path d="M234.8,57.242a14.159,14.159,0,0,1-2.048,1.245,5.34,5.34,0,0,1,2.048-1.245Z" transform="translate(-232.752 -57.236)" fill="#263238"/></g><g transform="translate(27.371 18.234)"><path d="M237.561,66.589a14.8,14.8,0,0,1-3.317,0,14.694,14.694,0,0,1,3.317,0Z" transform="translate(-234.244 -66.495)" fill="#263238"/></g><g transform="translate(4.557 18.013)"><path d="M203.117,66.257a13.209,13.209,0,0,1-3.133,0,13.116,13.116,0,0,1,3.133,0Z" transform="translate(-199.984 -66.163)" fill="#263238"/></g><g transform="translate(6.83 22.76)"><path d="M205.884,73.294a13.656,13.656,0,0,1-2.484,2,13.583,13.583,0,0,1,2.484-2Z" transform="translate(-203.398 -73.291)" fill="#263238"/></g><g transform="translate(11.663 26.362)"><path d="M212.321,78.7a10.685,10.685,0,0,1-.806,1.4,10.633,10.633,0,0,1-.855,1.366,8.276,8.276,0,0,1,1.661-2.763Z" transform="translate(-210.656 -78.7)" fill="#263238"/></g><g transform="translate(17.879 27.69)"><path d="M220.083,84.011a7.469,7.469,0,0,1-.093-1.658,7.472,7.472,0,0,1,.093-1.659,7.4,7.4,0,0,1,.094,1.659A7.4,7.4,0,0,1,220.083,84.011Z" transform="translate(-219.99 -80.694)" fill="#263238"/></g><g transform="translate(22.637 26.632)"><path d="M229.62,81.271a7.15,7.15,0,0,1-2.482-2.164,15.346,15.346,0,0,1,1.238,1.085A15.3,15.3,0,0,1,229.62,81.271Z" transform="translate(-227.136 -79.105)" fill="#263238"/></g><g transform="translate(26.41 23.117)"><path d="M234.868,75.894A11.41,11.41,0,0,1,232.8,73.83a11.409,11.409,0,0,1,2.064,2.064Z" transform="translate(-232.802 -73.828)" fill="#263238"/></g><g transform="translate(7.355 11.839)"><path d="M205.995,58.7a8.792,8.792,0,0,1-1.806-1.806,8.7,8.7,0,0,1,1.806,1.806Z" transform="translate(-204.186 -56.891)" fill="#263238"/></g><g transform="translate(11.529 7.518)"><path d="M212.229,52.17a8.417,8.417,0,0,1-1.773-1.765,8.417,8.417,0,0,1,1.773,1.765Z" transform="translate(-210.454 -50.402)" fill="#263238"/></g></g><g transform="translate(113.732 179.848)"><path d="M295.662,335.609a3.257,3.257,0,0,1-.565.037l-1.621.035-5.962.059-19.668.055h-1.588v-.185c.023-7.347.043-13.935.057-18.732.025-2.353.044-4.264.058-5.628.014-.635.025-1.143.034-1.526a2.921,2.921,0,0,1,.037-.531,3.053,3.053,0,0,1,.036.531c.009.383.02.89.034,1.526.014,1.364.034,3.276.058,5.628.015,4.8.035,11.385.057,18.732l-.185-.185h1.4l19.668.055,5.962.059,1.621.035A3.247,3.247,0,0,1,295.662,335.609Z" transform="translate(-266.258 -309.193)" fill="#263238"/><g transform="translate(2.907 6.408)"><path d="M293.874,318.817a7.535,7.535,0,0,1-.872.832l-2.467,2.166c-2.093,1.817-5,4.306-8.229,7.038l-.489.414-.126.106-.12-.111-3.66-3.4.228.005-5.375,4.434-1.56,1.247a3.444,3.444,0,0,1-.583.417,3.409,3.409,0,0,1,.51-.5l1.5-1.322,5.289-4.536.115-.1.113.1,3.677,3.382-.246-.005.489-.414c3.227-2.732,6.162-5.189,8.3-6.955l2.542-2.076A7.405,7.405,0,0,1,293.874,318.817Z" transform="translate(-270.623 -318.816)" fill="#263238"/></g><g transform="translate(19.261 6.08)"><path d="M302.08,324.774a9.208,9.208,0,0,1-.129-1.823c-.033-1.129-.055-2.7-.057-4.442l.185.186h-.316c-1.818,0-3.463-.021-4.654-.055a9.942,9.942,0,0,1-1.927-.131,10.008,10.008,0,0,1,1.927-.131c1.191-.033,2.836-.054,4.654-.054h.5v.185c0,1.746-.023,3.312-.057,4.442A9.18,9.18,0,0,1,302.08,324.774Z" transform="translate(-295.183 -318.324)" fill="#263238"/></g></g></g></g></svg>