<svg xmlns="http://www.w3.org/2000/svg" width="252.868" height="225.48" viewBox="0 0 252.868 225.48"><g transform="translate(-791.133 -24842.977)"><rect width="252.868" height="225.481" transform="translate(791.133 24842.977)" fill="#ff95e6"/><g transform="translate(5280.994 25591.363)"><g transform="translate(-4454.501 -684.012)"><path d="M-4388.3-612.812c-.186.217-.312.342-.413.484a50.911,50.911,0,0,1-3.675,4.582,13.48,13.48,0,0,1-3.3,2.859,5.711,5.711,0,0,1-2.951.772,5.668,5.668,0,0,1-3.151-1.095,10.744,10.744,0,0,1-2.924-3.223c-.482-.773-.887-1.594-1.328-2.392-.084-.153-.177-.3-.312-.53-.139.229-.239.375-.322.53a51.827,51.827,0,0,1-4.538,7.018,41.55,41.55,0,0,1-3.624,4.171,30.769,30.769,0,0,1-12.2,7.751,17.019,17.019,0,0,1-6.71.924,10.475,10.475,0,0,1-8.187-4.655,17.321,17.321,0,0,1-1.785-3.549c-.047-.119-.108-.233-.172-.369-.28.118-.305.368-.368.571-.251.808-.488,1.62-.72,2.434q-.238.837-.446,1.683a1.586,1.586,0,0,1-1.019,1.135,5.165,5.165,0,0,1-2.6.25,8.061,8.061,0,0,1-2.441-.66,4.759,4.759,0,0,1-2.9-3.716,12.13,12.13,0,0,1,.254-4.492,79.462,79.462,0,0,1,2.278-8.141q2.418-7.718,4.874-15.423,1.543-4.863,3.109-9.718,1.768-5.522,3.536-11.044,1.4-4.359,2.814-8.713,2.16-6.677,4.318-13.354c.054-.166.083-.34.15-.617-.295.086-.5.126-.686.2-2.252.938-4.5,1.875-6.75,2.829-1.129.48-2.242,1-3.368,1.491a4.861,4.861,0,0,1-2.052.542,1,1,0,0,1-1.1-1.069,5.378,5.378,0,0,1,.134-1.429,21.2,21.2,0,0,1,1.819-4.781,12.42,12.42,0,0,1,3.415-3.845,25.457,25.457,0,0,1,5.11-2.976,75.38,75.38,0,0,1,13.066-4.487,35.242,35.242,0,0,1,6.081-.987c1.059-.07,2.119-.179,3.177-.163a27.17,27.17,0,0,1,8.707,1.383,18.653,18.653,0,0,1,7.54,4.686,22.018,22.018,0,0,1,3.729,4.958,16.473,16.473,0,0,1,1.86,6.047,14.845,14.845,0,0,1-2.021,8.88,66.648,66.648,0,0,1-5.066,7.746,45.668,45.668,0,0,1-8.27,8.379c-2.058,1.6-4.176,3.118-6.266,4.674-.126.094-.241.2-.433.364.228.081.357.142.494.173a11.618,11.618,0,0,1,6.087,3.662,16.13,16.13,0,0,1,3.4,6.3c.053.174.11.347.172.518.016.043.062.075.138.164a2.989,2.989,0,0,0,.264-.343,35.6,35.6,0,0,1,3.425-5.069,30.889,30.889,0,0,1,7.817-7.1,19.633,19.633,0,0,1,7.941-2.877,15.037,15.037,0,0,1,5.78.271,6.881,6.881,0,0,1,1.075.387,3.538,3.538,0,0,1,2.266,3.771A5.209,5.209,0,0,1-4376.7-634a2.425,2.425,0,0,1-3.25.632,14.683,14.683,0,0,1-1.327-.963c-.317-.239-.621-.5-.942-.734a4.254,4.254,0,0,0-4.649-.351,12.127,12.127,0,0,0-2.586,1.763,43.051,43.051,0,0,0-4.61,4.748,50.428,50.428,0,0,0-3.785,4.938,23.8,23.8,0,0,0-3.069,6.121,10.06,10.06,0,0,0-.521,3.477,5.7,5.7,0,0,0,.978,3.091,2.841,2.841,0,0,0,1.546,1.268,2.541,2.541,0,0,0,2.166-.472,16.489,16.489,0,0,0,1.667-1.338,18.694,18.694,0,0,0,3.574-4.636c1.848-3.283,3.667-6.583,5.548-9.847.845-1.465,1.806-2.863,2.725-4.284.188-.291.438-.543.638-.827a2.2,2.2,0,0,1,2.331-.873,5.149,5.149,0,0,1,1.91.681,1.917,1.917,0,0,1,.975,2.151,12.02,12.02,0,0,1-.858,2.383c-1.285,3.185-2.593,6.361-3.866,9.551a15.7,15.7,0,0,0-1.05,3.677,4.571,4.571,0,0,0,.053,1.428.718.718,0,0,0,1.225.493,9.25,9.25,0,0,0,2-1.787,43.566,43.566,0,0,0,4.271-6.359c2.33-4.158,4.426-8.437,6.554-12.7a2.708,2.708,0,0,0,.279-1.637,7.644,7.644,0,0,1,.176-2.522,10.8,10.8,0,0,1,2.377-5.188,5.08,5.08,0,0,1,1.938-1.445,4.77,4.77,0,0,1,2.6-.173,6.407,6.407,0,0,1,1.3.335,2.036,2.036,0,0,1,1.331,2.6,9.118,9.118,0,0,1-.372,1.027c-.27.713-.573,1.415-.8,2.141a5.53,5.53,0,0,0-.17,1.223,2.2,2.2,0,0,0,.851,1.928c.393.329.836.6,1.251.9.6.439,1.218.866,1.8,1.333a3.093,3.093,0,0,1,1.084,1.743,6.634,6.634,0,0,1-.305,4.244c-.836,1.953-1.723,3.883-2.548,5.84-.6,1.421-1.192,2.85-1.679,4.311a7.537,7.537,0,0,0-.352,3.581,1.576,1.576,0,0,0,2.417,1.144,13.625,13.625,0,0,0,3.838-3.431,2.7,2.7,0,0,0,.467-1.443,67.253,67.253,0,0,1,2.158-9.806,99.045,99.045,0,0,1,5.6-14.735,108.1,108.1,0,0,1,7.075-12.691,111.454,111.454,0,0,1,8.585-11.54c1.829-2.15,3.715-4.25,5.717-6.242a19.071,19.071,0,0,1,3.306-2.628,3.556,3.556,0,0,1,3.984-.005,8.945,8.945,0,0,1,2.675,2.5,10,10,0,0,1,1.4,2.513,3.752,3.752,0,0,1-.018,2.665,100.292,100.292,0,0,1-5.892,12.841c-1.858,3.489-3.867,6.89-5.984,10.227-3.266,5.148-6.771,10.129-10.474,14.972q-4.174,5.462-8.655,10.676-1.377,1.607-2.785,3.188a1.455,1.455,0,0,0-.381.84,21.812,21.812,0,0,0-.014,4.373q.124,1.436.32,2.866a3.532,3.532,0,0,0,.666,1.593,1.408,1.408,0,0,0,2.151.426,7.649,7.649,0,0,0,1.235-1,24.061,24.061,0,0,0,4.122-5.222c.949-1.711,1.8-3.479,2.644-5.245.522-1.091.956-2.225,1.42-3.343a3.873,3.873,0,0,0,.233-2.05c-.093-.689-.115-1.388-.167-2.082a1.23,1.23,0,0,1,.376-.989,9.21,9.21,0,0,1,5.141-2.738.947.947,0,0,1,1.162.625,13.723,13.723,0,0,1,.531,1.861c.167.744.241,1.508.427,2.246a11.212,11.212,0,0,0,.608,1.675,1.215,1.215,0,0,0,.873.675,3.684,3.684,0,0,0,2.71-.23,2.261,2.261,0,0,0,1.1-1.165,52.921,52.921,0,0,1,5.438-9.715,26.052,26.052,0,0,1,4.716-5.175,15.7,15.7,0,0,1,1.412-1.02,1.291,1.291,0,0,1,1.943.392c.17.244.32.5.468.764a9.56,9.56,0,0,0,1.6,2.089,1.583,1.583,0,0,1,.406,1.819,7.1,7.1,0,0,1-1.517,2.32c-1.1,1.217-2.233,2.412-3.349,3.619a28.088,28.088,0,0,0-4.918,7.21,50.894,50.894,0,0,0-2.6,6.085,8.875,8.875,0,0,0-.521,2.726c.011,1.607.839,2.265,2.477,2.153a9.336,9.336,0,0,0,4.073-1.5,25.17,25.17,0,0,0,4.241-3.211,1.078,1.078,0,0,0,.363-1,15.773,15.773,0,0,1,.107-3.425,24.7,24.7,0,0,1,3.957-10.168,40.159,40.159,0,0,1,9.235-10.094,7.017,7.017,0,0,1,3.076-1.451,5.223,5.223,0,0,1,3.683.7,14.649,14.649,0,0,1,1.876,1.387,16.5,16.5,0,0,1,1.312,1.293,4.121,4.121,0,0,1,1.092,3.672,11.58,11.58,0,0,1-1.015,3.164,36.582,36.582,0,0,1-5.159,7.9,63.074,63.074,0,0,1-10.774,10.158.729.729,0,0,0-.339.833,9.222,9.222,0,0,0,.735,2.419,3.236,3.236,0,0,0,3.414,1.8,11.277,11.277,0,0,0,4.289-1.507,83.808,83.808,0,0,0,7.438-4.534,58.259,58.259,0,0,0,10.225-8.689c1.243-1.357,2.376-2.815,3.561-4.226.171-.2.335-.413.52-.6a.9.9,0,0,1,1.328-.074,4.39,4.39,0,0,1,.762.849,13.988,13.988,0,0,1,1.734,3.842,2.332,2.332,0,0,1-.033,1.372,8.193,8.193,0,0,1-1.618,2.723,30.7,30.7,0,0,1-4.019,4,98.09,98.09,0,0,1-10.682,7.821,26.15,26.15,0,0,1-7.362,3.337,16.18,16.18,0,0,1-5.471.553,13.345,13.345,0,0,1-7.849-3.3,14.5,14.5,0,0,1-2.337-2.575c-.283-.4-.306-.4-.7-.124a23.928,23.928,0,0,1-5.621,2.966,11.487,11.487,0,0,1-3.793.73,7.276,7.276,0,0,1-3.96-1.161,12.13,12.13,0,0,1-3.984-4.305,6.742,6.742,0,0,1-.923-3.415,9.673,9.673,0,0,1,.2-2.622,1.708,1.708,0,0,0,0-.39c-.145-.044-.3-.092-.451-.137-.763-.226-1.532-.43-2.285-.684a4.144,4.144,0,0,1-1.608-.97,1.965,1.965,0,0,0-.261-.175c-.059.19-.118.335-.15.486a15.716,15.716,0,0,1-.97,3.339c-.6,1.312-1.207,2.624-1.889,3.894a41.45,41.45,0,0,1-3.281,5.284,21.54,21.54,0,0,1-4.248,4.385,10.544,10.544,0,0,1-2.418,1.374,6.258,6.258,0,0,1-5.992-.571,10.889,10.889,0,0,1-4.9-7.039c-.114-.5-.152-1.015-.229-1.522-.027-.172-.065-.343-.113-.6-.3.2-.536.351-.764.509A8.791,8.791,0,0,1-4356.8-606a5.531,5.531,0,0,1-3.966-.435,9.852,9.852,0,0,1-3.723-2.927,7.061,7.061,0,0,1-1.325-3.238,12.932,12.932,0,0,1,.688-6.418c.688-1.937,1.5-3.832,2.213-5.76a24.841,24.841,0,0,0,.812-2.659,1.864,1.864,0,0,0-.7-2.041,8.466,8.466,0,0,0-1.029-.694c-.386-.218-.5-.162-.693.237-.616,1.251-1.223,2.506-1.848,3.753-1.8,3.577-3.71,7.088-5.773,10.518a44.283,44.283,0,0,1-3.8,5.537,12.715,12.715,0,0,1-2.838,2.7,6.319,6.319,0,0,1-4.52.967,5,5,0,0,1-3.492-2.5,10.508,10.508,0,0,1-1.251-3.077C-4388.107-612.26-4388.194-612.484-4388.3-612.812Zm-45.023-24.306c.253-.076.4-.117.553-.166.236-.077.469-.167.707-.237a52.736,52.736,0,0,1,6.315-1.374,8.073,8.073,0,0,0,2.682-.849,49.705,49.705,0,0,0,4.7-3c2.444-1.75,4.785-3.633,7.073-5.583a19.372,19.372,0,0,0,1.738-1.566,81.273,81.273,0,0,0,6-7.248,32.137,32.137,0,0,0,3.9-6.7,10.97,10.97,0,0,0,.974-5.326,6.306,6.306,0,0,0-.807-2.593,9.49,9.49,0,0,0-6-4.364,16.191,16.191,0,0,0-5.883-.29,40.187,40.187,0,0,0-6.152,1.158,73.1,73.1,0,0,0-11.413,4.1,4.9,4.9,0,0,0-.49.3c.19.179.315.308.452.423a27.331,27.331,0,0,1,2.8,2.963,3.521,3.521,0,0,1,.768,2.6,19.368,19.368,0,0,1-.792,4.6q-.822,2.948-1.739,5.868c-1.067,3.4-2.175,6.794-3.25,10.194-.68,2.151-1.331,4.311-1.992,6.468C-4433.23-637.567-4433.259-637.394-4433.322-637.118Zm18.521,25.141a2.488,2.488,0,0,0,.243-.306,27.613,27.613,0,0,0,3.07-8.111,11.8,11.8,0,0,0,.1-4.107,8.215,8.215,0,0,0-4.219-5.967,14.112,14.112,0,0,0-5.514-1.734,1.964,1.964,0,0,0-1.113.119,35.07,35.07,0,0,1-7.1,2.418,24.618,24.618,0,0,1-5.368.678l-.9,0a.4.4,0,0,0-.434.328c-.022.1-.059.19-.086.286q-.735,2.533-1.468,5.065-1.881,6.5-3.757,13c-.048.165-.066.339-.1.509l.105.068c.225-.181.458-.353.673-.545a35.428,35.428,0,0,1,4.684-3.536,20.232,20.232,0,0,1,8.5-3.2,14.014,14.014,0,0,1,4.6.195,14.546,14.546,0,0,1,7.576,4.331C-4415.15-612.317-4414.986-612.161-4414.8-611.976Zm69.98-13.262c.138-.018.183-.01.2-.028.266-.3.535-.588.791-.893a126.049,126.049,0,0,0,9.194-12.511,137.7,137.7,0,0,0,7.189-12.514c1.07-2.117,2.084-4.264,3.065-6.424.733-1.615,1.381-3.27,2.05-4.914a6.74,6.74,0,0,0,.287-1.053c.049-.215.053-.483-.171-.569a.767.767,0,0,0-.55.1,2.894,2.894,0,0,0-.584.461,46.613,46.613,0,0,0-4.123,4.457,73.622,73.622,0,0,0-6.261,9.1,96.982,96.982,0,0,0-4.632,8.753c-1.14,2.47-2.274,4.946-3.3,7.465-1.068,2.626-2,5.307-2.992,7.965C-4344.724-625.668-4344.758-625.476-4344.822-625.238Zm-90.38,24.059a8.747,8.747,0,0,0,.288,1.349,3.279,3.279,0,0,0,2.274,2.244,4.149,4.149,0,0,0,1.871-.008,11.336,11.336,0,0,0,3.315-1.314,40.736,40.736,0,0,0,7.65-5.847,1.745,1.745,0,0,0,.378-.515,5.98,5.98,0,0,0,.646-2.484,2.4,2.4,0,0,0-1.464-2.391,4.749,4.749,0,0,0-1.878-.43,12.3,12.3,0,0,0-2.87.2,12.667,12.667,0,0,0-4.759,1.79,16.807,16.807,0,0,0-3.746,3.468,8.913,8.913,0,0,0-1.22,2.044A5.907,5.907,0,0,0-4435.2-601.179Zm134.472-16.4c.372-.245.666-.421.94-.623a34.49,34.49,0,0,0,10.131-11.6,26.281,26.281,0,0,0,1.117-2.441,1.991,1.991,0,0,0,.114-.922.645.645,0,0,0-.962-.512,2.551,2.551,0,0,0-.38.235,29.85,29.85,0,0,0-6.767,6.411,22.642,22.642,0,0,0-4.006,8.057A3.712,3.712,0,0,0-4300.729-617.581Z" transform="translate(4454.501 684.012)" fill="#fff"/><path d="M-1530.15-151.412a4.506,4.506,0,0,1-.916,2.734,22.579,22.579,0,0,1-5.145,5.435c-1.086.816-2.128,1.694-3.16,2.578a6.006,6.006,0,0,0-.857,1.025.8.8,0,0,1-1.024.374,5.994,5.994,0,0,1-4.185-4.8,7.583,7.583,0,0,1,.842-4.523,19.285,19.285,0,0,1,2.677-3.886,18.105,18.105,0,0,1,3.19-2.99,9.914,9.914,0,0,1,2.314-1.253,4.666,4.666,0,0,1,1.807-.277,2.131,2.131,0,0,1,1.523.639,28.406,28.406,0,0,1,1.965,2.177A4.117,4.117,0,0,1-1530.15-151.412Z" transform="translate(1690.404 183.25)" fill="#fff"/></g></g></g></svg>