<svg xmlns="http://www.w3.org/2000/svg" width="252.868" height="225.48" viewBox="0 0 252.868 225.48"><g transform="translate(-1083.133 -24842.977)"><rect width="252.868" height="225.481" transform="translate(1083.133 24842.977)"/><g transform="translate(7051.765 24704.701)"><g transform="translate(-5927.823 182.392)"><path d="M-5302.253,252.648V224.01a42.026,42.026,0,0,1,6.671-.11c.018.019.036.037.052.056s.045.039.045.059q.025,20.237.046,40.473v.806c-.279-.169-.471-.267-.644-.391a75.175,75.175,0,0,1-26.146-32.835,112.819,112.819,0,0,1-5.788-18.624c-1.2-5.36-2.11-10.771-2.8-16.219-.227-1.792-.372-1.318,1.012-2.242a73.922,73.922,0,0,1,26.8-11.045,82.068,82.068,0,0,1,19.437-1.475,76.838,76.838,0,0,1,27.078,5.936,73.133,73.133,0,0,1,12.765,6.942c.209.142.412.293.648.462-.125,1-.235,1.992-.375,2.975-.621,4.373-1.336,8.729-2.257,13.051a107.681,107.681,0,0,1-8,24.387,75.091,75.091,0,0,1-24.364,28.752,3.33,3.33,0,0,1-.319.21c-.038.021-.1,0-.187,0V223.985a43.08,43.08,0,0,1,6.671-.1c.02.253.057.519.058.785q.007,4.178,0,8.356,0,9.353,0,18.706c0,.322.017.645.03,1.157.478-.481.821-.817,1.153-1.162a68.706,68.706,0,0,0,13.634-20.86,106.117,106.117,0,0,0,5.831-18.527c1-4.436,1.762-8.914,2.419-13.411.025-.174.019-.353.028-.564-.213-.14-.421-.285-.637-.417a69.155,69.155,0,0,0-23.385-8.983,76.4,76.4,0,0,0-19.149-1.171,70.391,70.391,0,0,0-32.741,10.126,1.049,1.049,0,0,0-.614,1.218c.719,4.694,1.515,9.372,2.586,14a99.927,99.927,0,0,0,7.065,20.844,67.627,67.627,0,0,0,12.521,18.058c.227.233.462.457.693.685Z" transform="translate(5376.739 -182.392)" fill="#fff"/><path d="M-5044.808,438.455V445.1h-51.93v-6.594C-5096.172,438.361-5046.079,438.306-5044.808,438.455Z" transform="translate(5160.476 -418.736)" fill="#fff"/><path d="M-4798.651,770.5l-3.351-1.988V723.7h6.7c.023.22.061.417.061.613q0,21.76.012,43.52a.979.979,0,0,1-.551.977C-4796.734,769.342-4797.669,769.916-4798.651,770.5Z" transform="translate(4888.343 -682.182)" fill="#fff"/><path d="M-4978.3,582.791v6.674h-39.654a45.846,45.846,0,0,1-.016-6.674Z" transform="translate(5087.855 -552.084)" fill="#fff"/><path d="M-3980.252,1505.791c.2-.013.424-.04.648-.041,1.712,0,3.425.023,5.136-.017a.958.958,0,0,1,1.021.68q3.852,8.3,7.741,16.589c.118.252.245.5.431.877.691-1.237,1.169-2.458,1.731-3.635.572-1.2,1.112-2.411,1.666-3.618l1.661-3.62q.831-1.81,1.663-3.619t1.669-3.605h6.48c.1.278.113.482-.223.515-.279.027-.562.016-.841.041a1.955,1.955,0,0,0-2.058,1.937c-.041.432-.059.867-.06,1.3q-.006,7.742,0,15.485a9.789,9.789,0,0,0,.128,1.6,1.771,1.771,0,0,0,1.791,1.661c.4.039.811.006,1.236.006.125.365.177.61-.263.638-.127.008-.255.009-.383.009q-4.255,0-8.51,0c-.2,0-.4-.028-.657-.048-.011-.164-.02-.3-.036-.549.35-.008.67-.013.99-.024a2.011,2.011,0,0,0,2.239-2.08c.047-.508.075-1.019.075-1.529q.008-7.052,0-14.1v-.917c-.345.164-.384.426-.481.636q-4.058,8.8-8.111,17.6a7.673,7.673,0,0,1-.363.759.428.428,0,0,1-.784,0,4.259,4.259,0,0,1-.227-.485q-4.1-8.906-8.2-17.81a1.683,1.683,0,0,0-.461-.644c-.015.16-.044.319-.044.479q0,7.512,0,15.025a9.343,9.343,0,0,0,.127,1.371,1.777,1.777,0,0,0,1.779,1.677c.355.036.715.023,1.072.034.342.01.343.228.3.474a61.991,61.991,0,0,1-7.9.063c-.108-.293-.117-.524.31-.539.332-.012.666,0,1-.033a1.855,1.855,0,0,0,1.77-1.7,13.2,13.2,0,0,0,.084-1.682q.009-7.551,0-15.1,0-.574-.038-1.149a2.184,2.184,0,0,0-2.166-2.313c-.253-.033-.511-.035-.762-.079S-3980.382,1506.075-3980.252,1505.791Z" transform="translate(4129.683 -1404.243)" fill="#fff"/><path d="M-5283.542,1530.187h-.691q-1.312-3.694-2.614-7.362-1.286-3.626-2.569-7.253l-.158.01c-.09.224-.188.445-.269.672q-2.375,6.674-4.745,13.349c-.128.36-.2.8-.845.535-.083-.213-.2-.49-.3-.773q-3.469-9.739-6.937-19.479c-.146-.409-.3-.815-.467-1.215a2.421,2.421,0,0,0-2.131-1.623c-.3-.027-.655-.016-.516-.551h8.392c.1.237.128.432-.159.493-.173.037-.356.03-.533.053a1.426,1.426,0,0,0-1.355,1.881,12.9,12.9,0,0,0,.455,1.621q2.271,6.548,4.563,13.089c.049.14.121.272.229.513.122-.261.215-.424.276-.6,1.135-3.254,2.259-6.512,3.4-9.762a1.658,1.658,0,0,0,.02-1.257c-.538-1.295-1.033-2.609-1.613-3.884a2.485,2.485,0,0,0-2.237-1.614c-.3-.013-.5-.124-.355-.532h8.876c.083.242.115.454-.222.5-.277.038-.562.02-.84.06a1.321,1.321,0,0,0-1.292,1.5,6.913,6.913,0,0,0,.332,1.8c.907,2.684,1.854,5.354,2.791,8.028q.848,2.421,1.71,4.837c.1.282.222.557.386.965.138-.323.237-.523.309-.731q2.172-6.3,4.333-12.6a11.676,11.676,0,0,0,.482-1.77,1.542,1.542,0,0,0-1.446-2c-.251-.044-.509-.046-.761-.089-.284-.049-.278-.246-.187-.508h6.724c.185.47-.116.529-.437.555a2.249,2.249,0,0,0-1.787,1.17,7.167,7.167,0,0,0-.608,1.232q-.71,1.9-1.369,3.82-2.823,8.18-5.635,16.363C-5283.4,1529.8-5283.461,1529.965-5283.542,1530.187Z" transform="translate(5353.52 -1404.942)" fill="#fff"/><path d="M-4330.4,1506.014c.192-.018.367-.049.542-.048,3.32.011,6.642-.009,9.961.06a12.449,12.449,0,0,1,3.093.459,5.584,5.584,0,0,1,4.2,5.551,5.524,5.524,0,0,1-3.427,5.109c-.617.294-1.28.493-1.988.761.111.2.207.4.331.577,1.4,2.046,2.789,4.094,4.2,6.13.406.587.848,1.152,1.307,1.7a5.98,5.98,0,0,0,3.694,2.144c.25.041.5.089.8.143.014.158.028.32.047.534-.268.021-.491.054-.715.054-1.584,0-3.168-.018-4.751.014a1.122,1.122,0,0,1-1.057-.577c-2.231-3.238-4.494-6.455-6.72-9.7a1.114,1.114,0,0,0-1.187-.581,13.494,13.494,0,0,1-1.629.014c-.021.3-.049.519-.05.742,0,2.043-.01,4.087,0,6.13a10.913,10.913,0,0,0,.128,1.523,1.938,1.938,0,0,0,1.951,1.793c.4.03.808,0,1.246,0l.029.5a95.647,95.647,0,0,1-10,.056v-.541c.354,0,.681.01,1.008,0a1.952,1.952,0,0,0,2.171-1.967,14.312,14.312,0,0,0,.1-1.6q.011-7.433,0-14.866a15.337,15.337,0,0,0-.129-1.832,1.773,1.773,0,0,0-1.666-1.707,10.209,10.209,0,0,0-1.146-.066C-4330.331,1506.513-4330.5,1506.416-4330.4,1506.014Zm6.72,1.5a88.442,88.442,0,0,0,.079,9.715,11.382,11.382,0,0,0,3.847-.378,4.739,4.739,0,0,0,3.576-5.343,4.523,4.523,0,0,0-3.238-4.04A8.4,8.4,0,0,0-4323.68,1507.511Z" transform="translate(4452.936 -1404.458)" fill="#fff"/><path d="M-5583.8,1522.27h-8.908c-.12-.323-.12-.535.259-.578a4.992,4.992,0,0,0,.828-.131,1.42,1.42,0,0,0,1.1-1.868,5.723,5.723,0,0,0-.269-.878c-.513-1.279-1.048-2.549-1.551-3.832a.692.692,0,0,0-.753-.488q-3.985.015-7.97,0c-.327,0-.579.048-.725.41-.563,1.4-1.159,2.779-1.732,4.17a4.214,4.214,0,0,0-.209.735,1.155,1.155,0,0,0,.744,1.484,17.4,17.4,0,0,0,1.84.5c.013.079.04.241.063.385a49.191,49.191,0,0,1-7.241.056c-.1-.289-.111-.505.309-.567a3.169,3.169,0,0,0,2.339-1.688,25.854,25.854,0,0,0,1.284-2.606q3.847-8.971,7.663-17.956c.05-.117.093-.239.153-.351.123-.233.138-.555.54-.539s.409.338.51.577q3.212,7.66,6.413,15.325c.591,1.412,1.171,2.83,1.793,4.229a13.927,13.927,0,0,0,.953,1.743,2.759,2.759,0,0,0,2.247,1.27C-5583.732,1521.7-5583.633,1521.877-5583.8,1522.27Zm-17.25-9.073h8.016l-3.875-9.246-.167.019Z" transform="translate(5632.877 -1397.591)" fill="#fff"/><path d="M-4826.744,1506l.025-.467h17.175a23.953,23.953,0,0,1,.332,4.984c-.248.119-.464.129-.589-.193-.11-.285-.214-.574-.314-.863a3.579,3.579,0,0,0-3.423-2.614c-2.138-.085-4.282-.021-6.419-.021-.155.561-.2,8.164-.058,9.176.059.028.125.088.191.088,1.506,0,3.015.043,4.518-.036a2.211,2.211,0,0,0,2.307-1.949,8.164,8.164,0,0,1,.216-.891c.055-.135.259-.211.429-.339a59.875,59.875,0,0,1,.085,7.675c-.268.085-.483.1-.513-.287a8.357,8.357,0,0,0-.106-.911,2.144,2.144,0,0,0-1.93-1.9,47.235,47.235,0,0,0-5.216-.088c-.02.282-.047.48-.047.678q0,3.717.01,7.434c0,.153.005.307.011.46a2.053,2.053,0,0,0,2.122,2.208c.353.028.71,0,1.069,0,.147.347.195.594-.246.627-.153.012-.307.007-.46.008h-8.355c-.179,0-.358,0-.536-.013-.352-.024-.31-.258-.245-.61.31,0,.632.011.953,0a2.027,2.027,0,0,0,2.218-2.109c.044-.585.057-1.174.057-1.761q.01-7.243.006-14.486c0-.536-.018-1.073-.056-1.608a1.936,1.936,0,0,0-1.737-2.012C-4825.737,1506.088-4826.223,1506.066-4826.744,1506Z" transform="translate(4911.198 -1404.062)" fill="#fff"/><path d="M-5907.6,1523.745c-.667,2.034-1.309,3.993-1.973,6.017-.269.018-.542.051-.815.051q-8.314,0-16.629,0a1.777,1.777,0,0,1-.532-.026.42.42,0,0,1-.258-.289.394.394,0,0,1,.255-.287c.326-.052.663-.029.993-.066a2.122,2.122,0,0,0,2.061-1.827,6.5,6.5,0,0,0,.114-1.141q.011-7.969,0-15.938a5.956,5.956,0,0,0-.066-.838,2.211,2.211,0,0,0-2.312-2.18c-.254-.021-.511-.015-.766-.034-.339-.025-.332-.24-.241-.544h10.1v.523c-.293.017-.592.03-.891.052a2.266,2.266,0,0,0-2.433,2.477c-.034,5.517-.013,11.034-.006,16.551a4.226,4.226,0,0,0,.113.755,1.741,1.741,0,0,0,1.6,1.5,1.4,1.4,0,0,0,.228.026c2.092-.04,4.184-.06,6.274-.135a3.466,3.466,0,0,0,2.129-.946,8.647,8.647,0,0,0,2.279-3.313C-5908.192,1523.715-5908.176,1523.721-5907.6,1523.745Z" transform="translate(5927.823 -1405.085)" fill="#fff"/><path d="M-4524.739,1506.545h9.911c.1.325.026.5-.291.51s-.665.014-.994.052a1.914,1.914,0,0,0-1.873,1.87,17.226,17.226,0,0,0-.123,1.909q-.015,7.242,0,14.485c0,.662.07,1.325.121,1.987a1.541,1.541,0,0,0,1.2,1.5c.633.162,1.29.232,1.974.349v.466c-.258.016-.506.044-.755.044q-4.216,0-8.431,0a2.465,2.465,0,0,1-.607-.044.344.344,0,0,1-.185-.271.348.348,0,0,1,.189-.272,5.7,5.7,0,0,1,.608-.035,5.923,5.923,0,0,0,1.2-.189,1.628,1.628,0,0,0,1.172-1.383,11.45,11.45,0,0,0,.135-1.446c.008-5.492-.024-10.985.017-16.477.015-1.879-1.064-2.483-2.549-2.542a1.8,1.8,0,0,1-.531-.033c-.124-.045-.205-.2-.3-.314Z" transform="translate(4632.447 -1404.993)" fill="#fff"/></g></g></g></svg>