<svg xmlns="http://www.w3.org/2000/svg" xmlns:xlink="http://www.w3.org/1999/xlink" width="78.709" height="78.708" viewBox="0 0 78.709 78.708"><defs><radialGradient id="a" cx="0.076" cy="0.019" r="1.465" gradientTransform="translate(0.001)" gradientUnits="objectBoundingBox"><stop offset="0" stop-color="#f6f6f7"/><stop offset="0.477" stop-color="#f9f9fa"/><stop offset="0.715" stop-color="#fff"/></radialGradient></defs><g transform="translate(-217 -997)"><g transform="translate(217 997)"><g transform="translate(0 0)"><path d="M273.332,2185.074a39.354,39.354,0,1,1-39.354-39.353A39.354,39.354,0,0,1,273.332,2185.074Z" transform="translate(-194.623 -2145.721)" fill="#fff"/><path d="M273.18,2184.909a39.353,39.353,0,1,0-39.354,39.355A39.2,39.2,0,0,0,273.18,2184.909Z" transform="translate(-194.472 -2145.556)" fill="url(#a)"/><path d="M269.058,2186.837a33.31,33.31,0,1,0-33.31,33.31A33.186,33.186,0,0,0,269.058,2186.837Z" transform="translate(-196.316 -2147.398)" fill="none" stroke="#7d6eb2" stroke-miterlimit="10" stroke-width="4"/><g transform="translate(6.972 22.095)"><path d="M268.3,2164.488a39.359,39.359,0,0,1-67.757,39.191,39.234,39.234,0,0,0,67.757-39.191Z" transform="translate(-200.545 -2164.488)" fill="#eceef0"/></g></g></g><g transform="translate(-66.172 426.263)"><path d="M380.044,593.387c-.156.023-.307.6-.608.9-.221.216-.5.2-.643.47-.056.1-.038.271-.1.434-.123.327-.558.356-.558.713,0,.386.362.459.677.733.246.219.269.371.567.479.254.086.632-.2.972-.095.28.083.547.143.61.43.056.265,0,.675-.343.628a3.72,3.72,0,0,0-1.218-.115c-.735.084-1.572.323-1.654,1.142a.94.94,0,0,0,1.067.887c.378-.074.2-.52.4-.737.27-.277,1.8.968,3.219.968a1.856,1.856,0,0,0,1.485-.614c.041-.035.092-.111.156-.116a.559.559,0,0,1,.2.089c1.144.919,2.009,2.765,6.215,2.786a2.836,2.836,0,0,1,1.815.787,4.986,4.986,0,0,1,1.057,1.876,10.015,10.015,0,0,0,2.318,3.282c.063.062,1,.794,1.08.849a.456.456,0,0,1,.057.265c-.028.7-.129,2.726,1.383,2.817.369.019.273-.241.273-.42a2.116,2.116,0,0,1,.121-1.066c.255-.5-.54-.726-.517-1.8.017-.8-.657-.665-1-1.276a1.65,1.65,0,0,1-.359-.975,8.381,8.381,0,0,0-.815-4.43c-.232-.3-.423-.414-.211-.552a3.884,3.884,0,0,0,1.548-1.609c.671-1.577,1.275-3.018,2.106-3.652a6.151,6.151,0,0,1,.861-.578,5.648,5.648,0,0,0,1.411-.808,1.258,1.258,0,0,0,.3-1.512c-.426-.542-1.161-.112-1.486.081-2.32,1.377-2.661,3.805-3.465,5.2a3.743,3.743,0,0,1-2.615,2,4.647,4.647,0,0,1-2.2-.419,11.115,11.115,0,0,1-3.057-2.014c-.49-.378-4.293-4.112-7.375-4.264,0,0-.383-.766-.479-.779-.225-.029-.456.457-.621.514s-.417-.526-.574-.5Z" transform="translate(-54.656 0)" fill="#12263f" fill-rule="evenodd"/><path d="M331.588,644.138a.549.549,0,0,1-.537-.539v-9.613h-3.168v10.6a.942.942,0,0,0,.937.943h5.538a.938.938,0,0,0,.936-.943v-10.6h-3.165l0,9.613a.55.55,0,0,1-.538.539Z" transform="translate(-19.766 -28.467)" fill="#12263f" fill-rule="evenodd"/><path d="M361.975,633.986h-4.794a1.032,1.032,0,0,0-1.03,1.035v10.5h3.171V635.89a.538.538,0,0,1,1.076-.008v9.644h3.158v-9.644a.537.537,0,0,1,1.074.008v9.635H367.8v-10.5a1.032,1.032,0,0,0-1.03-1.035Z" transform="translate(-39.546 -28.467)" fill="#12263f" fill-rule="evenodd"/><path d="M306.005,642.625h-3.2v2.9h-3.167V633.986h6.387a1.023,1.023,0,0,1,1.018,1.039v6.56a1.037,1.037,0,0,1-1.039,1.04Zm-2.126-6.715a.542.542,0,0,0-.536-.549H302.8V641.2h.538a.535.535,0,0,0,.536-.542V635.91Z" transform="translate(0 -28.467)" fill="#12263f" fill-rule="evenodd"/><path d="M429.317,664.555a1.412,1.412,0,1,1-1.429-1.419,1.413,1.413,0,0,1,1.429,1.419Zm-1.426-1.212a1.19,1.19,0,1,0,.02,0Z" transform="translate(-88.77 -48.865)" fill="#12263f" fill-rule="evenodd"/><path d="M430.693,666.789h-.378l-.486-.647v.647h-.308v-1.636h.324c.442,0,.676.166.676.486a.477.477,0,0,1-.331.458l-.023.008.527.684Zm-.811-.913c.22,0,.336-.078.336-.234,0-.139-.112-.21-.327-.21h-.063v.444Z" transform="translate(-90.887 -50.277)" fill="#12263f" fill-rule="evenodd"/><path d="M402.776,645.525v-2.9H401.7v2.9h-3.165v-10.5a1.031,1.031,0,0,1,1.029-1.035h5.347a1.032,1.032,0,0,1,1.031,1.035v10.5Zm0-4.326v-5.313a.538.538,0,0,0-1.076.008V641.2Z" transform="translate(-69.205 -28.467)" fill="#12263f" fill-rule="evenodd"/><path d="M299.935,684.292v-3.17h.354v.3a.861.861,0,0,1,.283-.262.773.773,0,0,1,.382-.088.909.909,0,0,1,.518.151.923.923,0,0,1,.339.426,1.551,1.551,0,0,1,.115.6,1.526,1.526,0,0,1-.127.633.96.96,0,0,1-.873.581.73.73,0,0,1-.348-.082.791.791,0,0,1-.253-.207v1.115Zm.351-2.011a1,1,0,0,0,.179.654.551.551,0,0,0,.434.211.561.561,0,0,0,.444-.219,1.039,1.039,0,0,0,.185-.678,1.013,1.013,0,0,0-.18-.656.543.543,0,0,0-.43-.218.56.56,0,0,0-.44.232,1.038,1.038,0,0,0-.191.675Z" transform="translate(-0.208 -61.415)" fill="#12263f" fill-rule="evenodd"/><path d="M316.961,683.536V683.2a.84.84,0,0,1-.728.388.936.936,0,0,1-.379-.077.623.623,0,0,1-.261-.2.722.722,0,0,1-.12-.288,2,2,0,0,1-.024-.363v-1.419h.388v1.271a2.29,2.29,0,0,0,.024.411.411.411,0,0,0,.155.241.485.485,0,0,0,.294.087.642.642,0,0,0,.328-.089.5.5,0,0,0,.217-.244,1.224,1.224,0,0,0,.064-.448v-1.228h.388v2.292Z" transform="translate(-11.065 -61.537)" fill="#12263f" fill-rule="evenodd"/><path d="M331.025,683.414v-2.292h.347v.321a.821.821,0,0,1,.287-.271.807.807,0,0,1,.408-.1.752.752,0,0,1,.417.106.563.563,0,0,1,.23.3.825.825,0,0,1,.708-.4.7.7,0,0,1,.525.189.807.807,0,0,1,.183.581v1.574h-.386V681.97a1.065,1.065,0,0,0-.038-.336.334.334,0,0,0-.137-.165.432.432,0,0,0-.234-.063.542.542,0,0,0-.4.161.709.709,0,0,0-.16.514v1.332h-.388v-1.489a.655.655,0,0,0-.1-.389.359.359,0,0,0-.311-.13.557.557,0,0,0-.3.087.486.486,0,0,0-.2.252,1.417,1.417,0,0,0-.063.479v1.189Z" transform="translate(-21.964 -61.415)" fill="#12263f" fill-rule="evenodd"/><path d="M351.832,683.131a1.468,1.468,0,0,1-.416.259,1.207,1.207,0,0,1-.429.075.833.833,0,0,1-.58-.184.611.611,0,0,1-.2-.471.625.625,0,0,1,.077-.308.633.633,0,0,1,.2-.223.948.948,0,0,1,.28-.128,2.747,2.747,0,0,1,.345-.058,3.526,3.526,0,0,0,.693-.134c0-.053,0-.087,0-.1a.426.426,0,0,0-.11-.334.645.645,0,0,0-.442-.132.688.688,0,0,0-.405.1.589.589,0,0,0-.193.341l-.38-.053a.947.947,0,0,1,.17-.393.745.745,0,0,1,.343-.231,1.527,1.527,0,0,1,.52-.081,1.381,1.381,0,0,1,.476.069.638.638,0,0,1,.271.174.625.625,0,0,1,.121.265,2.239,2.239,0,0,1,.019.358v.518a5.415,5.415,0,0,0,.025.685.857.857,0,0,0,.1.276h-.406a.821.821,0,0,1-.077-.283Zm-.032-.868a2.823,2.823,0,0,1-.634.147,1.446,1.446,0,0,0-.339.078.335.335,0,0,0-.208.311.333.333,0,0,0,.118.259.508.508,0,0,0,.344.1.8.8,0,0,0,.4-.1.6.6,0,0,0,.257-.269.93.93,0,0,0,.063-.388v-.143Z" transform="translate(-35.385 -61.415)" fill="#12263f" fill-rule="evenodd"/><path d="M366.555,687.845V687.4H367v.443Z" transform="translate(-46.826 -65.846)" fill="#12263f" fill-rule="evenodd"/><path d="M378.854,682.574l.382.05a.986.986,0,0,1-.32.618.933.933,0,0,1-.634.223.983.983,0,0,1-.756-.307,1.246,1.246,0,0,1-.287-.881,1.6,1.6,0,0,1,.123-.65.859.859,0,0,1,.375-.418,1.105,1.105,0,0,1,.546-.139.951.951,0,0,1,.611.189.866.866,0,0,1,.3.536l-.378.058a.631.631,0,0,0-.191-.348.5.5,0,0,0-.331-.116.6.6,0,0,0-.477.211,1,1,0,0,0-.183.665,1.031,1.031,0,0,0,.177.672.577.577,0,0,0,.462.209.544.544,0,0,0,.382-.141.692.692,0,0,0,.194-.432Z" transform="translate(-54.303 -61.415)" fill="#12263f" fill-rule="evenodd"/><path d="M391.872,682.268a1.178,1.178,0,0,1,.354-.943,1.067,1.067,0,0,1,.72-.255,1.026,1.026,0,0,1,.773.31,1.176,1.176,0,0,1,.3.855,1.517,1.517,0,0,1-.133.7.939.939,0,0,1-.386.394,1.125,1.125,0,0,1-.554.14,1.029,1.029,0,0,1-.778-.309,1.229,1.229,0,0,1-.3-.889Zm.4,0a.974.974,0,0,0,.192.659.64.64,0,0,0,.965,0,1,1,0,0,0,.192-.671.946.946,0,0,0-.193-.644.641.641,0,0,0-.963,0,.971.971,0,0,0-.192.658Z" transform="translate(-64.542 -61.415)" fill="#12263f" fill-rule="evenodd"/><path d="M407.9,683.414v-2.292h.347v.321a.821.821,0,0,1,.287-.271.807.807,0,0,1,.408-.1.751.751,0,0,1,.417.106.565.565,0,0,1,.23.3.824.824,0,0,1,.708-.4.7.7,0,0,1,.525.189.807.807,0,0,1,.183.581v1.574h-.386V681.97a1.065,1.065,0,0,0-.038-.336.332.332,0,0,0-.137-.165.432.432,0,0,0-.234-.063.542.542,0,0,0-.4.161.709.709,0,0,0-.16.514v1.332h-.388v-1.489a.655.655,0,0,0-.1-.389.359.359,0,0,0-.311-.13.557.557,0,0,0-.3.087.486.486,0,0,0-.2.252,1.417,1.417,0,0,0-.062.479v1.189Z" transform="translate(-75.758 -61.415)" fill="#12263f" fill-rule="evenodd"/></g></g></svg>