<svg xmlns="http://www.w3.org/2000/svg" xmlns:xlink="http://www.w3.org/1999/xlink" width="78.709" height="78.708" viewBox="0 0 78.709 78.708"><defs><radialGradient id="a" cx="0.076" cy="0.019" r="1.465" gradientTransform="translate(0.001)" gradientUnits="objectBoundingBox"><stop offset="0" stop-color="#f6f6f7"/><stop offset="0.477" stop-color="#f9f9fa"/><stop offset="0.715" stop-color="#fff"/></radialGradient></defs><g transform="translate(-217 -997)"><g transform="translate(217 997)"><g transform="translate(0 0)"><path d="M273.332,2185.074a39.354,39.354,0,1,1-39.354-39.353A39.354,39.354,0,0,1,273.332,2185.074Z" transform="translate(-194.623 -2145.721)" fill="#fff"/><path d="M273.18,2184.909a39.353,39.353,0,1,0-39.354,39.355A39.2,39.2,0,0,0,273.18,2184.909Z" transform="translate(-194.472 -2145.556)" fill="url(#a)"/><path d="M269.058,2186.837a33.31,33.31,0,1,0-33.31,33.31A33.186,33.186,0,0,0,269.058,2186.837Z" transform="translate(-196.316 -2147.398)" fill="none" stroke="#7d6eb2" stroke-miterlimit="10" stroke-width="4"/><g transform="translate(6.972 22.095)"><path d="M268.3,2164.488a39.359,39.359,0,0,1-67.757,39.191,39.234,39.234,0,0,0,67.757-39.191Z" transform="translate(-200.545 -2164.488)" fill="#eceef0"/></g></g></g><g transform="translate(-547.713 -169.304)"><path d="M827.712,1189.583a15.082,15.082,0,0,1,9.742,3.595c.569.532.469.933-.095,1a213.5,213.5,0,0,0-24.239,6.587c-.879.248-.473-1.508-.113-2.08,3.155-5.451,8.625-9.1,14.705-9.1Zm14.184,27.445c-2.982,6.235-8.861,10.534-15.46,10.534a14.964,14.964,0,0,1-8.595-2.718c-.673-.543-.476-1.029.157-1.264a175.112,175.112,0,0,1,22.656-7.384c.94-.24,1.658-.083,1.242.832Z" transform="translate(-21.587 -5.223)" fill="#12263f" fill-rule="evenodd"/><path d="M924.261,1284.6v-.65h-.3v-.132h.8v.132h-.3v.65Z" transform="translate(-99.428 -71.087)" fill="#12263f"/><path d="M927.034,1284.6v-.782h.3l.182.534.18-.534h.3v.782h-.188v-.616l-.2.616h-.2l-.2-.616v.616Z" transform="translate(-101.574 -71.087)" fill="#12263f"/><path d="M805.518,1261.8v11.436l2.626-1.094c.624-.218.828-.711.766-1.477l.055-3.721,3.064,3.119c1.386,1.449,3.664-1.215,2.626-2.353l-2.408-2.736,2.408-4.377c.875-1.459-1.532-2.991-2.626-1.477l-3.185,5.143.012-3.994-3.338,1.532Z" transform="translate(-16.642 -53.384)" fill="#12263f" fill-rule="evenodd"/><path d="M838.574,1254.183c0,.214-.043,10.375-.043,10.375l2.229-.943a1.952,1.952,0,0,0,1.286-1.886l.086-10.29-2.4.986a1.914,1.914,0,0,0-1.157,1.758Z" transform="translate(-39.716 -48.456)" fill="#12263f" fill-rule="evenodd"/><path d="M853.854,1256l-.086-11.361,1.886-.686a1.2,1.2,0,0,1,1.543.515l3.216,3.516q-.021-1.972-.043-3.944c-.043-.8.743-1.372,1.715-1.715l1.372-.429.043,10.547c0,1.194-2.146,1.83-2.787,1.029-.441-.6-3.644-4.073-3.644-4.073l-.129,4.416c-.064,1.254-1.008,1.661-3.087,2.186Z" transform="translate(-50.366 -41.788)" fill="#12263f" fill-rule="evenodd"/><path d="M892.958,1241.379l4.716-1.158v4.673c-.472,1.8-1.93,2.772-4.5,3.173-3.287.315-5.287-1.543-5.23-5.059q.965-7.5,8.446-6.6c2.487.371,1.587,3.173-.515,2.744-2.751-.531-4.594.845-4.716,3.344.114,2.53,1.829,3.573,3.6,2.1l.043-1.115c-1.108.257-1.922.2-1.886-.729a7.223,7.223,0,0,0,.043-1.372Z" transform="translate(-74.25 -37.882)" fill="#12263f" fill-rule="evenodd"/><path d="M861.111,1219.969l3.061-.774v3.123c-.306,1.2-1.252,1.853-2.922,2.12-2.133.21-3.432-1.032-3.395-3.381q.626-5.014,5.482-4.412c1.614.248,1.03,2.12-.334,1.833-1.785-.355-2.982.565-3.061,2.235.074,1.69,1.187,2.387,2.337,1.4l.028-.745c-.719.172-1.248.134-1.224-.487a4.994,4.994,0,0,0,.028-.917Z" transform="translate(-53.222 -24.093)" fill="#12263f" fill-rule="evenodd"/><path d="M801.558,1240.44l-.1,2.218c.818-.306,1.675-.753,1.666-1.888.012-.579-.687-.775-1.562-.33Zm-.008-3.137-.1,2.071c.757-.285,1.551-.7,1.543-1.763.011-.541-.636-.723-1.446-.308Zm-1.939-.677c.031.185.031,8.525.031,8.525l4.093-1.939c1.908-1.026,1.908-4.1.308-3.939,1.539-1.6.554-4.373-.954-3.878l-3.478,1.231Z" transform="translate(-12.514 -37.202)" fill="#12263f" fill-rule="evenodd"/><path d="M818.861,1229.09c0,.185-.031,5.263-.031,5.263-.01,1.344,1.457,1.888,2.739,1.631a3.068,3.068,0,0,0,2.739-2.985c.01-1.908.021-3.539.031-5.448-.031-1.036-1.97-.667-2.031.339.02,1.765.041,3.375.062,5.14-.133,1.282-1.529,1.333-1.508.246v-4.493c.021-1.042-2.011-.888-2,.308Z" transform="translate(-25.946 -31.327)" fill="#12263f" fill-rule="evenodd"/><path d="M839.163,1231.093l-.093-7.787,3.047-.954c1.9-.585,3.252,2.011,1.139,4.124l1.446,1.631c.708.9-.77,2.144-1.57,1.416l-1.939-1.816q-.046.908-.092,1.816c-.061.908-.708,1.329-1.939,1.57Zm1.969-7.048c1.652-.8,1.888,1.385-.031,2.308.01-.739.021-1.57.031-2.308Z" transform="translate(-40.093 -28.068)" fill="#12263f" fill-rule="evenodd"/><path d="M896.667,1217.092l-.053-7.53,3.146-.519c1.959-.314,3.341,2.37,1.151,4.132l1.482,1.766c.725.965-.8,1.969-1.625,1.16l-1.989-2.009q-.053.87-.1,1.741c-.068.868-.737,1.189-2.007,1.26Zm2.068-6.545c1.707-.555,1.939,1.586-.044,2.225.015-.712.03-1.513.044-2.225Z" transform="translate(-80.312 -18.807)" fill="#12263f" fill-rule="evenodd"/><path d="M880.537,1212.124l.065,7.618c1.189-.238,1.988-.41,3.177-.648,1.232-.3,1.286-1.124,1.232-2.043l-2.431.584v-1.621c2.11-.35,2.293-.63,2.2-1.848l-2.3.421v-1.264c2.129-.41,2.507-.648,2.5-2.107l-4.441.908Z" transform="translate(-69.075 -20.343)" fill="#12263f" fill-rule="evenodd"/><path d="M805.007,1182.11a22.974,22.974,0,0,1,5.971.787l-.135.229c-4.585-.977-11.158.483-14.06,1.86a20.878,20.878,0,0,0-12.341,19.294,21.448,21.448,0,0,0,4,12.537v3.784l2.414-.986a19.057,19.057,0,0,0,13.285,5.469,19.749,19.749,0,0,0,18.081-12.568c1.22.69,2.865,1.63,4.206,2.4a23.358,23.358,0,1,1-21.418-32.807Z" transform="translate(0)" fill="#12263f" fill-rule="evenodd"/></g></g></svg>