<svg xmlns="http://www.w3.org/2000/svg" xmlns:xlink="http://www.w3.org/1999/xlink" width="78.709" height="78.708" viewBox="0 0 78.709 78.708"><defs><radialGradient id="a" cx="0.076" cy="0.019" r="1.465" gradientTransform="translate(0.001)" gradientUnits="objectBoundingBox"><stop offset="0" stop-color="#f6f6f7"/><stop offset="0.477" stop-color="#f9f9fa"/><stop offset="0.715" stop-color="#fff"/></radialGradient></defs><g transform="translate(-217 -997)"><g transform="translate(217 997)"><g transform="translate(0 0)"><path d="M273.332,2185.074a39.354,39.354,0,1,1-39.354-39.353A39.354,39.354,0,0,1,273.332,2185.074Z" transform="translate(-194.623 -2145.721)" fill="#fff"/><path d="M273.18,2184.909a39.353,39.353,0,1,0-39.354,39.355A39.2,39.2,0,0,0,273.18,2184.909Z" transform="translate(-194.472 -2145.556)" fill="url(#a)"/><path d="M269.058,2186.837a33.31,33.31,0,1,0-33.31,33.31A33.186,33.186,0,0,0,269.058,2186.837Z" transform="translate(-196.316 -2147.398)" fill="none" stroke="#7d6eb2" stroke-miterlimit="10" stroke-width="4"/><g transform="translate(6.972 22.095)"><path d="M268.3,2164.488a39.359,39.359,0,0,1-67.757,39.191,39.234,39.234,0,0,0,67.757-39.191Z" transform="translate(-200.545 -2164.488)" fill="#eceef0"/></g></g></g><g transform="translate(-58.474 606.5)"><path d="M316.7,447.643a.713.713,0,1,0,.739.713A.7.7,0,0,0,316.7,447.643Zm0,1.221a.509.509,0,1,1,.515-.508A.5.5,0,0,1,316.7,448.864Z" transform="translate(-18.098 -18.55)" fill="#12263f"/><path d="M296.54,421.725c-4.67,5.484-9.075,12.78-5.184,16.141,3.77,3.256,8.483,1.328,11.7.043S341.781,421.2,341.781,421.2c.343-.171.278-.386-.15-.278-.173.043-38.665,10.475-38.665,10.475C298.082,432.767,292.513,429.779,296.54,421.725Z" transform="translate(0)" fill="#12263f"/><path d="M317.813,449.152a.178.178,0,0,0,.185-.2c0-.185-.121-.231-.323-.231h-.29v.767h.193v-.326h.033l.176.326h.223Zm-.124-.124h-.111v-.178h.094c.057,0,.123.007.123.081S317.756,449.028,317.688,449.028Z" transform="translate(-19.086 -19.296)" fill="#12263f"/></g></g></svg>