<svg xmlns="http://www.w3.org/2000/svg" xmlns:xlink="http://www.w3.org/1999/xlink" width="252.868" height="225.481" viewBox="0 0 252.868 225.481"><defs><linearGradient id="a" x1="0.5" x2="0.5" y2="1" gradientUnits="objectBoundingBox"><stop offset="0" stop-color="#fff"/><stop offset="1" stop-color="#f8f8f8"/></linearGradient></defs><g transform="translate(-229.521 -15847.308)"><rect width="252.868" height="225.481" transform="translate(229.521 15847.308)" fill="url(#a)"/><g transform="translate(259 -18)"><g transform="translate(-4215.01 15699.33)"><path d="M4398.01,276.659a84.995,84.995,0,0,1-150.221,54.51,83.538,83.538,0,0,1-6.905-9.538,85,85,0,1,1,157.126-44.972Z" transform="translate(0 0)" fill="#fff"/><path d="M4362.072,211.18c-35.616,91.447-89.881,108.008-117.718,110.055A81.779,81.779,0,0,1,4362.072,211.18Z" transform="translate(0.195 0.195)" fill="#ee3e42"/><path d="M4393.436,274.382a81.786,81.786,0,0,1-144.146,52.954c13.172-6.309,39.495-10.657,44.525-11.691,25.118-5.169,57.846-9.282,72.861-32.866,10.156-15.953,11.616-36.873,11.1-56.45A81.293,81.293,0,0,1,4393.436,274.382Z" transform="translate(1.398 2.277)" fill="#0069aa"/><path d="M4394.64,276.464a81.786,81.786,0,0,1-144.146,52.954,81.57,81.57,0,0,1-19.513-52.954,81.83,81.83,0,0,1,163.659,0Z" transform="translate(0.195 0.195)" fill="none"/></g></g></g></svg>