<svg xmlns="http://www.w3.org/2000/svg" width="147.914" height="110.687" viewBox="0 0 147.914 110.687"><g transform="translate(583.322 -102.535)"><g transform="translate(-583.322 191.278)"><g transform="translate(0)"><path d="M-266.031,426.543c.031.695.057,1.314.1,2.168A6.233,6.233,0,0,1-261.3,426.2a3.993,3.993,0,0,1,4.046,2.441,18.938,18.938,0,0,1,3.756-2.183c2.949-.915,5.326.6,5.511,3.645.23,3.772.055,7.568.055,11.429H-251.6c0-3.024.016-5.981-.008-8.938-.01-1.246.185-2.661-1.469-3.11-1.091-.3-2.532.636-3.111,2.163a10.606,10.606,0,0,0-.627,3.258c-.094,2.176-.028,4.358-.028,6.62h-3.674c0-1.972.009-3.951,0-5.93-.009-1.457.059-2.924-.091-4.367-.189-1.823-1.675-2.411-3.138-1.29a5.232,5.232,0,0,0-1.965,4.367c-.02,2.377,0,4.754,0,7.216h-3.739V435.4c0-2.192.089-4.39-.034-6.575-.07-1.244.4-1.8,1.53-1.976C-267.349,426.758-266.735,426.657-266.031,426.543Z" transform="translate(361.526 -420.03)" fill="#12263f"/><path d="M-573.43,420.789a4.34,4.34,0,0,1,3.14,4.03,5.09,5.09,0,0,1-2.52,5.072,9.825,9.825,0,0,1-3.841,1.2c-2.171.194-4.372.053-6.672.053v-19.3c2.945,0,5.942-.151,8.914.054a3.909,3.909,0,0,1,3.71,3.4,4.561,4.561,0,0,1-2.018,4.954C-572.911,420.383-573.093,420.535-573.43,420.789Zm-6.356,7.427a25.183,25.183,0,0,0,3.693-.319,2.527,2.527,0,0,0,1.971-2.578,2.3,2.3,0,0,0-1.862-2.452,12.122,12.122,0,0,0-2.861-.359,1.213,1.213,0,0,0-.9.776C-579.834,424.82-579.786,426.364-579.786,428.216Zm0-8.5c.546.038.832.077,1.117.076,1.429-.005,2.856-.079,3.8-1.373a2.406,2.406,0,0,0-.373-3.282c-.8-.628-3.843-.926-4.327-.394a1.07,1.07,0,0,0-.206.66C-579.8,416.8-579.787,418.194-579.787,419.716Z" transform="translate(583.322 -409.85)" fill="#12263f"/><path d="M-185.084,406.988v7.866a21.294,21.294,0,0,1,4.27-1.31,4.173,4.173,0,0,1,4.438,3.084,10.39,10.39,0,0,1,.1,6.74,6.641,6.641,0,0,1-6.492,4.943c-1.914.027-3.832-.249-5.84-.395V415.635c0-2.046.1-4.1-.035-6.134-.1-1.44.452-2.06,1.8-2.2C-186.327,407.25-185.812,407.121-185.084,406.988Zm5.64,13.712a7.964,7.964,0,0,0-.421-2.319c-.379-.7-1.025-1.6-1.674-1.713a3.362,3.362,0,0,0-2.358.916,3.439,3.439,0,0,0-.933,2.062,38.954,38.954,0,0,0-.2,4.783,1.259,1.259,0,0,0,.68.915,3.377,3.377,0,0,0,4.234-1.853A19.684,19.684,0,0,0-179.444,420.7Z" transform="translate(304.39 -406.453)" fill="#12263f"/><path d="M-324.287,434.372c0-5.884,4.3-9.383,9.781-7.949a5.346,5.346,0,0,1,3.9,3.413,9.919,9.919,0,0,1-.216,7.807,7.58,7.58,0,0,1-10.59,3.186C-323.817,439.349-324.308,436.961-324.287,434.372Zm10.583-.181c-.13-.927-.182-1.508-.3-2.076a2.982,2.982,0,0,0-2.752-2.751,3.233,3.233,0,0,0-3.35,2.285,6.9,6.9,0,0,0,.115,4.984,2.711,2.711,0,0,0,2.407,1.834,2.726,2.726,0,0,0,2.953-1.424A17.821,17.821,0,0,0-313.7,434.191Z" transform="translate(400.247 -419.962)" fill="#12263f"/><path d="M-397.917,434.067c.179-5.929,4.719-9.471,10.165-7.833a5.225,5.225,0,0,1,3.528,3.034,9.458,9.458,0,0,1-.443,8.827c-1.68,2.839-4.378,3.648-7.534,3.325a5.39,5.39,0,0,1-4.965-3.673A26.412,26.412,0,0,1-397.917,434.067Zm3.891-.418a21.636,21.636,0,0,0,.4,2.286,2.864,2.864,0,0,0,2.824,2.3,2.862,2.862,0,0,0,3.027-2.042,8.023,8.023,0,0,0,.484-2.846c-.072-2.882-1.263-4.325-3.324-4.251C-392.628,429.174-393.939,430.955-394.026,433.649Z" transform="translate(452.285 -419.773)" fill="#12263f"/><path d="M-526.584,439.573a23.416,23.416,0,0,1-4.441,1.636,3.589,3.589,0,0,1-4.084-2.139,4.765,4.765,0,0,1,1.026-5.011,8.8,8.8,0,0,1,5.32-2.127c.687-.093,1.824.481,1.9-.926a2,2,0,0,0-1.932-2.3c-1.72.016-3.436.338-5.319.548.131.167.037.1.022.02-.622-3.4-.47-2.856,2.356-3.4a15.274,15.274,0,0,1,4.35-.078c2.8.286,4.106,1.538,4.218,4.3.145,3.547.036,7.1.036,10.775h-3.291Zm-.373-5.48a31.8,31.8,0,0,0-3.865,1.014,1.491,1.491,0,0,0-.794,2.283,2.74,2.74,0,0,0,2.189.84C-527.908,438.035-527.045,436.562-526.957,434.092Z" transform="translate(549.471 -419.666)" fill="#12263f"/><path d="M-473.194,440.973h-3.737v-6.33c0-.925.018-1.852,0-2.777-.028-1.148.2-2.455-1.329-2.884a2.74,2.74,0,0,0-3.156,1.81,10.443,10.443,0,0,0-.813,3.5c-.126,2.173-.036,4.359-.036,6.628h-3.737v-4.661c0-2.582.119-5.172-.044-7.743-.1-1.6.553-2.192,1.97-2.319.431-.039.864-.072,1.423-.117l.146,2.314a5.759,5.759,0,0,1,5.524-2.636c2.3.25,3.554,1.418,3.731,3.726.123,1.6.055,3.213.06,4.82C-473.189,436.486-473.194,438.669-473.194,440.973Z" transform="translate(514.581 -419.69)" fill="#12263f"/><path d="M-108.627,442h-3.344l-.086-1.359a20.451,20.451,0,0,1-4.212,1.64c-2.286.368-3.765-.6-4.365-2.309a4.343,4.343,0,0,1,1.716-5.283,24.429,24.429,0,0,1,4.909-1.65,6.4,6.4,0,0,1,1.413-.109c.54-1.992-.222-3.228-2.141-3.179a40.536,40.536,0,0,0-4.841.691l-.328-2.787a14.337,14.337,0,0,1,7.927-.613,3.721,3.721,0,0,1,3.319,3.883C-108.539,434.563-108.627,438.211-108.627,442Zm-3.874-6.758a27.986,27.986,0,0,0-3.715.93,1.631,1.631,0,0,0-.968,2.266c.431,1.055,1.351,1.167,2.311.952C-113.348,439.048-112.334,437.409-112.5,435.239Z" transform="translate(256.51 -420.413)" fill="#12263f"/><path d="M-426.405,426.465c-.043.682-.059,1.309-.128,1.93a10.878,10.878,0,0,1-.271,1.189c-2.086-.493-4.15-.991-5.516,1.247-.974,1.594-.9,4.826.1,6.155.98,1.3,2.388,1.518,5.6.794a18.583,18.583,0,0,1,.155,2.553,1.162,1.162,0,0,1-.8.8,22.632,22.632,0,0,1-5.2.111c-2.662-.445-4.133-2.363-4.4-5.454a14.47,14.47,0,0,1,.292-4.486C-435.541,427-431.25,424.952-426.405,426.465Z" transform="translate(479.842 -419.869)" fill="#12263f"/><path d="M-338.933,406.943v20.884h-3.518v-1.99q0-8.034,0-16.068c0-2.386.068-2.466,2.457-2.763C-339.67,406.966-339.34,406.966-338.933,406.943Z" transform="translate(413.084 -406.421)" fill="#12263f"/><path d="M-135.5,427.413v14.955h-3.981c0-.457,0-.968,0-1.479.021-3.987.09-7.974.035-11.959-.016-1.187.421-1.569,1.506-1.523C-137.173,427.44-136.405,427.413-135.5,427.413Z" transform="translate(269.633 -420.882)" fill="#12263f"/><path d="M-137.511,409.771a2.238,2.238,0,0,1-2.242-2.36,2.221,2.221,0,0,1,2.344-2.247,2.336,2.336,0,0,1,2.3,2.341A2.415,2.415,0,0,1-137.511,409.771Z" transform="translate(269.826 -405.164)" fill="#12263f"/></g></g><path d="M-351.144,167.235c10.634-.021,10.638-.022,13.948,8.514.631,1.628,1.186,3.287,1.829,4.91,1.384,3.491.762,4.3-3.274,5.033-11.377,2.077-22.776,4.063-34.086,6.462a365.138,365.138,0,0,0-53.735,15.322c-4.635,1.755-6.668.545-7.855-4.192-.954-3.809-1.989-7.6-2.927-11.411-1.028-4.176-.09-6.4,4.194-7.864,8.766-2.995,17.572-5.933,26.508-8.354A261.614,261.614,0,0,1-351.144,167.235Z" transform="translate(-102.972 -45.726)" fill="#12263f"/><path d="M-256.012,243.324c1.171,1.084,2.842,1.952,3.423,3.292,1.947,4.493,3.592,9.125,5.183,13.762,1.052,3.068-.728,4.651-3.4,5.656q-18.963,7.117-37.907,14.285c-4.182,1.574-8.361,3.16-12.57,4.662-4.269,1.524-6.461.274-7.927-4.038-1.962-5.775-4.119-11.482-6.168-17.227-1.3-3.646-.241-6.208,3.423-7.08,18.008-4.288,36.052-8.429,54.085-12.613a8.892,8.892,0,0,1,1.3-.11Z" transform="translate(-188.993 -99.504)" fill="#12263f"/><path d="M-384.949,127.876c-.864-.862-2.351-1.733-2.9-3.007-1.41-3.3-2.449-6.761-3.553-10.185-1-3.1,1.074-4.22,3.478-4.742,9.478-2.055,18.9-4.75,28.494-5.789,11.789-1.277,23.731-1.141,35.608-1.609,3.456-.136,5.815,1.241,6.988,4.678.735,2.154,1.9,4.158,2.853,6.239,1.331,2.911.921,3.419-2.481,3.64-8.285.538-16.663.547-24.824,1.873-13.545,2.2-26.951,5.264-40.412,7.978C-382.543,127.124-383.366,127.422-384.949,127.876Z" transform="translate(-135.462)" fill="#12263f"/></g></svg>