<svg xmlns="http://www.w3.org/2000/svg" width="152.868" height="45.797" viewBox="0 0 152.868 45.797"><path d="M2489.351,736.98a9.037,9.037,0,0,1,5.81,7.086c.6,3.506.254,6.907-1.965,9.87a10.448,10.448,0,0,1-6.489,3.886,26.881,26.881,0,0,1-5.154.6c-6.333.069-12.666.028-19,.027-.985,0-1.129-.147-1.129-1.136V719.648c0-1,.176-1.186,1.157-1.186,6.483,0,12.966-.031,19.448.012a11.912,11.912,0,0,1,8.839,3.427,10.178,10.178,0,0,1,.726,13.006A21.008,21.008,0,0,1,2489.351,736.98Zm-13.964,3.61v-.1q-3.109,0-6.219,0c-.915,0-1.17.252-1.171,1.156q0,4.931,0,9.862c0,.961.234,1.2,1.181,1.2,3.941,0,7.883.044,11.823-.023a19.07,19.07,0,0,0,4.033-.525,4.449,4.449,0,0,0,3.644-3.972,12.193,12.193,0,0,0,.054-2.9,4.606,4.606,0,0,0-3.493-4.195,10.13,10.13,0,0,0-2.573-.48C2480.241,740.549,2477.813,740.591,2475.387,740.591Zm-.072-5.873c1.794,0,3.588.013,5.381-.007a11.238,11.238,0,0,0,1.894-.154c1.858-.341,3.455-1.131,4.06-3.068a7.643,7.643,0,0,0,.292-2.752,4.19,4.19,0,0,0-2.9-3.894,9.607,9.607,0,0,0-3-.585c-4-.069-8-.036-11.994-.037-.77,0-1.043.277-1.044,1.046q0,4.2,0,8.408c0,.793.243,1.039,1.029,1.04Q2472.176,734.721,2475.315,734.718Z" transform="translate(-2461.426 -712.663)" fill="#12263f"/><path d="M2669.557,736.949a9.745,9.745,0,0,1,3.519,2.292,9.416,9.416,0,0,1,2.614,5.865,13.577,13.577,0,0,1-1.025,7.011,10.2,10.2,0,0,1-6.762,5.518,20.637,20.637,0,0,1-6.022.828q-9.5.006-19,0c-.947,0-1.106-.156-1.106-1.109q0-18.858,0-37.716c0-.966.192-1.16,1.132-1.16,6.482,0,12.964-.018,19.446.008a12.391,12.391,0,0,1,7.442,2.21,9.749,9.749,0,0,1,4.08,9.328,8.384,8.384,0,0,1-3.168,6.136C2670.375,736.424,2670.006,736.643,2669.557,736.949Zm-13.811,3.658v-.1q-3.109,0-6.219,0c-.916,0-1.172.247-1.172,1.153q-.005,4.958,0,9.917c0,.912.245,1.148,1.177,1.148,3.94,0,7.881.034,11.821-.019a19.162,19.162,0,0,0,3.712-.429,4.6,4.6,0,0,0,3.933-3.85,11.694,11.694,0,0,0,.131-2.785,4.711,4.711,0,0,0-3.639-4.563,9.438,9.438,0,0,0-2.466-.449C2660.6,740.569,2658.173,740.607,2655.747,740.607Zm-.084-5.873c1.794,0,3.587.013,5.381-.007a13.4,13.4,0,0,0,1.894-.15,4.662,4.662,0,0,0,4.366-4.306c.319-2.526-.625-4.809-3.468-5.62a9.514,9.514,0,0,0-2.477-.385c-3.979-.043-7.959-.026-11.938-.027-.783,0-1.04.26-1.04,1.037q0,4.232,0,8.463c0,.769.227.993,1.005.994Q2652.524,734.737,2655.662,734.734Z" transform="translate(-2601.338 -712.679)" fill="#12263f"/><path d="M2991.119,732.643c-.934,0-1.869-.022-2.8.008a1.159,1.159,0,0,1-1.184-.728q-6.4-12.219-12.829-24.423c-.189-.361-.382-.7-.846-.71-.5-.008-.688.361-.885.737q-6.373,12.139-12.74,24.28a1.353,1.353,0,0,1-1.4.849c-1.848-.039-3.7-.011-5.548-.014-.88,0-1.085-.341-.675-1.109l20.28-37.958c.079-.148.156-.3.242-.442a.759.759,0,0,1,1.432.02c.822,1.507,1.626,3.023,2.435,4.536q9.019,16.882,18.035,33.764c.466.872.275,1.187-.716,1.189Q2992.52,732.645,2991.119,732.643Z" transform="translate(-2842.012 -692.636)" fill="#12263f"/><path d="M2799.056,718.46c.915,0,1.832.027,2.746-.01a1.19,1.19,0,0,1,1.235.741q4.456,8.532,8.948,17.046l3.8,7.233c.052.1.08.228.16.292.247.2.516.515.774.513a1.086,1.086,0,0,0,.754-.529c.935-1.7,1.824-3.425,2.726-5.142q5.113-9.736,10.219-19.476a1.105,1.105,0,0,1,1.1-.674c1.905.018,3.812.006,5.717.008.9,0,1.11.346.683,1.147q-8.742,16.365-17.486,32.729-1.451,2.715-2.9,5.432c-.177.332-.342.667-.8.676-.49.01-.662-.333-.851-.687q-10.166-19.032-20.334-38.061c-.053-.1-.108-.2-.153-.3-.251-.567-.046-.922.577-.932C2797,718.448,2798.028,718.46,2799.056,718.46Z" transform="translate(-2720.433 -712.661)" fill="#12263f"/></svg>