<svg xmlns="http://www.w3.org/2000/svg" width="160.914" height="49.205" viewBox="0 0 160.914 49.205"><path d="M1719,895.2a34.487,34.487,0,0,0-7.48-.716,30.661,30.661,0,0,0-9.04,1.032c-4.3.989-10.523,2.764-14.648,3.782a35.249,35.249,0,0,1-8.195,1.312,16.182,16.182,0,0,1-2.858-.245,10.511,10.511,0,0,1-2.278-.667,7.986,7.986,0,0,1-1.7-.948,7.424,7.424,0,0,1-1.247-1.16,6.6,6.6,0,0,1-.892-1.346,7.6,7.6,0,0,1-.591-1.553,9.661,9.661,0,0,1-.291-1.819,12.6,12.6,0,0,1,.023-2.06,16.865,16.865,0,0,1,.767-3.558,41.694,41.694,0,0,1,2.164-5.427,75.942,75.942,0,0,1,4.029-7.322,83.771,83.771,0,0,1,5.078-7.2,57.035,57.035,0,0,1,4.658-5.219,33.789,33.789,0,0,1,3.63-3.129,18.127,18.127,0,0,1,2.674-1.646,10.3,10.3,0,0,1,2.031-.772,6.542,6.542,0,0,1,1.66-.224,1.284,1.284,0,0,1,.884.253,1.183,1.183,0,0,1,.293.919,5.967,5.967,0,0,1-.023.664,10.9,10.9,0,0,0-2.346,1.548,8.227,8.227,0,0,0-.73.718,3.006,3.006,0,0,0-.833,1.6,1.657,1.657,0,0,0,.656,1.3c.959.75,2.157.248,3.349-1.1a6.915,6.915,0,0,0,.677-.939,7.906,7.906,0,0,0,.555-1.1c.589-1.518.926-3.085.055-4.419a3.045,3.045,0,0,0-.774-.791,3.663,3.663,0,0,0-1.113-.52,5.073,5.073,0,0,0-1.641-.172,14.3,14.3,0,0,0-2.79.363,20.415,20.415,0,0,0-3.692,1.265,31.625,31.625,0,0,0-4.594,2.566,49.161,49.161,0,0,0-5.468,4.266,63.162,63.162,0,0,0-5.707,5.884,57,57,0,0,0-8.272,12.641,34.075,34.075,0,0,0-1.865,4.945,21.091,21.091,0,0,0-.761,3.994,17.171,17.171,0,0,0,.17,4.749,11.037,11.037,0,0,0,.529,1.834,8.537,8.537,0,0,0,.784,1.564,7.909,7.909,0,0,0,1.076,1.354,8.572,8.572,0,0,0,1.456,1.169,10.224,10.224,0,0,0,1.98.98,13.592,13.592,0,0,0,2.795.721,23.954,23.954,0,0,0,3.79.284,29.733,29.733,0,0,0,7.8-.878c3.572-.786,8.589-2.171,12.174-2.946a29.6,29.6,0,0,1,7.844-.87,22.017,22.017,0,0,1,3.74.275,10.226,10.226,0,0,1,2.621.764,8.806,8.806,0,0,1,2.191,1.339,16.6,16.6,0,0,1,2.3,2.316,17.6,17.6,0,0,1,6.559-2.813,13.068,13.068,0,0,1,2.532-.252,8.4,8.4,0,0,1,1.083.094,10.977,10.977,0,0,1,2.153.558c1.293.428,3.425,1.2,5.536,2a37.525,37.525,0,0,0-6.382-4.871A19.244,19.244,0,0,0,1719,895.2Zm26.881-28.453H1741l-2.462,4.492h4.689Zm70.97-7.817a21.314,21.314,0,0,1-5.876,2.5,26.183,26.183,0,0,1-6.7.789l-4.208,5.1c.346.055.688.094.978.117a15.368,15.368,0,0,0,2.007.089,17.762,17.762,0,0,0,4.644-.624,25.506,25.506,0,0,0,9.661-5.105,24.065,24.065,0,0,0,3.58-3.739,17.593,17.593,0,0,0,2.243-3.8A44.377,44.377,0,0,1,1816.851,858.932Zm-5.558,32.088c-.865,1.183-1.767,2.336-2.494,3.206a25.531,25.531,0,0,1-1.725,1.894,11.006,11.006,0,0,1-1.065.935,4.8,4.8,0,0,1-.683.451,1.464,1.464,0,0,1-1,.225c-.353-.087-.338-.4-.326-.591.054-.149-.062.06.438-.9.373-.707,1.089-2.048,1.816-3.387l8.394-14.285h-4.13l-1.423,1.222a11.6,11.6,0,0,0-1.439-.847,3.254,3.254,0,0,0-.892-.306,4.042,4.042,0,0,0-.783-.069,8.338,8.338,0,0,0-4.279,1.36,15.389,15.389,0,0,0-1.472,1.01c-.536.418-1.137.943-1.86,1.618a27.176,27.176,0,0,0-3.088,3.4c-1.507,1.888-3.669,4.819-5.191,6.823s-2.4,3.106-3.014,3.781a6.829,6.829,0,0,1-1.208,1.145,2.839,2.839,0,0,1-.637.357,1.221,1.221,0,0,1-.666.093c-.386-.02-.837-.589-.9-.981a4.364,4.364,0,0,1,.2-2.2c.157-.666.429-1.652.842-2.912s.949-2.791,1.531-4.307a93.382,93.382,0,0,0,8.677-6.289,43.148,43.148,0,0,0,5.749-5.649,70.064,70.064,0,0,0,5.063-6.851l-1.9.208a53.636,53.636,0,0,1-4.13,5.185,66.123,66.123,0,0,1-5.343,5.324,70.044,70.044,0,0,1-6.342,5c1.406-2.653,2.907-5.279,4.479-7.841s3.222-5.041,4.855-7.332,3.247-4.373,4.7-6.1,2.75-3.1,3.805-4.124a22.777,22.777,0,0,1,2.5-2.144,7.682,7.682,0,0,1,1.433-.838,2.141,2.141,0,0,1,.822-.194.559.559,0,0,1,.331.112c.445.39.367.614.287,1.047a3.175,3.175,0,0,1-.245.741c-.195.488-.55,1.339-.923,2.18l1.71-.2c.315-.5.6-1.011.783-1.371a2.949,2.949,0,0,0,.292-.772,4.81,4.81,0,0,0,.113-.721,2.641,2.641,0,0,0-.851-2.325,2.206,2.206,0,0,0-.7-.395,4.558,4.558,0,0,0-2.683.157,12.187,12.187,0,0,0-2.484,1.052,23.944,23.944,0,0,0-3.447,2.336,46.958,46.958,0,0,0-4.754,4.4,81.28,81.28,0,0,0-5.912,6.969c-2.082,2.731-4.224,5.852-6.185,9.044a110.1,110.1,0,0,0-5.369,9.8h-2.256c.445-.935.864-1.893,1.13-2.576a10.5,10.5,0,0,0,.47-1.531,5.8,5.8,0,0,0-.118-3.438,3.154,3.154,0,0,0-.488-.813,2.731,2.731,0,0,0-2.3-1.04,6.079,6.079,0,0,0-1.306.191,8.138,8.138,0,0,0-1.72.633,15.142,15.142,0,0,0-2.216,1.313,24.16,24.16,0,0,0-2.732,2.269,34.933,34.933,0,0,0-2.985,3.244,33.946,33.946,0,0,0-4.493,7.19,20.638,20.638,0,0,0-1.012,2.764,12.767,12.767,0,0,0-.407,2.111,6.245,6.245,0,0,0,.038,1.572,4.009,4.009,0,0,0,.383,1.234,3.317,3.317,0,0,0,.707.95,3.022,3.022,0,0,0,.993.608,3.606,3.606,0,0,0,1.224.215,6.085,6.085,0,0,0,2.823-.755,13.291,13.291,0,0,0,1.874-1.191,22.223,22.223,0,0,0,2.39-2.147,37.828,37.828,0,0,0,3.117-3.676c1.169-1.55,2.5-3.5,3.731-5.494h2.253c-.75,1.953-1.455,3.922-1.861,5.17a14.862,14.862,0,0,0-.605,2.288,10.54,10.54,0,0,0-.2,2.709,4.561,4.561,0,0,0,.23,1.023,3.532,3.532,0,0,0,.434.842,3.247,3.247,0,0,0,.647.655,3.077,3.077,0,0,0,.851.424,3.834,3.834,0,0,0,1.037.157,6.843,6.843,0,0,0,3.929-1.462,17.57,17.57,0,0,0,1.947-1.61,36.205,36.205,0,0,0,2.5-2.644,15.917,15.917,0,0,0-.065,1.739,9.309,9.309,0,0,0,.1,1.239,5.736,5.736,0,0,0,.2.825,3.185,3.185,0,0,0,.256.577,2.139,2.139,0,0,0,2.092,1.13,5.359,5.359,0,0,0,.885-.092,5.981,5.981,0,0,0,2.025-.819,10.292,10.292,0,0,0,1.442-1.084c.6-.527,1.384-1.292,2.128-2.083-.05.562-.071,1.126-.066,1.555a5.265,5.265,0,0,0,.094.943,2.862,2.862,0,0,0,.155.582,1.771,1.771,0,0,0,1.021,1.062,4.927,4.927,0,0,0,3.663-.619,12.38,12.38,0,0,0,1.839-1.185,20.889,20.889,0,0,0,2.266-2.1,32.687,32.687,0,0,0,2.77-3.415,52.95,52.95,0,0,0,3.035-4.795Zm-37.085,1.341a30.22,30.22,0,0,1-1.853,2.419,21.017,21.017,0,0,1-1.694,1.8,10.025,10.025,0,0,1-1.269,1.041,4.835,4.835,0,0,1-.806.45,1.251,1.251,0,0,1-.513.117,1.62,1.62,0,0,1-1.319-.741,2.439,2.439,0,0,1-.3-.587,3.539,3.539,0,0,1-.167-1.645,9.909,9.909,0,0,1,.25-1.4,10.723,10.723,0,0,1,.567-1.642,16.592,16.592,0,0,1,4.468-5.825,4.65,4.65,0,0,0,.871,1.349,5.28,5.28,0,0,0,.688.619,5.964,5.964,0,0,0,1.084.636,14.576,14.576,0,0,0,1.76.661C1775.422,890.563,1774.827,891.487,1774.208,892.361Zm3.95-8.694a8.194,8.194,0,0,1-.131.879,5.379,5.379,0,0,1-.394,1.18c-.253.6-.7,1.532-1.182,2.443a10.485,10.485,0,0,1-1.376-.558,3.519,3.519,0,0,1-.753-.475,2.653,2.653,0,0,1-.438-.425,2.542,2.542,0,0,1-.5-.856,3.7,3.7,0,0,1,1.595-4.364,2.869,2.869,0,0,1,1.54-.46,1.682,1.682,0,0,1,1.252.378,1.924,1.924,0,0,1,.428,1.383C1778.2,883.037,1778.186,883.355,1778.158,883.667Zm22.225,9.821a25.741,25.741,0,0,1-1.745,2.386,10.612,10.612,0,0,1-1.245,1.326,3.459,3.459,0,0,1-.9.594,1.473,1.473,0,0,1-1.565-.062c-.326-.4-.287-.7-.25-1.278a9.863,9.863,0,0,1,.167-.986,11.917,11.917,0,0,1,.4-1.331,15.839,15.839,0,0,1,.735-1.7c.321-.645.729-1.378,1.238-2.2s1.139-1.722,1.856-2.652,1.541-1.892,2.325-2.729a28.483,28.483,0,0,1,2.191-2.107,12.318,12.318,0,0,1,1.536-1.153,5.058,5.058,0,0,1,.888-.448,1.528,1.528,0,0,1,.538-.112,1.267,1.267,0,0,1,.713.135c.319.293.144.632.04,1.029a5.914,5.914,0,0,1-.363.893,13.26,13.26,0,0,1-.677,1.208Zm-37.264-8.032a18.576,18.576,0,0,0,.513-2.991,5.063,5.063,0,0,0-.172-2,2.917,2.917,0,0,0-.319-.651,2.417,2.417,0,0,0-1.046-.879,3.194,3.194,0,0,0-.817-.248,5.372,5.372,0,0,0-1.1-.1,8.278,8.278,0,0,0-1.373.131,10.737,10.737,0,0,0-6.011,3.706,19.546,19.546,0,0,0-1.592,2.065,22.931,22.931,0,0,0-1.51,2.645,26.774,26.774,0,0,0-1.307,3.127,29.883,29.883,0,0,0-.945,3.434c1.078-.9,2.184-1.769,2.977-2.353a15.422,15.422,0,0,1,1.923-1.225c.643-.346,1.455-.747,2.276-1.122a17.356,17.356,0,0,1,1.256-3.7,12.014,12.014,0,0,1,.742-1.353,9.149,9.149,0,0,1,.726-.99,4.963,4.963,0,0,1,1.9-1.485,2.052,2.052,0,0,1,2.372.282,1.953,1.953,0,0,1,.435,1.157,13.084,13.084,0,0,1-.929,4.545,18.5,18.5,0,0,1-1.01,2.232,20.894,20.894,0,0,1-1.507,2.406,25.222,25.222,0,0,1-4.67,4.9,16.374,16.374,0,0,1-4.777,2.759,5.246,5.246,0,0,1-1.49.271,3.827,3.827,0,0,1-1.219-.18,4.7,4.7,0,0,1-2.188-1.533,5.923,5.923,0,0,1-.752-1.255,5.665,5.665,0,0,1-.439-2.748,15.517,15.517,0,0,1,1.056-3.859,71.768,71.768,0,0,1,3.229-7.144c1.468-2.819,3.3-5.954,5.076-8.686a82.153,82.153,0,0,1,5.034-6.93,53.391,53.391,0,0,1,4.14-4.593,36.676,36.676,0,0,1,3.3-2.892,23.737,23.737,0,0,1,2.623-1.741,15.91,15.91,0,0,1,2.146-1.019,12.348,12.348,0,0,1,5.059-.7,31.764,31.764,0,0,0-3.863,2.6,25.358,25.358,0,0,0-5.25,5.448,17.963,17.963,0,0,0-1.362,2.341,12.276,12.276,0,0,0-.764,2.049,11.466,11.466,0,0,0-.334,1.717,4.558,4.558,0,0,0,0,1.116,3.183,3.183,0,0,0,.211.8,2.355,2.355,0,0,0,.381.608,2.124,2.124,0,0,0,.552.456,2.836,2.836,0,0,0,.767.3,3.956,3.956,0,0,0,.973.113,5.514,5.514,0,0,0,2.333-.595,9.772,9.772,0,0,0,1.512-.916,15.364,15.364,0,0,0,1.769-1.5,21.541,21.541,0,0,0,1.84-2.107,22.743,22.743,0,0,0,1.651-2.489,18.893,18.893,0,0,0,1.957-4.729,12.138,12.138,0,0,0,.336-1.953c.013-.155.018-.315.019-.625s-.019-.776-.022-1.106a6.525,6.525,0,0,1,.031-.718,16.6,16.6,0,0,1,4.526.546,16.416,16.416,0,0,1,4.67,2.174,67.851,67.851,0,0,1,6.829,5.042l4.542-4.7a43.575,43.575,0,0,0-4.452-3.391,23.083,23.083,0,0,0-3.61-1.963,15.949,15.949,0,0,0-2.842-.912,11.1,11.1,0,0,0-3.824-.183,11.958,11.958,0,0,0-2.029.423c-1.019.288-2.537.785-4.039,1.331a18.982,18.982,0,0,0-2.271-1.287,5.118,5.118,0,0,0-1.408-.445,10.256,10.256,0,0,0-4.735.46,27.527,27.527,0,0,0-4.853,2.026,48.455,48.455,0,0,0-6.326,4.051,65.732,65.732,0,0,0-12.378,12.238,54.491,54.491,0,0,0-4.129,6.131,43.229,43.229,0,0,0-2.673,5.423,35.362,35.362,0,0,0-1.549,4.745,27.165,27.165,0,0,0-.689,3.95,11.351,11.351,0,0,0,.027,2.749,9.215,9.215,0,0,0,.613,2.3,8.63,8.63,0,0,0,1.191,2.01,8.2,8.2,0,0,0,1.754,1.616,8.491,8.491,0,0,0,7.257.991,16.513,16.513,0,0,0,3.2-1.362,27.633,27.633,0,0,0,7.128-5.8,27.335,27.335,0,0,0,4.612-7.072A22.8,22.8,0,0,0,1763.119,885.457Zm12.407-27.284a17.372,17.372,0,0,1-.543,2.808,30.121,30.121,0,0,1-1.138,3.35,28.56,28.56,0,0,1-1.44,3.007,19.372,19.372,0,0,1-1.367,2.112,8.145,8.145,0,0,1-3,2.671,2.851,2.851,0,0,1-2.782-.033,1.5,1.5,0,0,1-.546-.782,5.492,5.492,0,0,1,.553-2.99,11.189,11.189,0,0,1,.75-1.47,15.592,15.592,0,0,1,1.26-1.814,23.155,23.155,0,0,1,2.032-2.228,29.687,29.687,0,0,1,2.915-2.5A26.751,26.751,0,0,1,1775.526,858.173Zm-44.832,24.866a16.174,16.174,0,0,1-1.511,1.648,4.371,4.371,0,0,1-.65.527,1.42,1.42,0,0,1-1.043.274.525.525,0,0,1-.47-.567,1.052,1.052,0,0,1,.125-.6c.1-.227.27-.624.755-1.575s1.279-2.476,2.089-3.983l7.071-12.044h-4.5l-.844,1.023a12.806,12.806,0,0,0-1.668-.864,3.69,3.69,0,0,0-1.027-.292,6.1,6.1,0,0,0-.951-.071,6.742,6.742,0,0,0-3.4,1.07,18.423,18.423,0,0,0-1.729,1.214,21.038,21.038,0,0,0-3.124,3.018c-1.586,1.776-3.9,4.625-5.823,6.934s-3.441,4.093-4.525,5.248a15.145,15.145,0,0,1-2.265,2.042,9.053,9.053,0,0,1-1.3.816,4.237,4.237,0,0,1-.976.373,2.658,2.658,0,0,1-2.143-.238,1.414,1.414,0,0,1-.511-.865,5.478,5.478,0,0,1,.182-2.378,13.215,13.215,0,0,1,.523-1.69,18.6,18.6,0,0,1,1-2.2,29.191,29.191,0,0,1,1.656-2.781,36.274,36.274,0,0,1,4.8-5.792,15.815,15.815,0,0,1,1.851-1.558,5.779,5.779,0,0,1,1.074-.617,1.56,1.56,0,0,1,.615-.148,1.044,1.044,0,0,1,.669.2.951.951,0,0,1,.334.784,4.974,4.974,0,0,1-.021.656,8.454,8.454,0,0,0-1.189.271,4.6,4.6,0,0,0-.778.324,5.115,5.115,0,0,0-.515.325,2.758,2.758,0,0,0-1.153,2.373,1.581,1.581,0,0,0,.526.862c.789.7,1.829.239,2.886-1.01a7.694,7.694,0,0,0,.571-.777,7.941,7.941,0,0,0,1.115-2.527,3.289,3.289,0,0,0-1.178-3.646,2.815,2.815,0,0,0-1.675-.487,6.461,6.461,0,0,0-1.289.143,9.226,9.226,0,0,0-1.475.469,8.5,8.5,0,0,0-2.268,1.406c-1.123.9-2.781,2.426-4.081,3.532a26.6,26.6,0,0,1-3.084,2.3,14.2,14.2,0,0,1-2.182,1.112,13.431,13.431,0,0,1-1.965.628c.39-.861.745-1.74,1.014-2.492s.457-1.4.578-1.875a6.247,6.247,0,0,0,.21-1.162,4.625,4.625,0,0,0-.228-1.936,3.109,3.109,0,0,0-.366-.7,2.687,2.687,0,0,0-1.086-.908,4.531,4.531,0,0,0-3.1-.107,10.685,10.685,0,0,0-1.974.754,17.4,17.4,0,0,0-2.516,1.532,25.871,25.871,0,0,0-2.928,2.471,33.817,33.817,0,0,0-2.9,3.2,29.235,29.235,0,0,0-3.944,6.535,18.688,18.688,0,0,0-.906,2.636,15.141,15.141,0,0,0-.391,2.117,7.1,7.1,0,0,0-.008,1.439,4.346,4.346,0,0,0,.236,1.079,3.3,3.3,0,0,0,.443.862,2.9,2.9,0,0,0,.658.658,3.035,3.035,0,0,0,.9.436,4.174,4.174,0,0,0,1.158.163,6.624,6.624,0,0,0,1.4-.175,7.943,7.943,0,0,0,1.568-.555,12.2,12.2,0,0,0,1.812-1.079,19.971,19.971,0,0,0,2.269-1.934,36.032,36.032,0,0,0,3.087-3.5c1.232-1.582,2.72-3.682,4.111-5.822l3.452-.822c-1.017,1.852-1.971,3.748-2.522,4.955a9.879,9.879,0,0,0-.819,2.288,7.037,7.037,0,0,0,.315,4.946,4.145,4.145,0,0,0,.939,1.115,4.059,4.059,0,0,0,1.355.729,5.343,5.343,0,0,0,1.726.253,8.4,8.4,0,0,0,4.8-1.543,17.364,17.364,0,0,0,2.332-1.8c.982-.874,2.219-2.1,3.4-3.4-.107,1.126-.171,2.255-.178,2.983a5.942,5.942,0,0,0,.1,1.326,4.168,4.168,0,0,0,.18.65,2.685,2.685,0,0,0,.225.445,1.88,1.88,0,0,0,1,.769,4.829,4.829,0,0,0,3.55-.432,10.061,10.061,0,0,0,1.625-.985,27.663,27.663,0,0,0,2.26-1.893,12.516,12.516,0,0,0-.06,1.262,3.515,3.515,0,0,0,.075.711,1.7,1.7,0,0,0,.3.731,2.057,2.057,0,0,0,1.526.722,7.445,7.445,0,0,0,.856.05,7.133,7.133,0,0,0,3.883-1.373,15.749,15.749,0,0,0,2.476-2.055,28.449,28.449,0,0,0,2.874-3.409,47.912,47.912,0,0,0,3.056-4.805l-.923-.206C1732.844,880.423,1731.535,882.04,1730.694,883.039Zm-39.9-.2a13.7,13.7,0,0,1-1.664,1.965,8.676,8.676,0,0,1-.825.685,3.982,3.982,0,0,1-.641.368,1.908,1.908,0,0,1-2.582-.53,2.13,2.13,0,0,1-.215-1.333,5.93,5.93,0,0,1,.288-1.241,14.41,14.41,0,0,1,.88-2.056,28.131,28.131,0,0,1,1.829-3.035,44.568,44.568,0,0,1,2.754-3.592,16.486,16.486,0,0,0,1.3,1.6,4.609,4.609,0,0,0,1.107.89,11.868,11.868,0,0,0,1.622.769C1693.221,879.479,1691.735,881.587,1690.795,882.835Zm6.226-11.168a8.171,8.171,0,0,1-.14.916,5.686,5.686,0,0,1-.372,1.1c-.225.525-.585,1.279-.972,2.034a12.624,12.624,0,0,1-1.348-.557,5.7,5.7,0,0,1-.842-.52,3.91,3.91,0,0,1-.847-.893,2.731,2.731,0,0,1,.637-3.6,4.262,4.262,0,0,1,.611-.484,3.622,3.622,0,0,1,.7-.383c.727-.274,1.411-.545,2.048-.015A3,3,0,0,1,1697.021,871.668Zm25.744,10.155c-.412.632-.842,1.24-1.22,1.729a12.38,12.38,0,0,1-.975,1.136,6.18,6.18,0,0,1-.7.66,2.683,2.683,0,0,1-.908.507,1.253,1.253,0,0,1-1.293-.374,1.525,1.525,0,0,1-.366-1.279,5.126,5.126,0,0,1,.188-.922,10.829,10.829,0,0,1,.531-1.464,23.1,23.1,0,0,1,1.159-2.25c.535-.909,1.238-2.01,2.079-3.162s1.8-2.362,2.68-3.366a30.429,30.429,0,0,1,2.308-2.382,10.778,10.778,0,0,1,1.446-1.158,3.5,3.5,0,0,1,.79-.429,1.222,1.222,0,0,1,1,0c.547.363.307,1.016.259,1.355a3,3,0,0,1-.332.7c-.252.431-.717,1.18-1.184,1.929Zm88.613,19.816-.421-1.531h-.692v2.245h.427l0-1.767.452,1.767h.45l.452-1.767,0,1.767h.428v-2.245h-.7Zm3.081-.089a1.214,1.214,0,0,0-.247-.189.732.732,0,0,0,.456-.21.587.587,0,0,0,.148-.413.648.648,0,0,0-.1-.353.512.512,0,0,0-.265-.215,1.644,1.644,0,0,0-.532-.063h-.974v2.245h.464v-.936h.094a.691.691,0,0,1,.232.028.307.307,0,0,1,.138.092,2.589,2.589,0,0,1,.246.33l.33.487H1815l-.279-.436A2.413,2.413,0,0,0,1814.459,901.55Zm-.711-.5h-.34v-.565h.358c.187,0,.3.006.336.009a.274.274,0,0,1,.172.086.272.272,0,0,1,.063.182.268.268,0,0,1-.048.167.239.239,0,0,1-.128.1A1.859,1.859,0,0,1,1813.749,901.054Z" transform="translate(-1662.269 -854.088)" fill="#12263f" fill-rule="evenodd"/></svg>