<svg xmlns="http://www.w3.org/2000/svg" xmlns:xlink="http://www.w3.org/1999/xlink" width="78.709" height="78.709" viewBox="0 0 78.709 78.709"><defs><radialGradient id="a" cx="0.076" cy="0.019" r="1.465" gradientTransform="translate(0.001)" gradientUnits="objectBoundingBox"><stop offset="0" stop-color="#f6f6f7"/><stop offset="0.477" stop-color="#f9f9fa"/><stop offset="0.715" stop-color="#fff"/></radialGradient></defs><g transform="translate(-217 -997)"><g transform="translate(217 997)"><g transform="translate(0 0)"><path d="M273.332,2185.074a39.354,39.354,0,1,1-39.354-39.353A39.354,39.354,0,0,1,273.332,2185.074Z" transform="translate(-194.623 -2145.721)" fill="#fff"/><path d="M273.18,2184.909a39.353,39.353,0,1,0-39.354,39.355A39.2,39.2,0,0,0,273.18,2184.909Z" transform="translate(-194.472 -2145.556)" fill="url(#a)"/><path d="M269.058,2186.837a33.31,33.31,0,1,0-33.31,33.31A33.186,33.186,0,0,0,269.058,2186.837Z" transform="translate(-196.316 -2147.398)" fill="none" stroke="#7d6eb2" stroke-miterlimit="10" stroke-width="4"/><g transform="translate(6.972 22.095)"><path d="M268.3,2164.488a39.359,39.359,0,0,1-67.757,39.191,39.234,39.234,0,0,0,67.757-39.191Z" transform="translate(-200.545 -2164.488)" fill="#eceef0"/></g></g></g><g transform="translate(241.932 1016.148)"><path d="M-1053.843,1368.842a8.978,8.978,0,0,1-.961.11q-11.605.01-23.21.007c-.134,0-.269,0-.4-.01a.641.641,0,0,1-.68-.714c-.011-.656-.02-1.312,0-1.967.013-.36-.123-.47-.468-.458-.551.02-1.1.01-1.655,0-.531-.011-.76-.24-.767-.77-.009-.656,0-1.312,0-1.967q0-14.937,0-29.874c0-.931.163-1.094,1.087-1.094h23.166c.884,0,1.059.178,1.059,1.077,0,.566.008,1.133,0,1.7-.005.262.076.374.358.364.536-.018,1.073-.005,1.61,0,.691.005.912.225.912.907,0,2.221,0,4.442-.006,6.663a.737.737,0,0,0,.307.639,17.351,17.351,0,0,1,5.4,7.217,11.672,11.672,0,0,1,.516,5.767c-.158,1.239-.336,2.481-.384,3.726a7.778,7.778,0,0,0,.831,3.761,12.579,12.579,0,0,0,.838,1.314c.509.771,1.026,1.536,1.533,2.308.378.577.31.887-.27,1.26q-2.669,1.716-5.341,3.427c-.685.438-.952.384-1.393-.279-.6-.905-1.2-1.815-1.8-2.721C-1053.665,1369.084-1053.772,1368.942-1053.843,1368.842Zm-5.1-11.006a2.351,2.351,0,0,0-.307-.375c-.268-.218-.545-.415-.262-.734l-.438-.109a1.9,1.9,0,0,1,.355-.312,2.323,2.323,0,0,1,.489-.137l-.035-.153-1.065.232a1.378,1.378,0,0,1-.164-.314c-.129-.572-.514-.627-1.028-.624-3.816.02-7.633.011-11.449.011-.771,0-1.083-.2-1.081-.684,0-.46.318-.654,1.058-.654q5.814,0,11.628.006c.334,0,.539-.061.661-.422a1.406,1.406,0,0,1,1.214-.989,10.932,10.932,0,0,1,1.285-.01V1333.5h-22.558v.654q0,14.87,0,29.741c0,.578,0,.577.59.577h21.2c.961,0,.794.087.806-.8a20.136,20.136,0,0,1,.041-2.634,3.11,3.11,0,0,0-.832-3.081,1.733,1.733,0,0,1-.12-.13c.216-.235.445-.483.245-.82a2.205,2.205,0,0,0-.428-.412l-.141.1C-1058.644,1356.949-1058.867,1357.411-1058.94,1357.837Zm5.328-12.79-.157.089c-.008.112-.023.225-.024.337,0,.924-.026,1.849.01,2.772a1.353,1.353,0,0,0,.3.786,5.315,5.315,0,0,1,1.23,2.349,13.965,13.965,0,0,1,.372,2.286,7.958,7.958,0,0,1-1.163,5.084,1.027,1.027,0,0,1-.933.5,1.468,1.468,0,0,1-1.185-.7c-.527-.772-1-1.583-1.478-2.387-.275-.46-.493-.954-.787-1.4a1.775,1.775,0,0,0-1.471-.884c-.32-.01-.487.14-.5.439a3.424,3.424,0,0,0,1.016,2.189c.5.64,1.048,1.239,1.555,1.873.047.059-.058.24-.1.389l.437.071c0,.954-.037,1.9.009,2.851a5.194,5.194,0,0,0,1.01,3.4,34.165,34.165,0,0,0,2.764,2.474c1.259-.8,2.752-1.754,4.235-2.72a.385.385,0,0,0,.069-.359,12.248,12.248,0,0,1-.666-7.312,12.668,12.668,0,0,0,.172-4.222,12.1,12.1,0,0,0-2.594-5.519C-1052.14,1346.6-1052.9,1345.841-1053.612,1345.047Zm-3.171,20.662c-.36.038-.679.1-1,.1q-9.366.009-18.732.005c-1.267,0-1.249,0-1.261,1.27,0,.439.147.538.562.538q10.774-.018,21.549-.009h.468l.074-.139Zm1.516-9.884.092-.03V1336.64h-1.5v.6c0,5.08.01,10.16-.012,15.239a2.666,2.666,0,0,0,.528,1.769A11.841,11.841,0,0,1-1055.267,1355.825Zm9.113,12.085-1.322-1.987-4.712,2.929,1.364,2.054Zm-7.624-10.8c.816-1.242.655-5.059,0-5.718Z" transform="translate(1081.988 -1332.103)" fill="#12263f"/><path d="M-1013.916,1707.767l1.661,1.766-.074.139h-.468q-10.774,0-21.549.009c-.415,0-.566-.1-.562-.538.012-1.27-.006-1.27,1.261-1.27q9.366,0,18.732-.005C-1014.595,1707.868-1014.276,1707.805-1013.916,1707.767Z" transform="translate(1039.12 -1674.162)" fill="#fff"/><path d="M-766.642,1553.417V1547.7C-765.987,1548.359-765.826,1552.176-766.642,1553.417Z" transform="translate(794.852 -1528.412)" fill="#fff"/><path d="M-827.81,1607.1l.014.011c.073-.426.3-.887-.339-1.146l.141-.1a2.2,2.2,0,0,1,.428.412C-827.365,1606.615-827.594,1606.863-827.81,1607.1Z" transform="translate(850.844 -1581.375)" fill="#fff"/><path d="M-1034,1379.5a7.069,7.069,0,0,0,.735.475,2.423,2.423,0,0,1,1.335,1.935c.066.4.154.789.208,1.186a.667.667,0,0,1-.541.793.689.689,0,0,1-.781-.572,11.958,11.958,0,0,0-.287-1.349,2.36,2.36,0,0,0-.54-.76,2.517,2.517,0,0,0-.522-.339c-.51-.324-1-.711-1.672-.457a.548.548,0,0,1-.31,0c-1.088-.28-1.745.536-2.452,1.069-.3.229-.307.865-.433,1.32-.052.185-.057.383-.1.571a.624.624,0,0,1-.724.519.573.573,0,0,1-.576-.663,12.761,12.761,0,0,1,.61-2.4c.146-.365.628-.6.975-.876a8.19,8.19,0,0,1,.726-.458,2.994,2.994,0,0,1-.574-2.811,2.738,2.738,0,0,1,1.093-1.479,2.912,2.912,0,0,1,3.558.22C-1033.145,1376.442-1033.052,1377.731-1034,1379.5Zm-2.2-3.464a1.538,1.538,0,0,0-1.522,1.5,1.541,1.541,0,0,0,1.543,1.53,1.543,1.543,0,0,0,1.5-1.526A1.55,1.55,0,0,0-1036.19,1376.04Z" transform="translate(1044.365 -1370.887)" fill="#00223d"/><path d="M-1027.341,1500.47h-8a2.623,2.623,0,0,1-.445-.017.7.7,0,0,1-.609-.712.713.713,0,0,1,.69-.635c.1-.008.209,0,.313,0h16c.73,0,1.047.206,1.048.677s-.339.691-1.041.691Z" transform="translate(1040.476 -1484.162)" fill="#00223d"/><path d="M-1027.345,1655.335h-8.048c-.649-.005-.962-.224-.958-.671s.32-.673.975-.672c2.874,0,5.748.019,8.622.02q3.8,0,7.593-.021c.389,0,.722.076.833.5.131.5-.207.865-.791.863q-3.129-.009-6.259-.021C-1026.033,1655.333-1026.689,1655.335-1027.345,1655.335Z" transform="translate(1040.433 -1625.197)" fill="#00223d"/><path d="M-1027.345,1655.335h-8.048c-.649-.005-.962-.224-.958-.671s.32-.673.975-.672c2.874,0,5.748.019,8.622.02q3.8,0,7.593-.021c.389,0,.722.076.833.5.131.5-.207.865-.791.863q-3.129-.009-6.259-.021C-1026.033,1655.333-1026.689,1655.335-1027.345,1655.335Z" transform="translate(1040.433 -1627.973)" fill="#00223d"/><path d="M-984.9,1539.244h-5.9c-.164,0-.329.006-.492-.008a.652.652,0,0,1-.635-.672.647.647,0,0,1,.617-.648,3.54,3.54,0,0,1,.491-.008h12.073a2.612,2.612,0,0,1,.268.006.641.641,0,0,1,.625.677.613.613,0,0,1-.65.644c-.879.016-1.758.01-2.638.01Q-983.019,1539.246-984.9,1539.244Z" transform="translate(999.984 -1519.492)" fill="#00223d"/><path d="M-918.619,1383.072q1.541,0,3.082,0c.558,0,.876.246.876.668s-.3.691-.865.692q-3.148,0-6.3-.02c-.5,0-.764-.265-.757-.686s.288-.649.79-.651C-920.733,1383.068-919.676,1383.072-918.619,1383.072Z" transform="translate(936.84 -1378.512)" fill="#00223d"/><path d="M-918.609,1461.854c-1.042,0-2.084,0-3.126,0-.527,0-.805-.245-.8-.684,0-.417.27-.659.779-.661q3.171-.01,6.341,0a.708.708,0,0,1,.8.66c0,.41-.316.683-.819.686C-916.5,1461.857-917.552,1461.854-918.609,1461.854Z" transform="translate(936.801 -1449.016)" fill="#00223d"/><path d="M-918.646,1423.2c-1.042,0-2.083,0-3.125,0-.536,0-.819-.236-.823-.663s.291-.668.819-.668q3.125,0,6.25,0c.536,0,.842.238.852.642.011.435-.294.688-.848.689C-916.562,1423.2-917.6,1423.2-918.646,1423.2Z" transform="translate(936.852 -1413.832)" fill="#00223d"/><path d="M-1026.359,1539.65a.688.688,0,0,1-.719-.692.7.7,0,0,1,.743-.672.677.677,0,0,1,.712.695A.679.679,0,0,1-1026.359,1539.65Z" transform="translate(1031.99 -1519.842)" fill="#00223d"/><path d="M-1025.736,1576.976a.67.67,0,0,1-.7.7.713.713,0,0,1-.76-.662.737.737,0,0,1,.723-.707A.691.691,0,0,1-1025.736,1576.976Z" transform="translate(1032.101 -1554.459)" fill="#00223d"/><path d="M-925.661,1628.462l.826-.038.005.112c-.442.13-.69.1-.819-.088Z" transform="translate(939.646 -1601.916)"/></g></g></svg>