<svg xmlns="http://www.w3.org/2000/svg" width="433.669" height="272.604" viewBox="0 0 433.669 272.604"><g transform="translate(-27.932 -43.272)"><g transform="translate(27.932 43.604)"><g transform="translate(84.345)"><path d="M190.8,72.838h-29.04V43.8H190.8Zm-28.409-.63h27.779V44.429H162.389Z" transform="translate(-161.759 -43.799)" fill="#e0e0e0"/><g transform="translate(0.315 0.315)"><path d="M190.668,44.3c.064.064-6.245,6.476-14.088,14.319s-14.257,14.154-14.321,14.089,6.243-6.475,14.089-14.321S190.6,44.234,190.668,44.3Z" transform="translate(-162.258 -44.298)" fill="#e0e0e0"/></g><g transform="translate(1.321 0.814)"><path d="M189.784,73.183a1.767,1.767,0,0,1-.255-.3L188.852,72c-.579-.778-1.429-1.894-2.494-3.261-2.127-2.737-5.166-6.439-8.75-10.326s-7.038-7.21-9.6-9.55c-1.278-1.17-2.322-2.107-3.052-2.746l-.831-.746a1.746,1.746,0,0,1-.275-.277,1.744,1.744,0,0,1,.318.226l.871.7c.755.609,1.824,1.521,3.124,2.671,2.6,2.3,6.084,5.605,9.681,9.5s6.609,7.632,8.693,10.408c1.042,1.387,1.865,2.526,2.413,3.327l.628.925A1.736,1.736,0,0,1,189.784,73.183Z" transform="translate(-163.855 -45.091)" fill="#e0e0e0"/></g></g><g transform="translate(400.887 78.294)"><path d="M693.044,197.064H664V168.025h29.04Zm-28.409-.63h27.779V168.655H664.634Z" transform="translate(-664.004 -168.025)" fill="#e0e0e0"/><g transform="translate(0.315 0.315)"><path d="M692.914,168.525c.064.064-6.244,6.477-14.088,14.32S664.568,197,664.5,196.934s6.243-6.475,14.089-14.321S692.849,168.461,692.914,168.525Z" transform="translate(-664.504 -168.524)" fill="#e0e0e0"/></g><g transform="translate(1.321 0.814)"><path d="M692.03,197.409a1.746,1.746,0,0,1-.254-.3l-.678-.888c-.579-.777-1.429-1.894-2.494-3.261-2.127-2.736-5.166-6.439-8.75-10.326s-7.038-7.21-9.595-9.549c-1.278-1.17-2.323-2.107-3.051-2.747l-.831-.746a1.785,1.785,0,0,1-.275-.277,1.748,1.748,0,0,1,.318.227l.871.7c.755.61,1.825,1.521,3.124,2.671,2.6,2.3,6.083,5.605,9.681,9.5s6.61,7.631,8.693,10.407c1.043,1.387,1.866,2.526,2.413,3.328l.628.925A1.725,1.725,0,0,1,692.03,197.409Z" transform="translate(-666.1 -169.317)" fill="#e0e0e0"/></g></g><g transform="translate(4.247 122.872)"><path d="M63.709,267.793H34.67V238.755H63.709Zm-28.409-.63H63.079V239.385H35.3Z" transform="translate(-34.67 -238.755)" fill="#e0e0e0"/><g transform="translate(0.315 0.315)"><path d="M63.578,239.255c.064.064-6.244,6.476-14.087,14.319S35.233,267.728,35.17,267.663s6.243-6.475,14.089-14.321S63.514,239.19,63.578,239.255Z" transform="translate(-35.169 -239.254)" fill="#e0e0e0"/></g><g transform="translate(1.321 0.814)"><path d="M62.7,268.138a1.729,1.729,0,0,1-.255-.3l-.678-.888c-.579-.778-1.429-1.894-2.494-3.262-2.127-2.736-5.166-6.439-8.75-10.325s-7.038-7.211-9.6-9.55c-1.278-1.17-2.322-2.107-3.051-2.746l-.831-.746a1.806,1.806,0,0,1-.275-.278,1.79,1.79,0,0,1,.318.227l.871.7c.755.61,1.825,1.521,3.124,2.672,2.6,2.3,6.083,5.605,9.681,9.5s6.61,7.631,8.693,10.407c1.043,1.388,1.866,2.527,2.413,3.328l.628.925A1.789,1.789,0,0,1,62.7,268.138Z" transform="translate(-36.765 -240.046)" fill="#e0e0e0"/></g></g><g transform="translate(368.004 6.26)"><g transform="translate(2.644 2.494)"><path d="M652.653,94.783h-4.648v-.93h4.648Zm-9.3,0h-4.648v-.93h4.648Zm-9.3,0h-4.648v-.93h4.648Zm-9.3,0h-4.648v-.93h4.648Zm28.355-1.024h-.93V89.111h.93ZM616.954,93.3h-.93V88.647h.93Zm36.165-8.832h-.93V79.814h.93ZM616.954,84h-.93V79.35h.93Zm36.165-8.833h-.93V70.518h.93ZM616.954,74.7h-.93V70.054h.93Zm36.165-8.832h-.93V61.221h.93Zm-36.165-.465h-.93V60.757h.93Zm34.119-6.787h-4.648v-.93h4.648Zm-9.3,0h-4.649v-.93h4.649Zm-9.3,0h-4.647v-.93h4.647Zm-9.3,0h-4.648v-.93h4.648Z" transform="translate(-616.024 -57.689)" fill="#e0e0e0"/></g><path d="M615.249,60.572a3.42,3.42,0,1,1,3.42-3.42A3.425,3.425,0,0,1,615.249,60.572Zm0-5.911a2.49,2.49,0,1,0,2.49,2.49A2.493,2.493,0,0,0,615.249,54.662Z" transform="translate(-611.829 -53.732)" fill="#e0e0e0"/><g transform="translate(35.666)"><path d="M671.839,60.572a3.42,3.42,0,1,1,3.42-3.42A3.424,3.424,0,0,1,671.839,60.572Zm0-5.911a2.49,2.49,0,1,0,2.491,2.49A2.493,2.493,0,0,0,671.839,54.662Z" transform="translate(-668.419 -53.732)" fill="#e0e0e0"/></g><g transform="translate(0 36.676)"><path d="M615.249,118.764a3.42,3.42,0,1,1,3.42-3.42A3.424,3.424,0,0,1,615.249,118.764Zm0-5.911a2.49,2.49,0,1,0,2.49,2.491A2.494,2.494,0,0,0,615.249,112.854Z" transform="translate(-611.829 -111.924)" fill="#e0e0e0"/></g><g transform="translate(35.666 36.676)"><path d="M671.839,118.764a3.42,3.42,0,1,1,3.42-3.42A3.424,3.424,0,0,1,671.839,118.764Zm0-5.911a2.49,2.49,0,1,0,2.491,2.491A2.494,2.494,0,0,0,671.839,112.854Z" transform="translate(-668.419 -111.924)" fill="#e0e0e0"/></g><g transform="translate(13.749 11.263)"><path d="M640.335,74.775h-6.691V71.6h17.131v3.173h-6.691V91.79h-3.748Z" transform="translate(-633.644 -71.602)" fill="#e0e0e0"/></g></g><g transform="translate(0 37.484)"><path d="M44.892,123.521H35.175L34.018,126.2a5.946,5.946,0,0,0-.568,2.212,1.837,1.837,0,0,0,.933,1.7,7.861,7.861,0,0,0,2.7.487v.751H27.932V130.6a4.091,4.091,0,0,0,2.434-1.227,16.346,16.346,0,0,0,2.353-4.149l9.84-21.951h.386l9.921,22.56a13.714,13.714,0,0,0,2.333,4.037,3.187,3.187,0,0,0,1.948.73v.751H43.838V130.6h.548a4.17,4.17,0,0,0,2.251-.446,1.084,1.084,0,0,0,.446-.933,2.5,2.5,0,0,0-.121-.751q-.042-.182-.609-1.521Zm-.689-1.5-4.1-9.475-4.221,9.475Z" transform="translate(-27.932 -103.274)" fill="#e0e0e0"/></g></g><g transform="translate(160.274 43.272)"><g transform="translate(0.304 0.164)"><path d="M429.962,43.533H238.4V222.3h85.292v15.793L337.658,222.3h92.3Z" transform="translate(-238.397 -43.533)" fill="#fff"/></g><g transform="translate(0 0.164)"><rect width="192.173" height="12.957" fill="#e0e0e0"/><g transform="translate(4.705 4.085)"><path d="M251.018,52.833a2.819,2.819,0,1,1-2.819-2.819A2.819,2.819,0,0,1,251.018,52.833Z" transform="translate(-245.38 -50.014)" fill="#fff"/></g><g transform="translate(12.815 4.085)"><path d="M263.885,52.833a2.819,2.819,0,1,1-2.819-2.819A2.819,2.819,0,0,1,263.885,52.833Z" transform="translate(-258.247 -50.014)" fill="#fff"/></g><g transform="translate(20.924 4.085)"><path d="M276.752,52.833a2.819,2.819,0,1,1-2.819-2.819A2.819,2.819,0,0,1,276.752,52.833Z" transform="translate(-271.114 -50.014)" fill="#fff"/></g></g><g transform="translate(0.14)"><path d="M429.866,222.354c0-1.169-.055-71.121-.139-178.918l.139.139L238.3,43.6l.164-.164V54.645c-.006,60.312-.011,117.352-.016,167.71l-.147-.147,85.292.025h.122v.122c0,5.556,0,10.671-.006,15.639l-.2-.078,13.966-15.379.032-.035h.047l92.313-.147-92.313.36.078-.035-13.952,15.392-.2.222v-.3c0-4.967,0-10.082-.007-15.639l.123.122L238.3,222.5h-.147v-.147c-.005-50.357-.011-107.4-.016-167.71V43.272h.164l191.565.025H430v.139C429.921,151.233,429.866,221.186,429.866,222.354Z" transform="translate(-238.137 -43.272)" fill="#263238"/></g><g transform="translate(10.719 39.027)"><rect width="29.437" height="4.134" fill="#e0e0e0"/><g transform="translate(0.103 14.504)"><path d="M313.754,128.372c0,.09-13.134.164-29.333.164s-29.335-.074-29.335-.164,13.131-.165,29.335-.165S313.754,128.281,313.754,128.372Z" transform="translate(-255.086 -128.207)" fill="#263238"/></g><g transform="translate(0.103 31.885)"><path d="M296.187,155.949c0,.091-9.2.164-20.549.164s-20.551-.073-20.551-.164,9.2-.164,20.551-.164S296.187,155.858,296.187,155.949Z" transform="translate(-255.086 -155.785)" fill="#263238"/></g><g transform="translate(0.103 22.5)"><path d="M313.754,141.059c0,.091-13.134.164-29.333.164s-29.335-.073-29.335-.164,13.131-.164,29.335-.164S313.754,140.968,313.754,141.059Z" transform="translate(-255.086 -140.894)" fill="#263238"/></g></g><g transform="translate(21.922 131.431)"><g transform="translate(45.495)"><path d="M368.547,275.474H344.882V251.809h23.665Zm-23.035-.63h22.4v-22.4h-22.4Z" transform="translate(-344.882 -251.809)" fill="#12263f"/></g><g transform="translate(0.983)"><path d="M297.922,275.474H274.257V251.809h23.665Zm-23.035-.63h22.4v-22.4h-22.4Z" transform="translate(-274.257 -251.809)" fill="#12263f"/></g><g transform="translate(0 28.741)"><path d="M298.328,297.576c0,.091-5.738.164-12.815.164s-12.816-.073-12.816-.164,5.737-.164,12.816-.164S298.328,297.485,298.328,297.576Z" transform="translate(-272.697 -297.412)" fill="#263238"/></g><g transform="translate(1.196 33.992)"><path d="M296.821,305.906c0,.091-4.976.164-11.113.164s-11.114-.074-11.114-.164,4.975-.164,11.114-.164S296.821,305.816,296.821,305.906Z" transform="translate(-274.594 -305.742)" fill="#263238"/></g><g transform="translate(45.153 28.741)"><path d="M369.971,297.576c0,.091-5.738.164-12.815.164s-12.816-.073-12.816-.164,5.737-.164,12.816-.164S369.971,297.485,369.971,297.576Z" transform="translate(-344.34 -297.412)" fill="#263238"/></g><g transform="translate(46.349 33.992)"><path d="M368.464,305.906c0,.091-4.976.164-11.113.164s-11.114-.074-11.114-.164,4.975-.164,11.114-.164S368.464,305.816,368.464,305.906Z" transform="translate(-346.237 -305.742)" fill="#263238"/></g><g transform="translate(45.809 0.315)"><path d="M368.417,252.309c.064.064-5.041,5.273-11.4,11.633s-11.57,11.466-11.634,11.4,5.04-5.272,11.4-11.634S368.353,252.244,368.417,252.309Z" transform="translate(-345.381 -252.308)" fill="#12263f"/></g><g transform="translate(46.626 0.719)"><path d="M367.7,275.728c-.009.007-.082-.075-.212-.237l-.554-.717c-.473-.628-1.164-1.532-2.029-2.638-1.729-2.214-4.2-5.213-7.1-8.365s-5.7-5.847-7.772-7.748c-1.034-.951-1.878-1.712-2.467-2.234l-.67-.609c-.151-.142-.227-.221-.219-.23a1.2,1.2,0,0,1,.262.18l.71.563c.614.492,1.484,1.228,2.54,2.159A109.406,109.406,0,0,1,365.09,272c.843,1.128,1.508,2.053,1.949,2.7l.5.753A1.2,1.2,0,0,1,367.7,275.728Z" transform="translate(-346.676 -252.95)" fill="#12263f"/></g><g transform="translate(1.051 1.714)"><path d="M297.16,254.53c.062.066-4.99,4.937-11.284,10.878s-11.449,10.707-11.511,10.641,4.99-4.936,11.285-10.879S297.1,254.463,297.16,254.53Z" transform="translate(-274.364 -254.529)" fill="#12263f"/></g><g transform="translate(1.614 0.955)"><path d="M297.233,275.611c-.009.007-.085-.074-.221-.233l-.58-.707c-.5-.62-1.221-1.511-2.129-2.6-1.813-2.182-4.4-5.132-7.434-8.215s-5.955-5.707-8.111-7.55c-1.078-.923-1.958-1.661-2.571-2.165l-.7-.591c-.158-.138-.237-.214-.23-.224a1.19,1.19,0,0,1,.271.171l.737.543c.638.474,1.542,1.186,2.641,2.087a107.918,107.918,0,0,1,15.577,15.8c.887,1.112,1.586,2.026,2.05,2.67l.533.745A1.191,1.191,0,0,1,297.233,275.611Z" transform="translate(-275.257 -253.324)" fill="#12263f"/></g></g><g transform="translate(108.373 131.078)"><g transform="translate(42.337)"><path d="M500.7,274.914H477.04V251.249H500.7Zm-23.035-.63h22.4v-22.4h-22.4Z" transform="translate(-477.04 -251.249)" fill="#12263f"/></g><g transform="translate(0.983)"><path d="M435.09,274.914H411.425V251.249H435.09Zm-23.035-.63h22.4v-22.4h-22.4Z" transform="translate(-411.425 -251.249)" fill="#12263f"/></g><g transform="translate(0 28.742)"><path d="M435.5,297.017c0,.09-5.738.164-12.814.164s-12.816-.074-12.816-.164,5.737-.165,12.816-.165S435.5,296.926,435.5,297.017Z" transform="translate(-409.866 -296.852)" fill="#263238"/></g><g transform="translate(1.195 33.992)"><path d="M433.989,305.347c0,.091-4.977.165-11.113.165s-11.114-.074-11.114-.165,4.975-.164,11.114-.164S433.989,305.256,433.989,305.347Z" transform="translate(-411.762 -305.183)" fill="#263238"/></g><g transform="translate(41.995 28.742)"><path d="M502.128,297.017c0,.09-5.738.164-12.815.164s-12.816-.074-12.816-.164,5.737-.165,12.816-.165S502.128,296.926,502.128,297.017Z" transform="translate(-476.497 -296.852)" fill="#263238"/></g><g transform="translate(43.19 33.992)"><path d="M500.621,305.347c0,.091-4.976.165-11.113.165s-11.114-.074-11.114-.165,4.975-.164,11.114-.164S500.621,305.256,500.621,305.347Z" transform="translate(-478.394 -305.183)" fill="#263238"/></g><g transform="translate(42.651 0.315)"><path d="M500.574,251.749c.064.064-5.041,5.273-11.4,11.633s-11.57,11.466-11.634,11.4,5.039-5.272,11.4-11.634S500.51,251.685,500.574,251.749Z" transform="translate(-477.539 -251.748)" fill="#12263f"/></g><g transform="translate(43.467 0.72)"><path d="M499.858,275.169a1.159,1.159,0,0,1-.212-.237l-.554-.717c-.472-.628-1.164-1.532-2.029-2.638-1.729-2.215-4.195-5.214-7.1-8.365s-5.7-5.848-7.772-7.748c-1.034-.951-1.879-1.712-2.467-2.234l-.67-.609a1.184,1.184,0,0,1-.219-.23,1.172,1.172,0,0,1,.262.179l.71.563c.615.492,1.484,1.228,2.539,2.159a109.318,109.318,0,0,1,14.9,16.143c.843,1.127,1.508,2.053,1.949,2.7l.5.753A1.168,1.168,0,0,1,499.858,275.169Z" transform="translate(-478.833 -252.391)" fill="#12263f"/></g><g transform="translate(1.05 1.714)"><path d="M434.328,253.97c.062.066-4.991,4.937-11.285,10.879s-11.449,10.707-11.511,10.641,4.99-4.936,11.286-10.88S434.266,253.9,434.328,253.97Z" transform="translate(-411.532 -253.969)" fill="#12263f"/></g><g transform="translate(1.614 0.955)"><path d="M434.4,275.052a1.2,1.2,0,0,1-.22-.233l-.581-.707c-.5-.62-1.221-1.511-2.128-2.6-1.813-2.182-4.4-5.132-7.435-8.215s-5.955-5.707-8.111-7.55c-1.078-.923-1.958-1.661-2.571-2.165l-.7-.591c-.158-.138-.237-.215-.23-.224a1.2,1.2,0,0,1,.27.171l.737.543c.638.474,1.542,1.186,2.641,2.087a107.919,107.919,0,0,1,15.577,15.8c.886,1.112,1.585,2.025,2.05,2.67l.532.744A1.146,1.146,0,0,1,434.4,275.052Z" transform="translate(-412.426 -252.765)" fill="#12263f"/></g></g><g transform="translate(92.95 25.075)"><path d="M465.6,163.264H385.395V83.057H465.6Zm-79.578-.63h78.948V83.687H386.025Z" transform="translate(-385.395 -83.057)" fill="#12263f"/><g transform="translate(3.533 3.532)"><path d="M463.965,161.627H391V88.661h72.965ZM391.63,161h71.7V89.291h-71.7Z" transform="translate(-391 -88.661)" fill="#12263f"/></g><g transform="translate(4.665 26.317)"><path d="M393.3,174l-.5-.379,21.462-28.551,14.874,8.259,18.795-28.52.527.347-19.118,29.008-14.9-8.277Z" transform="translate(-392.797 -124.813)" fill="#12263f"/></g><g transform="translate(27.956 15.262)"><path d="M439.364,126.5a9.614,9.614,0,1,1,9.614-9.614A9.624,9.624,0,0,1,439.364,126.5Zm0-18.6a8.984,8.984,0,1,0,8.984,8.984A8.993,8.993,0,0,0,439.364,107.9Z" transform="translate(-429.751 -107.272)" fill="#12263f"/></g><g transform="translate(25.62 46.392)"><rect width="1.188" height="1.188" fill="#12263f"/></g><g transform="translate(40.433 54.588)"><rect width="1.188" height="1.188" fill="#12263f"/></g><g transform="translate(59.466 26.063)"><rect width="1.188" height="1.188" fill="#12263f"/></g><g transform="translate(36.975 33.581)"><rect width="1.188" height="1.188" fill="#12263f"/></g><g transform="translate(36.975 14.914)"><rect width="1.188" height="1.188" fill="#12263f"/></g><g transform="translate(46.308 24.282)"><rect width="1.188" height="1.188" transform="translate(0 1.188) rotate(-90)" fill="#12263f"/></g><g transform="translate(27.642 24.282)"><rect width="1.188" height="1.188" transform="translate(0 1.188) rotate(-90)" fill="#12263f"/></g><g transform="translate(4.323 74.724)"><rect width="1.188" height="1.188" fill="#12263f"/></g><g transform="translate(59.896 15.085)"><path d="M480.593,131.324c-.091,0-.164-5.447-.164-12.165s.073-12.167.164-12.167.165,5.446.165,12.167S480.684,131.324,480.593,131.324Z" transform="translate(-480.429 -106.992)" fill="#12263f"/></g><g transform="translate(59.621 14.646)"><path d="M480.871,106.735a.439.439,0,1,1-.439-.439A.439.439,0,0,1,480.871,106.735Z" transform="translate(-479.993 -106.296)" fill="#12263f"/></g><g transform="translate(59.621 39.239)"><circle cx="0.439" cy="0.439" r="0.439" fill="#12263f"/></g></g><g transform="translate(37.57 119.599)"><path d="M443.859,233.2c0,.091-32.761.164-73.164.164s-73.171-.074-73.171-.164,32.754-.164,73.171-.164S443.859,233.108,443.859,233.2Z" transform="translate(-297.525 -233.035)" fill="#e0e0e0"/></g></g><g transform="translate(283.485 247.048)"><g transform="translate(31.224 10.508)"><g transform="translate(0.138 0.006)"><path d="M535.022,383.278l1.042,47.714-51.853.729-1.042-47.714Z" transform="translate(-483.168 -383.278)" fill="#fafafa"/></g><path d="M534.941,383.275s-.087.007-.251.012l-.727.02-2.817.058-10.615.19-37.44.6.131-.157c.315,14.2.676,30.482,1.058,47.709v.005l-.154-.171,51.854-.7-.122.146c-.287-14.368-.525-26.277-.691-34.607-.078-4.166-.138-7.434-.18-9.673-.018-1.111-.031-1.965-.041-2.552s-.006-.885-.006-.885.015.285.032.854.039,1.425.069,2.524c.056,2.23.139,5.487.243,9.639.2,8.35.482,20.29.823,34.695l0,.144-.125,0-51.852.759-.15,0,0-.173v-.005c-.371-17.227-.72-33.507-1.026-47.709l0-.155.135,0,37.53-.45,10.586-.108,2.791-.021h.713C534.863,383.27,534.941,383.275,534.941,383.275Z" transform="translate(-482.949 -383.269)" fill="#263238"/><g transform="translate(1.992 3.688)"><path d="M487.02,431.5l48.21-.678-.911-41.707-48.21.678Z" transform="translate(-486.109 -389.12)" fill="#167377"/></g><g transform="translate(2.903 19.911)" opacity="0.3"><path d="M487.555,441.023l16.272-26.161,10.785,16.073,6.885-8.77,14.268,18.181Z" transform="translate(-487.555 -414.861)"/></g><g transform="translate(26.371 12.501)" opacity="0.3"><path d="M532.383,407.419a4.075,4.075,0,0,1-3.7,4.422,4.152,4.152,0,0,1-3.892-4.315,4.075,4.075,0,0,1,3.7-4.423A4.152,4.152,0,0,1,532.383,407.419Z" transform="translate(-524.79 -403.103)"/></g></g><g transform="translate(18.255 6.064)"><g transform="translate(0.138 0.005)"><path d="M514.444,376.226l1.042,47.714-51.853.729-1.042-47.714Z" transform="translate(-462.59 -376.226)" fill="#fafafa"/></g><path d="M514.363,376.223s-.087.008-.252.013l-.727.019-2.817.059-10.615.19-37.44.6.131-.156c.314,14.2.676,30.482,1.058,47.708v.005l-.154-.171,51.854-.7-.122.146c-.287-14.367-.525-26.277-.691-34.606-.078-4.166-.138-7.434-.18-9.673-.018-1.112-.031-1.965-.041-2.552s-.006-.886-.006-.886.015.285.032.854.039,1.425.069,2.525c.056,2.23.139,5.487.243,9.638.2,8.351.482,20.291.823,34.7l0,.144-.125,0-51.852.758-.15,0,0-.173v-.005c-.371-17.227-.72-33.507-1.026-47.709l0-.156h.135l37.53-.451,10.586-.108,2.791-.021h.713C514.285,376.219,514.363,376.223,514.363,376.223Z" transform="translate(-462.371 -376.218)" fill="#263238"/><g transform="translate(1.991 3.035)"><path d="M466.442,423.419l48.21-.678-.911-41.707-48.21.678Z" transform="translate(-465.531 -381.034)" fill="#455a64"/></g><g transform="translate(2.903 19.259)"><path d="M466.976,432.936l16.272-26.161,10.785,16.073,6.885-8.77,14.268,18.181Z" transform="translate(-466.976 -406.775)" fill="#455a64"/></g><g transform="translate(26.371 11.558)"><path d="M511.805,398.872a4.076,4.076,0,0,1-3.7,4.423,4.153,4.153,0,0,1-3.892-4.316,4.076,4.076,0,0,1,3.7-4.423A4.152,4.152,0,0,1,511.805,398.872Z" transform="translate(-504.212 -394.556)" fill="#455a64"/></g><g transform="translate(2.903 19.259)" opacity="0.3"><path d="M466.976,432.936l16.272-26.161,10.785,16.073,6.885-8.77,14.268,18.181Z" transform="translate(-466.976 -406.775)"/></g><g transform="translate(26.371 11.558)" opacity="0.3"><path d="M511.805,398.872a4.076,4.076,0,0,1-3.7,4.423,4.153,4.153,0,0,1-3.892-4.316,4.076,4.076,0,0,1,3.7-4.423A4.152,4.152,0,0,1,511.805,398.872Z" transform="translate(-504.212 -394.556)"/></g></g><g transform="translate(12.63)"><g transform="translate(0.138 0.006)"><path d="M505.52,366.605l1.042,47.714-51.853.729-1.042-47.714Z" transform="translate(-453.666 -366.605)" fill="#fafafa"/></g><path d="M505.439,366.6s-.087.008-.251.013l-.727.019-2.817.059-10.615.19-37.44.6.131-.156c.315,14.2.676,30.481,1.058,47.709v0l-.154-.171,51.854-.7-.122.145c-.287-14.367-.525-26.277-.691-34.606-.078-4.166-.138-7.435-.18-9.673-.018-1.111-.032-1.965-.041-2.552s-.006-.885-.006-.885.015.285.032.854.039,1.425.069,2.525c.056,2.23.139,5.487.243,9.638.2,8.351.482,20.291.823,34.7l0,.144-.125,0-51.852.758-.15,0,0-.173v-.005c-.371-17.227-.72-33.508-1.026-47.709l0-.155.135,0,37.53-.451,10.586-.108,2.791-.021h.713C505.361,366.6,505.439,366.6,505.439,366.6Z" transform="translate(-453.447 -366.596)" fill="#263238"/><g transform="translate(1.991 3.688)"><path d="M457.518,414.833l48.21-.678-.911-41.707-48.21.678Z" transform="translate(-456.607 -372.448)" fill="#7d6eb2"/></g><g transform="translate(2.903 19.912)" opacity="0.3"><path d="M458.052,424.35l16.272-26.161,10.785,16.073,6.885-8.77,14.268,18.181Z" transform="translate(-458.052 -398.189)"/></g><g transform="translate(26.371 12.501)" opacity="0.3"><path d="M502.881,390.747a4.075,4.075,0,0,1-3.7,4.423,4.153,4.153,0,0,1-3.892-4.316,4.076,4.076,0,0,1,3.7-4.422A4.152,4.152,0,0,1,502.881,390.747Z" transform="translate(-495.288 -386.43)"/></g></g><g transform="translate(2.394 6.149)"><g transform="translate(0.149 0.006)"><path d="M493.488,376.361l1.127,47.714-56.046.729-1.126-47.714Z" transform="translate(-437.442 -376.361)" fill="#fafafa"/></g><path d="M493.4,376.358s-.094.007-.272.013l-.786.019-3.044.058-11.474.19-40.467.6.141-.157c.341,14.2.731,30.482,1.144,47.709v.005l-.166-.171,56.047-.7-.132.146c-.309-14.368-.567-26.277-.747-34.607-.083-4.166-.149-7.434-.194-9.672-.019-1.112-.035-1.965-.045-2.552s-.006-.885-.006-.885.017.285.035.854.042,1.425.075,2.524c.06,2.23.149,5.488.262,9.639.214,8.351.52,20.29.889,34.7l0,.144-.135,0-56.045.758-.163,0,0-.173V424.8c-.4-17.227-.779-33.508-1.109-47.71l0-.155h.146l40.565-.451,11.442-.108,3.017-.021h.77C493.317,376.353,493.4,376.358,493.4,376.358Z" transform="translate(-437.205 -376.352)" fill="#263238"/><g transform="translate(2.152 3.035)"><path d="M441.6,423.553l52.109-.678-.985-41.707-52.109.678Z" transform="translate(-440.62 -381.168)" fill="#ffd947"/></g><g transform="translate(3.137 19.259)" opacity="0.3"><path d="M442.183,433.071l17.588-26.161,11.657,16.073,7.442-8.77,15.422,18.181Z" transform="translate(-442.183 -406.91)"/></g><g transform="translate(28.503 11.559)" opacity="0.3"><path d="M490.637,399.007a4.189,4.189,0,0,1-4,4.423,4.3,4.3,0,0,1-4.206-4.315,4.189,4.189,0,0,1,4-4.423A4.3,4.3,0,0,1,490.637,399.007Z" transform="translate(-482.43 -394.691)"/></g></g><g transform="translate(32.255 34.736)"><rect width="52.797" height="32.361" fill="#263238"/></g><g transform="translate(0 34.736)"><rect width="57.874" height="32.361" fill="#455a64"/></g></g><g transform="translate(57.092 64.687)"><g transform="translate(0 0)"><g transform="translate(45.575 47.686)"><path d="M146.511,152.912h26.346l-.452,16.714-21.17,4.823Z" transform="translate(-146.511 -152.912)" fill="#12263f"/></g><g transform="translate(0.107 101.707)"><g transform="translate(22.008 120.923)"><path d="M127.894,434.868l-4.918,11.924s10.468,9,9.774,11.295l-23.462-8.705,6.9-18.892Z" transform="translate(-109.288 -430.489)" fill="#12263f"/><g transform="translate(5.735 12.586)"><path d="M119.463,450.467a1.021,1.021,0,0,0-1.068.848.982.982,0,0,0,.831,1.066,1.078,1.078,0,0,0,1.127-.9c.009-.5-.49-1.081-.988-1.013" transform="translate(-118.388 -450.458)" fill="#e0e0e0"/></g><g transform="translate(0 17.016)"><path d="M109.288,459.364l.77-1.877,22.207,9.049s.875.842.485,1.533Z" transform="translate(-109.288 -457.487)" fill="#263238"/></g><g transform="translate(11.492 15.971)"><path d="M130.143,456.183c-.047.113-.638-.047-1.339.112-.7.141-1.18.529-1.268.444-.1-.061.328-.683,1.179-.86S130.206,456.087,130.143,456.183Z" transform="translate(-127.522 -455.83)" fill="#263238"/></g><g transform="translate(14.027 18.108)"><path d="M133.713,459.368c-.015.12-.584.131-1.152.471-.579.323-.872.811-.984.764-.114-.022.055-.722.771-1.132S133.751,459.257,133.713,459.368Z" transform="translate(-131.544 -459.22)" fill="#263238"/></g><g transform="translate(16.451 20.048)"><path d="M135.44,463.97c-.113-.015-.06-.646.466-1.164s1.156-.57,1.169-.456c.03.118-.443.326-.869.758S135.558,464,135.44,463.97Z" transform="translate(-135.391 -462.299)" fill="#263238"/></g><g transform="translate(12.445 12.509)"><path d="M131.521,451.31c-.087.087-.554-.267-1.218-.463s-1.245-.18-1.268-.3.614-.349,1.393-.107S131.61,451.241,131.521,451.31Z" transform="translate(-129.034 -450.337)" fill="#263238"/></g></g><g transform="translate(15.547 127.333)"><path d="M112.21,440.659l-.388,13.591s13.683,4.959,13.857,7.477l-26.379.194-.264-21.2Z" transform="translate(-99.036 -440.659)" fill="#12263f"/><g transform="translate(3.861 12.461)"><path d="M105.922,460.478a1.078,1.078,0,0,0-.736,1.235,1.035,1.035,0,0,0,1.218.74,1.137,1.137,0,0,0,.773-1.312,1.075,1.075,0,0,0-1.352-.63" transform="translate(-105.161 -460.431)" fill="#e0e0e0"/></g><g transform="translate(0.222 19.738)"><path d="M99.416,474.056,99.388,472l25.369-.026s1.179.5,1.052,1.33Z" transform="translate(-99.388 -471.976)" fill="#263238"/></g><g transform="translate(10.819 13.337)"><path d="M118.6,461.937c0,.129-.647.192-1.278.611-.642.4-.964.963-1.083.913-.119-.024.067-.8.84-1.289S118.623,461.818,118.6,461.937Z" transform="translate(-116.202 -461.821)" fill="#263238"/></g><g transform="translate(14.252 14.526)"><path d="M123.385,463.758c.03.125-.526.348-.959.9-.449.535-.556,1.125-.684,1.121-.121.021-.216-.733.337-1.4S123.381,463.636,123.385,463.758Z" transform="translate(-121.649 -463.707)" fill="#263238"/></g><g transform="translate(17.425 15.647)"><path d="M126.842,467.716c-.117.028-.3-.614.025-1.322s.926-.993.981-.886c.074.105-.314.487-.574,1.072S126.97,467.7,126.842,467.716Z" transform="translate(-126.683 -465.486)" fill="#263238"/></g><g transform="translate(10.216 9.892)"><path d="M117.987,456.809c-.053.118-.645-.055-1.373,0s-1.293.289-1.361.178c-.075-.092.475-.574,1.332-.626S118.049,456.707,117.987,456.809Z" transform="translate(-115.245 -456.355)" fill="#263238"/></g></g><g transform="translate(18.281 6.892)"><path d="M138.077,249.56S148.841,293,150.611,306.946c1.233,9.707-1.2,16.094-1.49,18.037a5.4,5.4,0,0,1-.638,1.859l-23.244,45.09-16.063-5.573s12.04-36.358,14.672-42.208l2.961-5.265-23.435-59.352Z" transform="translate(-103.374 -249.56)" fill="#167377"/></g><path d="M115.941,254.889c.3,1.192-13.821,71.047-13.821,71.047l1.815,50.045-14.849.4s-7.6-27.267-7.9-43.353,1.518-18.833.2-28.88c-1.385-10.589-9.882-32.4-6.031-47.2a34.284,34.284,0,0,1,11.522-18.326Z" transform="translate(-74.368 -238.625)" fill="#167377"/><g transform="translate(27.599 26.592)"><path d="M120.137,392a1.24,1.24,0,0,0,.01-.257c0-.189,0-.438-.008-.754-.016-.686-.038-1.66-.067-2.906-.075-2.55-.183-6.211-.316-10.751l-1.2-36.034,0,.045c.341-1.709.7-3.524,1.07-5.36,2.991-15.221,5.7-29,7.661-38.994.959-4.977,1.735-9.011,2.277-11.825l.6-3.219c.062-.353.11-.631.146-.84a1.612,1.612,0,0,0,.037-.288,1.5,1.5,0,0,0-.076.28l-.185.831c-.159.755-.384,1.83-.673,3.2-.572,2.808-1.39,6.834-2.4,11.8-1.993,9.991-4.74,23.759-7.775,38.971-.366,1.836-.727,3.651-1.068,5.36l0,.023v.023c.525,14.234.992,26.9,1.329,36.03.185,4.538.334,8.2.438,10.746.059,1.245.1,2.218.137,2.9.019.315.034.564.045.752A1.328,1.328,0,0,0,120.137,392Z" transform="translate(-118.159 -280.818)" fill="#455a64"/></g><g transform="translate(41.577 75.249)"><path d="M140.345,358.022a7.315,7.315,0,0,0,5.088,3.866c.04-.114-1.346-.586-2.749-1.664C141.27,359.162,140.444,357.954,140.345,358.022Z" transform="translate(-140.337 -358.02)" fill="#455a64"/></g></g><g transform="translate(1.601 5.711)"><path d="M87.506,87.536a5.9,5.9,0,0,0-6.441-.5,8.519,8.519,0,0,0-4.009,5.333,7.084,7.084,0,0,0-.164,3.507,4.172,4.172,0,0,0,2.045,2.765,3,3,0,0,1,1.3.835c.543.846-.321,1.98-.049,2.948a1.745,1.745,0,0,0,2.021,1.044,4.2,4.2,0,0,0,2.08-1.315,16.028,16.028,0,0,0,4.5-9.474A4.7,4.7,0,0,0,87.506,87.536Z" transform="translate(-76.74 -86.313)" fill="#263238"/></g><g transform="translate(55.979 36.152)"><g transform="translate(0.913 3.319)"><g transform="translate(0.167 0.258)"><path d="M217.757,327.737l-44.3-1.613a8.946,8.946,0,0,1-8.718-9.241l7.134-168.011a9.078,9.078,0,0,1,9.475-8.578l44.3,1.613a8.946,8.946,0,0,1,8.718,9.241l-7.134,168.011A9.078,9.078,0,0,1,217.757,327.737Z" transform="translate(-164.732 -140.287)" fill="#fafafa"/></g><path d="M217.658,327.585s.107-.011.318-.018a7.73,7.73,0,0,0,.94-.058,9.143,9.143,0,0,0,7.411-5.4,9.473,9.473,0,0,0,.737-3.643q.079-2.015.17-4.287c.5-12.124,1.21-29.651,2.094-51.306.9-21.663,1.98-47.454,3.174-76.09q.451-10.74.925-21.992.237-5.621.479-11.358c.055-1.917.326-3.843-.375-5.617a8.786,8.786,0,0,0-6.1-5.534,13.353,13.353,0,0,0-2.922-.313l-6.043-.219-12.229-.444-24.985-.908a9.148,9.148,0,0,0-5.734,1.787,8.793,8.793,0,0,0-3.246,4.923,14.988,14.988,0,0,0-.289,2.991q-.065,1.526-.129,3.045-.13,3.039-.258,6.058-.515,12.073-1.013,23.772c-.667,15.586-1.311,30.618-1.924,44.939-1.238,28.639-2.352,54.43-3.288,76.092q-.177,4.06-.345,7.925-.085,1.932-.167,3.813a10.312,10.312,0,0,0,.254,3.635,8.789,8.789,0,0,0,4.271,5.343,9.064,9.064,0,0,0,3.212,1.03c1.1.118,2.244.107,3.335.165l22.53.864,14.237.567,3.7.161c.834.039,1.261.072,1.261.072s-.428,0-1.263-.02l-3.7-.109-14.241-.47-22.534-.776c-1.1-.056-2.2-.037-3.361-.157A9.365,9.365,0,0,1,169.227,325a9.108,9.108,0,0,1-4.441-5.527,10.659,10.659,0,0,1-.275-3.735q.078-1.881.157-3.813.16-3.864.328-7.927c.9-21.663,1.98-47.455,3.174-76.1.6-14.321,1.237-29.355,1.893-44.94q.494-11.689,1.005-23.772.129-3.019.257-6.059.065-1.519.129-3.045a15.406,15.406,0,0,1,.3-3.088,9.314,9.314,0,0,1,3.441-5.219,9.687,9.687,0,0,1,6.078-1.895l24.985.911,12.229.447,6.042.221a13.833,13.833,0,0,1,3.033.33,9.3,9.3,0,0,1,6.456,5.861,8.506,8.506,0,0,1,.5,2.915c0,.984-.07,1.925-.1,2.887q-.246,5.737-.486,11.358-.482,11.242-.943,21.991L229.7,262.89c-.955,21.652-1.728,39.177-2.263,51.3q-.1,2.271-.193,4.286a9.607,9.607,0,0,1-.774,3.7,9.049,9.049,0,0,1-4.015,4.328,8.826,8.826,0,0,1-3.536,1.063,6.666,6.666,0,0,1-.945.031C217.765,327.593,217.658,327.585,217.658,327.585Z" transform="translate(-164.467 -139.878)" fill="#263238"/><g transform="translate(8.463 12.01)"><path d="M235.368,189.868l-57.474-2.093,1.225-28.842,57.474,2.093Z" transform="translate(-177.894 -158.934)" fill="#167377"/></g><g transform="translate(6.728 52.864)"><path d="M232.616,254.688,175.142,252.6l1.225-28.842,57.474,2.092Z" transform="translate(-175.142 -223.754)" fill="#b54273"/></g><g transform="translate(4.993 93.717)"><path d="M229.863,319.509l-57.474-2.092,1.225-28.842,57.474,2.092Z" transform="translate(-172.389 -288.574)" fill="#7d6eb2"/></g><g transform="translate(3.259 134.57)"><g transform="translate(0 0)"><path d="M227.111,384.329l-57.474-2.093,1.225-28.842,57.474,2.092Z" transform="translate(-169.637 -353.395)" fill="#ff725e"/></g></g><g transform="translate(3.259 134.57)" opacity="0.4"><g transform="translate(0 0)"><path d="M227.111,384.329l-57.474-2.093,1.225-28.842,57.474,2.092Z" transform="translate(-169.637 -353.395)"/></g></g></g><g transform="translate(0.249 0.26)"><path d="M216.424,326.283l-42.972.447a8.569,8.569,0,0,1-8.417-8.718l-1.621-173.65a8.591,8.591,0,0,1,8.253-8.891l42.972-.447a8.569,8.569,0,0,1,8.418,8.718l1.62,173.65A8.591,8.591,0,0,1,216.424,326.283Z" transform="translate(-163.413 -135.024)" fill="#fafafa"/></g><path d="M216.278,326.131c0-.026.412-.008,1.2-.141a7.98,7.98,0,0,0,3.254-1.346,8.7,8.7,0,0,0,3.356-4.733,11.449,11.449,0,0,0,.349-3.815q-.025-2.076-.052-4.417c-.136-12.493-.332-30.553-.574-52.867-.224-22.324-.49-48.9-.786-78.41q-.108-11.067-.22-22.663-.056-5.792-.113-11.705c-.02-.978.006-1.989-.052-2.946a9.059,9.059,0,0,0-.632-2.8,8.567,8.567,0,0,0-3.677-4.183,7.73,7.73,0,0,0-2.627-.882,19.073,19.073,0,0,0-2.828-.075l-5.774.061-11.687.124-23.877.25a7.9,7.9,0,0,0-5.328,2.193,8.6,8.6,0,0,0-2.621,5.324c-.1,1-.045,2.066-.047,3.112l.029,3.138q.029,3.133.058,6.243.114,12.442.225,24.5c.144,16.061.284,31.552.417,46.311.255,29.514.485,56.093.678,78.416q.035,4.185.067,8.168.016,1.991.032,3.93a10.592,10.592,0,0,0,.471,3.712,8.531,8.531,0,0,0,4.514,5.1c2.038.993,4.276.616,6.362.666l21.533-.179,13.608-.091,3.54-.011c.8,0,1.206.015,1.206.015s-.408.023-1.206.04l-3.538.063-13.607.192-21.532.269-3.2.033a8,8,0,0,1-3.279-.7,8.847,8.847,0,0,1-4.7-5.28,10.942,10.942,0,0,1-.5-3.821q-.02-1.939-.041-3.93-.042-3.982-.085-8.168c-.224-22.324-.49-48.9-.786-78.416-.142-14.758-.292-30.25-.447-46.31q-.114-12.046-.233-24.5-.029-3.111-.059-6.243l-.029-3.138a31.508,31.508,0,0,1,.049-3.18,9.151,9.151,0,0,1,2.784-5.658,8.4,8.4,0,0,1,5.662-2.331l23.877-.247,11.687-.12,5.774-.059a19.27,19.27,0,0,1,2.9.081,8.209,8.209,0,0,1,2.79.938,9.076,9.076,0,0,1,3.9,4.44,9.59,9.59,0,0,1,.669,2.967c.06,1.018.032,1.985.052,2.977q.054,5.911.106,11.705.1,11.586.2,22.663c.255,29.51.485,56.086.678,78.411.175,22.315.316,40.375.413,52.869q.015,2.341.03,4.417c.01.691.011,1.361-.028,2.016q-.067.484-.131.951c-.075.3-.136.608-.22.9a8.777,8.777,0,0,1-3.444,4.776,7.855,7.855,0,0,1-3.3,1.309,5.69,5.69,0,0,1-.9.082C216.38,326.133,216.278,326.131,216.278,326.131Z" transform="translate(-163.019 -134.612)" fill="#263238"/><g transform="translate(2.676 12.535)"><path d="M222.4,184.185l-54.854.571-.277-29.684,54.854-.571Z" transform="translate(-167.265 -154.501)" fill="#7d6eb2"/></g><g transform="translate(3.069 54.581)"><path d="M223.019,250.9l-54.854.571-.277-29.684,54.854-.571Z" transform="translate(-167.888 -221.214)" fill="#ffd947"/></g><g transform="translate(3.461 96.628)"><path d="M223.642,317.611l-54.854.571L168.51,288.5l54.854-.571Z" transform="translate(-168.51 -287.927)" fill="#c1507f"/></g><g transform="translate(3.854 138.674)"><g transform="translate(0 0)"><path d="M224.264,384.324l-54.854.571-.277-29.684,54.854-.571Z" transform="translate(-169.133 -354.64)" fill="#167377"/></g></g><g transform="translate(40.57 174.315)"><g transform="translate(0.258 0.239)"><path d="M241.58,420.052a6.972,6.972,0,1,1-5.3-8.316A6.972,6.972,0,0,1,241.58,420.052Z" transform="translate(-227.8 -411.57)" fill="#455a64"/></g><path d="M241.428,419.912c-.058-.009.1-.614.052-1.706a6.96,6.96,0,0,0-1.685-4.179,6.8,6.8,0,0,0-6.043-2.287,6.657,6.657,0,0,0-3.548,1.621,6.694,6.694,0,0,0-1.717,7.743,6.66,6.66,0,0,0,2.53,2.97,6.8,6.8,0,0,0,6.444.481,6.957,6.957,0,0,0,3.292-3.075c.507-.969.618-1.584.674-1.568a1.419,1.419,0,0,1-.067.444,5.457,5.457,0,0,1-.422,1.218,6.938,6.938,0,0,1-3.32,3.324,7.059,7.059,0,0,1-3.231.691,7.186,7.186,0,0,1-3.635-1.1,7.113,7.113,0,0,1-2.745-3.174,7.174,7.174,0,0,1,1.852-8.348,7.143,7.143,0,0,1,10.223.817,6.936,6.936,0,0,1,1.6,4.416,5.428,5.428,0,0,1-.132,1.281A1.419,1.419,0,0,1,241.428,419.912Z" transform="translate(-227.39 -411.191)" fill="#263238"/></g></g><g transform="translate(56.355 70.85)"><g transform="translate(13.627 9.109)"><path d="M186.49,206.031l-.628.531a.375.375,0,0,1-.237.117c-.114,0-.2-.108-.25-.21a1.47,1.47,0,0,1-.036-1.163,2.439,2.439,0,0,1,.7-.96.715.715,0,0,1,.487-.228.748.748,0,0,1,.458.277,7.231,7.231,0,0,1,.489.56.411.411,0,0,1,.124.325.421.421,0,0,1-.168.213c-.272.221-.663.316-.935.538" transform="translate(-185.237 -204.118)" fill="#8e4842"/></g><path d="M173.888,190.114c.892-.034,4.913-.449,4.913-.449l6.73,1.619a2.343,2.343,0,0,1-1.929,1.2c-1.792-.038-4.3-.229-4.3-.229l-.8.473s3.052,2.056,3.083,2.463a1.778,1.778,0,0,1-.214.848,3.173,3.173,0,0,1,.085,2.23l-.1,2.869-2.9,1.993a2.3,2.3,0,0,1-.233-1.55c.2-.809,1.31-1.276,1.31-1.276l-.669-1.2-1.015-.362s-6.646,1.856-8.191,1.746l-5.309,2.64-.738-7.772S173,190.148,173.888,190.114Z" transform="translate(-163.615 -189.665)" fill="#b2655f"/><g transform="translate(14.283 6.472)"><path d="M186.278,199.946c-.028.078.817.427,1.767,1.013s1.647,1.176,1.7,1.116a6.2,6.2,0,0,0-3.47-2.129Z" transform="translate(-186.277 -199.934)" fill="#8e4842"/></g><g transform="translate(13.762 4.226)"><path d="M185.451,196.38a18.571,18.571,0,0,0,1.924,1.1,18.427,18.427,0,0,0,1.915,1.114,8.5,8.5,0,0,0-3.839-2.21Z" transform="translate(-185.45 -196.37)" fill="#8e4842"/></g><g transform="translate(11.696 0.972)"><path d="M182.173,191.217a12.485,12.485,0,0,0,1.579,1.192,5.377,5.377,0,0,0,1.728.985,10.268,10.268,0,0,0-1.564-1.217A4.924,4.924,0,0,0,182.173,191.217Z" transform="translate(-182.173 -191.208)" fill="#8e4842"/></g></g><g transform="translate(78.254 32.711)"><path d="M209.661,133.082a8.94,8.94,0,0,0-1.3-2.062,1.723,1.723,0,0,0-1.714-.32l-.409.242s-1.647-1.172-2.641-.72c0,0-1.558-1.155-2.566-.388,0,0-1.154-1.126-1.865-.485a3.143,3.143,0,0,0-.764,2.632c.141.708.205,3.04.593,3.158,0,0,1.034.323,1.29-.221s.369-.807.369-.807,0,2.1.468,2.3,1.405.328,1.614-.553c0,0,.318.76.8.652s1.089-.322,1.15-.88.163-1.108.163-1.108.083.848.516.753.828.023,1.187-.61,1.2-1.856,1.2-1.856Z" transform="translate(-198.361 -129.152)" fill="#b2655f"/><g transform="translate(6.315 1.738)"><path d="M208.595,135.5c.027-.008-.037-.235-.059-.606a3.206,3.206,0,0,1,1.033-2.588c.272-.253.474-.374.459-.4a1.291,1.291,0,0,0-.542.3,2.925,2.925,0,0,0-1.076,2.7A1.274,1.274,0,0,0,208.595,135.5Z" transform="translate(-208.381 -131.909)" fill="#8e4842"/></g><g transform="translate(4.148 1.059)"><path d="M205.919,130.832a2.826,2.826,0,0,0-.39.75,8.037,8.037,0,0,0-.522,4.017,2.855,2.855,0,0,0,.185.825,10.9,10.9,0,0,1,.727-5.592Z" transform="translate(-204.943 -130.832)" fill="#8e4842"/></g><g transform="translate(2.14 0.699)"><path d="M202.241,130.262a8.669,8.669,0,0,0-.355,4.311c.054,0-.019-.974.082-2.164S202.294,130.275,202.241,130.262Z" transform="translate(-201.756 -130.262)" fill="#8e4842"/></g></g><g transform="translate(14.674 11.502)"><path d="M97.482,95.5" transform="translate(-97.482 -95.5)" fill="none" stroke="#4e585d" stroke-miterlimit="10" stroke-width="1"/></g><g transform="translate(0 45.736)"><g transform="translate(51.016 17.848)"><path d="M155.2,178.562l-.057-.425C155.157,178.232,155.184,178.438,155.2,178.562Z" transform="translate(-155.144 -178.137)" fill="#455a64"/></g><g transform="translate(51.012 17.817)"><path d="M155.142,178.119l0-.031Z" transform="translate(-155.138 -178.088)" fill="#455a64"/></g><g transform="translate(51.073 18.274)"><path d="M155.247,178.913l-.013-.1Z" transform="translate(-155.234 -178.812)" fill="#455a64"/></g><path d="M125.355,194.478a84.827,84.827,0,0,0,9.068-5.313l-2.9-9.68-4.092.654c-.367-4.211-1.664-8.287-2.148-11.946l-4.965-16.425-10.821-.987-13.152-.963-8.373,1.21c-4.6.666-9.959,3.191-12.173,7.282-.79,1.459-1.31,4.724-1.495,6.6-.689,7,1.913,28.353,9.213,35.957l-3.7,11.019c-5.287,16.483,49.082,9.55,48.607,3.169-.64-3.028-3.572-15.951-3.572-15.951Z" transform="translate(-74.199 -149.818)" fill="#12263f"/><g transform="translate(51.01 17.801)"><path d="M155.137,178.078c0-.023,0-.021,0,0Z" transform="translate(-155.134 -178.061)" fill="#455a64"/></g><g transform="translate(18.836 35.101)"><path d="M108.521,205.517a11.959,11.959,0,0,0-4.416,6.277,7.852,7.852,0,0,1,4.416-6.277Z" transform="translate(-104.085 -205.511)" fill="#263238"/></g><g transform="translate(9.55 44.778)" opacity="0.3"><path d="M89.351,227.172a8.775,8.775,0,0,0,5.846,4.445,20.525,20.525,0,0,0,7.539.2c10.054-1.178,27.032-11.14,26.749-10.948C116.764,228.04,94.352,230.818,89.351,227.172Z" transform="translate(-89.351 -220.866)"/></g><g transform="translate(7.815 39.347)"><path d="M139.008,212.249a.517.517,0,0,1-.116.087l-.357.228c-.317.2-.782.488-1.392.845-1.216.722-2.994,1.736-5.236,2.909a99.485,99.485,0,0,1-18.3,7.4,43.436,43.436,0,0,1-5.545,1.073c-1.805.249-3.554.419-5.221.557s-3.251.242-4.741.306a32.118,32.118,0,0,1-4.146-.094,12.988,12.988,0,0,1-5.727-1.694,6.672,6.672,0,0,1-1.261-1.04l-.277-.323c-.061-.074-.09-.113-.086-.117a9.519,9.519,0,0,0,1.69,1.37,13.226,13.226,0,0,0,5.681,1.572,32.82,32.82,0,0,0,4.114.053c1.479-.074,3.065-.194,4.727-.335s3.406-.322,5.2-.574a43.939,43.939,0,0,0,5.5-1.071,105.06,105.06,0,0,0,18.286-7.3c2.251-1.143,4.044-2.125,5.278-2.812l1.422-.791.374-.2A.459.459,0,0,1,139.008,212.249Z" transform="translate(-86.598 -212.248)" fill="#263238"/></g><g transform="translate(14.267 13.669)"><path d="M139.895,187.5a.525.525,0,0,1-.145.04l-.429.085-1.656.3-6.1,1.027-20.149,3.267-5.548.883-.125.02-.049-.117-6.376-15.325-1.847-4.523q-.3-.768-.483-1.221a2.7,2.7,0,0,1-.149-.431,2.664,2.664,0,0,1,.2.408l.534,1.2L99.51,177.6l6.479,15.282-.173-.1,5.547-.889,20.164-3.172,6.118-.925,1.666-.235.434-.053A.511.511,0,0,1,139.895,187.5Z" transform="translate(-96.835 -171.506)" fill="#263238"/></g></g><g transform="translate(47.907 55.284)"><path d="M150.217,164.968a14.6,14.6,0,0,0,.739,2.012c.478,1.23,1.107,2.94,1.694,4.863s1.019,3.695,1.308,4.982a14.621,14.621,0,0,0,.51,2.081,9.77,9.77,0,0,0-.24-2.135,42.253,42.253,0,0,0-3.018-9.9A9.789,9.789,0,0,0,150.217,164.968Z" transform="translate(-150.211 -164.967)" fill="#263238"/></g><g transform="translate(9.155)"><g transform="translate(32.942 16.611)"><path d="M145.42,130.395a2.124,2.124,0,0,1-.809,1.149,1.851,1.851,0,0,1-1.561.3,1.94,1.94,0,0,1-1.322-1.559,1.78,1.78,0,0,1,.255-1.189,3.706,3.706,0,0,1,.938-1.006,7.9,7.9,0,0,0,2.386-2.106,4.334,4.334,0,0,0,.407-3.485,5.082,5.082,0,0,0-.883-1.674,7.478,7.478,0,0,0-1.423-1.309,9.983,9.983,0,0,1-1.423-1.21,2.468,2.468,0,0,1-.684-1.559,3.034,3.034,0,0,1,.467-1.607,6.057,6.057,0,0,1,1.051-1.288,12.553,12.553,0,0,0,2.174-2.321,4.765,4.765,0,0,0,.684-2.7,6.152,6.152,0,0,0-.608-2.21,11.626,11.626,0,0,1-.609-1.59,3.6,3.6,0,0,1-.087-1.431q-.008,0-.034.091a1.528,1.528,0,0,0-.061.278,2.875,2.875,0,0,0,.064,1.091,10.653,10.653,0,0,0,.565,1.627,6.086,6.086,0,0,1,.549,2.152,4.563,4.563,0,0,1-.683,2.551,12.619,12.619,0,0,1-2.154,2.251,6.341,6.341,0,0,0-1.109,1.344,3.329,3.329,0,0,0-.516,1.769,2.773,2.773,0,0,0,.759,1.755,10.177,10.177,0,0,0,1.466,1.253,7.193,7.193,0,0,1,1.369,1.253,4.8,4.8,0,0,1,.833,1.569,4.055,4.055,0,0,1-.361,3.249,7.806,7.806,0,0,1-2.3,2.049,3.935,3.935,0,0,0-.987,1.089,2.008,2.008,0,0,0-.264,1.344A2.124,2.124,0,0,0,143,132.015a2.047,2.047,0,0,0,2.341-1.247A1.107,1.107,0,0,0,145.42,130.395Z" transform="translate(-140.993 -103.607)" fill="#263238"/></g><g transform="translate(2.37 11.224)"><path d="M95.7,95.309a1.972,1.972,0,0,1,.41,1.411,10.4,10.4,0,0,1-.688,3.457,1.973,1.973,0,0,1-.919,1.146c-.426.178-1-.023-1.448-.669a3.252,3.252,0,0,1-.5-1.233,4.267,4.267,0,0,1,.618-3.1,3.255,3.255,0,0,1,.935-.947C94.773,94.949,95.376,94.981,95.7,95.309Z" transform="translate(-92.486 -95.059)" fill="#167377"/></g><g transform="translate(0.198)"><path d="M89.294,105.965a6.874,6.874,0,0,1,.766-5.246,36,36,0,0,0,2.465-4.852c.608-1.87.571-3.919,1.317-5.738a7.2,7.2,0,0,1,4.329-4.041,12.9,12.9,0,0,0,3.48-1.191c1.044-.728,1.583-1.966,2.374-2.964a11.2,11.2,0,0,1,4.422-3.807,10.906,10.906,0,0,1,7.538-.354,6.29,6.29,0,0,1,3.1,3.029,13.187,13.187,0,0,1,1.19,4.241c2.231.429,3.521,2.713,4.511,4.758a9.229,9.229,0,0,1,1.168,3.62,26.762,26.762,0,0,1-1.865,7.556c-3.562,6.439-8.861,7.794-15.3,11.355-2.486,1.376-4.024,4.536-6.863,4.426-3.308-.127-6.526-.256-8.445-2.953s-4.083-5.243-4.366-8.541" transform="translate(-89.039 -77.251)" fill="#263238"/></g><g transform="translate(9.917 8.555)"><path d="M129.05,100.8c-.182-4.612-3.1-10.334-7.7-9.958L106.94,94.123a2.7,2.7,0,0,0-2.481,2.68l.713,34.585-.1.019s3.011,9.828,12.556,7.1c1.893-.541,2.8-2.573,3.23-4.675l.1.014c.01-.251.02-.484.029-.724a22.613,22.613,0,0,0,.18-4.742h0c.1-2.788.125-3.932.127-3.906,0,0,5.906-.837,7.307-8.483C129.294,112.187,129.251,105.923,129.05,100.8Z" transform="translate(-104.459 -90.824)" fill="#b2655f"/></g><g transform="translate(16.533 20.62)"><g transform="translate(4.311 0.046)"><g transform="translate(0 2.721)"><path d="M123.763,115.271a.984.984,0,0,1-.972.971.942.942,0,0,1-.994-.911.985.985,0,0,1,.972-.971A.942.942,0,0,1,123.763,115.271Z" transform="translate(-121.797 -114.358)" fill="#263238"/></g><g transform="translate(10.131 2.721)"><path d="M139.839,115.271a.985.985,0,0,1-.973.971.942.942,0,0,1-.994-.911.985.985,0,0,1,.972-.971A.943.943,0,0,1,139.839,115.271Z" transform="translate(-137.872 -114.358)" fill="#263238"/></g><g transform="translate(8.382)"><path d="M139.341,111.27c-.124.168-.975-.5-2.13-.447-1.154.032-1.963.758-2.1.6-.066-.071.054-.37.406-.7a2.638,2.638,0,0,1,1.668-.68,2.611,2.611,0,0,1,1.706.559C139.267,110.9,139.4,111.194,139.341,111.27Z" transform="translate(-135.097 -110.042)" fill="#263238"/></g></g><g transform="translate(1.744)"><path d="M122.237,111.4c-.151.151-.98-.588-2.209-.659-1.227-.09-2.166.533-2.291.363-.061-.075.1-.355.508-.637a2.981,2.981,0,0,1,1.845-.489,2.906,2.906,0,0,1,1.747.724C122.2,111.033,122.31,111.329,122.237,111.4Z" transform="translate(-117.724 -109.968)" fill="#263238"/></g><g transform="translate(9.493 0.194)"><path d="M130.306,119.112a7.026,7.026,0,0,1,1.728-.27c.271-.021.528-.069.578-.253a1.373,1.373,0,0,0-.161-.805q-.358-.992-.751-2.079a35.441,35.441,0,0,1-1.668-5.43,35.418,35.418,0,0,1,2.1,5.283c.25.73.49,1.425.717,2.091a1.562,1.562,0,0,1,.115,1.064.679.679,0,0,1-.454.385,1.86,1.86,0,0,1-.461.053A6.886,6.886,0,0,1,130.306,119.112Z" transform="translate(-130.019 -110.275)" fill="#263238"/></g><g transform="translate(0 18.597)"><path d="M125.172,142.462a19.533,19.533,0,0,1-10.215-2.986s2.454,5.5,10.153,4.966Z" transform="translate(-114.957 -139.476)" fill="#8e4842"/></g><g transform="translate(6.096 10.817)"><path d="M127.8,127.887a1.907,1.907,0,0,0-1.694-.749,1.742,1.742,0,0,0-1.219.617,1.1,1.1,0,0,0-.113,1.26,1.281,1.281,0,0,0,1.38.384,4.019,4.019,0,0,0,1.373-.776,1.166,1.166,0,0,0,.31-.306.352.352,0,0,0,.008-.394" transform="translate(-124.629 -127.131)" fill="#8e4842"/></g><g transform="translate(6.46 9.689)"><path d="M125.392,125.342c.173-.006.147,1.144,1.112,1.983s2.192.742,2.2.9c.014.072-.279.217-.8.219a2.861,2.861,0,0,1-1.835-.689,2.493,2.493,0,0,1-.859-1.661C125.179,125.615,125.314,125.334,125.392,125.342Z" transform="translate(-125.206 -125.342)" fill="#263238"/></g></g><g transform="translate(18.204 17.613)"><path d="M122.454,106.04c-.112.286-1.166.124-2.412.245-1.249.1-2.259.435-2.418.173-.071-.125.11-.392.522-.661a4.216,4.216,0,0,1,3.68-.318C122.278,105.673,122.5,105.9,122.454,106.04Z" transform="translate(-117.609 -105.196)" fill="#263238"/></g><g transform="translate(28.634 17.531)"><path d="M138.275,106.214c-.219.236-1.047-.033-2.049-.069-1-.066-1.856.118-2.046-.139-.083-.124.057-.362.433-.581a3.146,3.146,0,0,1,1.676-.354,3.1,3.1,0,0,1,1.623.522C138.261,105.848,138.372,106.1,138.275,106.214Z" transform="translate(-134.158 -105.066)" fill="#263238"/></g><g transform="translate(5.92 8.369)"><path d="M101.4,94.8a6.278,6.278,0,0,1,3.383-1.784,70.534,70.534,0,0,1,16.561-2.485,2.867,2.867,0,0,1-1.338,3.4,12.788,12.788,0,0,1-3.775,1.251,4.97,4.97,0,0,0-3.268,2.1c-.674,1.245-.371,2.832-.982,4.11-1.053,2.2-4.311,2.614-5.35,4.818-.786,1.668-.273,1.286-.205,3.128.076,2.088-1.208,2.4-2.859,3.684-1.3,1.01-3.811,2.167-5.45,2.034.282-6.586,1.988-9.752,2.27-16.337A6.569,6.569,0,0,1,101.4,94.8Z" transform="translate(-98.118 -90.529)" fill="#263238"/></g><g transform="translate(18.409 0.999)"><path d="M117.934,80a.627.627,0,0,1,.136-.1,4.12,4.12,0,0,1,.415-.252,6.567,6.567,0,0,1,1.672-.627,7.3,7.3,0,0,1,2.646-.12,6.768,6.768,0,0,1,5.174,3.58A7.292,7.292,0,0,1,128.8,85a6.531,6.531,0,0,1,0,1.786,4.259,4.259,0,0,1-.089.477.611.611,0,0,1-.046.163,8.586,8.586,0,0,0,.013-2.408,7.384,7.384,0,0,0-.838-2.461,6.715,6.715,0,0,0-5.058-3.5,7.388,7.388,0,0,0-2.6.082A8.578,8.578,0,0,0,117.934,80Z" transform="translate(-117.934 -78.836)" fill="#455a64"/></g><g transform="translate(11.03 4.44)"><path d="M106.226,88.242a1.117,1.117,0,0,1,.222-.007,2.87,2.87,0,0,0,.626-.059,3.783,3.783,0,0,0,.935-.334,7.833,7.833,0,0,0,1.113-.713c.395-.294.809-.641,1.269-1a8.371,8.371,0,0,1,1.571-1.007,8.65,8.65,0,0,1,4.168-.814,8.428,8.428,0,0,1,4.053,1.267,8.653,8.653,0,0,1,2.506,2.408,8.246,8.246,0,0,1,1.055,2.095,5.738,5.738,0,0,1,.173.614,1.014,1.014,0,0,1,.041.219c-.02.005-.083-.3-.277-.811a8.855,8.855,0,0,0-3.582-4.392,8.373,8.373,0,0,0-3.979-1.23,8.6,8.6,0,0,0-4.092.786,8.392,8.392,0,0,0-1.552.978c-.461.35-.882.693-1.284.983a7.669,7.669,0,0,1-1.143.7,3.648,3.648,0,0,1-.965.313,2.5,2.5,0,0,1-.639.028A1.105,1.105,0,0,1,106.226,88.242Z" transform="translate(-106.226 -84.296)" fill="#455a64"/></g><g transform="translate(4.559 16.592)"><path d="M95.964,103.577a13.923,13.923,0,0,0,.4,1.879,8.5,8.5,0,0,0,6.563,5.861,13.779,13.779,0,0,0,1.913.188.381.381,0,0,1-.134.021c-.088.006-.217.022-.385.021a7.63,7.63,0,0,1-1.416-.112,8.332,8.332,0,0,1-6.657-5.945,7.572,7.572,0,0,1-.27-1.394c-.02-.166-.018-.3-.023-.385A.414.414,0,0,1,95.964,103.577Z" transform="translate(-95.958 -103.577)" fill="#455a64"/></g><g transform="translate(3.662 19.133)"><path d="M102.723,116.464a2.9,2.9,0,0,1-.52-.082c-.332-.067-.811-.18-1.39-.359a10.55,10.55,0,0,1-4.12-2.3,6.864,6.864,0,0,1-2.129-4.17,4.945,4.945,0,0,1,.052-1.439,3.05,3.05,0,0,1,.093-.38.417.417,0,0,1,.046-.129,6.8,6.8,0,0,0-.071,1.934,6.953,6.953,0,0,0,2.126,4.06,10.983,10.983,0,0,0,4.041,2.307c.57.192,1.041.323,1.368.408A3.37,3.37,0,0,1,102.723,116.464Z" transform="translate(-94.535 -107.608)" fill="#455a64"/></g><g transform="translate(31.064 6.935)"><path d="M142.882,88.48a7.406,7.406,0,0,0-4.869.928,2.224,2.224,0,0,1,.614-.435,5.778,5.778,0,0,1,3.524-.672A2.245,2.245,0,0,1,142.882,88.48Z" transform="translate(-138.013 -88.255)" fill="#263238"/></g><g transform="translate(31.213 3.186)"><path d="M139.9,82.3a2.611,2.611,0,0,1,.057.805,6.946,6.946,0,0,1-1.188,3.675,2.628,2.628,0,0,1-.517.62,9.071,9.071,0,0,0,1.648-5.1Z" transform="translate(-138.25 -82.305)" fill="#263238"/></g><g transform="translate(7.073 24.652)"><path d="M104.793,116.657c-.118-.057-4.8-1.638-4.845,3.2s4.825,3.888,4.834,3.749S104.793,116.657,104.793,116.657Z" transform="translate(-99.948 -116.365)" fill="#b2655f"/></g><g transform="translate(8.301 26.21)"><path d="M104.041,122.675c-.021-.016-.085.058-.228.122a.844.844,0,0,1-.63.007,2.086,2.086,0,0,1-.948-1.881,2.773,2.773,0,0,1,.247-1.205.975.975,0,0,1,.64-.642.429.429,0,0,1,.5.236c.064.136.032.233.058.241s.1-.08.067-.28a.54.54,0,0,0-.188-.305.636.636,0,0,0-.465-.127,1.184,1.184,0,0,0-.888.742,2.869,2.869,0,0,0-.305,1.346,2.191,2.191,0,0,0,1.211,2.1.9.9,0,0,0,.773-.121C104.031,122.792,104.058,122.684,104.041,122.675Z" transform="translate(-101.896 -118.836)" fill="#8e4842"/></g><g transform="translate(4.789 30.844)"><path d="M99.384,126.19a1.467,1.467,0,0,1-.222.139c-.146.09-.375.2-.647.378a4.6,4.6,0,0,0-1.707,2.084,4.555,4.555,0,0,0,.205,3.9,4.515,4.515,0,0,0,4.036,2.38,4.438,4.438,0,0,0,1.274-.2,4.243,4.243,0,0,0,1.136-.525,4.545,4.545,0,0,0,1.579-1.74,4.572,4.572,0,0,0-1.626-5.95,8.072,8.072,0,0,0-.894-.466,3.385,3.385,0,0,1,.929.409,4.6,4.6,0,0,1,1.827,2.055,4.672,4.672,0,0,1-1.724,5.832,4.392,4.392,0,0,1-1.178.547,4.564,4.564,0,0,1-1.322.205,4.658,4.658,0,0,1-4.176-2.477,4.636,4.636,0,0,1,1.6-6.112c.282-.168.514-.27.666-.35A1.492,1.492,0,0,1,99.384,126.19Z" transform="translate(-96.324 -126.189)" fill="#fff"/></g><g transform="translate(0 16.076)"><path d="M92.9,102.758a1.219,1.219,0,0,1,0,.236,5.009,5.009,0,0,1-.066.676,9.546,9.546,0,0,1-.712,2.392c-.41.973-1.021,2.072-1.66,3.3a20.094,20.094,0,0,0-.908,1.973,9.306,9.306,0,0,0-.594,2.238,8.248,8.248,0,0,0,.656,4.375,8.888,8.888,0,0,0,1,1.681c.365.5.722.949,1.048,1.36.657.82,1.212,1.465,1.6,1.907l.445.51a1.227,1.227,0,0,1,.149.185,1.235,1.235,0,0,1-.174-.161c-.109-.11-.268-.274-.469-.488-.4-.43-.972-1.064-1.642-1.876-.335-.408-.7-.855-1.069-1.353a8.908,8.908,0,0,1-1.027-1.7,8.335,8.335,0,0,1-.682-4.461,9.372,9.372,0,0,1,.607-2.277,19.839,19.839,0,0,1,.924-1.985c.649-1.232,1.268-2.319,1.69-3.28a10.229,10.229,0,0,0,.758-2.355,6.724,6.724,0,0,0,.1-.667A1.269,1.269,0,0,1,92.9,102.758Z" transform="translate(-88.725 -102.758)" fill="#455a64"/></g></g></g></g><g transform="translate(313.06 74.04)"><g transform="translate(56.427 94.179)"><g transform="translate(0 7.083)"><path d="M584.053,252.979l-.732-.221c-3.42,1.414-5.68,4.787-6.859,8.295s-1.47,7.242-2.159,10.878-1.867,7.341-4.438,10a41.056,41.056,0,0,0,5.314,3.878,4.239,4.239,0,0,0,1.982.771,4.061,4.061,0,0,0,2.9-1.6c3.845-4.111,4.319-11.513,4.725-17.127S585.625,258.384,584.053,252.979Z" transform="translate(-569.865 -252.758)" fill="#167377"/></g><g transform="translate(3.592 9.423)" opacity="0.2"><path d="M583.414,256.472s-8.365,29.246-7.825,29.609,2.195,1.393,2.195,1.393l7.625-30.6Z" transform="translate(-575.564 -256.472)"/></g><g transform="translate(10.221)"><path d="M592.785,243.768a2.517,2.517,0,0,0-2.253-2.231,3.6,3.6,0,0,0-3.033,1.344,6.468,6.468,0,0,0-1.317,3.148c-.265,1.591-.049,3.476,1.272,4.4a3.207,3.207,0,0,0,3.491-.046,4.715,4.715,0,0,0,1.941-3.04,9.149,9.149,0,0,0-.119-3.677" transform="translate(-586.082 -241.52)" fill="#167377"/></g><g transform="translate(13.57 0.207)"><path d="M591.973,248.73a2.434,2.434,0,0,1-.411-1.015,6.3,6.3,0,0,1,1-5.08c.4-.55.74-.81.765-.784a7.19,7.19,0,0,1-.571.912,7.282,7.282,0,0,0-.964,4.907A7.094,7.094,0,0,1,591.973,248.73Z" transform="translate(-591.396 -241.849)" fill="#263238"/></g><g transform="translate(10.727 8.041)"><path d="M589.078,256.029c.011.04-.159.134-.466.146a1.7,1.7,0,0,1-1.711-1.411c-.047-.3.015-.488.055-.485.09-.012.118.737.747,1.255A3.24,3.24,0,0,0,589.078,256.029Z" transform="translate(-586.885 -254.279)" fill="#263238"/></g></g><g transform="translate(105.551 63.664)"><path d="M655.5,193.1l6.271,13.546-13.961-8.033Z" transform="translate(-647.807 -193.103)" fill="#ffbe9d"/></g><g transform="translate(0 20.608)"><g transform="translate(0 0.001)"><g transform="translate(0 0)"><path d="M480.334,124.789l18.893,24.867,8.148-2.162,4.1,2.328,7.094-13.044-4.268-2.24-3.156-8Z" transform="translate(-480.334 -124.789)" fill="#fafafa"/></g><path d="M480.334,124.789l30.819,1.65.061,0,.023.057,3.162,8-.047-.052,4.269,2.239.093.049-.05.093-3.62,6.659-3.474,6.385-.052.1-.094-.054-4.1-2.329.078.01-8.149,2.156-.064.017-.039-.052-18.815-24.926L499.306,149.6l-.1-.035,8.147-2.167.042-.011.037.021,4.1,2.326-.146.042,3.472-6.386,3.622-6.658.042.141-4.266-2.242-.033-.018-.014-.035c-1.094-2.779-2.15-5.462-3.151-8l.084.06Z" transform="translate(-480.334 -124.789)" fill="#263238"/></g><g transform="translate(15.953 6.721)"><path d="M512.368,135.971a4.45,4.45,0,0,1,1.827,6.092,4.612,4.612,0,0,1-6.17,1.895,4.451,4.451,0,0,1-1.826-6.092A4.612,4.612,0,0,1,512.368,135.971Z" transform="translate(-505.646 -135.452)" fill="#12263f"/></g><path d="M480.334,124.788c.027-.052,4.654,2.223,10.333,5.08s10.263,5.217,10.236,5.27-4.653-2.222-10.334-5.081S480.307,124.841,480.334,124.788Z" transform="translate(-480.334 -124.788)" fill="#263238"/><g transform="translate(35.097 13.989)"><path d="M648.584,209.144h0a7.352,7.352,0,0,1-9.8,3.038L536.021,159.713l6.923-12.73,102.692,52.432A7.094,7.094,0,0,1,648.584,209.144Z" transform="translate(-536.021 -146.983)" fill="#12263f"/></g><g transform="translate(29.92 10.554)"><path d="M541.156,144.267l-8.142,14.97-5.208-2.734,8.142-14.97Z" transform="translate(-527.806 -141.533)" fill="#727997"/></g><g transform="translate(35.681 14.511)" opacity="0.3"><path d="M536.947,160.541l6.923-12.73,1.942,1.005L537.639,160.9Z" transform="translate(-536.947 -147.811)"/></g><g transform="translate(32.151 17.656)" opacity="0.5"><path d="M531.346,156.568l7.528-1.864,1.215-1.9-7.736,1.915Z" transform="translate(-531.346 -152.801)" fill="#fff"/></g></g><g transform="translate(106.083 67.781)" opacity="0.2"><path d="M648.652,199.635a15.265,15.265,0,0,1,.38,16.148Z" transform="translate(-648.652 -199.635)"/></g><g transform="translate(87.064 227.886)"><path d="M618.48,454.182c.059.122.676-.078,1.441-.042.766.02,1.366.264,1.435.147.076-.1-.515-.588-1.418-.618S618.411,454.077,618.48,454.182Z" transform="translate(-618.475 -453.668)" fill="#263238"/></g><g transform="translate(85.355 216.484)"><path d="M615.784,437.034c.112.077.548-.4,1.23-.752s1.317-.45,1.318-.585c.017-.124-.739-.255-1.537.168S615.672,436.978,615.784,437.034Z" transform="translate(-615.763 -435.576)" fill="#263238"/></g><g transform="translate(56.831 91.341)"><g transform="translate(16.176 125.876)"><g transform="translate(0.014)"><path d="M609.705,437.067l.812,14.256s-14.218,5.614-14.324,8.263l27.7-.583-.354-22.265Z" transform="translate(-596.193 -436.739)" fill="#f9c869"/></g><g transform="translate(21.545 13.163)"><path d="M631.689,457.665a1.132,1.132,0,0,1,.809,1.274,1.087,1.087,0,0,1-1.256.813,1.193,1.193,0,0,1-.85-1.354,1.128,1.128,0,0,1,1.4-.7" transform="translate(-630.356 -457.624)" fill="#e0e0e0"/></g><g transform="translate(0 20.014)"><path d="M623.924,471.462v-2.968L597.249,469.9s-1.222.562-1.064,1.428Z" transform="translate(-596.171 -468.494)" fill="#263238"/></g><g transform="translate(13.886 14.319)"><path d="M618.2,459.592c.008.136.685.183,1.359.6.686.4,1.041.982,1.165.925.124-.029-.094-.833-.92-1.329S618.172,459.469,618.2,459.592Z" transform="translate(-618.203 -459.458)" fill="#263238"/></g><g transform="translate(11.006 15.658)"><path d="M613.635,461.641c-.028.132.562.349,1.034.912.488.548.617,1.165.751,1.156.128.018.2-.776-.395-1.464S613.635,461.512,613.635,461.641Z" transform="translate(-613.634 -461.583)" fill="#263238"/></g><g transform="translate(8.3 16.915)"><path d="M610.47,465.89c.124.026.3-.654-.066-1.387s-1-1.015-1.056-.9c-.074.113.345.5.633,1.108S610.335,465.88,610.47,465.89Z" transform="translate(-609.339 -463.578)" fill="#263238"/></g></g><g transform="translate(20.078)"><path d="M630.984,237.017s6.327,10.877,7.2,20.607c.787,8.809-4.78,18.894-4.78,18.894l-9.619,36.215,2.836,61.927-15.381.789-8.873-70.991,2.684-66.083Z" transform="translate(-602.362 -237.017)" fill="#d2e1f1"/></g><g transform="translate(21.941 110.29)"><g transform="translate(0.098)"><path d="M606.122,419.166l7.787,11.969s-9.551,11.935-8.327,14.287l23.75-14.265-11.369-19.148Z" transform="translate(-605.474 -412.009)" fill="#f9c869"/></g><g transform="translate(14.48 13.649)"><path d="M629.073,433.7a1.131,1.131,0,0,1,1.335.7,1.088,1.088,0,0,1-.686,1.33,1.194,1.194,0,0,1-1.41-.753,1.128,1.128,0,0,1,.867-1.3" transform="translate(-628.293 -433.665)" fill="#e0e0e0"/></g><g transform="translate(0 17.263)"><path d="M629.275,441.284l-1.221-1.885-22.314,14.382s-.781,1.1-.214,1.768Z" transform="translate(-605.319 -439.399)" fill="#263238"/></g><g transform="translate(8.067 18.613)"><path d="M618.127,442.165c.074.113.685-.182,1.48-.152.8.009,1.391.335,1.47.225.093-.087-.5-.676-1.459-.7S618.038,442.074,618.127,442.165Z" transform="translate(-618.119 -441.541)" fill="#263238"/></g><g transform="translate(6.2 21.476)"><path d="M615.16,446.371c.041.129.662.024,1.35.278.7.234,1.114.7,1.226.63.12-.047-.208-.775-1.07-1.074S615.1,446.259,615.16,446.371Z" transform="translate(-615.156 -446.083)" fill="#263238"/></g><g transform="translate(4.469 24.069)"><path d="M614.52,451.723c.12-.038-.066-.715-.745-1.171s-1.373-.383-1.365-.257c-.008.135.549.264,1.1.647S614.4,451.781,614.52,451.723Z" transform="translate(-612.41 -450.198)" fill="#263238"/></g></g><g transform="translate(0 1.359)"><path d="M585.768,242.157s-18.718,67.329-14.7,74.869,24.668,49.5,24.668,49.5l17.342-9.551-19.815-46.289,15.063-33.134s7.216-6.284,10.006-15.081-2.024-23.3-2.024-23.3H586.189Z" transform="translate(-570.505 -239.173)" fill="#d2e1f1"/></g><g transform="translate(22.56 15.34)"><path d="M632.44,261.357s.052.175.118.521.16.861.252,1.538a37.983,37.983,0,0,1,.369,5.926,23.841,23.841,0,0,1-.469,4.233,13.323,13.323,0,0,1-.7,2.327,15.542,15.542,0,0,1-1.212,2.318,19.365,19.365,0,0,1-9.185,7.682l.09-.081-15.033,33.147,0-.149c.273.637.567,1.324.862,2.014l18.9,44.3.047.11-.1.057-12.72,6.938-3.465,1.869-.906.477c-.2.106-.314.152-.314.152s.1-.068.3-.185l.887-.51,3.432-1.929,12.664-7.041-.057.166-19-44.254-.862-2.014-.032-.075.034-.074,15.092-33.12.026-.056.065-.025a19.171,19.171,0,0,0,9.073-7.525,15.291,15.291,0,0,0,1.208-2.274,13.129,13.129,0,0,0,.707-2.285,23.965,23.965,0,0,0,.5-4.192,40.559,40.559,0,0,0-.286-5.909c-.078-.678-.157-1.194-.207-1.543S632.44,261.357,632.44,261.357Z" transform="translate(-606.3 -261.357)" fill="#455a64"/></g><g transform="translate(22.734 15.166)"><g transform="translate(0.022)"><path d="M606.617,262.37a2.358,2.358,0,0,1,.349-.038l1.054-.079,4.034-.27,14.409-.892.173-.011v.175c.006,4.241.013,9.005.02,14.059v.084l-.065.055-2.167,1.854-7.387,6.31-.09.077-.106-.053-9.6-4.8-.083-.041,0-.09c-.176-4.928-.321-9.021-.425-11.916-.042-1.4-.076-2.5-.1-3.291-.008-.355-.013-.638-.018-.855a1.656,1.656,0,0,1,.005-.282,2.3,2.3,0,0,1,.03.313c.014.224.032.516.056.883.043.795.1,1.912.18,3.321.141,2.869.34,6.927.579,11.813l-.085-.131L617,283.322l-.2.024,7.379-6.32,2.168-1.854-.064.141c.007-5.054.014-9.818.02-14.059l.173.165-14.313.721-4.075.185-1.089.042A3.181,3.181,0,0,1,606.617,262.37Z" transform="translate(-606.611 -261.08)" fill="#455a64"/></g><g transform="translate(0 2.794)"><path d="M626.4,265.527a3.222,3.222,0,0,1-.767.161c-.5.081-1.219.18-2.112.288-1.787.217-4.262.459-7,.63s-5.229.235-7.029.24c-.9,0-1.628-.006-2.131-.025a3.224,3.224,0,0,1-.782-.065,3.193,3.193,0,0,1,.78-.079l2.127-.093c1.8-.071,4.276-.178,7.012-.347s5.209-.371,7-.521l2.122-.171A3.222,3.222,0,0,1,626.4,265.527Z" transform="translate(-606.576 -265.512)" fill="#455a64"/></g></g></g><g transform="translate(55.943 40.129)"><g transform="translate(14.533)"><path d="M594.233,177.042a25.051,25.051,0,0,0-1.962,12.043c.282,2.639,1.837,9.364,1.837,9.364l-.212,12.867S628.03,208.759,628,208.69s.371-16.2.064-27.55-5.3-23.019-5.3-23.019-4.541-2.623-7.949-2.338-17.689,1.885-17.689,1.885Z" transform="translate(-592.156 -155.762)" fill="#f9c869"/></g><g transform="translate(0 2.335)"><path d="M588.051,159.471s-5.7.824-10.989,9.126c-5.462,8.573-7.966,12.121-7.966,12.121l15.565,10.169s8.579-12.933,9.652-15.708S596.584,159.211,588.051,159.471Z" transform="translate(-569.097 -159.467)" fill="#f9c869"/></g><g transform="translate(41.773 1.468)"><path d="M635.376,158.091s4.927,1.948,6.962,5.083c1.325,2.04,9.473,16.349,9.473,16.349l-9.365,6.521-7.07-19.863Z" transform="translate(-635.376 -158.091)" fill="#f9c869"/></g><g transform="translate(14.092 18.74)" opacity="0.2"><path d="M591.726,202.324l1.8.813s8.509-11.28,8.846-17.641l-9.347,14.483-1.571-.831Z" transform="translate(-591.457 -185.496)"/></g><g transform="translate(49.145 11.465)"><path d="M647.08,173.953a1.174,1.174,0,0,1,.071.318l.14.921c.114.8.263,1.96.42,3.4.321,2.873.667,6.853.891,11.258s.3,8.4.325,11.29c.007,1.445,0,2.614-.011,3.422-.009.373-.017.68-.023.931a1.242,1.242,0,0,1-.031.325,1.211,1.211,0,0,1-.035-.325c-.011-.25-.023-.557-.038-.93-.023-.857-.055-2.013-.093-3.42-.08-2.887-.19-6.875-.421-11.277s-.533-8.377-.794-11.252c-.13-1.4-.237-2.553-.316-3.406-.032-.371-.058-.678-.079-.927A1.271,1.271,0,0,1,647.08,173.953Z" transform="translate(-647.073 -173.953)" fill="#263238"/></g></g><g transform="translate(61.364)"><path d="M618.944,117.865c-.715-3.634-2.212-7.059-3.354-10.582-1.33-4.1-2.363-8.648-5.672-11.413-2.184-1.825-5.052-2.579-7.84-3.145a19.158,19.158,0,0,0-7.67-.389c-1.261.262-2.465.749-3.717,1.053a23.267,23.267,0,0,0-4.339,1.084c-2.805,1.29-4.237,4.493-4.658,7.552s-.074,6.185-.512,9.241a42.706,42.706,0,0,1-.959,4.339c-1.293,2.793-2.71,5.584-2.508,8.573.146,2.162,1.139,4.169,1.617,6.283s.283,4.654-1.426,5.987a3.242,3.242,0,0,0,3.977.211,3.209,3.209,0,0,0,1.244-2.273,2.224,2.224,0,0,0,.857.71,5.467,5.467,0,0,0,2.79.221c2.717-.26,5.539-.579,7.9-1.891l13.3-1.136c3.433,1.389,7.576-.538,9.55-3.672S619.659,121.5,618.944,117.865Z" transform="translate(-577.697 -92.09)" fill="#263238"/><g transform="translate(3.355 3.084)"><path d="M593.932,96.983c-1.288.258-2.646.067-3.911.423a6.313,6.313,0,0,0-3.891,3.9,18.67,18.67,0,0,0-.974,5.6q-.179,2.552-.358,5.1a15.911,15.911,0,0,1-.455,3.25,34.382,34.382,0,0,0-1.308,5.833,16.473,16.473,0,0,0,3.8,11.531c1.174,1.329,6.639,1.363,8.377,1.714.766-.669,2.68-.663,3.446-1.333.131-.114-5.56-4.465-5.493-4.625a1.181,1.181,0,0,0-.076-.824,40.682,40.682,0,0,1,1.716-30.293" transform="translate(-583.02 -96.983)" fill="#263238"/></g><g transform="translate(7.405 4.528)"><path d="M611.706,136.777l1.99-31.269h0a2.619,2.619,0,0,0-2.337-2.661L597.471,99.3c-4.449-.481-7.42,4.992-7.711,9.458-.324,4.961-.523,11.031.057,14.734,1.165,7.447,6.869,8.407,6.869,8.407,0-.038.47,5,.47,5s3.611-.638,6.28-.925C609.355,135.34,611.706,136.777,611.706,136.777Z" transform="translate(-589.447 -99.275)" fill="#ffbe9d"/></g><g transform="translate(9.439 18.714)"><path d="M592.675,122.643a.955.955,0,0,0,.919.966.913.913,0,0,0,.986-.859.955.955,0,0,0-.917-.966A.914.914,0,0,0,592.675,122.643Z" transform="translate(-592.674 -121.782)" fill="#263238"/></g><g transform="translate(9.439 16.391)"><path d="M592.689,119.1c.118.125.843-.408,1.87-.4,1.027-.01,1.779.52,1.891.395.055-.055-.065-.28-.393-.52a2.619,2.619,0,0,0-1.513-.47,2.518,2.518,0,0,0-1.489.476C592.738,118.815,592.631,119.04,592.689,119.1Z" transform="translate(-592.674 -118.097)" fill="#263238"/></g><g transform="translate(18.875 18.839)"><path d="M607.647,122.842a.955.955,0,0,0,.918.966.914.914,0,0,0,.986-.859.955.955,0,0,0-.918-.966A.914.914,0,0,0,607.647,122.842Z" transform="translate(-607.646 -121.981)" fill="#263238"/></g><g transform="translate(19.538 16.391)"><path d="M608.711,119.1c.119.125.844-.408,1.871-.4,1.026-.01,1.779.52,1.891.395.055-.055-.064-.28-.393-.52a2.623,2.623,0,0,0-1.513-.471,2.521,2.521,0,0,0-1.489.477C608.762,118.815,608.654,119.04,608.711,119.1Z" transform="translate(-608.697 -118.096)" fill="#263238"/></g><g transform="translate(13.191 16.442)"><path d="M601.243,126.737a6.792,6.792,0,0,0-1.668-.305c-.262-.028-.51-.08-.554-.259a1.335,1.335,0,0,1,.176-.777l.78-2a34.215,34.215,0,0,0,1.754-5.222,34.4,34.4,0,0,0-2.17,5.068l-.747,2.008a1.518,1.518,0,0,0-.139,1.029.66.66,0,0,0,.431.385,1.748,1.748,0,0,0,.445.062A6.668,6.668,0,0,0,601.243,126.737Z" transform="translate(-598.627 -118.177)" fill="#263238"/></g><g transform="translate(14.644 34.519)"><path d="M600.932,149.5a20.078,20.078,0,0,0,10.4-2.638s-2.733,5.663-10.182,4.951Z" transform="translate(-600.932 -146.86)" fill="#eb996e"/></g><g transform="translate(15.888 26.432)"><path d="M606.29,134.767a1.951,1.951,0,0,0-1.347-.726,2.136,2.136,0,0,0-1.918.79l-.051.039a.4.4,0,0,0,0,.441,1.309,1.309,0,0,0,.339.352,4.5,4.5,0,0,0,1.514.909,1.435,1.435,0,0,0,1.557-.39A1.236,1.236,0,0,0,606.29,134.767Z" transform="translate(-602.906 -134.028)" fill="#eb996e"/></g><g transform="translate(15.548 25.718)"><path d="M605.648,132.9c-.168-.01-.172,1.105-1.128,1.895s-2.143.664-2.152.82c-.016.07.265.217.766.232a2.778,2.778,0,0,0,1.8-.621,2.42,2.42,0,0,0,.874-1.588C605.848,133.166,605.724,132.89,605.648,132.9Z" transform="translate(-602.367 -132.896)" fill="#263238"/></g><g transform="translate(18.919 12.953)"><path d="M607.721,113.408c.1.28,1.126.149,2.331.3,1.208.124,2.179.478,2.34.228.071-.119-.1-.383-.49-.654a4.084,4.084,0,0,0-3.559-.4C607.9,113.056,607.677,113.275,607.721,113.408Z" transform="translate(-607.716 -112.642)" fill="#263238"/></g><g transform="translate(9.413 13.062)"><path d="M592.659,113.874c.18.234.889-.007,1.74-.016.851-.039,1.572.161,1.738-.083.072-.118-.04-.352-.355-.574a2.52,2.52,0,0,0-2.8.081C592.679,113.521,592.579,113.76,592.659,113.874Z" transform="translate(-592.632 -112.814)" fill="#263238"/></g><g transform="translate(2.189 2.831)"><path d="M582.135,137.405a2.229,2.229,0,0,1-.149-.439c-.086-.291-.2-.725-.317-1.29a23.608,23.608,0,0,1-.5-4.86,25.775,25.775,0,0,1,1.042-7.17,78.215,78.215,0,0,0,2.263-8.526c.461-3.085.338-6.1.72-8.815a13.613,13.613,0,0,1,2.532-6.763,7.929,7.929,0,0,1,4-2.752,4.486,4.486,0,0,1,1.782-.185,9.185,9.185,0,0,0-1.741.323,7.983,7.983,0,0,0-3.84,2.776,13.543,13.543,0,0,0-2.4,6.645c-.36,2.681-.226,5.691-.692,8.827a73.768,73.768,0,0,1-2.3,8.562,26.347,26.347,0,0,0-1.109,7.08,26.074,26.074,0,0,0,.378,4.832c.095.566.187,1,.248,1.3A2.178,2.178,0,0,1,582.135,137.405Z" transform="translate(-581.171 -96.582)" fill="#455a64"/></g><g transform="translate(13.339 1.028)"><path d="M598.861,96.753a1.776,1.776,0,0,1,.761-1.042,10.6,10.6,0,0,1,8.083-1.847,18.875,18.875,0,0,1,7.754,3.364,13.959,13.959,0,0,1,4.984,5.38,17.862,17.862,0,0,1,1.209,5.079c.585,4.291,1.737,8.59,1.7,12.921a53.341,53.341,0,0,1,0,6.6c-.307,2.221-2.462,4.93-4.649,5.426l-4.93.492s2.669-9.2,2.462-12.521c-.181-2.907-.155-6.1-.483-8.989a1.185,1.185,0,0,0-.849-1.171l-3.079-1.574a29.929,29.929,0,0,1-2.9-1.618,26.951,26.951,0,0,1-2.909-2c-1.332-1.139-2.552-2.049-3.884-3.188a15.475,15.475,0,0,1-2.422-2.89,3.966,3.966,0,0,1-.662-3.125" transform="translate(-598.861 -93.721)" fill="#263238"/></g><g transform="translate(29.664 18.839)"><path d="M624.976,124.1a2.171,2.171,0,0,1,3.177-1.847c.754.436,1.33,1.312,1.261,2.993-.185,4.484-4.648,3.374-4.651,3.245C624.762,128.41,624.884,125.954,624.976,124.1Z" transform="translate(-624.764 -121.982)" fill="#ffbe9d"/></g><g transform="translate(31.099 20.191)"><path d="M627.045,127.64c.02-.014.076.057.205.124a.78.78,0,0,0,.584.036,1.934,1.934,0,0,0,.966-1.7,2.574,2.574,0,0,0-.173-1.128.9.9,0,0,0-.563-.624.4.4,0,0,0-.47.2c-.066.123-.041.214-.065.221s-.093-.079-.049-.263a.5.5,0,0,1,.188-.274.59.59,0,0,1,.437-.1,1.1,1.1,0,0,1,.787.729,2.648,2.648,0,0,1,.219,1.261,2.03,2.03,0,0,1-1.219,1.889.837.837,0,0,1-.71-.148C627.049,127.749,627.03,127.647,627.045,127.64Z" transform="translate(-627.041 -124.126)" fill="#eb996e"/></g><g transform="translate(15.176 2.795)"><path d="M623.915,107.627a15.73,15.73,0,0,0-3.108-1.905,24.049,24.049,0,0,0-3.76-1.255c-1.447-.388-3.066-.734-4.734-1.252a24.27,24.27,0,0,1-7.872-4.138,20.931,20.931,0,0,1-2.013-1.8,4.486,4.486,0,0,1-.652-.747,5.878,5.878,0,0,1,.751.643c.47.425,1.167,1.022,2.073,1.7a25.9,25.9,0,0,0,7.823,3.993c1.646.511,3.261.868,4.712,1.276a22.133,22.133,0,0,1,3.781,1.346,10.749,10.749,0,0,1,2.292,1.444,6.094,6.094,0,0,1,.539.5C623.867,107.551,623.924,107.618,623.915,107.627Z" transform="translate(-601.777 -96.525)" fill="#455a64"/></g><g transform="translate(24.428 8.1)"><path d="M627.431,104.941c1.716,5.543,4.515,10.614,6.235,14.616a31.118,31.118,0,0,1,2.313,6.024c.4,2.18-.53,4.351-1.047,6.507s-.444,4.812,1.35,6.115a14.341,14.341,0,0,1-8.466,3.055,2.641,2.641,0,0,1-1.652-.36,1.04,1.04,0,0,1-.249-1.494,7.354,7.354,0,0,1-9.325.964c-.2-2.392-.356-4.989.962-7,1.076-1.64,3.022-2.672,3.731-4.5.423-1.091-.136-2.462.05-3.617a5.75,5.75,0,0,1,1.295-2.852h0a5.69,5.69,0,0,0,6.056-4.187l.1-.358Z" transform="translate(-616.456 -104.941)" fill="#263238"/></g><g transform="translate(14.472 3.39)"><path d="M620.5,134.282a2.612,2.612,0,0,1,.234-.453l.705-1.273a32.41,32.41,0,0,0,2.172-4.872,19.844,19.844,0,0,0,1.126-7.752,13.8,13.8,0,0,0-3.622-8.686,25.738,25.738,0,0,0-8.092-5.173,60.4,60.4,0,0,1-7.13-3.537,16.749,16.749,0,0,1-4.115-3.446,9.822,9.822,0,0,1-.864-1.18,2.592,2.592,0,0,1-.251-.443c.035-.023.389.586,1.224,1.528a17.563,17.563,0,0,0,4.143,3.316,64.105,64.105,0,0,0,7.135,3.45,25.651,25.651,0,0,1,8.219,5.229,14.043,14.043,0,0,1,3.694,8.919,19.723,19.723,0,0,1-1.219,7.861,29.345,29.345,0,0,1-2.293,4.855c-.319.548-.583.963-.767,1.242A2.71,2.71,0,0,1,620.5,134.282Z" transform="translate(-600.66 -97.468)" fill="#455a64"/></g></g><g transform="translate(77.722 43.753)"><path d="M607.757,175.033c-.057-.026.381-.8.709-2.165a10.148,10.148,0,0,0-3.021-9.949c-1.033-.952-1.826-1.351-1.793-1.4a2,2,0,0,1,.564.258,8.588,8.588,0,0,1,1.383.974,9.837,9.837,0,0,1,3.091,10.181,8.633,8.633,0,0,1-.608,1.579A1.983,1.983,0,0,1,607.757,175.033Z" transform="translate(-603.651 -161.511)" fill="#263238"/></g><g transform="translate(69.433 92.898)"><g transform="translate(0.488)"><path d="M591.275,247.8l14.651.32a1.243,1.243,0,0,1,1.216,1.293c-.3,7.261-1.634,43.3,1.356,43.863,3.326.625,6.85-5.718,11.738-3.513s10.684,4.69,13.413,1.931,4.914-34.719-5.973-52.2l-34.64,1.989Z" transform="translate(-591.275 -239.488)" fill="#167377"/></g><g transform="translate(0.382 4.01)"><path d="M609.26,246.171a3.023,3.023,0,0,1-.72.017l-1.954-.041c-1.649-.027-3.928-.008-6.436.165s-4.769.472-6.4.727l-1.929.311a3.064,3.064,0,0,1-.715.083,3.018,3.018,0,0,1,.69-.209c.449-.115,1.1-.258,1.916-.415a55.265,55.265,0,0,1,12.881-.895c.826.042,1.494.093,1.954.146A3.04,3.04,0,0,1,609.26,246.171Z" transform="translate(-591.107 -245.851)" fill="#263238"/></g><g transform="translate(0 6.018)"><path d="M616.409,251.412a6.1,6.1,0,0,1-1.014-.157c-.648-.125-1.586-.3-2.748-.5-2.322-.4-5.546-.866-9.13-1.148s-6.843-.32-9.2-.284c-1.179.018-2.132.042-2.791.065a6.061,6.061,0,0,1-1.027,0,6.114,6.114,0,0,1,1.019-.125c.658-.062,1.612-.122,2.793-.17a80.245,80.245,0,0,1,18.378,1.436c1.159.23,2.092.437,2.733.6A6.17,6.17,0,0,1,616.409,251.412Z" transform="translate(-590.5 -249.036)" fill="#263238"/></g><g transform="translate(31.154 21.253)"><path d="M640.45,273.209a5.143,5.143,0,0,1-.008.938c-.028.663-.064,1.52-.108,2.55-.081,2.152-.134,5.128-.03,8.412s.35,6.252.57,8.394c.109,1.025.2,1.878.27,2.538a5.1,5.1,0,0,1,.069.936,5.093,5.093,0,0,1-.195-.918c-.107-.594-.236-1.458-.375-2.529-.279-2.14-.56-5.115-.667-8.41s-.015-6.28.126-8.434c.07-1.078.144-1.948.212-2.548A5.093,5.093,0,0,1,640.45,273.209Z" transform="translate(-639.931 -273.209)" fill="#263238"/></g><g transform="translate(34.034 14.488)"><path d="M646.88,291.361c-.09.008-.694-6.453-1.348-14.428s-1.111-14.45-1.02-14.457.693,6.452,1.348,14.43S646.97,291.354,646.88,291.361Z" transform="translate(-644.5 -262.475)" fill="#263238"/></g></g><g transform="translate(40.987 50.414)"><g transform="translate(4.58 4.62)"><path d="M564.729,189.185l-1.264,1.681-.456-8.556-8.626-2.9s-2.028,21.507-1.719,24.843c.337,3.644.411,3.825,1.335,5.487,1.183,2.126,5.3,3.611,7.652,2.988,2.4-.635,4.874-3.828,6.756-5.742,3.42-3.478,8.694-10.089,8.694-10.089Z" transform="translate(-552.632 -179.41)" fill="#ffbe9d"/></g><g transform="translate(10.517 14.394)"><path d="M568.213,194.919a10.532,10.532,0,0,1-.944,1.437c-.6.87-1.422,2.08-2.271,3.452s-1.566,2.646-2.075,3.574a10.531,10.531,0,0,1-.865,1.485,7.788,7.788,0,0,1,.658-1.591,40.687,40.687,0,0,1,4.366-7.057A7.769,7.769,0,0,1,568.213,194.919Z" transform="translate(-562.053 -194.918)" fill="#eb996e"/></g><path d="M551.643,177.8l-3.361-1.895c-1.353-1.072-2.591-2.127-2.917-3.822h0s9.8,4.38,10.586,4.783,4.479,1.893,4.368,3.422Z" transform="translate(-545.366 -172.08)" fill="#ffbe9d"/></g><g transform="translate(70.248 96.511)" opacity="0.2"><path d="M603.93,245.268c3.625-.086,7.254-.065,10.874.164.731.047,1.688.335,1.659,1.066a.978.978,0,0,1-.724.822,2.863,2.863,0,0,1-1.158.038l-9.66-.995a28.96,28.96,0,0,0-13,.951l-.127-.794S601.885,245.316,603.93,245.268Z" transform="translate(-591.793 -245.221)"/></g></g><g transform="translate(169.561 169.529)"><g transform="translate(0 43.331)"><g transform="translate(5.022)"><path d="M317.856,368.022l11.037-10.913L309.209,323.4a19,19,0,0,0-7.554-5.254l-6.933-2.635-17.233-3.161-12.235,4.818a7.315,7.315,0,0,0-4.584,7.67l3.2,26.941,1.885,35.081,44.461-7.712-4.474-12.975.151-20.23Z" transform="translate(-260.618 -312.35)" fill="#7d6eb2"/><g transform="translate(45.177 21.662)"><path d="M332.654,378.021c.1,0,.13-7.009.06-15.651s-.212-15.651-.316-15.65-.13,7.008-.06,15.653S332.55,378.022,332.654,378.021Z" transform="translate(-332.299 -346.72)" fill="#263238"/></g></g><g transform="translate(0 4.818)"><path d="M301.576,373.281l-26.865-10.815a6.139,6.139,0,0,1-3.828-5.227l-1.966-25.757s.233-10.954-6.609-11.488l-3.892,1.533c-5.031,2.672-6.277,10-5.592,15.651.972,8.035,1.378,19.407,2.467,26.381a14.929,14.929,0,0,0,9.742,12.192l33.088,7.163Z" transform="translate(-252.649 -319.995)" fill="#7d6eb2"/></g><g transform="translate(16.645 20.235)"><path d="M279.067,344.456a3.7,3.7,0,0,1,.084.59q.064.63.173,1.7c.137,1.509.331,3.635.568,6.246.228,2.649.5,5.786.8,9.267q.11,1.308.225,2.679a20.167,20.167,0,0,0,.344,2.756,4.578,4.578,0,0,0,1.335,2.414,9.091,9.091,0,0,0,2.479,1.542c7.408,3.205,14.235,5.852,19.191,7.708l5.883,2.167,1.6.59a3.858,3.858,0,0,1,.55.228,3.638,3.638,0,0,1-.574-.159l-1.622-.526c-1.406-.466-3.433-1.164-5.925-2.061-4.985-1.8-11.823-4.4-19.253-7.62a9.379,9.379,0,0,1-2.575-1.61,4.926,4.926,0,0,1-1.432-2.594,20.1,20.1,0,0,1-.342-2.805q-.109-1.37-.213-2.68c-.27-3.484-.514-6.624-.72-9.275l-.454-6.256q-.066-1.071-.105-1.7A3.663,3.663,0,0,1,279.067,344.456Z" transform="translate(-279.06 -344.456)" fill="#263238"/></g><g transform="translate(1.241 34.237)"><path d="M254.638,366.673a1.322,1.322,0,0,1,.054.345c.024.269.054.6.089.995.08.918.188,2.153.318,3.655.147,1.542.335,3.376.6,5.4a51.674,51.674,0,0,0,1.213,6.524,9.739,9.739,0,0,0,1.311,3.111,17.858,17.858,0,0,0,2.007,2.466,17.148,17.148,0,0,0,4.3,3.225,16.155,16.155,0,0,0,4.719,1.545,1.25,1.25,0,0,1-.349-.008,7.337,7.337,0,0,1-.994-.128,13.135,13.135,0,0,1-3.491-1.182A16.866,16.866,0,0,1,260,389.405a17.757,17.757,0,0,1-2.062-2.5,10,10,0,0,1-1.366-3.212,48.713,48.713,0,0,1-1.195-6.578c-.25-2.037-.412-3.878-.526-5.425s-.173-2.8-.205-3.668c-.008-.4-.016-.729-.021-1A1.258,1.258,0,0,1,254.638,366.673Z" transform="translate(-254.619 -366.673)" fill="#263238"/></g><g transform="translate(12.742 45.901)"><path d="M272.873,391.539a3.943,3.943,0,0,1,.489-1.432,9.241,9.241,0,0,1,5.45-4.655,3.968,3.968,0,0,1,1.491-.259c.011.061-.553.172-1.407.5a10.456,10.456,0,0,0-5.31,4.535C273.13,391.02,272.931,391.559,272.873,391.539Z" transform="translate(-272.867 -385.179)" fill="#263238"/></g><g transform="translate(17.528 27.893)" opacity="0.3"><path d="M304.138,383.748c-2.872-1.622-5.683-2.869-8.687-4.234a19.681,19.681,0,0,1-7.911-5.767c-3.708-5-3.286-12.209-7.08-17.14l.743,9.947c.228,3.039-.238,6.044,1.719,8.109,1.649,1.74,4.864,3.074,7.141,3.825,4.574,1.509,9.5,3.751,14.075,5.259" transform="translate(-280.46 -356.607)"/></g><g transform="translate(50.303 23.559)" opacity="0.3"><path d="M332.463,349.73l2.324,14.334-2.2-4.06Z" transform="translate(-332.463 -349.73)"/></g><g transform="translate(5.605 6.994)"><path d="M272.67,333.475c-.055.009-.139-.91-.64-2.288a11.532,11.532,0,0,0-8.144-7.317c-1.424-.352-2.346-.337-2.343-.393a2.428,2.428,0,0,1,.644-.025,9.832,9.832,0,0,1,1.745.221,11.155,11.155,0,0,1,8.288,7.448,9.928,9.928,0,0,1,.406,1.711A2.42,2.42,0,0,1,272.67,333.475Z" transform="translate(-261.542 -323.448)" fill="#263238"/></g><g transform="translate(48.729 9.713)"><path d="M329.978,327.762a90.9,90.9,0,0,1,1.611,10.067,90.966,90.966,0,0,1-1.611-10.067Z" transform="translate(-329.965 -327.762)" fill="#263238"/></g></g><g transform="translate(73.926 132.714)"><g transform="translate(0 1.103)"><path d="M374.7,455.92s20.649,5.715,21.477,6.007c1.244.438,1.036,5-.9,4.924-.916-.033-15.86.557-17.749.439s-7.585-2.363-7.585-2.363Z" transform="translate(-369.945 -455.92)" fill="#7d6eb2"/></g><g transform="translate(13.318 4.857)"><path d="M391.117,466a9.051,9.051,0,0,1,2.37-4.118,4.59,4.59,0,0,0-2.37,4.118Z" transform="translate(-391.075 -461.877)" fill="#263238"/></g><g transform="translate(11.174 4.06)"><path d="M387.706,464.558c.1.018.311-.959.86-2.038s1.2-1.833,1.124-1.9a5.179,5.179,0,0,0-1.985,3.942Z" transform="translate(-387.674 -460.612)" fill="#263238"/></g><g transform="translate(9.05 3.346)"><path d="M384.441,463.6a7.256,7.256,0,0,1,1.608-4.112,3.879,3.879,0,0,0-1.608,4.112Z" transform="translate(-384.305 -459.479)" fill="#263238"/></g><g transform="translate(7.916)"><path d="M384.142,458.968a3.663,3.663,0,0,0,.221-1.537,7.271,7.271,0,0,0-.516-2.643,1.151,1.151,0,0,0-.331-.505.55.55,0,0,0-.709.035.917.917,0,0,0-.275.584,4.026,4.026,0,0,0-.026.545,4.578,4.578,0,0,0,.127,1.011,6.132,6.132,0,0,0,.635,1.578,4.157,4.157,0,0,0,.928,1.243c.047-.033-.3-.514-.711-1.356a6.771,6.771,0,0,1-.541-1.535,4.519,4.519,0,0,1-.1-.944c.009-.317,0-.713.19-.866a.2.2,0,0,1,.273-.023.869.869,0,0,1,.226.361,7.568,7.568,0,0,1,.313.911,8.294,8.294,0,0,1,.274,1.613C384.18,458.375,384.085,458.96,384.142,458.968Z" transform="translate(-382.504 -454.17)" fill="#263238"/></g><g transform="translate(5.396 4.373)"><path d="M382.638,461.323a2.9,2.9,0,0,0-1.332-.215,6,6,0,0,0-1.465.18,3.261,3.261,0,0,0-.844.311.872.872,0,0,0-.466.943,1.032,1.032,0,0,0,.744.737,1.885,1.885,0,0,0,.927,0,3.552,3.552,0,0,0,1.341-.659,3.64,3.64,0,0,0,.961-.945,9.01,9.01,0,0,0-1.1.745,3.672,3.672,0,0,1-1.267.548,1.629,1.629,0,0,1-.766-.011.7.7,0,0,1-.5-.491.532.532,0,0,1,.307-.576,3.14,3.14,0,0,1,.749-.292,6.942,6.942,0,0,1,1.392-.243C382.123,461.3,382.629,461.378,382.638,461.323Z" transform="translate(-378.506 -461.108)" fill="#263238"/></g><g transform="translate(16.371 5.715)"><path d="M396.082,466.726a5.572,5.572,0,0,1,1.418-3.478,2.961,2.961,0,0,0-1.418,3.478Z" transform="translate(-395.921 -463.238)" fill="#263238"/></g><g transform="translate(2.124 10.151)"><path d="M373.315,470.282a4.275,4.275,0,0,0,.8.376,17.746,17.746,0,0,0,2.3.712,32.766,32.766,0,0,0,7.883.747c3.095-.034,5.883-.175,7.905-.256l2.393-.127a4.327,4.327,0,0,0,.875-.093,4.3,4.3,0,0,0-.88-.041l-2.4.017-7.9.154a36.948,36.948,0,0,1-7.828-.64C374.492,470.725,373.339,470.217,373.315,470.282Z" transform="translate(-373.315 -470.276)" fill="#263238"/></g><g transform="translate(1.513 8.871)"><path d="M372.346,470c.028.048.593-.282,1.547-.7a7.183,7.183,0,0,1,3.907-.65,6.187,6.187,0,0,1,3.378,2.009,12.169,12.169,0,0,0,1.19,1.215,6.383,6.383,0,0,0-1.01-1.381,8.189,8.189,0,0,0-1.37-1.281,4.91,4.91,0,0,0-2.133-.9,6.829,6.829,0,0,0-4.065.77A5.5,5.5,0,0,0,372.346,470Z" transform="translate(-372.345 -468.245)" fill="#263238"/></g></g><g transform="translate(33.613 129.023)"><path d="M326.613,448.315s-19.54,12.793-20.24,13.322c-1.052.8.154,4.581,1.977,3.926.862-.31,17.259-4.871,19.022-5.557s6.509-4.555,6.509-4.555Z" transform="translate(-305.982 -448.315)" fill="#7d6eb2"/><g transform="translate(11.319 6.899)"><path d="M327.451,462.482a4.585,4.585,0,0,0-3.509-3.2,9.043,9.043,0,0,1,3.509,3.2Z" transform="translate(-323.942 -459.262)" fill="#263238"/></g><g transform="translate(13.494 5.372)"><path d="M330.481,460a5.178,5.178,0,0,0-3.088-3.152c-.049.09.807.6,1.649,1.473S330.391,460.049,330.481,460Z" transform="translate(-327.392 -456.838)" fill="#263238"/></g><g transform="translate(15.562 3.963)"><path d="M333.455,458.046a3.879,3.879,0,0,0-2.781-3.43,7.254,7.254,0,0,1,2.781,3.43Z" transform="translate(-330.672 -454.603)" fill="#263238"/></g><g transform="translate(16.178 0.088)"><path d="M332.656,453.343c.052-.025-.216-.553-.442-1.462a8.323,8.323,0,0,1-.23-1.619,7.675,7.675,0,0,1,.021-.963.87.87,0,0,1,.107-.413.2.2,0,0,1,.267-.061c.223.089.34.468.445.768a4.589,4.589,0,0,1,.192.929,6.8,6.8,0,0,1-.05,1.627c-.137.928-.321,1.491-.265,1.508a4.177,4.177,0,0,0,.506-1.466,6.147,6.147,0,0,0,.126-1.7,4.546,4.546,0,0,0-.186-1,3.958,3.958,0,0,0-.191-.512.911.911,0,0,0-.439-.473.551.551,0,0,0-.686.182,1.152,1.152,0,0,0-.161.582,7.061,7.061,0,0,0,0,1.007,7.243,7.243,0,0,0,.312,1.668A3.667,3.667,0,0,0,332.656,453.343Z" transform="translate(-331.65 -448.455)" fill="#263238"/></g><g transform="translate(17.144 3.873)"><path d="M333.185,455.355c.025.05.483-.182,1.27-.374a6.906,6.906,0,0,1,1.4-.191,3.125,3.125,0,0,1,.8.05.533.533,0,0,1,.467.456.7.7,0,0,1-.33.621,1.634,1.634,0,0,1-.726.243,3.669,3.669,0,0,1-1.373-.138,9.042,9.042,0,0,0-1.274-.376,3.613,3.613,0,0,0,1.2.609,3.568,3.568,0,0,0,1.479.221,1.887,1.887,0,0,0,.883-.279,1.031,1.031,0,0,0,.485-.928.871.871,0,0,0-.73-.758,3.218,3.218,0,0,0-.9-.04,5.959,5.959,0,0,0-1.45.274A2.9,2.9,0,0,0,333.185,455.355Z" transform="translate(-333.184 -454.46)" fill="#263238"/></g><g transform="translate(2.784 11.707)"><path d="M312.474,471.718c.022.03.328-.2.478-.758a2.883,2.883,0,0,0-.366-2.12,7.771,7.771,0,0,0-.655-.976,3.575,3.575,0,0,0-.664-.712,1.152,1.152,0,0,0-.624-.262c-.164-.007-.247.033-.245.053a1.841,1.841,0,0,1,.711.4,4.427,4.427,0,0,1,.563.712,11.089,11.089,0,0,1,.609.954,3.018,3.018,0,0,1,.429,1.905C312.641,471.417,312.428,471.684,312.474,471.718Z" transform="translate(-310.399 -466.891)" fill="#263238"/></g><g transform="translate(9.464 8.39)"><path d="M323.407,464.531A2.961,2.961,0,0,0,321,461.646a5.564,5.564,0,0,1,2.408,2.884Z" transform="translate(-320.998 -461.627)" fill="#263238"/></g><g transform="translate(1.21 7.825)"><path d="M332.582,460.731a6.82,6.82,0,0,0-.859.589,24.5,24.5,0,0,1-2.409,1.476,31.76,31.76,0,0,1-3.827,1.7c-1.48.551-3.139,1.072-4.894,1.581-3.516,1.012-6.7,1.937-8.994,2.628l-2.715.834a5.932,5.932,0,0,0-.983.351,6.1,6.1,0,0,0,1.02-.222l2.745-.728c2.314-.631,5.5-1.518,9.023-2.532,1.758-.51,3.425-1.042,4.91-1.615a28.785,28.785,0,0,0,3.832-1.787,19.246,19.246,0,0,0,2.371-1.583A5.393,5.393,0,0,0,332.582,460.731Z" transform="translate(-307.902 -460.73)" fill="#263238"/></g><g transform="translate(17.631 7.538)"><path d="M342.94,460.826a5.465,5.465,0,0,0-1.656-.441,6.832,6.832,0,0,0-4.106.5,4.911,4.911,0,0,0-1.758,1.509,8.235,8.235,0,0,0-.916,1.635,6.384,6.384,0,0,0-.543,1.623,12.19,12.19,0,0,0,.764-1.52,6.188,6.188,0,0,1,2.607-2.94,7.192,7.192,0,0,1,3.92-.568C342.289,460.737,342.928,460.88,342.94,460.826Z" transform="translate(-333.956 -460.276)" fill="#263238"/></g></g><g transform="translate(39.271 95.981)"><path d="M370.552,396.935a9.358,9.358,0,0,1,5.887,8.666c.047,12.59-25.438,26.468-25.438,26.468L317.085,409.6l-2.126-.86S360.741,391.54,370.552,396.935Z" transform="translate(-314.959 -395.887)" fill="#12263f"/><g transform="translate(19.305 7.407)"><path d="M345.59,425.293a6.183,6.183,0,0,0,.884-.6c.556-.4,1.349-1,2.319-1.751,1.942-1.5,4.584-3.628,7.426-6.067s5.345-4.731,7.122-6.424c.889-.846,1.6-1.539,2.082-2.028a6.327,6.327,0,0,0,.726-.783,6.354,6.354,0,0,0-.819.685l-2.155,1.946c-1.818,1.645-4.343,3.9-7.18,6.341s-5.452,4.589-7.353,6.138l-2.25,1.837A6.361,6.361,0,0,0,345.59,425.293Z" transform="translate(-345.589 -407.64)" fill="#455a64"/></g><g transform="translate(39.843 5.669)"><path d="M384.352,404.967a8.41,8.41,0,0,0-6.174,1.822c.057.09,1.293-.7,3-1.194C382.887,405.083,384.354,405.073,384.352,404.967Z" transform="translate(-378.176 -404.882)" fill="#455a64"/></g><g transform="translate(40.015 3.761)"><path d="M381.531,401.864a5.155,5.155,0,0,0-3.066,3.8c.1.035.47-1.022,1.324-2.067S381.586,401.953,381.531,401.864Z" transform="translate(-378.449 -401.855)" fill="#455a64"/></g><g transform="translate(55.563 43.599)"><path d="M405.014,465.1c.018-.039-.4-.121-.874.265a3.172,3.172,0,0,0-.98,1.969,3.865,3.865,0,0,0,.309,2.17c.239.516.5.758.533.733.047-.032-.139-.318-.307-.824a4.4,4.4,0,0,1-.194-2.031,3.4,3.4,0,0,1,.8-1.836C404.663,465.169,405.021,465.155,405.014,465.1Z" transform="translate(-403.119 -465.064)" fill="#263238"/></g></g><g transform="translate(26.033 76.077)"><g transform="translate(0.086 0.075)"><path d="M360.411,367.42l-9.649,25.992a3.745,3.745,0,0,1-3.561,2.442l-53.111-.7v-4.036l19.708.72,8.367-25.944a2.118,2.118,0,0,1,2.022-1.468l34.26.1A2.117,2.117,0,0,1,360.411,367.42Z" transform="translate(-294.091 -364.426)" fill="#e0e0e0"/></g><path d="M360.361,367.376s.006-.028.023-.082a2.135,2.135,0,0,0,.045-1.218,2.12,2.12,0,0,0-.933-1.256,2.069,2.069,0,0,0-.964-.3c-.366-.017-.763,0-1.179-.009l-14.294-.016-10.014-.019-5.626-.012-2.956-.006a2.325,2.325,0,0,0-1.414.311,2.064,2.064,0,0,0-.879,1.156l-8.341,25.9-.02.06-.063,0-19.708-.717.089-.085v4.035l-.084-.086,33.4.447,14.518.2,3.346.047,1.627.023a3.889,3.889,0,0,0,1.544-.226,3.675,3.675,0,0,0,2.128-2.049q.53-1.417,1.037-2.77c2.692-7.22,4.866-13.049,6.37-17.082l1.735-4.63c.4-1.057.615-1.608.615-1.608s-.2.56-.584,1.62l-1.705,4.641-6.32,17.1-1.033,2.776a3.8,3.8,0,0,1-2.2,2.123,4.016,4.016,0,0,1-1.591.236l-1.627-.02-3.346-.042-14.519-.183-33.4-.432h-.084v-4.209l.089,0,19.708.722-.083.058c3.011-9.325,5.829-18.05,8.363-25.893a2.209,2.209,0,0,1,.941-1.233,2.472,2.472,0,0,1,1.489-.33l2.956.011,5.627.021,10.014.039,14.293.066c.418.006.81,0,1.182.015a2.114,2.114,0,0,1,.984.318,2.147,2.147,0,0,1,.938,1.286,2.061,2.061,0,0,1,.007.986A2.179,2.179,0,0,1,360.361,367.376Z" transform="translate(-293.955 -364.307)" fill="#263238"/><g transform="translate(41.866 12.633)"><path d="M361.371,384.615a2.389,2.389,0,0,1,2.582.276,2.088,2.088,0,0,1,.505,2.287,2.262,2.262,0,0,1-1.94,1.354,2.039,2.039,0,0,1-2.05-1.354,2.29,2.29,0,0,1,.9-2.564" transform="translate(-360.382 -384.35)" fill="#fff"/></g></g><g transform="translate(6.271 98.608)"><g transform="translate(0.219 0.104)"><path d="M337.487,435.088s-47.865-30.659-49.977-31.862c-1.8-1.024-6.606-3.985-11.348-2.676s-8.993,5.559-11.118,11.772c-1.214,3.55-1.789,9.606-2.058,14.148a20.992,20.992,0,0,0,4.912,14.966,13.389,13.389,0,0,0,5.975,4.242c.5.156,1.017.29,1.549.405a22.538,22.538,0,0,0,23.461-9.851l1.118-1.7s31.346,11.516,31.837,11.353Z" transform="translate(-262.947 -400.222)" fill="#12263f"/></g><path d="M289.852,404.862a.514.514,0,0,1-.12-.071l-.335-.229c-.293-.2-.724-.5-1.293-.867a25.234,25.234,0,0,0-5.083-2.583,13.663,13.663,0,0,0-3.829-.807,11.006,11.006,0,0,0-4.4.718,14.215,14.215,0,0,0-4.231,2.567,19.4,19.4,0,0,0-1.879,1.845,13.746,13.746,0,0,0-1.555,2.212,22.678,22.678,0,0,0-2.065,4.931c-.451,1.67-.812,3.32-1.156,4.878a44.566,44.566,0,0,0-1.1,8.4,30.357,30.357,0,0,0,.436,5.692c.1.668.224,1.179.295,1.528.032.161.057.292.079.4a.536.536,0,0,1,.017.138.479.479,0,0,1-.045-.131l-.106-.391c-.09-.345-.227-.854-.349-1.521a28.5,28.5,0,0,1-.528-5.716,43.431,43.431,0,0,1,1.046-8.449c.339-1.569.691-3.205,1.145-4.9a22.735,22.735,0,0,1,2.086-5,13.949,13.949,0,0,1,1.588-2.256,19.433,19.433,0,0,1,1.911-1.871,14.4,14.4,0,0,1,4.32-2.6,11.2,11.2,0,0,1,4.508-.708,13.693,13.693,0,0,1,3.885.854,23.981,23.981,0,0,1,5.076,2.68c.562.381.984.7,1.266.913l.318.251C289.82,404.826,289.855,404.859,289.852,404.862Z" transform="translate(-262.599 -400.056)" fill="#455a64"/><g transform="translate(15.477 2.207)"><path d="M287.156,427.67s.087.044.263.116l.784.311,3.039,1.17,11.29,4.253c4.8,1.789,10.54,3.916,16.985,6.262s13.589,4.915,21.217,7.5l.139.047.068-.13c1.2-2.287,2.462-4.7,3.744-7.15l1.908-3.645.073-.141-.132-.084-36.552-23.2L299,406.048l-2.982-1.861-.778-.476c-.176-.106-.271-.153-.271-.153s.083.066.253.181l.761.5,2.948,1.914,10.922,7.016,36.492,23.292-.059-.224-1.909,3.645-3.741,7.151.206-.083c-7.624-2.576-14.771-5.135-21.222-7.46L302.61,433.3l-11.326-4.155-3.059-1.113-.8-.281C287.251,427.693,287.156,427.67,287.156,427.67Z" transform="translate(-287.156 -403.558)" fill="#455a64"/></g></g><g transform="translate(19.586)"><g transform="translate(2.196)"><path d="M289.653,266.814a24.711,24.711,0,0,1-2.126-5.089,8.292,8.292,0,0,1,.284-5.415c.446-.981,1.146-1.841,1.5-2.86.481-1.4.285-3.056,1.153-4.258,1.357-1.878,4.261-1.44,6.359-2.424,1.634-.766,2.776-2.418,4.494-2.97a6.7,6.7,0,0,1,4.588.6,17.292,17.292,0,0,0,4.426,1.616,30.955,30.955,0,0,0,3.369.009A4.441,4.441,0,0,1,316.8,247.1a2.134,2.134,0,0,1,.1,3c1.966-.333,3.818,1.629,3.792,3.623a5.423,5.423,0,0,1-3.341,4.578,11.874,11.874,0,0,1-5.871.729c-5.628-.438-11.283-2.578-15.115-6.724" transform="translate(-287.209 -243.599)" fill="#263238"/></g><g transform="translate(0 3.085)"><g transform="translate(1.94 0.977)"><path d="M290.716,262.155l-3.834,27.867a8.368,8.368,0,0,0,7.559,9.476h0a8.372,8.372,0,0,0,9.021-7.208c.286-2.1.529-3.847.574-4.061,0,0,7.186.309,8.664-6.642.714-3.359,1.622-10.4,2.37-16.774A13.236,13.236,0,0,0,304.512,250.3l-.672-.134C296.506,249.14,291.538,254.8,290.716,262.155Z" transform="translate(-286.802 -250.044)" fill="#ffbe9d"/><g transform="translate(8.697 33.69)"><path d="M309.169,307.9a16.525,16.525,0,0,1-8.568-4.4s1.145,5.444,8.224,6.206Z" transform="translate(-300.601 -303.499)" fill="#eb996e"/></g><g transform="translate(11.599 10.543)"><g transform="translate(0 3.955)"><g transform="translate(10.566 1.903)"><g transform="translate(0.96 3.179)"><path d="M325.511,282.223a1.014,1.014,0,0,1-1.16.812.971.971,0,0,1-.846-1.1,1.015,1.015,0,0,1,1.159-.813A.971.971,0,0,1,325.511,282.223Z" transform="translate(-323.493 -281.109)" fill="#263238"/></g><path d="M325.893,277.555c-.149.105-.792-.6-1.863-.814-1.067-.226-1.963.167-2.053.013-.045-.07.127-.279.519-.459a2.783,2.783,0,0,1,1.676-.171,2.676,2.676,0,0,1,1.45.811C325.9,277.252,325.965,277.509,325.893,277.555Z" transform="translate(-321.97 -276.066)" fill="#263238"/></g><g transform="translate(1.538 3.357)"><path d="M309.666,279.488a1.015,1.015,0,0,1-1.16.812.971.971,0,0,1-.846-1.1,1.016,1.016,0,0,1,1.16-.813A.972.972,0,0,1,309.666,279.488Z" transform="translate(-307.647 -278.374)" fill="#263238"/></g><path d="M309.129,274.536c-.15.105-.793-.6-1.864-.814-1.067-.226-1.963.168-2.053.013-.045-.069.125-.279.519-.459a2.789,2.789,0,0,1,1.676-.171,2.676,2.676,0,0,1,1.45.811C309.136,274.232,309.2,274.49,309.129,274.536Z" transform="translate(-305.206 -273.047)" fill="#263238"/><g transform="translate(6.223 1.187)"><path d="M315.079,283.949a7.229,7.229,0,0,1,1.8.033c.279.026.548.024.632-.153a1.417,1.417,0,0,0-.021-.847q-.187-1.069-.393-2.244a36.5,36.5,0,0,1-.728-5.809,36.5,36.5,0,0,1,1.194,5.737c.124.785.244,1.533.356,2.249a1.615,1.615,0,0,1-.072,1.1.7.7,0,0,1-.529.31,1.9,1.9,0,0,1-.477-.028A7.112,7.112,0,0,1,315.079,283.949Z" transform="translate(-315.079 -274.93)" fill="#263238"/></g><g transform="translate(2.593 10.316)"><path d="M309.65,289.416c.176.025-.054,1.187.776,2.211s2.092,1.143,2.069,1.308c0,.076-.321.171-.847.08a2.948,2.948,0,0,1-1.74-1.025,2.57,2.57,0,0,1-.577-1.839C309.385,289.656,309.572,289.394,309.65,289.416Z" transform="translate(-309.32 -289.415)" fill="#263238"/></g></g><g transform="translate(0.054)"><path d="M310.276,268.074c-.164.27-1.206-.081-2.492-.181-1.284-.125-2.371.04-2.486-.255-.049-.14.182-.378.648-.578a4.345,4.345,0,0,1,3.792.332C310.163,267.67,310.349,267.946,310.276,268.074Z" transform="translate(-305.292 -266.772)" fill="#263238"/></g><g transform="translate(11.103 2.634)"><path d="M326.434,272.486c-.237.205-.924-.194-1.809-.383-.878-.22-1.671-.164-1.793-.453-.051-.138.116-.359.49-.523a2.678,2.678,0,0,1,2.9.674C326.488,272.113,326.54,272.384,326.434,272.486Z" transform="translate(-322.823 -270.951)" fill="#263238"/></g></g></g><g transform="translate(0 17.746)"><path d="M289.116,277.266c-.108-.075-4.5-2.373-5.3,2.421s4.179,4.608,4.209,4.472S289.116,277.266,289.116,277.266Z" transform="translate(-283.725 -276.65)" fill="#ffbe9d"/><g transform="translate(1.254 1.494)"><path d="M287.6,282.975c-.018-.019-.093.045-.245.086a.847.847,0,0,1-.626-.091,2.1,2.1,0,0,1-.647-2.014,2.8,2.8,0,0,1,.433-1.157.977.977,0,0,1,.736-.536.43.43,0,0,1,.454.311c.042.145,0,.235.02.248s.117-.063.111-.268a.544.544,0,0,0-.139-.332.641.641,0,0,0-.442-.2,1.191,1.191,0,0,0-1,.6,2.88,2.88,0,0,0-.512,1.288,2.2,2.2,0,0,0,.874,2.273.906.906,0,0,0,.785,0C287.568,283.09,287.61,282.986,287.6,282.975Z" transform="translate(-285.714 -279.02)" fill="#eb996e"/></g></g><g transform="translate(4.837)"><path d="M318.15,257.768c-.823,1.772-5.053,2.456-8.154,1.52-2.858-.863-3.895-2.677-5.714-4.259-1.151-1-1.151-1-3.028-1.195-1.518-.156-2.736,1.355-3.884,2.36.638,3.81-1.056,7.582-2.707,11.075a1.934,1.934,0,0,1-.774.988c-.65.321-1.426-.187-1.814-.8a6,6,0,0,1-.672-3.364,19.986,19.986,0,0,1,1.589-7.718,13.607,13.607,0,0,1,5.012-6,12.888,12.888,0,0,1,9.535-1.579,15.825,15.825,0,0,1,8.358,5.017,9.273,9.273,0,0,1,2.253,3.954" transform="translate(-291.399 -248.494)" fill="#263238"/></g></g><g transform="translate(4.02 17.16)"><g transform="translate(17.789 1.985)"><path d="M318.354,278.778c.041,0,.026-.413.218-1.114a4.624,4.624,0,0,1,1.7-2.464,4.509,4.509,0,0,1,4.243-.611,4.415,4.415,0,0,1,2.063,1.559,4.442,4.442,0,0,1,0,5.259,4.424,4.424,0,0,1-2.064,1.56,4.511,4.511,0,0,1-4.243-.611,4.625,4.625,0,0,1-1.7-2.464c-.192-.7-.177-1.116-.218-1.114a.856.856,0,0,0-.025.3,3.6,3.6,0,0,0,.1.853,4.615,4.615,0,0,0,1.676,2.645,4.778,4.778,0,0,0,6.779-.942,4.788,4.788,0,0,0,0-5.709,4.776,4.776,0,0,0-6.778-.942,4.613,4.613,0,0,0-1.677,2.645,3.607,3.607,0,0,0-.1.853A.853.853,0,0,0,318.354,278.778Z" transform="translate(-318.328 -273.976)" fill="#263238"/></g><g transform="translate(6.417)"><path d="M300.311,275.628c.041,0,.026-.413.218-1.114a4.631,4.631,0,0,1,1.7-2.464,4.512,4.512,0,0,1,4.243-.611,4.423,4.423,0,0,1,2.063,1.56,4.439,4.439,0,0,1,0,5.258,4.412,4.412,0,0,1-2.063,1.56,4.51,4.51,0,0,1-4.243-.611,4.629,4.629,0,0,1-1.7-2.464c-.192-.7-.177-1.116-.218-1.114a.866.866,0,0,0-.024.3,3.566,3.566,0,0,0,.1.853,4.62,4.62,0,0,0,1.677,2.645,4.777,4.777,0,0,0,6.779-.942,4.787,4.787,0,0,0,0-5.708,4.777,4.777,0,0,0-6.778-.942,4.62,4.62,0,0,0-1.677,2.645,3.56,3.56,0,0,0-.1.853A.869.869,0,0,0,300.311,275.628Z" transform="translate(-300.286 -270.825)" fill="#263238"/></g><g transform="translate(15.807 4.549)"><path d="M315.188,278.458c.048.1.658-.188,1.367.028s1.062.784,1.156.73c.045-.021.023-.2-.138-.444a1.7,1.7,0,0,0-2.024-.609C315.281,278.276,315.162,278.416,315.188,278.458Z" transform="translate(-315.185 -278.043)" fill="#263238"/></g><g transform="translate(0 3.327)"><path d="M290.1,276.352a30.177,30.177,0,0,0,6.823-.1,30.077,30.077,0,0,0-6.823.1Z" transform="translate(-290.104 -276.104)" fill="#263238"/></g></g></g></g></g></svg>