<svg xmlns="http://www.w3.org/2000/svg" width="321.738" height="312.717" viewBox="0 0 321.738 312.717"><g transform="translate(-28.908 -49.293)"><g transform="translate(46.588 49.293)"><g transform="translate(226.14)"><g transform="translate(2.137 2.597)"><g transform="translate(61.446 63.832)"><path d="M440.711,138.51c0-.125.585-.227,1.306-.227s1.307.1,1.307.227-.585.227-1.307.227S440.711,138.635,440.711,138.51Z" transform="translate(-440.711 -138.283)" fill="#e0e0e0"/></g><g transform="translate(56.219 63.832)"><path d="M433.709,138.51c0-.125.585-.227,1.306-.227s1.307.1,1.307.227-.585.227-1.307.227S433.709,138.635,433.709,138.51Z" transform="translate(-433.709 -138.283)" fill="#e0e0e0"/></g><g transform="translate(50.992 63.832)"><path d="M426.707,138.51c0-.125.585-.227,1.306-.227s1.307.1,1.307.227-.585.227-1.307.227S426.707,138.635,426.707,138.51Z" transform="translate(-426.707 -138.283)" fill="#e0e0e0"/></g><g transform="translate(45.765 63.832)"><path d="M419.7,138.51c0-.125.585-.227,1.307-.227s1.306.1,1.306.227-.585.227-1.306.227S419.7,138.635,419.7,138.51Z" transform="translate(-419.705 -138.283)" fill="#e0e0e0"/></g><g transform="translate(40.538 63.832)"><path d="M412.7,138.51c0-.125.585-.227,1.307-.227s1.306.1,1.306.227-.585.227-1.306.227S412.7,138.635,412.7,138.51Z" transform="translate(-412.703 -138.283)" fill="#e0e0e0"/></g><g transform="translate(35.311 63.832)"><path d="M405.7,138.51c0-.125.585-.227,1.307-.227s1.306.1,1.306.227-.584.227-1.306.227S405.7,138.635,405.7,138.51Z" transform="translate(-405.701 -138.283)" fill="#e0e0e0"/></g><g transform="translate(30.085 63.832)"><path d="M398.7,138.51c0-.125.584-.227,1.306-.227s1.307.1,1.307.227-.585.227-1.307.227S398.7,138.635,398.7,138.51Z" transform="translate(-398.7 -138.283)" fill="#e0e0e0"/></g><g transform="translate(24.859 63.832)"><path d="M391.7,138.51c0-.125.584-.227,1.306-.227s1.307.1,1.307.227-.585.227-1.307.227S391.7,138.635,391.7,138.51Z" transform="translate(-391.698 -138.283)" fill="#e0e0e0"/></g><g transform="translate(19.632 63.832)"><path d="M384.7,138.51c0-.125.585-.227,1.306-.227s1.307.1,1.307.227-.585.227-1.307.227S384.7,138.635,384.7,138.51Z" transform="translate(-384.696 -138.283)" fill="#e0e0e0"/></g><g transform="translate(14.405 63.832)"><path d="M377.694,138.51c0-.125.585-.227,1.306-.227s1.307.1,1.307.227-.585.227-1.307.227S377.694,138.635,377.694,138.51Z" transform="translate(-377.694 -138.283)" fill="#e0e0e0"/></g><g transform="translate(9.178 63.832)"><path d="M370.692,138.51c0-.125.585-.227,1.306-.227s1.307.1,1.307.227-.585.227-1.307.227S370.692,138.635,370.692,138.51Z" transform="translate(-370.692 -138.283)" fill="#e0e0e0"/></g><g transform="translate(3.951 63.832)"><path d="M363.69,138.51c0-.125.585-.227,1.307-.227s1.306.1,1.306.227-.585.227-1.306.227S363.69,138.635,363.69,138.51Z" transform="translate(-363.69 -138.283)" fill="#e0e0e0"/></g><g transform="translate(0 62.557)"><path d="M358.624,136.574c.125,0,.227.585.227,1.307l0,.2-.224-.225c.63.017,1.111.111,1.111.225s-.481.208-1.111.224l-.221.006,0-.23c0-.069,0-.131,0-.2C358.4,137.159,358.5,136.574,358.624,136.574Z" transform="translate(-358.397 -136.574)" fill="#e0e0e0"/></g><g transform="translate(0 57.33)"><path d="M358.624,129.572c.125,0,.227.585.227,1.307s-.1,1.306-.227,1.306-.227-.584-.227-1.306S358.5,129.572,358.624,129.572Z" transform="translate(-358.397 -129.572)" fill="#e0e0e0"/></g><g transform="translate(0 52.104)"><path d="M358.624,122.571c.125,0,.227.584.227,1.306s-.1,1.306-.227,1.306-.227-.584-.227-1.306S358.5,122.571,358.624,122.571Z" transform="translate(-358.397 -122.571)" fill="#e0e0e0"/></g><g transform="translate(0 46.877)"><path d="M358.624,115.569c.125,0,.227.584.227,1.306s-.1,1.307-.227,1.307-.227-.585-.227-1.307S358.5,115.569,358.624,115.569Z" transform="translate(-358.397 -115.569)" fill="#e0e0e0"/></g><g transform="translate(0 41.65)"><path d="M358.624,108.567c.125,0,.227.585.227,1.306s-.1,1.307-.227,1.307-.227-.585-.227-1.307S358.5,108.567,358.624,108.567Z" transform="translate(-358.397 -108.567)" fill="#e0e0e0"/></g><g transform="translate(0 36.423)"><path d="M358.624,101.565c.125,0,.227.585.227,1.306s-.1,1.307-.227,1.307-.227-.585-.227-1.307S358.5,101.565,358.624,101.565Z" transform="translate(-358.397 -101.565)" fill="#e0e0e0"/></g><g transform="translate(0 31.196)"><path d="M358.624,94.563c.125,0,.227.585.227,1.306s-.1,1.307-.227,1.307-.227-.585-.227-1.307S358.5,94.563,358.624,94.563Z" transform="translate(-358.397 -94.563)" fill="#e0e0e0"/></g><g transform="translate(0 25.969)"><path d="M358.624,87.561c.125,0,.227.585.227,1.307s-.1,1.306-.227,1.306-.227-.585-.227-1.306S358.5,87.561,358.624,87.561Z" transform="translate(-358.397 -87.561)" fill="#e0e0e0"/></g><g transform="translate(0 20.742)"><path d="M358.624,80.559c.125,0,.227.585.227,1.307s-.1,1.306-.227,1.306-.227-.585-.227-1.306S358.5,80.559,358.624,80.559Z" transform="translate(-358.397 -80.559)" fill="#e0e0e0"/></g><g transform="translate(0 15.516)"><path d="M358.624,73.557c.125,0,.227.585.227,1.307s-.1,1.306-.227,1.306-.227-.585-.227-1.306S358.5,73.557,358.624,73.557Z" transform="translate(-358.397 -73.557)" fill="#e0e0e0"/></g><g transform="translate(0 10.289)"><path d="M358.624,66.556c.125,0,.227.584.227,1.306s-.1,1.307-.227,1.307-.227-.585-.227-1.307S358.5,66.556,358.624,66.556Z" transform="translate(-358.397 -66.556)" fill="#e0e0e0"/></g><g transform="translate(0 5.063)"><path d="M358.624,59.554c.125,0,.227.584.227,1.306s-.1,1.307-.227,1.307-.227-.585-.227-1.307S358.5,59.554,358.624,59.554Z" transform="translate(-358.397 -59.554)" fill="#e0e0e0"/></g><g transform="translate(0 0.043)"><path d="M359.015,53.014c0,.063-.149.121-.391.162l.162-.162a5.7,5.7,0,0,1,.065.915c0,.722-.1,1.307-.227,1.307s-.227-.585-.227-1.307a5.7,5.7,0,0,1,.065-.915l.031-.184.131.022C358.866,52.893,359.015,52.95,359.015,53.014Z" transform="translate(-358.397 -52.83)" fill="#e0e0e0"/></g><g transform="translate(3.232)"><path d="M365.339,53c0,.125-.585.227-1.306.227s-1.307-.1-1.307-.227.585-.227,1.307-.227S365.339,52.874,365.339,53Z" transform="translate(-362.726 -52.772)" fill="#e0e0e0"/></g><g transform="translate(8.458)"><path d="M372.341,53c0,.125-.585.227-1.306.227s-1.307-.1-1.307-.227.585-.227,1.307-.227S372.341,52.874,372.341,53Z" transform="translate(-369.728 -52.772)" fill="#e0e0e0"/></g><g transform="translate(13.685)"><path d="M379.343,53c0,.125-.585.227-1.306.227s-1.307-.1-1.307-.227.585-.227,1.307-.227S379.343,52.874,379.343,53Z" transform="translate(-376.73 -52.772)" fill="#e0e0e0"/></g><g transform="translate(18.912)"><path d="M386.345,53c0,.125-.585.227-1.307.227s-1.306-.1-1.306-.227.585-.227,1.306-.227S386.345,52.874,386.345,53Z" transform="translate(-383.732 -52.772)" fill="#e0e0e0"/></g><g transform="translate(24.139)"><path d="M393.347,53c0,.125-.585.227-1.307.227s-1.306-.1-1.306-.227.584-.227,1.306-.227S393.347,52.874,393.347,53Z" transform="translate(-390.734 -52.772)" fill="#e0e0e0"/></g><g transform="translate(29.366)"><path d="M400.349,53c0,.125-.585.227-1.306.227s-1.306-.1-1.306-.227.585-.227,1.306-.227S400.349,52.874,400.349,53Z" transform="translate(-397.736 -52.772)" fill="#e0e0e0"/></g><g transform="translate(34.592)"><path d="M407.35,53c0,.125-.585.227-1.306.227s-1.307-.1-1.307-.227.585-.227,1.307-.227S407.35,52.874,407.35,53Z" transform="translate(-404.737 -52.772)" fill="#e0e0e0"/></g><g transform="translate(39.819)"><path d="M414.352,53c0,.125-.585.227-1.306.227s-1.307-.1-1.307-.227.585-.227,1.307-.227S414.352,52.874,414.352,53Z" transform="translate(-411.739 -52.772)" fill="#e0e0e0"/></g><g transform="translate(45.046)"><path d="M421.354,53c0,.125-.585.227-1.306.227s-1.307-.1-1.307-.227.585-.227,1.307-.227S421.354,52.874,421.354,53Z" transform="translate(-418.741 -52.772)" fill="#e0e0e0"/></g><g transform="translate(50.272)"><path d="M428.356,53c0,.125-.585.227-1.306.227s-1.307-.1-1.307-.227.585-.227,1.307-.227S428.356,52.874,428.356,53Z" transform="translate(-425.743 -52.772)" fill="#e0e0e0"/></g><g transform="translate(55.499)"><path d="M435.358,53c0,.125-.585.227-1.307.227s-1.306-.1-1.306-.227.585-.227,1.306-.227S435.358,52.874,435.358,53Z" transform="translate(-432.745 -52.772)" fill="#e0e0e0"/></g><g transform="translate(60.726)"><path d="M442.36,53c0,.125-.585.227-1.307.227s-1.306-.1-1.306-.227.584-.227,1.306-.227S442.36,52.874,442.36,53Z" transform="translate(-439.747 -52.772)" fill="#e0e0e0"/></g><g transform="translate(63.832 2.121)"><path d="M444.135,58.226c-.125,0-.227-.585-.227-1.306s.1-1.307.227-1.307.227.585.227,1.307S444.26,58.226,444.135,58.226Z" transform="translate(-443.908 -55.613)" fill="#e0e0e0"/></g><g transform="translate(63.832 7.348)"><path d="M444.135,65.228c-.125,0-.227-.585-.227-1.306s.1-1.307.227-1.307.227.585.227,1.307S444.26,65.228,444.135,65.228Z" transform="translate(-443.908 -62.615)" fill="#e0e0e0"/></g><g transform="translate(63.832 12.574)"><path d="M444.135,72.23c-.125,0-.227-.585-.227-1.306s.1-1.307.227-1.307.227.585.227,1.307S444.26,72.23,444.135,72.23Z" transform="translate(-443.908 -69.617)" fill="#e0e0e0"/></g><g transform="translate(63.832 17.801)"><path d="M444.135,79.232c-.125,0-.227-.585-.227-1.307s.1-1.306.227-1.306.227.584.227,1.306S444.26,79.232,444.135,79.232Z" transform="translate(-443.908 -76.619)" fill="#e0e0e0"/></g><g transform="translate(63.832 23.028)"><path d="M444.135,86.234c-.125,0-.227-.585-.227-1.307s.1-1.306.227-1.306.227.584.227,1.306S444.26,86.234,444.135,86.234Z" transform="translate(-443.908 -83.621)" fill="#e0e0e0"/></g><g transform="translate(63.832 28.255)"><path d="M444.135,93.236c-.125,0-.227-.585-.227-1.306s.1-1.306.227-1.306.227.584.227,1.306S444.26,93.236,444.135,93.236Z" transform="translate(-443.908 -90.623)" fill="#e0e0e0"/></g><g transform="translate(63.832 33.481)"><path d="M444.135,100.237c-.125,0-.227-.584-.227-1.306s.1-1.307.227-1.307.227.585.227,1.307S444.26,100.237,444.135,100.237Z" transform="translate(-443.908 -97.624)" fill="#e0e0e0"/></g><g transform="translate(63.832 38.708)"><path d="M444.135,107.239c-.125,0-.227-.585-.227-1.306s.1-1.307.227-1.307.227.585.227,1.307S444.26,107.239,444.135,107.239Z" transform="translate(-443.908 -104.626)" fill="#e0e0e0"/></g><g transform="translate(63.832 43.935)"><path d="M444.135,114.241c-.125,0-.227-.585-.227-1.306s.1-1.307.227-1.307.227.585.227,1.307S444.26,114.241,444.135,114.241Z" transform="translate(-443.908 -111.628)" fill="#e0e0e0"/></g><g transform="translate(63.832 49.162)"><path d="M444.135,121.243c-.125,0-.227-.585-.227-1.306s.1-1.307.227-1.307.227.585.227,1.307S444.26,121.243,444.135,121.243Z" transform="translate(-443.908 -118.63)" fill="#e0e0e0"/></g><g transform="translate(63.832 54.389)"><path d="M444.135,128.245c-.125,0-.227-.585-.227-1.307s.1-1.306.227-1.306.227.584.227,1.306S444.26,128.245,444.135,128.245Z" transform="translate(-443.908 -125.632)" fill="#e0e0e0"/></g><g transform="translate(63.832 59.615)"><path d="M444.135,135.247c-.125,0-.227-.585-.227-1.307s.1-1.306.227-1.306.227.584.227,1.306S444.26,135.247,444.135,135.247Z" transform="translate(-443.908 -132.634)" fill="#e0e0e0"/></g></g><g transform="translate(63.832 63.645)"><rect width="4.727" height="4.728" fill="#e0e0e0"/></g><g transform="translate(0 64.292)"><rect width="4.728" height="4.728" transform="translate(0 0)" fill="#e0e0e0"/></g><g transform="translate(63.832)"><rect width="4.727" height="4.728" fill="#e0e0e0"/></g><g transform="translate(0 0.46)"><rect width="4.728" height="4.727" fill="#e0e0e0"/></g></g><g transform="translate(0 25.881)"><path d="M96.282,142.2c8.256-7.236,9.006-19.061,7.5-29.449-.251-1.734-.262-3.59-1.259-5.026s-3.043-2.266-4.521-1.361c-1.226.751-1.623,2.317-2.21,3.64a10.243,10.243,0,0,1-3.652,4.35,3.9,3.9,0,0,1-3.538.717c-1.593-.663-2-2.717-2.179-4.45q-.5-4.844-1.007-9.686a16.235,16.235,0,0,0-1.089-5.084,5.4,5.4,0,0,0-3.776-3.258,3.278,3.278,0,0,0-3.791,2.628,16.162,16.162,0,0,0,.189,2.161,1.831,1.831,0,0,1-.876,1.831,2.1,2.1,0,0,1-1.989-.584,23.158,23.158,0,0,1-4.821-5.783A32.1,32.1,0,0,0,64.7,86.832a9.416,9.416,0,0,0-6.735-2.858,5.639,5.639,0,0,0-5.326,4.457c-.359,2.51,1.338,4.829,3.105,6.634a38.859,38.859,0,0,0,8.891,6.782,3.2,3.2,0,0,1,1.506,1.3c.5,1.112-.464,2.379-1.562,2.884a20.1,20.1,0,0,1-3.99.9,3.915,3.915,0,0,0-3.1,2.4c-.514,1.848,1.17,3.539,2.76,4.593a33.3,33.3,0,0,0,10.42,4.574,11.229,11.229,0,0,1,3.836,1.368,3.223,3.223,0,0,1,1.431,3.556,3.282,3.282,0,0,1-3.4,1.755,23.2,23.2,0,0,1-3.959-1.032c-2.478-.635-5.532-.132-6.83,2.092a5.511,5.511,0,0,0-.049,4.909,12.712,12.712,0,0,0,3.1,3.989,33.483,33.483,0,0,0,15.315,8.42c5.73,1.306,10.9,1.259,16.164-1.351" transform="translate(-52.593 -83.964)" fill="#e0e0e0"/><g transform="translate(2.288 1.816)"><path d="M98.049,150.532a76.548,76.548,0,0,0-4.4-13.955,156.109,156.109,0,0,0-8-16.022l-2.313-4.091c-.762-1.341-1.518-2.672-2.337-3.927a78,78,0,0,0-5.122-6.944c-1.736-2.13-3.461-4.088-5.088-5.906s-3.183-3.48-4.663-4.936A61.846,61.846,0,0,0,58.639,88.4c-.938-.677-1.684-1.179-2.195-1.512l-.582-.375a1.362,1.362,0,0,0-.2-.118,1.241,1.241,0,0,0,.186.146l.564.4c.5.35,1.232.868,2.159,1.56a65.4,65.4,0,0,1,7.4,6.408c1.465,1.462,3,3.131,4.624,4.953s3.332,3.786,5.058,5.916a78.824,78.824,0,0,1,5.087,6.927c.814,1.25,1.561,2.569,2.325,3.914l2.31,4.091a159.809,159.809,0,0,1,8.007,15.978,77.812,77.812,0,0,1,4.452,13.887" transform="translate(-55.658 -86.398)" fill="#fafafa"/></g><g transform="translate(27.426 8.628)"><path d="M89.442,114.848a3.465,3.465,0,0,0,.088-.757c.038-.489.07-1.2.1-2.072.054-1.751.048-4.171.03-6.839s.01-5.083.09-6.828c.039-.873.076-1.579.109-2.066a3.435,3.435,0,0,0,.013-.762,3.53,3.53,0,0,0-.137.749c-.071.485-.143,1.191-.211,2.065-.14,1.748-.2,4.171-.185,6.842.025,2.634.047,5.016.064,6.836,0,.822,0,1.515.005,2.071A3.5,3.5,0,0,0,89.442,114.848Z" transform="translate(-89.333 -95.523)" fill="#fafafa"/></g><g transform="translate(4.818 25.975)"><path d="M59.048,119.034a4.848,4.848,0,0,0,.9.009c.577-.013,1.412-.034,2.443-.029,2.063,0,4.913.089,8.052.329s5.973.59,8.013.9c1.023.146,1.846.287,2.416.381a4.813,4.813,0,0,0,.892.117,4.731,4.731,0,0,0-.868-.241c-.564-.132-1.384-.308-2.4-.484-2.039-.367-4.876-.747-8.025-.994a78.947,78.947,0,0,0-8.079-.234c-1.035.023-1.871.08-2.447.131A4.817,4.817,0,0,0,59.048,119.034Z" transform="translate(-59.048 -118.761)" fill="#fafafa"/></g><g transform="translate(39.955 21.955)"><path d="M106.121,143.037a1.148,1.148,0,0,0,.122-.288l.292-.847c.25-.737.584-1.812.979-3.146.793-2.669,1.771-6.388,2.8-10.508s1.968-7.845,2.7-10.526c.362-1.3.66-2.376.881-3.173.094-.346.172-.63.235-.864a1.123,1.123,0,0,0,.06-.308,1.163,1.163,0,0,0-.122.289c-.079.228-.175.508-.292.847-.25.737-.584,1.812-.979,3.146-.793,2.669-1.771,6.388-2.8,10.51s-1.968,7.844-2.7,10.525c-.363,1.3-.66,2.375-.881,3.172l-.235.865A1.131,1.131,0,0,0,106.121,143.037Z" transform="translate(-106.118 -113.375)" fill="#fafafa"/></g><g transform="translate(9.33 45.342)"><path d="M65.092,144.71a1.2,1.2,0,0,0,.307.088l.891.193,3.281.677c2.769.573,6.586,1.407,10.8,2.334s8.045,1.728,10.827,2.243c1.391.258,2.519.455,3.3.576l.9.134a1.155,1.155,0,0,0,.319.024,1.216,1.216,0,0,0-.308-.089l-.891-.193-3.28-.677c-2.769-.572-6.586-1.407-10.8-2.335s-8.043-1.728-10.825-2.242c-1.391-.258-2.519-.456-3.3-.576l-.9-.134A1.148,1.148,0,0,0,65.092,144.71Z" transform="translate(-65.092 -144.706)" fill="#fafafa"/></g></g><g transform="translate(17.087 96.156)"><g transform="translate(58.116 58.115)"><path d="M226.708,402.7a73.372,73.372,0,1,1,73.371-73.372A73.454,73.454,0,0,1,226.708,402.7Zm0-146a72.625,72.625,0,1,0,72.625,72.625A72.708,72.708,0,0,0,226.708,256.7Z" transform="translate(-153.336 -255.958)" fill="#fafafa"/></g><g transform="translate(46.413 46.413)"><path d="M222.733,410.429a85.074,85.074,0,1,1,85.073-85.074A85.17,85.17,0,0,1,222.733,410.429Zm0-169.4a84.327,84.327,0,1,0,84.327,84.327A84.423,84.423,0,0,0,222.733,241.028Z" transform="translate(-137.659 -240.282)" fill="#fafafa"/></g><g transform="translate(67.87 67.87)"><path d="M230.02,396.26a63.617,63.617,0,1,1,63.616-63.617A63.689,63.689,0,0,1,230.02,396.26Zm0-126.487a62.87,62.87,0,1,0,62.87,62.87A62.942,62.942,0,0,0,230.02,269.772Z" transform="translate(-166.403 -269.026)" fill="#fafafa"/></g><g transform="translate(77.837 77.837)"><path d="M233.405,389.678a53.65,53.65,0,1,1,53.65-53.65A53.711,53.711,0,0,1,233.405,389.678Zm0-106.553a52.9,52.9,0,1,0,52.9,52.9A52.963,52.963,0,0,0,233.405,283.124Z" transform="translate(-179.755 -282.378)" fill="#fafafa"/></g><g transform="translate(88.055 88.055)"><path d="M236.875,382.929A43.432,43.432,0,1,1,280.306,339.5,43.482,43.482,0,0,1,236.875,382.929Zm0-86.117A42.685,42.685,0,1,0,279.56,339.5,42.734,42.734,0,0,0,236.875,296.812Z" transform="translate(-193.443 -296.066)" fill="#fafafa"/></g><g transform="translate(97.253 97.252)"><path d="M240,376.856a34.234,34.234,0,1,1,34.234-34.234A34.273,34.273,0,0,1,240,376.856Zm0-67.722a33.488,33.488,0,1,0,33.487,33.488A33.526,33.526,0,0,0,240,309.134Z" transform="translate(-205.765 -308.387)" fill="#fafafa"/></g></g><g transform="translate(141.601 3.676)"><rect width="36.074" height="36.074" transform="translate(0)" fill="#ebebeb"/></g></g><g transform="translate(45.222 132.721)"><g transform="translate(104.184 108.608)"><g transform="translate(3.443 0)"><rect width="81.182" height="89.157" transform="translate(0 5.922) rotate(-4.183)" fill="#263238"/></g><g transform="translate(10.046 18.636)"><path d="M275.7,357.8l-1.189-26.285-70.719,6.634,2.7,27.307Z" transform="translate(-203.788 -331.514)" fill="#455a64"/></g><g transform="translate(0 79.077)"><path d="M287.084,423.938l-90.635,6.091a5.735,5.735,0,0,1-6.105-5.337h0a5.735,5.735,0,0,1,5.337-6.105l90.635-6.09a5.734,5.734,0,0,1,6.105,5.337h0A5.733,5.733,0,0,1,287.084,423.938Z" transform="translate(-190.33 -412.482)" fill="#455a64"/></g></g><rect width="301.625" height="136.633" fill="#ebebeb"/><g transform="translate(0 136.633)"><path d="M50.763,344.091l7.795,4.063,286.363-.271,7.467-3.791Z" transform="translate(-50.763 -344.091)" fill="#e0e0e0"/></g></g><g transform="translate(120.238 164.446)"><g transform="translate(6.263)"><path d="M160.183,295.572l-.537-92.017H301.037v92.967Z" transform="translate(-159.646 -203.555)" fill="#455a64"/><g transform="translate(4.038 3.807)"><g transform="translate(0.267 10.347)"><path d="M190.821,282.861c5.472-.284,11.038,1,16.5,1.633l-2.933-.777A17.63,17.63,0,0,1,224,264.658c3.889.455,7.714,2.2,11.576,1.552,7.08-1.192,10.719-9.619,17.439-12.144,8.593-3.228,18.6,4.316,27.073.786,3.433-1.431,5.929-4.46,9.117-6.375,2.73-1.64,6.685-2.116,8.987-.228V228.475c-2.266,4.379-7.838,6.506-12.859,6.091-5.328-.442-10.176-3.11-14.8-5.769s-9.388-5.429-14.691-6.11c-7.542-.968-14.856,2.4-22.171,4.462-6.6,1.861-13.72,2.665-20.311.758-.219-.063-.435-.147-.652-.222a11.185,11.185,0,0,1-2.751,1.955c-5.61,2.719-13.1-.926-18.221,2.626-3.069,2.128-4.137,6.117-6.391,9.1-4.158,5.5-14.175,7.082-19.933,3.231v45.462l.02,5.883,3.018,0A29.146,29.146,0,0,1,190.821,282.861Zm86.611-40.549a3.011,3.011,0,0,1,1.149-.55c.054-.016.1-.046.16-.059l-.06.028a3.416,3.416,0,1,1-.917.426Z" transform="translate(-165.412 -222.516)" fill="#fafafa"/></g><g transform="translate(39.182 34.858)"><path d="M311.411,256.573c-2.3-1.887-6.257-1.412-8.987.228-3.188,1.915-5.684,4.944-9.117,6.375-8.473,3.53-18.481-4.014-27.073-.786-6.721,2.525-10.36,10.952-17.439,12.144-3.862.65-7.686-1.1-11.576-1.552a17.63,17.63,0,0,0-19.61,19.059l2.933.777c4.262.491,8.464.582,12.512-.787,11.663-3.943,18.012-18.792,30.242-20.2,6.781-.783,13.552,2.99,20.282,1.844,5.46-.93,9.806-4.889,14.317-8.1,4.434-3.158,8.862-6.164,13.9-4.318v-4.321A4.5,4.5,0,0,0,311.411,256.573Z" transform="translate(-217.544 -255.352)" fill="#ece9f4"/></g><g transform="translate(3.305 40.192)"><path d="M285.71,267.38c-4.51,3.214-8.857,7.173-14.317,8.1-6.73,1.146-13.5-2.627-20.282-1.844-12.23,1.412-18.579,16.261-30.242,20.2-4.048,1.368-8.249,1.278-12.512.787-5.466-.629-11.032-1.917-16.5-1.633a29.146,29.146,0,0,0-22.371,13.079l2.967,0a22.175,22.175,0,0,1,10.747-6.029,21.739,21.739,0,0,1,17.536,3.38c1.147.819,2.227,1.757,3.311,2.681l22.257.023c.983-.555,1.969-1.107,2.975-1.618,4.031-2.048,8.635-3.467,13.057-2.529a11.4,11.4,0,0,1,6.817,4.171l23.831.025a6.544,6.544,0,0,1,3.85-3.391c1.8-.549,3.871-.341,5.408-1.423,1.789-1.26,2.125-3.709,2.855-5.773a13.282,13.282,0,0,1,14.513-8.308v-24.23C294.572,261.215,290.144,264.221,285.71,267.38Zm-21.064,34a7.5,7.5,0,0,1-7.463-12.973l-.592.275a6.79,6.79,0,0,1,2.2-1.149,6.5,6.5,0,0,1,.776-.237l-.134.063a7.513,7.513,0,0,1,5.207,14.021Zm26.437-27.032a2,2,0,0,1-1.955-3.5l-.2.094a1.839,1.839,0,0,1,.7-.335c.034-.01.064-.028.1-.036l-.037.017a2.012,2.012,0,0,1,1.4,3.756Z" transform="translate(-169.482 -262.497)" fill="#26aab7"/></g><g transform="translate(106.805 64.785)"><path d="M320.245,303.951c-.73,2.063-1.065,4.512-2.855,5.773-1.537,1.082-3.612.874-5.408,1.423a6.544,6.544,0,0,0-3.85,3.391l26.625.028V295.644A13.282,13.282,0,0,0,320.245,303.951Z" transform="translate(-308.133 -295.443)" fill="#ece9f4"/></g><g transform="translate(6.272 77.154)"><path d="M184.2,312.6a22.175,22.175,0,0,0-10.747,6.029l31.595.033c-1.085-.924-2.165-1.862-3.311-2.681A21.739,21.739,0,0,0,184.2,312.6Z" transform="translate(-173.457 -312.012)" fill="#ece9f4"/></g><g transform="translate(60.124 79.388)"><path d="M261.631,315.3c-4.423-.938-9.026.481-13.057,2.529-1.006.511-1.992,1.063-2.975,1.618l22.85.024A11.4,11.4,0,0,0,261.631,315.3Z" transform="translate(-245.598 -315.005)" fill="#e8505b"/></g><g transform="translate(47.481 0.007)"><path d="M248.115,215.31c-3.978.295-8.23-.39-11.768,1.454-3.167,1.651-5.093,5.01-7.685,7.436.218.075.434.158.653.221,6.591,1.908,13.706,1.1,20.31-.757,7.316-2.062,14.629-5.431,22.171-4.462,5.3.681,10.064,3.449,14.691,6.109s9.475,5.328,14.8,5.769c5.02.417,10.593-1.711,12.858-6.09v-16.3h0L257,208.664C256.721,212.6,252.067,215.017,248.115,215.31Z" transform="translate(-228.662 -208.664)" fill="#26aab7"/></g><g transform="translate(87.654 64.876)"><path d="M288.085,295.744l.134-.063a6.494,6.494,0,0,0-.776.237,6.791,6.791,0,0,0-2.2,1.149l.592-.275a7.438,7.438,0,1,0,2.255-1.048Z" transform="translate(-282.478 -295.563)" fill="#ece9f4"/></g><g transform="translate(122.01 48.241)"><path d="M332.212,274.182a2.123,2.123,0,0,0-2.21-.855l.037-.017c-.034.008-.064.025-.1.036a1.838,1.838,0,0,0-.7.335l.2-.094a2.007,2.007,0,1,0,2.769.595Z" transform="translate(-328.502 -273.279)" fill="#e8505b"/></g><path d="M185.254,237.847c2.254-2.978,3.322-6.968,6.391-9.1,5.124-3.552,12.611.093,18.221-2.626a11.185,11.185,0,0,0,2.751-1.955c2.592-2.425,4.518-5.784,7.685-7.436,3.538-1.843,7.789-1.159,11.767-1.454,3.953-.293,8.528-2.684,8.81-6.619H165.055l.11,32.322c.05.034.106.061.156.095C171.079,244.929,181.1,243.343,185.254,237.847Z" transform="translate(-165.055 -208.655)" fill="#ece9f4"/></g><g transform="translate(35.867 21.307)"><g transform="translate(0.855 1.172)"><path d="M272.623,254.178l-5.244-20.433.063.037-58.485,14.883h0l.056-.094,5.191,20.447-.091-.055,58.514-14.786-58.477,14.931-.072.019-.019-.073c-1.634-6.429-3.387-13.327-5.2-20.445l-.019-.075.076-.019h0l58.5-14.833.051-.013.013.051Z" transform="translate(-208.839 -233.668)" fill="#263238"/></g><g transform="translate(63.636 20.525)"><rect width="1.562" height="1.562" transform="matrix(0.969, -0.246, 0.246, 0.969, 0, 0.385)" fill="#455a64"/></g><g transform="translate(5.194 35.59)"><rect width="1.562" height="1.562" transform="matrix(0.969, -0.246, 0.246, 0.969, 0, 0.385)" fill="#455a64"/></g><g transform="translate(58.423 0)"><rect width="1.562" height="1.562" transform="matrix(0.969, -0.246, 0.246, 0.969, 0, 0.385)" fill="#455a64"/></g><g transform="translate(28.937 7.49)"><rect width="1.562" height="1.562" transform="matrix(0.969, -0.246, 0.246, 0.969, 0, 0.385)" fill="#455a64"/></g><g transform="translate(34.151 28.014)"><rect width="1.562" height="1.562" transform="matrix(0.969, -0.246, 0.246, 0.969, 0, 0.385)" fill="#455a64"/></g><g transform="translate(2.509 25.023)"><rect width="1.562" height="1.562" transform="matrix(0.969, -0.246, 0.246, 0.969, 0, 0.385)" fill="#455a64"/></g><g transform="translate(61.005 10.165)"><rect width="1.562" height="1.562" transform="translate(0 0.385) rotate(-14.25)" fill="#455a64"/></g><g transform="translate(0 15.144)"><rect width="1.562" height="1.562" transform="translate(0 0.385) rotate(-14.253)" fill="#455a64"/></g><g transform="translate(4.966 17.05)"><path d="M272.843,254.939c.01.042-13.077,3.4-29.227,7.5s-29.258,7.4-29.269,7.354,13.074-3.4,29.231-7.5S272.832,254.9,272.843,254.939Z" transform="translate(-214.347 -254.939)" fill="#263238"/></g></g><g transform="translate(141.391 15.595)"><path d="M429.035,247.7a5.609,5.609,0,0,0,1.172-.915,5.912,5.912,0,0,0,1.447-3.915,6.694,6.694,0,0,0-.586-2.99,6.425,6.425,0,0,0-2.384-2.693,9.193,9.193,0,0,0-8.554-.436c-3.106,1.239-5.882,3.7-8.938,6.169a26.614,26.614,0,0,1-5.121,3.353,15.783,15.783,0,0,1-6.33,1.429,16.717,16.717,0,0,1-12.483-5.457,14.952,14.952,0,0,1-3.495-6.475,10.039,10.039,0,0,1,.857-7.468,8.332,8.332,0,0,1,2.658-2.8,6.211,6.211,0,0,1,3.664-1.056,5.405,5.405,0,0,1,3.417,1.562,7.449,7.449,0,0,1,1.809,3.225,9.255,9.255,0,0,1-.752,7.009,9.785,9.785,0,0,1-5.295,4.232,13.036,13.036,0,0,1-6.466.49,21.133,21.133,0,0,1-5.785-2.007c-3.537-1.78-6.5-3.976-9.379-5.651a24.14,24.14,0,0,0-8.287-3.331,12.6,12.6,0,0,0-6.652.668,9.811,9.811,0,0,0-3.535,2.357l-.434.481-.285.372c-.154.2-.241.3-.241.3s.065-.112.208-.32l.272-.386.423-.5a9.674,9.674,0,0,1,3.535-2.444,12.678,12.678,0,0,1,6.743-.743,24.223,24.223,0,0,1,8.392,3.308c2.908,1.669,5.876,3.85,9.385,5.6a20.862,20.862,0,0,0,5.7,1.959,12.712,12.712,0,0,0,6.29-.491,9.426,9.426,0,0,0,5.092-4.08,8.9,8.9,0,0,0,.707-6.718,7.074,7.074,0,0,0-1.715-3.058,5.023,5.023,0,0,0-3.167-1.448,5.823,5.823,0,0,0-3.432,1,7.937,7.937,0,0,0-2.534,2.669,9.661,9.661,0,0,0-.817,7.18,14.583,14.583,0,0,0,3.4,6.311,16.367,16.367,0,0,0,12.2,5.354,15.444,15.444,0,0,0,6.189-1.38,26.38,26.38,0,0,0,5.066-3.3c3.052-2.441,5.864-4.923,9.035-6.171a9.421,9.421,0,0,1,8.775.509,6.6,6.6,0,0,1,2.434,2.8,6.821,6.821,0,0,1,.569,3.072,5.929,5.929,0,0,1-1.542,3.964,2.845,2.845,0,0,1-.492.431,1.879,1.879,0,0,1-.395.258C429.153,247.651,429.035,247.7,429.035,247.7Z" transform="translate(-349.056 -224.446)" fill="#263238"/></g><g transform="translate(126.047 52.047)" opacity="0.3"><path d="M332.212,274.182a2.123,2.123,0,0,0-2.21-.855l.037-.017c-.034.008-.064.025-.1.036a1.838,1.838,0,0,0-.7.335l.2-.094a2.007,2.007,0,1,0,2.769.595Z" transform="translate(-328.502 -273.279)"/></g><g transform="translate(64.162 83.195)" opacity="0.3"><path d="M261.631,315.3c-4.423-.938-9.026.481-13.057,2.529-1.006.511-1.992,1.063-2.975,1.618l22.85.024A11.4,11.4,0,0,0,261.631,315.3Z" transform="translate(-245.598 -315.005)"/></g></g><g transform="translate(43.958 112.631)"><path d="M211.059,365.968c2.052-3.683,6.786-4.975,11-4.83s8.369,1.358,12.58,1.161c9.627-.451,17.969-8.13,27.6-7.853,5.784.166,11.431,3.234,17.118,2.163,1.374-.259,3-.689,4.009.279a2.541,2.541,0,0,1,.087,3.165,6.84,6.84,0,0,1-2.717,2.051c-14.7,7.427-31.722,8.152-48.065,10.2-4.183.526-8.437,1.146-12.588.415s-8.272-3.084-9.942-6.953" transform="translate(-210.142 -354.438)" fill="#b9dbcf"/></g><g transform="translate(0 40.646)"><g transform="translate(106.249)"><g transform="translate(3.559)"><path d="M349.706,317.582l-26.655-47.01-2.173-4.2a6.322,6.322,0,0,0-5.1-3.4l-4.3-.356s.317-4.986-2.011-4.592c-1.5.254-6.927,4.918-5.874,6.29s4.138-2.169,4.138-2.169l1.174,8.721s-8.175-4.757-9.492-4.478a1.231,1.231,0,0,0-.331,2.345,23.008,23.008,0,0,1,9.385,10.069l-.022.013,18.882,42.167-6.454,5.155,7.663,20.042,16.146-11.049A12.521,12.521,0,0,0,349.706,317.582Z" transform="translate(-298.356 -258.005)" fill="#ffbe9d"/></g><g transform="translate(0 3.613)"><g transform="translate(0 0)"><rect width="0.878" height="0.156" transform="matrix(0.887, 0.462, -0.462, 0.887, 0.072, 0)" fill="#263238"/></g><g transform="translate(0.529 0.258)"><path d="M294.533,263.192l3.35.093,19.064,10.489a1.437,1.437,0,0,1,.577,1.933h0a1.437,1.437,0,0,1-1.947.594l-18.923-10.112-2.3-2.616A.229.229,0,0,1,294.533,263.192Z" transform="translate(-294.297 -263.192)" fill="#263238"/></g><g transform="translate(19.15 9.37)"><path d="M321.367,275.816l-1.352,2.6-.773-.4L320.6,275.4Z" transform="translate(-319.242 -275.397)" fill="#455a64"/></g></g></g><g transform="translate(0 7.447)"><path d="M202.159,274.894c-1.339-.135-6.4,4.371-6.4,4.371l-2.5-9.011s3.35.3,4.25-1.176-8.186-1.335-8.394-.334a13.165,13.165,0,0,0,.525,3.72l-3.443.664a6.761,6.761,0,0,0-5.435,5.853l-.562,4.811.1.04-26.634,44.494a16.988,16.988,0,0,0,3.442,21.555l26.682,18.955,9.956-21.705-19.724-12.957,22.594-43.594s5.09-12.759,6.123-13.39A1.226,1.226,0,0,0,202.159,274.894Z" transform="translate(-151.255 -267.981)" fill="#ffbe9d"/></g><g transform="translate(22.27 64.616)"><path d="M302.873,369.354l-.314-3.1a13.521,13.521,0,0,0-5.129-9.3h0a13.522,13.522,0,0,1-5.19-11.109l.043-1.285-13.638,8.378a29.261,29.261,0,0,0-4.061,3.306l-.03-.066s-29.141.479-71.413,6.659l-16.019-5.795,1.382,1.085a12.416,12.416,0,0,1-3.65,11.134h0a13.521,13.521,0,0,0-3.755,9.93l.131,3.112s9.559,6.236,16.523,8.578c.086.029.172.05.258.076a83.181,83.181,0,0,0,37.155,7.1C261.194,397,282.587,383.142,285.4,381.25,291.989,377.834,302.873,369.354,302.873,369.354Z" transform="translate(-181.088 -344.566)" fill="#d5f2e8"/></g><g transform="translate(39.251 74.281)"><g transform="translate(0 8.612)"><path d="M208.909,369.052a1.3,1.3,0,0,1,.286.223c.181.153.434.393.755.707a20.519,20.519,0,0,1,2.442,2.924,17.734,17.734,0,0,1,2.43,5.107,16.164,16.164,0,0,1,.575,6.9,12.317,12.317,0,0,1-1.05,3.456,21.831,21.831,0,0,1-1.72,2.878,15.039,15.039,0,0,1-3.982,4.012,12.97,12.97,0,0,1-3.449,1.624,9.984,9.984,0,0,1-1,.263,1.283,1.283,0,0,1-.358.057c-.01-.038.473-.155,1.311-.463a14.1,14.1,0,0,0,3.342-1.708,15.2,15.2,0,0,0,3.844-3.989A22.26,22.26,0,0,0,214,388.2a12.09,12.09,0,0,0,1.009-3.352,16.117,16.117,0,0,0-.535-6.738,18.1,18.1,0,0,0-2.313-5.052,23.93,23.93,0,0,0-2.322-2.972A13.055,13.055,0,0,1,208.909,369.052Z" transform="translate(-203.837 -369.051)" fill="#263238"/></g><g transform="translate(0.021 25.37)" opacity="0.2"><path d="M283.282,397.761c2.108-1.508,1.061-4.572-1.283-5.678s-5.109-.437-7.572.367c-7.954,2.6-15.467,6.408-23.41,9.037s-16.626,4.04-24.654,1.684c-5.59-1.641-9.353-5.315-15.142-4.657-2.632.3-3.46,3.648-7.357,4.459a85.373,85.373,0,0,0,17.5,5.5,81.235,81.235,0,0,0,21.838,1.365,97.3,97.3,0,0,0,22.069-4.432A110.27,110.27,0,0,0,283.282,397.761Z" transform="translate(-203.865 -391.5)"/></g><g transform="translate(4.958 8.219)" opacity="0.2"><path d="M216.9,379.878s.691-7.074-3.573-11.354l-2.848.427S214.226,371.649,216.9,379.878Z" transform="translate(-210.479 -368.524)"/></g><g transform="translate(21.455)"><g transform="translate(3.46)"><path d="M237.223,358.3c-.147.387,1.443,16.745,1.443,16.745s8.294,11.576,21.336.307l1.574-17.836Z" transform="translate(-237.213 -357.514)" fill="#ffbe9d"/></g><g transform="translate(0 6.011)" opacity="0.2"><path d="M237.491,377.084s-3.844-6.382-4.913-11.132l3.161-.386.773.887Z" transform="translate(-232.578 -365.567)"/></g></g><g transform="translate(73.773 2.084)"><path d="M323.769,380.381a1.48,1.48,0,0,1-.317.224c-.215.135-.537.327-.963.555a15.21,15.21,0,0,1-3.821,1.474,9.745,9.745,0,0,1-2.84.229,13.427,13.427,0,0,1-3.2-.673,14.2,14.2,0,0,1-6.135-4.172,13.585,13.585,0,0,1-2.086-3.268,23.29,23.29,0,0,1-1.162-3.408,15.5,15.5,0,0,1-.454-6.054,9.153,9.153,0,0,1,1.436-3.828,6.169,6.169,0,0,1,.686-.879c.171-.189.264-.284.275-.275a1.53,1.53,0,0,1-.214.325,8.164,8.164,0,0,0-.619.911,9.481,9.481,0,0,0-1.292,3.785,15.655,15.655,0,0,0,.529,5.926,23.614,23.614,0,0,0,1.162,3.341,13.417,13.417,0,0,0,2.033,3.171c3.407,3.97,8.532,5.4,11.82,4.6a16.564,16.564,0,0,0,3.81-1.34C323.286,380.609,323.754,380.354,323.769,380.381Z" transform="translate(-302.665 -360.305)" fill="#263238"/></g><g transform="translate(10.422 18.028)"><path d="M283.672,381.666a.632.632,0,0,1-.147.1l-.449.252-1.745.938c-.757.408-1.687.9-2.8,1.4s-2.351,1.147-3.785,1.706c-1.421.59-2.973,1.248-4.688,1.831-1.692.646-3.544,1.2-5.49,1.8a99.956,99.956,0,0,1-12.935,2.8,103.556,103.556,0,0,1-13.2.951l-2.974-.027c-.964,0-1.9-.083-2.8-.118-1.809-.065-3.487-.237-5.019-.38-1.534-.116-2.908-.35-4.121-.5s-2.249-.334-3.095-.489l-1.947-.359-.5-.1a.575.575,0,0,1-.169-.049.621.621,0,0,1,.176.009l.511.065,1.957.287c.849.132,1.886.3,3.1.422s2.586.343,4.118.441c1.53.126,3.2.281,5.008.331.9.028,1.833.1,2.793.1l2.964.01a107.209,107.209,0,0,0,13.15-.977,103.371,103.371,0,0,0,12.891-2.755c1.942-.584,3.791-1.129,5.482-1.759,1.712-.568,3.266-1.209,4.69-1.781,1.436-.542,2.68-1.164,3.8-1.649s2.059-.956,2.825-1.343l1.776-.872.467-.219A.582.582,0,0,1,283.672,381.666Z" transform="translate(-217.799 -381.665)" fill="#263238"/></g><g transform="translate(33.364 1.121)" opacity="0.2"><path d="M248.873,380a5.214,5.214,0,0,0,4.959,7.1,6.016,6.016,0,0,1,2.3.084c.874.34,1.358,1.247,1.934,1.988a6.9,6.9,0,0,0,12.342-3.935,2.426,2.426,0,0,1,.352-1.527c.749-.865,2.092-.025,3.107.5,2.576,1.343,6.039,0,7.46-2.531a8.04,8.04,0,0,0-.66-8.247,13,13,0,0,0-7.06-4.819c-1.783-.546-3.73-.871-5.125-2.108-2.011-1.783-2.195-4.805-2.233-7.492" transform="translate(-248.532 -359.016)"/></g></g><g transform="translate(57.539 34.654)"><path d="M264.979,315.4c1.825,4,2.775,6.309,3.054,10.573a31.923,31.923,0,0,1-5.489,20.672h0c-3.108,4.733-12.406,10.634-15.16,11.429s-13.708-6.023-15.922-13.693-5.057-12.325-1.288-25.725c3.863-13.735,22.368-14.225,22.368-14.225s12.427.008,14.7,7.209S264.979,315.4,264.979,315.4Z" transform="translate(-228.336 -304.428)" fill="#263238"/><g transform="translate(9.093 22.786)"><path d="M248.494,338.52a8.872,8.872,0,0,0-6.445,13.849c1.534,2.236,4.062,3.732,5.251,6.169,1.09,2.234.862,4.877.341,7.307s-1.313,4.84-1.277,7.325,1.122,5.157,3.37,6.216,5.535-.429,5.543-2.914c-.753,3.935,3.785,7.8,7.549,6.423s4.747-7.251,1.635-9.776c2.752.648,5.836.644,8.194-.915s3.553-5.033,1.948-7.36c-1.9-2.754-6.235-2.5-8.635-4.837-1.982-1.927-2.092-5.01-2.238-7.771-.211-3.972-.8-8.049-2.831-11.47s-5.772-6.065-9.74-5.794" transform="translate(-240.517 -334.952)" fill="#263238"/></g><g transform="translate(19.334 25.504)"><path d="M259.113,377.229a1.879,1.879,0,0,1-.4-.184,3.285,3.285,0,0,1-.455-.273,4.839,4.839,0,0,1-.584-.431,8.98,8.98,0,0,1-2.631-3.76,11.984,11.984,0,0,1-.746-3.108,14.9,14.9,0,0,1,.115-3.666,37.822,37.822,0,0,1,2.407-8,37.492,37.492,0,0,0,2.385-7.92,14.632,14.632,0,0,0,.115-3.582,11.863,11.863,0,0,0-.722-3.033,9.1,9.1,0,0,0-2.531-3.7c-.82-.693-1.379-.937-1.356-.977a1.853,1.853,0,0,1,.4.177,3.216,3.216,0,0,1,.46.264,4.874,4.874,0,0,1,.592.419,8.9,8.9,0,0,1,2.69,3.717,11.857,11.857,0,0,1,.787,3.1,14.664,14.664,0,0,1-.081,3.667,36.566,36.566,0,0,1-2.377,8.009,38.852,38.852,0,0,0-2.416,7.912,14.815,14.815,0,0,0-.148,3.581,11.935,11.935,0,0,0,.683,3.043,9.165,9.165,0,0,0,2.472,3.742C258.584,376.934,259.137,377.189,259.113,377.229Z" transform="translate(-254.236 -338.593)" fill="#fafafa"/></g><g transform="translate(20.656 24.739)"><path d="M270.785,373.984a1.919,1.919,0,0,1-.463.1,7.327,7.327,0,0,1-1.36.063,7.986,7.986,0,0,1-7.557-8.411,14.491,14.491,0,0,1,1.044-4.27A45.859,45.859,0,0,0,264,357.08a19.228,19.228,0,0,0,.358-8.861,15.256,15.256,0,0,0-3.06-6.553,13.933,13.933,0,0,0-3.693-3.236c-1.005-.6-1.619-.822-1.6-.859a2.091,2.091,0,0,1,.449.15,9.488,9.488,0,0,1,1.229.579,13.331,13.331,0,0,1,3.829,3.192,15.279,15.279,0,0,1,3.2,6.654,19.329,19.329,0,0,1-.333,9.036,44.518,44.518,0,0,1-1.575,4.422,14.333,14.333,0,0,0-1.042,4.156,7.865,7.865,0,0,0,2.737,6.416A8.053,8.053,0,0,0,268.972,374,14.4,14.4,0,0,0,270.785,373.984Z" transform="translate(-256.007 -337.569)" fill="#455a64"/></g><g transform="translate(16.012 21.61)"><path d="M257.923,335.392a10.29,10.29,0,0,0-1.312-1.018,4.338,4.338,0,0,0-6.407,2.389,10.384,10.384,0,0,0-.325,1.629c-.023,0-.068-.158-.088-.455a3.855,3.855,0,0,1,.151-1.256,4.445,4.445,0,0,1,6.812-2.541,3.826,3.826,0,0,1,.936.851C257.872,335.228,257.942,335.378,257.923,335.392Z" transform="translate(-249.786 -333.377)" fill="#e8505b"/></g><g transform="translate(12.718 24.321)"><path d="M249.7,366.773c-.009.01-.1-.061-.27-.206a9.261,9.261,0,0,1-.694-.68,12.713,12.713,0,0,1-2.034-2.941,12.018,12.018,0,0,1-1.326-5.137,6.923,6.923,0,0,1,.652-3.1,12.576,12.576,0,0,1,2.03-2.708,7.582,7.582,0,0,0,1.755-2.719,5.132,5.132,0,0,0-.1-2.961c-.555-1.867-1.541-3.445-1.721-4.992a4.748,4.748,0,0,1,.612-3.5,2.534,2.534,0,0,1,.714-.673,1.1,1.1,0,0,1,.309-.146,3.912,3.912,0,0,0-.9.9,4.723,4.723,0,0,0-.464,3.366c.2,1.476,1.191,3,1.793,4.934a5.454,5.454,0,0,1,.121,3.173,7.866,7.866,0,0,1-1.827,2.867,12.467,12.467,0,0,0-1.98,2.618,6.641,6.641,0,0,0-.636,2.937,12.062,12.062,0,0,0,1.216,5.016,13.986,13.986,0,0,0,1.9,2.962C249.384,366.427,249.72,366.749,249.7,366.773Z" transform="translate(-245.372 -337.009)" fill="#455a64"/></g><g transform="translate(22.534 23.928)"><path d="M268.836,358.995a5.948,5.948,0,0,1,.048-1.067c.051-.684.12-1.674.15-2.9a25.66,25.66,0,0,0-1.339-9.373,15.59,15.59,0,0,0-5.637-7.445,16.321,16.321,0,0,0-3.535-1.727.768.768,0,0,1,.275.039,6.583,6.583,0,0,1,.769.2,10.853,10.853,0,0,1,2.642,1.258,15.271,15.271,0,0,1,5.849,7.539,24.246,24.246,0,0,1,1.25,9.517c-.066,1.231-.177,2.221-.275,2.9A5.279,5.279,0,0,1,268.836,358.995Z" transform="translate(-258.522 -336.483)" fill="#455a64"/></g><g transform="translate(20.787 16.625)"><path d="M261.46,335.462a9.84,9.84,0,0,1,.026-1.754,9.147,9.147,0,0,0-.616-4.062,4.618,4.618,0,0,0-2.981-2.581,10.778,10.778,0,0,0-1.707-.229,2.969,2.969,0,0,1,1.774-.038,4.646,4.646,0,0,1,3.269,2.688,8.385,8.385,0,0,1,.537,4.239A6.628,6.628,0,0,1,261.46,335.462Z" transform="translate(-256.182 -326.7)" fill="#455a64"/></g><g transform="translate(20.308 10.385)"><path d="M262.5,319.47a7.282,7.282,0,0,1-1.027-.387,5.92,5.92,0,0,0-4.989.435,7.23,7.23,0,0,1-.944.56c-.034-.031.225-.386.8-.793a5.29,5.29,0,0,1,5.24-.457C262.216,319.129,262.532,319.434,262.5,319.47Z" transform="translate(-255.541 -318.34)" fill="#f5f5f5"/></g><g transform="translate(20.623 7.115)"><path d="M271.613,318.33a17.8,17.8,0,0,0-1.908-1.9,9.26,9.26,0,0,0-11.881.152,17.923,17.923,0,0,0-1.859,1.948,2.286,2.286,0,0,1,.354-.645,8.164,8.164,0,0,1,1.325-1.511,9.181,9.181,0,0,1,12.235-.156,8.19,8.19,0,0,1,1.364,1.476A2.3,2.3,0,0,1,271.613,318.33Z" transform="translate(-255.963 -313.959)" fill="#455a64"/></g><g transform="translate(20.397 0.973)"><path d="M267.327,305.755c.007.069-.961.124-2.437.567a12.972,12.972,0,0,0-8.472,7.868c-.551,1.438-.676,2.4-.746,2.387a2.093,2.093,0,0,1,.045-.679,10.569,10.569,0,0,1,.443-1.8,12.35,12.35,0,0,1,8.656-8.039,10.441,10.441,0,0,1,1.83-.308A2.065,2.065,0,0,1,267.327,305.755Z" transform="translate(-255.66 -305.731)" fill="#f5f5f5"/></g><g transform="translate(18.064 0.914)"><path d="M254.839,305.653c.05.044-.411.533-.916,1.464a7.97,7.97,0,0,0,.075,7.859c.523.92.992,1.4.944,1.446a3.958,3.958,0,0,1-1.179-1.3,7.561,7.561,0,0,1-.077-8.14A3.95,3.95,0,0,1,254.839,305.653Z" transform="translate(-252.535 -305.652)" fill="#455a64"/></g><g transform="translate(10.036 3.694)"><path d="M241.813,309.377a12.5,12.5,0,0,0,.574,1.922,8.307,8.307,0,0,0,3.174,3.52,17.429,17.429,0,0,0,4.477,1.846,13.108,13.108,0,0,1,1.948.593,8.9,8.9,0,0,1-2.016-.327,14.976,14.976,0,0,1-4.616-1.783,7.958,7.958,0,0,1-3.22-3.744,5.135,5.135,0,0,1-.343-1.474A1.325,1.325,0,0,1,241.813,309.377Z" transform="translate(-241.78 -309.377)" fill="#455a64"/></g><g transform="translate(6.291 13.356)"><path d="M246.224,345.294a1.37,1.37,0,0,1-.366-.087,9.786,9.786,0,0,1-1.017-.358,13.675,13.675,0,0,1-3.4-2.036,13.194,13.194,0,0,1-3.612-4.635,11.879,11.879,0,0,1-.864-7.117,10.839,10.839,0,0,1,3.489-6.251,10.542,10.542,0,0,1,5.353-2.4,9.561,9.561,0,0,1,3.955.267,6.951,6.951,0,0,1,1.011.381,1.371,1.371,0,0,1,.332.176c-.018.043-.484-.189-1.382-.411a9.974,9.974,0,0,0-3.875-.141,10.44,10.44,0,0,0-5.158,2.4,10.6,10.6,0,0,0-3.342,6.052,11.671,11.671,0,0,0,.808,6.9,13.232,13.232,0,0,0,3.462,4.571,14.833,14.833,0,0,0,3.287,2.11C245.743,345.1,246.236,345.256,246.224,345.294Z" transform="translate(-236.763 -322.32)" fill="#455a64"/></g><g transform="translate(1.322 11.988)"><path d="M243.545,352.711a2.486,2.486,0,0,1-.466-.213c-.3-.149-.742-.378-1.285-.714a24.893,24.893,0,0,1-4.283-3.3,25.466,25.466,0,0,1-6.635-10.805,16.378,16.378,0,0,1-.765-5.056,10.842,10.842,0,0,1,1.3-4.948,12.842,12.842,0,0,1,3-3.7,14.74,14.74,0,0,1,7.3-3.257,19.274,19.274,0,0,1,5.408-.065c.635.078,1.123.17,1.451.241a2.489,2.489,0,0,1,.5.13,2.52,2.52,0,0,1-.51-.052c-.331-.046-.821-.113-1.453-.169a20.5,20.5,0,0,0-5.347.186,14.651,14.651,0,0,0-7.108,3.258,11.443,11.443,0,0,0-4.15,8.387,16.158,16.158,0,0,0,.741,4.937,25.626,25.626,0,0,0,1.771,4.335,26.059,26.059,0,0,0,4.692,6.383,27.036,27.036,0,0,0,4.171,3.371C242.934,352.356,243.566,352.673,243.545,352.711Z" transform="translate(-230.107 -320.488)" fill="#455a64"/></g><g transform="translate(20.638 13.186)"><path d="M268.142,345.11a19.787,19.787,0,0,0,1.988-4.3,15.26,15.26,0,0,0,.61-5.069,14.221,14.221,0,0,0-1.646-5.992,14.464,14.464,0,0,0-8.485-7.148,7.413,7.413,0,0,0-3.409-.172c-.8.177-1.2.4-1.218.367-.007-.012.091-.071.285-.175a4.89,4.89,0,0,1,.9-.34,7.181,7.181,0,0,1,3.511.055,12.8,12.8,0,0,1,4.657,2.345,15.126,15.126,0,0,1,4.1,4.886,14.284,14.284,0,0,1,1.659,6.157,15.011,15.011,0,0,1-.7,5.166,14.289,14.289,0,0,1-1.486,3.184,8.048,8.048,0,0,1-.546.783C268.228,345.032,268.153,345.119,268.142,345.11Z" transform="translate(-255.983 -322.092)" fill="#455a64"/></g></g></g></g><g transform="translate(28.908 73.757)"><g transform="translate(177.718)"><g transform="translate(0.195 0.195)"><rect width="114.944" height="85.707" fill="#fff"/></g><path d="M382.122,167.968s-.012-.54-.017-1.571-.01-2.562-.019-4.554c-.009-3.991-.023-9.842-.04-17.315-.02-14.933-.049-36.34-.083-62.268l.159.159-114.934.035h-.01l.194-.194c-.007,30.8-.013,59.97-.019,85.707l-.175-.175,82.954.087,23.569.046,6.255.021,1.612.01c.364,0,.553.01.553.01s-.176.007-.532.01l-1.594.01-6.22.021-23.53.047-83.068.087H267v-.175c-.005-25.737-.012-54.911-.019-85.707v-.195h.2l114.934.036h.159v.159c-.034,25.969-.063,47.41-.083,62.368-.018,7.457-.031,13.3-.041,17.279-.007,1.979-.013,3.494-.018,4.524S382.122,167.968,382.122,167.968Z" transform="translate(-266.983 -82.066)" fill="#263238"/></g><g transform="translate(236.984 50.599)"><g transform="translate(0.195 0.194)"><rect width="69.892" height="27.171" fill="#fafafa"/></g><path d="M416.463,177.213s-.01-.169-.014-.489-.008-.8-.014-1.409c-.007-1.246-.019-3.061-.034-5.4-.017-4.686-.042-11.461-.073-19.873l.135.134-69.888.06h0l.194-.194c0,9.5-.005,18.68-.007,27.17l-.187-.187,50.061.088,14.56.051,3.9.024,1.014.012c.229,0,.352.011.352.011s-.108.008-.329.012l-.991.011-3.866.024-14.518.052-50.188.087h-.187v-.187c0-8.49-.005-17.671-.008-27.17v-.194h.2l69.888.06h.135v.134c-.031,8.446-.056,15.248-.073,19.954-.014,2.326-.025,4.13-.033,5.369-.007.6-.011,1.061-.015,1.385S416.463,177.213,416.463,177.213Z" transform="translate(-346.376 -149.849)" fill="#263238"/><g transform="translate(0.195 0.194)"><rect width="69.892" height="5.822" fill="#263238"/></g><g transform="translate(8.501 10.456)"><rect width="6.864" height="6.864" fill="#263238"/></g><g transform="translate(12.658 14.613)"><rect width="6.864" height="6.864" fill="#263238"/></g><g transform="translate(24.861 10.456)"><rect width="6.864" height="6.864" fill="#263238"/></g><g transform="translate(28.781 14.415)"><g transform="translate(0.237 0.198)"><rect width="6.864" height="6.864" fill="#f5f5f5"/></g><path d="M392.032,176.222a3.312,3.312,0,0,1-.039-.529c-.012-.387-.026-.854-.044-1.413-.031-1.207-.069-2.9-.085-4.922l.168.168-6.863.026.193-.193v.933l0,.918q0,.907-.005,1.774c-.007,1.148-.013,2.233-.019,3.238l-.168-.168c2.021.016,3.715.054,4.922.085l1.413.044a3.29,3.29,0,0,1,.529.039,1.969,1.969,0,0,1-.459.038l-1.375.044c-1.2.031-2.934.069-5.03.086l-.167,0v-.169c-.006-1-.013-2.09-.019-3.238q0-.865-.005-1.774v-1.851c-.174.173.236-.237.195-.2l6.863.027h.169l0,.168c-.016,2.1-.054,3.834-.086,5.029-.017.544-.031,1-.044,1.376A1.961,1.961,0,0,1,392.032,176.222Z" transform="translate(-384.931 -169.16)" fill="#263238"/></g><g transform="translate(39.889 10.259)"><g transform="translate(0.237 0.197)"><rect width="6.864" height="6.864" fill="#f5f5f5"/></g><path d="M406.913,170.653a3.293,3.293,0,0,1-.039-.529c-.012-.387-.026-.854-.044-1.413-.031-1.207-.069-2.9-.085-4.922l.168.168-6.863.027c-.043.042.367-.368.193-.193h0v.932q0,.462,0,.917c0,.6,0,1.2-.005,1.774-.007,1.147-.013,2.233-.019,3.237l-.168-.168c2.021.016,3.715.055,4.922.086l1.413.043a3.311,3.311,0,0,1,.529.039,1.969,1.969,0,0,1-.459.038l-1.375.044c-1.2.031-2.934.069-5.03.086h-.167v-.169c-.006-1-.013-2.09-.019-3.237,0-.577,0-1.17-.005-1.774v-1.849h0c-.174.173.236-.238.195-.2l6.863.026h.169v.167c-.016,2.1-.055,3.834-.086,5.03-.017.544-.032,1-.044,1.375A1.969,1.969,0,0,1,406.913,170.653Z" transform="translate(-399.812 -163.592)" fill="#263238"/><g transform="translate(4.157 4.157)"><g transform="translate(0.238 0.198)"><rect width="6.864" height="6.864" fill="#f5f5f5"/></g><path d="M412.482,176.222a3.315,3.315,0,0,1-.039-.529c-.012-.387-.027-.854-.044-1.413-.031-1.207-.069-2.9-.086-4.922l.168.168-6.862.026.193-.193v.933c0,.309,0,.615,0,.918q0,.907-.005,1.774c-.007,1.148-.013,2.233-.019,3.238l-.168-.168c2.022.016,3.715.054,4.922.085l1.413.044a3.3,3.3,0,0,1,.529.039,1.97,1.97,0,0,1-.459.038l-1.376.044c-1.2.031-2.934.069-5.029.086l-.167,0v-.169c-.006-1-.012-2.09-.019-3.238q0-.865,0-1.774v-1.851l.2-.2,6.862.027h.169v.168c-.016,2.1-.054,3.834-.086,5.029-.017.544-.032,1-.044,1.376A1.963,1.963,0,0,1,412.482,176.222Z" transform="translate(-405.381 -169.16)" fill="#263238"/></g><g transform="translate(4.394 4.354)"><rect width="2.707" height="2.707" fill="#263238"/></g></g><g transform="translate(54.16 10.456)"><rect width="6.864" height="6.864" fill="#263238"/><g transform="translate(4.157 4.157)"><rect width="6.864" height="6.864" fill="#263238"/></g><g transform="translate(4.157 4.157)"><rect width="2.707" height="2.707" fill="#fafafa"/></g></g></g><g transform="translate(253.632 133.576)"><rect width="67.169" height="26.112" transform="translate(0.093 0.094)" fill="#fafafa"/><path d="M436.035,287.306H368.679v-26.3h67.356Zm-67.169-.187h66.982V261.194H368.866Z" transform="translate(-368.679 -261.007)" fill="#222221"/><g transform="translate(0.093 0.094)"><rect width="67.169" height="5.595" fill="#263238"/></g><g transform="translate(3.641 12.476)"><g transform="translate(0.237 0.197)"><rect width="6.636" height="6.636" fill="#f5f5f5"/></g><path d="M380.431,284.553a3.165,3.165,0,0,1-.038-.511c-.012-.377-.027-.829-.044-1.368-.031-1.167-.069-2.8-.086-4.757l.168.168-6.635.027c-.043.042.367-.368.194-.193h0v.9c0,.3,0,.594,0,.888q0,.877-.005,1.715c-.007,1.109-.013,2.159-.019,3.13l-.168-.168c1.954.016,3.591.054,4.757.086l1.368.044a3.163,3.163,0,0,1,.511.038,16.24,16.24,0,0,1-1.771.083c-1.156.031-2.837.069-4.865.086h-.167v-.169c-.006-.971-.013-2.021-.019-3.13q0-.838-.005-1.715V277.92h0c-.174.173.237-.238.195-.2l6.635.026h.169v.167c-.017,2.027-.054,3.708-.086,4.865A16.212,16.212,0,0,1,380.431,284.553Z" transform="translate(-373.557 -277.72)" fill="#263238"/><g transform="translate(0.234 0.194)"><g transform="translate(0.003 0.003)"><line x1="6.636" y2="6.636" fill="#fafafa"/></g><path d="M373.874,284.619a56.772,56.772,0,0,1,6.636-6.636,56.627,56.627,0,0,1-6.636,6.636Z" transform="translate(-373.871 -277.98)" fill="#e8505b"/></g></g><g transform="translate(12.514 12.673)"><rect width="6.636" height="6.636" fill="#263238"/></g><g transform="translate(21.149 12.673)"><rect width="6.636" height="6.636" fill="#455a64"/></g><g transform="translate(29.785 12.673)"><rect width="6.636" height="6.636" fill="#26aab7"/></g><g transform="translate(38.42 12.673)"><rect width="6.636" height="6.636" fill="#e8505b"/></g><g transform="translate(38.42 12.673)" opacity="0.5"><rect width="6.636" height="6.636" fill="#ffd947"/></g><g transform="translate(47.055 12.673)"><rect width="6.636" height="6.636" fill="#7d6eb2"/></g><g transform="translate(55.691 12.673)"><rect width="6.636" height="6.636" fill="#167377"/></g></g><g transform="translate(55.894)"><g transform="translate(0.195 0.195)"><rect width="93.922" height="65.407" fill="#fff"/></g><path d="M197.9,147.667s-.011-.411-.017-1.2-.01-1.949-.017-3.461c-.009-3.037-.023-7.486-.04-13.178-.019-11.376-.048-27.707-.082-47.572l.157.157-93.914.037h-.007l.194-.194c-.006,23.377-.012,45.576-.017,65.407l-.177-.177,67.7.087,19.308.048,5.133.021,1.326.01c.3,0,.455.01.455.01s-.143.007-.435.01l-1.306.01-5.1.022-19.267.047-67.815.088H103.8v-.178c-.005-19.83-.011-42.03-.017-65.407v-.195h.2L197.9,82.1h.158v.157c-.034,19.906-.062,36.271-.082,47.67-.017,5.676-.031,10.114-.04,13.143-.008,1.5-.014,2.649-.018,3.432S197.9,147.667,197.9,147.667Z" transform="translate(-103.785 -82.066)" fill="#263238"/><g transform="translate(0.195 0.195)"><rect width="93.922" height="8.173" fill="#263238"/></g><g transform="translate(3.334 3.491)"><path d="M110.211,87.766a.981.981,0,1,1-.98-1.024A1,1,0,0,1,110.211,87.766Z" transform="translate(-108.251 -86.742)" fill="#fff"/></g><g transform="translate(7.309 3.491)"><path d="M115.536,87.766a.981.981,0,1,1-.98-1.024A1,1,0,0,1,115.536,87.766Z" transform="translate(-113.576 -86.742)" fill="#fff"/></g><g transform="translate(11.283 3.491)"><path d="M120.86,87.766a.981.981,0,1,1-.98-1.024A1,1,0,0,1,120.86,87.766Z" transform="translate(-118.9 -86.742)" fill="#fff"/></g><g transform="translate(9.124 16.379)"><rect width="13.386" height="32.113" fill="#7d6eb2"/></g><g transform="translate(29.765 16.379)"><rect width="13.386" height="32.113" fill="#ebebeb"/></g><g transform="translate(50.405 16.379)"><rect width="13.386" height="32.113" fill="#fafafa"/></g><g transform="translate(71.045 16.631)"><rect width="13.386" height="32.113" fill="#e0e0e0"/></g><g transform="translate(7.574 52.036)"><rect width="81.13" height="7.338" fill="#26aab7"/></g><g transform="translate(82.533 57.87)"><path d="M214.348,159.589l1.746,8.835,1.435-2.465,3.083,4.4,1.541-.991-3.083-4.4,2.83-.415Z" transform="translate(-214.348 -159.589)" fill="#263238"/></g></g><g transform="translate(72.481 73.181)"><g transform="translate(0.194 0.194)"><rect width="41.34" height="70.908" fill="#fafafa"/></g><path d="M167.54,251.2s-.007-.122-.011-.35-.006-.574-.01-1.012c-.005-.9-.013-2.21-.022-3.909-.011-3.417-.028-8.385-.049-14.651-.022-12.526-.052-30.229-.088-50.985l.181.181-41.336.013H126.2l.195-.194c-.017,27.049-.033,51.857-.045,70.907l-.15-.15,30.139.08,8.281.038,2.17.016c.49.005.751.016.751.016s-.239.011-.72.016l-2.142.016-8.247.038-30.232.08h-.15V251.2c-.012-19.05-.028-43.859-.044-70.907V180.1h.2l41.336.013h.181v.181c-.036,20.805-.066,38.549-.088,51.1-.021,6.249-.037,11.2-.049,14.61-.009,1.684-.016,2.982-.022,3.873,0,.429-.008.758-.011.992S167.54,251.2,167.54,251.2Z" transform="translate(-126.005 -180.101)" fill="#222221"/><g transform="translate(0.194 0.194)"><rect width="41.34" height="5.975" fill="#263238"/></g><g transform="translate(4.724 13.625)"><g transform="translate(5.405 0.001)"><path d="M139.574,198.354l.5,6.62,1.85-2.414,3.091-.129Z" transform="translate(-139.574 -198.354)" fill="#263238"/></g><g transform="translate(23.269)"><path d="M163.507,198.354c-.006-.011.131.084.39.27l1.13.812c.973.7,2.378,1.707,3.988,2.907l.25.186-.312.013-2.984.13-.108,0,.088-.046c-.652.846-1.276,1.657-1.855,2.41l-.177.229-.021-.288c-.142-1.961-.234-3.647-.3-4.813-.028-.519-.053-.967-.074-1.354-.016-.311-.024-.473-.018-.461s.025.195.057.523c.038.4.081.856.133,1.388.113,1.178.27,2.8.42,4.7l-.2-.059,1.845-2.418.033-.043.055,0,.107,0,2.984-.119-.062.2c-1.553-1.171-2.87-2.2-3.826-2.949l-1.128-.88C163.662,198.483,163.514,198.365,163.507,198.354Z" transform="translate(-163.505 -198.353)" fill="#263238"/></g><g transform="translate(4.203 19.169)"><path d="M137.964,233.669c-.046-.045,2.013-2.239,4.6-4.9s4.72-4.782,4.766-4.737-2.012,2.238-4.6,4.9S138.01,233.714,137.964,233.669Z" transform="translate(-137.963 -224.032)" fill="#263238"/></g><g transform="translate(20.809 17.665)"><path d="M172.3,228.273a11.736,11.736,0,0,0-.227-1.474,6.168,6.168,0,0,0-2.157-3.335,5.856,5.856,0,0,0-2.5-1.147,5.775,5.775,0,0,0-3.131.278,5.851,5.851,0,0,0-2.726,2.134,6.174,6.174,0,0,0,0,7.087,5.844,5.844,0,0,0,2.726,2.134,5.768,5.768,0,0,0,3.131.278,5.834,5.834,0,0,0,2.5-1.147,6.166,6.166,0,0,0,2.157-3.335,11.8,11.8,0,0,0,.226-1.474,5.063,5.063,0,0,1-.138,1.5,6.156,6.156,0,0,1-2.142,3.443,5.971,5.971,0,0,1-8.649-1.263,6.377,6.377,0,0,1,0-7.35,6.037,6.037,0,0,1,2.837-2.2,5.907,5.907,0,0,1,5.812.941,6.158,6.158,0,0,1,2.143,3.443A5.063,5.063,0,0,1,172.3,228.273Z" transform="translate(-160.209 -222.017)" fill="#263238"/></g><g transform="translate(20.242 39.669)"><path d="M166.757,251.5a.758.758,0,0,1,.148.11l.428.357,1.628,1.4.053.045-.047.054-6.942,7.98-.028.032-.043.006-.835.127-1.506.227-.163.025.032-.161c.188-.95.37-1.866.542-2.735l.006-.029.019-.022c1.882-2.214,3.523-4.1,4.715-5.416a12.417,12.417,0,0,1,1.993-2,1.32,1.32,0,0,1-.139.133c-.084.09-.218.221-.378.4-.328.354-.79.885-1.372,1.554-1.161,1.34-2.779,3.244-4.648,5.467l.024-.05-.533,2.737-.131-.137,1.5-.228.835-.126-.069.038,7.012-7.919.006.1-1.556-1.43-.414-.39A1.116,1.116,0,0,1,166.757,251.5Z" transform="translate(-159.45 -251.494)" fill="#263238"/></g><g transform="translate(2.592 39.251)"><path d="M145.641,261.027a1.435,1.435,0,0,1-.011-.195l-.012-.544q-.01-.784-.027-2.039c-.013-1.8-.031-4.262-.051-7.2l.1.1-9.692.015c-.027.025.22-.22.116-.115v1.358q0,.674,0,1.335,0,1.321,0,2.58c0,1.671-.008,3.249-.012,4.7l-.1-.1,7,.052,1.98.026.528.012a1.361,1.361,0,0,1,.189.011.853.853,0,0,1-.166.011l-.509.011-1.957.026-7.061.052h-.1v-.1c0-1.45-.007-3.028-.012-4.7q0-1.257,0-2.58,0-.661,0-1.335v-1.358c-.1.1.141-.144.117-.118l9.692.015h.1v.1c-.021,2.961-.039,5.449-.051,7.261q-.017,1.242-.027,2.016l-.012.525A.918.918,0,0,1,145.641,261.027Z" transform="translate(-135.805 -250.934)" fill="#263238"/></g><g transform="translate(0 39.253)"><path d="M136.536,251.053a19.026,19.026,0,0,1-4.2,0,19.024,19.024,0,0,1,4.2,0Z" transform="translate(-132.333 -250.937)" fill="#263238"/></g><g transform="translate(2.618 36.556)"><path d="M135.956,252.055a24.085,24.085,0,0,1,0-4.731,24.088,24.088,0,0,1,0,4.731Z" transform="translate(-135.84 -247.324)" fill="#263238"/></g></g></g><g transform="translate(8.746 94.503)"><rect width="54.736" height="54.736" fill="#f5f5f5"/></g><g transform="translate(61.677 153.983)"><g transform="translate(0 2.284)"><circle cx="10.26" cy="10.26" r="10.26" transform="translate(0 14.51) rotate(-45)" fill="#e0e0e0"/></g><g transform="translate(2.827 0)"><g transform="translate(0)"><circle cx="8.969" cy="8.969" r="8.969" transform="translate(0 12.684) rotate(-45)" fill="#fafafa"/></g><g transform="translate(4.036 4.036)"><circle cx="8.648" cy="8.648" r="8.648" fill="#ffd947"/></g><g transform="translate(6.061 6.061)"><path d="M130.062,309.711a6.623,6.623,0,1,1,6.623-6.623A6.63,6.63,0,0,1,130.062,309.711Zm0-13.207a6.585,6.585,0,1,0,6.585,6.585A6.592,6.592,0,0,0,130.062,296.5Z" transform="translate(-123.439 -296.465)" fill="#263238"/></g><g transform="translate(8.144 6.534)" opacity="0.2"><path d="M131.473,297.2a4.283,4.283,0,1,0,3.278,4.6,3.852,3.852,0,0,0-.6-2.531,4.011,4.011,0,0,0-2.673-2.069" transform="translate(-126.229 -297.099)"/></g><g transform="translate(11.065 18.267)"><path d="M130.141,312.816l.49.674,2.637-.082.507-.592Z" transform="translate(-130.141 -312.816)" fill="#263238"/></g></g></g><g transform="translate(246.693 166.504)"><g transform="translate(0)"><circle cx="5.476" cy="5.476" r="5.476" fill="#263238"/></g><g transform="translate(3.475 3.475)"><path d="M368.04,311.775a2,2,0,1,1-2-2A2,2,0,0,1,368.04,311.775Z" transform="translate(-364.038 -309.774)" fill="#455a64"/></g></g><g transform="translate(0 102.88)"><g transform="translate(1.734 2.107)"><g transform="translate(49.86 51.797)"><path d="M98.025,292.282c0-.1.475-.184,1.06-.184s1.061.083,1.061.184-.475.184-1.061.184S98.025,292.384,98.025,292.282Z" transform="translate(-98.025 -292.098)" fill="#263238"/></g><g transform="translate(45.619 51.797)"><path d="M92.343,292.282c0-.1.475-.184,1.06-.184s1.061.083,1.061.184-.475.184-1.061.184S92.343,292.384,92.343,292.282Z" transform="translate(-92.343 -292.098)" fill="#263238"/></g><g transform="translate(41.377 51.797)"><path d="M86.661,292.282c0-.1.475-.184,1.061-.184s1.06.083,1.06.184-.475.184-1.06.184S86.661,292.384,86.661,292.282Z" transform="translate(-86.661 -292.098)" fill="#263238"/></g><g transform="translate(37.137 51.797)"><path d="M80.98,292.282c0-.1.475-.184,1.06-.184s1.061.083,1.061.184-.475.184-1.061.184S80.98,292.384,80.98,292.282Z" transform="translate(-80.98 -292.098)" fill="#263238"/></g><g transform="translate(32.895 51.797)"><g transform="translate(0)"><path d="M75.3,292.282c0-.1.475-.184,1.06-.184s1.061.083,1.061.184-.475.184-1.061.184S75.3,292.384,75.3,292.282Z" transform="translate(-75.298 -292.098)" fill="#263238"/></g></g><g transform="translate(28.654 51.797)"><path d="M69.616,292.282c0-.1.475-.184,1.061-.184s1.06.083,1.06.184-.475.184-1.06.184S69.616,292.384,69.616,292.282Z" transform="translate(-69.616 -292.098)" fill="#263238"/></g><g transform="translate(24.412 51.797)"><path d="M63.934,292.282c0-.1.475-.184,1.061-.184s1.06.083,1.06.184-.475.184-1.06.184S63.934,292.384,63.934,292.282Z" transform="translate(-63.934 -292.098)" fill="#263238"/></g><g transform="translate(20.171 51.797)"><path d="M58.253,292.282c0-.1.475-.184,1.06-.184s1.061.083,1.061.184-.475.184-1.061.184S58.253,292.384,58.253,292.282Z" transform="translate(-58.253 -292.098)" fill="#263238"/></g><g transform="translate(15.93 51.797)"><path d="M52.571,292.282c0-.1.475-.184,1.06-.184s1.061.083,1.061.184-.475.184-1.061.184S52.571,292.384,52.571,292.282Z" transform="translate(-52.571 -292.098)" fill="#263238"/></g><g transform="translate(11.688 51.797)"><path d="M46.889,292.282c0-.1.475-.184,1.061-.184s1.06.083,1.06.184-.475.184-1.06.184S46.889,292.384,46.889,292.282Z" transform="translate(-46.889 -292.098)" fill="#263238"/></g><g transform="translate(7.448 51.797)"><path d="M41.208,292.282c0-.1.474-.184,1.06-.184s1.06.083,1.06.184-.475.184-1.06.184S41.208,292.384,41.208,292.282Z" transform="translate(-41.208 -292.098)" fill="#263238"/></g><g transform="translate(3.206 51.797)"><path d="M35.526,292.282c0-.1.475-.184,1.06-.184s1.061.083,1.061.184-.475.184-1.061.184S35.526,292.384,35.526,292.282Z" transform="translate(-35.526 -292.098)" fill="#263238"/></g><g transform="translate(0 50.762)"><path d="M31.415,290.711c.1,0,.184.475.184,1.061l0,.159-.182-.182c.511.013.9.09.9.182s-.39.168-.9.181l-.179.005,0-.187v-.159C31.231,291.186,31.313,290.711,31.415,290.711Z" transform="translate(-31.231 -290.711)" fill="#263238"/></g><g transform="translate(0 46.521)"><path d="M31.415,285.03c.1,0,.184.475.184,1.06s-.083,1.061-.184,1.061-.184-.475-.184-1.061S31.313,285.03,31.415,285.03Z" transform="translate(-31.231 -285.03)" fill="#263238"/></g><g transform="translate(0 42.28)"><path d="M31.415,279.348c.1,0,.184.475.184,1.06s-.083,1.061-.184,1.061-.184-.475-.184-1.061S31.313,279.348,31.415,279.348Z" transform="translate(-31.231 -279.348)" fill="#263238"/></g><g transform="translate(0 38.038)"><path d="M31.415,273.666c.1,0,.184.475.184,1.061s-.083,1.06-.184,1.06-.184-.475-.184-1.06S31.313,273.666,31.415,273.666Z" transform="translate(-31.231 -273.666)" fill="#263238"/></g><g transform="translate(0 33.798)"><path d="M31.415,267.985c.1,0,.184.475.184,1.06s-.083,1.06-.184,1.06-.184-.474-.184-1.06S31.313,267.985,31.415,267.985Z" transform="translate(-31.231 -267.985)" fill="#263238"/></g><g transform="translate(0 29.556)"><path d="M31.415,262.3c.1,0,.184.475.184,1.06s-.083,1.061-.184,1.061-.184-.475-.184-1.061S31.313,262.3,31.415,262.3Z" transform="translate(-31.231 -262.303)" fill="#263238"/></g><g transform="translate(0 25.315)"><path d="M31.415,256.621c.1,0,.184.475.184,1.06s-.083,1.061-.184,1.061-.184-.475-.184-1.061S31.313,256.621,31.415,256.621Z" transform="translate(-31.231 -256.621)" fill="#263238"/></g><g transform="translate(0 21.073)"><path d="M31.415,250.939c.1,0,.184.475.184,1.061s-.083,1.06-.184,1.06-.184-.475-.184-1.06S31.313,250.939,31.415,250.939Z" transform="translate(-31.231 -250.939)" fill="#263238"/></g><g transform="translate(0 16.832)"><path d="M31.415,245.258c.1,0,.184.475.184,1.06s-.083,1.06-.184,1.06-.184-.474-.184-1.06S31.313,245.258,31.415,245.258Z" transform="translate(-31.231 -245.258)" fill="#263238"/></g><g transform="translate(0 12.591)"><path d="M31.415,239.576c.1,0,.184.475.184,1.06s-.083,1.061-.184,1.061-.184-.475-.184-1.061S31.313,239.576,31.415,239.576Z" transform="translate(-31.231 -239.576)" fill="#263238"/></g><g transform="translate(0 8.349)"><path d="M31.415,233.894c.1,0,.184.475.184,1.06s-.083,1.061-.184,1.061-.184-.475-.184-1.061S31.313,233.894,31.415,233.894Z" transform="translate(-31.231 -233.894)" fill="#263238"/></g><g transform="translate(0 4.108)"><path d="M31.415,228.212c.1,0,.184.475.184,1.061s-.083,1.06-.184,1.06-.184-.475-.184-1.06S31.313,228.212,31.415,228.212Z" transform="translate(-31.231 -228.212)" fill="#263238"/></g><g transform="translate(0 0.035)"><path d="M31.733,222.905c0,.052-.122.1-.318.131l.131-.131a4.611,4.611,0,0,1,.053.743c0,.586-.083,1.061-.184,1.061s-.184-.475-.184-1.061a4.71,4.71,0,0,1,.052-.743l.026-.149.105.018C31.611,222.808,31.733,222.854,31.733,222.905Z" transform="translate(-31.231 -222.756)" fill="#263238"/></g><g transform="translate(2.622)"><path d="M36.864,222.893c0,.1-.475.184-1.06.184s-1.061-.083-1.061-.184.475-.184,1.061-.184S36.864,222.792,36.864,222.893Z" transform="translate(-34.743 -222.709)" fill="#263238"/></g><g transform="translate(6.863)"><path d="M42.546,222.893c0,.1-.475.184-1.06.184s-1.061-.083-1.061-.184.475-.184,1.061-.184S42.546,222.792,42.546,222.893Z" transform="translate(-40.425 -222.709)" fill="#263238"/></g><g transform="translate(11.105)"><path d="M48.228,222.893c0,.1-.475.184-1.061.184s-1.06-.083-1.06-.184.475-.184,1.06-.184S48.228,222.792,48.228,222.893Z" transform="translate(-46.107 -222.709)" fill="#263238"/></g><g transform="translate(15.346)"><path d="M53.91,222.893c0,.1-.475.184-1.061.184s-1.06-.083-1.06-.184.475-.184,1.06-.184S53.91,222.792,53.91,222.893Z" transform="translate(-51.789 -222.709)" fill="#263238"/></g><g transform="translate(19.587)"><path d="M59.591,222.893c0,.1-.475.184-1.06.184s-1.061-.083-1.061-.184.475-.184,1.061-.184S59.591,222.792,59.591,222.893Z" transform="translate(-57.47 -222.709)" fill="#263238"/></g><g transform="translate(23.828)"><path d="M65.273,222.893c0,.1-.475.184-1.06.184s-1.061-.083-1.061-.184.475-.184,1.061-.184S65.273,222.792,65.273,222.893Z" transform="translate(-63.152 -222.709)" fill="#263238"/></g><g transform="translate(28.07)"><path d="M70.955,222.893c0,.1-.475.184-1.061.184s-1.06-.083-1.06-.184.475-.184,1.06-.184S70.955,222.792,70.955,222.893Z" transform="translate(-68.834 -222.709)" fill="#263238"/></g><g transform="translate(32.311)"><g transform="translate(0)"><path d="M76.637,222.893c0,.1-.475.184-1.061.184s-1.06-.083-1.06-.184.475-.184,1.06-.184S76.637,222.792,76.637,222.893Z" transform="translate(-74.516 -222.709)" fill="#263238"/></g></g><g transform="translate(36.552)"><path d="M82.318,222.893c0,.1-.475.184-1.06.184s-1.061-.083-1.061-.184.475-.184,1.061-.184S82.318,222.792,82.318,222.893Z" transform="translate(-80.197 -222.709)" fill="#263238"/></g><g transform="translate(40.794)"><path d="M88,222.893c0,.1-.475.184-1.06.184s-1.061-.083-1.061-.184.475-.184,1.061-.184S88,222.792,88,222.893Z" transform="translate(-85.879 -222.709)" fill="#263238"/></g><g transform="translate(45.035)"><path d="M93.682,222.893c0,.1-.475.184-1.061.184s-1.06-.083-1.06-.184.475-.184,1.06-.184S93.682,222.792,93.682,222.893Z" transform="translate(-91.561 -222.709)" fill="#263238"/></g><g transform="translate(49.277)"><path d="M99.363,222.893c0,.1-.475.184-1.06.184s-1.06-.083-1.06-.184.474-.184,1.06-.184S99.363,222.792,99.363,222.893Z" transform="translate(-97.243 -222.709)" fill="#263238"/></g><g transform="translate(51.797 1.721)"><path d="M100.8,227.136c-.1,0-.184-.475-.184-1.061s.083-1.06.184-1.06.184.475.184,1.06S100.9,227.136,100.8,227.136Z" transform="translate(-100.619 -225.015)" fill="#263238"/></g><g transform="translate(51.797 5.963)"><path d="M100.8,232.817c-.1,0-.184-.475-.184-1.06s.083-1.06.184-1.06.184.474.184,1.06S100.9,232.817,100.8,232.817Z" transform="translate(-100.619 -230.697)" fill="#263238"/></g><g transform="translate(51.797 10.204)"><path d="M100.8,238.5c-.1,0-.184-.475-.184-1.06s.083-1.061.184-1.061.184.475.184,1.061S100.9,238.5,100.8,238.5Z" transform="translate(-100.619 -236.378)" fill="#263238"/></g><g transform="translate(51.797 14.445)"><path d="M100.8,244.181c-.1,0-.184-.475-.184-1.06s.083-1.061.184-1.061.184.475.184,1.061S100.9,244.181,100.8,244.181Z" transform="translate(-100.619 -242.06)" fill="#263238"/></g><g transform="translate(51.797 18.687)"><path d="M100.8,249.863c-.1,0-.184-.475-.184-1.061s.083-1.06.184-1.06.184.475.184,1.06S100.9,249.863,100.8,249.863Z" transform="translate(-100.619 -247.742)" fill="#263238"/></g><g transform="translate(51.797 22.927)"><path d="M100.8,255.544c-.1,0-.184-.475-.184-1.06s.083-1.061.184-1.061.184.475.184,1.061S100.9,255.544,100.8,255.544Z" transform="translate(-100.619 -253.423)" fill="#263238"/></g><g transform="translate(51.797 27.169)"><path d="M100.8,261.226c-.1,0-.184-.475-.184-1.06s.083-1.061.184-1.061.184.475.184,1.061S100.9,261.226,100.8,261.226Z" transform="translate(-100.619 -259.105)" fill="#263238"/></g><g transform="translate(51.797 31.41)"><path d="M100.8,266.908c-.1,0-.184-.475-.184-1.061s.083-1.06.184-1.06.184.475.184,1.06S100.9,266.908,100.8,266.908Z" transform="translate(-100.619 -264.787)" fill="#263238"/></g><g transform="translate(51.797 35.652)"><path d="M100.8,272.589c-.1,0-.184-.474-.184-1.06s.083-1.06.184-1.06.184.474.184,1.06S100.9,272.589,100.8,272.589Z" transform="translate(-100.619 -270.469)" fill="#263238"/></g><g transform="translate(51.797 39.893)"><path d="M100.8,278.271c-.1,0-.184-.475-.184-1.06s.083-1.061.184-1.061.184.475.184,1.061S100.9,278.271,100.8,278.271Z" transform="translate(-100.619 -276.15)" fill="#263238"/></g><g transform="translate(51.797 44.134)"><path d="M100.8,283.953c-.1,0-.184-.475-.184-1.06s.083-1.061.184-1.061.184.475.184,1.061S100.9,283.953,100.8,283.953Z" transform="translate(-100.619 -281.832)" fill="#263238"/></g><g transform="translate(51.797 48.376)"><path d="M100.8,289.635c-.1,0-.184-.475-.184-1.061s.083-1.06.184-1.06.184.475.184,1.06S100.9,289.635,100.8,289.635Z" transform="translate(-100.619 -287.514)" fill="#263238"/></g></g><g transform="translate(51.797 51.646)"><rect width="3.836" height="3.836" fill="#263238"/></g><g transform="translate(0 52.171)"><rect width="3.836" height="3.836" fill="#263238"/></g><g transform="translate(51.797)"><rect width="3.836" height="3.836" fill="#263238"/></g><g transform="translate(0 0.373)"><rect width="3.836" height="3.836" fill="#263238"/></g></g></g></g></svg>