<svg xmlns="http://www.w3.org/2000/svg" xmlns:xlink="http://www.w3.org/1999/xlink" width="400.504" height="636.077" viewBox="0 0 400.504 636.077"><defs><linearGradient id="a" x1="0.5" x2="0.5" y2="1" gradientUnits="objectBoundingBox"><stop offset="0" stop-color="#fff"/><stop offset="1" stop-color="#f1f1f1"/></linearGradient></defs><g transform="translate(-184.568 -6662.243)"><g transform="translate(184.568 6682.801)"><g transform="translate(0 0)"><g transform="translate(5.659)"><g transform="translate(92.64)"><g transform="translate(0.219 0.196)"><g transform="translate(0 0)"><g transform="translate(0)"><rect width="59.081" height="73.9" transform="matrix(0.019, -1, 1, 0.019, 0, 59.07)" fill="#ebebeb"/></g></g></g><path d="M290.5,39.834s-.126.006-.358,0l-1.037-.009c-.922-.011-2.267-.03-4.015-.054l-15.127-.237c-12.978-.225-31.424-.543-53.353-.922l.2-.188c-.329,17.581-.706,37.736-1.105,59.065V97.5l-.209-.218,73.885,1.445-.181.176c.377-17.786.689-32.529.909-42.84.118-5.158.211-9.2.274-11.973.035-1.377.063-2.432.081-3.16s.041-1.094.041-1.094.006.353,0,1.057-.022,1.765-.041,3.127c-.041,2.761-.1,6.793-.181,11.934-.176,10.339-.425,25.121-.728,42.955l0,.179-.179,0-73.887-1.373-.214,0,0-.214v-.007c.416-21.327.808-41.482,1.149-59.063l.006-.192.19,0,53.473,1.116,15.083.338,3.977.1,1.015.03C290.388,39.825,290.5,39.834,290.5,39.834Z" transform="translate(-215.265 -38.228)" fill="#263238"/><g transform="translate(2.837 3.963)"><g transform="translate(0 0)"><rect width="51.642" height="68.708" transform="translate(0 51.633) rotate(-88.907)" fill="#f5f5f5"/></g></g><g transform="translate(2.837 23.959)" opacity="0.3"><path d="M216.8,82.83l24.606-31.637,14.48,20.364,10.285-10.542L285.5,84.141Z" transform="translate(-216.8 -51.193)" fill="#707070"/></g><g transform="translate(37.87 14.919)" opacity="0.3"><path d="M246.579,51.813a5.411,5.411,0,1,1-5.307-5.511A5.411,5.411,0,0,1,246.579,51.813Z" transform="translate(-235.758 -46.301)" fill="#707070"/></g></g><g transform="translate(0 28.912)"><g transform="translate(0 0)"><g transform="translate(0.323)"><g transform="translate(0)"><rect width="111.666" height="89.274" transform="translate(0 13.896) rotate(-7.148)" fill="#ebebeb"/></g></g><g transform="translate(0 0)"><path d="M276.254,53.874s-.185.033-.534.083l-1.552.213-6.015.789L245.479,57.88c-19.459,2.474-47.113,5.995-79.987,10.176l.253-.323c3.315,26.364,7.118,56.587,11.141,88.567v.009l-.36-.281,110.8-13.841-.233.3c-3.287-26.68-6.013-48.794-7.92-64.261-.939-7.737-1.678-13.808-2.182-17.964-.246-2.066-.434-3.651-.564-4.742s-.177-1.647-.177-1.647.087.527.229,1.582c.142,1.077.349,2.643.617,4.683.536,4.139,1.318,10.182,2.314,17.886,1.979,15.5,4.806,37.661,8.218,64.4l.033.266-.268.035-110.79,13.95-.322.041-.041-.322,0-.011c-4-31.984-7.778-62.208-11.075-88.574l-.035-.288.286-.035c32.967-4.075,60.7-7.5,80.209-9.912,9.711-1.186,17.372-2.12,22.628-2.761,2.6-.31,4.6-.551,5.967-.713l1.525-.176C276.089,53.883,276.254,53.874,276.254,53.874Z" transform="translate(-165.133 -53.874)" fill="#263238"/></g></g><g transform="translate(4.843 6.073)"><g transform="translate(0 0)"><g transform="translate(0)"><rect width="103.821" height="78.034" transform="matrix(0.992, -0.124, 0.124, 0.992, 0, 12.919)" fill="#f5f5f5"/></g></g></g><g transform="translate(14.553 43.78)" opacity="0.4"><path d="M173.008,130.206l29.944-52.64,26.064,27.316,13.1-17.993,33.908,30.4Z" transform="translate(-173.008 -77.565)" fill="#707070"/></g><g transform="translate(59.22 26.743)" opacity="0.4"><path d="M213.467,75.5a8.175,8.175,0,1,1-9.129-7.094A8.176,8.176,0,0,1,213.467,75.5Z" transform="translate(-197.18 -68.346)" fill="#707070"/></g></g></g><g transform="translate(0 30.428)"><path d="M181.95,54.694,162.071,80.636l4.642,7.084,23.352-29.814Z" transform="translate(-162.071 -54.694)" fill="#e0e0e0"/></g><g transform="translate(110.478 97.404)"><path d="M241.735,90.938,221.856,116.88l4.642,7.084L249.85,94.15Z" transform="translate(-221.856 -90.938)" fill="#e0e0e0"/></g></g></g><g transform="translate(399.603 7186.185)"><g transform="translate(6.972)"><g transform="translate(114.802 1.984)"><rect width="25.598" height="30.432" fill="#f5f5f5"/></g><rect width="115.685" height="34.33" fill="#12263f"/><g transform="translate(112.583 0.001)"><path d="M162.742,417.137H134.149v-2.887h28.593a1.442,1.442,0,0,1,1.443,1.443h0A1.443,1.443,0,0,1,162.742,417.137Z" transform="translate(-134.149 -414.251)" fill="#e0e0e0"/></g><g transform="translate(112.583 31.443)"><path d="M162.742,434.152H134.149v-2.886h28.593a1.443,1.443,0,0,1,1.443,1.443h0A1.443,1.443,0,0,1,162.742,434.152Z" transform="translate(-134.149 -431.266)" fill="#e0e0e0"/></g><g transform="translate(92.921)"><rect width="13.668" height="34.33" fill="#ebebeb"/></g><g transform="translate(10.264)"><rect width="13.668" height="34.33" fill="#ebebeb"/></g><g transform="translate(115.654 6.866)"><path d="M160.556,418.117c0,.085-5.54.151-12.372.151s-12.374-.066-12.374-.151,5.538-.151,12.374-.151S160.556,418.034,160.556,418.117Z" transform="translate(-135.811 -417.966)" fill="#e0e0e0"/></g><g transform="translate(115.654 11.428)"><path d="M160.556,420.588c0,.083-5.54.151-12.372.151s-12.374-.068-12.374-.151,5.538-.153,12.374-.153S160.556,420.5,160.556,420.588Z" transform="translate(-135.811 -420.435)" fill="#e0e0e0"/></g><g transform="translate(115.654 17.048)"><path d="M160.556,423.628c0,.085-5.54.153-12.372.153s-12.374-.068-12.374-.153,5.538-.152,12.374-.152S160.556,423.544,160.556,423.628Z" transform="translate(-135.811 -423.476)" fill="#e0e0e0"/></g><g transform="translate(115.654 22.667)"><path d="M160.556,426.668c0,.085-5.54.152-12.372.152s-12.374-.067-12.374-.152,5.538-.151,12.374-.151S160.556,426.585,160.556,426.668Z" transform="translate(-135.811 -426.517)" fill="#e0e0e0"/></g><g transform="translate(115.654 28.287)"><path d="M160.556,429.71c0,.083-5.54.151-12.372.151s-12.374-.068-12.374-.151,5.538-.152,12.374-.152S160.556,429.625,160.556,429.71Z" transform="translate(-135.811 -429.558)" fill="#e0e0e0"/></g><g transform="translate(33.528 14.109)"><rect width="52.045" height="6.181" fill="#ebebeb"/></g></g><g transform="translate(10.802 34.329)"><g transform="translate(110.319 0.673)"><rect width="25.991" height="18.543" fill="#fafafa"/></g><g transform="translate(0 0)"><rect width="110.61" height="19.888" fill="#3c4973"/></g><g transform="translate(109.806)"><path d="M134.719,434.173h27.935a.673.673,0,0,0,.675-.673h0a.673.673,0,0,0-.675-.673H134.719Z" transform="translate(-134.719 -432.828)" fill="#ebebeb"/></g><g transform="translate(109.806 18.543)"><path d="M0,0H28.252a.357.357,0,0,1,.357.357V.989a.357.357,0,0,1-.357.357H0a0,0,0,0,1,0,0V0A0,0,0,0,1,0,0Z" fill="#ebebeb"/></g><g transform="translate(110.61 4.043)"><path d="M160.855,435.169c0,.083-5.754.152-12.85.152s-12.85-.069-12.85-.152,5.753-.153,12.85-.153S160.855,435.084,160.855,435.169Z" transform="translate(-135.154 -435.016)" fill="#e0e0e0"/></g><g transform="translate(110.61 7.552)"><path d="M160.855,437.067c0,.083-5.754.151-12.85.151s-12.85-.068-12.85-.151,5.753-.152,12.85-.152S160.855,436.983,160.855,437.067Z" transform="translate(-135.154 -436.915)" fill="#e0e0e0"/></g><g transform="translate(110.61 11.06)"><path d="M160.855,438.965c0,.085-5.754.153-12.85.153s-12.85-.068-12.85-.153,5.753-.152,12.85-.152S160.855,438.881,160.855,438.965Z" transform="translate(-135.154 -438.813)" fill="#e0e0e0"/></g><g transform="translate(110.61 14.567)"><path d="M160.855,440.864c0,.083-5.754.152-12.85.152s-12.85-.069-12.85-.152,5.753-.153,12.85-.153S160.855,440.779,160.855,440.864Z" transform="translate(-135.154 -440.711)" fill="#e0e0e0"/></g></g><g transform="translate(0 54.218)"><g transform="translate(124.526 1.767)"><rect width="26.529" height="50.266" fill="#ebebeb"/></g><rect width="124.526" height="54.502" fill="#167377"/><g transform="translate(121.122 50.968)"><path d="M167.007,474.705H135v-3.533h32.01a1.767,1.767,0,0,1,1.767,1.767h0A1.767,1.767,0,0,1,167.007,474.705Z" transform="translate(-134.997 -471.172)" fill="#e0e0e0"/></g><g transform="translate(121.122)"><path d="M0,0H32.839a.938.938,0,0,1,.938.938V2.6a.938.938,0,0,1-.937.938H0a0,0,0,0,1,0,0V0A0,0,0,0,1,0,0Z" fill="#e0e0e0"/></g><g transform="translate(124.526 8.353)"><path d="M163.368,448.264c0,.083-5.939.151-13.262.151s-13.266-.068-13.266-.151,5.937-.153,13.266-.153S163.368,448.18,163.368,448.264Z" transform="translate(-136.839 -448.111)" fill="#e0e0e0"/></g><g transform="translate(124.526 14.8)"><path d="M163.368,451.751c0,.085-5.939.154-13.262.154s-13.266-.069-13.266-.154,5.937-.151,13.266-.151S163.368,451.668,163.368,451.751Z" transform="translate(-136.839 -451.6)" fill="#e0e0e0"/></g><g transform="translate(124.526 21.248)"><path d="M163.368,455.241c0,.085-5.939.151-13.262.151s-13.266-.066-13.266-.151,5.937-.152,13.266-.152S163.368,455.157,163.368,455.241Z" transform="translate(-136.839 -455.089)" fill="#e0e0e0"/></g><g transform="translate(124.526 27.695)"><path d="M163.368,458.729c0,.083-5.939.151-13.262.151s-13.266-.068-13.266-.151,5.937-.152,13.266-.152S163.368,458.645,163.368,458.729Z" transform="translate(-136.839 -458.578)" fill="#e0e0e0"/></g><g transform="translate(124.526 34.141)"><path d="M163.368,462.219c0,.083-5.939.152-13.262.152s-13.266-.069-13.266-.152,5.937-.153,13.266-.153S163.368,462.134,163.368,462.219Z" transform="translate(-136.839 -462.066)" fill="#e0e0e0"/></g><g transform="translate(124.526 40.588)"><path d="M163.368,465.706c0,.085-5.939.153-13.262.153s-13.266-.068-13.266-.153,5.937-.152,13.266-.152S163.368,465.623,163.368,465.706Z" transform="translate(-136.839 -465.555)" fill="#e0e0e0"/></g><g transform="translate(124.526 47.035)"><path d="M163.368,469.2c0,.085-5.939.151-13.262.151s-13.266-.067-13.266-.151,5.937-.151,13.266-.151S163.368,469.112,163.368,469.2Z" transform="translate(-136.839 -469.044)" fill="#e0e0e0"/></g></g><g transform="translate(31.916 69.876)"><path d="M97.419,466.64v3.032c0,3.652-1.826,5.738-5.348,5.738s-5.348-2.086-5.348-5.738V457.8c0-3.653,1.826-5.74,5.348-5.74s5.348,2.086,5.348,5.74v2.218H94.028v-2.447c0-1.63-.717-2.251-1.859-2.251s-1.859.621-1.859,2.251V469.9c0,1.631.717,2.217,1.859,2.217s1.859-.586,1.859-2.217v-3.26Z" transform="translate(-86.723 -452.064)" fill="#ebebeb"/><g transform="translate(12.584)"><path d="M93.533,457.8c0-3.653,1.924-5.74,5.446-5.74s5.446,2.086,5.446,5.74v11.869c0,3.652-1.924,5.738-5.446,5.738s-5.446-2.086-5.446-5.738Zm3.587,12.1c0,1.631.717,2.251,1.859,2.251s1.859-.619,1.859-2.251V457.575c0-1.63-.719-2.251-1.859-2.251s-1.859.621-1.859,2.251Z" transform="translate(-93.533 -452.064)" fill="#ebebeb"/></g><g transform="translate(25.788 0.261)"><path d="M100.678,452.205h3.587v19.565h5.9v3.26h-9.489Z" transform="translate(-100.678 -452.205)" fill="#ebebeb"/></g><g transform="translate(36.546)"><path d="M106.5,457.8c0-3.653,1.924-5.74,5.444-5.74s5.446,2.086,5.446,5.74v11.869c0,3.652-1.924,5.738-5.446,5.738s-5.444-2.086-5.444-5.738Zm3.587,12.1c0,1.631.717,2.251,1.857,2.251s1.859-.619,1.859-2.251V457.575c0-1.63-.717-2.251-1.859-2.251s-1.857.621-1.857,2.251Z" transform="translate(-106.5 -452.064)" fill="#ebebeb"/></g><g transform="translate(49.587 0.261)"><path d="M117.144,452.205v17.609c0,1.63.717,2.217,1.859,2.217s1.859-.588,1.859-2.217V452.205h3.391v17.379c0,3.653-1.826,5.74-5.348,5.74s-5.348-2.086-5.348-5.74V452.205Z" transform="translate(-113.557 -452.205)" fill="#ebebeb"/></g><g transform="translate(62.726 0.261)"><path d="M128.166,475.03a7.013,7.013,0,0,1-.325-2.8V468.64c0-2.12-.717-2.9-2.349-2.9h-1.238v9.293h-3.587V452.205h5.413c3.718,0,5.315,1.728,5.315,5.25v1.793c0,2.349-.75,3.881-2.347,4.631,1.792.75,2.38,2.478,2.38,4.86v3.52a6.692,6.692,0,0,0,.392,2.772Zm-3.912-19.564v7.011h1.4c1.336,0,2.151-.588,2.151-2.413v-2.251c0-1.63-.554-2.347-1.826-2.347Z" transform="translate(-120.667 -452.205)" fill="#ebebeb"/></g></g><g transform="translate(39.221 41.039)"><g transform="translate(0 0.445)"><path d="M93.291,437.378H90.676l.137-.678h6l-.148.678H94.063l-1.343,6.734h-.772Z" transform="translate(-90.676 -436.7)" fill="#e0e0e0"/></g><g transform="translate(3.777 2.288)"><path d="M100.121,437.7l-4.065,6.291c-.689,1.059-1.207,1.387-2.012,1.387a1.8,1.8,0,0,1-1.323-.5l.4-.551a1.3,1.3,0,0,0,.985.4c.479,0,.848-.222,1.282-.9l.392-.593L94.392,437.7h.763l1.153,4.743,3.04-4.743Z" transform="translate(-92.72 -437.697)" fill="#e0e0e0"/></g><g transform="translate(10.709 2.247)"><path d="M103.133,440.026a3.138,3.138,0,0,1-3.156,3.313,2.084,2.084,0,0,1-2.118-1.218l-.636,3.219h-.752l1.515-7.625h.719l-.179.891a2.821,2.821,0,0,1,2.171-.932A2.252,2.252,0,0,1,103.133,440.026Zm-.763.042a1.631,1.631,0,0,0-1.831-1.737,2.431,2.431,0,0,0-2.4,2.615,1.624,1.624,0,0,0,1.833,1.726A2.427,2.427,0,0,0,102.37,440.068Z" transform="translate(-96.471 -437.675)" fill="#e0e0e0"/></g><g transform="translate(18.244 2.247)"><path d="M100.549,440.977a3.161,3.161,0,0,1,3.219-3.3,2.281,2.281,0,0,1,2.532,2.351,3.163,3.163,0,0,1-3.219,3.313A2.3,2.3,0,0,1,100.549,440.977Zm5-.909a1.631,1.631,0,0,0-1.831-1.737,2.445,2.445,0,0,0-2.415,2.615,1.624,1.624,0,0,0,1.833,1.726A2.436,2.436,0,0,0,105.548,440.068Z" transform="translate(-100.549 -437.675)" fill="#e0e0e0"/></g><g transform="translate(24.511 2.247)"><path d="M110.631,437.716l-.974,4.893c-.392,1.968-1.428,2.785-3.239,2.785a3.539,3.539,0,0,1-2.478-.837l.445-.571a2.914,2.914,0,0,0,2.086.741,2.18,2.18,0,0,0,2.413-1.99l.128-.615a2.889,2.889,0,0,1-2.225.953,2.207,2.207,0,0,1-2.456-2.245,3.077,3.077,0,0,1,3.177-3.155,2.134,2.134,0,0,1,2.171,1.27l.233-1.229Zm-1.27,2.234c0-1.017-.687-1.619-1.842-1.619a2.362,2.362,0,0,0-2.424,2.456c0,1.016.676,1.621,1.842,1.621A2.368,2.368,0,0,0,109.362,439.95Z" transform="translate(-103.94 -437.675)" fill="#e0e0e0"/></g><g transform="translate(32.194 2.247)"><path d="M112.016,437.675l-.137.73c-.074,0-.127-.011-.212-.011a2.2,2.2,0,0,0-2.255,2.066l-.562,2.826H108.1l1.1-5.57h.721l-.192,1.016A2.52,2.52,0,0,1,112.016,437.675Z" transform="translate(-108.098 -437.675)" fill="#e0e0e0"/></g><g transform="translate(36.249 2.247)"><path d="M116.538,437.716l-1.111,5.57h-.721l.181-.878a2.858,2.858,0,0,1-2.171.932,2.246,2.246,0,0,1-2.424-2.362,3.131,3.131,0,0,1,3.145-3.3,2.09,2.09,0,0,1,2.118,1.207l.233-1.166Zm-1.249,2.352a1.631,1.631,0,0,0-1.831-1.737,2.443,2.443,0,0,0-2.413,2.615,1.624,1.624,0,0,0,1.831,1.726A2.435,2.435,0,0,0,115.289,440.068Z" transform="translate(-110.292 -437.675)" fill="#e0e0e0"/></g><g transform="translate(43.064 2.247)"><path d="M120.64,440.026a3.138,3.138,0,0,1-3.154,3.313,2.085,2.085,0,0,1-2.12-1.218l-.634,3.219h-.752l1.513-7.625h.721l-.181.891a2.821,2.821,0,0,1,2.171-.932A2.251,2.251,0,0,1,120.64,440.026Zm-.761.042a1.631,1.631,0,0,0-1.833-1.737,2.431,2.431,0,0,0-2.4,2.615,1.624,1.624,0,0,0,1.831,1.726A2.429,2.429,0,0,0,119.879,440.068Z" transform="translate(-113.98 -437.675)" fill="#e0e0e0"/></g><g transform="translate(50.653)"><path d="M123.9,440.515a3.4,3.4,0,0,1-.065.636l-.636,3.165h-.752l.636-3.176a3,3,0,0,0,.053-.508c0-.793-.477-1.249-1.44-1.249a2.172,2.172,0,0,0-2.267,1.95l-.593,2.984h-.75l1.567-7.857h.75l-.625,3.125a2.719,2.719,0,0,1,2.129-.878A1.746,1.746,0,0,1,123.9,440.515Z" transform="translate(-118.087 -436.459)" fill="#e0e0e0"/></g><g transform="translate(56.103 2.288)"><path d="M128.437,437.7l-4.065,6.291c-.689,1.059-1.209,1.387-2.012,1.387a1.8,1.8,0,0,1-1.323-.5l.4-.551a1.3,1.3,0,0,0,.985.4c.477,0,.846-.222,1.282-.9l.392-.593-1.388-5.538h.761l1.155,4.743,3.038-4.743Z" transform="translate(-121.036 -437.697)" fill="#e0e0e0"/></g></g></g><g transform="translate(413.358 6662.243)"><g transform="translate(5.531 6.684)"><g transform="translate(155.774 158.035)"><path d="M461.036,106.317c0-.216,1.506-.39,3.36-.39.361.006.715.014,1.13.023l-.367.364c.054-1.3.2-2.227.367-2.227s.31.925.365,2.227l.017.362-.382.006c-.416.009-.769.017-1.13.023C462.542,106.7,461.036,106.531,461.036,106.317Z" transform="translate(-461.036 -104.088)" fill="#e0e0e0"/></g><g transform="translate(146.8 159.874)"><path d="M457.884,105.124c0-.216,1.005-.39,2.243-.39s2.244.174,2.244.39-1.005.387-2.244.387S457.884,105.338,457.884,105.124Z" transform="translate(-457.884 -104.734)" fill="#e0e0e0"/></g><g transform="translate(137.825 159.874)"><path d="M454.732,105.124c0-.216,1-.39,2.244-.39s2.244.174,2.244.39-1.005.387-2.244.387S454.732,105.338,454.732,105.124Z" transform="translate(-454.732 -104.734)" fill="#e0e0e0"/></g><g transform="translate(128.848 159.874)"><path d="M451.579,105.124c0-.216,1.005-.39,2.244-.39s2.244.174,2.244.39-1,.387-2.244.387S451.579,105.338,451.579,105.124Z" transform="translate(-451.579 -104.734)" fill="#e0e0e0"/></g><g transform="translate(119.874 159.874)"><path d="M448.427,105.124c0-.216,1-.39,2.244-.39s2.244.174,2.244.39-1.005.387-2.244.387S448.427,105.338,448.427,105.124Z" transform="translate(-448.427 -104.734)" fill="#e0e0e0"/></g><g transform="translate(110.896 159.874)"><path d="M445.274,105.124c0-.216,1.005-.39,2.244-.39s2.246.174,2.246.39-1.005.387-2.246.387S445.274,105.338,445.274,105.124Z" transform="translate(-445.274 -104.734)" fill="#e0e0e0"/></g><g transform="translate(101.922 159.874)"><path d="M442.122,105.124c0-.216,1.005-.39,2.244-.39s2.244.174,2.244.39-1,.387-2.244.387S442.122,105.338,442.122,105.124Z" transform="translate(-442.122 -104.734)" fill="#e0e0e0"/></g><g transform="translate(92.945 159.874)"><path d="M438.969,105.124c0-.216,1.005-.39,2.247-.39s2.244.174,2.244.39-1.005.387-2.244.387S438.969,105.338,438.969,105.124Z" transform="translate(-438.969 -104.734)" fill="#e0e0e0"/></g><g transform="translate(83.97 159.874)"><path d="M435.817,105.124c0-.216,1.005-.39,2.244-.39s2.244.174,2.244.39-1,.387-2.244.387S435.817,105.338,435.817,105.124Z" transform="translate(-435.817 -104.734)" fill="#e0e0e0"/></g><g transform="translate(74.996 159.874)"><path d="M432.665,105.124c0-.216,1.005-.39,2.244-.39s2.244.174,2.244.39-1.005.387-2.244.387S432.665,105.338,432.665,105.124Z" transform="translate(-432.665 -104.734)" fill="#e0e0e0"/></g><g transform="translate(66.018 159.874)"><path d="M429.512,105.124c0-.216,1.005-.39,2.244-.39s2.244.174,2.244.39-1,.387-2.244.387S429.512,105.338,429.512,105.124Z" transform="translate(-429.512 -104.734)" fill="#e0e0e0"/></g><g transform="translate(57.044 159.874)"><path d="M426.36,105.124c0-.216,1.005-.39,2.244-.39s2.244.174,2.244.39-1.005.387-2.244.387S426.36,105.338,426.36,105.124Z" transform="translate(-426.36 -104.734)" fill="#e0e0e0"/></g><g transform="translate(48.067 159.874)"><path d="M423.207,105.124c0-.216,1.005-.39,2.246-.39s2.243.174,2.243.39-1.005.387-2.243.387S423.207,105.338,423.207,105.124Z" transform="translate(-423.207 -104.734)" fill="#e0e0e0"/></g><g transform="translate(39.092 159.874)"><path d="M420.055,105.124c0-.216,1.005-.39,2.244-.39s2.244.174,2.244.39-1.005.387-2.244.387S420.055,105.338,420.055,105.124Z" transform="translate(-420.055 -104.734)" fill="#e0e0e0"/></g><g transform="translate(30.118 159.874)"><path d="M416.9,105.124c0-.216,1.005-.39,2.244-.39s2.243.174,2.243.39-1.005.387-2.243.387S416.9,105.338,416.9,105.124Z" transform="translate(-416.903 -104.734)" fill="#e0e0e0"/></g><g transform="translate(21.141 159.874)"><path d="M413.75,105.124c0-.216,1.005-.39,2.244-.39s2.244.174,2.244.39-1,.387-2.244.387S413.75,105.338,413.75,105.124Z" transform="translate(-413.75 -104.734)" fill="#e0e0e0"/></g><g transform="translate(12.166 159.874)"><path d="M410.6,105.124c0-.216,1.005-.39,2.244-.39s2.244.174,2.244.39-1.005.387-2.244.387S410.6,105.338,410.6,105.124Z" transform="translate(-410.598 -104.734)" fill="#e0e0e0"/></g><g transform="translate(3.189 159.874)"><path d="M407.445,105.124c0-.216,1-.39,2.243-.39s2.246.174,2.246.39-1.005.387-2.246.387S407.445,105.338,407.445,105.124Z" transform="translate(-407.445 -104.734)" fill="#e0e0e0"/></g><g transform="translate(0 154.089)"><path d="M406.715,102.7c.213,0,.387,1.005.387,2.244s-.174,2.244-.387,2.244-.39-1.005-.39-2.244S406.5,102.7,406.715,102.7Z" transform="translate(-406.325 -102.702)" fill="#e0e0e0"/></g><g transform="translate(0 145.112)"><path d="M406.715,99.549c.213,0,.387,1.005.387,2.246s-.174,2.244-.387,2.244-.39-1.005-.39-2.244S406.5,99.549,406.715,99.549Z" transform="translate(-406.325 -99.549)" fill="#e0e0e0"/></g><g transform="translate(0 136.137)"><path d="M406.715,96.4c.213,0,.387,1.005.387,2.244s-.174,2.244-.387,2.244-.39-1.005-.39-2.244S406.5,96.4,406.715,96.4Z" transform="translate(-406.325 -96.397)" fill="#e0e0e0"/></g><g transform="translate(0 127.163)"><path d="M406.715,93.245c.213,0,.387,1,.387,2.244s-.174,2.244-.387,2.244-.39-1.005-.39-2.244S406.5,93.245,406.715,93.245Z" transform="translate(-406.325 -93.245)" fill="#e0e0e0"/></g><g transform="translate(0 118.185)"><path d="M406.715,90.092c.213,0,.387,1.005.387,2.244s-.174,2.244-.387,2.244-.39-1-.39-2.244S406.5,90.092,406.715,90.092Z" transform="translate(-406.325 -90.092)" fill="#e0e0e0"/></g><g transform="translate(0 109.211)"><path d="M406.715,86.94c.213,0,.387,1.005.387,2.244s-.174,2.244-.387,2.244-.39-1.005-.39-2.244S406.5,86.94,406.715,86.94Z" transform="translate(-406.325 -86.94)" fill="#e0e0e0"/></g><g transform="translate(0 100.234)"><path d="M406.715,83.787c.213,0,.387,1.005.387,2.244s-.174,2.246-.387,2.246-.39-1.005-.39-2.246S406.5,83.787,406.715,83.787Z" transform="translate(-406.325 -83.787)" fill="#e0e0e0"/></g><g transform="translate(0 91.259)"><path d="M406.715,80.635c.213,0,.387,1.005.387,2.244s-.174,2.244-.387,2.244-.39-1.005-.39-2.244S406.5,80.635,406.715,80.635Z" transform="translate(-406.325 -80.635)" fill="#e0e0e0"/></g><g transform="translate(0 82.285)"><path d="M406.715,77.483c.213,0,.387,1,.387,2.244s-.174,2.244-.387,2.244-.39-1.005-.39-2.244S406.5,77.483,406.715,77.483Z" transform="translate(-406.325 -77.483)" fill="#e0e0e0"/></g><g transform="translate(0 73.307)"><path d="M406.715,74.33c.213,0,.387,1.005.387,2.244s-.174,2.244-.387,2.244-.39-1.005-.39-2.244S406.5,74.33,406.715,74.33Z" transform="translate(-406.325 -74.33)" fill="#e0e0e0"/></g><g transform="translate(0 64.333)"><path d="M406.715,71.178c.213,0,.387,1.005.387,2.244s-.174,2.244-.387,2.244-.39-1.005-.39-2.244S406.5,71.178,406.715,71.178Z" transform="translate(-406.325 -71.178)" fill="#e0e0e0"/></g><g transform="translate(0 55.356)"><path d="M406.715,68.025c.213,0,.387,1.005.387,2.244s-.174,2.244-.387,2.244-.39-1-.39-2.244S406.5,68.025,406.715,68.025Z" transform="translate(-406.325 -68.025)" fill="#e0e0e0"/></g><g transform="translate(0 46.381)"><path d="M406.715,64.873c.213,0,.387,1.005.387,2.244s-.174,2.244-.387,2.244-.39-1.005-.39-2.244S406.5,64.873,406.715,64.873Z" transform="translate(-406.325 -64.873)" fill="#e0e0e0"/></g><g transform="translate(0 37.404)"><path d="M406.715,61.72c.213,0,.387,1.005.387,2.244s-.174,2.246-.387,2.246-.39-1.005-.39-2.246S406.5,61.72,406.715,61.72Z" transform="translate(-406.325 -61.72)" fill="#e0e0e0"/></g><g transform="translate(0 28.43)"><path d="M406.715,58.568c.213,0,.387,1.005.387,2.244s-.174,2.244-.387,2.244-.39-1.005-.39-2.244S406.5,58.568,406.715,58.568Z" transform="translate(-406.325 -58.568)" fill="#e0e0e0"/></g><g transform="translate(0 19.455)"><path d="M406.715,55.416c.213,0,.387,1,.387,2.244s-.174,2.244-.387,2.244-.39-1.005-.39-2.244S406.5,55.416,406.715,55.416Z" transform="translate(-406.325 -55.416)" fill="#e0e0e0"/></g><g transform="translate(0 10.478)"><path d="M406.715,52.263c.213,0,.387,1.005.387,2.244s-.174,2.244-.387,2.244-.39-1-.39-2.244S406.5,52.263,406.715,52.263Z" transform="translate(-406.325 -52.263)" fill="#e0e0e0"/></g><g transform="translate(0 1.503)"><path d="M406.715,49.111c.213,0,.387,1.005.387,2.244s-.174,2.244-.387,2.244-.39-1.005-.39-2.244S406.5,49.111,406.715,49.111Z" transform="translate(-406.325 -49.111)" fill="#e0e0e0"/></g><g transform="translate(3.761)"><path d="M412.136,48.973c0,.214-1.005.387-2.243.387s-2.246-.174-2.246-.387,1.005-.39,2.246-.39S412.136,48.757,412.136,48.973Z" transform="translate(-407.646 -48.583)" fill="#e0e0e0"/></g><g transform="translate(12.738)"><path d="M415.286,48.973c0,.214-1.005.387-2.244.387s-2.243-.174-2.243-.387,1-.39,2.243-.39S415.286,48.757,415.286,48.973Z" transform="translate(-410.799 -48.583)" fill="#e0e0e0"/></g><g transform="translate(21.713)"><path d="M418.441,48.973c0,.214-1.005.387-2.246.387s-2.244-.174-2.244-.387,1-.39,2.244-.39S418.441,48.757,418.441,48.973Z" transform="translate(-413.951 -48.583)" fill="#e0e0e0"/></g><g transform="translate(30.69)"><path d="M421.591,48.973c0,.214-1.005.387-2.244.387s-2.243-.174-2.243-.387,1.005-.39,2.243-.39S421.591,48.757,421.591,48.973Z" transform="translate(-417.104 -48.583)" fill="#e0e0e0"/></g><g transform="translate(39.665)"><path d="M424.743,48.973c0,.214-1,.387-2.244.387s-2.244-.174-2.244-.387,1.005-.39,2.244-.39S424.743,48.757,424.743,48.973Z" transform="translate(-420.256 -48.583)" fill="#e0e0e0"/></g><g transform="translate(48.642)"><path d="M427.9,48.973c0,.214-1.005.387-2.244.387s-2.244-.174-2.244-.387,1-.39,2.244-.39S427.9,48.757,427.9,48.973Z" transform="translate(-423.409 -48.583)" fill="#e0e0e0"/></g><g transform="translate(57.616)"><path d="M431.048,48.973c0,.214-1,.387-2.243.387s-2.244-.174-2.244-.387,1.005-.39,2.244-.39S431.048,48.757,431.048,48.973Z" transform="translate(-426.561 -48.583)" fill="#e0e0e0"/></g><g transform="translate(66.591)"><path d="M434.2,48.973c0,.214-1.005.387-2.244.387s-2.247-.174-2.247-.387,1.005-.39,2.247-.39S434.2,48.757,434.2,48.973Z" transform="translate(-429.713 -48.583)" fill="#e0e0e0"/></g><g transform="translate(75.568)"><path d="M437.353,48.973c0,.214-1.005.387-2.244.387s-2.244-.174-2.244-.387,1-.39,2.244-.39S437.353,48.757,437.353,48.973Z" transform="translate(-432.866 -48.583)" fill="#e0e0e0"/></g><g transform="translate(84.543)"><path d="M440.505,48.973c0,.214-1,.387-2.244.387s-2.244-.174-2.244-.387,1.005-.39,2.244-.39S440.505,48.757,440.505,48.973Z" transform="translate(-436.018 -48.583)" fill="#e0e0e0"/></g><g transform="translate(93.52)"><path d="M443.658,48.973c0,.214-1.005.387-2.244.387s-2.244-.174-2.244-.387,1-.39,2.244-.39S443.658,48.757,443.658,48.973Z" transform="translate(-439.171 -48.583)" fill="#e0e0e0"/></g><g transform="translate(102.494)"><path d="M446.81,48.973c0,.214-1.005.387-2.244.387s-2.244-.174-2.244-.387,1.005-.39,2.244-.39S446.81,48.757,446.81,48.973Z" transform="translate(-442.323 -48.583)" fill="#e0e0e0"/></g><g transform="translate(111.469)"><path d="M449.965,48.973c0,.214-1.005.387-2.244.387s-2.246-.174-2.246-.387,1.005-.39,2.246-.39S449.965,48.757,449.965,48.973Z" transform="translate(-445.475 -48.583)" fill="#e0e0e0"/></g><g transform="translate(120.446)"><path d="M453.115,48.973c0,.214-1.005.387-2.244.387s-2.244-.174-2.244-.387,1.005-.39,2.244-.39S453.115,48.757,453.115,48.973Z" transform="translate(-448.628 -48.583)" fill="#e0e0e0"/></g><g transform="translate(129.42)"><path d="M456.267,48.973c0,.214-1,.387-2.244.387s-2.244-.174-2.244-.387,1-.39,2.244-.39S456.267,48.757,456.267,48.973Z" transform="translate(-451.78 -48.583)" fill="#e0e0e0"/></g><g transform="translate(138.398)"><path d="M459.42,48.973c0,.214-1.005.387-2.244.387s-2.244-.174-2.244-.387,1.005-.39,2.244-.39S459.42,48.757,459.42,48.973Z" transform="translate(-454.933 -48.583)" fill="#e0e0e0"/></g><g transform="translate(147.372)"><path d="M462.572,48.973c0,.214-1.005.387-2.244.387s-2.243-.174-2.243-.387,1.005-.39,2.243-.39S462.572,48.757,462.572,48.973Z" transform="translate(-458.085 -48.583)" fill="#e0e0e0"/></g><g transform="translate(156.349)"><path d="M465.153,49.545c-.1,0-.191-.214-.259-.572l.259.256a9.292,9.292,0,0,1-1.671.131c-1.241,0-2.244-.174-2.244-.387s1-.39,2.244-.39a9.035,9.035,0,0,1,1.671.131l.3.057-.04.2C465.341,49.332,465.25,49.545,465.153,49.545Z" transform="translate(-461.238 -48.583)" fill="#e0e0e0"/></g><g transform="translate(159.874 5.45)"><path d="M462.866,54.984c-.216,0-.39-1.005-.39-2.244s.174-2.244.39-2.244.387,1.005.387,2.244S463.079,54.984,462.866,54.984Z" transform="translate(-462.476 -50.497)" fill="#e0e0e0"/></g><g transform="translate(159.874 14.424)"><path d="M462.866,58.136c-.216,0-.39-1-.39-2.244s.174-2.244.39-2.244.387,1.005.387,2.244S463.079,58.136,462.866,58.136Z" transform="translate(-462.476 -53.649)" fill="#e0e0e0"/></g><g transform="translate(159.874 23.401)"><path d="M462.866,61.289c-.216,0-.39-1.005-.39-2.244s.174-2.244.39-2.244.387,1,.387,2.244S463.079,61.289,462.866,61.289Z" transform="translate(-462.476 -56.802)" fill="#e0e0e0"/></g><g transform="translate(159.874 32.376)"><path d="M462.866,64.441c-.216,0-.39-1.005-.39-2.244s.174-2.244.39-2.244.387,1.005.387,2.244S463.079,64.441,462.866,64.441Z" transform="translate(-462.476 -59.954)" fill="#e0e0e0"/></g><g transform="translate(159.874 41.35)"><path d="M462.866,67.6c-.216,0-.39-1.005-.39-2.244s.174-2.246.39-2.246.387,1.005.387,2.246S463.079,67.6,462.866,67.6Z" transform="translate(-462.476 -63.106)" fill="#e0e0e0"/></g><g transform="translate(159.874 50.328)"><path d="M462.866,70.746c-.216,0-.39-1.005-.39-2.244s.174-2.244.39-2.244.387,1.005.387,2.244S463.079,70.746,462.866,70.746Z" transform="translate(-462.476 -66.259)" fill="#e0e0e0"/></g><g transform="translate(159.874 59.302)"><path d="M462.866,73.9c-.216,0-.39-1.005-.39-2.246s.174-2.244.39-2.244.387,1.005.387,2.244S463.079,73.9,462.866,73.9Z" transform="translate(-462.476 -69.411)" fill="#e0e0e0"/></g><g transform="translate(159.874 68.279)"><path d="M462.866,77.051c-.216,0-.39-1.005-.39-2.244s.174-2.244.39-2.244.387,1,.387,2.244S463.079,77.051,462.866,77.051Z" transform="translate(-462.476 -72.564)" fill="#e0e0e0"/></g><g transform="translate(159.874 77.254)"><path d="M462.866,80.2c-.216,0-.39-1.005-.39-2.244s.174-2.244.39-2.244.387,1.005.387,2.244S463.079,80.2,462.866,80.2Z" transform="translate(-462.476 -75.716)" fill="#e0e0e0"/></g><g transform="translate(159.874 86.231)"><path d="M462.866,83.356c-.216,0-.39-1.005-.39-2.244s.174-2.244.39-2.244.387,1,.387,2.244S463.079,83.356,462.866,83.356Z" transform="translate(-462.476 -78.869)" fill="#e0e0e0"/></g><g transform="translate(159.874 95.205)"><path d="M462.866,86.508c-.216,0-.39-1.005-.39-2.244s.174-2.244.39-2.244.387,1.005.387,2.244S463.079,86.508,462.866,86.508Z" transform="translate(-462.476 -82.021)" fill="#e0e0e0"/></g><g transform="translate(159.874 104.18)"><path d="M462.866,89.663c-.216,0-.39-1.005-.39-2.246s.174-2.244.39-2.244.387,1.005.387,2.244S463.079,89.663,462.866,89.663Z" transform="translate(-462.476 -85.173)" fill="#e0e0e0"/></g><g transform="translate(159.874 113.157)"><path d="M462.866,92.813c-.216,0-.39-1.005-.39-2.244s.174-2.244.39-2.244.387,1,.387,2.244S463.079,92.813,462.866,92.813Z" transform="translate(-462.476 -88.326)" fill="#e0e0e0"/></g><g transform="translate(159.874 122.132)"><path d="M462.866,95.965c-.216,0-.39-1-.39-2.244s.174-2.244.39-2.244.387,1.005.387,2.244S463.079,95.965,462.866,95.965Z" transform="translate(-462.476 -91.478)" fill="#e0e0e0"/></g><g transform="translate(159.874 131.109)"><path d="M462.866,99.118c-.216,0-.39-1.005-.39-2.244s.174-2.244.39-2.244.387,1,.387,2.244S463.079,99.118,462.866,99.118Z" transform="translate(-462.476 -94.631)" fill="#e0e0e0"/></g><g transform="translate(159.874 140.083)"><path d="M462.866,102.27c-.216,0-.39-1.005-.39-2.244s.174-2.244.39-2.244.387,1.005.387,2.244S463.079,102.27,462.866,102.27Z" transform="translate(-462.476 -97.783)" fill="#e0e0e0"/></g><g transform="translate(159.874 149.061)"><path d="M462.866,105.423c-.216,0-.39-1.005-.39-2.244s.174-2.244.39-2.244.387,1,.387,2.244S463.079,105.423,462.866,105.423Z" transform="translate(-462.476 -100.936)" fill="#e0e0e0"/></g></g><rect width="11.84" height="11.84" transform="translate(159.874 159.407)" fill="#e0e0e0"/><rect width="11.84" height="11.84" transform="translate(0 161.027)" fill="#e0e0e0"/><rect width="11.84" height="11.84" transform="translate(159.874)" fill="#e0e0e0"/><rect width="11.84" height="11.84" transform="translate(0 1.153)" fill="#e0e0e0"/></g><g transform="translate(204.33 6724.938)"><g transform="translate(0)"><path d="M196.461,368.011c0,8.7-5.043,175.689-5.043,175.689l71.105-.359,12.427-74.22,3.272,74.22h68.207l-7.405-183.294Z" transform="translate(-134.856 29.682)" fill="#fcebd5"/><g transform="translate(131.206 73.595)"><path d="M209.882,385.379,246.2,331.231l-26.945-21.883L173.7,351.6S154.09,241.664,134.777,235l1.5,170.546h0A58.363,58.363,0,0,0,209.882,385.379Z" transform="translate(-76.854 -130.432)" fill="#12263f"/><path d="M319.675,173.195l-7.723,105.4L185.435,521.113,112.3,478.75,236.976,241.737Z" transform="translate(-112.298 -173.195)" fill="#ffd947"/><g transform="translate(123.431 0)" opacity="0.7"><path d="M112.3,242.19a7.436,7.436,0,0,0,10.816,2.122,18.807,18.807,0,0,0,30.073,19.122,21.942,21.942,0,0,0,35.386,14.373l7.671-104.611Z" transform="translate(-112.297 -173.195)" fill="#fff"/></g><path d="M143.072,215.582s-17.144,10.764-30.775-14.3l33.882-28.082Z" transform="translate(61.199 -173.195)" fill="#12263f"/><g transform="translate(45.26 90.608)"><path d="M137.572,464.248c.217.11,27.114-52.973,60.069-118.546,32.966-65.6,59.506-118.845,59.287-118.954s-27.109,52.96-60.074,118.558C163.9,410.881,137.353,464.14,137.572,464.248Z" transform="translate(-137.57 -226.749)" fill="#fff"/></g><g transform="translate(14.85 72.41)"><path d="M155.545,453.494c.218.108,27.116-52.973,60.071-118.547,32.965-65.6,59.5-118.845,59.287-118.953s-27.109,52.961-60.076,118.558C181.872,400.125,155.328,453.384,155.545,453.494Z" transform="translate(-155.543 -215.993)" fill="#fff"/></g><g transform="translate(145.71 141.199)"><path d="M144.283,256.651l16.41,6.556,3.518,13.222-5.653,22.056L145.3,312.544l-8.942-7.392-.562-13.5-1.093-7.556s-8.091-2.538-8.29-3.776,1-5.389,2.245-5.588,9.727,2.959,9.727,2.959-10.045-7.95-9.764-9.228,1.36-4.543,3.363-4.9,18.212,7.275,18.212,7.275l2.631,6,2.3-9.595S140.723,263.2,144.283,256.651Z" transform="translate(-126.395 -256.651)" fill="#b78876"/><g transform="translate(12.069 20.865)"><path d="M142.778,279.12c.1.03.4-.569.555-1.634a8.9,8.9,0,0,0-2.815-7.607c-.809-.711-1.431-.966-1.485-.88-.162.195,1.976,1.732,3.015,4.639C143.15,276.518,142.528,279.078,142.778,279.12Z" transform="translate(-139.023 -268.983)" fill="#aa6550"/></g><g transform="translate(3.671 10.254)"><path d="M154.729,280.6a35.928,35.928,0,0,1-.65-4.3,18.714,18.714,0,0,0-.826-4.761,7.029,7.029,0,0,0-1.511-2.541,7.5,7.5,0,0,0-2.682-1.687c-3.925-1.423-7.458-2.575-10.045-3.411a22.611,22.611,0,0,0-4.238-1.167,22.452,22.452,0,0,0,4.04,1.732c2.519.975,6.076,2.237,9.925,3.633a6.834,6.834,0,0,1,2.4,1.479,6.423,6.423,0,0,1,1.374,2.233,20.706,20.706,0,0,1,.963,4.56C153.8,279.088,154.619,280.665,154.729,280.6Z" transform="translate(-134.778 -262.711)" fill="#aa6550"/></g><g transform="translate(26.195 18.838)"><path d="M133.664,274.119c.23-.039.183-1.487-.1-3.235s-.711-3.137-.941-3.1-.184,1.487.1,3.235S133.433,274.158,133.664,274.119Z" transform="translate(-132.472 -267.786)" fill="#aa6550"/></g></g></g><path d="M203.776,218.37l14.388-4.891,53.767,12.342,4.763,3.946,28.471,263.475c-12.224,12.6-50.757,15.1-72.636,11.373Z" transform="translate(-115.149 -71.728)" fill="url(#a)"/><path d="M286.371,218.079l6.918-3.458s15.222,67.072,15.222,111.372,9.571,204.9,9.571,204.9l-72.533-1.868V351.612Z" transform="translate(-195.041 -70.937)" fill="#12263f"/><path d="M216.327,528.1l27.48-8.048-9.588-129.848,1.819-94.127-14.393-52.46-34.11-21.076S214.449,512.459,216.327,528.1Z" transform="translate(-28.201 -65.456)" fill="#12263f"/><g transform="translate(84.404)"><g transform="translate(0)"><g transform="translate(0 25.999)"><g transform="translate(11.807)"><path d="M247.069,298.123h0A26.477,26.477,0,0,0,271.2,271.65l-.088-23.56s21.766-3.385,22.035-25.147-3.506-71.734-3.506-71.734h0a75.633,75.633,0,0,0-76,9.554l-3.225,2.482,7.893,110.393A26.477,26.477,0,0,0,247.069,298.123Z" transform="translate(-210.416 -145.063)" fill="#b78876"/><g transform="translate(32.357 94.651)"><path d="M251.768,209.069s-13.753,1.12-28.371-8.062c0,0,6.707,15.662,28.422,13.7Z" transform="translate(-223.397 -201.007)" fill="#aa6550"/></g></g><g transform="translate(0 40.038)"><path d="M271.723,169.413c-.371-.161-14.953-4.423-14.478,10.456s15.315,11.332,15.327,10.9S271.723,169.413,271.723,169.413Z" transform="translate(-257.234 -168.728)" fill="#b78876"/><g transform="translate(3.788 4.871)"><path d="M266.842,183.29c-.066-.044-.254.191-.685.406a2.6,2.6,0,0,1-1.936.1c-1.59-.528-2.993-2.981-3.152-5.659a8.571,8.571,0,0,1,.607-3.734,3,3,0,0,1,1.886-2.052,1.319,1.319,0,0,1,1.551.662c.213.409.129.711.208.733.042.036.311-.259.172-.87a1.666,1.666,0,0,0-.616-.914,1.955,1.955,0,0,0-1.445-.333,3.646,3.646,0,0,0-2.634,2.394,8.8,8.8,0,0,0-.766,4.176c.191,2.995,1.815,5.751,3.986,6.3a2.777,2.777,0,0,0,2.358-.47C266.827,183.652,266.895,183.315,266.842,183.29Z" transform="translate(-260.018 -171.607)" fill="#aa6550"/></g></g><g transform="translate(39.641 21.771)"><g transform="translate(2.113 11.723)"><g transform="translate(32.875)"><g transform="translate(3.063 3.327)"><path d="M222.914,169.636a3.106,3.106,0,0,1-3,3.135,2.973,2.973,0,0,1-3.2-2.8,3.111,3.111,0,0,1,2.995-3.138A2.976,2.976,0,0,1,222.914,169.636Z" transform="translate(-216.712 -166.826)" fill="#263238"/></g><path d="M227.183,168.127c-.384.4-2.739-1.338-6.084-1.328-3.34-.041-5.795,1.68-6.157,1.271-.179-.181.213-.912,1.282-1.69a8.527,8.527,0,0,1,4.928-1.519A8.2,8.2,0,0,1,226,166.423C227.026,167.212,227.373,167.944,227.183,168.127Z" transform="translate(-214.901 -164.86)" fill="#263238"/></g><g transform="translate(0 0.624)"><g transform="translate(3.065 4.113)"><path d="M242.344,170.468a3.108,3.108,0,0,1-3,3.135,2.973,2.973,0,0,1-3.2-2.8,3.109,3.109,0,0,1,2.995-3.137A2.973,2.973,0,0,1,242.344,170.468Z" transform="translate(-236.142 -167.66)" fill="#263238"/></g><path d="M246.616,168.494c-.386.406-2.744-1.337-6.086-1.328-3.34-.039-5.795,1.682-6.158,1.272-.178-.181.211-.912,1.284-1.69a8.528,8.528,0,0,1,4.928-1.519,8.2,8.2,0,0,1,4.844,1.563C246.453,167.581,246.8,168.313,246.616,168.494Z" transform="translate(-234.33 -165.229)" fill="#263238"/></g><g transform="translate(22.855 0.826)"><path d="M223.716,193.215c-.015-.191,2.064-.55,5.433-.981.853-.088,1.661-.257,1.805-.841a4.344,4.344,0,0,0-.57-2.531l-2.524-6.5c-3.507-9.258-6.047-16.872-5.673-17.01s3.521,7.255,7.028,16.515q1.266,3.424,2.419,6.541a4.94,4.94,0,0,1,.442,3.352,2.14,2.14,0,0,1-1.4,1.249,5.787,5.787,0,0,1-1.452.2C225.832,193.389,223.729,193.4,223.716,193.215Z" transform="translate(-222.15 -165.348)" fill="#263238"/></g></g><path d="M249.1,160.438c-.33.909-3.67.479-7.593.951-3.934.394-7.1,1.543-7.617.727-.232-.389.318-1.245,1.6-2.125a13.291,13.291,0,0,1,11.588-1.279C248.517,159.293,249.243,160.007,249.1,160.438Z" transform="translate(-233.839 -157.931)" fill="#263238"/><g transform="translate(34.655 1.847)"><path d="M226.993,162.487c-.589.76-2.893-.029-5.663-.066-2.77-.134-5.116.511-5.656-.284-.237-.386.132-1.147,1.157-1.866a8.2,8.2,0,0,1,9.119.283C226.931,161.333,227.252,162.116,226.993,162.487Z" transform="translate(-215.605 -159.023)" fill="#263238"/></g></g></g><g transform="translate(3.928)"><path d="M303.915,148.1a8.034,8.034,0,0,0-2.966-7.179c-2.2-1.584-5.6-1.484-7.383.553a6.65,6.65,0,0,0-5.717-8.065c-3.55-.225-6.576,2.457-10.006,3.4-3.347.917-6.94.123-10.162-1.174s-6.229-3.086-9.49-4.277A27.83,27.83,0,0,0,222.6,147.7c-4.759-1.487-10.167.93-13.1,4.961s-3.687,9.327-3.1,14.28a45.359,45.359,0,0,0,2.487,9.764c0,.281-.027.555-.022.836.225,11.967,1.577,26.02,6.683,26.1,8.9.137,6.778-16.628,6.778-16.628,10.921-4.22,6.852-20.582,9.583-23.064s8.443-8.25,31.307,3.436c8.877,4.538,20.682,4.4,27.126,2.934.189-.041.381-.069.568-.115.041-.01.093-.017.134-.027.069-.019.12-.058.188-.076a20.636,20.636,0,0,0,5.864-2.489,11.581,11.581,0,0,0,4.832-5.372,6.344,6.344,0,0,0-1.247-6.812A13.961,13.961,0,0,0,303.915,148.1Z" transform="translate(-206.209 -129.696)" fill="#263238"/></g></g><path d="M235.674,189.433a14.933,14.933,0,0,1-1.941,3.8,5.046,5.046,0,0,1-3.589,2.083,4.528,4.528,0,0,1-3.832-2.089,7.231,7.231,0,0,1-1.069-4.358c.063-1.374.692-3.013,2.057-3.176a3.459,3.459,0,0,1,1.658.367q3.588,1.457,7.179,2.912" transform="translate(-166.659 -90.96)" fill="#aa6550"/><g transform="translate(57.615 93.981)"><path d="M232.96,195.642c-.037-.225-1.612.414-3.829-.474a5.462,5.462,0,0,1-2.893-2.629,5.763,5.763,0,0,1-.095-4.7,5.112,5.112,0,0,1,.626-1.073c.284-.3.232-.284.541-.239.293.078.765.3,1.151.452l1.179.479c1.536.623,2.927,1.166,4.1,1.6,2.352.878,3.841,1.34,3.91,1.178s-1.294-.919-3.553-2.01c-1.13-.546-2.484-1.176-3.995-1.856l-1.162-.521a12.908,12.908,0,0,0-1.311-.54,1.674,1.674,0,0,0-1.064.03,1.974,1.974,0,0,0-.792.626,6.151,6.151,0,0,0-.807,1.362,6.729,6.729,0,0,0,.218,5.742,6.137,6.137,0,0,0,3.644,2.946,5.8,5.8,0,0,0,3.11.122C232.654,195.955,232.989,195.713,232.96,195.642Z" transform="translate(-224.429 -185.244)" fill="#263238"/></g><g transform="translate(28.61 19.645)"><path d="M214.906,153.883a13.166,13.166,0,0,1-.012-2.634,10.281,10.281,0,0,1,3.4-6.111c2.191-2.09,5.8-3.335,9.8-3.237,4.027.034,8.306,1.357,12.73,2.847,2.223.733,4.416,1.431,6.59,1.912a34.112,34.112,0,0,0,6.363.773,34.544,34.544,0,0,0,10.721-1.409,33.366,33.366,0,0,0,6.71-2.846c.753-.416,1.311-.783,1.685-1.041a2.761,2.761,0,0,0,.553-.415c-.036-.056-.831.465-2.357,1.235a36.939,36.939,0,0,1-6.717,2.631,35.247,35.247,0,0,1-10.578,1.254,34.194,34.194,0,0,1-6.245-.8c-2.137-.48-4.3-1.176-6.526-1.908-4.417-1.487-8.786-2.827-12.924-2.829-4.106-.074-7.874,1.274-10.112,3.494a10.289,10.289,0,0,0-3.342,6.416A6.011,6.011,0,0,0,214.906,153.883Z" transform="translate(-214.618 -141.307)" fill="#455a64"/></g><g transform="translate(11.972 26.546)"><path d="M251.218,187.839a1.852,1.852,0,0,0,.286-.458c.174-.308.4-.775.677-1.387a27.95,27.95,0,0,0,1.732-5.409,29.813,29.813,0,0,0,.562-8.412c-.2-3.2-1.2-6.575-1.942-10.111a19.809,19.809,0,0,1-.02-10,10.109,10.109,0,0,1,2.086-3.792,7.635,7.635,0,0,1,3.127-2.051,7.137,7.137,0,0,1,5.37.137,10.448,10.448,0,0,1,1.672,1.171,4.164,4.164,0,0,0-1.557-1.392,7.227,7.227,0,0,0-5.631-.345,8.014,8.014,0,0,0-3.375,2.123,10.54,10.54,0,0,0-2.255,3.971,20.045,20.045,0,0,0-.044,10.309c.758,3.582,1.755,6.9,1.981,10.028a30.877,30.877,0,0,1-.416,8.275,32.413,32.413,0,0,1-1.521,5.406A19.583,19.583,0,0,0,251.218,187.839Z" transform="translate(-251.212 -145.386)" fill="#455a64"/></g><g transform="translate(26.39 5.989)"><path d="M213.668,157.709a4.647,4.647,0,0,0-.008-.875c-.024-.634-.056-1.462-.093-2.5a28.89,28.89,0,0,1,1.005-9.038,15.975,15.975,0,0,1,2.907-5.489,11.234,11.234,0,0,1,5.835-3.856,14.742,14.742,0,0,1,7.788.32,36.047,36.047,0,0,1,7.788,3.529,64.19,64.19,0,0,0,7.722,3.973,23.58,23.58,0,0,0,7.959,1.6,25.168,25.168,0,0,0,7.289-.9,28.138,28.138,0,0,0,5.913-2.436,24.157,24.157,0,0,0,7-5.976A15.162,15.162,0,0,0,276.192,134a4.48,4.48,0,0,0,.421-.765,4.445,4.445,0,0,0-.53.7,19.018,19.018,0,0,1-1.5,1.981,25.067,25.067,0,0,1-7.028,5.737,28.322,28.322,0,0,1-5.832,2.32,24.874,24.874,0,0,1-7.133.817,23.246,23.246,0,0,1-7.744-1.59,65.17,65.17,0,0,1-7.639-3.949,36.206,36.206,0,0,0-7.932-3.575,15.259,15.259,0,0,0-8.113-.286,11.734,11.734,0,0,0-6.093,4.089,16.28,16.28,0,0,0-2.93,5.7,27.66,27.66,0,0,0-.821,9.177c.064,1.088.149,1.927.215,2.5A4.414,4.414,0,0,0,213.668,157.709Z" transform="translate(-213.249 -133.236)" fill="#455a64"/></g></g><path d="M337.576,216.665s-51.892,16.606-55.35,25.6c-2.6,6.746-29.86,88.591-35.743,141.934a39.175,39.175,0,0,0,35.474,43.133c35.134,3.228,86.149,7.419,86.149,4.531V387.627l-66.084-9.756,24.483-71.954Z" transform="translate(-246.247 -69.523)" fill="#12263f"/><g transform="translate(117.81 289.937)"><path d="M252.48,364.528c-6.778,1.758-36.074,1.758-36.074,1.758v-34.75s12.747-5.446,16.266-8.613,13.513-21.858,13.513-21.858a10.016,10.016,0,0,1,4.6,10.7c-1.643,7.632-4.8,8.561-5.016,11.6,0,.032-.262.782-.267.814-.682,4.236,3.365,7.967,3.365,7.967a14.763,14.763,0,0,1,4.448-2.276c6.17-.729,13.488,3.692,13.488,6.159,0,0,.213,6.654,0,7.641s-3.338,2.3-3.338,2.3.988,4.44,0,6.414-4.275,3.453-4.275,3.453S256.3,363.538,252.48,364.528Z" transform="translate(-216.406 -301.065)" fill="#b78876"/><g transform="translate(28.967 54.879)"><path d="M221.064,336.514c-.012.227,3.208.47,7.06-.382,3.859-.834,6.683-2.4,6.576-2.6-.1-.237-3.015.931-6.764,1.738C224.194,336.1,221.063,336.253,221.064,336.514Z" transform="translate(-221.064 -333.502)" fill="#aa6550"/></g><g transform="translate(30.685 45.361)"><path d="M218.887,329.992c-.056.213,3.544,1.034,8,.423,4.458-.581,7.715-2.318,7.607-2.509-.1-.247-3.414,1.079-7.724,1.636C222.464,330.136,218.919,329.727,218.887,329.992Z" transform="translate(-218.886 -327.876)" fill="#aa6550"/></g><g transform="translate(28.412 17.636)"><path d="M220.369,311.491c-.09-.061-1.225,1.465-2.355,4.3a15.9,15.9,0,0,0-.749,2.4,5.759,5.759,0,0,0,.03,2.973,8.8,8.8,0,0,0,4.194,5.131,10.918,10.918,0,0,0,3.235,1.274,19.613,19.613,0,0,0,3.169.327c2,.069,3.792.037,5.289.074,3,.015,4.791.447,4.83.332s-1.768-.778-4.8-.954c-1.509-.117-3.306-.149-5.277-.264a20.118,20.118,0,0,1-3.028-.359,10.409,10.409,0,0,1-2.969-1.189,8.193,8.193,0,0,1-3.859-4.593,5.078,5.078,0,0,1-.095-2.609A17.169,17.169,0,0,1,218.6,316C219.555,313.179,220.485,311.557,220.369,311.491Z" transform="translate(-217.083 -311.489)" fill="#aa6550"/></g></g><g transform="translate(53.018 308.215)"><path d="M246.247,311.892a17.758,17.758,0,0,0,2.6.552L256,313.667c6.038,1,14.39,2.32,23.624,3.715s17.609,2.6,23.678,3.4,9.854,1.2,9.857.976l-2.612-.445-7.155-1.149c-6.2-.958-14.481-2.237-23.636-3.653-9.233-1.394-17.6-2.621-23.663-3.46-2.915-.384-5.334-.7-7.189-.947A13.636,13.636,0,0,0,246.247,311.892Z" transform="translate(-246.247 -311.868)" fill="#455a64"/></g><g transform="translate(26.895 299.854)"><path d="M284.595,308.755a30.347,30.347,0,0,0,5.209-.044c3.211-.139,7.642-.393,12.533-.726a24.335,24.335,0,0,1,6.761.076,6.809,6.809,0,0,1,4.4,2.793,4.752,4.752,0,0,1,.621,3.465c-.2.843-.523,1.244-.459,1.288.029.03.46-.3.789-1.193a4.878,4.878,0,0,0-.413-3.874,7.285,7.285,0,0,0-4.756-3.27,23.351,23.351,0,0,0-7.006-.162c-4.89.333-9.316.685-12.515.983A30.387,30.387,0,0,0,284.595,308.755Z" transform="translate(-284.594 -306.926)" fill="#455a64"/></g><g transform="translate(37.775 308.279)"><path d="M284.964,317.434c.069.233,4.284-.807,9.414-2.325s9.233-2.937,9.165-3.171-4.284.807-9.415,2.325S284.9,317.2,284.964,317.434Z" transform="translate(-284.963 -311.906)" fill="#455a64"/></g><g transform="translate(54.098 227.246)"><path d="M294.685,264.011c-.233-.071-5.563,16.753-11.9,37.572s-11.3,37.763-11.062,37.834,5.561-16.75,11.9-37.577S294.917,264.08,294.685,264.011Z" transform="translate(-271.711 -264.011)" fill="#455a64"/></g><g transform="translate(40.021 173.984)"><path d="M273.077,232.547c-.036.168,3.039.628,7.663,2.416a45.629,45.629,0,0,1,26.4,26.588c1.755,4.637,2.194,7.715,2.362,7.68a9.118,9.118,0,0,0-.252-2.16,38.609,38.609,0,0,0-1.524-5.732,43.754,43.754,0,0,0-26.772-26.959,38.555,38.555,0,0,0-5.72-1.565A9.079,9.079,0,0,0,273.077,232.547Z" transform="translate(-273.077 -232.53)" fill="#455a64"/></g><g transform="translate(205.496 210.094)"><path d="M193.643,253.873a5.987,5.987,0,0,0-.1,1.176c-.029.859-.068,1.979-.113,3.374-.063,3.032-.147,7.245-.252,12.4-.129,10.566-.3,24.991-.5,40.929-.093,15.943-.178,30.371-.239,40.937.012,5.16.02,9.373.029,12.407l.052,3.374a5.8,5.8,0,0,0,.078,1.176,5.994,5.994,0,0,0,.1-1.176c.029-.86.068-1.978.113-3.372.063-3.032.147-7.243.252-12.4.129-10.568.3-24.994.5-40.939.093-15.938.178-30.364.239-40.93-.012-5.162-.02-9.375-.027-12.407-.022-1.394-.041-2.514-.052-3.374A5.834,5.834,0,0,0,193.643,253.873Z" transform="translate(-192.443 -253.873)" fill="#455a64"/></g><g transform="translate(126.963 443.219)"><path d="M228.846,519.257a7.1,7.1,0,0,0,.35-1.267c.21-.922.489-2.144.837-3.673.712-3.194,1.685-7.827,2.837-13.56,2.309-11.468,5.262-27.36,8.08-44.986s4.956-33.657,6.334-45.273c.69-5.808,1.21-10.513,1.526-13.769l.35-3.751a7.32,7.32,0,0,0,.061-1.315,7.553,7.553,0,0,0-.239,1.294q-.193,1.4-.513,3.731c-.438,3.335-1.052,8-1.8,13.73-1.536,11.593-3.776,27.591-6.587,45.212s-5.671,33.515-7.822,45.008l-2.563,13.61q-.421,2.314-.673,3.705A7.493,7.493,0,0,0,228.846,519.257Z" transform="translate(-228.839 -391.663)" fill="#263238"/></g><g transform="translate(35.71 357.774)"><path d="M246.767,341.2c-.017.242,19.061,1.7,42.6,3.249s42.651,2.614,42.666,2.37-19.056-1.7-42.607-3.25S246.782,340.952,246.767,341.2Z" transform="translate(-246.767 -341.16)" fill="#455a64"/></g></g></g></g></svg>