<svg xmlns="http://www.w3.org/2000/svg" xmlns:xlink="http://www.w3.org/1999/xlink" width="301.331" height="327.712" viewBox="0 0 301.331 327.712"><defs><linearGradient id="a" x1="0.5" x2="0.5" y2="1" gradientUnits="objectBoundingBox"><stop offset="0" stop-color="#fff"/><stop offset="1" stop-color="#d2e6ee"/></linearGradient></defs><g transform="translate(-1334.221 -2187.272)"><g transform="translate(1336.905 2193.069)"><g transform="translate(0 30.419)"><g transform="translate(0 176.677)"><g transform="translate(0 1.743)"><path d="M1293.875,2368.821l-48.52-9.363c-4.231-.816-7.4-9.01-7.4-15.332v-6.2c0-6.322,3.164-14.514,7.4-15.331l48.52-9.364c5.082-.98,9.587,4.884,9.587,12.478v30.637C1303.462,2363.938,1298.957,2369.8,1293.875,2368.821Z" transform="translate(-1225.285 -2312.427)" fill="#f6fafc"/><path d="M1238.573,2329.59a14.19,14.19,0,1,0,0,28.364" transform="translate(-1223.905 -2314.044)" stroke="#00223d" stroke-miterlimit="10" stroke-width="5.369" fill="url(#a)"/><path d="M1264.676,2366.612s-11.452,11.939-2.154,24.3a1.557,1.557,0,0,1-1.242,2.482h-11.912a2.71,2.71,0,0,1-2.694-2.726v-27.013" transform="translate(-1226.141 -2317.389)" stroke="#00223d" stroke-miterlimit="10" stroke-width="5.158" fill="url(#a)"/><path d="M1290.287,2368.537l-45.956-6.522c-4.007-.569-7-6.278-7-10.682v-4.323c0-4.4,3-10.112,7-10.681l45.956-6.523c4.813-.684,9.08,3.4,9.08,8.693v21.344C1299.367,2365.134,1295.1,2369.219,1290.287,2368.537Z" transform="translate(-1225.223 -2314.058)" fill="#aee6e6"/><path d="M1293.875,2368.821l-48.52-9.363c-4.231-.816-7.4-9.01-7.4-15.332v-6.2c0-6.322,3.164-14.514,7.4-15.331l48.52-9.364c5.082-.98,9.587,4.884,9.587,12.478v30.637C1303.462,2363.938,1298.957,2369.8,1293.875,2368.821Z" transform="translate(-1225.285 -2312.427)" fill="none" stroke="#00223d" stroke-miterlimit="10" stroke-width="5.732"/><line y2="54.534" transform="translate(68.544)" fill="#eec251" stroke="#00223d" stroke-miterlimit="10" stroke-width="4.585"/></g><g transform="translate(87.933)"><g transform="translate(18.393)"><path d="M1346.411,2375.214l-4.6-4.665a39.808,39.808,0,0,0,.158-55.467l4.607-4.663A46.457,46.457,0,0,1,1346.411,2375.214Z" transform="translate(-1341.807 -2310.419)" fill="#00223d"/></g><g transform="translate(9.199 9.309)"><path d="M1336.217,2366.919l-4.6-4.661a26.533,26.533,0,0,0,.157-36.856l4.6-4.661A33.174,33.174,0,0,1,1336.217,2366.919Z" transform="translate(-1331.612 -2320.742)" fill="#00223d"/></g><g transform="translate(0 18.618)"><path d="M1326.02,2358.626l-4.608-4.661a13.281,13.281,0,0,0,.159-18.24l4.6-4.661A19.928,19.928,0,0,1,1326.02,2358.626Z" transform="translate(-1321.412 -2331.064)" fill="#00223d"/></g></g></g><path d="M1535.358,2258.706l16.58-2.434-12.306-8.257,7.414-9.5-13.011,1.111.764-11.411-11.557,10.635-5.363-8.986-3.39,12.451" transform="translate(-1350.636 -2228.216)" fill="#f5ca56" stroke="#00223d" stroke-miterlimit="10" stroke-width="4.423"/></g><path d="M1368.522,2276.771h-45.133c-.837,0-1.586-.772-1.882-1.938l-2.687-10.62c-.656-2.59-3.12-2.581-3.767.013l-5.332,21.379c-.674,2.7-3.273,2.565-3.815-.2l-5.118-26.109c-.528-2.7-3.039-2.922-3.78-.335l-4.838,16.9c-.316,1.1-1.044,1.82-1.849,1.82h-30.309" transform="translate(-1245.214 -2257.139)" fill="none" stroke="#00223d" stroke-linecap="round" stroke-miterlimit="10" stroke-width="5.124"/><path d="M1247.408,2283.063h0a3.816,3.816,0,0,1-3.8-3.8h0a3.816,3.816,0,0,1,3.8-3.8h0a3.816,3.816,0,0,1,3.8,3.8h0A3.815,3.815,0,0,1,1247.408,2283.063Z" transform="translate(-1243.603 -2258.937)" fill="#00223d"/></g><g transform="translate(1381.232 2225.109)"><g transform="translate(0 0)"><path d="M1454.388,2401.166h35.405c8.481,0,8.478-6.628,8.142-15.1-.457-11.544,2.692-27.4.095-37.455-3.855-14.933,20.95-13.766,22.6-43.151h0v.375c-.011-36.444-26.217-57.67-57.548-57.67s-56.743,22.655-56.743,50.6c0,7.81.414,13.318,3.958,19.922l8.243.835s-3.7,16.719,5.48,23.469,4.592,21.841,12.107,23.827,15.859-9.928,15.859-9.928S1455.174,2391.2,1454.388,2401.166Z" transform="translate(-1384.344 -2231.794)" fill="#ccdcea"/><path d="M1399.688,2309.36c-3.917-7.43-4.374-13.627-4.374-22.414,0-31.444,28.082-56.933,62.723-56.933s68.424,24.807,68.424,65.826c-.142,15.316-2.961,30.176-16.116,43.479v57.093" transform="translate(-1383.262 -2230.013)" fill="none" stroke="#00223d" stroke-linecap="round" stroke-miterlimit="10" stroke-width="5.124"/><path d="M1406.35,2391.975c.453,1.369,28.076,6.74,43.23-7.277" transform="translate(-1384.345 -2245.2)" fill="none" stroke="#00223d" stroke-linecap="round" stroke-miterlimit="10" stroke-width="5.124"/><path d="M1399.51,2319.719s-5.971,9.53-16.155,24.07c-5.093,7.271,4.861,8.635,10.647,8.861,4.628.455,1.62,2.045,0,4.09s4.374,5.226,4.374,5.226l.254,2.726s-1.388,2.953,2.315,4.089,3.051,11,3.009,16.813" transform="translate(-1381.949 -2238.82)" fill="none" stroke="#00223d" stroke-linecap="round" stroke-miterlimit="10" stroke-width="5.124"/><path d="M1407.289,2366.567" transform="translate(-1384.438 -2243.421)" fill="none" stroke="#414651" stroke-miterlimit="10" stroke-width="5.124"/><path d="M1422.262,2285.441" transform="translate(-1385.908 -2235.455)" fill="none" stroke="#414651" stroke-miterlimit="10" stroke-width="5.124"/><path d="M1527.5,2306.352" transform="translate(-1396.241 -2237.509)" fill="none" stroke="#414651" stroke-miterlimit="10" stroke-width="5.124"/><path d="M1399.86,2366.4" transform="translate(-1383.708 -2243.404)" fill="none" stroke="#414651" stroke-miterlimit="10" stroke-width="5.124"/><path d="M1411.134,2367.252s-8.241-1.356-10.833,0" transform="translate(-1383.751 -2243.428)" fill="none" stroke="#00223d" stroke-linecap="round" stroke-miterlimit="10" stroke-width="2.678"/><path d="M1431.658,2352.834" transform="translate(-1386.83 -2242.072)" fill="none" stroke="#414651" stroke-miterlimit="10" stroke-width="3.125"/><g transform="translate(26.398 10.23)"><path d="M1484.712,2311.307c-5.851,0-10.661-1.814-13.076-5.077a15.679,15.679,0,0,0-4.341-3.935,38.721,38.721,0,0,1-14.417,2.729c-17,0-30.826-10.586-30.826-23.6l.006-.309c-.145-5.5,3.052-11.534,8.776-16.559,10.87-9.543,28.375-13.761,46.821-11.289h0c14.226,1.908,24.247,7.161,29.784,15.613,7.912,12.075,3.69,26.108,3.507,26.7-3.344,9.522-13.805,14.234-21.753,15.391A31.054,31.054,0,0,1,1484.712,2311.307Z" transform="translate(-1412.285 -2242.458)" fill="#91b8c5"/><path d="M1511.619,2288.9" transform="translate(-1421.079 -2246.024)" fill="#fff"/><path d="M1491.685,2272.83" transform="translate(-1419.122 -2244.447)" fill="#fff"/><path d="M1478.3,2304.942c-6.263,0-11.413-1.964-14-5.5a16.827,16.827,0,0,0-4.648-4.259,41.048,41.048,0,0,1-15.434,2.954c-18.2,0-33-11.461-33-25.548l.006-.334c-.156-5.955,3.266-12.488,9.394-17.928,11.638-10.332,30.376-14.9,50.123-12.221h0c15.23,2.066,25.957,7.753,31.886,16.9,8.469,13.074,3.95,28.267,3.753,28.907-3.579,10.309-14.778,15.41-23.287,16.663A33.032,33.032,0,0,1,1478.3,2304.942Zm-18.447-13.421.721.394a19.961,19.961,0,0,1,6.4,5.582c2.47,3.375,8.6,4.874,15.635,3.837,7.589-1.118,17.541-5.565,20.618-14.426.024-.084,4.242-14.373-3.408-26.151-5.384-8.29-15.318-13.469-29.525-15.4-18.791-2.547-36.534,1.718-47.455,11.414-5.414,4.805-8.437,10.43-8.292,15.43v.032l-.005.356c0,12.277,13.314,22.264,29.68,22.264a37.464,37.464,0,0,0,14.88-3.006Z" transform="translate(-1411.222 -2241.356)" fill="#00223d"/><path d="M1461.855,2296.361a1.111,1.111,0,0,1-1.116-1.1c0-9.747-10.87-17.676-24.229-17.676a1.1,1.1,0,1,1,0-2.208c14.591,0,26.461,8.92,26.461,19.884A1.111,1.111,0,0,1,1461.855,2296.361Z" transform="translate(-1413.595 -2244.696)" fill="#00223d"/><path d="M1440.606,2268.969c-4.721-1.586-10.163-.555-13.206,3.687-2.67,3.72-.677,7.823,3.332,9.411,1.775.7,3.6.991,5.26,2a18.949,18.949,0,0,0,2.77,1.778c2.547,1,4.961.376,7.354,2.045.678.472,2.836,1.486,3.247,2.2,1.042,1.827-1.6,2.209-2.988,2.473-3.1.591-5.374-1.179-8.352-1.295-.918-.036-.916,1.376,0,1.412,2.475.1,4.481,1.732,7.014,1.521,1.617-.134,3.935-.421,5.3-1.369,3.42-2.379-1.449-4.695-3.161-5.923a9.368,9.368,0,0,0-4.678-1.967,10.166,10.166,0,0,1-5.076-1.61,14.072,14.072,0,0,0-3.063-1.642c-2.025-.74-4.339-.957-5.775-2.76-1.545-1.939-1.091-4.348.516-6.122,2.929-3.236,7.16-3.82,11.126-2.487.871.293,1.245-1.07.379-1.362Z" transform="translate(-1412.691 -2243.998)" fill="#00223d"/><path d="M1414.315,2265.92a5.19,5.19,0,0,0,3.8,5.5c2.992.838,5.552-1,7.694-2.85.693-.6-.32-1.594-1.009-1-1.535,1.326-3.292,2.779-5.459,2.619a3.812,3.812,0,0,1-3.6-4.268c.119-.9-1.31-.89-1.427,0Z" transform="translate(-1411.522 -2243.702)" fill="#00223d"/><path d="M1443.774,2275.721c3.561.035,6.2-3.871,5.9-7.182a3.813,3.813,0,0,0-2.256-3.31c-1.923-.853-4.492-.125-5.955-1.879-.585-.7-1.591.3-1.01,1,1.652,1.98,4.01,1.226,6.155,2.078,3.9,1.551.5,7.916-2.833,7.883a.706.706,0,0,0,0,1.412Z" transform="translate(-1414.075 -2243.492)" fill="#00223d"/><path d="M1436.777,2266.2c-2.842-1.127-3.208-6.994-.57-8.495,2.053-1.171,4.441-.256,6.375-1.921.694-.6-.318-1.593-1.009-1-1.561,1.344-3.817.73-5.628,1.491a4.679,4.679,0,0,0-2.7,3.517c-.6,2.84.2,6.592,3.157,7.767.853.338,1.223-1.027.38-1.362Z" transform="translate(-1413.365 -2242.656)" fill="#00223d"/><path d="M1454.072,2294.553c1.349-.115,4.137-.514,4.216,1.44.036.906,1.464.911,1.427,0-.12-3-3.335-3.049-5.643-2.853-.909.077-.917,1.49,0,1.413Z" transform="translate(-1415.362 -2246.434)" fill="#00223d"/><path d="M1497.757,2279.67c-2.8,2.356-7.525,2.239-10.936,1.526-3.2-.667-6.1-2.408-9.472-2.035-3.174.35-8.939,4.264-3.849,6.682,2.384,1.132,5.422,1.207,7.994,1.2,1.511-.006,7.858-.685,7.632,2.244-.157,2.025-3.764,2.447-5.227,2.631a29.635,29.635,0,0,1-12.572-1.512c-3.08-.952-5.905-2.284-9.05-.969-.843.354-.116,1.57.72,1.22,2.673-1.118,5.448.339,7.95,1.111a42.076,42.076,0,0,0,6.229,1.493,23.382,23.382,0,0,0,9.054-.3c3.592-.916,6.731-5.446,1.675-6.881-3.741-1.062-7.744-.089-11.548-.881a6.579,6.579,0,0,1-2.192-.635c-1.768-1.139-.026-2.865,1.27-3.515,2.214-1.109,5.09-.355,7.287.348,5,1.6,11.59,3.019,16.044-.723.7-.589-.313-1.583-1.01-1Z" transform="translate(-1416.198 -2245.063)" fill="#00223d"/><path d="M1458.208,2244.53c6.057,5-4.228,8.464-2.047,13.514.523,1.212,2.272,1.589,1.417,3.288-.463.921-1.417,1.155-1.787,2.259-.819,2.448.437,4.177,2.561,5.313.809.432,1.53-.787.721-1.22-1.624-.868-2.511-3.242-1.223-4.745.426-.5,1.017-.708,1.364-1.3a2.39,2.39,0,0,0,.4-1.267c-.006-1.087-.665-1.326-1.226-2.059-1.32-1.72-.726-2.66.325-4.332,2.3-3.652,4.572-7.095.5-10.452-.7-.579-1.715.415-1.009,1Z" transform="translate(-1415.573 -2241.552)" fill="#00223d"/><path d="M1447.867,2265.487c1.411-1.585,1.608-3.9,2.163-5.864.494-1.745,1.433-3.347.588-5.1-.947-1.967-3.393-3.543-5.385-4.214a6.836,6.836,0,0,0-3-.343c-.973.1-3.889,1.5-4.081-.218-.1-.894-1.528-.9-1.428,0,.438,3.95,4.487,1.332,6.969,1.673a8.42,8.42,0,0,1,4.844,2.694c1.092,1.262,1.093,2,.638,3.528-.606,2.035-.895,5.254-2.314,6.849-.605.68.4,1.682,1.009,1Z" transform="translate(-1413.725 -2242.114)" fill="#00223d"/><path d="M1472.6,2303.135c3.182-3.5,6.892-3.459,11.276-2.688,2.659.468,5.519,1.284,8.126.2,2.584-1.072,4.473-2.482,7.317-3,2.1-.38,3.762-1,4.652-3.037.361-.825-.869-1.545-1.232-.712-1.212,2.774-4.637,2.191-7.051,3.146a31.448,31.448,0,0,0-3.322,1.816c-2.131,1.15-4.016.927-6.332.542-5.479-.915-10.348-1.782-14.444,2.729-.612.675.394,1.676,1.009,1Z" transform="translate(-1417.131 -2246.479)" fill="#00223d"/><path d="M1512.748,2294.244c.346-2.9.036-5.6-2.888-7-3.449-1.642-6.175,1.8-9.465.732-.875-.283-1.251,1.081-.38,1.362,2.37.768,3.946-.453,6.172-1.04a4.329,4.329,0,0,1,4.758,1.614c.792,1.261.54,2.939.375,4.328-.107.9,1.32.893,1.427,0Z" transform="translate(-1419.892 -2245.818)" fill="#00223d"/><path d="M1510.47,2279.383c-1.183-.031-1.774-.327-1.582-1.538.141-.883.513-1.722.732-2.585.392-1.541.281-3.094-1.5-3.581a.706.706,0,0,0-.38,1.361c1.591.437-.135,3.665-.282,4.737-.279,2.047,1.059,2.968,3.008,3.018a.706.706,0,0,0,0-1.411Z" transform="translate(-1420.649 -2244.331)" fill="#00223d"/><path d="M1493.023,2273.38c7.167.244,12.557-8.624,7.167-14.157-2.479-2.546-6.265-3.669-9.752-3.79-3.3-.113-7.022.76-9.638-1.829-2.553-2.528-1.945-6.109.969-8.016.763-.5.049-1.723-.721-1.219-5.437,3.559-3.484,10.891,2.657,12.309,4.681,1.081,9.382-.583,13.757,2.177,6.36,4.012,2.9,13.363-4.438,13.114-.919-.032-.917,1.38,0,1.412Z" transform="translate(-1417.765 -2241.64)" fill="#00223d"/><path d="M1490.629,2265.833c-.01-.212-.025-.426-.049-.641a9.287,9.287,0,0,0-8.609-8.316,9.063,9.063,0,0,0-8.286,4.533,9.065,9.065,0,0,0-8.336-4.53,9.287,9.287,0,0,0-8.576,8.481,9.691,9.691,0,0,0,.306,3.466,4.18,4.18,0,0,0,1,1.777l15.513,16.247,15.045-15.786A7.166,7.166,0,0,0,1490.629,2265.833Z" transform="translate(-1415.69 -2242.879)" fill="#f6fafc"/><path d="M1494.15,2268.43q-.014-.309-.046-.625a8.87,8.87,0,0,0-8.07-8.11c-3.292-.174-6.838,3.142-8.406,5.922-1.576-2.793-3.868-6.114-7.179-5.919a8.881,8.881,0,0,0-8.04,8.271,9.81,9.81,0,0,0,.286,3.381,4.11,4.11,0,0,0,.94,1.731l14.544,15.845,14.1-15.394A7.152,7.152,0,0,0,1494.15,2268.43Z" transform="translate(-1416.244 -2243.156)" fill="#ada4ce"/><path d="M1491.215,2265.58q-.014-.349-.051-.7a9.936,9.936,0,0,0-9.025-9.1,9.421,9.421,0,0,0-8.689,4.961,9.417,9.417,0,0,0-8.74-4.958,9.949,9.949,0,0,0-8.991,9.281,11.07,11.07,0,0,0,.32,3.793,4.634,4.634,0,0,0,1.051,1.944l16.265,17.78,15.774-17.274A8.04,8.04,0,0,0,1491.215,2265.58Z" transform="translate(-1415.587 -2242.771)" fill="none" stroke="#00223d" stroke-miterlimit="10" stroke-width="4.229"/></g></g><path d="M1401.57,2319.3l9.293-2.875a1.283,1.283,0,0,0,.869-.93l2.254-9.462,2.876,9.293a1.284,1.284,0,0,0,.929.869l9.463,2.254-9.292,2.875a1.285,1.285,0,0,0-.87.929l-2.254,9.462-2.875-9.293a1.285,1.285,0,0,0-.93-.87Z" transform="translate(-1383.876 -2237.477)" fill="#f6c343" stroke="#00223d" stroke-miterlimit="10" stroke-width="2.279"/><path d="M1484.946,2319.6v11.255c0,2.806-2.657,5.081-5.934,5.081H1458.67c-3.276,0-5.933,2.276-5.933,5.083v.726c0,2.807,2.657,5.082,5.933,5.082h39.414c3.276,0,5.933,2.275,5.933,5.083h0c0,2.807-2.657,5.083-5.933,5.083h-31.362c-3.276,0-5.933,2.275-5.933,5.081v.364c0,2.806,2.657,5.083,5.933,5.083h22.885v17.344" transform="translate(-1388.9 -2238.809)" fill="none" stroke="#00223d" stroke-miterlimit="10" stroke-width="3.29"/><path d="M1475.764,2320.417h22.249l-11.125-18.182Z" transform="translate(-1391.161 -2237.104)" fill="#00223d"/><line y2="22.329" transform="translate(51.628 146.753)" fill="none" stroke="#00223d" stroke-linecap="round" stroke-miterlimit="10" stroke-width="4.229"/><g transform="translate(95.728 216.746)"><path d="M1554.572,2314.553c1.541-8.629,7.569-12.9,13.236-18.8,3.651-3.8,7.637-7.236,10.007-11.94a19.915,19.915,0,0,1,2.854-4.738,5.692,5.692,0,0,1,8.042-.456c2.449,2.381,2.379,6.3,1.216,9.295-1.278,3.292-4.531,5.164-5.925,8.408-1.062,2.473-2.665,6.068-.278,7.51,8.731,5.28,14.521-.029,17.729-3.74a40.087,40.087,0,0,1,7.887-7.1,36.306,36.306,0,0,1,4.742-2.686c1.226-.579,4.255-1.121,4.937-2.294,1.828-3.145,3.053-5.694,7.609-5.233,4.428.447,5.928,3.907,7.809,7.32,15.554,28.23-16.784,53.648-42.911,53.126-6.069-.122-12.095-1.371-18.162-1.176s-12.514,2.15-16.128,7.027" transform="translate(-1554.572 -2277.166)" fill="#ccdcea" stroke="#00223d" stroke-miterlimit="10" stroke-width="4.1"/><path d="M1577.787,2320.918c8.171-3.631,7.225-10.4,6.84-16.006" transform="translate(-1556.851 -2279.89)" fill="none" stroke="#00223d" stroke-linecap="round" stroke-miterlimit="10" stroke-width="4.1"/><path d="M1638.883,2316.882c1.42-2.467-.437-5.854-3.419-6.691-3.534-.993-6.439,2.8-7.633,5.455-2.108,4.7-5.491,11.99-11.92,11.659-4.339-.223-8.644-2.921-12.5-4.674-21.5-9.775-29.057,1.816-29.057,1.816" transform="translate(-1556.514 -2280.392)" fill="none" stroke="#00223d" stroke-linecap="round" stroke-miterlimit="10" stroke-width="4.1"/><path d="M1596.915,2309.238a19.42,19.42,0,0,1,9.684,9.685" transform="translate(-1558.729 -2280.315)" fill="#fff" stroke="#00223d" stroke-linecap="round" stroke-miterlimit="10" stroke-width="4.1"/><path d="M1609.345,2309.355s12.2-8.908,15.56-20.787" transform="translate(-1559.95 -2278.285)" fill="none" stroke="#00223d" stroke-linecap="round" stroke-miterlimit="10" stroke-width="4.1"/><path d="M1637.825,2286.084s.3,16.947-18.763,30.565" transform="translate(-1560.904 -2278.042)" fill="none" stroke="#00223d" stroke-linecap="round" stroke-miterlimit="10" stroke-width="4.1"/><path d="M1644.228,2308.662s6.355-12.711.6-16.645-6.792,5.272-6.792,5.272" transform="translate(-1562.767 -2278.528)" fill="none" stroke="#414651" stroke-linecap="round" stroke-miterlimit="10" stroke-width="4.1"/><path d="M1644.176,2308.682s6.5-12.924.6-16.645c-5.749-3.631-7.262,6.355-7.262,6.355" transform="translate(-1562.716 -2278.548)" fill="#ccdcea" stroke="#00223d" stroke-linecap="round" stroke-miterlimit="10" stroke-width="4.1"/></g><g transform="translate(126.143 157.918)"><path d="M1618.867,2254.61a11.508,11.508,0,1,0,4.3-15.7A11.508,11.508,0,0,0,1618.867,2254.61Z" transform="translate(-1591.151 -2214.434)" fill="#fff" stroke="#00223d" stroke-miterlimit="10" stroke-width="2.554"/><line x2="7.866" y2="10.019" transform="translate(46.875 42.959)" fill="none" stroke="#00223d" stroke-miterlimit="10" stroke-width="2.211"/><path d="M1621.087,2253.755a9.1,9.1,0,1,0,3.373-12.462A9.129,9.129,0,0,0,1621.087,2253.755Z" transform="translate(-1591.399 -2214.698)" fill="#ccdcea"/><path d="M1590.241,2249.357a3.458,3.458,0,1,0,1.292-4.716A3.458,3.458,0,0,0,1590.241,2249.357Z" transform="translate(-1588.444 -2215.1)" fill="#aee6e6"/><path d="M1648.29,2276.446a4.617,4.617,0,1,0,.522-6.509A4.616,4.616,0,0,0,1648.29,2276.446Z" transform="translate(-1594.08 -2217.52)" fill="#167377"/><path d="M1642.926,2219.079a4.6,4.6,0,1,0,2.2-6.121A4.6,4.6,0,0,0,1642.926,2219.079Z" transform="translate(-1593.618 -2211.99)" fill="#167377"/><path d="M1643.869,2218.531a4.627,4.627,0,1,0,2.217-6.158A4.627,4.627,0,0,0,1643.869,2218.531Z" transform="translate(-1593.711 -2211.933)" fill="none" stroke="#00223d" stroke-miterlimit="10" stroke-width="2.477"/><path d="M1605.708,2222.254a4.524,4.524,0,1,0,.688-6.36A4.524,4.524,0,0,0,1605.708,2222.254Z" transform="translate(-1589.909 -2212.223)" fill="#aee6e6" stroke="#00223d" stroke-miterlimit="10" stroke-width="2.803"/><path d="M1646.438,2277.282a5.337,5.337,0,1,0,1.912-7.3A5.336,5.336,0,0,0,1646.438,2277.282Z" transform="translate(-1593.935 -2217.56)" fill="none" stroke="#00223d" stroke-miterlimit="10" stroke-width="2.064"/><path d="M1588.911,2249.046a4.673,4.673,0,1,0,1.748-6.374A4.673,4.673,0,0,0,1588.911,2249.046Z" transform="translate(-1588.298 -2214.891)" fill="none" stroke="#00223d" stroke-miterlimit="10" stroke-width="2.708"/><path d="M1663.079,2250.676a4.568,4.568,0,1,0,1.383-6.31A4.568,4.568,0,0,0,1663.079,2250.676Z" transform="translate(-1595.569 -2215.046)" fill="#f6c343" stroke="#00223d" stroke-miterlimit="10" stroke-width="2.477"/><path d="M1623.921,2252.615a6.339,6.339,0,1,0,2.37-8.646A6.339,6.339,0,0,0,1623.921,2252.615Z" transform="translate(-1591.714 -2214.997)" fill="#00223d"/><line x1="17.242" y1="1.459" transform="translate(8.89 32.696)" fill="none" stroke="#00223d" stroke-miterlimit="10" stroke-width="2.211"/><line y1="13.227" x2="9.391" transform="translate(21.974 42.891)" fill="none" stroke="#00223d" stroke-miterlimit="10" stroke-width="2.064"/><line y1="16.354" x2="10.053" transform="translate(42.075 7.991)" fill="none" stroke="#00223d" stroke-miterlimit="10" stroke-width="2.477"/><line x2="17.538" y2="0.243" transform="translate(49.606 32.854)" fill="none" stroke="#00223d" stroke-miterlimit="10" stroke-width="2.233"/><line x1="8.743" y1="12.911" transform="translate(22.201 11.309)" fill="none" stroke="#00223d" stroke-miterlimit="10" stroke-width="2.708"/><path d="M1604.9,2279.752a4.918,4.918,0,1,0,2.42-6.631A4.993,4.993,0,0,0,1604.9,2279.752Z" transform="translate(-1589.883 -2217.899)" fill="#aee6e6" stroke="#00223d" stroke-miterlimit="10" stroke-width="2.058"/></g></g><path d="M1615.858,2363.886h38.2c.837,0,1.587-.772,1.882-1.938l2.687-10.619c.654-2.59,3.119-2.583,3.766.013l5.331,21.379c.674,2.7,3.273,2.564,3.816-.2l5.117-26.11c.528-2.7,3.04-2.921,3.78-.335l4.838,16.9c.317,1.1,1.044,1.819,1.85,1.819h30.309" transform="translate(-96.682 -22.204)" fill="none" stroke="#00223d" stroke-linecap="round" stroke-miterlimit="10" stroke-width="5.124"/><path d="M1740.271,2370.179h0a3.817,3.817,0,0,0,3.8-3.8h0a3.816,3.816,0,0,0-3.8-3.8h0a3.816,3.816,0,0,0-3.805,3.8h0A3.816,3.816,0,0,0,1740.271,2370.179Z" transform="translate(-108.524 -24.002)" fill="#00223d"/><g transform="translate(1482.266 2188.043)"><g transform="translate(7.138 6.696)"><path d="M1634.856,2403.375c-9.111-.246-8.739-14.04-17.85-14.286s-9.483,13.549-18.6,13.3-8.74-14.041-17.853-14.286-9.485,13.548-18.6,13.3" transform="translate(-1561.961 -2388.102)" fill="none" stroke="#00223d" stroke-linecap="round" stroke-miterlimit="10" stroke-width="2.664"/></g><g transform="translate(7.628 4.857)"><path d="M1562.5,2386.063c9.111.246,8.739,14.04,17.85,14.286s9.483-13.549,18.6-13.3,8.74,14.04,17.853,14.286,9.485-13.549,18.6-13.3" transform="translate(-1562.504 -2386.063)" fill="none" stroke="#00223d" stroke-linecap="round" stroke-miterlimit="10" stroke-width="2.664"/></g><ellipse cx="3.404" cy="2.886" rx="3.404" ry="2.886" transform="matrix(0.243, -0.97, 0.97, 0.243, 78.596, 25.869)" fill="#167377" stroke="#00223d" stroke-miterlimit="10" stroke-width="1.54"/><path d="M1562.575,2384.131a3.413,3.413,0,0,1-3.2,3.3,2.953,2.953,0,0,1-2.61-3.453,3.412,3.412,0,0,1,3.2-3.3A2.954,2.954,0,0,1,1562.575,2384.131Z" transform="translate(-1554.311 -2380.677)" fill="#167377" stroke="#00223d" stroke-miterlimit="10" stroke-width="1.54"/><circle cx="3.472" cy="3.472" r="3.472" transform="translate(0 17.634)" fill="#167377" stroke="#00223d" stroke-miterlimit="10" stroke-width="1.736"/><circle cx="3.472" cy="3.472" r="3.472" transform="translate(78.148 6.394) rotate(-49.027)" fill="#167377" stroke="#00223d" stroke-miterlimit="10" stroke-width="1.736"/></g><path d="M1685.873,2324.6a4.507,4.507,0,0,1-2.961-1.225l-14.539-13.472a2.907,2.907,0,0,1,.32-4.638,4.589,4.589,0,0,1,5.6.246L1685.677,2316l23.657-24.832a4.564,4.564,0,0,1,5.568-.56,2.89,2.89,0,0,1,.675,4.576l-26.584,28.033A4.284,4.284,0,0,1,1686,2324.6Z" transform="translate(-101.74 -16.868)" fill="#f5ca56" stroke="#00223d" stroke-miterlimit="10" stroke-width="3.438"/></g></svg>