<svg xmlns="http://www.w3.org/2000/svg" width="381.088" height="397.321" viewBox="0 0 381.088 397.321"><g transform="translate(1284.469 -381.328)"><rect width="381.088" height="3.057" rx="1.528" transform="translate(-1284.469 737.246)" fill="#e1e1e1"/><g transform="translate(-1283.633 382.828)"><g transform="translate(300.588 119.458)"><g transform="translate(0.132)"><path d="M-599.779,669.182a9.9,9.9,0,0,1-2.55.631l-.886,2.268-3.984-.6-.177-2.428a9.867,9.867,0,0,1-2.25-1.356l-2.23.977-2.391-3.243,1.591-1.842a9.867,9.867,0,0,1-.63-2.55l-2.268-.887.6-3.983,2.429-.178a9.862,9.862,0,0,1,1.356-2.25l-.977-2.23,3.243-2.392,1.842,1.591a9.865,9.865,0,0,1,2.55-.63l.887-2.268,3.984.6.177,2.429a9.875,9.875,0,0,1,2.25,1.356l2.23-.976,2.391,3.242-1.591,1.842a9.846,9.846,0,0,1,.631,2.55l2.268.887-.6,3.983-2.429.177a9.878,9.878,0,0,1-1.356,2.25l.976,2.23-3.242,2.391-1.842-1.591Zm-1.223-5.65a4.322,4.322,0,0,0,.913-6.044,4.322,4.322,0,0,0-6.044-.913,4.322,4.322,0,0,0-.913,6.044A4.322,4.322,0,0,0-601,663.532Z" transform="translate(615.554 -647.81)" fill="#e0e0e0" fill-rule="evenodd"/></g><g transform="translate(22.888 4.835)"><path d="M-542.269,689.433a14.308,14.308,0,0,1-3.686.912l-1.282,3.279-5.76-.871-.256-3.511a14.272,14.272,0,0,1-3.253-1.96l-3.224,1.412-3.457-4.689,2.3-2.663a14.24,14.24,0,0,1-.911-3.687l-3.279-1.282.87-5.759,3.511-.257a14.251,14.251,0,0,1,1.961-3.252l-1.412-3.224,4.688-3.458,2.663,2.3a14.254,14.254,0,0,1,3.686-.912l1.283-3.279,5.759.87.256,3.512a14.292,14.292,0,0,1,3.253,1.96l3.224-1.412,3.457,4.688-2.3,2.663a14.235,14.235,0,0,1,.912,3.687l3.279,1.282-.87,5.759-3.511.257a14.273,14.273,0,0,1-1.961,3.253l1.412,3.224-4.688,3.457-2.663-2.3Zm-1.767-8.168a6.249,6.249,0,0,0,1.32-8.738,6.249,6.249,0,0,0-8.738-1.32,6.248,6.248,0,0,0-1.32,8.738A6.248,6.248,0,0,0-544.036,681.265Z" transform="translate(565.076 -658.534)" fill="#e0e0e0" fill-rule="evenodd"/></g><g transform="translate(0 29.096)"><path d="M-600.568,733.05a9.578,9.578,0,0,1-2.469.61l-.859,2.2-3.858-.583-.172-2.352a9.546,9.546,0,0,1-2.179-1.313l-2.159.946-2.316-3.14,1.541-1.784a9.553,9.553,0,0,1-.61-2.469l-2.2-.859.583-3.857,2.352-.172a9.545,9.545,0,0,1,1.313-2.179l-.946-2.159,3.14-2.317,1.784,1.542a9.551,9.551,0,0,1,2.47-.611l.859-2.2,3.858.583.172,2.352a9.6,9.6,0,0,1,2.179,1.313l2.159-.945,2.316,3.14-1.541,1.784a9.549,9.549,0,0,1,.61,2.469l2.2.859-.583,3.858-2.352.172a9.574,9.574,0,0,1-1.313,2.179l.946,2.159-3.14,2.316-1.784-1.541Zm-1.184-5.472a4.186,4.186,0,0,0,.884-5.853,4.186,4.186,0,0,0-5.853-.884,4.186,4.186,0,0,0-.884,5.853A4.186,4.186,0,0,0-601.752,727.578Z" transform="translate(615.846 -712.351)" fill="none" stroke="#e0e0e0" stroke-miterlimit="10" stroke-width="1" fill-rule="evenodd"/></g></g><g transform="translate(0 80.323)"><rect width="5.825" height="128.568" rx="2.913" transform="translate(199.731 115.072) rotate(-7.311)" fill="#e1e1e1"/><rect width="5.631" height="156.191" rx="2.815" transform="translate(197.701 120.292) rotate(-7.311)" fill="#f5f5f5"/><rect width="6.133" height="156.191" rx="3.066" transform="translate(25.544 119.473) rotate(7.499)" fill="#f5f5f5"/><rect width="5.792" height="125.53" rx="2.896" transform="matrix(0.997, 0.079, -0.079, 0.997, 37.357, 118.984)" fill="#f5f5f5"/><g transform="translate(0 98.29)"><rect width="221.87" height="9.861" transform="translate(0 16.531)" fill="#e1e1e1"/><path d="M-1060.744,795.561h-221.87l25.232-16.531,196.638.145Z" transform="translate(1282.614 -779.029)" fill="#f5f5f5"/></g><path d="M16.2,0h62.74A9.453,9.453,0,0,1,88.4,9.453V50.221a0,0,0,0,1,0,0H0a0,0,0,0,1,0,0V16.2A16.2,16.2,0,0,1,16.2,0Z" transform="translate(77.499 49.158)" fill="#e1e1e1"/><rect width="83.092" height="42.949" transform="translate(79.322 52.321)" fill="#f5f5f5"/><g transform="translate(18.997 8.59)"><g transform="translate(35.051 0)"><path d="M5.65,0h0A5.65,5.65,0,0,1,11.3,5.65v8.169A2.791,2.791,0,0,1,8.509,16.61H2.791A2.791,2.791,0,0,1,0,13.819V5.65A5.65,5.65,0,0,1,5.65,0Z" transform="translate(0 8.1) rotate(-45.793)" fill="#f5f5f5"/><path d="M-1148.357,594.515l10.207,26.736,16.8-17.273Z" transform="translate(1154.834 -587.996)" fill="#f5f5f5"/><path d="M-1113.635,627.608c-4.722,4.855-10.015,7.367-11.822,5.612-1.464-1.427-.182-5.229,2.883-9.208a31.743,31.743,0,0,1,2.4-2.764,32.062,32.062,0,0,1,3-2.723c3.782-3,7.39-4.275,8.817-2.889C-1106.547,617.393-1108.914,622.752-1113.635,627.608Z" transform="translate(1142.59 -599.289)" fill="#d3d0cf"/><path d="M-1111.5,629.49a4.155,4.155,0,0,1-5.867.2,3.932,3.932,0,0,1-.954-1.476,31.723,31.723,0,0,1,2.4-2.764,32.061,32.061,0,0,1,3-2.723,3.9,3.9,0,0,1,1.453.9A4.153,4.153,0,0,1-1111.5,629.49Z" transform="translate(1138.341 -603.489)" fill="#e1e1e1"/></g><g transform="translate(0 1.416)"><g transform="translate(4.195 86.635)"><rect width="35.201" height="7.113" transform="translate(0 1.641)" fill="#d3d0cf"/><ellipse cx="17.509" cy="1.55" rx="17.509" ry="1.55" transform="translate(0.182)" fill="#d3d0cf"/></g><rect width="4.013" height="45.415" rx="2.006" transform="translate(3.501 34.328) rotate(-23.018)" fill="#f5f5f5"/><rect width="4.013" height="45.415" rx="2.006" transform="translate(37.777 5.63) rotate(49.883)" fill="#f5f5f5"/><rect width="15.503" height="16.05" rx="7.752" transform="translate(14.044 72.408)" fill="#e1e1e1"/><circle cx="6.11" cy="6.11" r="6.11" transform="translate(0 29.365)" fill="#e1e1e1"/><circle cx="6.11" cy="6.11" r="6.11" transform="translate(34.836)" fill="#e1e1e1"/></g></g><g transform="translate(168.795 101.272)"><rect width="45.244" height="3.871" transform="translate(0 6.489)" fill="#d3d0cf"/><path d="M-862.947,792.132h-45.244l5.145-6.489,40.1.057Z" transform="translate(908.191 -785.643)" fill="#e1e1e1"/></g><g transform="translate(61.679 99.338)"><rect width="104.216" height="2.787" transform="translate(0 4.672)" fill="#d3d0cf"/><path d="M-1041.581,786.026H-1145.8l11.852-4.672,92.364.041Z" transform="translate(1145.797 -781.354)" fill="#e1e1e1"/></g><path d="M-982.9,806.4s6.574-1.934,5.607-20.688l2.707-4.06,2.32-.58s.774-3.48-3.094-3.094c0,0-9.281-6.38-12.761-3.093,0,0-2.707,5.607-.387,9.281,0,0-5.994,12.374-1.74,15.661A7.708,7.708,0,0,0-982.9,806.4Z" transform="translate(1122.891 -677.944)" fill="#ef9e86"/><path d="M-1175.06,738.2s-8.894,37.317,6.574,42.151l4.641-42.924Z" transform="translate(1224.944 -657.892)" fill="#f9b39a"/><path d="M-1023.134,764.534s2.127,23.589,19.528,34.417c0,0,11.021,4.447,8.7-9.088,0,0-.774-6.38-12.568-25.136C-1007.473,764.728-1021.007,754.287-1023.134,764.534Z" transform="translate(1140.111 -670.304)" fill="#f9b39a"/><rect width="4.64" height="107.825" rx="2.32" transform="matrix(0.905, 0.426, -0.426, 0.905, 75.342, 201.458)" fill="#1b2c34"/><rect width="5.937" height="114.013" rx="2.968" transform="translate(107.211 202.206) rotate(-6.442)" fill="#1b2c34"/><rect width="5.937" height="114.013" rx="2.968" transform="translate(119.282 183.922) rotate(-24.756)" fill="#1b2c34"/><rect width="4.64" height="77.218" rx="2.32" transform="matrix(0.992, 0.124, -0.124, 0.992, 92.755, 194.173)" fill="#1b2c34"/><path d="M-1142.432,626.937c.9-.413,7.928-3.094,7.928-4.834v-5.027s-19.335-21.462,2.9-42.344c0,0,14.888-9.667,26.683,2.514,0,0,8.12,5.994,3.287,25.716a10.417,10.417,0,0,0,1.789,4.157s.725,3.48-3.335,3.77c0,0-.073,15.879-9.426,12.906,0,0-2.683-1.305-2.683-2.03,0,0-1.088,5.511-.29,7.178l24.507,9.208s6.6,2.248,4.5,14.284c0,0-5.366,19.94-10.513,23.565,0,0-5.22,23.057-1.74,40.168,0,0,35.963,3.77,42.924,10.731,0,0,8.991,2.03.29,65.546,0,0,10.731,3.48,13.631,2.32,0,0,3.48.87.58,6.09,0,0-2.03,15.951-21.462,5.51,0,0-7.831.29-5.511-7.831,0,0-13.631-34.223-2.9-47.854l-12.761-.29,20.012,58.005s20.882-4.641,22.042-1.45c0,0,8.12,2.61-27.263,21.462,0,0-7.831,2.03-6.671-9.861,0,0-1.74-14.791-8.99-20.592,0,0-13.051-17.112-14.212-33.933,0,0-42.924,5.22-44.664-2.61,0,0-17.691-2.61-13.341-30.453,0,0,.29-62.355-2.61-79.177A29.1,29.1,0,0,1-1142.432,626.937Z" transform="translate(1215.131 -566.544)" fill="#f9b39a"/><path d="M-1183.54,735.694l11.021,1.45,2.32,44.084s35.77,4.544,46.211-7.637c0,0,12.761,16.821,11.021,3.674-.679-5.132,2.772-25.383,3.383-32.435,0,0,13.631,1.015,17.4-10.006-1.006-3.377-2.62-6.774-3.625-10.151-2.377-7.981-2.218-16.073-11.027-19.573-2.686-1.067-4.781-2.074-7.5-3.045-3.063-1.093-6.151-2.124-9.277-3.021-1.481-.425-4.446-2.672-5.836-1.913,0,0-15.227,6.96-28.568-1.16-.558-.34-3.082.765-3.617.942a30.707,30.707,0,0,0-8.141,4.074C-1180.517,708.607-1181.143,723.865-1183.54,735.694Z" transform="translate(1228.204 -635.083)" fill="#26aab7"/><g transform="translate(112.515 70.818)"><path d="M-1026.121,755.987a.362.362,0,0,1-.292-.139c-8.26-11.35-7.3-20.985-5.033-27.07a28.676,28.676,0,0,1,6.976-10.6.384.384,0,0,1,.487,0,.271.271,0,0,1,0,.422,28.056,28.056,0,0,0-6.82,10.389c-2.209,5.958-3.14,15.4,4.97,26.543a.275.275,0,0,1-.108.411A.38.38,0,0,1-1026.121,755.987Z" transform="translate(1033.031 -718.09)" fill="#167377"/></g><path d="M-1205.072,839.27c-2.029-1.708,9.034-13.181,10.106-14,11.337-8.62,26.018-7.238,38.637-2.467A111.011,111.011,0,0,1-1137.7,832.4c6.287,3.852,11.2,9.373,17.415,13.261,13.649,8.541,30.218,4.353,44.252-.425,8.047-2.74,10.709,6.328,11.492,12.454.434,3.4.232,6.8.484,10.2.51,6.875,1.815,13.5.52,20.4,0,0-1.745,9.28-22.332,6.671-1.366-.173-7.538,4.629-9.024,5.279-9.981,4.362-21.025,6.192-31.824,6.955a187.977,187.977,0,0,1-30.259-.509c-11.037-1-23.1-1.206-30.569-10.621-4.65-5.865-6.664-13.492-7.374-20.826C-1194.921,875.234-1197.821,845.362-1205.072,839.27Z" transform="translate(1240.165 -702.696)" fill="#263238"/><g transform="translate(182.49 71.898)"><path d="M-858.232,756.2h-13.561l-1.874-21.715h17.9Z" transform="translate(875.535 -728.175)" fill="#e1e1e1"/><path d="M-855.762,724.167h-17.9l.976-2.867a1.139,1.139,0,0,1,1.054-.815h14.16a1.16,1.16,0,0,1,1.092.952Z" transform="translate(875.535 -720.485)" fill="#e1e1e1"/><rect width="21.643" height="2.729" rx="1.364" transform="translate(0 3.653)" fill="#f5f5f5"/><path d="M-856.811,755.553h-16.966l-1.021-9.507h18.925Z" transform="translate(876.157 -734.523)" fill="#f5f5f5"/><circle cx="3.805" cy="3.805" r="3.805" transform="translate(6.981 12.383)" fill="#e1e1e1"/></g><g transform="translate(58.153)"><path d="M-1102.724,561.719s12.239-.706,17.888,12.709a13.477,13.477,0,0,1-1.883,14.828s-1.412,5.413-.471,9.179c3.157,12.631-20.381,18.14-28.573,17.394-5.963-.544-7.312-3.835-9.126-8.78-1.162-3.168-2.209-8.509-4.666-10.967C-1129.556,596.081-1141.324,555.128-1102.724,561.719Z" transform="translate(1141.331 -561.001)" fill="#1a2e37"/><circle cx="6" cy="6" r="6" transform="translate(12.616 24.514)" fill="#7d6eb2"/><path d="M-1150,624.919s2.7-16.136,15.967-6.147c0,0,6.879,4.866,4.176,11.269,0,0-5.4,7.171-2.948,10.757,0,0,7.37,12.038-2.948,16.9,0,0-4.176,6.4.737,10.5l-6.141-5.123.982,4.1S-1162.039,650.019-1150,624.919Z" transform="translate(1153.619 -590.936)" fill="#1a2e37"/></g></g><g transform="translate(124.147)"><path d="M-832.164,388.7v99.414a5.872,5.872,0,0,1-5.869,5.873H-1001.36a5.872,5.872,0,0,1-5.87-5.873V388.7a5.869,5.869,0,0,1,5.87-5.869h163.327A5.868,5.868,0,0,1-832.164,388.7Z" transform="translate(1007.23 -382.828)" fill="#fafafa" stroke="#12263f" stroke-miterlimit="10" stroke-width="3"/><path d="M-832.164,388.7V391H-1007.23v-2.3a5.869,5.869,0,0,1,5.87-5.869h163.327A5.868,5.868,0,0,1-832.164,388.7Z" transform="translate(1007.23 -382.828)" fill="#12263f"/><g transform="translate(8.755 2.297)"><g transform="translate(9.952)"><path d="M-962.452,389.565a1.642,1.642,0,0,1-1.642,1.642,1.642,1.642,0,0,1-1.641-1.642,1.641,1.641,0,0,1,1.641-1.641A1.641,1.641,0,0,1-962.452,389.565Z" transform="translate(965.735 -387.924)" fill="#00d614"/></g><path d="M-984.526,389.565a1.642,1.642,0,0,1-1.642,1.642,1.642,1.642,0,0,1-1.642-1.642,1.642,1.642,0,0,1,1.642-1.641A1.642,1.642,0,0,1-984.526,389.565Z" transform="translate(987.81 -387.924)" fill="#ff3838"/><g transform="translate(4.777)"><path d="M-973.93,389.565a1.642,1.642,0,0,1-1.642,1.642,1.642,1.642,0,0,1-1.642-1.642,1.642,1.642,0,0,1,1.642-1.641A1.641,1.641,0,0,1-973.93,389.565Z" transform="translate(977.214 -387.924)" fill="#eddb06"/></g></g><rect width="101.676" height="93.869" transform="translate(16.068 11.152)" fill="#d3d0cf"/><rect width="6.622" height="89.145" rx="3.311" transform="translate(6.186 14.039)" fill="#ebebeb"/><rect width="49.109" height="31.21" rx="5.082" transform="translate(121.655 18.68)" fill="#ebebeb"/><rect width="49.109" height="4.493" rx="2.247" transform="translate(121.655 11.888)" fill="#ebebeb"/><rect width="49.109" height="52.301" rx="5.082" transform="translate(121.655 52.494)" fill="#ebebeb"/><g transform="translate(22.238 59.721)"><line x2="62.829" fill="none" stroke="#fafafa" stroke-linecap="round" stroke-miterlimit="10" stroke-width="4"/><line x2="22.981" transform="translate(67.244)" fill="none" stroke="#fafafa" stroke-linecap="round" stroke-miterlimit="10" stroke-width="4"/><g transform="translate(0 10.059)"><line x2="13.029" fill="none" stroke="#fafafa" stroke-linecap="round" stroke-miterlimit="10" stroke-width="4"/><line x2="29.066" transform="translate(16.179)" fill="none" stroke="#fafafa" stroke-linecap="round" stroke-miterlimit="10" stroke-width="4"/></g><g transform="translate(0 15.089)"><line x2="13.029" fill="none" stroke="#fafafa" stroke-linecap="round" stroke-miterlimit="10" stroke-width="4"/><line x2="29.066" transform="translate(16.179)" fill="none" stroke="#fafafa" stroke-linecap="round" stroke-miterlimit="10" stroke-width="4"/></g><g transform="translate(0 20.118)"><line x2="13.029" fill="none" stroke="#fafafa" stroke-linecap="round" stroke-miterlimit="10" stroke-width="4"/><line x2="29.066" transform="translate(16.179)" fill="none" stroke="#fafafa" stroke-linecap="round" stroke-miterlimit="10" stroke-width="4"/></g><g transform="translate(0 25.148)"><line x2="13.029" fill="none" stroke="#fafafa" stroke-linecap="round" stroke-miterlimit="10" stroke-width="4"/><line x2="29.066" transform="translate(16.179)" fill="none" stroke="#fafafa" stroke-linecap="round" stroke-miterlimit="10" stroke-width="4"/></g><g transform="translate(0 30.177)"><line x2="13.029" fill="none" stroke="#fafafa" stroke-linecap="round" stroke-miterlimit="10" stroke-width="4"/><line x2="29.066" transform="translate(16.179)" fill="none" stroke="#fafafa" stroke-linecap="round" stroke-miterlimit="10" stroke-width="4"/></g><g transform="translate(0 35.207)"><line x2="13.029" fill="none" stroke="#fafafa" stroke-linecap="round" stroke-miterlimit="10" stroke-width="4"/><line x2="29.066" transform="translate(16.179)" fill="none" stroke="#fafafa" stroke-linecap="round" stroke-miterlimit="10" stroke-width="4"/></g><g transform="translate(0 5.03)"><line x2="44.855" fill="none" stroke="#fafafa" stroke-linecap="round" stroke-miterlimit="10" stroke-width="4"/><line x2="16.407" transform="translate(48.007)" fill="none" stroke="#fafafa" stroke-linecap="round" stroke-miterlimit="10" stroke-width="4"/></g></g><g transform="translate(22.515 15.946)"><rect width="57.903" height="38.911" fill="#ebebeb"/><g transform="translate(3.041 3.557)"><rect width="51.821" height="32.575" fill="#12263f"/><g transform="translate(6.954 5.882)"><path d="M-933.807,468.541l11.433-16.874,3.153,6.469,9.038-13.98,19.757,24.2Z" transform="translate(934.397 -441.893)" fill="#7d6eb2"/><ellipse cx="4.038" cy="4.072" rx="4.038" ry="4.072" fill="#7d6eb2"/></g></g></g><g transform="translate(71.606 70.13)"><rect width="39.282" height="26.398" fill="#ebebeb"/><g transform="translate(2.063 2.413)"><rect width="35.156" height="22.099" fill="#12263f"/><g transform="translate(4.718 3.99)"><path d="M-832.463,572.543l7.756-11.447,2.139,4.388,6.131-9.484,13.4,16.421Z" transform="translate(832.863 -554.465)" fill="#7d6eb2"/><ellipse cx="2.739" cy="2.762" rx="2.739" ry="2.762" fill="#7d6eb2"/></g></g></g></g><g transform="translate(277.471 304.503)"><path d="M-640.87,1115.665h-10.955a15.3,15.3,0,0,1-15.3-15.3V1058.28h41.555v42.085A15.3,15.3,0,0,1-640.87,1115.665Z" transform="translate(667.125 -1058.28)" fill="#e1e1e1"/><g transform="translate(1.807 13.112)"><rect width="38.302" height="0.335" fill="#fff"/></g></g><g transform="translate(40.282 8.966)"><g transform="translate(14.236 12.371)"><path d="M-1131.683,430.157l.4,8.494h-1.015a10.249,10.249,0,0,0-.8-3.205,5.363,5.363,0,0,0-2.2-2.284,7.687,7.687,0,0,0-3.619-.734h-5.1V460.1q0,3.34.721,4.167a4.011,4.011,0,0,0,3.125,1.122h1.255v.988h-15.359v-.988H-1153A3.68,3.68,0,0,0-1149.74,464q.587-.855.587-3.9V432.428h-4.354a12.144,12.144,0,0,0-3.606.374,4.949,4.949,0,0,0-2.377,1.95,7.889,7.889,0,0,0-1.175,3.9h-1.015l.427-8.494Z" transform="translate(1161.68 -430.157)" fill="#ffd947"/></g><g transform="translate(1.899 2.518)"><g transform="translate(52.791 52.791)"><path d="M-1069.692,527.656h-2.253v-1.325h.928V525.4h1.325Z" transform="translate(1071.945 -525.403)" fill="#d3d0cf"/></g><g transform="translate(40.9 53.719)"><path d="M-1089.4,528.786h-2.973v-1.325h2.973Zm-5.945,0h-2.973v-1.325h2.973Z" transform="translate(1098.322 -527.461)" fill="#d3d0cf"/></g><g transform="translate(5.226 53.719)"><path d="M-1144.753,528.786h-2.973v-1.325h2.973Zm-5.946,0h-2.973v-1.325h2.973Zm-5.946,0h-2.973v-1.325h2.973Zm-5.945,0h-2.973v-1.325h2.973Zm-5.946,0h-2.973v-1.325h2.973Zm-5.946,0h-2.973v-1.325h2.973Z" transform="translate(1177.454 -527.461)" fill="#d3d0cf"/></g><g transform="translate(0 52.791)"><path d="M-1186.792,527.656h-2.253V525.4h1.325v.928h.928Z" transform="translate(1189.046 -525.403)" fill="#d3d0cf"/></g><g transform="translate(0 40.9)"><path d="M-1187.721,507.944h-1.325v-2.973h1.325Zm0-5.946h-1.325v-2.973h1.325Z" transform="translate(1189.046 -499.026)" fill="#d3d0cf"/></g><g transform="translate(0 5.226)"><path d="M-1187.721,452.595h-1.325v-2.973h1.325Zm0-5.945h-1.325v-2.973h1.325Zm0-5.946h-1.325v-2.973h1.325Zm0-5.945h-1.325v-2.973h1.325Zm0-5.946h-1.325V425.84h1.325Zm0-5.946h-1.325v-2.973h1.325Z" transform="translate(1189.046 -419.894)" fill="#d3d0cf"/></g><g transform="translate(0)"><path d="M-1187.72,410.555h-1.325V408.3h2.253v1.325h-.928Z" transform="translate(1189.046 -408.302)" fill="#d3d0cf"/></g><g transform="translate(5.226 0)"><path d="M-1168.536,409.627h-2.973V408.3h2.973Zm-5.946,0h-2.973V408.3h2.973Z" transform="translate(1177.454 -408.302)" fill="#d3d0cf"/></g><g transform="translate(17.117 0)"><path d="M-1118.376,409.627h-2.973V408.3h2.973Zm-5.946,0h-2.973V408.3h2.973Zm-5.945,0h-2.973V408.3h2.973Zm-5.946,0h-2.973V408.3h2.973Zm-5.946,0h-2.973V408.3h2.973Zm-5.946,0h-2.973V408.3h2.973Z" transform="translate(1151.077 -408.302)" fill="#d3d0cf"/></g><g transform="translate(52.791)"><path d="M-1069.692,410.555h-1.325v-.928h-.928V408.3h2.253Z" transform="translate(1071.945 -408.302)" fill="#d3d0cf"/></g><g transform="translate(53.719 5.226)"><path d="M-1068.562,428.813h-1.326v-2.973h1.326Zm0-5.946h-1.326v-2.973h1.326Z" transform="translate(1069.887 -419.894)" fill="#d3d0cf"/></g><g transform="translate(53.719 17.117)"><path d="M-1068.562,478.972h-1.326V476h1.326Zm0-5.946h-1.326v-2.973h1.326Zm0-5.946h-1.326v-2.973h1.326Zm0-5.945h-1.326v-2.973h1.326Zm0-5.946h-1.326v-2.973h1.326Zm0-5.945h-1.326v-2.973h1.326Z" transform="translate(1069.887 -446.271)" fill="#d3d0cf"/></g></g><rect width="6.008" height="6.008" fill="#d3d0cf"/><g transform="translate(52.835)"><rect width="6.008" height="6.008" fill="#d3d0cf"/></g><g transform="translate(0 53.542)"><rect width="6.008" height="6.008" fill="#d3d0cf"/></g><g transform="translate(52.835 53.542)"><rect width="6.008" height="6.008" fill="#d3d0cf"/></g></g><g transform="translate(212.044 119.906)"><rect width="73.86" height="21.278" transform="translate(0.052 4.901)" fill="#d3d0cf"/><g transform="translate(4.294 8.18)"><g transform="translate(9.312)"><rect width="21.904" height="6.195" fill="#ebebeb"/><g transform="translate(0.265 0.217)"><rect width="4.37" height="5.712" fill="#d3d0cf"/><g transform="translate(0.929 3.446)"><path d="M-778.238,676.543l-1.188-1.469h.219l1.026,1.266,1.035-1.266h.232l-1.2,1.469Z" transform="translate(779.426 -675.074)" fill="#ebebeb"/></g><g transform="translate(0.929 0.955)"><path d="M-778.1,669.549l1.189,1.469h-.22l-1.025-1.265-1.036,1.265h-.232l1.2-1.469Z" transform="translate(779.426 -669.549)" fill="#ebebeb"/></g></g><g transform="translate(17.002 0.217)"><rect width="4.37" height="5.712" fill="#d3d0cf"/><g transform="translate(0.929 2.317)"><path d="M-741.111,674.038l-1.188-1.469h.219l1.026,1.266,1.035-1.266h.232l-1.2,1.469Z" transform="translate(742.299 -672.569)" fill="#ebebeb"/></g></g></g><rect width="9.077" height="6.195" fill="#ebebeb"/><g transform="translate(0 7.882)"><g transform="translate(9.312)"><rect width="21.904" height="6.195" fill="#ebebeb"/><g transform="translate(0.265 0.217)"><rect width="4.37" height="5.712" fill="#d3d0cf"/><g transform="translate(0.929 3.446)"><path d="M-778.238,694.026l-1.188-1.469h.219l1.026,1.265,1.035-1.265h.232l-1.2,1.469Z" transform="translate(779.426 -692.557)" fill="#ebebeb"/></g><g transform="translate(0.929 0.955)"><path d="M-778.1,687.032l1.189,1.469h-.22l-1.025-1.265-1.036,1.265h-.232l1.2-1.469Z" transform="translate(779.426 -687.032)" fill="#ebebeb"/></g></g><g transform="translate(17.002 0.217)"><rect width="4.37" height="5.712" fill="#d3d0cf"/><g transform="translate(0.929 2.317)"><path d="M-741.111,691.521l-1.188-1.469h.219l1.026,1.265,1.035-1.265h.232l-1.2,1.469Z" transform="translate(742.299 -690.052)" fill="#ebebeb"/></g></g></g><rect width="9.077" height="6.195" fill="#ebebeb"/></g></g><g transform="translate(39.31 8.18)"><g transform="translate(9.312)"><rect width="21.904" height="6.195" fill="#ebebeb"/><g transform="translate(0.265 0.217)"><rect width="4.37" height="5.712" fill="#d3d0cf"/><g transform="translate(0.929 3.446)"><path d="M-700.567,676.543l-1.188-1.469h.219l1.026,1.266,1.035-1.266h.232l-1.2,1.469Z" transform="translate(701.755 -675.074)" fill="#ebebeb"/></g><g transform="translate(0.929 0.955)"><path d="M-700.431,669.549l1.189,1.469h-.22l-1.025-1.265-1.036,1.265h-.232l1.2-1.469Z" transform="translate(701.755 -669.549)" fill="#ebebeb"/></g></g><g transform="translate(17.002 0.217)"><rect width="4.37" height="5.712" fill="#d3d0cf"/><g transform="translate(0.929 2.317)"><path d="M-663.44,674.038l-1.188-1.469h.219l1.026,1.266,1.036-1.266h.232l-1.2,1.469Z" transform="translate(664.628 -672.569)" fill="#ebebeb"/></g></g></g><rect width="9.077" height="6.195" fill="#ebebeb"/><g transform="translate(0 7.882)"><g transform="translate(9.312)"><rect width="21.904" height="6.195" fill="#ebebeb"/><g transform="translate(0.265 0.217)"><rect width="4.37" height="5.712" fill="#d3d0cf"/><g transform="translate(0.929 3.446)"><path d="M-700.567,694.026l-1.188-1.469h.219l1.026,1.265,1.035-1.265h.232l-1.2,1.469Z" transform="translate(701.755 -692.557)" fill="#ebebeb"/></g><g transform="translate(0.929 0.955)"><path d="M-700.431,687.032l1.189,1.469h-.22l-1.025-1.265-1.036,1.265h-.232l1.2-1.469Z" transform="translate(701.755 -687.032)" fill="#ebebeb"/></g></g><g transform="translate(17.002 0.217)"><rect width="4.37" height="5.712" fill="#d3d0cf"/><g transform="translate(0.929 2.317)"><path d="M-663.44,691.521l-1.188-1.469h.219l1.026,1.265,1.036-1.265h.232l-1.2,1.469Z" transform="translate(664.628 -690.052)" fill="#ebebeb"/></g></g></g><rect width="9.077" height="6.195" fill="#ebebeb"/></g></g><path d="M5.833,0h4.6a5.833,5.833,0,0,1,5.833,5.833v.2a0,0,0,0,1,0,0H0a0,0,0,0,1,0,0v-.2A5.833,5.833,0,0,1,5.833,0Z" fill="#d3d0cf"/></g><g transform="translate(231.064 154.866)"><g transform="translate(0 0)"><g transform="translate(6.298 25.181)"><rect width="16.076" height="54.913" rx="8" transform="translate(51.837 0) rotate(70.73)" fill="#fafafa" stroke="#d3d0d2" stroke-miterlimit="10" stroke-width="3"/><rect width="13.373" height="8.82" transform="translate(49.731 2.168) rotate(70.73)" fill="#f9c869"/><rect width="13.373" height="8.82" transform="translate(40.644 5.345) rotate(70.73)" fill="#7d6eb2"/><rect width="13.373" height="8.82" transform="translate(31.557 8.522) rotate(70.73)" fill="#e36099"/><rect width="13.373" height="8.82" transform="translate(22.47 11.699) rotate(70.73)" fill="#c1507f"/></g><g transform="translate(3.579 11.618)"><rect width="16.076" height="54.913" rx="8" transform="matrix(0.548, 0.837, -0.837, 0.548, 45.945, 0)" fill="#fafafa" stroke="#d3d0d1" stroke-miterlimit="10" stroke-width="3"/><rect width="13.373" height="8.82" transform="matrix(0.548, 0.837, -0.837, 0.548, 44.424, 2.611)" fill="#7d6eb2"/><rect width="13.373" height="8.82" transform="matrix(0.548, 0.837, -0.837, 0.548, 36.37, 7.883)" fill="#ffd947"/><rect width="13.373" height="8.82" transform="matrix(0.548, 0.837, -0.837, 0.548, 28.315, 13.156)" fill="#167377"/><rect width="13.373" height="8.82" transform="matrix(0.548, 0.837, -0.837, 0.548, 20.261, 18.428)" fill="#d5f2e8"/></g><rect width="16.076" height="54.913" rx="8" transform="translate(35.791 0) rotate(40.675)" fill="#fafafa" stroke="#d3d0cf" stroke-miterlimit="10" stroke-width="3"/><rect width="13.373" height="8.82" transform="translate(35.054 2.931) rotate(40.675)" fill="#12263f"/><rect width="13.373" height="8.82" transform="translate(28.78 10.232) rotate(40.675)" fill="#ffd947"/><rect width="13.373" height="8.82" transform="translate(22.506 17.533) rotate(40.675)" fill="#7d6eb2"/><rect width="13.373" height="8.82" transform="translate(16.231 24.834) rotate(40.675)" fill="#167377"/></g><circle cx="1.636" cy="1.636" r="1.636" transform="translate(7.721 41.345)" fill="#d3d0cf"/></g></g></g></svg>