<svg xmlns="http://www.w3.org/2000/svg" xmlns:xlink="http://www.w3.org/1999/xlink" width="456.609" height="279.251" viewBox="0 0 456.609 279.251"><defs><linearGradient id="a" x1="0.5" x2="0.5" y2="1" gradientUnits="objectBoundingBox"><stop offset="0" stop-color="#fff"/><stop offset="1" stop-color="#d3d3d3"/></linearGradient></defs><g transform="translate(-45.803 -38.355)"><g transform="translate(45.803 38.355)"><g transform="translate(388.742 163.687)"><g transform="translate(0.011)"><rect width="38.66" height="57.356" transform="translate(0 35.639) rotate(-67.199)" fill="#ebebeb"/></g><g transform="translate(14.98 0.499)"><path d="M679.8,296.911a4.029,4.029,0,0,1-.691.267l-2.015.67-7.443,2.379-24.675,7.678-.2.063-.1-.188-.247-.453L631.951,284.3l-3.726-7.008-.99-1.918a4.162,4.162,0,0,1-.314-.686,4.057,4.057,0,0,1,.406.636l1.075,1.871,3.871,6.929,12.6,22.96c.084.156.169.31.247.453l-.3-.124,24.72-7.531,7.492-2.22,2.043-.579A3.942,3.942,0,0,1,679.8,296.911Z" transform="translate(-626.92 -274.684)" fill="#e0e0e0"/></g><g transform="translate(0 22.243)"><path d="M605.358,319.877c-.066-.128,5.964-3.342,13.466-7.177s13.639-6.842,13.7-6.715-5.963,3.341-13.467,7.178S605.423,320.005,605.358,319.877Z" transform="translate(-605.357 -305.981)" fill="#e0e0e0"/></g><g transform="translate(44.926 29.189)"><path d="M670.031,315.98c.138-.038,2.029,6.464,4.221,14.519s3.858,14.619,3.72,14.658-2.029-6.462-4.222-14.521S669.892,316.018,670.031,315.98Z" transform="translate(-670.023 -315.98)" fill="#e0e0e0"/></g></g><g transform="translate(53.588 228.753)"><g transform="translate(0.008)"><rect width="28.751" height="42.655" transform="translate(0 26.504) rotate(-67.199)" fill="#f5f5f5"/></g><g transform="translate(11.141 0.371)"><path d="M178.295,384.686a2.967,2.967,0,0,1-.514.2l-1.5.5-5.536,1.768-18.35,5.711-.151.047-.076-.139-.183-.337L142.714,375.3l-2.771-5.212-.736-1.426a3.01,3.01,0,0,1-.233-.51,3.045,3.045,0,0,1,.3.472l.8,1.392c.7,1.254,1.679,3,2.879,5.154,2.416,4.4,5.72,10.422,9.372,17.075l.183.337-.226-.092,18.383-5.6,5.572-1.651,1.519-.43A2.981,2.981,0,0,1,178.295,384.686Z" transform="translate(-138.972 -368.156)" fill="#e0e0e0"/></g><g transform="translate(0 16.542)"><path d="M122.937,401.765c-.049-.1,4.435-2.485,10.015-5.338s10.143-5.089,10.192-4.993-4.434,2.484-10.016,5.338S122.985,401.861,122.937,401.765Z" transform="translate(-122.936 -391.432)" fill="#e0e0e0"/></g><g transform="translate(33.41 21.707)"><path d="M171.033,398.867c.1-.028,1.509,4.807,3.14,10.8s2.869,10.873,2.766,10.9-1.508-4.805-3.14-10.8S170.93,398.9,171.033,398.867Z" transform="translate(-171.027 -398.867)" fill="#e0e0e0"/></g></g><g transform="translate(0 141.765)"><rect width="50.169" height="48.538" transform="translate(0 18.483) rotate(-21.618)" fill="#f5f5f5"/><g transform="translate(19.968 29.978)"><path d="M74.544,313.895l3.7-28.333,16.435,10.659L97.968,285.8l15.984,12.48Z" transform="translate(-74.544 -285.562)" fill="#e0e0e0"/></g><g transform="translate(29.959 17.218)"><path d="M95.893,269.475a3.611,3.611,0,1,1-4.687-2.026A3.61,3.61,0,0,1,95.893,269.475Z" transform="translate(-88.925 -267.194)" fill="#e0e0e0"/></g><g transform="translate(4.847 4.904)"><g opacity="0.3"><path d="M107.357,287.386a1.841,1.841,0,0,1-.084-.181c-.056-.134-.128-.3-.219-.522l-.827-2.022c-.721-1.785-1.763-4.366-3.086-7.644L92.247,249.811l.266.115L53.122,265.573c-.035.067.251-.584.132-.3l0,.01.008.02.016.04.032.081.064.161.127.322.255.643.508,1.282,1.009,2.548,1.99,5.025,3.847,9.726c2.5,6.322,4.858,12.3,7.029,17.8l-.27-.117L96.4,291.616l8.057-3.135,2.14-.822.557-.208a1.4,1.4,0,0,1,.2-.065,1.081,1.081,0,0,1-.167.079l-.527.222-2.086.852L96.6,291.758,68.026,303.2l-.193.077-.077-.195L60.684,285.3l-3.859-9.721q-.987-2.486-1.993-5.024-.5-1.268-1.009-2.548l-.508-1.281-.256-.643-.127-.322-.064-.162-.032-.08-.016-.041-.008-.02,0-.01c-.121.274.159-.385.135-.318l39.416-15.584.192-.075.075.191,10.748,27.405,2.97,7.64q.5,1.292.768,2l.189.51A.829.829,0,0,1,107.357,287.386Z" transform="translate(-52.779 -249.469)" fill="#e0e0e0"/></g></g></g><g transform="translate(286.142 239.537)"><path d="M485.362,408.89l-2.521-1.824A7.331,7.331,0,0,1,480,402.787l-1.776-7.631a10.351,10.351,0,0,0-10.871-7.969l-.69-2.964a1.394,1.394,0,0,0-1.674-1.042h0a1.394,1.394,0,0,0-1.042,1.674l.677,2.91a10.355,10.355,0,0,0-6.578,12.086l1.707,7.336a7.333,7.333,0,0,1-.5,4.764l-1.579,3.381,10.275-2.391a4.363,4.363,0,0,0,7.228.047,4.344,4.344,0,0,0,.712-1.895Z" transform="translate(-457.675 -383.144)" fill="#ebebeb"/></g><g transform="translate(299.985 45.881)"><g transform="translate(0 7.845)"><g transform="translate(0 3.055)"><path d="M497.407,120.085l44.449,29.044-18.732,30.893L477.6,149.192Z" transform="translate(-477.601 -120.085)" fill="#f5f5f5"/></g><g transform="translate(19.806)"><path d="M506.109,118.743l32.182-3.043a2.887,2.887,0,0,1,3.03,2.026l9.237,30.061" transform="translate(-506.109 -115.687)" fill="#ff725e"/></g><g transform="translate(19.806)"><path d="M506.109,118.743l32.182-3.043a2.887,2.887,0,0,1,3.03,2.026l9.237,30.061" transform="translate(-506.109 -115.687)" fill="#e0e0e0"/></g><g transform="translate(0 25.707)"><path d="M477.6,159.145c-.021-.088,6.087-1.6,13.642-3.385s13.7-3.153,13.718-3.065-6.086,1.6-13.643,3.385S477.622,159.233,477.6,159.145Z" transform="translate(-477.601 -152.69)" fill="#e0e0e0"/></g><g transform="translate(41.67 35.798)"><path d="M541.434,194.41c-.09.013-1.024-6.066-2.086-13.574s-1.85-13.608-1.76-13.622,1.023,6.064,2.086,13.575S541.524,194.4,541.434,194.41Z" transform="translate(-537.581 -167.215)" fill="#e0e0e0"/></g><g transform="translate(19.806 3.055)"><path d="M506.109,120.085l10.457,32.043,33.993-3Z" transform="translate(-506.109 -120.085)" fill="#e0e0e0"/></g></g><g transform="translate(20.942)"><g transform="translate(0 0.16)"><path d="M507.745,118.489l9.1-13.862,39.038,25.255-9.213,14.826-29.456,2.468Z" transform="translate(-507.745 -104.627)" fill="#fafafa"/></g><path d="M507.745,118.418s.074.179.194.522l.522,1.517,1.949,5.777,6.947,20.825-.154-.1,29.453-2.5-.137.084L552,135.727l3.736-6.01.056.246-39-25.309.16-.033c-2.875,4.334-5.161,7.78-6.737,10.156l-1.815,2.709-.476.7c-.108.156-.172.235-.172.235s.042-.081.14-.24l.444-.7,1.757-2.729,6.665-10.253.063-.1.1.063,39.073,25.2.149.1-.094.15-3.734,6.012-5.48,8.814-.047.077-.09.007-29.458,2.437-.117.01-.036-.111-6.836-20.92c-.8-2.488-1.433-4.439-1.868-5.784q-.31-.979-.479-1.514C507.788,118.592,507.745,118.418,507.745,118.418Z" transform="translate(-507.745 -104.396)" fill="#e0e0e0"/></g><g transform="translate(31.777 10.902)"><path d="M549.907,137.495c-.055.083-6.047-3.745-13.382-8.551s-13.24-8.77-13.185-8.854,6.046,3.745,13.383,8.551S549.962,137.411,549.907,137.495Z" transform="translate(-523.34 -120.088)" fill="#e0e0e0"/></g><g transform="translate(29.186 14.805)"><path d="M546.178,143.112c-.055.083-6.047-3.745-13.382-8.551s-13.24-8.77-13.185-8.854,6.046,3.744,13.383,8.551S546.233,143.029,546.178,143.112Z" transform="translate(-519.611 -125.706)" fill="#e0e0e0"/></g><g transform="translate(26.2 19.303)"><path d="M541.88,149.587c-.054.083-6.047-3.745-13.382-8.551s-13.24-8.771-13.185-8.854,6.046,3.745,13.383,8.551S541.935,149.5,541.88,149.587Z" transform="translate(-515.313 -132.18)" fill="#e0e0e0"/></g><g transform="translate(24.435 24.601)"><path d="M538.119,156.412c-.054.083-5.773-3.566-12.771-8.151s-12.629-8.371-12.575-8.454,5.773,3.565,12.773,8.151S538.174,156.329,538.119,156.412Z" transform="translate(-512.772 -139.806)" fill="#e0e0e0"/></g><g transform="translate(26.829 31.882)"><path d="M531.6,160.271a2.8,2.8,0,0,1-.641-.336l-1.676-1.027-5.469-3.476c-2.133-1.365-4.043-2.633-5.415-3.567-.686-.467-1.237-.851-1.612-1.123a2.781,2.781,0,0,1-.564-.454,2.818,2.818,0,0,1,.641.336l1.676,1.027,5.47,3.476c2.132,1.365,4.042,2.632,5.413,3.567.686.467,1.237.851,1.613,1.123A2.838,2.838,0,0,1,531.6,160.271Z" transform="translate(-516.218 -150.287)" fill="#e0e0e0"/></g><g transform="translate(29.057 38.6)"><path d="M525.069,163.708a31.853,31.853,0,0,1-5.642-3.745,31.686,31.686,0,0,1,5.642,3.745Z" transform="translate(-519.425 -159.956)" fill="#e0e0e0"/></g></g><g transform="translate(67.433)"><g transform="translate(27.126 16.898)"><g transform="translate(36.827 60.316)"><path d="M268.085,155.074l-6.825,10.17-2.672-1.1L238.78,176.667l-3.862-10.479s11.217-3.318,13.645-6.886.251-4.7.251-4.7l5.7-5.1Z" transform="translate(-234.918 -149.496)" fill="#ebebeb"/></g><path d="M247.362,105.582s-7.878-2.759-17.954-15.072-13.686-27.5-15.088-27.591-7.15-3.65-21.74,20.144-10.73,30.186-8.421,30.415,18.471-2.257,28.107.022,21.583,8.875,21.583,8.875Z" transform="translate(-181.91 -62.677)" fill="#ebebeb"/><g transform="translate(50.145 38.759)"><path d="M284.909,139.351l-3.389,4.919-1.519,2.2a6.9,6.9,0,0,1-9.292,1.965l-16.621-8.12,12.862-21.85,16.223,11.309A6.9,6.9,0,0,1,284.909,139.351Z" transform="translate(-254.088 -118.467)" fill="#e0e0e0"/></g><g transform="translate(1.664 0.486)"><path d="M194.192,83.846c-7.794,12.9-11.813,24.75-8.978,26.462s11.451-7.359,19.244-20.261,11.813-24.749,8.978-26.462S201.985,70.943,194.192,83.846Z" transform="translate(-184.305 -63.377)" fill="#e0e0e0"/></g><g transform="translate(67.555 54.254)"><path d="M288.828,146.632c-.087.144-2.324-1.049-5-2.664s-4.769-3.042-4.682-3.185,2.323,1.049,5,2.664S288.915,146.489,288.828,146.632Z" transform="translate(-279.148 -140.771)" fill="#ebebeb"/></g><g transform="translate(70.398 51.339)"><path d="M291.918,142.23c-.092.141-2.108-1.008-4.5-2.566s-4.263-2.936-4.171-3.077,2.106,1.009,4.5,2.567S292.009,142.089,291.918,142.23Z" transform="translate(-283.24 -136.575)" fill="#ebebeb"/></g><g transform="translate(66.164 58.077)"><path d="M285.98,151.549c-.035.077-.578-.119-1.435-.5-.429-.19-.935-.428-1.5-.7s-1.119-.656-1.729-1.025a20.118,20.118,0,0,1-4.172-3.037c.1-.154,2.083,1.031,4.489,2.518.6.365,1.159.756,1.69,1.056s1.012.566,1.41.8C285.534,151.138,286.014,151.472,285.98,151.549Z" transform="translate(-277.146 -146.274)" fill="#ebebeb"/></g><g transform="translate(11.22 17.936)"><path d="M211.313,89.983s-6.511-5.2-11.5,3.838,2.227,11.49,2.227,11.49A63.748,63.748,0,0,0,211.313,89.983Z" transform="translate(-198.06 -88.494)" fill="#fafafa"/></g><g transform="translate(8.193 8.996)"><path d="M218.818,75.626a10.7,10.7,0,0,1-.493,1.783c-.361,1.134-.878,2.782-1.576,4.8l-1.369,3.209-.768,1.787q-.2.461-.4.934c-.144.312-.319.614-.48.927l-2.08,3.909L211.1,94c-.18.347-.414.665-.621,1l-1.3,2.031-1.307,2.029c-.222.329-.415.674-.654.982l-.706.924-2.694,3.516c-.218.277-.42.561-.644.823l-.684.756-1.309,1.443-2.354,2.58c-1.54,1.469-2.821,2.619-3.7,3.418a10.782,10.782,0,0,1-1.418,1.19,10.714,10.714,0,0,1,1.255-1.361l3.569-3.558,2.281-2.612,1.274-1.45.667-.757c.219-.261.417-.547.63-.825l2.648-3.514.7-.921c.238-.307.428-.65.647-.978q.639-.994,1.294-2.016l1.3-2.015c.206-.335.44-.65.621-.994l.548-1.015c.727-1.34,1.428-2.634,2.1-3.866.164-.31.341-.608.488-.916l.412-.923.791-1.763,1.43-3.162,1.751-4.714A10.952,10.952,0,0,1,218.818,75.626Z" transform="translate(-193.702 -75.626)" fill="#e0e0e0"/></g></g><g transform="translate(0 43.477)"><path d="M165.652,102.079c0,.1-5.11-.069-11.4-.377s-11.39-.638-11.385-.739,5.109.069,11.4.377S165.657,101.979,165.652,102.079Z" transform="translate(-142.865 -100.935)" fill="#ebebeb"/></g><g transform="translate(1.482 16.485)"><path d="M171.269,75.327c-.045.09-5.963-2.8-13.216-6.459s-13.1-6.694-13.054-6.783,5.962,2.8,13.217,6.46S171.314,75.239,171.269,75.327Z" transform="translate(-144.999 -62.083)" fill="#ebebeb"/></g><g transform="translate(31.294)"><path d="M193.29,58.492c-.1.026-1.378-4.462-2.862-10.021s-2.609-10.09-2.512-10.116,1.378,4.461,2.862,10.022S193.387,58.466,193.29,58.492Z" transform="translate(-187.91 -38.355)" fill="#ebebeb"/></g></g><g transform="translate(276.909 26.735)"><path d="M471.115,82.856a8.476,8.476,0,0,0-2.928-4.164,8.137,8.137,0,0,0-4.627-1.849,6.571,6.571,0,0,0-6.551,4.564,6.613,6.613,0,0,0-2.288-1.753,6.68,6.68,0,0,0-5.231-.117,8.139,8.139,0,0,0-3.736,3.3,8.472,8.472,0,0,0-1.358,4.9,10.309,10.309,0,0,0,2.345,6.032,14.587,14.587,0,0,0,5.755,3.782c3.573,1.389,8.256,3.093,8.256,3.093s3.135-3.316,6.033-5.825a14.584,14.584,0,0,0,4.149-5.5A10.311,10.311,0,0,0,471.115,82.856Z" transform="translate(-444.384 -76.838)" fill="#ebebeb"/></g><g transform="translate(256.336 8.345)"><path d="M430.914,56.388a5.022,5.022,0,0,0-.839-2.895,4.82,4.82,0,0,0-2.237-1.926,3.891,3.891,0,0,0-4.547,1.3,3.888,3.888,0,0,0-3.854-2.493,4.825,4.825,0,0,0-2.727,1.129,5.022,5.022,0,0,0-1.7,2.487,6.108,6.108,0,0,0,.154,3.829,8.649,8.649,0,0,0,2.5,3.226c1.735,1.465,4.031,3.319,4.031,3.319s2.393-1.255,4.5-2.1a8.636,8.636,0,0,0,3.381-2.282A6.1,6.1,0,0,0,430.914,56.388Z" transform="translate(-414.773 -50.367)" fill="#ebebeb"/></g><g transform="translate(127.96 238.378)"><path d="M245.444,384.515a5.015,5.015,0,0,0-2-2.253,4.817,4.817,0,0,0-2.847-.777,3.893,3.893,0,0,0-3.548,3.126,3.916,3.916,0,0,0-1.464-.877,3.958,3.958,0,0,0-3.087.283,4.821,4.821,0,0,0-1.977,2.192,5.014,5.014,0,0,0-.469,2.978,6.1,6.1,0,0,0,1.785,3.391,8.638,8.638,0,0,0,3.641,1.839c2.2.577,5.065,1.264,5.065,1.264s1.622-2.163,3.159-3.834a8.645,8.645,0,0,0,2.072-3.514A6.106,6.106,0,0,0,245.444,384.515Z" transform="translate(-229.988 -381.475)" fill="#ebebeb"/></g><g transform="translate(386.263 91.866)"><path d="M632.437,186.818a23.99,23.99,0,0,0-.413-3.652,14.32,14.32,0,0,0-1.517-4.007A14.8,14.8,0,0,0,613,172.195a13.85,13.85,0,0,0-3.806,1.865,13.485,13.485,0,0,0-3.235,3.01,14.682,14.682,0,0,0-.677,17.414,13.5,13.5,0,0,0,2.992,3.253,13.872,13.872,0,0,0,3.65,2.155,14.841,14.841,0,0,0,18-5.588,14.334,14.334,0,0,0,1.823-3.877,23.971,23.971,0,0,0,.695-3.608.982.982,0,0,1,0,.243c-.011.187-.024.422-.041.713a6.958,6.958,0,0,1-.14,1.153,10.606,10.606,0,0,1-.345,1.549,14.14,14.14,0,0,1-1.779,3.966,15.093,15.093,0,0,1-10.436,6.781,15.171,15.171,0,0,1-7.937-.941A14.227,14.227,0,0,1,608,198.077a13.857,13.857,0,0,1-3.09-3.342,15.091,15.091,0,0,1,.7-17.945,13.884,13.884,0,0,1,3.339-3.092,14.255,14.255,0,0,1,3.924-1.906,15.174,15.174,0,0,1,7.986-.323,15.093,15.093,0,0,1,9.878,7.569,14.133,14.133,0,0,1,1.466,4.092,10.56,10.56,0,0,1,.224,1.572,6.911,6.911,0,0,1,.05,1.161c-.006.292-.01.527-.014.714A.984.984,0,0,1,632.437,186.818Z" transform="translate(-601.941 -170.739)" fill="#e0e0e0"/><path d="M617.261,201.576a14.9,14.9,0,0,1-5.788-1.126,14.511,14.511,0,0,1-3.847-2.254,13.353,13.353,0,0,1-1.383-1.245l-.309-.3-.267-.314a14.193,14.193,0,0,1-1.206-1.564,15.439,15.439,0,0,1,.723-18.351,14.1,14.1,0,0,1,1.32-1.46l.26-.263.352-.3a13.378,13.378,0,0,1,1.492-1.146,14.522,14.522,0,0,1,4.01-1.945,15.6,15.6,0,0,1,8.16-.33,15.441,15.441,0,0,1,10.111,7.746,14.576,14.576,0,0,1,1.5,4.2,9.605,9.605,0,0,1,.212,1.446l.015.151a7.172,7.172,0,0,1,.052,1.206l-.015.709a2.137,2.137,0,0,1-.018.268,2,2,0,0,1,0,.224l-.041.718a7.183,7.183,0,0,1-.147,1.2l-.026.149a9.716,9.716,0,0,1-.329,1.437,14.546,14.546,0,0,1-1.815,4.043,15.442,15.442,0,0,1-10.681,6.94A17.114,17.114,0,0,1,617.261,201.576Zm.023-29.894a14.374,14.374,0,0,0-8.049,2.511,12.241,12.241,0,0,0-1.361,1.05l-.586.542a12.907,12.907,0,0,0-1.206,1.339,14.334,14.334,0,0,0-.67,17.009,13.011,13.011,0,0,0,1.109,1.445l.249.3.288.282a12.071,12.071,0,0,0,1.268,1.149,13.5,13.5,0,0,0,3.57,2.111,14.6,14.6,0,0,0,7.552.935,14.411,14.411,0,0,0,6.18-2.445,14.577,14.577,0,0,0,3.85-3.945,14.019,14.019,0,0,0,1.778-3.779,16.754,16.754,0,0,0,.626-3.206c.015-.14.024-.243.041-.324-.01-.081-.013-.185-.016-.326a16.685,16.685,0,0,0-.374-3.24,14.058,14.058,0,0,0-1.483-3.912,14.584,14.584,0,0,0-3.533-4.231,14.413,14.413,0,0,0-5.973-2.917A15.92,15.92,0,0,0,617.284,171.682Z" transform="translate(-601.788 -170.586)" fill="#e0e0e0"/><g transform="translate(25.01 26.413)"><path d="M638.29,209.151c.093-.086,3.231,3.155,7.008,7.237s6.765,7.463,6.672,7.549-3.23-3.153-7.008-7.238S638.2,209.237,638.29,209.151Z" transform="translate(-637.94 -208.771)" fill="#e0e0e0"/><path d="M651.948,224.123l-.148,0c-.138,0-.46-.017-7.245-7.351s-6.772-7.654-6.767-7.792l.006-.144.108-.1c.293-.274.319-.295,2.609,2.069,1.325,1.368,3.062,3.21,4.892,5.187s3.531,3.852,4.792,5.28c2.179,2.466,2.156,2.488,1.86,2.76Z" transform="translate(-637.788 -208.605)" fill="#e0e0e0"/></g></g><g transform="translate(48.612 77.69)"><path d="M139.61,161.074l-2.895,1.16-9.847-6.273-2.316-5.779s-4.585,1.518-1.027,8.874,2.218,5.658,2.218,5.658-9.487,3.844-9.946,4.986c-.334.83,3.188,10.372,5.14,15.531a5.969,5.969,0,0,0,6.164,4.009,4.463,4.463,0,0,0,1.078-.272c2.37-.95,13.706-7.728,13.706-7.728l5-2Z" transform="translate(-115.775 -150.182)" fill="#ebebeb"/><g transform="translate(24.908 5.985)"><path d="M158.207,158.8l6.154,20.515L159.4,181.3l-7.775-19.4Z" transform="translate(-151.628 -158.796)" fill="#ebebeb"/></g></g><g transform="translate(338.849 223.221)"><path d="M561.506,375.057l-3.412.563-9.157-9.15-1.123-6.811s-5.328.545-3.237,9.362,1.046,6.656,1.046,6.656-11.192,1.889-11.961,3.016c-.561.818.968,11.993,1.845,18.045a6.619,6.619,0,0,0,5.714,5.816,4.951,4.951,0,0,0,1.232-.037c2.793-.461,16.69-5.084,16.69-5.084l5.894-.972Z" transform="translate(-533.54 -359.659)" fill="#f5f5f5"/><g transform="translate(29.561 11.918)"><path d="M583.955,376.814,585.7,400.5l-5.844.963-3.77-22.868Z" transform="translate(-576.09 -376.814)" fill="#f5f5f5"/></g></g><g transform="translate(163.551 243.368)"><path d="M303.084,405.972a8.725,8.725,0,0,0,7.411-6.1,8.2,8.2,0,1,0-15.563-5.06,8.712,8.712,0,0,0,2.483,9.349c-12.572-2.031-16.2,11.178-16.2,11.178l28.319,9.205S314.4,411.571,303.084,405.972Z" transform="translate(-281.217 -388.659)" fill="#ebebeb"/></g></g><g transform="translate(93.584 61.044)"><g transform="translate(0 105.656)"><g transform="translate(0 7.32)"><rect width="365.612" height="89.256" rx="44.628" fill="url(#a)"/></g><g transform="translate(0 0.008)"><path d="M44.628,0H320.984a44.628,44.628,0,0,1,44.628,44.628v0a44.628,44.628,0,0,1-44.628,44.628H44.628A44.628,44.628,0,0,1,0,44.628v0A44.628,44.628,0,0,1,44.628,0Z" fill="#7d6eb2"/></g><g transform="translate(248.866 0.008)" opacity="0.3"><path d="M490.036,223.106s-2.011.047-3.026.037c-3.49-.037-9.74-.037-9.74-.037L472.8,231.4c1.035,2.184,2.386,4.627,4.755,5.109a7.023,7.023,0,0,0,3.52-.438,24.157,24.157,0,0,0,7.762-4.052,8.307,8.307,0,0,0,3.072-4.2C492.338,226.106,491.634,223.856,490.036,223.106Z" transform="translate(-472.796 -223.106)"/></g><g transform="translate(88.156)" opacity="0.3"><path d="M260.465,232.021c-1.05-2.577-2.722-7.2-4.914-8.919,0,0-14.012.241-14.082-.008l6.508,23.315a11.9,11.9,0,0,1,3.818,6.117c.677,2.167,1.227,4.5,2.8,6.131s4.619,2.106,5.974.286c1.516-2.039-.138-4.862-.185-7.4s1.558-4.776,2.211-7.225C263.69,240.221,262.064,235.946,260.465,232.021Z" transform="translate(-241.47 -223.094)"/></g><text transform="translate(56.524 66.323)" fill="#fff" font-size="59" font-family="Roboto-Bold, Roboto" font-weight="700"><tspan x="0" y="0">Identidad</tspan></text></g><g transform="translate(79.526 0)"><g transform="translate(63.049)"><path d="M389.789,104.634a21.722,21.722,0,0,0,1.968-7.67c.016-2.662-1.162-5.507-3.495-6.644-2.156-1.05-4.746-.446-7.022-1.178-2.807-.9-4.648-3.648-5.965-6.362s-2.4-5.664-4.546-7.735a9.535,9.535,0,0,0-10.87-1.467,16.212,16.212,0,0,0-8.415-2.566c-3.745,0-7.994.43-10.524,3.192-1.962,2.143-3.167,4.828-5.609,6.4-3.359,2.167-7.775.548-11.763.817-.814.056-1.756.292-2.068,1.045a2.471,2.471,0,0,0,.384,2.008l3.283,6.344a6.139,6.139,0,0,1-5.346.035A18.154,18.154,0,0,0,324.9,102.13a1.542,1.542,0,0,0-2.1.875,3.857,3.857,0,0,0,.115,2.551,18.69,18.69,0,0,0,25.753,11.521l22.056.98a5.622,5.622,0,0,0,3.9,3.408c2.409-1.9,2.771-2.936,2.771-2.936,1.551,1.082.342.55,1.551,1.082,2.768,1.217,6.756-.452,7.277-3.51a6.436,6.436,0,0,1,1.36-3.4,11.351,11.351,0,0,1,3.16-1.878,9.055,9.055,0,0,0,3.9-4.252A6.535,6.535,0,0,1,389.789,104.634Z" transform="translate(-319.802 -71.013)" fill="#263238"/><g transform="translate(15.566 4.197)"><path d="M342.236,98.119a21.193,21.193,0,0,1,19.645-20.981l1.094-.081c11.852-.176,18.623,9.792,18.471,21.645l1.761,54.584-27.057,1.928-1.023-17.734s-11.475-.932-12.447-12.266C342.21,119.741,342.161,108.391,342.236,98.119Z" transform="translate(-342.207 -77.055)" fill="#ffbe9d"/></g><g transform="translate(21.274 32.254)"><path d="M350.426,119.024a1.625,1.625,0,0,0,1.682,1.52,1.553,1.553,0,0,0,1.562-1.583,1.624,1.624,0,0,0-1.68-1.521A1.555,1.555,0,0,0,350.426,119.024Z" transform="translate(-350.424 -117.44)" fill="#263238"/></g><g transform="translate(18.989 27.656)"><path d="M347.166,112.768c.216.2,1.377-.8,3.121-.925,1.74-.148,3.085.655,3.258.427.086-.1-.146-.468-.733-.832a4.459,4.459,0,0,0-2.628-.6,4.28,4.28,0,0,0-2.464,1C347.214,112.285,347.06,112.68,347.166,112.768Z" transform="translate(-347.134 -110.821)" fill="#263238"/></g><g transform="translate(26.032 29.181)"><path d="M361.812,127.6a11.613,11.613,0,0,0-2.869-.3c-.449-.013-.877-.071-.974-.37a2.271,2.271,0,0,1,.2-1.341l1.068-3.486c1.474-4.96,2.507-9.025,2.306-9.083s-1.558,3.916-3.033,8.876q-.528,1.834-1.011,3.5a2.586,2.586,0,0,0-.1,1.764,1.12,1.12,0,0,0,.779.6,3.044,3.044,0,0,0,.764.05A11.349,11.349,0,0,0,361.812,127.6Z" transform="translate(-357.273 -113.016)" fill="#263238"/></g><g transform="translate(18.418 23.353)"><path d="M346.378,106.681c.4.372,1.846-.131,3.614-.262,1.764-.181,3.284.061,3.6-.375.138-.211-.122-.593-.8-.926a5.869,5.869,0,0,0-2.98-.465,5.759,5.759,0,0,0-2.835.977C346.38,106.077,346.2,106.5,346.378,106.681Z" transform="translate(-346.313 -104.627)" fill="#263238"/></g><g transform="translate(53.706 33.806)"><path d="M397.106,120.235c.187-.1,7.625-2.877,7.946,4.9s-7.55,6.492-7.572,6.27S397.106,120.235,397.106,120.235Z" transform="translate(-397.106 -119.674)" fill="#ffbe9d"/></g><g transform="translate(55.643 36.329)"><path d="M399.9,129.516c.033-.026.14.089.373.185a1.352,1.352,0,0,0,1.013-.022c.809-.335,1.446-1.667,1.426-3.07a4.47,4.47,0,0,0-.459-1.923,1.564,1.564,0,0,0-1.062-1,.689.689,0,0,0-.784.4c-.1.221-.04.374-.08.389-.021.021-.172-.123-.123-.447a.864.864,0,0,1,.286-.5,1.021,1.021,0,0,1,.741-.229,1.9,1.9,0,0,1,1.465,1.146,4.613,4.613,0,0,1,.559,2.147c.015,1.568-.727,3.067-1.837,3.438a1.451,1.451,0,0,1-1.247-.154C399.924,129.7,399.876,129.531,399.9,129.516Z" transform="translate(-399.895 -123.305)" fill="#eb996e"/></g><g transform="translate(8.648 2.465)"><path d="M379.938,88.707a18.255,18.255,0,0,0-3.021-6.273c-4.07-5.65-13.351-8.287-18.619-7.819s-10.741,4.376-15.653,6.336c-3.217,1.284-5.656,4.238-4.43,6.522a18.806,18.806,0,0,1-5.959,1.307s-.19,2.9,1.426,3.672l5.069,3.321c6.76.893,18.627-5.76,20.916-7.854a35.851,35.851,0,0,1,6.99-5.014c-2.15,5.646,4.86,4.4,4.673,6.588-2.149,7.94,4.332,10.873,4.332,10.873l.159,6.937c-.145,1.781.618,3.152,2.4,3.031h0a14.047,14.047,0,0,0,2.258-4.812C381.12,101.338,380.722,92.866,379.938,88.707Z" transform="translate(-332.25 -74.562)" fill="#263238"/></g><g transform="translate(28.39 59.173)"><path d="M360.666,161.627a27.58,27.58,0,0,0,14.544-5.44s-2.9,8.42-14.291,8.228Z" transform="translate(-360.666 -156.187)" fill="#eb996e"/></g><g transform="translate(37.619 31.213)"><path d="M373.952,117.525a1.625,1.625,0,0,0,1.682,1.52,1.553,1.553,0,0,0,1.562-1.583,1.624,1.624,0,0,0-1.68-1.521A1.555,1.555,0,0,0,373.952,117.525Z" transform="translate(-373.95 -115.941)" fill="#263238"/></g><g transform="translate(35.723 27.142)"><path d="M371.248,111.665c.214.22,1.585-.641,3.492-.567,1.906.049,3.281,1,3.495.793.1-.091-.106-.481-.707-.91a5.21,5.21,0,0,0-2.79-.9,4.938,4.938,0,0,0-2.787.716C371.353,111.191,371.143,111.566,371.248,111.665Z" transform="translate(-371.222 -110.081)" fill="#263238"/></g><g transform="translate(35.565 21.973)"><path d="M371,103.926c.169.477,1.916.265,3.964.527,2.054.222,3.7.834,3.979.411.123-.2-.163-.652-.827-1.118a6.949,6.949,0,0,0-6.051-.713C371.312,103.33,370.931,103.7,371,103.926Z" transform="translate(-370.995 -102.641)" fill="#263238"/></g><g transform="translate(30.241 45.48)"><g transform="translate(0.172 0.149)"><path d="M363.578,138.181a31.81,31.81,0,0,1,4.484-1.139l1.1-.35h0a3.883,3.883,0,0,1,.251,3.283,3.154,3.154,0,0,1-2.147,1.474,2.29,2.29,0,0,1-1.835-.3s-1.428-.566-1.854-2.971" transform="translate(-363.578 -136.691)" fill="#eb996e"/></g><path d="M366.524,141.389a3.7,3.7,0,0,0,1.647-.656,3.117,3.117,0,0,0,1.053-1.556,3.893,3.893,0,0,0-.012-2.3l-.04-.123.209.115c-1.667.372-3.174.687-4.268.9a9.02,9.02,0,0,1-1.783.269,9.044,9.044,0,0,1,1.728-.515c1.079-.274,2.577-.63,4.243-1l.16-.035.05.15.045.135a4.085,4.085,0,0,1-.016,2.518,3.252,3.252,0,0,1-1.219,1.658,2.712,2.712,0,0,1-1.294.488A.931.931,0,0,1,366.524,141.389Z" transform="translate(-363.331 -136.477)" fill="#263238"/></g><g transform="translate(43.444 6.96)"><path d="M407.675,114.415a1.518,1.518,0,0,1-.468-.121,2.733,2.733,0,0,1-1.082-.866,4.14,4.14,0,0,1-.8-2.042,12.4,12.4,0,0,1,.121-2.894,7.8,7.8,0,0,0-.149-3.392,3.261,3.261,0,0,0-1.043-1.508,7.974,7.974,0,0,0-1.738-1.016,12.04,12.04,0,0,1-1.931-1.04,4.121,4.121,0,0,1-1.447-1.816c-.629-1.474-.57-3.13-.919-4.678a5.462,5.462,0,0,0-.917-2.124,3.067,3.067,0,0,0-1.852-1.132c-.726-.167-1.484-.192-2.227-.341a3.342,3.342,0,0,1-1.97-1.052,4.657,4.657,0,0,1-.884-1.924c-.164-.659-.261-1.3-.4-1.907a7.119,7.119,0,0,0-.582-1.674,6.842,6.842,0,0,0-.932-1.344,7.284,7.284,0,0,0-4.284-2.338,10.683,10.683,0,0,0-1.837-.042,5.012,5.012,0,0,1,1.855-.1,7.282,7.282,0,0,1,4.456,2.307,7.053,7.053,0,0,1,.99,1.387,7.337,7.337,0,0,1,.627,1.737c.145.617.248,1.258.412,1.9a4.376,4.376,0,0,0,.828,1.785,3.012,3.012,0,0,0,1.785.93c.706.14,1.466.16,2.239.335a3.425,3.425,0,0,1,2.056,1.256,5.773,5.773,0,0,1,.985,2.264c.358,1.622.3,3.239.893,4.621a3.774,3.774,0,0,0,1.323,1.674,11.972,11.972,0,0,0,1.872,1.019,8.174,8.174,0,0,1,1.8,1.073A3.561,3.561,0,0,1,405.58,105a7.976,7.976,0,0,1,.12,3.52,12.553,12.553,0,0,0-.174,2.841,4.067,4.067,0,0,0,.712,1.98A2.855,2.855,0,0,0,407.675,114.415Z" transform="translate(-382.335 -81.031)" fill="#455a64"/></g><g transform="translate(6.265 4.134)"><path d="M328.82,85.518a1.778,1.778,0,0,1,.347.224l.972.67a17.187,17.187,0,0,0,3.827,1.979,9.329,9.329,0,0,0,6.221.125,6.464,6.464,0,0,0,2.973-2.136,22.563,22.563,0,0,0,2.036-3.5,10.748,10.748,0,0,1,2.473-3.306A10.516,10.516,0,0,1,351,77.649a12.636,12.636,0,0,1,6.436-.474,17.441,17.441,0,0,1,4.166,1.292c.469.213.825.394,1.063.524a1.783,1.783,0,0,1,.353.216,1.771,1.771,0,0,1-.385-.151c-.247-.108-.611-.268-1.087-.46a18.906,18.906,0,0,0-4.152-1.169,12.579,12.579,0,0,0-6.282.534,10.267,10.267,0,0,0-3.215,1.879,10.463,10.463,0,0,0-2.387,3.208,22.305,22.305,0,0,1-2.077,3.551,6.772,6.772,0,0,1-3.14,2.229,9.485,9.485,0,0,1-6.419-.2,15.975,15.975,0,0,1-3.822-2.1c-.416-.3-.727-.554-.936-.727A1.779,1.779,0,0,1,328.82,85.518Z" transform="translate(-328.819 -76.964)" fill="#455a64"/></g><g transform="translate(3.329 23.006)"><path d="M324.6,104.132c.042-.048.577.418,1.542,1.011a13.465,13.465,0,0,0,8.451,1.912c1.125-.12,1.809-.311,1.826-.249.007.024-.158.091-.463.192a8.34,8.34,0,0,1-1.33.311A12.084,12.084,0,0,1,326,105.357a8.316,8.316,0,0,1-1.066-.852C324.7,104.282,324.579,104.15,324.6,104.132Z" transform="translate(-324.594 -104.128)" fill="#455a64"/></g><g transform="translate(9.859 29.491)"><path d="M333.994,113.475c.044-.1,1.226.385,2.763.638s2.81.194,2.819.3a7.8,7.8,0,0,1-5.582-.94Z" transform="translate(-333.993 -113.462)" fill="#455a64"/></g></g><g transform="translate(45.55 66.629)"><g transform="translate(0 0)"><path d="M340.979,171.523l-22.305,6.144-24.06,17.386,6.417,10.977,113.459.2s-4.137-15.163-5.5-19.819c-2.049-7.021-4.829-9.008-7.368-11.575a11.978,11.978,0,0,0-4.051-2.383c-4.482-.977-25.252-5.643-29.295-5.529,0,0-4.661,9.635-14.427,9.54S340.979,171.523,340.979,171.523Z" transform="translate(-294.614 -166.918)" fill="#26aab7"/><g transform="translate(92.338 9.833)"><path d="M427.535,193.653c.069.018.278-.916.938-2.287a18.582,18.582,0,0,1,3.441-4.808,42.979,42.979,0,0,1,4.507-3.909,16.411,16.411,0,0,0,1.927-1.575,13.732,13.732,0,0,0-2.1,1.342,32.633,32.633,0,0,0-4.629,3.856,16.608,16.608,0,0,0-3.41,4.974,10.594,10.594,0,0,0-.579,1.74A1.944,1.944,0,0,0,427.535,193.653Z" transform="translate(-427.526 -181.071)" fill="#263238"/></g><g transform="translate(23.348 18.44)"><path d="M329.464,209.483a12.475,12.475,0,0,0,.076-2.359c-.016-1.456-.093-3.468-.262-5.684s-.4-4.218-.6-5.66a12.366,12.366,0,0,0-.433-2.32,14.667,14.667,0,0,0,.145,2.353c.134,1.577.3,3.515.483,5.658.144,2.145.274,4.085.381,5.664A14.574,14.574,0,0,0,329.464,209.483Z" transform="translate(-328.221 -193.46)" fill="#263238"/></g><g transform="translate(12.518 29.528)" opacity="0.3"><path d="M318.014,217.241a11.763,11.763,0,0,0,5.065-2.584,4.8,4.8,0,0,0,1.276-5.236,16.471,16.471,0,0,0,15.191,9.452l-26.914.335A23.219,23.219,0,0,1,318.014,217.241Z" transform="translate(-312.632 -209.42)"/></g></g></g><g transform="translate(163.834 100.961)"><path d="M491.418,221.261s-2.728-3.708-4.071-4.412-3.193-.681-4.006.048l-.814.729s-4.234-1.9-6.271-.44c0,0-4.029-1.9-5.955.276,0,0-3.106-2.018-4.421-.256s-1.177,4.739-.542,6.273,1.826,6.758,2.752,6.85c0,0,2.476.264,2.806-1.075s.471-1.983.471-1.983.946,4.735,2.086,4.969,3.314.109,3.388-1.969c0,0,1.057,1.57,2.09,1.113s2.309-1.214,2.2-2.5-.129-2.57-.129-2.57.566,1.872,1.5,1.466,1.875-.319,2.4-1.907,1.827-4.614,1.827-4.614Z" transform="translate(-464.871 -216.336)" fill="#ffbe9d"/><g transform="translate(15.148 1.137)"><path d="M487.73,226.714c.059-.031-.187-.513-.4-1.339a7.361,7.361,0,0,1,1.166-6.294c.5-.693.9-1.055.857-1.1s-.505.249-1.086.925a6.724,6.724,0,0,0-1.216,6.558A2.956,2.956,0,0,0,487.73,226.714Z" transform="translate(-486.675 -217.973)" fill="#eb996e"/></g><g transform="translate(10.257 0.877)"><path d="M480.5,217.6a6.512,6.512,0,0,0-.543,1.865,18.465,18.465,0,0,0,.625,9.284,6.5,6.5,0,0,0,.787,1.775A25.043,25.043,0,0,1,480.5,217.6Z" transform="translate(-479.636 -217.599)" fill="#eb996e"/></g><g transform="translate(5.12 1.188)"><path d="M472.453,218.046a19.889,19.889,0,0,0,1.132,9.873c.119-.035-.48-2.188-.785-4.912S472.577,218.052,472.453,218.046Z" transform="translate(-472.241 -218.046)" fill="#eb996e"/></g></g><g transform="translate(152.417 102.248)"><path d="M448.524,219.153a1.582,1.582,0,0,1,1.066-.863,3.444,3.444,0,0,1,3.071.823,11.842,11.842,0,0,1,2.244,2.764l-6-.038C448.961,220.921,448.187,220.008,448.524,219.153Z" transform="translate(-448.439 -218.188)" fill="#ffbe9d"/></g><g transform="translate(0 94.975)"><path d="M229.435,220.248a12.049,12.049,0,0,1,5.621-9.034h0a9.978,9.978,0,0,1,8.344-.827l11.585,4.034c.623.668,19.737-6.7,19.737-6.7l6.417,10.962-36.527-.051a86.973,86.973,0,0,0,6.378,6.536l2.481,8.237-.247,7.457c-1.31.6-3.271-1.7-3.271-1.7l-1.146,2.1.382,2.026s3.377,8.2,3.259,10.022a1.035,1.035,0,0,1-1.064,1.037,2.448,2.448,0,0,1-2.347-1.364l-4.8-9.327s-3.716-.907-5.014-2.13c-1.362-1.284-3.294-3.6-3.294-3.6l-2.358-.336a1.282,1.282,0,0,1-.816-.163,4.41,4.41,0,0,1-2.389-3.2l-1.2-6.285A37.977,37.977,0,0,1,229.435,220.248Z" transform="translate(-229.049 -207.72)" fill="#ffbe9d"/><g transform="translate(11.248 28.763)"><path d="M245.251,249.123a16.287,16.287,0,0,0,3.946,7.213c.09-.071-1.014-1.55-2.1-3.54S245.359,249.085,245.251,249.123Z" transform="translate(-245.239 -249.122)" fill="#eb996e"/></g><g transform="translate(5.669 28.078)"><path d="M237.228,248.137a4.563,4.563,0,0,0,1.062,2.029,6.354,6.354,0,0,0,1.517,1.708,7.4,7.4,0,0,0-1.2-1.934A14.153,14.153,0,0,0,237.228,248.137Z" transform="translate(-237.209 -248.136)" fill="#eb996e"/></g><g transform="translate(17.427 22.014)"><path d="M257.593,254.836a20.574,20.574,0,0,0-.654-2.277c-.422-1.4-.971-3.34-1.51-5.5-.27-1.08-.513-2.115-.723-3.056a7.88,7.88,0,0,1-.249-2.5,3.89,3.89,0,0,1,.882-2.1c-.012-.017-.22.1-.486.427a3.461,3.461,0,0,0-.668,1.636,7.57,7.57,0,0,0,.172,2.6c.192.952.424,1.991.7,3.077.541,2.171,1.134,4.11,1.625,5.493A11.135,11.135,0,0,0,257.593,254.836Z" transform="translate(-254.134 -239.407)" fill="#eb996e"/></g><g transform="translate(18.37 23.594)"><path d="M255.5,241.683c-.047.042.349.488.807,1.314a8.372,8.372,0,0,1,1.037,3.483,10.741,10.741,0,0,0,.172,2.079,3.071,3.071,0,0,0,.877,1.511,3.379,3.379,0,0,0,1.3.888c.041-.055-.47-.383-1.1-1.075a2.959,2.959,0,0,1-.729-1.4,12.555,12.555,0,0,1-.134-2.027,7.552,7.552,0,0,0-1.188-3.6A3.527,3.527,0,0,0,255.5,241.683Z" transform="translate(-255.491 -241.681)" fill="#eb996e"/></g><g transform="translate(10.63 5.003)"><path d="M249.373,220.931c.07-.089-1.288-1.214-2.653-2.889-1.382-1.653-2.243-3.219-2.367-3.117a4.333,4.333,0,0,0,.479,1.046,15.513,15.513,0,0,0,1.59,2.317A9.866,9.866,0,0,0,249.373,220.931Z" transform="translate(-244.35 -214.921)" fill="#eb996e"/></g></g><g transform="translate(128.928 95.421)" opacity="0.3"><path d="M421.525,218.827l.453-10.464-7.35,10.452Z" transform="translate(-414.628 -208.362)"/></g><g transform="translate(135.78 93.511)"><path d="M424.535,217.988a53.109,53.109,0,0,1,.163-6.2,53.358,53.358,0,0,1,.524-6.178,53.129,53.129,0,0,1-.163,6.2A53.4,53.4,0,0,1,424.535,217.988Z" transform="translate(-424.49 -205.613)" fill="#263238"/></g><g transform="translate(83.916 69.333)"><path d="M399.5,170.811a1.843,1.843,0,0,1,.187.677,3.032,3.032,0,0,1-.506,1.936,4.388,4.388,0,0,1-2.546,1.871,13.873,13.873,0,0,1-4.2.354,15.8,15.8,0,0,0-2.416.124,5.776,5.776,0,0,0-2.411.86,4.991,4.991,0,0,0-1.728,2.1,13.53,13.53,0,0,0-.889,2.827c-.227,1-.429,2.04-.748,3.083A8.519,8.519,0,0,1,382.7,187.6a8.711,8.711,0,0,1-6.107,3.173,9.033,9.033,0,0,1-6.49-2.322,10.034,10.034,0,0,1-2.047-2.63,5.772,5.772,0,0,0-1.995-2.288,4.735,4.735,0,0,0-2.818-.49,24.253,24.253,0,0,0-2.775.474,14.271,14.271,0,0,1-2.644.361,7,7,0,0,1-2.444-.388,8.305,8.305,0,0,1-3.5-2.337,8.074,8.074,0,0,1-1.639-2.728,7.557,7.557,0,0,1-.307-1.123c-.038-.336-.09-.617-.094-.847,0-.213,0-.384,0-.524a.656.656,0,0,1,.013-.177,8.424,8.424,0,0,0,.517,2.623,8.373,8.373,0,0,0,5.088,4.871,6.747,6.747,0,0,0,2.356.352,14.219,14.219,0,0,0,2.591-.375,23.988,23.988,0,0,1,2.808-.5,5.051,5.051,0,0,1,3.01.518,6.071,6.071,0,0,1,2.126,2.4,9.7,9.7,0,0,0,1.988,2.543,8.7,8.7,0,0,0,6.231,2.225,8.377,8.377,0,0,0,5.855-3.036c1.439-1.7,1.775-3.907,2.241-5.895a13.755,13.755,0,0,1,.927-2.89,5.3,5.3,0,0,1,1.848-2.21,6.047,6.047,0,0,1,2.539-.886,15.863,15.863,0,0,1,2.459-.1,13.9,13.9,0,0,0,4.139-.292,4.26,4.26,0,0,0,2.485-1.754,3.036,3.036,0,0,0,.553-1.854A6.285,6.285,0,0,0,399.5,170.811Z" transform="translate(-349.838 -170.811)" fill="#fff"/></g><g transform="translate(71.091 77.756)"><path d="M360.079,210.314a2.639,2.639,0,0,1-.147-.477l-.378-1.374A16.4,16.4,0,0,0,357.5,203.7a8.085,8.085,0,0,0-1.1-1.3,6.991,6.991,0,0,0-1.507-1.05,7.779,7.779,0,0,0-3.966-.7,27.044,27.044,0,0,0-4.491.783,18.676,18.676,0,0,1-4.923.637,6.1,6.1,0,0,1-6.462-5.969,21.583,21.583,0,0,1,.1-4.181,20.471,20.471,0,0,0,.088-3.592,6.519,6.519,0,0,0-2.164-4.541,4.927,4.927,0,0,0-1.685-.855c0-.006.044,0,.127.012a2.419,2.419,0,0,1,.365.079,3.866,3.866,0,0,1,1.28.653,6.57,6.57,0,0,1,2.332,4.627,20.163,20.163,0,0,1-.043,3.642,21.752,21.752,0,0,0-.065,4.12,5.771,5.771,0,0,0,6.143,5.645,18.543,18.543,0,0,0,4.832-.622,26.922,26.922,0,0,1,4.553-.77,8.047,8.047,0,0,1,4.119.764,7.2,7.2,0,0,1,1.563,1.114,8.271,8.271,0,0,1,1.125,1.358,15.694,15.694,0,0,1,1.981,4.868c.15.6.25,1.073.313,1.394A2.559,2.559,0,0,1,360.079,210.314Z" transform="translate(-331.377 -182.935)" fill="#fff"/></g><g transform="translate(120.745 94.483)"><path d="M418.781,208.786a16.174,16.174,0,0,0-3.036-1.158,10.99,10.99,0,0,0-3.485-.256,10.234,10.234,0,0,0-4.065,1.246,10.878,10.878,0,0,0-3.242,2.763,10.163,10.163,0,0,0-1.661,3.064,4.342,4.342,0,0,0-.154,2.311,6.811,6.811,0,0,0,.3.812c-.01.007-.063-.052-.154-.174a2.376,2.376,0,0,1-.286-.6,4.237,4.237,0,0,1,.044-2.422,9.942,9.942,0,0,1,1.643-3.2,10.877,10.877,0,0,1,3.331-2.875,10.252,10.252,0,0,1,4.213-1.261,10.7,10.7,0,0,1,3.575.34,9.746,9.746,0,0,1,2.24.909,5.366,5.366,0,0,1,.557.349C418.727,208.725,418.788,208.776,418.781,208.786Z" transform="translate(-402.849 -207.012)" fill="#fff"/></g><g transform="translate(143.554 71.584)"><path d="M436.294,179.985c-.037.019-.252-.287-.426-.86a5.025,5.025,0,0,1,.861-4.434c.377-.466.69-.669.717-.638a6.411,6.411,0,0,0-1.152,5.932Z" transform="translate(-435.68 -174.05)" fill="#fff"/></g><g transform="translate(136.621 91.288)"><path d="M450.25,202.413a1.014,1.014,0,0,1-.072.3,5.789,5.789,0,0,1-.321.835,8.154,8.154,0,0,1-1.993,2.612,8.514,8.514,0,0,1-4.422,2.022c-1.876.279-3.882-.321-5.9-.823a13.451,13.451,0,0,0-2.992-.454,8.229,8.229,0,0,0-2.757.427,9.581,9.581,0,0,0-3.952,2.577,9.147,9.147,0,0,0-1.725,2.709c-.295.707-.372,1.13-.414,1.12a1.021,1.021,0,0,1,.045-.308,5.191,5.191,0,0,1,.237-.861,8.629,8.629,0,0,1,1.667-2.83,9.612,9.612,0,0,1,4.036-2.721,8.432,8.432,0,0,1,2.869-.466,13.534,13.534,0,0,1,3.071.458c2.038.51,3.985,1.095,5.772.844a8.411,8.411,0,0,0,4.3-1.886,8.591,8.591,0,0,0,2.033-2.481C450.093,202.812,450.212,202.4,450.25,202.413Z" transform="translate(-425.701 -202.413)" fill="#fff"/></g><g transform="translate(52.491 90.063)"><path d="M320.373,214.562c0,.012-.083.026-.242.04a3.983,3.983,0,0,1-.7.01,6.772,6.772,0,0,1-2.5-.649,7.393,7.393,0,0,1-2.92-2.481,6.855,6.855,0,0,1-.952-2.081,18.2,18.2,0,0,1-.412-2.4,7.862,7.862,0,0,0-1.37-4.269,5.445,5.445,0,0,0-3.2-1.684,16.783,16.783,0,0,0-2.527-.254,5.2,5.2,0,0,1-.939-.06,4.253,4.253,0,0,1,.939-.081,13.582,13.582,0,0,1,2.572.144,5.6,5.6,0,0,1,3.413,1.719,5.276,5.276,0,0,1,1.05,2.045,16.23,16.23,0,0,1,.426,2.4,18.772,18.772,0,0,0,.4,2.35,6.64,6.64,0,0,0,.886,1.986,7.33,7.33,0,0,0,2.757,2.438A8.486,8.486,0,0,0,320.373,214.562Z" transform="translate(-304.604 -200.649)" fill="#fff"/></g></g></g><g transform="translate(258.599 231.786)"><g transform="translate(0 12.7)"><g transform="translate(0.126 0.174)"><path d="M363.724,373.85a18.173,18.173,0,0,1,2.02,6.216h3.729v0l15.652-.274-.113.279s2.55-12,3.017-15.577c.384-2.949,2.2-9.992-.017-13.1a3.249,3.249,0,0,0-3.583-1.2,2.544,2.544,0,0,0-1.794,1.966s-.189-4.165-3.176-4.228-3.092,2.272-3.092,2.272-.82-4.754-4.144-4.712a3.193,3.193,0,0,0-2.75,2.313v-8.991a3.454,3.454,0,0,0-3.237-3.5,3.362,3.362,0,0,0-3.488,3.317l-.269,20.923-5.082-6.516c-1.325-1.689-4.494-.849-4.894.6,0,0-.916,1.909.975,4.724C354.893,360.469,363.724,373.85,363.724,373.85Z" transform="translate(-352.282 -335.312)" fill="#ffd947"/></g><path d="M363.668,373.773s-.088-.11-.244-.335l-.685-1-2.608-3.882-4.118-6.169-2.572-3.862a7.861,7.861,0,0,1-1.132-2.3,4.3,4.3,0,0,1,.023-2.716l-.008.022a2.172,2.172,0,0,1,1.125-1.213,3.913,3.913,0,0,1,1.635-.418,3.139,3.139,0,0,1,1.7.4,3.941,3.941,0,0,1,.369.265c.108.106.213.221.314.333l.538.688,4.541,5.8-.273.092c.069-5.839.144-12.238.224-19.043q.008-.638.016-1.281a6.492,6.492,0,0,1,.09-1.32,3.5,3.5,0,0,1,6.421-1.091,3.776,3.776,0,0,1,.511,1.313,7.723,7.723,0,0,1,.064,1.387q0,1.36,0,2.736,0,2.75,0,5.554l-.353-.055a3.4,3.4,0,0,1,2.552-2.386,1.565,1.565,0,0,1,.555-.04,3.206,3.206,0,0,1,.541.062,3.476,3.476,0,0,1,1.844,1.062,7.82,7.82,0,0,1,1.751,3.724l-.357.022a2.592,2.592,0,0,1,1.542-2.134,3.678,3.678,0,0,1,1.3-.3,3.622,3.622,0,0,1,.66.012l.333.038.323.1a3.213,3.213,0,0,1,1.853,1.785,7.058,7.058,0,0,1,.617,2.455l-.347-.032a2.744,2.744,0,0,1,1.685-2.011,3.423,3.423,0,0,1,3.681.8,4.7,4.7,0,0,1,.723,1.073,8.13,8.13,0,0,1,.63,2.424c.3,3.3-.4,6.429-.889,9.4-.419,3-1.013,5.853-1.546,8.57l-1.6,7.721-.254-.078.113-.278.126.183-15.654.229.086-.088v.092h-.088l-3.729-.016h-.063l-.008-.064a18.566,18.566,0,0,0-1.248-4.682c-.209-.514-.391-.9-.518-1.15s-.183-.39-.183-.39a12.013,12.013,0,0,1,.769,1.512,18,18,0,0,1,1.322,4.7l-.071-.064,3.729-.017-.088.088v-.09l.086,0,15.652-.319.2,0-.076.187-.112.279-.254-.078q.744-3.646,1.575-7.724c.525-2.72,1.109-5.563,1.521-8.563.481-2.98,1.167-6.1.868-9.312a7.816,7.816,0,0,0-.6-2.313,4.384,4.384,0,0,0-.66-.981,3.079,3.079,0,0,0-3.3-.711,2.382,2.382,0,0,0-1.471,1.766l-.253,1.2-.094-1.233a6.743,6.743,0,0,0-.586-2.32,2.86,2.86,0,0,0-1.646-1.6,3.586,3.586,0,0,0-2.352.139,2.237,2.237,0,0,0-1.33,1.824l-.11,1.175-.247-1.153a7.493,7.493,0,0,0-1.658-3.538,2.764,2.764,0,0,0-3.508-.625,3.115,3.115,0,0,0-1.378,1.788l-.353,1.1v-1.153q0-2.8,0-5.554,0-1.376,0-2.736a7.329,7.329,0,0,0-.058-1.321,3.389,3.389,0,0,0-.461-1.189,3.159,3.159,0,0,0-5.777.977,6.208,6.208,0,0,0-.084,1.25l-.017,1.281c-.094,6.806-.183,13.2-.265,19.043l-.006.436-.268-.344-4.522-5.816a4.494,4.494,0,0,0-1.141-1.223,2.866,2.866,0,0,0-1.547-.364,3.655,3.655,0,0,0-1.524.382,1.93,1.93,0,0,0-1,1.048v0l-.007.019a4.092,4.092,0,0,0-.019,2.541,7.653,7.653,0,0,0,1.089,2.236l2.55,3.88,4.068,6.2L362.8,372.4c.282.442.5.78.654,1.022S363.668,373.773,363.668,373.773Z" transform="translate(-352.101 -335.061)" fill="#263238"/><g transform="translate(10.701 44.514)"><g transform="translate(0.18 0.181)"><rect width="24.992" height="5.583" rx="2.791" fill="#ffd947"/></g><path d="M389.98,404.9c0-.02.2-.013.562-.1a2.715,2.715,0,0,0,1.362-.817,2.688,2.688,0,0,0,.565-1,3.278,3.278,0,0,0,.074-1.36,2.588,2.588,0,0,0-2.2-2.154l-19.96.024a2.542,2.542,0,0,0-2.211,1.31,2.913,2.913,0,0,0-.033,2.538,2.528,2.528,0,0,0,2,1.369c.852.026,1.742.01,2.58.018l8.982.039,6.055.058,1.646.034a3.455,3.455,0,0,1,.575.036,3.4,3.4,0,0,1-.575.037l-1.646.033-6.055.058-8.982.039c-.852,0-1.7.018-2.612-.008a2.877,2.877,0,0,1-2.288-1.551,3.262,3.262,0,0,1,.034-2.871,2.9,2.9,0,0,1,2.526-1.5c7.81.014,14.85-.011,20,.084a2.807,2.807,0,0,1,2.365,2.378,3.415,3.415,0,0,1-.109,1.442,2.814,2.814,0,0,1-.626,1.041,2.7,2.7,0,0,1-1.451.793A1.859,1.859,0,0,1,389.98,404.9Z" transform="translate(-367.504 -399.134)" fill="#263238"/></g><g transform="translate(16.968 12.245)"><path d="M376.706,360.785a45.3,45.3,0,0,1,0-8.1,45.476,45.476,0,0,1,0,8.1Z" transform="translate(-376.525 -352.686)" fill="#263238"/></g><g transform="translate(23.941 14.977)"><path d="M386.743,361.434a16.076,16.076,0,0,1,0-4.815,16.135,16.135,0,0,1,0,4.815Z" transform="translate(-386.562 -356.619)" fill="#263238"/></g><g transform="translate(30.3 17.002)"><path d="M395.9,364.35a16.14,16.14,0,0,1,0-4.816,16.078,16.078,0,0,1,0,4.816Z" transform="translate(-395.715 -359.534)" fill="#263238"/></g></g><g transform="translate(1.673 8.736)"><path d="M361.993,333.182a48.877,48.877,0,0,1-7.482-3.82,48.784,48.784,0,0,1,7.482,3.82Z" transform="translate(-354.51 -329.355)" fill="#263238"/></g><g transform="translate(10.862)"><path d="M369.422,327.433a80.469,80.469,0,0,1-1.667-10.653,80.531,80.531,0,0,1,1.667,10.653Z" transform="translate(-367.736 -316.78)" fill="#263238"/></g><g transform="translate(16.762 3.97)"><path d="M376.233,329.663a52.888,52.888,0,0,1,5.015-7.167,53.053,53.053,0,0,1-5.015,7.167Z" transform="translate(-376.229 -322.495)" fill="#263238"/></g></g></g></svg>