<svg xmlns="http://www.w3.org/2000/svg" width="357.498" height="260.549" viewBox="0 0 357.498 260.549"><g transform="translate(0 -54.953)"><g transform="translate(0 54.953)"><rect width="357.498" height="0.179" transform="translate(0 234.122)" fill="#ebebeb"/><rect width="23.682" height="0.179" transform="translate(297.995 245.63)" fill="#ebebeb"/><rect width="6.216" height="0.179" transform="translate(230.605 247.571)" fill="#ebebeb"/><rect width="13.722" height="0.179" transform="translate(283.557 238.991)" fill="#ebebeb"/><rect width="30.883" height="0.179" transform="translate(37.508 240.192)" fill="#ebebeb"/><rect width="4.528" height="0.179" transform="translate(74.757 240.192)" fill="#ebebeb"/><rect width="66.978" height="0.179" transform="translate(94.001 243.211)" fill="#ebebeb"/><path d="M180.353,257.187H42.288a4.086,4.086,0,0,1-4.081-4.081V59.033a4.086,4.086,0,0,1,4.081-4.08H180.353a4.085,4.085,0,0,1,4.08,4.08V253.106A4.086,4.086,0,0,1,180.353,257.187ZM42.288,55.132a3.906,3.906,0,0,0-3.9,3.9V253.106a3.906,3.906,0,0,0,3.9,3.9H180.353a3.906,3.906,0,0,0,3.9-3.9V59.033a3.906,3.906,0,0,0-3.9-3.9Z" transform="translate(-10.889 -54.953)" fill="#ebebeb"/><path d="M396.65,257.187H258.585a4.086,4.086,0,0,1-4.08-4.081V59.033a4.085,4.085,0,0,1,4.08-4.08H396.65a4.086,4.086,0,0,1,4.082,4.08V253.106A4.086,4.086,0,0,1,396.65,257.187ZM258.585,55.132a3.906,3.906,0,0,0-3.9,3.9V253.106a3.906,3.906,0,0,0,3.9,3.9H396.65a3.907,3.907,0,0,0,3.9-3.9V59.033a3.907,3.907,0,0,0-3.9-3.9Z" transform="translate(-72.535 -54.953)" fill="#ebebeb"/><g transform="translate(34.186 9.738)"><g transform="translate(187.609 6.33)"><path d="M341.466,92.233a3.494,3.494,0,0,0-4.5-3.348,7.481,7.481,0,0,0,.078-1.073,7.4,7.4,0,0,0-8.767-7.277,6.471,6.471,0,0,0-12,3.272c-.036,0-.072-.006-.108-.006a5.964,5.964,0,1,0,0,11.928h21.9l-.005-.005A3.494,3.494,0,0,0,341.466,92.233Z" transform="translate(-310.205 -77.425)" fill="#f0f0f0"/><path d="M331.933,102.736V95.92h-5.56v6.816h-4.527l7.307,6.174,7.307-6.174Z" transform="translate(-313.523 -82.696)" fill="#e0e0e0"/></g><g transform="translate(42.909)"><path d="M174.217,100.02a7.42,7.42,0,0,0-9.557-7.111,15.886,15.886,0,0,0,.167-2.28A15.716,15.716,0,0,0,146.2,75.176a13.742,13.742,0,0,0-25.484,6.948c-.077,0-.152-.011-.229-.011a12.666,12.666,0,1,0,0,25.333h46.518l-.009-.01A7.421,7.421,0,0,0,174.217,100.02Z" transform="translate(-107.825 -68.572)" fill="#f0f0f0"/><path d="M142.163,108.136v14.476h11.807V108.136h9.614L148.067,95.023l-15.518,13.113Z" transform="translate(-114.872 -76.111)" fill="#e0e0e0"/></g><g transform="translate(104.239 22.378)"><path d="M208.97,155.372V135.9h59.619v19.271" transform="translate(-197.982 -110.14)" fill="none" stroke="#e6e6e6" stroke-miterlimit="10" stroke-width="1"/><line y2="37.761" transform="translate(41.679 7.417)" fill="none" stroke="#e6e6e6" stroke-miterlimit="10" stroke-width="1"/><g transform="translate(30.691)"><rect width="21.977" height="13.767" rx="1.187" fill="#f0f0f0"/><rect width="20.459" height="11.6" rx="0.421" transform="translate(0.759 1.617)" fill="#e0e0e0"/></g><g transform="translate(0 43.466)"><rect width="21.977" height="13.767" rx="1.187" fill="#f0f0f0"/><rect width="20.459" height="11.6" rx="0.421" transform="translate(0.759 1.617)" fill="#e0e0e0"/></g><g transform="translate(30.691 43.466)"><rect width="21.977" height="13.767" rx="1.187" fill="#f0f0f0"/><rect width="20.459" height="11.6" rx="0.421" transform="translate(0.759 1.617)" fill="#e0e0e0"/></g><g transform="translate(59.666 43.466)"><rect width="21.977" height="13.767" rx="1.187" fill="#f0f0f0"/><rect width="20.459" height="11.6" rx="0.421" transform="translate(0.759 1.617)" fill="#e0e0e0"/></g><path d="M.806,0H8.119a.805.805,0,0,1,.805.805V8.119a.806.806,0,0,1-.806.806H.805A.805.805,0,0,1,0,8.119V.806A.806.806,0,0,1,.806,0Z" transform="translate(35.369 25.764) rotate(-45)" fill="#e0e0e0" style="isolation:isolate"/></g><g transform="translate(0.568 38.665)"><rect width="15.551" height="9.32" rx="0.871" transform="translate(14.013)" fill="#e0e0e0" opacity="0.8"/><rect width="12.577" height="7.114" rx="0.871" transform="translate(6.074 20.044)" fill="#e0e0e0"/><rect width="12.577" height="7.114" rx="0.871" transform="translate(25.157 20.044)" fill="#e0e0e0"/><g transform="translate(19.399 35.099)"><rect width="6.602" height="6.077" rx="0.871" fill="#e0e0e0"/><rect width="6.602" height="6.077" rx="0.871" transform="translate(8.384)" fill="#e0e0e0"/><rect width="6.602" height="6.077" rx="0.871" transform="translate(16.768)" fill="#e0e0e0"/></g><rect width="6.602" height="6.077" rx="0.871" transform="translate(0 35.099)" fill="#e0e0e0"/><rect width="6.602" height="6.077" rx="0.871" transform="translate(9.099 35.099)" fill="#e0e0e0"/><g transform="translate(2.842 9.32)"><path d="M84.17,146.409h.715v-5H75.59v-5.72h-.715v5.72H65.58v5H66.3v-4.29H84.17Z" transform="translate(-56.285 -135.684)" fill="#e0e0e0"/><path d="M61.875,164.974H52.58v3.575H53.3v-2.86h8.58v2.86h.715v-7.865h-.715Z" transform="translate(-52.58 -142.809)" fill="#e0e0e0"/><path d="M88.875,165.689v-5H88.16v5H79.58v2.86H80.3V166.4H88.16v2.145h.715V166.4H96.74v2.145h.715v-2.86Z" transform="translate(-60.276 -142.809)" fill="#e0e0e0"/></g></g><g transform="translate(216.944 27.307)"><path d="M380.993,120.36V125.5l2.645.25a13.717,13.717,0,0,0,1.972,4.744l-1.7,2.052,3.632,3.632,2.052-1.7a13.731,13.731,0,0,0,4.744,1.973l.25,2.645h5.137l.249-2.645a13.72,13.72,0,0,0,4.745-1.972l2.052,1.7,3.632-3.632-1.7-2.052a13.717,13.717,0,0,0,1.972-4.744l2.646-.25V120.36l-2.646-.249a13.711,13.711,0,0,0-1.972-4.744l1.7-2.052-3.632-3.632-2.052,1.7a13.733,13.733,0,0,0-4.745-1.972l-.249-2.645h-5.137l-.25,2.645a13.73,13.73,0,0,0-4.744,1.972l-2.052-1.7-3.632,3.632,1.7,2.051a13.72,13.72,0,0,0-1.972,4.745Zm16.164-4.385a6.953,6.953,0,1,1-6.953,6.953A6.953,6.953,0,0,1,397.157,115.975Z" transform="translate(-359.715 -106.764)" fill="#f5f5f5"/><path d="M379.7,168.924a10.748,10.748,0,0,0,3.718-1.546l1.608,1.331,2.846-2.846-1.331-1.608a10.742,10.742,0,0,0,1.546-3.718l2.073-.2v-4.025l-2.073-.2a10.736,10.736,0,0,0-1.546-3.718l1.331-1.608-2.846-2.846-1.608,1.331a10.76,10.76,0,0,0-3.718-1.545l-.2-2.073h-4.025l-.2,2.073a10.751,10.751,0,0,0-3.717,1.545l-1.608-1.331-2.846,2.846,1.331,1.608a10.764,10.764,0,0,0-1.546,3.718l-2.072.2v4.025l2.072.2a10.77,10.77,0,0,0,1.546,3.718l-1.331,1.608,2.846,2.846,1.608-1.331a10.738,10.738,0,0,0,3.717,1.546l.2,2.073h4.025Zm-7.656-10.594a5.449,5.449,0,1,1,5.448,5.449A5.449,5.449,0,0,1,372.048,158.33Z" transform="translate(-355.108 -117.851)" fill="#f5f5f5"/><path d="M366.849,140.458l1.35,1.118,2.391-2.39-1.118-1.351a9.037,9.037,0,0,0,1.3-3.123l1.741-.164v-3.38L370.77,131a9.032,9.032,0,0,0-1.3-3.123l1.118-1.351-2.391-2.391-1.35,1.119a9.037,9.037,0,0,0-3.123-1.3l-.164-1.741h-3.38l-.164,1.74a9.018,9.018,0,0,0-3.123,1.3l-1.351-1.119-2.39,2.391,1.118,1.351a9.031,9.031,0,0,0-1.3,3.123l-1.74.164v3.38l1.74.164a9.051,9.051,0,0,0,1.3,3.123l-1.118,1.351,2.39,2.39,1.351-1.118a9.031,9.031,0,0,0,3.123,1.3l.164,1.741h3.38l.164-1.741A9.038,9.038,0,0,0,366.849,140.458Zm-9.554-7.6a4.577,4.577,0,1,1,4.577,4.577A4.577,4.577,0,0,1,357.3,132.858Z" transform="translate(-351.233 -111.169)" fill="#f5f5f5"/></g><g transform="translate(231.961 182.652)"><g transform="translate(0)"><rect width="48.011" height="31.226" fill="#f5f5f5"/></g><rect width="44.498" height="23.81" transform="translate(1.757 5.855)" fill="#e0e0e0"/><g transform="translate(5.383 9.413)"><rect width="32.916" height="1.024" fill="#f5f5f5"/><rect width="15.793" height="1.024" transform="translate(0 3.137)" fill="#f5f5f5"/><rect width="19.891" height="1.024" transform="translate(0 6.274)" fill="#f5f5f5"/><rect width="7.01" height="1.024" transform="translate(0 9.411)" fill="#f5f5f5"/><rect width="4.54" height="1.024" transform="translate(0 12.548)" fill="#f5f5f5"/></g></g><g transform="translate(0 182.475)"><rect width="34.163" height="21.072" transform="matrix(1, -0.005, 0.005, 1, 0, 0.156)" fill="#ebebeb"/><g transform="translate(6.158 5.298)"><g transform="translate(0 0.038)"><path d="M63.373,341.84a.711.711,0,0,1-.421-.138l-6.233-4.554a.715.715,0,0,1-.005-1.15l6.192-4.61a.715.715,0,1,1,.854,1.147l-5.414,4.03,5.45,3.983a.715.715,0,0,1-.423,1.293Z" transform="translate(-56.425 -331.246)" fill="#fafafa"/></g><g transform="translate(14.279)"><path d="M77.154,341.788a.715.715,0,0,1-.428-1.288l5.414-4.032-5.45-3.981a.715.715,0,1,1,.844-1.155l6.233,4.553a.715.715,0,0,1,.005,1.15l-6.191,4.611A.715.715,0,0,1,77.154,341.788Z" transform="translate(-76.396 -331.194)" fill="#fafafa"/></g><g transform="translate(8.65 0.011)"><path d="M69.239,341.818a.715.715,0,0,1-.675-.951l3.211-9.179a.715.715,0,1,1,1.35.472l-3.211,9.179A.715.715,0,0,1,69.239,341.818Z" transform="translate(-68.523 -331.208)" fill="#fafafa"/></g></g></g></g></g><g transform="translate(217.634 271.889)"><g transform="translate(21.45 1.884)"><path d="M334.385,400.5h5.249l7.15-39.5h-5.249Z" transform="translate(-334.385 -360.998)" fill="#263238"/><path d="M334.385,400.5h5.249l7.15-39.5h-5.249Z" transform="translate(-334.385 -360.998)" fill="#fff" opacity="0.2"/><path d="M334.385,400.5H338.2l7.15-39.5h-3.819Z" transform="translate(-334.385 -360.998)" fill="#fff" opacity="0.2"/></g><path d="M313.226,376.507h21.016a1.16,1.16,0,0,0,1.16-1.16h0a1.16,1.16,0,0,0-1.16-1.16H313.226a1.16,1.16,0,0,0-1.16,1.16h0A1.16,1.16,0,0,0,313.226,376.507Z" transform="translate(-306.574 -362.873)" fill="#263238"/><path d="M309.962,395h21.015a1.16,1.16,0,0,0,1.16-1.16h0a1.161,1.161,0,0,0-1.16-1.16H309.962a1.161,1.161,0,0,0-1.16,1.16h0A1.16,1.16,0,0,0,309.962,395Z" transform="translate(-305.644 -368.143)" fill="#263238"/><g transform="translate(0 1.884)"><path d="M304.385,400.5h5.249l7.15-39.5h-5.249Z" transform="translate(-304.385 -360.998)" fill="#263238"/><path d="M304.385,400.5h5.249l7.15-39.5h-5.249Z" transform="translate(-304.385 -360.998)" fill="#fff" opacity="0.2"/><path d="M304.385,400.5H308.2l7.15-39.5h-3.819Z" transform="translate(-304.385 -360.998)" fill="#fff" opacity="0.2"/></g><g transform="translate(36.465 1.884)"><path d="M367.783,400.5h-5.249l-7.15-39.5h5.249Z" transform="translate(-355.385 -360.998)" fill="#263238"/><path d="M367.783,400.5h-5.249l-7.15-39.5h5.249Z" transform="translate(-355.385 -360.998)" fill="#fff" opacity="0.4"/><path d="M366.353,400.5h-3.819l-7.15-39.5H359.2Z" transform="translate(-355.385 -360.998)" fill="#fff" opacity="0.2"/></g><path d="M350.978,376.507H329.962a1.161,1.161,0,0,1-1.16-1.16h0a1.16,1.16,0,0,1,1.16-1.16h21.015a1.16,1.16,0,0,1,1.16,1.16h0A1.161,1.161,0,0,1,350.978,376.507Z" transform="translate(-311.344 -362.873)" fill="#263238"/><path d="M354.242,395H333.226a1.16,1.16,0,0,1-1.16-1.16h0a1.16,1.16,0,0,1,1.16-1.16h21.016a1.16,1.16,0,0,1,1.16,1.16h0A1.16,1.16,0,0,1,354.242,395Z" transform="translate(-312.274 -368.143)" fill="#263238"/><path d="M350.978,376.507H329.962a1.161,1.161,0,0,1-1.16-1.16h0a1.16,1.16,0,0,1,1.16-1.16h21.015a1.16,1.16,0,0,1,1.16,1.16h0A1.161,1.161,0,0,1,350.978,376.507Z" transform="translate(-311.344 -362.873)" fill="#fff" opacity="0.2"/><path d="M354.242,395H333.226a1.16,1.16,0,0,1-1.16-1.16h0a1.16,1.16,0,0,1,1.16-1.16h21.016a1.16,1.16,0,0,1,1.16,1.16h0A1.16,1.16,0,0,1,354.242,395Z" transform="translate(-312.274 -368.143)" fill="#fff" opacity="0.2"/><g transform="translate(15.015 1.884)"><path d="M337.783,400.5h-5.249l-7.15-39.5h5.249Z" transform="translate(-325.385 -360.998)" fill="#263238"/><path d="M337.783,400.5h-5.249l-7.15-39.5h5.249Z" transform="translate(-325.385 -360.998)" fill="#fff" opacity="0.4"/><path d="M336.353,400.5h-3.819l-7.15-39.5H329.2Z" transform="translate(-325.385 -360.998)" fill="#fff" opacity="0.2"/></g><g transform="translate(4.95)"><rect width="39.663" height="3.768" rx="1.187" fill="#263238"/><rect width="16.13" height="3.768" rx="1.187" fill="#fff" opacity="0.2"/></g></g><g transform="translate(90.949 281.531)"><g transform="translate(0 0)"><rect width="48.011" height="31.226" fill="#12263f"/><rect width="44.498" height="23.81" transform="translate(1.756 5.855)" fill="#d2e1f1"/><g transform="translate(5.382 9.413)"><rect width="32.916" height="1.024" fill="#fff"/><rect width="15.793" height="1.024" transform="translate(0 3.137)" fill="#fff"/><rect width="19.891" height="1.024" transform="translate(0 6.274)" fill="#fff"/><rect width="7.011" height="1.024" transform="translate(0 9.411)" fill="#fff"/><rect width="4.54" height="1.024" transform="translate(0 12.548)" fill="#fff"/></g></g></g><g transform="translate(81.894 133.194)"><g transform="translate(77.312 128.118)"><path d="M261.753,395.527H222.667l6.619-51.958h25.849Z" transform="translate(-222.667 -343.57)" fill="#12263f"/><path d="M260.023,367.781l-31.02-7.8,2.09-16.411h25.845Z" transform="translate(-224.473 -343.57)" opacity="0.1" style="isolation:isolate"/></g><path d="M303.532,164.382H119.253a4.716,4.716,0,0,0-4.715,4.715V293.851a4.716,4.716,0,0,0,4.715,4.715H303.532a4.716,4.716,0,0,0,4.715-4.715V169.1A4.716,4.716,0,0,0,303.532,164.382Z" transform="translate(-114.538 -164.382)" fill="#12263f"/><rect width="181.301" height="120.298" transform="translate(6.205 4.618)" fill="#d2e1f1"/><g transform="translate(63.289 176.172)"><rect width="67.131" height="3.841" rx="1.037" fill="#12263f"/></g><g transform="translate(6.205 4.733)"><rect width="181.301" height="17.931" opacity="0.2" style="isolation:isolate"/><rect width="77.693" height="102.04" transform="translate(0 18.143)" fill="#fff" opacity="0.4"/><g transform="translate(84.467 5.628)"><rect width="67.798" height="39.199" transform="translate(1.133 1.133)" fill="none" stroke="#fff" stroke-miterlimit="10" stroke-width="1" stroke-dasharray="5"/><rect width="2.267" height="2.267" transform="translate(67.798)" fill="#407bff" stroke="#fff" stroke-miterlimit="10" stroke-width="1"/><rect width="2.267" height="2.267" transform="translate(67.798 39.199)" fill="#407bff" stroke="#fff" stroke-miterlimit="10" stroke-width="1"/><rect width="2.267" height="2.267" fill="#407bff" stroke="#fff" stroke-miterlimit="10" stroke-width="1"/><rect width="2.267" height="2.267" transform="translate(0 39.199)" fill="#407bff" stroke="#fff" stroke-miterlimit="10" stroke-width="1"/><g transform="translate(33.899)"><rect width="2.267" height="2.267" fill="#407bff" stroke="#fff" stroke-miterlimit="10" stroke-width="1"/><rect width="2.267" height="2.267" transform="translate(0 39.198)" fill="#407bff" stroke="#fff" stroke-miterlimit="10" stroke-width="1"/></g><g transform="translate(0 19.599)"><rect width="2.267" height="2.267" transform="translate(67.798)" fill="#407bff" stroke="#fff" stroke-miterlimit="10" stroke-width="1"/><rect width="2.267" height="2.267" fill="#407bff" stroke="#fff" stroke-miterlimit="10" stroke-width="1"/></g></g><path d="M1.893,0H17.4A1.894,1.894,0,0,1,19.3,1.894V5.246A1.894,1.894,0,0,1,17.4,7.14H1.893A1.893,1.893,0,0,1,0,5.246V1.893A1.893,1.893,0,0,1,1.893,0Z" transform="translate(129.299 19.928)" fill="#fff" opacity="0.7"/><path d="M1.893,0H17.4A1.894,1.894,0,0,1,19.3,1.894V5.246A1.893,1.893,0,0,1,17.4,7.14H1.894A1.894,1.894,0,0,1,0,5.246V1.893A1.893,1.893,0,0,1,1.893,0Z" transform="translate(100.699 19.928)" fill="#fff" opacity="0.7"/><path d="M1.894,0H17.4A1.894,1.894,0,0,1,19.3,1.894V5.246A1.893,1.893,0,0,1,17.4,7.14H1.894A1.894,1.894,0,0,1,0,5.246V1.894A1.894,1.894,0,0,1,1.894,0Z" transform="translate(63.878 106.863)" fill="#fff" opacity="0.7"/><g transform="translate(169.338 6.376)"><line x2="6.034" fill="none" stroke="#fff" stroke-linecap="round" stroke-linejoin="round" stroke-width="1.5"/><line x2="6.034" transform="translate(0 2.86)" fill="none" stroke="#fff" stroke-linecap="round" stroke-linejoin="round" stroke-width="1.5"/><line x2="6.034" transform="translate(0 5.72)" fill="none" stroke="#fff" stroke-linecap="round" stroke-linejoin="round" stroke-width="1.5"/></g><rect width="60.813" height="60.813" transform="translate(12.291 33.96)" fill="#fff" opacity="0.5"/><g transform="translate(36.614 37.801)"><line y2="52.452" transform="translate(1.133 1.133)" fill="none" stroke="#12263f" stroke-miterlimit="10" stroke-width="1"/><path d="M202.237,277.907h0a26.226,26.226,0,0,1-26.226-26.226h0a26.226,26.226,0,0,1,26.226-26.226h0" transform="translate(-174.878 -224.321)" fill="none" stroke="#12263f" stroke-miterlimit="10" stroke-width="1"/><rect width="2.267" height="2.267" transform="translate(26.226)" fill="#fff" stroke="#12263f" stroke-miterlimit="10" stroke-width="1"/><rect width="2.267" height="2.267" transform="translate(26.226 52.452)" fill="#fff" stroke="#12263f" stroke-miterlimit="10" stroke-width="1"/><rect width="2.267" height="2.267" transform="translate(0 26.226)" fill="#fff" stroke="#12263f" stroke-miterlimit="10" stroke-width="1"/><path d="M176.364,225.221a.588.588,0,1,1-.588-.588A.588.588,0,0,1,176.364,225.221Z" transform="translate(-174.643 -224.087)" fill="#fff" stroke="#12263f" stroke-miterlimit="10" stroke-width="1"/><path d="M176.364,298.581a.588.588,0,1,1-.588-.587A.588.588,0,0,1,176.364,298.581Z" transform="translate(-174.643 -244.995)" fill="#fff" stroke="#12263f" stroke-miterlimit="10" stroke-width="1"/></g><path d="M307.47,317.428H289.062a5.32,5.32,0,0,1-5.32-5.32h0a5.32,5.32,0,0,1,5.32-5.32H307.47a5.32,5.32,0,0,1,5.32,5.32h0A5.32,5.32,0,0,1,307.47,317.428Z" transform="translate(-168.967 -209.701)" fill="#fff" opacity="0.7"/><path d="M316.418,257.291H259.548a1.163,1.163,0,0,1-1.163-1.163h0a1.163,1.163,0,0,1,1.163-1.163h56.871a1.163,1.163,0,0,1,1.163,1.163h0A1.163,1.163,0,0,1,316.418,257.291Z" transform="translate(-161.74 -194.931)" fill="#fff" opacity="0.7"/><path d="M316.418,269.168H259.548a1.163,1.163,0,0,1-1.163-1.163h0a1.163,1.163,0,0,1,1.163-1.163h56.871a1.163,1.163,0,0,1,1.163,1.163h0A1.163,1.163,0,0,1,316.418,269.168Z" transform="translate(-161.74 -198.316)" fill="#fff" opacity="0.7"/><path d="M324.968,281.044H289.548a1.163,1.163,0,0,1-1.163-1.163h0a1.163,1.163,0,0,1,1.163-1.163h35.421a1.163,1.163,0,0,1,1.163,1.163h0A1.163,1.163,0,0,1,324.968,281.044Z" transform="translate(-170.29 -201.701)" fill="#fff" opacity="0.7"/><g transform="translate(5.726 4.97)"><rect width="4.017" height="4.017" opacity="0.4" style="isolation:isolate"/><path d="M1.439,0H2.578a1.44,1.44,0,0,1,1.44,1.44V2.578A1.439,1.439,0,0,1,2.578,4.017H1.44A1.44,1.44,0,0,1,0,2.578V1.439A1.439,1.439,0,0,1,1.439,0Z" transform="translate(7.812)" opacity="0.4" style="isolation:isolate"/><path d="M2.009,0h0A2.009,2.009,0,0,1,4.017,2.009v0A2.009,2.009,0,0,1,2.009,4.017h0A2.009,2.009,0,0,1,0,2.009v0A2.009,2.009,0,0,1,2.009,0Z" transform="translate(15.623)" opacity="0.4" style="isolation:isolate"/></g><g transform="translate(8.191 98.323)"><path d="M144.527,314.226V312.66l-.807-.076a4.176,4.176,0,0,0-.6-1.446l.518-.626-1.108-1.107-.626.518a4.173,4.173,0,0,0-1.446-.6l-.076-.806h-1.566l-.076.806a4.171,4.171,0,0,0-1.446.6l-.626-.518-1.107,1.107.518.626a4.177,4.177,0,0,0-.6,1.446l-.806.076v1.566l.806.076a4.174,4.174,0,0,0,.6,1.446l-.518.626,1.107,1.107.626-.518a4.171,4.171,0,0,0,1.446.6l.076.806h1.566l.076-.806a4.173,4.173,0,0,0,1.446-.6l.626.518,1.108-1.107-.518-.626a4.173,4.173,0,0,0,.6-1.446Zm-4.927,1.336a2.12,2.12,0,1,1,2.119-2.119A2.119,2.119,0,0,1,139.6,315.562Z" transform="translate(-134.673 -308.516)" fill="#fff" opacity="0.9"/><path d="M154.252,320.9v-1.227l-.632-.06a3.268,3.268,0,0,0-.471-1.133l.406-.49-.867-.867-.49.405a3.284,3.284,0,0,0-1.133-.471l-.059-.631h-1.227l-.059.631a3.284,3.284,0,0,0-1.133.471l-.49-.405-.867.867.406.49a3.268,3.268,0,0,0-.471,1.133l-.632.06V320.9l.632.059a3.271,3.271,0,0,0,.471,1.133l-.406.49.867.868.49-.406a3.27,3.27,0,0,0,1.133.471l.059.632H151l.059-.632a3.27,3.27,0,0,0,1.133-.471l.49.406.867-.868-.406-.49a3.271,3.271,0,0,0,.471-1.133Zm-3.861,1.048a1.661,1.661,0,1,1,1.661-1.661A1.661,1.661,0,0,1,150.391,321.947Z" transform="translate(-138.052 -310.77)" fill="#fff" opacity="0.6"/><path d="M145.869,326.056v-1.03l-.531-.05a2.748,2.748,0,0,0-.4-.952l.341-.412-.729-.729-.412.341a2.748,2.748,0,0,0-.952-.4l-.05-.531h-1.03l-.05.531a2.751,2.751,0,0,0-.952.4l-.411-.341-.729.729.341.412a2.746,2.746,0,0,0-.4.952l-.531.05v1.03l.531.05a2.747,2.747,0,0,0,.4.952l-.341.412.729.729.411-.34a2.765,2.765,0,0,0,.952.4l.05.531h1.03l.05-.531a2.761,2.761,0,0,0,.952-.4l.412.34.729-.729-.341-.412a2.748,2.748,0,0,0,.4-.952Zm-3.243.88a1.4,1.4,0,1,1,1.395-1.395A1.4,1.4,0,0,1,142.626,326.936Z" transform="translate(-136.015 -312.444)" fill="#fff" opacity="0.4"/></g></g><g transform="translate(159.186 11.09)"><g transform="translate(0 0)"><path d="M337.177,179.892,340.21,188l5.073-5.073Z" transform="translate(-337.177 -179.892)" fill="#12263f"/><rect width="1.598" height="3.552" transform="translate(3.749 4.879) rotate(-45)" fill="#12263f"/></g></g><g transform="translate(34.15 34.161)"><path d="M163.131,218.064l7.627,2.854-4-4a.779.779,0,0,1-.937-.12.789.789,0,1,1,1.117-1.116.779.779,0,0,1,.119.936l4,4L168.2,212.99l-2.526.561-.1-.912-.478-.478-2.8,2.8.478.478.912.1Z" transform="translate(-162.3 -212.16)" fill="#263238"/><path d="M163.131,218.064l7.627,2.854-4-4a.779.779,0,0,1-.937-.12.789.789,0,1,1,1.117-1.116.779.779,0,0,1,.119.936l4,4L168.2,212.99l-2.526.561-.1-.912-.478-.478-2.8,2.8.478.478.912.1Z" transform="translate(-162.3 -212.16)" fill="#fff" opacity="0.2"/></g></g><g transform="translate(248.882 130.812)"><g transform="translate(56.012 33.539)"><path d="M437.493,207.958c2.536,2.929,15.449,27.8,12.953,33.611s-23.186-.887-23.186-.887l1.236-8.195s8.04.282,8.809-.48-10.877-12.393-10.877-12.393Z" transform="translate(-426.429 -207.958)" fill="#7d6eb2"/></g><path d="M449.269,245.69c-.007,0-.014.007-.021.014-.129.064-.272.129-.415.186a.5.5,0,0,1-.057.021,3.18,3.18,0,0,1-.393.136,8.674,8.674,0,0,1-1.787.372c-.172.021-.343.036-.522.05-.257.021-.515.036-.779.043-.222.007-.45.014-.679.014-6.935.007-17.024-3.253-17.024-3.253l1.237-8.2s9.052.765,9.824,0a.1.1,0,0,0,.021-.036c.143-.3-.858-1.316-2.338-2.61l-.014-.014c-2.274-2.8-6.828-7.45-8.709-9.352l5.234-5.591,3.983-.429S445.622,231.276,449.269,245.69Z" transform="translate(-370.748 -177.008)" opacity="0.2" style="isolation:isolate"/><g transform="translate(39.218 31.78)"><path d="M404.71,206.441c-1.434,1.04-2.139,2.512-1.575,3.29l37.782,52.09c.563.777,2.182.564,3.615-.475s2.139-2.513,1.574-3.29l-37.782-52.09C407.761,205.189,406.143,205.4,404.71,206.441Z" transform="translate(-402.941 -205.499)" fill="#263238"/><path d="M408.325,205.968l37.782,52.09c.563.776-.144,2.25-1.573,3.287s-3.05,1.25-3.613.474l-37.782-52.09a1.626,1.626,0,0,1,.138-1.734,4.187,4.187,0,0,1,.717-.935,5.611,5.611,0,0,1,.718-.618C406.141,205.405,407.762,205.192,408.325,205.968Z" transform="translate(-402.942 -205.499)" fill="#fff" opacity="0.7"/><path d="M446.239,258.679c.563.776-.144,2.25-1.573,3.287s-3.05,1.25-3.613.474c-.311-.428.469-1.075.922-2.015l-38.565-51.809a4.185,4.185,0,0,1,.717-.935l37.786,52.1a5.646,5.646,0,0,1,.714-.623C444.055,258.117,445.676,257.9,446.239,258.679Z" transform="translate(-403.074 -206.121)" opacity="0.3" style="isolation:isolate"/></g><g transform="translate(35.045 29.841)"><path d="M398.367,204.223c-1.21,1.293-1.622,2.872-.922,3.528L444.42,251.73c.7.656,2.25.141,3.46-1.152s1.623-2.872.922-3.528l-46.975-43.979C401.126,202.415,399.577,202.931,398.367,204.223Z" transform="translate(-397.104 -202.786)" fill="#407bff"/><path d="M401.826,203.072,448.8,247.051c.7.655.286,2.237-.921,3.526s-2.758,1.805-3.457,1.15l-46.976-43.979a1.626,1.626,0,0,1-.193-1.728,4.2,4.2,0,0,1,.526-1.055,5.763,5.763,0,0,1,.588-.743C399.575,202.934,401.127,202.418,401.826,203.072Z" transform="translate(-397.105 -202.787)" fill="#fff" opacity="0.7"/><path d="M448.86,247.919c.7.655.286,2.237-.921,3.526s-2.758,1.805-3.457,1.15c-.387-.361.257-1.144.523-2.153l-47.692-43.555a4.2,4.2,0,0,1,.526-1.055l46.981,43.984a5.674,5.674,0,0,1,.583-.748C446.61,247.781,448.161,247.265,448.86,247.919Z" transform="translate(-397.163 -203.655)" opacity="0.3" style="isolation:isolate"/></g><path d="M409.3,370.057l-3.582.057c-3.639-17.1-6.213-38.252-7.815-54.211-.25-2.5-.479-4.869-.679-7.078-.093-1.051-.186-2.059-.272-3.032-.429-4.8-.722-8.6-.9-10.954-.129-1.716-.193-2.66-.193-2.66H408.8l-.122,3.3-.4,10.882-.043,1.244-.272,7.186-.451,12.234C411.954,344.246,409.3,370.057,409.3,370.057Z" transform="translate(-361.704 -198.423)" fill="#ebb376"/><path d="M444.7,369.262l-3.525.665c-7.057-17.639-13.685-40.226-18-56.006-.665-2.445-1.28-4.733-1.83-6.807-.029-.107-.05-.207-.079-.307-1.087-4.118-1.923-7.4-2.445-9.481-.4-1.63-.622-2.524-.622-2.524l12.756-2.2.722,5.362,1.065,7.879.207,1.544.722,5.37,1.938,14.4C442.917,343.372,444.7,369.262,444.7,369.262Z" transform="translate(-368.071 -198.543)" fill="#ebb376"/><path d="M432.991,307.726,421.594,309c-.029-.107-.05-.207-.079-.307-1.087-4.118-1.923-7.4-2.445-9.481l12.856.636Z" transform="translate(-368.319 -200.426)" opacity="0.2" style="isolation:isolate"/><path d="M408.757,296.536l-.4,10.882-.043,1.244L397.3,309.885c-.093-1.051-.186-2.059-.272-3.032-.429-4.8-.722-8.6-.9-10.954Z" transform="translate(-361.781 -199.483)" opacity="0.2" style="isolation:isolate"/><path d="M399.743,413a7.031,7.031,0,0,1,2.242-1.219h0s2.438-2.419,3.611-9.7l3.192-.832a2.719,2.719,0,0,1,2.9,1.134,1.535,1.535,0,0,1,.2.419,18.593,18.593,0,0,1,.341,2.367,65.788,65.788,0,0,1,.046,8H411.7l-.229-5.021c-.086-1.7-1.39.3-1.763,2.13s-1.167,3.789-4.9,3.88C400.451,414.243,398.642,414.073,399.743,413Z" transform="translate(-362.721 -229.487)" fill="#7d6eb2"/><path d="M414.019,401.092c.21-1.7.275-4.667.275-4.667l-7.091.786a13.679,13.679,0,0,1,.15,5.9C410.925,402.174,414.019,401.092,414.019,401.092Z" transform="translate(-364.937 -228.133)" fill="#7d6eb2"/><path d="M440.1,413a7.023,7.023,0,0,1,2.242-1.219h0s2.438-2.419,3.611-9.7l3.192-.832a2.72,2.72,0,0,1,2.9,1.134,1.556,1.556,0,0,1,.2.419,18.582,18.582,0,0,1,.341,2.367,65.8,65.8,0,0,1,.046,8h-.577l-.229-5.021c-.085-1.7-1.389.3-1.763,2.13s-1.167,3.789-4.9,3.88C440.81,414.243,439,414.073,440.1,413Z" transform="translate(-374.224 -229.487)" fill="#7d6eb2"/><path d="M454.378,401.092c.209-1.7.275-4.667.275-4.667l-7.092.786a13.675,13.675,0,0,1,.151,5.9C451.284,402.174,454.378,401.092,454.378,401.092Z" transform="translate(-376.439 -228.133)" fill="#7d6eb2"/><path d="M426.709,288.283l-13.492,1.723-.522.064L409.92,279.9l-.729,10.9-14.457-.758c-6.442-37.8,4.569-46.732,4.569-46.732l19.612,3.947c8.882,15.1,6.769,32.647,6.769,32.647Z" transform="translate(-360.807 -184.495)" fill="#ffd947"/><g transform="translate(44.387)"><path d="M413.111,176.369c0,1.484-.658,2.687-1.471,2.687s-1.471-1.2-1.471-2.687.658-2.688,1.471-2.688S413.111,174.884,413.111,176.369Z" transform="translate(-410.17 -164.65)" fill="none" stroke="#263238" stroke-linecap="round" stroke-linejoin="round" stroke-width="0.5"/><path d="M423.382,182.792a1.013,1.013,0,0,1-.17.125,7.818,7.818,0,0,1-2.74,1.34c-2.9.669-4.876.272-6.168-1.039H414.3c-1.809-1.966-2.262-5.45-2.006-9.651a15.782,15.782,0,0,1,.917-4.907c.007-.014.007-.062.014-.074.026-.053.046-.126.071-.179a5.736,5.736,0,0,1,4.215-3.5,11.625,11.625,0,0,1,2.484-.28C428.186,164.543,429.661,178.113,423.382,182.792Z" transform="translate(-410.756 -162.07)" fill="#ebb376"/><path d="M424.04,189.953a7.623,7.623,0,0,1-2.74,1.226c-2.9.669-4.876.177-6.168-1.153a8.175,8.175,0,0,0,5.2-.426A4.26,4.26,0,0,1,424.04,189.953Z" transform="translate(-411.585 -169.105)" opacity="0.2" style="isolation:isolate"/><path d="M425.416,196.7c.5,2.333-2.517,3.283-2.517,3.283-4.942-2.11-5.859-4.738-5.859-4.738,4.123-2.15,2.929-8.232,2.929-8.232l.839.413,5.887,1.152s-1.634,3.135-1.85,3.849c0,.006-.006.014-.006.02C423.732,196.178,425.416,196.7,425.416,196.7Z" transform="translate(-412.128 -168.448)" fill="#ebb376"/><path d="M413.594,167.758a8.614,8.614,0,0,0,4.993,8.213s2.338,5.968,5.779,6.052c4.693.114,8.828-6.562,7.2-13.362C429.461,159.843,416.1,159.126,413.594,167.758Z" transform="translate(-411.143 -161.222)" fill="#263238"/><path d="M416.725,178.488c0-.9.722-2.4,2.115-2.2,1.442.212,2.242,3.766-1.3,4.56C417.03,180.965,416.721,180.358,416.725,178.488Z" transform="translate(-412.038 -165.388)" fill="#ebb376"/><path d="M422.886,161.48s-5.481-1.386-8.511.818c-3.539,2.573-4.88,5.236-.691,9.369,0,0,9.2-2.983,12.262-2.352a33.116,33.116,0,0,1,5.247,1.524C431.838,164.762,425.947,160.238,422.886,161.48Z" transform="translate(-410.43 -161.05)" fill="#263238"/><path d="M416.4,172.848s1.464,6.626-.817,12.269c0,0,13.012,4.514,17.537,2.063s.377-10.684.188-15.43-2.251-11.761-9.14-10.187S416.4,172.848,416.4,172.848Z" transform="translate(-411.713 -161.132)" fill="#263238"/><line x2="5.497" transform="translate(0 11.294)" fill="none" stroke="#263238" stroke-linecap="round" stroke-linejoin="round" stroke-width="0.5"/></g><path d="M420.076,298.434l-.522.064-2.774-10.167s5.949-10.16,4.09-15.451C421.134,273.252,427.541,282.754,420.076,298.434Z" transform="translate(-367.667 -192.922)" opacity="0.2" style="isolation:isolate"/><g transform="translate(34.49 26.833)"><path d="M403.107,199.48s6.542-2.334,16.406.513,10.225,7.048,10.225,7.048a99.473,99.473,0,0,0-7.232,30.2l-25.7-.961S393.742,213.648,403.107,199.48Z" transform="translate(-396.327 -198.58)" fill="#7d6eb2"/></g><path d="M402.752,225.225a18.156,18.156,0,0,1-6.414,10.539,76.659,76.659,0,0,1,.715-11.5Z" transform="translate(-361.839 -179.065)" opacity="0.2" style="isolation:isolate"/><path d="M360.612,195.037l-3.24-4.806s-.5-2.087-1.121-2.564a45.085,45.085,0,0,0-7.6-3.106c-.748.012-.748,4.848,0,5.67s4.672,2.583,5.7,2.762.53,0,.53,0l2.866,5.714Z" transform="translate(-348.089 -167.751)" fill="#ebb376"/><g transform="translate(6.916 23.806)"><path d="M392.116,198.273a141.241,141.241,0,0,0-20.036,10.337l-10.455-14.265s-2.823.876-3.863,5.779c0,0,5.372,20.46,12.349,22.487s21.648-5.909,21.648-5.909S396.019,206.04,392.116,198.273Z" transform="translate(-357.762 -194.346)" fill="#7d6eb2"/></g><g transform="translate(47.884 26.833)"><path d="M415.06,198.582s2.282,16.327,9.512,16.987,10.465-11.4,9.24-12.867S423.275,198.472,415.06,198.582Z" transform="translate(-415.06 -198.579)" fill="#263238"/><path d="M415.06,198.582s2.282,16.327,9.512,16.987,10.465-11.4,9.24-12.867S423.275,198.472,415.06,198.582Z" transform="translate(-415.06 -198.579)" fill="#7d6eb2" opacity="0.3" style="isolation:isolate"/></g></g><g transform="translate(15.232 115.476)"><g transform="translate(0 0)"><path d="M55.362,403.777h5.294l.438-12.265h-5.3Z" transform="translate(-31.01 -211.397)" fill="#b97964"/><path d="M60.626,407.809H54.194a.465.465,0,0,0-.451.364L52.7,412.887a.782.782,0,0,0,.774.943c2.081-.034,3.6-.162,6.21-.162,1.609,0,6.466.169,8.688.169s2.512-2.2,1.6-2.4c-4.081-.889-7.153-2.122-8.459-3.294A1.279,1.279,0,0,0,60.626,407.809Z" transform="translate(-30.246 -216.042)" fill="#ffd947"/><path d="M64.264,408.376a.128.128,0,0,1-.094-.108.114.114,0,0,1,.061-.121c.189-.122,1.9-1.172,2.485-.869a.378.378,0,0,1,.215.35.739.739,0,0,1-.262.674,1.584,1.584,0,0,1-1.017.27A6.36,6.36,0,0,1,64.264,408.376Zm.364-.175a2.57,2.57,0,0,0,1.885-.094.518.518,0,0,0,.169-.451c-.007-.1-.047-.148-.081-.148a.282.282,0,0,0-.162-.034A5.137,5.137,0,0,0,64.628,408.2Z" transform="translate(-33.52 -215.875)" fill="#407bff"/><path d="M64.231,407.926a.133.133,0,0,1-.061-.114c.007-.074.135-1.6.748-2.094a.672.672,0,0,1,.532-.162.41.41,0,0,1,.4.33c.108.559-.95,1.725-1.5,2.021H64.3A.111.111,0,0,1,64.231,407.926Zm.849-2.061a2.966,2.966,0,0,0-.626,1.657c.546-.41,1.219-1.293,1.152-1.637-.007-.034-.021-.128-.182-.128h-.061A.433.433,0,0,0,65.079,405.865Z" transform="translate(-33.52 -215.398)" fill="#407bff"/><path d="M55.874,391.522h5.3l-.229,6.324h-5.3Z" transform="translate(-31.091 -211.4)" opacity="0.2" style="isolation:isolate"/><path d="M93.494,404.526l5.464.577,1.026-11.784-5.464-.577Z" transform="translate(-41.878 -211.748)" fill="#b97964"/><path d="M98.777,407.574H92.345a.464.464,0,0,0-.451.363l-1.044,4.715a.78.78,0,0,0,.6.926.77.77,0,0,0,.172.017c2.081-.034,3.6-.162,6.21-.162,1.609,0,6.466.168,8.688.168s2.512-2.2,1.6-2.4c-4.081-.889-7.153-2.121-8.459-3.293A1.278,1.278,0,0,0,98.777,407.574Z" transform="translate(-41.119 -215.975)" fill="#ffd947"/><path d="M102.415,408.141a.127.127,0,0,1-.094-.107.115.115,0,0,1,.061-.122c.189-.121,1.9-1.172,2.485-.869a.376.376,0,0,1,.215.35.74.74,0,0,1-.262.674,1.579,1.579,0,0,1-1.017.269A6.317,6.317,0,0,1,102.415,408.141Zm.364-.175a2.574,2.574,0,0,0,1.885-.094.518.518,0,0,0,.169-.452c-.007-.1-.047-.148-.081-.148a.3.3,0,0,0-.162-.034A5.149,5.149,0,0,0,102.779,407.966Z" transform="translate(-44.393 -215.808)" fill="#407bff"/><path d="M102.382,407.691a.134.134,0,0,1-.061-.114c.007-.074.135-1.6.748-2.095a.674.674,0,0,1,.532-.162.411.411,0,0,1,.4.33c.108.559-.95,1.724-1.5,2.021h-.061A.113.113,0,0,1,102.382,407.691Zm.849-2.061a2.964,2.964,0,0,0-.626,1.657c.546-.411,1.219-1.293,1.152-1.637-.007-.034-.021-.128-.182-.128h-.061A.426.426,0,0,0,103.23,405.63Z" transform="translate(-44.394 -215.331)" fill="#407bff"/><path d="M94.715,392.741l5.464.577-.533,6.078-5.464-.577Z" transform="translate(-42.074 -211.748)" opacity="0.2" style="isolation:isolate"/><path d="M57.282,241.05h28.1c2.673,14.591,11.036,66.224,5.036,112.228l-9.514-1.18s.881-61.073-7.519-83.652c-.967,12.083-2.114,24.94-3.11,31.782-2.445,16.839-7.678,53.637-7.678,53.637H52.913s1.981-35.223,2.9-51.772C56.81,284.128,57.243,244.739,57.282,241.05Z" transform="translate(-30.312 -168.515)" fill="#12263f"/><g transform="translate(49.42 181.967)"><path d="M102.2,399.115l-11.775-1.752.36-3.261,12.249,1.608Z" transform="translate(-90.422 -394.102)" fill="#727997"/></g><g transform="translate(22.029 181.792)"><path d="M63.536,397.5H52.112V394.08l11.854-.222Z" transform="translate(-52.112 -393.858)" fill="#727997"/></g><path d="M81.55,275.384a75.328,75.328,0,0,1,3.139,12.157c.786-10.752-2.357-22.156-2.357-22.156Z" transform="translate(-38.474 -175.451)" opacity="0.2" style="isolation:isolate"/><path d="M57.656,247.89l-.641,3.394s19.663,2.546,31.9,2.475l-.424-2.334Z" transform="translate(-31.481 -170.464)" fill="#7d6eb2"/><path d="M113.737,205.772s6.8,21.443,11.454,22.846,16.479-16.294,16.479-16.294,10.6-.1,11.075-.826-2.755-8.189-3.53-8.2-10,3.473-10.362,4.055-10.949,10.711-11.466,10.425-4.521-13.045-4.521-13.045Z" transform="translate(-47.647 -157.755)" fill="#b97964"/><path d="M154.7,214.293a2.278,2.278,0,0,0,.255-.065c-.046-.026-.085-.052-.124-.079A.874.874,0,0,1,154.7,214.293Z" transform="translate(-59.321 -160.848)" fill="#b97964"/><g transform="translate(62.23 33.344)"><path d="M108.338,198.435l.829,1.528,3.872,7.157.8,1.476,10.859-3.774s-4.512-16.86-6.08-18.584Z" transform="translate(-108.338 -186.237)" fill="#ffd947"/></g><path d="M109.5,203.849l3.872,7.157c2.39-4.7,1.7-11.134,1.7-11.134Z" transform="translate(-46.439 -156.779)" opacity="0.2" style="isolation:isolate"/><g transform="translate(25.534 25.287)"><path d="M103.994,183.024a23.04,23.04,0,0,0-16.356-7.939c-10.646-.5-13.988.559-17.879,4.032-5.683,5.074-12.744,48.8-12.744,48.8a98.73,98.73,0,0,0,31.9,3.47s.128-12.136,3.967-20.317A227.2,227.2,0,0,0,103.994,183.024Z" transform="translate(-57.015 -174.969)" fill="#ffd947"/><path d="M107.066,200.615l2.121.212-1.556,1.2Z" transform="translate(-71.28 -182.278)" fill="#fff" opacity="0.4" style="isolation:isolate"/></g><path d="M95.468,172.252c1.15,3.29,5.434,4.79,7.681,4.981a3.818,3.818,0,0,0,4.072-2.207s-2.562-1.275-2.309-2.716a6.766,6.766,0,0,1,1.057-2.445,14.116,14.116,0,0,1,.878-1.209l-4.11-8.81C101.816,163.69,99.007,171.023,95.468,172.252Z" transform="translate(-42.44 -145.371)" fill="#b97964"/><path d="M105.132,165.57a6.624,6.624,0,0,0,2.341,8.371,6.766,6.766,0,0,1,1.057-2.445Z" transform="translate(-45.002 -147.003)" opacity="0.2" style="isolation:isolate"/><g transform="translate(54.248)"><g transform="translate(13.017 6.634)"><path d="M122.033,149.365s1.315,7.262-2.477,10.177-4.176-10.663-4.176-10.663Z" transform="translate(-115.38 -148.88)" fill="#b97964"/><path d="M122.033,149.365s1.315,7.262-2.477,10.177-4.176-10.663-4.176-10.663Z" transform="translate(-115.38 -148.88)" opacity="0.4" style="isolation:isolate"/></g><path d="M105.056,165.557a6.623,6.623,0,0,0,7.673,2.35,7.485,7.485,0,0,0,4.441-4.256c1.78-4.511,2.181-15.524-2.63-15.113-3.942.337-7.808-.884-9.82,2.528a7.127,7.127,0,0,0-.988,3.188C103.3,159.481,102.8,162.534,105.056,165.557Z" transform="translate(-98.938 -142.145)" fill="#b97964"/><path d="M114.607,159.852c-.089.415.112.8.393.834s.548-.275.61-.7-.119-.8-.393-.834S114.67,159.425,114.607,159.852Z" transform="translate(-102.137 -145.174)" fill="#263238"/><path d="M121.292,160.8c-.089.415.119.8.393.835s.548-.276.61-.7-.119-.8-.393-.834S121.35,160.4,121.292,160.8Z" transform="translate(-104.042 -145.444)" fill="#263238"/><path d="M118.9,161.068a15.188,15.188,0,0,0,1.506,3.9,2.47,2.47,0,0,1-2.086.091Z" transform="translate(-103.202 -145.72)" fill="#a24e3f"/><path d="M112.778,157.2a.263.263,0,0,0,.255-.063,2.023,2.023,0,0,1,1.707-.606.249.249,0,0,0,.105-.487h0a2.486,2.486,0,0,0-2.162.736.25.25,0,0,0-.011.352l0,0A.386.386,0,0,0,112.778,157.2Z" transform="translate(-101.572 -144.28)" fill="#263238"/><path d="M123.864,158.406a.244.244,0,0,0,.145.031.249.249,0,0,0,.165-.311v-.005a2.485,2.485,0,0,0-1.589-1.649.249.249,0,0,0-.306.175h0a.256.256,0,0,0,.175.307h0a2.02,2.02,0,0,1,1.238,1.326A.257.257,0,0,0,123.864,158.406Z" transform="translate(-104.327 -144.407)" fill="#263238"/><path d="M113.684,166.918a3.145,3.145,0,0,0,2.67,1.819" transform="translate(-101.88 -147.387)" fill="none" stroke="#263238" stroke-linecap="round" stroke-linejoin="round" stroke-width="0.5"/><g transform="translate(1.909 6.171)"><path d="M107.458,148.233l.066,2.328a1.723,1.723,0,0,0-1.064,2.08c.562,2.006-.817,4.906-2.415,5.964,0,0,.033-.843-.694-.71s-.939,4.518.247,6.731a12.673,12.673,0,0,1-3.282-7.021c-.694-4.343-.574-7.095.042-9.171Z" transform="translate(-99.845 -148.233)" fill="#b97964"/><path d="M107.458,148.233l.066,2.328a1.723,1.723,0,0,0-1.064,2.08c.562,2.006-.817,4.906-2.415,5.964,0,0,.033-.843-.694-.71s-.939,4.518.247,6.731a12.673,12.673,0,0,1-3.282-7.021c-.694-4.343-.574-7.095.042-9.171Z" transform="translate(-99.845 -148.233)" opacity="0.4" style="isolation:isolate"/></g><path d="M99.137,148.569a24.164,24.164,0,0,0,7.626-.468c7.207-1.434,10.27,1.218,10.27,1.218a4.537,4.537,0,0,0,1.5-3.546c-.212-2.076-3.092-2.43-3.092-2.43a5.617,5.617,0,0,0-2.778-3.041c-1.909-.707-3.822,1.061-3.822,1.061s-2.384-2.3-5.155-1.645a4.162,4.162,0,0,0-3.327,4.05s-3.253.332-3.182,2S99.137,148.569,99.137,148.569Z" transform="translate(-97.174 -139.602)" fill="#263238"/><ellipse cx="2.335" cy="2.692" rx="2.335" ry="2.692" transform="translate(10.687 12.333)" fill="none" stroke="#263238" stroke-linecap="round" stroke-linejoin="round" stroke-width="0.5"/><path d="M125.013,160.1a2.359,2.359,0,1,1-2.335-2.692A2.533,2.533,0,0,1,125.013,160.1Z" transform="translate(-103.778 -144.677)" fill="none" stroke="#263238" stroke-linecap="round" stroke-linejoin="round" stroke-width="0.5"/><path d="M118.654,160.992s.753-.474,1.208.077" transform="translate(-103.296 -145.644)" fill="none" stroke="#263238" stroke-linecap="round" stroke-linejoin="round" stroke-width="0.5"/><path d="M109.817,160.392l-4.1-.547a2.014,2.014,0,0,0-1.5.408l-.179.139" transform="translate(-99.129 -145.366)" fill="none" stroke="#263238" stroke-linecap="round" stroke-linejoin="round" stroke-width="0.5"/><path d="M99.813,160.822a4.99,4.99,0,0,0,2.478,2.9c1.564.784,2.679-.536,2.528-2.188-.149-1.467-1.126-3.689-2.837-3.77A2.228,2.228,0,0,0,99.813,160.822Z" transform="translate(-97.89 -144.777)" fill="#b97964"/></g><path d="M63.322,209.135c6.745-2.8,12.081-14.379,12.081-14.379l-3.833-2.318-5.2,4.186c-.157.568-.314,1.15-.47,1.737-.7,2.651-1.384,5.478-2.031,8.338C63.681,207.509,63.5,208.325,63.322,209.135Z" transform="translate(-33.279 -154.66)" opacity="0.2" style="isolation:isolate"/><path d="M115.308,215.8l11.644-4.276.33.99-11.644,4.149Z" transform="translate(-48.095 -160.101)" fill="#7d6eb2"/><g transform="translate(0 79.778)"><rect width="34.163" height="21.071" transform="translate(3.301 0) rotate(9.013)" fill="#727997"/><g transform="translate(8.392 7.923)"><path d="M39.893,262.261l-6.853,3.552,5.418,5.5" transform="translate(-33.04 -262.261)" fill="none" stroke="#fff" stroke-linecap="round" stroke-linejoin="round" stroke-width="2"/><path d="M51.789,273.084l6.853-3.552-5.418-5.5" transform="translate(-38.383 -262.766)" fill="none" stroke="#fff" stroke-linecap="round" stroke-linejoin="round" stroke-width="2"/><line y1="8.541" x2="4.648" transform="translate(7.805 0.888)" fill="none" stroke="#fff" stroke-linecap="round" stroke-linejoin="round" stroke-width="2"/></g></g><path d="M61.1,183.375s-12.714,12.766-14.451,15.248S41.6,228.608,41.6,228.608s-.7.242-.759.837-.112,8.318,0,8.676,5.967,3.97,6.827,3.111,2.067-9.606,2.067-9.606l-3.085-3.017s3.593-20.257,5.836-23.535S64,194.771,64,194.771Z" transform="translate(-26.853 -152.077)" fill="#b97964"/><g transform="translate(23.376 26.159)"><path d="M74.647,176.188c1.853,3.925.444,12.189-2.971,15.106a100.225,100.225,0,0,1-11.431,8.2L54,191.328s6.635-6.479,10.653-10.211A18.186,18.186,0,0,1,74.647,176.188Z" transform="translate(-53.997 -176.188)" fill="#ffd947"/></g><path d="M53.689,196.626l-.772,1.052,6.518,8.518.921-.66Z" transform="translate(-30.313 -155.854)" fill="#7d6eb2"/></g></g></g></svg>