<svg xmlns="http://www.w3.org/2000/svg" width="249.612" height="220.689" viewBox="0 0 249.612 220.689"><g transform="translate(-3086.525 -2721.529)"><g transform="translate(3211.334 2796.836)"><path d="M3477.859,2952.941a74.788,74.788,0,0,1-124.8,55.607,74.606,74.606,0,0,0,24.776-55.607c0-.173,0-.347,0-.515a74.815,74.815,0,0,0,50.016-70.077A74.819,74.819,0,0,1,3477.859,2952.941Z" transform="translate(-3353.056 -2882.349)" fill="red"/></g><path d="M3349.7,3032.514a74.608,74.608,0,0,1-24.776,55.607,74.6,74.6,0,0,1-24.776-55.607c0-.173,0-.347,0-.515a75.149,75.149,0,0,0,49.543,0C3349.7,3032.167,3349.7,3032.341,3349.7,3032.514Z" transform="translate(-113.589 -165.086)" fill="#f0f"/><path d="M3211.333,3008.548a74.8,74.8,0,1,1-74.788-126.2,74.815,74.815,0,0,0,50.016,70.077c0,.168,0,.342,0,.515A74.6,74.6,0,0,0,3211.333,3008.548Z" transform="translate(0 -85.513)" fill="blue"/><path d="M3268.133,2892.565a74.589,74.589,0,0,0-24.771,55.092,74.815,74.815,0,0,1-50.016-70.076,74.9,74.9,0,0,1,74.788,14.985Z" transform="translate(-56.799 -80.743)" fill="aqua"/><path d="M3349.7,2969.441a75.141,75.141,0,0,1-49.543,0,74.592,74.592,0,0,1,24.772-55.092A74.6,74.6,0,0,1,3349.7,2969.441Z" transform="translate(-113.593 -102.528)" fill="#fff"/><path d="M3427.844,2877.58a74.815,74.815,0,0,1-50.016,70.076,74.594,74.594,0,0,0-24.772-55.092,74.9,74.9,0,0,1,74.788-14.985Z" transform="translate(-141.722 -80.743)" fill="#ff0"/><path d="M3342.92,2796.321c0,.173,0,.346,0,.515a74.9,74.9,0,0,0-74.788,14.985,74.9,74.9,0,0,0-74.788-14.985c0-.168,0-.341,0-.515a74.792,74.792,0,1,1,149.584,0Z" transform="translate(-56.795 0)" fill="lime"/><g transform="translate(3226.297 2821.73)"><path d="M3387.32,2941.982l-2.135-.224a2.4,2.4,0,0,1,.349-.881,1.92,1.92,0,0,1,.656-.557,2.749,2.749,0,0,1,.846-.264,6.851,6.851,0,0,1,1.163-.093,9.283,9.283,0,0,1,1.614.112,2.075,2.075,0,0,1,1.015.469,1.66,1.66,0,0,1,.451.7,2.543,2.543,0,0,1,.164.864v2.574a3.1,3.1,0,0,0,.052.645,2.9,2.9,0,0,0,.228.6h-2.1a2.138,2.138,0,0,1-.164-.343,2.555,2.555,0,0,1-.077-.371,2.889,2.889,0,0,1-.873.6,3.632,3.632,0,0,1-1.377.241,2.3,2.3,0,0,1-1.583-.483,1.534,1.534,0,0,1-.541-1.19,1.561,1.561,0,0,1,.39-1.093,2.637,2.637,0,0,1,1.438-.636q1.256-.252,1.63-.354a7.652,7.652,0,0,0,.79-.266.786.786,0,0,0-.17-.576.852.852,0,0,0-.6-.164,1.543,1.543,0,0,0-.823.176A.958.958,0,0,0,3387.32,2941.982Zm1.937,1.175q-.461.165-.96.291a2.229,2.229,0,0,0-.862.356.562.562,0,0,0-.186.412.556.556,0,0,0,.184.431.777.777,0,0,0,.541.167,1.386,1.386,0,0,0,.694-.181,1.092,1.092,0,0,0,.456-.442,1.473,1.473,0,0,0,.135-.677Z" transform="translate(-3385.01 -2937.877)"/><path d="M3401.639,2940.095h2.085v.851a2.906,2.906,0,0,1,.909-.757,2.5,2.5,0,0,1,1.107-.225,2.122,2.122,0,0,1,1.105.247,1.839,1.839,0,0,1,.665.735,3.351,3.351,0,0,1,.959-.777,2.481,2.481,0,0,1,1.069-.206,1.916,1.916,0,0,1,1.463.557,2.47,2.47,0,0,1,.526,1.742v3.66h-2.238v-3.32a.933.933,0,0,0-.155-.588.671.671,0,0,0-.558-.3.787.787,0,0,0-.633.286,1.408,1.408,0,0,0-.241.917v3.007h-2.239v-3.21a2.03,2.03,0,0,0-.044-.521.72.72,0,0,0-.248-.354.659.659,0,0,0-.413-.135.793.793,0,0,0-.633.291,1.467,1.467,0,0,0-.248.955v2.974h-2.239Z" transform="translate(-3393.852 -2937.877)"/><path d="M3427.328,2941.982l-2.134-.224a2.389,2.389,0,0,1,.348-.881,1.921,1.921,0,0,1,.656-.557,2.737,2.737,0,0,1,.845-.264,6.851,6.851,0,0,1,1.163-.093,9.268,9.268,0,0,1,1.613.112,2.072,2.072,0,0,1,1.015.469,1.637,1.637,0,0,1,.451.7,2.527,2.527,0,0,1,.165.864v2.574a3.118,3.118,0,0,0,.052.645,2.979,2.979,0,0,0,.228.6h-2.1a2.047,2.047,0,0,1-.165-.343,2.54,2.54,0,0,1-.077-.371,2.891,2.891,0,0,1-.873.6,3.634,3.634,0,0,1-1.377.241,2.3,2.3,0,0,1-1.583-.483,1.531,1.531,0,0,1-.541-1.19,1.561,1.561,0,0,1,.389-1.093,2.64,2.64,0,0,1,1.438-.636q1.257-.252,1.629-.354a7.562,7.562,0,0,0,.79-.266.787.787,0,0,0-.169-.576.855.855,0,0,0-.6-.164,1.543,1.543,0,0,0-.823.176A.96.96,0,0,0,3427.328,2941.982Zm1.937,1.175q-.461.165-.96.291a2.222,2.222,0,0,0-.861.356.572.572,0,0,0,0,.843.777.777,0,0,0,.541.167,1.386,1.386,0,0,0,.694-.181,1.1,1.1,0,0,0,.456-.442,1.48,1.48,0,0,0,.134-.677Z" transform="translate(-3406.283 -2937.877)"/><path d="M3441.658,2940.095h2.091v.955a2.277,2.277,0,0,1,.623-.853,1.308,1.308,0,0,1,.792-.233,2.364,2.364,0,0,1,1.082.307l-.691,1.592a1.75,1.75,0,0,0-.626-.165.773.773,0,0,0-.681.362,3.681,3.681,0,0,0-.346,1.911v1.953h-2.245Z" transform="translate(-3415.131 -2937.877)"/><path d="M3452.439,2935.51h2.234v1.521h-2.234Zm0,2.217h2.234v5.828h-2.234Z" transform="translate(-3420.864 -2935.51)"/><path d="M3460.42,2935.51h2.238v8.045h-2.238Z" transform="translate(-3425.108 -2935.51)"/><path d="M3468.412,2935.51h2.239v8.045h-2.239Z" transform="translate(-3429.358 -2935.51)"/><path d="M3475.654,2943.025a2.917,2.917,0,0,1,.9-2.2,3.9,3.9,0,0,1,5.076.151,3.175,3.175,0,0,1-.173,4.217,3.411,3.411,0,0,1-2.467.859,3.461,3.461,0,0,1-2.272-.714A2.865,2.865,0,0,1,3475.654,2943.025Zm2.239-.005a1.759,1.759,0,0,0,.315,1.152,1.034,1.034,0,0,0,1.586.006,1.817,1.817,0,0,0,.31-1.18,1.718,1.718,0,0,0-.313-1.127.974.974,0,0,0-.774-.37,1.013,1.013,0,0,0-.807.376A1.738,1.738,0,0,0,3477.893,2943.02Z" transform="translate(-3433.208 -2937.877)"/></g><g transform="translate(3191.409 2843.271)"><path d="M3310.506,2981.511h2.255v2.788a2.2,2.2,0,0,1,.76-.527,2.449,2.449,0,0,1,.941-.176,2.279,2.279,0,0,1,1.761.765,3.153,3.153,0,0,1,.7,2.2,4.152,4.152,0,0,1-.319,1.682,2.37,2.37,0,0,1-.88,1.087,2.274,2.274,0,0,1-1.249.36,2.307,2.307,0,0,1-1.076-.253,2.815,2.815,0,0,1-.8-.74v.861h-2.091Zm2.239,5.115a1.689,1.689,0,0,0,.283,1.089.894.894,0,0,0,.716.337.836.836,0,0,0,.672-.332,1.781,1.781,0,0,0,.272-1.117,1.585,1.585,0,0,0-.266-1.015.809.809,0,0,0-.645-.324.936.936,0,0,0-.744.338A1.546,1.546,0,0,0,3312.745,2986.626Z" transform="translate(-3310.506 -2981.511)"/><path d="M3326.654,2981.511h2.239v8.045h-2.239Z" transform="translate(-3319.092 -2981.511)"/><path d="M3336.207,2987.984l-2.135-.225a2.4,2.4,0,0,1,.349-.881,1.923,1.923,0,0,1,.656-.557,2.731,2.731,0,0,1,.845-.264,6.808,6.808,0,0,1,1.163-.093,9.3,9.3,0,0,1,1.613.112,2.071,2.071,0,0,1,1.015.469,1.642,1.642,0,0,1,.45.7,2.527,2.527,0,0,1,.165.864v2.574a3.117,3.117,0,0,0,.052.645,2.911,2.911,0,0,0,.228.6h-2.1a2.158,2.158,0,0,1-.165-.343,2.623,2.623,0,0,1-.076-.371,2.884,2.884,0,0,1-.872.6,3.627,3.627,0,0,1-1.377.241,2.306,2.306,0,0,1-1.583-.483,1.533,1.533,0,0,1-.54-1.19,1.562,1.562,0,0,1,.39-1.092,2.632,2.632,0,0,1,1.438-.636q1.256-.253,1.63-.354a7.637,7.637,0,0,0,.791-.266.789.789,0,0,0-.17-.576.858.858,0,0,0-.6-.164,1.545,1.545,0,0,0-.823.176A.952.952,0,0,0,3336.207,2987.984Zm1.937,1.174q-.461.165-.961.291a2.217,2.217,0,0,0-.861.357.571.571,0,0,0,0,.842.777.777,0,0,0,.541.167,1.393,1.393,0,0,0,.694-.181,1.1,1.1,0,0,0,.456-.442,1.484,1.484,0,0,0,.135-.678Z" transform="translate(-3322.943 -2983.879)"/><path d="M3350.49,2986.1h2.08v.949a3.1,3.1,0,0,1,.943-.831,2.49,2.49,0,0,1,1.164-.25,1.906,1.906,0,0,1,1.452.552,2.4,2.4,0,0,1,.524,1.7v3.7h-2.245v-3.2a1.172,1.172,0,0,0-.2-.777.727.727,0,0,0-.571-.228.814.814,0,0,0-.659.307,1.792,1.792,0,0,0-.252,1.1v2.8h-2.234Z" transform="translate(-3331.767 -2983.879)"/><path d="M3370.539,2989.641l2.124.242a2.979,2.979,0,0,1-.576,1.149,2.677,2.677,0,0,1-1.024.755,4.026,4.026,0,0,1-1.583.269,5.815,5.815,0,0,1-1.545-.173,2.7,2.7,0,0,1-1.062-.559,2.823,2.823,0,0,1-.7-.907,3.2,3.2,0,0,1-.252-1.381,3.263,3.263,0,0,1,.307-1.5,2.706,2.706,0,0,1,.615-.787,2.818,2.818,0,0,1,.8-.518,4.436,4.436,0,0,1,1.673-.269,3.851,3.851,0,0,1,2.176.51,2.685,2.685,0,0,1,1.051,1.492l-2.1.28a.979.979,0,0,0-.36-.562,1.168,1.168,0,0,0-.7-.189,1.129,1.129,0,0,0-.9.4,1.8,1.8,0,0,0-.343,1.2,1.571,1.571,0,0,0,.34,1.091,1.126,1.126,0,0,0,.867.372,1.192,1.192,0,0,0,.738-.225A1.337,1.337,0,0,0,3370.539,2989.641Z" transform="translate(-3339.973 -2983.879)"/><path d="M3381.92,2989.026a2.915,2.915,0,0,1,.9-2.2,3.9,3.9,0,0,1,5.076.15,3.174,3.174,0,0,1-.173,4.218,3.412,3.412,0,0,1-2.467.859,3.459,3.459,0,0,1-2.272-.713A2.865,2.865,0,0,1,3381.92,2989.026Zm2.239-.006a1.76,1.76,0,0,0,.316,1.153,1.035,1.035,0,0,0,1.586.006,1.82,1.82,0,0,0,.31-1.18,1.717,1.717,0,0,0-.313-1.128.972.972,0,0,0-.773-.37,1.011,1.011,0,0,0-.807.376A1.734,1.734,0,0,0,3384.159,2989.02Z" transform="translate(-3348.479 -2983.879)"/></g><g transform="translate(3185.082 2886.93)"><path d="M3296.994,3079.329h2.085v.851a2.91,2.91,0,0,1,.91-.757,2.493,2.493,0,0,1,1.107-.225,2.118,2.118,0,0,1,1.1.248,1.836,1.836,0,0,1,.665.735,3.358,3.358,0,0,1,.959-.776,2.479,2.479,0,0,1,1.069-.206,1.915,1.915,0,0,1,1.463.557,2.471,2.471,0,0,1,.526,1.742v3.66h-2.239v-3.32a.934.934,0,0,0-.153-.587.672.672,0,0,0-.558-.3.789.789,0,0,0-.634.285,1.411,1.411,0,0,0-.241.917v3.007h-2.239v-3.21a2,2,0,0,0-.044-.521.711.711,0,0,0-.248-.354.663.663,0,0,0-.413-.135.794.794,0,0,0-.633.291,1.468,1.468,0,0,0-.248.955v2.974h-2.239Z" transform="translate(-3296.994 -3077.112)" fill="#fff"/><path d="M3322.683,3081.218l-2.135-.226a2.394,2.394,0,0,1,.348-.881,1.912,1.912,0,0,1,.656-.557,2.724,2.724,0,0,1,.845-.263,6.806,6.806,0,0,1,1.163-.094,9.233,9.233,0,0,1,1.614.112,2.084,2.084,0,0,1,1.015.469,1.652,1.652,0,0,1,.45.7,2.53,2.53,0,0,1,.164.864v2.573a3.092,3.092,0,0,0,.053.645,2.88,2.88,0,0,0,.227.6h-2.1a2.14,2.14,0,0,1-.165-.343,2.571,2.571,0,0,1-.077-.37,2.887,2.887,0,0,1-.872.6,3.632,3.632,0,0,1-1.378.242,2.309,2.309,0,0,1-1.583-.483,1.537,1.537,0,0,1-.54-1.191,1.558,1.558,0,0,1,.39-1.092,2.636,2.636,0,0,1,1.438-.637q1.257-.252,1.63-.353a7.552,7.552,0,0,0,.79-.266.785.785,0,0,0-.17-.576.853.853,0,0,0-.6-.165,1.548,1.548,0,0,0-.823.176A.959.959,0,0,0,3322.683,3081.218Zm1.937,1.174q-.461.164-.96.291a2.218,2.218,0,0,0-.862.356.571.571,0,0,0,0,.843.781.781,0,0,0,.541.167,1.394,1.394,0,0,0,.694-.181,1.1,1.1,0,0,0,.455-.442,1.478,1.478,0,0,0,.135-.678Z" transform="translate(-3309.426 -3077.112)" fill="#fff"/><path d="M3341.1,3079.329h2.091v5.5l.005.258a2.437,2.437,0,0,1-.233,1.046,2.188,2.188,0,0,1-.62.8,2.441,2.441,0,0,1-.982.446,6.14,6.14,0,0,1-1.363.137,4.017,4.017,0,0,1-2.412-.527,1.718,1.718,0,0,1-.655-1.411c0-.073,0-.172.011-.3l2.167.247a.7.7,0,0,0,.253.417,1.068,1.068,0,0,0,.62.17.938.938,0,0,0,.722-.258,1.327,1.327,0,0,0,.239-.9v-.884a2.176,2.176,0,0,1-1.773.84,2.212,2.212,0,0,1-1.888-1.021,3.264,3.264,0,0,1-.509-1.915,2.951,2.951,0,0,1,.658-2.074,2.235,2.235,0,0,1,1.723-.714,2.414,2.414,0,0,1,1.122.23,2.453,2.453,0,0,1,.826.763Zm-2.1,2.827a1.382,1.382,0,0,0,.27.936.953.953,0,0,0,1.407-.011,1.386,1.386,0,0,0,.283-.952,1.436,1.436,0,0,0-.3-.974.931.931,0,0,0-.725-.337.839.839,0,0,0-.683.31A1.628,1.628,0,0,0,3339,3082.156Z" transform="translate(-3318.143 -3077.112)" fill="#fff"/><path d="M3359.514,3082.8h-4.479a1.445,1.445,0,0,0,.291.8,1.058,1.058,0,0,0,.845.378,1.269,1.269,0,0,0,.626-.164,1.474,1.474,0,0,0,.389-.368l2.2.2a3.155,3.155,0,0,1-1.218,1.26,4.43,4.43,0,0,1-2.047.381,4.2,4.2,0,0,1-1.822-.326,2.677,2.677,0,0,1-1.1-1.038,3.128,3.128,0,0,1-.436-1.67,2.936,2.936,0,0,1,.875-2.212,3.337,3.337,0,0,1,2.417-.845,4.3,4.3,0,0,1,1.976.379,2.551,2.551,0,0,1,1.1,1.1,4,4,0,0,1,.379,1.871Zm-2.272-1.07a1.5,1.5,0,0,0-.348-.928,1.092,1.092,0,0,0-1.593.143,1.547,1.547,0,0,0-.259.785Z" transform="translate(-3326.648 -3077.112)" fill="#fff"/><path d="M3369.369,3079.329h2.08v.95a3.1,3.1,0,0,1,.943-.832,2.494,2.494,0,0,1,1.164-.25,1.907,1.907,0,0,1,1.451.552,2.4,2.4,0,0,1,.525,1.7v3.7h-2.245v-3.205a1.167,1.167,0,0,0-.2-.776.726.726,0,0,0-.57-.228.813.813,0,0,0-.659.307,1.789,1.789,0,0,0-.252,1.1v2.8h-2.234Z" transform="translate(-3335.478 -3077.112)" fill="#fff"/><path d="M3387.654,3074.745v2.217h1.229v1.635h-1.229v2.064a1.118,1.118,0,0,0,.072.494.409.409,0,0,0,.384.186,2.473,2.473,0,0,0,.691-.143l.165,1.542a7.272,7.272,0,0,1-1.548.181,2.694,2.694,0,0,1-1.229-.214,1.3,1.3,0,0,1-.584-.65,3.808,3.808,0,0,1-.189-1.411v-2.05h-.823v-1.635h.823v-1.07Z" transform="translate(-3343.572 -3074.745)" fill="#fff"/><path d="M3397.754,3081.218l-2.135-.226a2.394,2.394,0,0,1,.349-.881,1.917,1.917,0,0,1,.655-.557,2.731,2.731,0,0,1,.845-.263,6.8,6.8,0,0,1,1.163-.094,9.221,9.221,0,0,1,1.613.112,2.079,2.079,0,0,1,1.015.469,1.641,1.641,0,0,1,.45.7,2.525,2.525,0,0,1,.165.864v2.573a3.135,3.135,0,0,0,.052.645,2.908,2.908,0,0,0,.227.6h-2.1a2.162,2.162,0,0,1-.165-.343,2.613,2.613,0,0,1-.076-.37,2.894,2.894,0,0,1-.873.6,3.631,3.631,0,0,1-1.378.242,2.305,2.305,0,0,1-1.583-.483,1.534,1.534,0,0,1-.541-1.191,1.561,1.561,0,0,1,.39-1.092,2.637,2.637,0,0,1,1.438-.637q1.256-.252,1.629-.353a7.552,7.552,0,0,0,.792-.266.782.782,0,0,0-.171-.576.852.852,0,0,0-.6-.165,1.548,1.548,0,0,0-.823.176A.959.959,0,0,0,3397.754,3081.218Zm1.938,1.174c-.308.109-.628.207-.961.291a2.214,2.214,0,0,0-.862.356.572.572,0,0,0,0,.843.783.783,0,0,0,.541.167,1.39,1.39,0,0,0,.694-.181,1.1,1.1,0,0,0,.456-.442,1.484,1.484,0,0,0,.135-.678Z" transform="translate(-3349.342 -3077.112)" fill="#fff"/></g><g transform="translate(3156.923 2821.73)"><path d="M3241.476,2943.639l2.124.242a2.969,2.969,0,0,1-.576,1.149,2.658,2.658,0,0,1-1.023.755,4.016,4.016,0,0,1-1.583.269,5.831,5.831,0,0,1-1.544-.173,2.712,2.712,0,0,1-1.062-.559,2.833,2.833,0,0,1-.7-.908,3.191,3.191,0,0,1-.252-1.381,3.254,3.254,0,0,1,.308-1.5,2.687,2.687,0,0,1,.615-.786,2.831,2.831,0,0,1,.8-.519,4.459,4.459,0,0,1,1.674-.268,3.863,3.863,0,0,1,2.176.51,2.692,2.692,0,0,1,1.051,1.493l-2.1.28a.976.976,0,0,0-.36-.562,1.165,1.165,0,0,0-.7-.19,1.132,1.132,0,0,0-.9.4,1.8,1.8,0,0,0-.343,1.2,1.567,1.567,0,0,0,.341,1.091,1.124,1.124,0,0,0,.867.372,1.2,1.2,0,0,0,.738-.225A1.34,1.34,0,0,0,3241.476,2943.639Z" transform="translate(-3236.861 -2937.877)"/><path d="M3253.619,2935.51h2.234v1.521h-2.234Zm0,2.217h2.234v5.828h-2.234Z" transform="translate(-3245.772 -2935.51)"/><path d="M3263.16,2941.982l-2.135-.224a2.4,2.4,0,0,1,.348-.881,1.921,1.921,0,0,1,.656-.557,2.741,2.741,0,0,1,.845-.264,6.852,6.852,0,0,1,1.163-.093,9.282,9.282,0,0,1,1.614.112,2.072,2.072,0,0,1,1.015.469,1.641,1.641,0,0,1,.45.7,2.527,2.527,0,0,1,.165.864v2.574a3.109,3.109,0,0,0,.052.645,2.924,2.924,0,0,0,.227.6h-2.1a2.081,2.081,0,0,1-.164-.343,2.476,2.476,0,0,1-.077-.371,2.9,2.9,0,0,1-.873.6,3.632,3.632,0,0,1-1.377.241,2.3,2.3,0,0,1-1.583-.483,1.531,1.531,0,0,1-.54-1.19,1.559,1.559,0,0,1,.39-1.093,2.637,2.637,0,0,1,1.437-.636q1.257-.252,1.63-.354a7.527,7.527,0,0,0,.79-.266.786.786,0,0,0-.17-.576.855.855,0,0,0-.6-.164,1.547,1.547,0,0,0-.823.176A.959.959,0,0,0,3263.16,2941.982Zm1.937,1.175c-.306.11-.627.207-.96.291a2.226,2.226,0,0,0-.862.356.572.572,0,0,0,0,.843.779.779,0,0,0,.541.167,1.39,1.39,0,0,0,.694-.181,1.094,1.094,0,0,0,.455-.442,1.48,1.48,0,0,0,.134-.677Z" transform="translate(-3249.617 -2937.877)"/><path d="M3277.443,2940.095h2.08v.949a3.115,3.115,0,0,1,.943-.832,2.49,2.49,0,0,1,1.164-.25,1.9,1.9,0,0,1,1.451.552,2.4,2.4,0,0,1,.524,1.7v3.7h-2.245v-3.2a1.161,1.161,0,0,0-.2-.776.722.722,0,0,0-.57-.228.81.81,0,0,0-.658.307,1.788,1.788,0,0,0-.253,1.1v2.8h-2.234Z" transform="translate(-3258.439 -2937.877)"/></g></g></svg>