<svg xmlns="http://www.w3.org/2000/svg" xmlns:xlink="http://www.w3.org/1999/xlink" width="360.252" height="560.197" viewBox="0 0 360.252 560.197"><defs><linearGradient id="a" x1="0.5" x2="0.5" y2="1" gradientUnits="objectBoundingBox"><stop offset="0" stop-color="#fff"/><stop offset="1" stop-color="#d3d3d3"/></linearGradient><linearGradient id="c" y1="0.5" x2="1" y2="0.5" gradientUnits="objectBoundingBox"><stop offset="0" stop-color="#ff928e"/><stop offset="1" stop-color="#feb3b1"/></linearGradient><linearGradient id="f" x1="294.087" y1="1.605" x2="296.088" y2="4.278" xlink:href="#c"/><linearGradient id="g" x1="0.439" y1="-3.503" x2="0.505" y2="0.689" xlink:href="#c"/><linearGradient id="h" x1="0.511" y1="0.146" x2="0.456" y2="1.705" xlink:href="#c"/><linearGradient id="i" x1="-47.545" y1="17.427" x2="-48.867" y2="15.942" xlink:href="#c"/><linearGradient id="j" x1="-155.484" y1="82.575" x2="-159.791" y2="75.375" xlink:href="#c"/><linearGradient id="k" x1="1.66" y1="1.186" x2="0.085" y2="0.256" xlink:href="#c"/><linearGradient id="l" x1="0.892" y1="0.928" x2="-0.916" y2="-1.638" xlink:href="#c"/></defs><g transform="translate(-1298.469 -210.367)"><g transform="translate(1399.446 256.033)"><path d="M1962.907,553.067l-9.541,16.526h80.919l-9.541-16.526a16.622,16.622,0,0,0-14.74-8.51h-32.358A16.623,16.623,0,0,0,1962.907,553.067Z" transform="translate(-1864.189 -544.557)" fill-rule="evenodd" fill="url(#a)"/><rect width="257.712" height="362.282" rx="8" transform="translate(0.781 18.846)" fill="#00223d"/><rect width="215.163" height="319.734" transform="translate(22.055 40.12)" fill="#fdfdfd"/><path d="M2012.181,604.275V625.7a14.888,14.888,0,0,1-14.844,14.844H1922.1a14.888,14.888,0,0,1-14.844-14.844V604.275a4.264,4.264,0,0,1,4.256-4.255h96.411A4.263,4.263,0,0,1,2012.181,604.275Z" transform="translate(-1830.083 -585.583)" fill-rule="evenodd" fill="url(#a)"/><path d="M1968.053,636.157a2.882,2.882,0,1,1,0-5.765h69.01a2.882,2.882,0,0,1,0,5.765Z" transform="translate(-1872.92 -608.05)" fill="#dbdada" fill-rule="evenodd"/><path d="M1968.053,688.49a2.882,2.882,0,1,1,0-5.764h69.01a2.882,2.882,0,0,1,0,5.764Z" transform="translate(-1872.92 -646.761)" fill="#dbdada" fill-rule="evenodd"/><g transform="translate(63.601 85.331)"><g transform="translate(0 199.863)"><path d="M1857.811,1640.216h126.661a2.706,2.706,0,0,1,0,5.413H1857.811a2.706,2.706,0,0,1,0-5.413Z" transform="translate(-1855.105 -1640.216)" fill="#dbdada" fill-rule="evenodd"/><path d="M1857.811,1689.286h126.661a2.706,2.706,0,0,1,0,5.412H1857.811a2.706,2.706,0,0,1,0-5.412Z" transform="translate(-1855.105 -1676.514)" fill="#dbdada" fill-rule="evenodd"/><path d="M1857.811,1738.353h76.294a2.706,2.706,0,0,1,0,5.413h-76.294a2.706,2.706,0,0,1,0-5.413Z" transform="translate(-1855.105 -1712.808)" fill="#dbdada" fill-rule="evenodd"/></g><g transform="translate(0 121.583)"><path d="M1862.194,1354.505l2.477-2.477a.826.826,0,0,1,1.167,0l4.127,4.128,7.429-7.429a.824.824,0,0,1,1.167,0l2.476,2.476a.826.826,0,0,1,0,1.167l-10.489,10.489a.826.826,0,0,1-1.168,0l-7.187-7.187a.826.826,0,0,1,0-1.167Zm-3.785-15.023a3.312,3.312,0,0,0-3.3,3.3V1369.2a3.312,3.312,0,0,0,3.3,3.3h26.413a3.311,3.311,0,0,0,3.3-3.3v-26.414a3.311,3.311,0,0,0-3.3-3.3Z" transform="translate(-1855.106 -1339.482)" fill="#26aab7" fill-rule="evenodd"/><rect width="85.847" height="8.705" rx="4.353" transform="translate(46.225)" fill="#dbdada"/><path d="M2035.4,1398.833h80.434a2.706,2.706,0,1,1,0,5.413H2035.4a2.706,2.706,0,0,1,0-5.413Z" transform="translate(-1986.469 -1383.384)" fill="#dbdada" fill-rule="evenodd"/><path d="M2035.4,1445.535h58.482a2.706,2.706,0,0,1,0,5.412H2035.4a2.706,2.706,0,1,1,0-5.412Z" transform="translate(-1986.469 -1417.93)" fill="#dbdada" fill-rule="evenodd"/></g><g transform="translate(0 60.791)"><path d="M1862.194,1120.955l2.477-2.476a.825.825,0,0,1,1.167,0l4.127,4.127,7.429-7.429a.826.826,0,0,1,1.167,0l2.476,2.476a.826.826,0,0,1,0,1.167l-10.489,10.489a.825.825,0,0,1-1.168,0l-7.187-7.188a.826.826,0,0,1,0-1.167Zm-3.785-15.023a3.312,3.312,0,0,0-3.3,3.3v26.414a3.312,3.312,0,0,0,3.3,3.3h26.413a3.311,3.311,0,0,0,3.3-3.3v-26.414a3.311,3.311,0,0,0-3.3-3.3Z" transform="translate(-1855.106 -1105.932)" fill="#26aab7" fill-rule="evenodd"/><rect width="85.847" height="8.706" rx="4.353" transform="translate(46.225)" fill="#dbdada"/><path d="M2035.4,1165.284h80.434a2.706,2.706,0,1,1,0,5.412H2035.4a2.706,2.706,0,1,1,0-5.412Z" transform="translate(-1986.469 -1149.835)" fill="#dbdada" fill-rule="evenodd"/><path d="M2035.4,1211.985h58.482a2.706,2.706,0,0,1,0,5.413H2035.4a2.706,2.706,0,0,1,0-5.413Z" transform="translate(-1986.469 -1184.38)" fill="#dbdada" fill-rule="evenodd"/></g><g transform="translate(0)"><path d="M1862.194,887.406l2.477-2.476a.825.825,0,0,1,1.167,0l4.127,4.127,7.429-7.429a.826.826,0,0,1,1.167,0l2.476,2.476a.826.826,0,0,1,0,1.167l-10.489,10.489a.826.826,0,0,1-1.168,0l-7.187-7.187a.826.826,0,0,1,0-1.167Zm-3.785-15.023a3.312,3.312,0,0,0-3.3,3.3V902.1a3.312,3.312,0,0,0,3.3,3.3h26.413a3.311,3.311,0,0,0,3.3-3.3V875.685a3.311,3.311,0,0,0-3.3-3.3Z" transform="translate(-1855.106 -872.383)" fill="#26aab7" fill-rule="evenodd"/><rect width="85.847" height="8.706" rx="4.353" transform="translate(46.225)" fill="#dbdada"/><path d="M2035.4,931.734h80.434a2.706,2.706,0,1,1,0,5.412H2035.4a2.706,2.706,0,1,1,0-5.412Z" transform="translate(-1986.469 -916.285)" fill="#dbdada" fill-rule="evenodd"/><path d="M2035.4,978.436h58.482a2.706,2.706,0,0,1,0,5.413H2035.4a2.706,2.706,0,0,1,0-5.413Z" transform="translate(-1986.469 -950.831)" fill="#dbdada" fill-rule="evenodd"/></g></g><path d="M1926.957,1925.609H1731.9a.781.781,0,1,1,0-1.562h195.054a.781.781,0,1,1,0,1.562Z" transform="translate(-1699.793 -1564.974)" fill="#8673c6"/><path d="M1864.262,972.809a.781.781,0,0,1-.552-1.333A16.127,16.127,0,0,0,1868.475,960V864.1a.781.781,0,0,1,1.563,0V960a17.675,17.675,0,0,1-5.224,12.577A.778.778,0,0,1,1864.262,972.809Zm-247.723,0a.779.779,0,0,1-.552-.229A17.678,17.678,0,0,1,1610.763,960V864.1a.781.781,0,0,1,1.562,0V960a16.125,16.125,0,0,0,4.766,11.473.781.781,0,0,1-.552,1.333Zm252.717-118.8a.781.781,0,0,1-.781-.781v-9.555a.781.781,0,0,1,1.563,0v9.555A.781.781,0,0,1,1869.256,854.007Zm-257.712,0a.781.781,0,0,1-.781-.781v-9.555a.781.781,0,0,1,1.562,0v9.555A.781.781,0,0,1,1611.544,854.007Zm257.712-105.135a.781.781,0,0,1-.781-.781v-9.555a.781.781,0,0,1,1.563,0v9.555A.781.781,0,0,1,1869.256,748.873Zm-257.712,0a.781.781,0,0,1-.781-.781v-9.555a.781.781,0,0,1,1.562,0v9.555A.781.781,0,0,1,1611.544,748.873Zm257.712-20.431a.781.781,0,0,1-.781-.781v-95.9a16.257,16.257,0,0,0-16.238-16.239h-39.529a.781.781,0,0,1,0-1.561h39.529a17.821,17.821,0,0,1,17.8,17.8v95.9A.781.781,0,0,1,1869.256,728.442Zm-257.712,0a.781.781,0,0,1-.781-.781v-95.9a17.821,17.821,0,0,1,17.8-17.8h39.528a.781.781,0,0,1,0,1.561h-39.528a16.257,16.257,0,0,0-16.239,16.239v95.9A.781.781,0,0,1,1611.544,728.442Z" transform="translate(-1610.763 -595.895)" fill="#8673c6"/></g><g transform="translate(1345.926 265.338)"><g transform="translate(6.074 6.097)"><path d="M1419.787,217.507a46.67,46.67,0,0,1-60.958,70.371L1342.295,295l7.121-16.535a46.67,46.67,0,0,1,70.371-60.958Z" transform="translate(-1339.339 -203.079)" fill="#fdfdfd" fill-rule="evenodd"/><path d="M1384.575,295.8a47.4,47.4,0,0,1-28.07-9.182l-16.121,6.943a.781.781,0,0,1-1.026-1.026l6.942-16.121a47.457,47.457,0,1,1,41.46,19.28Q1386.166,295.8,1384.575,295.8Zm-27.965-10.858a.782.782,0,0,1,.469.156,45.889,45.889,0,1,0-4.959-69.195,46.08,46.08,0,0,0-4.3,59.937.78.78,0,0,1,.092.778l-6.345,14.732,14.732-6.345A.779.779,0,0,1,1356.61,284.941Z" transform="translate(-1337.12 -200.923)" fill="#00223d"/></g><circle cx="39.667" cy="39.667" r="39.667" transform="translate(13.856 13.859)" fill="#00223d"/><path d="M1367.285,284.55a53.339,53.339,0,0,1-29.062-8.585.781.781,0,0,1,.851-1.31,51.98,51.98,0,0,0,56.366.06.781.781,0,0,1,.846,1.313A53.514,53.514,0,0,1,1367.285,284.55Zm38.048-16.2a.781.781,0,0,1-.563-1.322,51.829,51.829,0,0,0,6.529-63.681.781.781,0,1,1,1.321-.833,53.773,53.773,0,0,1,7.959,33.685A52.946,52.946,0,0,1,1405.9,268.11.778.778,0,0,1,1405.333,268.35Zm-82.313-7.887a.78.78,0,0,1-.656-.356,53.574,53.574,0,0,1-8.292-34.635.781.781,0,1,1,1.553.162,52.006,52.006,0,0,0,8.048,33.622.781.781,0,0,1-.655,1.206Zm-5.443-46.232a.782.782,0,0,1-.736-1.041,53.532,53.532,0,0,1,65.493-33.545.781.781,0,1,1-.437,1.5,51.971,51.971,0,0,0-63.583,32.566A.78.78,0,0,1,1317.577,214.231Zm86.743-20a.778.778,0,0,1-.548-.225,52.05,52.05,0,0,0-10.811-8.18.781.781,0,0,1,.772-1.358,53.631,53.631,0,0,1,11.135,8.426.781.781,0,0,1-.548,1.337Z" transform="translate(-1313.784 -177.498)" fill="#00223d"/></g><circle cx="8.98" cy="8.98" r="8.98" transform="translate(1452.966 238.073)" fill="#eff4ef"/><path d="M2584.385,1001.759a1.625,1.625,0,1,0,2.221-.595A1.626,1.626,0,0,0,2584.385,1001.759Z" transform="translate(-931.35 -626.118)" fill="#00223d" fill-rule="evenodd"/><path d="M2563.257,1080.615a1.625,1.625,0,1,0,1.625-1.625A1.625,1.625,0,0,0,2563.257,1080.615Z" transform="translate(-915.883 -683.847)" fill="#00223d" fill-rule="evenodd"/><path d="M2584.385,1159.47a1.625,1.625,0,1,0,.6-2.22A1.626,1.626,0,0,0,2584.385,1159.47Z" transform="translate(-931.35 -741.575)" fill="#00223d" fill-rule="evenodd"/><path d="M1909.92,299.189a9.844,9.844,0,1,0,9.844,9.845,9.845,9.845,0,0,0-9.844-9.845Zm-2.666-12.538h5.332a1.1,1.1,0,0,1,1,.619l1.763,3.526a18.939,18.939,0,0,1,3.627,1.5l3.74-1.247a1.1,1.1,0,0,1,1.145.27l1.885,1.885,1.885,1.885a1.1,1.1,0,0,1,.27,1.145l-1.247,3.74a18.855,18.855,0,0,1,1.5,3.627l3.527,1.763a1.1,1.1,0,0,1,.618,1V311.7a1.1,1.1,0,0,1-.618,1l-3.527,1.763a18.856,18.856,0,0,1-1.5,3.627l1.247,3.74a1.1,1.1,0,0,1-.27,1.145l-1.885,1.885-1.885,1.885a1.1,1.1,0,0,1-1.145.27l-3.74-1.247a18.925,18.925,0,0,1-3.627,1.5l-1.763,3.526a1.1,1.1,0,0,1-1,.619h-5.331a1.1,1.1,0,0,1-1-.619l-1.763-3.526a18.909,18.909,0,0,1-3.627-1.5l-3.741,1.247a1.1,1.1,0,0,1-1.145-.27l-1.885-1.885-1.885-1.885a1.1,1.1,0,0,1-.27-1.145l1.247-3.74a18.9,18.9,0,0,1-1.5-3.626l-3.526-1.763a1.1,1.1,0,0,1-.619-1v-5.331a1.1,1.1,0,0,1,.619-1l3.526-1.763a18.9,18.9,0,0,1,1.5-3.626l-1.247-3.741a1.1,1.1,0,0,1,.27-1.145l1.885-1.885,1.885-1.885a1.1,1.1,0,0,1,1.145-.27l3.741,1.247a18.915,18.915,0,0,1,3.627-1.5l1.763-3.526A1.1,1.1,0,0,1,1907.254,286.651Z" transform="translate(-588.57 74.932)" fill="#eff4ef" stroke="#00223d" stroke-width="1" fill-rule="evenodd"/><path d="M1445.143,282.747a26.111,26.111,0,1,0,24.6,17.3l-3.936,3.936a21.242,21.242,0,1,1-7.065-11.411l3.476-3.476a26.027,26.027,0,0,0-17.074-6.35ZM1431.4,306.288a3.266,3.266,0,0,1,4.619-4.619l9.123,9.123,20.554-20.555a3.266,3.266,0,1,1,4.619,4.619l-22.864,22.864a3.266,3.266,0,0,1-4.619,0Z" transform="translate(-45.696 9.986)" fill="#fff" fill-rule="evenodd"/><path d="M2226.775,243.965a.779.779,0,0,1-.552-.228L2223,240.515a.781.781,0,0,1,1.1-1.1l3.222,3.221a.781.781,0,0,1-.552,1.333Zm-12.884,0a.781.781,0,0,1-.553-1.333l3.222-3.221a.781.781,0,1,1,1.1,1.1l-3.222,3.221A.777.777,0,0,1,2213.891,243.965Zm3.22-9.663a.776.776,0,0,1-.552-.229l-3.222-3.221a.781.781,0,1,1,1.1-1.1l3.222,3.221a.781.781,0,0,1-.552,1.333Zm6.443,0a.781.781,0,0,1-.552-1.333l3.221-3.221a.781.781,0,0,1,1.1,1.1l-3.222,3.221A.779.779,0,0,1,2223.554,234.3Z" transform="translate(-678.776 -19.15)" fill="#eff4ef"/><g transform="translate(1315.121 491.668)"><path d="M945.788,1485.612s-.968,5.481-1.443,10.906a3.737,3.737,0,0,0,3.576,4.05c7.225.3,22.679.886,28.225.639a1.217,1.217,0,0,0,1.071-1.667h0a2.72,2.72,0,0,0-1.393-1.466L950.3,1486.341Z" transform="translate(-884.11 -1222.942)" fill="#12263f"/><path d="M946.042,1475.715l.778,6.555s4.472,2.082,7.526-.262l-1.852-7.3Z" transform="translate(-885.157 -1216.266)" fill="url(#c)"/><path d="M915.569,1159.648c-.336,1.711-1.8,85.431,7.145,122.95a1.273,1.273,0,0,1-.747,1.48,22.17,22.17,0,0,1-7.288,1.482,2.195,2.195,0,0,1-2.176-1.574c-2.558-8.7-14.815-52.318-16.415-93.98-1.787-46.553,0-1.584,0-1.584l1.048-28.777Z" transform="translate(-854.099 -1023.447)" fill="#5b7393"/><path d="M867.542,1492.981s-1.541,2.767-3.033,10.119a2.28,2.28,0,0,0,2.007,2.731c2.386.235,6.058.537,9,.516a2.273,2.273,0,0,0,2.251-2.536,19.18,19.18,0,0,0-4.477-10.518Z" transform="translate(-835.23 -1227.452)" fill="#12263f"/><path d="M868.912,1470.641l1.817,9.914s1.8,1.337,5.352.368l-.867-10.667Z" transform="translate(-837.953 -1213.544)" fill="url(#c)"/><path d="M851.813,1158.965c-7.319,44.172,1.587,109.173,4.591,121.9a1.983,1.983,0,0,0,1.6,1.507,13.316,13.316,0,0,0,5.725-.229,1.818,1.818,0,0,0,1.307-1.675c.4-10.285-.322-73.429,6.5-98.384a5.668,5.668,0,0,1,2.186-3.127l13.237-9.41,1.015-15.21Z" transform="translate(-825.764 -1020.196)" fill="#5b7393"/><g transform="translate(23.316 21.104)"><path d="M898.584,944.9c-21.934-.362-46.136,5.759-46.136,5.759-6.538,38.15-1.143,82.152-1.143,82.152,16.98,4.453,36.136-2.723,36.136-2.723,2.823-15.945,15.99-60.821,15.99-60.821a72.251,72.251,0,0,0,26.815-8.51c-5.546-6.428-8.159-14.607-9.3-19.443A73.6,73.6,0,0,1,898.584,944.9Z" transform="translate(-849.213 -910.933)" fill="#12263f"/><path d="M1076.531,864.668a4.2,4.2,0,0,0-4.882-1.372c-3.228,13.635-20.152,24.69-37.54,30.094,1.136,4.835,3.75,13.014,9.3,19.443C1072.261,896.608,1076.531,864.668,1076.531,864.668Z" transform="translate(-962.371 -863.005)" fill="url(#c)"/></g><g transform="translate(132.594)"><path d="M1135.222,832.039c.226.717-2.386,1.808-3.923-1.123-.053-1.405-.908-7.424-.069-8.568,4.471-6.1,13.14-13.737,13.14-13.737a2.063,2.063,0,0,1,.258,2.866l-4.2,4.381a20.382,20.382,0,0,1,2.455,4.853,5.893,5.893,0,0,1-.588,4.337c-.738,1.329-1.745,3.058-2.7,4.412A5.817,5.817,0,0,1,1135.222,832.039Z" transform="translate(-1130.864 -808.611)" fill="url(#f)"/><path d="M1142.82,834.614l-3.832,3.248-1.2,3.234,3.416,3.79s1.149-6.417,2-7.807S1143.615,835.02,1142.82,834.614Z" transform="translate(-1135.1 -824.525)" fill="url(#g)"/></g><path d="M828.333,986.64,819.92,965.4s-20.488,13.921-23.857,31.57a46.609,46.609,0,0,1,17.255,4.838C816.431,994.808,828.333,986.64,828.333,986.64Z" transform="translate(-793.369 -904.568)" fill="#12263f"/><path d="M908.124,904.663l-6.979,20.183a.728.728,0,0,0,.332.876c1.9,1.052,8.756,4.093,17.016-1.144a3.424,3.424,0,0,0,1.577-2.446l2.26-17.469Z" transform="translate(-857.656 -867.396)" fill="url(#h)"/><g transform="translate(37.223 8.088)"><path d="M930.119,856.492s7.664,14.426,6.681,20.254-10.48,5.409-18.774.676l-5.8-15.577Z" transform="translate(-901.688 -846.003)" fill="url(#i)"/><path d="M901.763,853.226a.594.594,0,0,0,.259-.87,15.518,15.518,0,0,1-2.132-4.527s-1.378-.882,3.506-2.051,12.168-2.984,13.7-7.141c1.493-4.053-2.43-14.247-8.687-6.125a.594.594,0,0,1-.942.007c-1.026-1.335-3.723-4.106-7.467-2.426-3.5,1.572-3.9,4.139-3.85,5.433a.591.591,0,0,1-.7.605c-1.772-.338-6.023-.628-8.006,3.733-1.634,3.592-.572,5.625.395,6.619a.592.592,0,0,1-.253.984c-1.164.357-2.667,1.344-2.517,4.071.208,3.771,4.424,3.439,5.625,3.267a.6.6,0,0,1,.528.187c1.029,1.139,5.667,5.975,10.685,6.558a.6.6,0,0,0,.629-.792l-2.172-6.313a.6.6,0,0,1,.323-.74Z" transform="translate(-885.058 -829.457)" fill="#00223d"/><path d="M921.093,890.1s-5.457-3.744-5.856-.591,4.914,4.567,7.545,3.391Z" transform="translate(-903.515 -865.439)" fill="url(#j)"/></g><path d="M791.955,1045.61s-14,31.9,20.226,36.563l4.667-3.89s-17.114-9.336-7.779-28.006C809.069,1050.277,798.957,1041.72,791.955,1045.61Z" transform="translate(-789.119 -953.036)" fill="url(#k)"/><path d="M853.226,1131.42h12.447s7.78,10.113,7,12.447-8.467.479-8.467.479l-3.98-6.7s-11.669.778-11.669-2.333S853.226,1131.42,853.226,1131.42Z" transform="translate(-825.496 -1006.173)" fill="url(#l)"/></g></g></svg>