<svg xmlns="http://www.w3.org/2000/svg" width="252.868" height="225.48" viewBox="0 0 252.868 225.48"><g transform="translate(-502.133 -24489.309)"><rect width="252.868" height="225.481" transform="translate(502.133 24489.309)" fill="#9d7847"/><g transform="translate(1448.907 24661.861)"><g transform="translate(-878.17 -129.999)"><path d="M-762.512-117.183v72.833a17.831,17.831,0,0,0-.394,1.965,42.317,42.317,0,0,1-5.635,17.212A41.374,41.374,0,0,1-784.082-9.948c-11.2,6.553-23.018,11.827-34.938,16.884a3.486,3.486,0,0,1-2.457.052A313.042,313.042,0,0,1-855.207-9.18a46.484,46.484,0,0,1-13.12-10.648A42.788,42.788,0,0,1-877.772-42.7c-.1-.866-.263-1.724-.4-2.586v-71.9c.424-.183.851-.359,1.272-.549,3.739-1.685,7.39-3.609,11.231-5.013a120.193,120.193,0,0,1,35.526-6.944,18.416,18.416,0,0,0,1.986-.31h15.63a7.946,7.946,0,0,0,1.191.238,130.471,130.471,0,0,1,30.555,5.047A94.906,94.906,0,0,1-762.512-117.183Zm-6.471,37.369h-.005q0-6.406,0-12.812-.008-10.314-.023-20.628c0-.739.082-1.441-1.043-1.513-5.138-.326-10.266-.879-15.408-1.045a167.059,167.059,0,0,0-24.6.94,115.258,115.258,0,0,0-36.527,10.092A88.566,88.566,0,0,0-870.723-88.33a3.522,3.522,0,0,0-.935,2.26c-.076,5.729-.145,11.462-.012,17.189.207,8.945-.7,17.921.622,26.833C-869.438-31.2-864.123-22.6-854.8-16.781c5.016,3.133,10.3,5.877,15.6,8.507,5.868,2.911,11.888,5.517,17.877,8.176a2.977,2.977,0,0,0,2.171-.073c7.016-3.162,14.071-6.252,20.966-9.663a109.978,109.978,0,0,0,13.551-7.712C-774.383-24.59-769.425-34.756-769.053-47-768.721-57.927-768.983-68.875-768.983-79.814Z" transform="translate(878.17 129.999)" fill="#fff"/><path d="M-724.318,57.78c0,4.787,0,9.413,0,14.039,0,1.718-.066,3.438,0,5.153.04,1.073-.3,1.461-1.411,1.44-3.169-.062-6.341-.055-9.51,0-1.118.019-1.435-.429-1.416-1.48q.1-5.769.1-11.54-.034-26.322-.125-52.643a2.717,2.717,0,0,1,1.6-2.83,25.337,25.337,0,0,1,20.388-1.895c5.229,1.713,8.637,5.635,10.423,10.712a38.588,38.588,0,0,1-.581,28.074c-3.147,7.749-9.259,11.4-17.591,10.976C-723,57.755-723.562,57.78-724.318,57.78Zm9.811-26.861c-.163-1.86-.307-3.986-.555-6.1a15.919,15.919,0,0,0-.663-2.722c-1.163-3.832-3.578-5.472-7.152-4.925-.936.143-1.443.464-1.438,1.572q.062,13.571,0,27.142c0,.992.344,1.389,1.292,1.509a5.812,5.812,0,0,0,6.639-3.94C-714.907,39.5-714.662,35.352-714.506,30.918Z" transform="translate(780.909 36.029)" fill="#fff"/><path d="M-827.383,10.43h11.855a7.238,7.238,0,0,1,.172,1.137q-.006,15.149-.033,30.3c-.005,4.321.022,8.643-.037,12.963a2.258,2.258,0,0,1-.692,1.687c-6.824,4.014-14.182,5.238-21.747,2.952-6.4-1.933-9.012-7.176-9.271-13.452-.3-7.17-.126-14.36-.152-21.542-.014-3.9-.013-7.806-.019-11.709,0-.667,0-1.333,0-2.137h11.955c0,3.008,0,5.957,0,8.906q-.021,12.025-.041,24.051a11.1,11.1,0,0,0,.175,2.172c.71,3.559,2.982,4.825,6.458,3.709a1.37,1.37,0,0,0,1.157-1.527c-.036-5.309-.014-10.619-.007-15.928q.013-10.462.038-20.924A3.336,3.336,0,0,1-827.383,10.43Z" transform="translate(856.959 33.467)" fill="#fff"/><path d="M-623.719,42.842a15.886,15.886,0,0,0,8.938,5.078c1.907.375,3.754.2,5.147-1.407a4.128,4.128,0,0,0,.675-4.8,11.182,11.182,0,0,0-3.117-3.367c-2.268-1.728-4.749-3.173-7.049-4.862-5.04-3.7-6.358-10.067-4.915-15.565,1.536-5.853,6.618-9.656,12.6-10.239a18.459,18.459,0,0,1,12.149,2.98,2.294,2.294,0,0,1,.992,1.554c.088,3.581.045,7.166.045,11.041-1.072-1.031-1.945-1.95-2.9-2.773a10.371,10.371,0,0,0-8.025-2.747c-1.548.152-2.874.741-3.383,2.327a3.891,3.891,0,0,0,1.039,4.308,31.07,31.07,0,0,0,3.918,2.8c3.2,2.05,6.4,4.071,8.58,7.332,5.042,7.529,2.394,22.165-10.563,23.84-3.892.5-7.4-.615-10.912-1.939-3.579-1.348-3.577-1.354-3.577-5.121v-8.23Z" transform="translate(703.855 35.425)" fill="#fff"/></g></g></g></svg>