<svg xmlns="http://www.w3.org/2000/svg" xmlns:xlink="http://www.w3.org/1999/xlink" width="494.86" height="640.057" viewBox="0 0 494.86 640.057"><defs><linearGradient id="a" x1="0.5" x2="0.5" y2="1" gradientUnits="objectBoundingBox"><stop offset="0" stop-color="#fff"/><stop offset="1" stop-color="#d2e6ee"/></linearGradient></defs><g transform="translate(-221.652 -1878)"><g transform="translate(221.652 1878)"><g transform="translate(0.496 0.268)"><path d="M550.354,43.533H238.4V334.644h138.9v25.719l22.747-25.719H550.354Z" transform="translate(-238.397 -43.533)" fill="#fff"/></g><g transform="translate(0 0.268)"><rect width="312.948" height="21.1" fill="#e0e0e0"/><g transform="translate(7.662 6.652)"><path d="M254.561,54.6a4.59,4.59,0,1,1-4.591-4.59A4.591,4.591,0,0,1,254.561,54.6Z" transform="translate(-245.38 -50.014)" fill="#fff"/></g><g transform="translate(20.868 6.652)"><path d="M267.428,54.6a4.59,4.59,0,1,1-4.591-4.59A4.591,4.591,0,0,1,267.428,54.6Z" transform="translate(-258.247 -50.014)" fill="#fff"/></g><g transform="translate(34.075 6.652)"><path d="M280.295,54.6a4.59,4.59,0,1,1-4.591-4.59A4.591,4.591,0,0,1,280.295,54.6Z" transform="translate(-271.114 -50.014)" fill="#fff"/></g></g><g transform="translate(0.229)"><path d="M550.361,334.9c0-1.9-.09-115.819-.226-291.362l.226.226L238.4,43.807l.267-.267V61.792c-.009,98.216-.018,191.1-.027,273.11l-.24-.24,138.9.041h.2v.2c0,9.048-.007,17.378-.01,25.467l-.329-.127L399.9,335.2l.052-.056h.076l150.33-.239-150.329.586.127-.057L377.439,360.5l-.328.362v-.49c0-8.089-.007-16.419-.011-25.467l.2.2-138.9.041h-.24v-.24c-.008-82.005-.017-174.894-.027-273.11V43.272h.267l311.957.041h.226v.227C550.451,219.084,550.362,333,550.361,334.9Z" transform="translate(-238.137 -43.272)" fill="#263238"/></g><g transform="translate(17.456 63.553)"><rect width="47.937" height="6.732" fill="#e0e0e0"/><g transform="translate(0.168 23.62)"><path d="M350.625,128.475c0,.147-21.389.267-47.767.267s-47.771-.12-47.771-.267,21.384-.268,47.771-.268S350.625,128.327,350.625,128.475Z" transform="translate(-255.086 -128.207)" fill="#263238"/></g><g transform="translate(0.168 51.924)"><path d="M322.017,156.052c0,.148-14.985.267-33.464.267s-33.467-.119-33.467-.267,14.981-.267,33.467-.267S322.017,155.9,322.017,156.052Z" transform="translate(-255.086 -155.785)" fill="#263238"/></g><g transform="translate(0.168 36.641)"><path d="M350.625,141.162c0,.148-21.389.267-47.767.267s-47.771-.119-47.771-.267,21.384-.268,47.771-.268S350.625,141.014,350.625,141.162Z" transform="translate(-255.086 -140.894)" fill="#263238"/></g></g><g transform="translate(35.699 214.032)"><g transform="translate(74.087)"><path d="M383.419,290.346H344.882V251.809h38.537Zm-37.511-1.026h36.485V252.835H345.908Z" transform="translate(-344.882 -251.809)" fill="#12263f"/></g><g transform="translate(1.601)"><path d="M312.794,290.346H274.257V251.809h38.537Zm-37.511-1.026h36.485V252.835H275.283Z" transform="translate(-274.257 -251.809)" fill="#12263f"/></g><g transform="translate(0 46.805)"><path d="M314.437,297.679c0,.148-9.345.267-20.869.267s-20.871-.119-20.871-.267,9.343-.267,20.871-.267S314.437,297.531,314.437,297.679Z" transform="translate(-272.697 -297.412)" fill="#263238"/></g><g transform="translate(1.947 55.354)"><path d="M310.789,306.009c0,.148-8.1.268-18.1.268s-18.1-.12-18.1-.268,8.1-.267,18.1-.267S310.789,305.862,310.789,306.009Z" transform="translate(-274.594 -305.742)" fill="#263238"/></g><g transform="translate(73.531 46.805)"><path d="M386.08,297.679c0,.148-9.345.267-20.869.267s-20.871-.119-20.871-.267,9.343-.267,20.871-.267S386.08,297.531,386.08,297.679Z" transform="translate(-344.34 -297.412)" fill="#263238"/></g><g transform="translate(75.478 55.354)"><path d="M382.432,306.009c0,.148-8.1.268-18.1.268s-18.1-.12-18.1-.268,8.1-.267,18.1-.267S382.432,305.862,382.432,306.009Z" transform="translate(-346.237 -305.742)" fill="#263238"/></g><g transform="translate(74.599 0.512)"><path d="M382.894,252.309c.1.1-8.209,8.586-18.567,18.943s-18.841,18.672-18.945,18.568,8.208-8.585,18.568-18.945S382.789,252.2,382.894,252.309Z" transform="translate(-345.381 -252.308)" fill="#12263f"/></g><g transform="translate(75.929 1.171)"><path d="M380.914,290.043c-.015.011-.133-.122-.345-.386l-.9-1.167c-.77-1.023-1.9-2.494-3.3-4.3-2.816-3.605-6.832-8.49-11.563-13.622s-9.286-9.522-12.657-12.617c-1.683-1.549-3.059-2.789-4.017-3.637l-1.091-.992c-.245-.232-.369-.36-.357-.375a1.953,1.953,0,0,1,.426.292l1.157.917c1,.8,2.417,2,4.136,3.515a178.162,178.162,0,0,1,24.266,26.289c1.373,1.836,2.455,3.343,3.173,4.4l.822,1.226A1.95,1.95,0,0,1,380.914,290.043Z" transform="translate(-346.676 -252.95)" fill="#12263f"/></g><g transform="translate(1.711 2.792)"><path d="M311.486,254.53c.1.107-8.127,8.039-18.376,17.715s-18.644,17.436-18.745,17.329,8.126-8.038,18.378-17.717S311.385,254.422,311.486,254.53Z" transform="translate(-274.364 -254.529)" fill="#12263f"/></g><g transform="translate(2.628 1.555)"><path d="M311.045,289.618c-.015.011-.139-.12-.359-.38l-.945-1.152c-.808-1.009-1.989-2.46-3.467-4.236-2.953-3.553-7.161-8.357-12.107-13.378s-9.7-9.294-13.209-12.3c-1.755-1.5-3.189-2.7-4.187-3.526l-1.138-.962c-.257-.225-.386-.349-.375-.364a1.939,1.939,0,0,1,.441.279c.323.239.721.531,1.2.884,1.04.772,2.511,1.931,4.3,3.4a175.744,175.744,0,0,1,25.366,25.725c1.444,1.81,2.582,3.3,3.339,4.349l.867,1.213A1.941,1.941,0,0,1,311.045,289.618Z" transform="translate(-275.257 -253.324)" fill="#12263f"/></g></g><g transform="translate(176.483 213.457)"><g transform="translate(68.944)"><path d="M515.578,289.787H477.04V251.249h38.538Zm-37.511-1.026h36.485V252.275H478.066Z" transform="translate(-477.04 -251.249)" fill="#12263f"/></g><g transform="translate(1.6)"><path d="M449.963,289.787H411.425V251.249h38.538Zm-37.512-1.026h36.486V252.275H412.451Z" transform="translate(-411.425 -251.249)" fill="#12263f"/></g><g transform="translate(0 46.805)"><path d="M451.6,297.12c0,.147-9.344.267-20.868.267s-20.871-.12-20.871-.267,9.342-.268,20.871-.268S451.6,296.972,451.6,297.12Z" transform="translate(-409.866 -296.852)" fill="#263238"/></g><g transform="translate(1.946 55.355)"><path d="M447.958,305.45c0,.148-8.1.268-18.1.268s-18.1-.12-18.1-.268,8.1-.267,18.1-.267S447.958,305.3,447.958,305.45Z" transform="translate(-411.762 -305.183)" fill="#263238"/></g><g transform="translate(68.387 46.805)"><path d="M518.237,297.12c0,.147-9.344.267-20.869.267s-20.871-.12-20.871-.267,9.343-.268,20.871-.268S518.237,296.972,518.237,297.12Z" transform="translate(-476.497 -296.852)" fill="#263238"/></g><g transform="translate(70.334 55.355)"><path d="M514.589,305.45c0,.148-8.1.268-18.1.268s-18.1-.12-18.1-.268,8.1-.267,18.1-.267S514.589,305.3,514.589,305.45Z" transform="translate(-478.394 -305.183)" fill="#263238"/></g><g transform="translate(69.456 0.512)"><path d="M515.051,251.749c.1.1-8.209,8.588-18.566,18.944s-18.842,18.671-18.945,18.568,8.207-8.585,18.568-18.945S514.947,251.645,515.051,251.749Z" transform="translate(-477.539 -251.748)" fill="#12263f"/></g><g transform="translate(70.785 1.172)"><path d="M513.071,289.484a1.887,1.887,0,0,1-.345-.386c-.243-.316-.542-.7-.9-1.167-.769-1.023-1.9-2.494-3.3-4.3-2.815-3.607-6.831-8.491-11.563-13.622S487.67,260.491,484.3,257.4c-1.684-1.549-3.06-2.789-4.018-3.637-.435-.4-.8-.725-1.091-.992-.245-.232-.369-.36-.357-.375a1.907,1.907,0,0,1,.427.291c.312.248.694.551,1.157.917,1,.8,2.416,2,4.135,3.516a178.02,178.02,0,0,1,24.266,26.289c1.373,1.835,2.455,3.343,3.173,4.4l.822,1.227A1.906,1.906,0,0,1,513.071,289.484Z" transform="translate(-478.833 -252.391)" fill="#12263f"/></g><g transform="translate(1.71 2.792)"><path d="M448.655,253.97c.1.108-8.128,8.04-18.377,17.716s-18.644,17.436-18.745,17.328,8.126-8.037,18.379-17.717S448.554,253.863,448.655,253.97Z" transform="translate(-411.532 -253.969)" fill="#12263f"/></g><g transform="translate(2.628 1.556)"><path d="M448.213,289.059a1.946,1.946,0,0,1-.358-.38l-.946-1.152c-.807-1.01-1.988-2.46-3.466-4.236-2.953-3.553-7.162-8.357-12.108-13.378s-9.7-9.294-13.209-12.3c-1.755-1.5-3.188-2.7-4.186-3.526l-1.137-.962c-.257-.225-.386-.35-.375-.364a1.95,1.95,0,0,1,.44.279l1.2.884c1.04.772,2.511,1.931,4.3,3.4a175.747,175.747,0,0,1,25.366,25.724c1.443,1.81,2.581,3.3,3.339,4.349.347.484.632.885.866,1.212A1.868,1.868,0,0,1,448.213,289.059Z" transform="translate(-412.426 -252.765)" fill="#12263f"/></g></g><g transform="translate(151.367 40.833)"><path d="M516.011,213.672H385.395V83.057H516.011Zm-129.59-1.026H514.985V84.083H386.421Z" transform="translate(-385.395 -83.057)" fill="#12263f"/><g transform="translate(5.753 5.752)"><path d="M509.822,207.484H391V88.661H509.822Zm-117.8-1.026H508.8V89.687H392.026Z" transform="translate(-391 -88.661)" fill="#12263f"/></g><g transform="translate(7.597 42.857)"><path d="M393.617,204.917l-.82-.616,34.951-46.495,24.221,13.45,30.607-46.443.858.564L452.3,172.616,428.03,159.137Z" transform="translate(-392.797 -124.813)" fill="#12263f"/></g><g transform="translate(45.525 24.853)"><path d="M445.406,138.584a15.656,15.656,0,1,1,15.656-15.656A15.673,15.673,0,0,1,445.406,138.584Zm0-30.286a14.63,14.63,0,1,0,14.63,14.63A14.645,14.645,0,0,0,445.406,108.3Z" transform="translate(-429.751 -107.272)" fill="#12263f"/></g><g transform="translate(41.721 75.548)"><rect width="1.934" height="1.934" fill="#12263f"/></g><g transform="translate(65.844 88.894)"><rect width="1.934" height="1.934" fill="#12263f"/></g><g transform="translate(96.838 42.443)"><rect width="1.934" height="1.934" fill="#12263f"/></g><g transform="translate(60.213 54.685)"><rect width="1.934" height="1.934" fill="#12263f"/></g><g transform="translate(60.213 24.288)"><rect width="1.934" height="1.934" fill="#12263f"/></g><g transform="translate(75.412 39.542)"><rect width="1.934" height="1.934" transform="translate(0 1.934) rotate(-90)" fill="#12263f"/></g><g transform="translate(45.014 39.542)"><rect width="1.934" height="1.934" transform="translate(0 1.934) rotate(-90)" fill="#12263f"/></g><g transform="translate(7.039 121.685)"><rect width="1.934" height="1.934" fill="#12263f"/></g><g transform="translate(97.538 24.566)"><path d="M480.7,146.616c-.148,0-.267-8.871-.267-19.811s.119-19.814.267-19.814.268,8.869.268,19.814S480.844,146.616,480.7,146.616Z" transform="translate(-480.429 -106.992)" fill="#12263f"/></g><g transform="translate(97.091 23.851)"><path d="M481.423,107.01a.715.715,0,1,1-.715-.714A.714.714,0,0,1,481.423,107.01Z" transform="translate(-479.993 -106.296)" fill="#12263f"/></g><g transform="translate(97.091 63.899)"><circle cx="0.715" cy="0.715" r="0.715" fill="#12263f"/></g></g><g transform="translate(61.181 194.763)"><path d="M535.826,233.3c0,.148-53.35.268-119.145.268-65.818,0-119.156-.12-119.156-.268s53.338-.267,119.156-.267C482.476,233.035,535.826,233.154,535.826,233.3Z" transform="translate(-297.525 -233.035)" fill="#e0e0e0"/></g></g><g transform="translate(474.617 2493.617) rotate(-90)"><g transform="translate(0 55.509)"><path d="M.4,2.685a.463.463,0,0,1-.3-.4C.053,1.684.02,1.069,0,.461A.448.448,0,0,1,.446,0c.617-.014.45.6.572,2.235a.448.448,0,0,1-.426.479A.482.482,0,0,1,.4,2.685Z" transform="translate(0 45.278)" fill="#00223d"/><path d="M0,40.046c.113-1.158.274-2.325.479-3.47a.452.452,0,0,1,.533-.36c.682.132.237.517-.1,3.929a.45.45,0,0,1-.5.4A.463.463,0,0,1,0,40.046Zm1.837-8.988c.351-1.114.753-2.235,1.182-3.293a.462.462,0,0,1,.857.346c-.426,1.054-.814,2.136-1.158,3.227a.462.462,0,0,1-.881-.28Zm3.648-8.411c.571-1.011,1.191-2.013,1.843-2.976a.462.462,0,0,1,.77.509c-.638.944-1.246,1.926-1.805,2.916A.462.462,0,0,1,5.488,22.646Zm5.383-6.838a.448.448,0,0,1-.049-.639c.772-.872,1.59-1.724,2.431-2.534.433-.416,1.082.236.65.652-.824.793-1.625,1.629-2.382,2.483A.464.464,0,0,1,10.871,15.808Zm6.66-6.229a.446.446,0,0,1,.084-.634c.94-.7,1.919-1.365,2.911-1.987a.458.458,0,0,1,.5.766c-.972.609-1.932,1.264-2.853,1.947A.468.468,0,0,1,17.531,9.58ZM25.612,5.06a.463.463,0,0,1-.255-.231.444.444,0,0,1,.213-.6c1.067-.493,2.166-.951,3.268-1.36a.469.469,0,0,1,.6.265.445.445,0,0,1-.26.583c-1.079.4-2.157.849-3.2,1.333A.467.467,0,0,1,25.612,5.06Zm8.7-2.991a.465.465,0,0,1-.288-.318.446.446,0,0,1,.334-.545c1.148-.268,2.322-.5,3.49-.674a.467.467,0,0,1,.532.378A.446.446,0,0,1,38,1.427c-1.144.175-2.294.4-3.419.661A.466.466,0,0,1,34.308,2.069ZM43.168.481a.448.448,0,0,1,.441-.465C44.791-.015,45.992,0,47.177.06a.453.453,0,1,1-.034.9c-1.161-.059-2.338-.074-3.5-.043A.465.465,0,0,1,43.168.481ZM72.68,10.317c-2.759-2.107-3.38-2.073-3-2.644a.462.462,0,0,1,.637-.126c1,.645,1.979,1.338,2.923,2.058A.452.452,0,1,1,72.68,10.317ZM52.415,1.083a.452.452,0,0,1,.53-.365c1.167.208,2.343.463,3.494.759a.452.452,0,1,1-.22.876c-1.128-.29-2.281-.54-3.425-.743A.461.461,0,0,1,52.415,1.083Zm12.44,4.427C61.732,4,61.124,4.155,61.375,3.516a.469.469,0,0,1,.6-.251c1.109.435,2.213.918,3.28,1.433a.452.452,0,1,1-.4.812Z" transform="translate(0.181)" fill="#00223d"/><path d="M1.413,2.074C.355.944-.3.561.139.13A.466.466,0,0,1,.79.136C1.932,1.26,2.5,1.709,2.064,2.105A.526.526,0,0,1,1.413,2.074Z" transform="translate(77.028 13.29)" fill="#00223d"/><g transform="translate(10.788 45.684)"><path d="M.3,2.684A.461.461,0,0,1,0,2.231c.033-.6.052-1.2.06-1.79A.448.448,0,0,1,.526,0,.466.466,0,0,1,.981.465C.974,1.071.953,1.685.92,2.292a.449.449,0,0,1-.484.421A.477.477,0,0,1,.3,2.684Z" transform="translate(79.673)" fill="#00223d"/><path d="M12.113,32.885c-1.185-.485-2.364-1.024-3.5-1.6a.454.454,0,0,1-.2-.611c.322-.625.584-.039,4.051,1.38a.456.456,0,0,1,.256.593A.47.47,0,0,1,12.113,32.885Zm5.6,1.429c.175-.679.578-.161,4.244.488a.461.461,0,0,1,.38.526.452.452,0,0,1-.529.365c-1.255-.222-2.52-.5-3.76-.825A.46.46,0,0,1,17.715,34.314ZM3.238,28.077c-1.05-.727-2.083-1.507-3.07-2.319A.449.449,0,0,1,.1,25.12c.455-.538.578.088,3.656,2.218a.452.452,0,0,1,.118.632A.464.464,0,0,1,3.238,28.077Zm24.635,8.259a.462.462,0,0,1-.3-.442.449.449,0,0,1,.472-.433c1.252.05,2.518.049,3.763,0a.465.465,0,0,1,.487.432.447.447,0,0,1-.433.472c-1.271.055-2.564.056-3.841,0A.475.475,0,0,1,27.873,36.336Zm9.925-.683a.466.466,0,0,1-.293-.341.446.446,0,0,1,.363-.527c1.225-.22,2.455-.5,3.658-.818a.47.47,0,0,1,.57.319.445.445,0,0,1-.315.556c-1.227.329-2.483.609-3.734.834A.465.465,0,0,1,37.8,35.654Zm9.5-2.809a.466.466,0,0,1-.262-.246.444.444,0,0,1,.235-.593c1.143-.479,2.28-1.013,3.377-1.585a.47.47,0,0,1,.625.189.445.445,0,0,1-.184.612c-1.12.584-2.28,1.128-3.446,1.618A.468.468,0,0,1,47.3,32.845Zm8.62-4.788a.467.467,0,0,1-.211-.159.445.445,0,0,1,.1-.632c1.006-.714,1.993-1.479,2.934-2.275a.467.467,0,0,1,.65.052.446.446,0,0,1-.043.638c-.96.812-1.968,1.594-2.994,2.322A.465.465,0,0,1,55.918,28.057ZM63.1,21.435c-.54-.469.1-.563,2.3-3.5a.461.461,0,0,1,.744.544c-.752,1-1.557,1.985-2.394,2.92A.465.465,0,0,1,63.1,21.435Zm5.744-7.926c-.631-.342-.037-.567,1.449-3.922a.462.462,0,0,1,.846.372c-.507,1.145-1.069,2.28-1.672,3.375A.46.46,0,0,1,68.844,13.508ZM72.617,4.5a.458.458,0,0,1-.284-.551c.339-1.184.629-2.392.864-3.59a.453.453,0,0,1,.54-.351A.461.461,0,0,1,74.1.545c-.24,1.223-.536,2.455-.882,3.663a.455.455,0,0,1-.568.305Z" transform="translate(5.735 7.825)" fill="#00223d"/><path d="M1.343,2.142C.254.966-.3.494.162.118.638-.273.905.333,2.02,1.538a.446.446,0,0,1-.026.639A.467.467,0,0,1,1.343,2.142Z" transform="translate(0 27.141)" fill="#00223d"/></g><g transform="translate(11.445 10.94)"><path d="M5.723,52.581l6.547-.811a29.3,29.3,0,0,0,7.1,6.057c.256,6.313-.174,6.774.5,7l7.545,2.514a.543.543,0,0,0,.6-.178l3.974-5.13a29.185,29.185,0,0,0,9.3-.594l4.763,4.579a.553.553,0,0,0,.624.1l7.063-3.441a.523.523,0,0,0,.291-.546l-.924-6.448a27.83,27.83,0,0,0,6.055-6.888l6.607-.024a.533.533,0,0,0,.507-.362l2.443-7.38a.535.535,0,0,0-.19-.594l-5.279-3.984a27.933,27.933,0,0,0-.745-9.154c4.383-4.6,5-4.6,4.679-5.225-3.659-6.8-3.45-7.378-4.167-7.29l-6.547.811a29.3,29.3,0,0,0-7.1-6.057c-.255-6.309.174-6.774-.5-7C41.332.168,41.152-.35,40.724.2l-3.974,5.13a29.182,29.182,0,0,0-9.3.594C22.761,1.6,22.7.936,22.062,1.246c-6.929,3.528-7.453,3.29-7.354,3.986l.924,6.449a27.826,27.826,0,0,0-6.056,6.888c-6.306.153-6.89-.288-7.113.386C.178,26.3-.36,26.5.211,26.929L5.49,30.913a27.939,27.939,0,0,0,.745,9.153c-4.368,4.584-5,4.6-4.678,5.225C5.215,52.091,5.006,52.67,5.723,52.581Z" fill="#8ec8c8"/><path d="M.017,6.987A7.562,7.562,0,0,1,8.243.025,7.8,7.8,0,0,1,15.45,8.217a7.563,7.563,0,0,1-8.225,6.962h0A7.794,7.794,0,0,1,.017,6.987ZM7.27,14.5l0,0ZM8.152,1.379A6.2,6.2,0,0,0,1.4,7.1a6.4,6.4,0,0,0,5.919,6.728,6.211,6.211,0,0,0,6.756-5.717A6.4,6.4,0,0,0,8.152,1.379Z" transform="translate(26.637 26.08)" fill="url(#a)"/><path d="M12.956,37.628h0a20.452,20.452,0,0,1-3.09-1.472.682.682,0,0,1-.3-.826.642.642,0,0,1,.051-.106.693.693,0,0,1,.945-.233,19.122,19.122,0,0,0,3.589,1.624h0A18.294,18.294,0,0,0,37.132,26q.131-.345.248-.7A18.327,18.327,0,0,0,25.513,2.286,18.272,18.272,0,0,0,2.282,13.6c-1.871,5.653-.236,9.446-.456,10.028a.7.7,0,0,1-1.322-.1,19.108,19.108,0,0,1,.729-11.116C7.2-3.371,29.661-4.332,37.489,10.848a19.125,19.125,0,0,1,1.206,14.887q-.126.382-.268.757A19.057,19.057,0,0,1,28.85,36.94a19.949,19.949,0,0,1-15.128.96Q13.337,37.771,12.956,37.628Z" transform="translate(14.683 14.146)" fill="url(#a)"/></g></g><g transform="translate(101.738 0)"><path d="M.618,4.166A.719.719,0,0,1,.153,3.55C.083,2.613.031,1.659,0,.714A.7.7,0,0,1,.691,0c.957-.021.7.933.887,3.468a.694.694,0,0,1-.661.743A.748.748,0,0,1,.618,4.166Z" transform="translate(0 70.257)" fill="#00223d"/><path d="M0,62.138c.175-1.8.425-3.608.743-5.384a.7.7,0,0,1,.828-.558c1.059.206.368.8-.148,6.1a.7.7,0,0,1-.779.621A.718.718,0,0,1,0,62.138ZM2.854,48.191c.545-1.729,1.169-3.468,1.834-5.109a.717.717,0,0,1,1.329.536c-.662,1.636-1.264,3.315-1.8,5.007a.717.717,0,0,1-1.366-.434ZM8.515,35.14c.887-1.569,1.848-3.123,2.859-4.618a.716.716,0,0,1,1.194.789c-.991,1.465-1.933,2.988-2.8,4.525A.717.717,0,0,1,8.515,35.14Zm8.353-10.61a.7.7,0,0,1-.076-.992c1.2-1.353,2.467-2.675,3.772-3.932.671-.646,1.679.366,1.008,1.011-1.279,1.231-2.522,2.527-3.7,3.853A.721.721,0,0,1,16.868,24.53ZM27.2,14.865a.691.691,0,0,1,.13-.983c1.458-1.081,2.978-2.118,4.517-3.083a.711.711,0,0,1,.781,1.189c-1.508.945-3,1.961-4.427,3.021A.727.727,0,0,1,27.2,14.865ZM39.742,7.852a.718.718,0,0,1-.4-.358.689.689,0,0,1,.331-.934c1.656-.766,3.362-1.475,5.07-2.11a.728.728,0,0,1,.927.411.69.69,0,0,1-.4.905C43.6,6.387,41.924,7.083,40.3,7.834A.725.725,0,0,1,39.742,7.852ZM53.235,3.211a.721.721,0,0,1-.446-.493.692.692,0,0,1,.518-.846c1.781-.416,3.6-.768,5.415-1.046a.725.725,0,0,1,.825.586.692.692,0,0,1-.584.8c-1.775.272-3.56.618-5.305,1.026A.725.725,0,0,1,53.235,3.211ZM66.983.746a.694.694,0,0,1,.684-.721C69.5-.024,71.365,0,73.2.093a.7.7,0,1,1-.053,1.4c-1.8-.092-3.627-.114-5.425-.067A.722.722,0,0,1,66.983.746Zm45.794,15.264c-4.282-3.269-5.244-3.216-4.657-4.1a.717.717,0,0,1,.988-.2c1.546,1,3.071,2.076,4.535,3.194A.7.7,0,1,1,112.777,16.009ZM81.331,1.68a.7.7,0,0,1,.822-.566c1.812.322,3.636.718,5.422,1.178a.7.7,0,1,1-.342,1.359C85.483,3.2,83.695,2.812,81.92,2.5A.716.716,0,0,1,81.331,1.68Zm19.3,6.869c-4.846-2.342-5.789-2.1-5.4-3.093a.728.728,0,0,1,.924-.39c1.721.675,3.434,1.424,5.09,2.224a.7.7,0,1,1-.615,1.259Z" transform="translate(0.281)" fill="#00223d"/><path d="M2.193,3.218C.551,1.465-.467.871.215.2A.723.723,0,0,1,1.226.211C3,1.956,3.884,2.651,3.2,3.267A.816.816,0,0,1,2.193,3.218Z" transform="translate(119.524 20.622)" fill="#00223d"/><g transform="translate(16.74 70.887)"><path d="M.467,4.165A.716.716,0,0,1,0,3.462C.052,2.538.082,1.6.093.684A.7.7,0,0,1,.817,0a.723.723,0,0,1,.706.721c-.011.939-.044,1.893-.095,2.835a.7.7,0,0,1-.751.654A.751.751,0,0,1,.467,4.165Z" transform="translate(123.628)" fill="#00223d"/><path d="M18.8,51.028c-1.839-.752-3.668-1.59-5.436-2.49a.7.7,0,0,1-.318-.947c.5-.97.905-.06,6.286,2.141a.707.707,0,0,1,.4.919A.728.728,0,0,1,18.8,51.028Zm8.692,2.217c.271-1.054.9-.249,6.585.757a.715.715,0,0,1,.589.817.7.7,0,0,1-.821.567c-1.947-.344-3.91-.775-5.834-1.28A.713.713,0,0,1,27.488,53.244ZM5.024,43.567C3.4,42.439,1.793,41.229.261,39.969a.7.7,0,0,1-.1-.99c.706-.835.9.137,5.673,3.442a.7.7,0,0,1,.183.98A.72.72,0,0,1,5.024,43.567ZM43.25,56.383a.716.716,0,0,1-.467-.685.7.7,0,0,1,.733-.673c1.942.078,3.906.076,5.839-.006a.722.722,0,0,1,.756.671.694.694,0,0,1-.671.733c-1.973.085-3.978.087-5.96.007A.728.728,0,0,1,43.25,56.383Zm15.4-1.059a.721.721,0,0,1-.455-.529.692.692,0,0,1,.563-.818c1.9-.342,3.81-.769,5.675-1.269a.729.729,0,0,1,.885.494.691.691,0,0,1-.49.862c-1.9.51-3.853.945-5.793,1.294A.721.721,0,0,1,58.65,55.323Zm14.741-4.359a.724.724,0,0,1-.406-.382.69.69,0,0,1,.365-.921c1.774-.743,3.537-1.571,5.24-2.459a.729.729,0,0,1,.97.294.69.69,0,0,1-.285.949c-1.738.906-3.537,1.75-5.348,2.51A.726.726,0,0,1,73.392,50.965Zm13.376-7.429a.724.724,0,0,1-.327-.247.691.691,0,0,1,.151-.98c1.561-1.108,3.093-2.3,4.553-3.53a.724.724,0,0,1,1.009.081.692.692,0,0,1-.067.99c-1.49,1.26-3.053,2.473-4.647,3.6A.72.72,0,0,1,86.767,43.535ZM97.912,33.26c-.838-.728.149-.873,3.568-5.43a.716.716,0,0,1,1.155.844c-1.166,1.555-2.416,3.08-3.714,4.53A.722.722,0,0,1,97.912,33.26Zm8.912-12.3c-.979-.53-.057-.88,2.249-6.086a.717.717,0,0,1,1.312.577c-.787,1.776-1.659,3.538-2.594,5.236A.714.714,0,0,1,106.824,20.961ZM112.68,6.984a.71.71,0,0,1-.44-.854c.525-1.838.976-3.712,1.34-5.571a.7.7,0,0,1,.837-.545.715.715,0,0,1,.567.831c-.372,1.9-.832,3.809-1.368,5.683a.706.706,0,0,1-.881.474Z" transform="translate(8.898 12.143)" fill="#00223d"/><path d="M2.084,3.324C.394,1.5-.459.766.252.184.991-.424,1.4.517,3.135,2.387a.693.693,0,0,1-.041.992A.725.725,0,0,1,2.084,3.324Z" transform="translate(0 42.115)" fill="#00223d"/></g><g transform="translate(17.759 16.975)"><path d="M8.881,81.59,19.04,80.332a45.474,45.474,0,0,0,11.016,9.4c.4,9.8-.27,10.511.777,10.859l11.708,3.9a.843.843,0,0,0,.933-.276l6.166-7.96a45.284,45.284,0,0,0,14.433-.921l7.391,7.1a.858.858,0,0,0,.968.155l10.959-5.339a.812.812,0,0,0,.451-.847L82.409,86.4a43.181,43.181,0,0,0,9.4-10.688l10.251-.038a.827.827,0,0,0,.786-.562l3.791-11.451a.83.83,0,0,0-.3-.922L98.147,56.56a43.338,43.338,0,0,0-1.155-14.2c6.8-7.137,7.757-7.143,7.26-8.107C98.574,23.7,98.9,22.8,97.785,22.938L87.626,24.2a45.468,45.468,0,0,0-11.017-9.4c-.4-9.79.271-10.511-.777-10.86C64.134.261,63.854-.544,63.192.313l-6.166,7.96a45.284,45.284,0,0,0-14.434.921c-7.275-6.711-7.37-7.741-8.359-7.26-10.752,5.474-11.565,5.1-11.41,6.185l1.433,10.007a43.175,43.175,0,0,0-9.4,10.688c-9.785.237-10.691-.446-11.037.6-3.547,11.4-4.382,11.7-3.5,12.372l8.192,6.182a43.359,43.359,0,0,0,1.155,14.2c-6.778,7.113-7.759,7.138-7.26,8.107C8.091,80.829,7.768,81.728,8.881,81.59Z" fill="#3c4973"/><path d="M.026,10.841A11.734,11.734,0,0,1,12.79.039,12.1,12.1,0,0,1,23.973,12.75a11.735,11.735,0,0,1-12.763,10.8h0A12.093,12.093,0,0,1,.026,10.841ZM11.28,22.5l.007,0ZM12.649,2.14A9.626,9.626,0,0,0,2.166,11.011a9.932,9.932,0,0,0,9.185,10.44A9.638,9.638,0,0,0,21.834,12.58,9.932,9.932,0,0,0,12.649,2.14Z" transform="translate(41.333 40.468)" fill="url(#a)"/><path d="M20.1,58.387h0A31.753,31.753,0,0,1,15.309,56.1a1.058,1.058,0,0,1-.469-1.282,1,1,0,0,1,.079-.164,1.075,1.075,0,0,1,1.465-.361,29.676,29.676,0,0,0,5.569,2.519h0C36.6,61.691,52.335,54.322,57.618,40.337q.2-.536.384-1.085c4.892-14.775-3.423-30.706-18.413-35.7C24.619-1.439,8.426,6.375,3.541,21.11c-2.9,8.771-.366,14.658-.707,15.561a1.08,1.08,0,0,1-2.051-.158A29.649,29.649,0,0,1,1.913,19.264C11.166-5.23,46.024-6.722,58.171,16.833a29.676,29.676,0,0,1,1.871,23.1q-.2.593-.416,1.176A29.571,29.571,0,0,1,44.767,57.319a30.955,30.955,0,0,1-23.474,1.49Q20.694,58.61,20.1,58.387Z" transform="translate(22.784 21.951)" fill="url(#a)"/></g></g></g><g transform="translate(474.617 2126.901)"><g transform="translate(91.89 153.368)"><g transform="translate(0 11.534)"><path d="M592.97,253.118l-1.192-.36c-5.569,2.3-9.25,7.8-11.17,13.508s-2.393,11.793-3.516,17.714-3.04,11.955-7.228,16.288a66.861,66.861,0,0,0,8.653,6.315,6.9,6.9,0,0,0,3.227,1.255c1.855.072,3.45-1.258,4.718-2.613,6.262-6.694,7.034-18.749,7.694-27.891S595.53,261.919,592.97,253.118Z" transform="translate(-569.865 -252.758)" fill="#167377"/></g><g transform="translate(5.849 15.346)" opacity="0.2"><path d="M588.347,256.472S574.726,304.1,575.605,304.69s3.574,2.268,3.574,2.268l12.418-49.83Z" transform="translate(-575.564 -256.472)"/></g><g transform="translate(16.644)"><path d="M597,245.181a4.1,4.1,0,0,0-3.669-3.633,5.858,5.858,0,0,0-4.94,2.189,10.533,10.533,0,0,0-2.145,5.127c-.431,2.592-.079,5.661,2.071,7.172a5.222,5.222,0,0,0,5.685-.075,7.679,7.679,0,0,0,3.16-4.951,14.9,14.9,0,0,0-.194-5.988" transform="translate(-586.082 -241.52)" fill="#167377"/></g><g transform="translate(22.098 0.338)"><path d="M592.335,253.055a3.963,3.963,0,0,1-.67-1.652,10.264,10.264,0,0,1,1.624-8.273c.658-.9,1.206-1.319,1.246-1.277a11.7,11.7,0,0,1-.93,1.485,11.858,11.858,0,0,0-1.569,7.991A11.567,11.567,0,0,1,592.335,253.055Z" transform="translate(-591.396 -241.849)" fill="#263238"/></g><g transform="translate(17.469 13.095)"><path d="M590.457,257.129c.017.065-.259.219-.759.238a2.764,2.764,0,0,1-2.786-2.3c-.076-.494.024-.794.089-.79.147-.02.193,1.2,1.216,2.044A5.276,5.276,0,0,0,590.457,257.129Z" transform="translate(-586.885 -254.279)" fill="#263238"/></g></g><g transform="translate(171.886 103.675)"><path d="M660.329,193.1l10.213,22.06L647.807,202.08Z" transform="translate(-647.807 -193.103)" fill="#ffbe9d"/></g><g transform="translate(0 33.559)"><g transform="translate(0 0.001)"><g transform="translate(0 0)"><path d="M480.334,124.789,511.1,165.284l13.269-3.52,6.677,3.791L542.6,144.313l-6.95-3.648-5.139-13.032Z" transform="translate(-480.334 -124.789)" fill="#fafafa"/></g><path d="M480.334,124.789l50.187,2.687.1.005.037.092,5.149,13.028-.077-.085,6.951,3.646.151.079-.082.151c-1.89,3.478-3.875,7.129-5.9,10.843q-2.88,5.3-5.657,10.4l-.084.156-.153-.087-6.677-3.793.127.016-13.271,3.511-.1.028-.064-.084-30.64-40.591,30.9,40.4-.167-.056,13.267-3.529.068-.017.059.034,6.678,3.788-.238.069,5.654-10.4c2.021-3.713,4.007-7.364,5.9-10.842l.069.23-6.947-3.651-.054-.029-.022-.056c-1.782-4.525-3.5-8.894-5.131-13.036l.137.1Z" transform="translate(-480.334 -124.789)" fill="#263238"/></g><g transform="translate(25.979 10.945)"><path d="M516.593,136.3a7.247,7.247,0,0,1,2.974,9.921A7.51,7.51,0,0,1,509.52,149.3a7.248,7.248,0,0,1-2.974-9.921A7.51,7.51,0,0,1,516.593,136.3Z" transform="translate(-505.646 -135.452)" fill="#12263f"/></g><path d="M480.334,124.789c.044-.084,7.58,3.62,16.827,8.273s16.713,8.5,16.669,8.581-7.577-3.619-16.829-8.274S480.29,124.874,480.334,124.789Z" transform="translate(-480.334 -124.788)" fill="#263238"/><g transform="translate(57.155 22.78)"><path d="M719.326,248.21h0a11.972,11.972,0,0,1-15.957,4.948L536.021,167.713l11.275-20.73,167.231,85.384A11.552,11.552,0,0,1,719.326,248.21Z" transform="translate(-536.021 -146.983)" fill="#12263f"/></g><g transform="translate(48.723 17.187)"><path d="M549.545,145.985l-13.259,24.379-8.481-4.452,13.258-24.379Z" transform="translate(-527.806 -141.533)" fill="#727997"/></g><g transform="translate(58.105 23.63)" opacity="0.3"><path d="M536.947,168.542l11.274-20.73,3.162,1.637-13.309,19.677Z" transform="translate(-536.947 -147.811)"/></g><g transform="translate(52.356 28.752)" opacity="0.5"><path d="M531.346,158.935,543.6,155.9l1.979-3.1-12.6,3.119Z" transform="translate(-531.346 -152.801)" fill="#fff"/></g></g><g transform="translate(172.753 110.379)" opacity="0.2"><path d="M648.652,199.635a24.858,24.858,0,0,1,.619,26.3Z" transform="translate(-648.652 -199.635)"/></g><g transform="translate(141.781 371.106)"><path d="M618.483,454.506c.1.2,1.1-.126,2.347-.068,1.248.033,2.225.43,2.336.239.124-.162-.839-.958-2.308-1.006S618.37,454.334,618.483,454.506Z" transform="translate(-618.475 -453.668)" fill="#263238"/></g><g transform="translate(138.997 352.537)"><path d="M615.8,437.951c.182.125.892-.656,2-1.224,1.1-.592,2.145-.733,2.146-.953.028-.2-1.2-.415-2.5.274S615.615,437.859,615.8,437.951Z" transform="translate(-615.763 -435.576)" fill="#263238"/></g><g transform="translate(92.548 148.746)"><g transform="translate(26.342 204.985)"><g transform="translate(0.023)"><path d="M618.2,437.274l1.323,23.216s-23.153,9.142-23.327,13.456L641.3,473l-.577-36.258Z" transform="translate(-596.193 -436.739)" fill="#f9c869"/></g><g transform="translate(35.086 21.435)"><path d="M632.527,457.692a1.843,1.843,0,0,1,1.318,2.075,1.77,1.77,0,0,1-2.045,1.324,1.942,1.942,0,0,1-1.385-2.2,1.837,1.837,0,0,1,2.281-1.141" transform="translate(-630.356 -457.624)" fill="#e0e0e0"/></g><g transform="translate(0 32.592)"><path d="M641.365,473.327v-4.833l-43.438,2.29s-1.99.915-1.733,2.326Z" transform="translate(-596.171 -468.494)" fill="#263238"/></g><g transform="translate(22.612 23.318)"><path d="M618.2,459.677c.012.221,1.116.3,2.214.983,1.117.656,1.7,1.6,1.9,1.507.2-.047-.154-1.357-1.5-2.164S618.153,459.476,618.2,459.677Z" transform="translate(-618.203 -459.458)" fill="#263238"/></g><g transform="translate(17.923 25.498)"><path d="M613.635,461.678c-.046.214.915.569,1.683,1.485.794.893,1,1.9,1.223,1.882.208.03.334-1.263-.642-2.384S613.635,461.467,613.635,461.678Z" transform="translate(-613.634 -461.583)" fill="#263238"/></g><g transform="translate(13.516 27.546)"><path d="M611.18,467.344c.2.043.484-1.064-.107-2.259s-1.631-1.652-1.72-1.467c-.121.184.561.817,1.031,1.8C610.879,466.4,610.961,467.326,611.18,467.344Z" transform="translate(-609.339 -463.578)" fill="#263238"/></g></g><g transform="translate(32.696)"><path d="M648.972,237.017s10.3,17.713,11.719,33.558c1.282,14.345-7.784,30.769-7.784,30.769l-15.664,58.975,4.618,100.846-25.048,1.285-14.45-115.606,4.371-107.614Z" transform="translate(-602.362 -237.017)" fill="#d2e1f1"/></g><g transform="translate(35.731 179.603)"><g transform="translate(0.159)"><path d="M606.529,423.663l12.682,19.492s-15.553,19.436-13.56,23.266l38.676-23.23-18.513-31.181Z" transform="translate(-605.474 -412.009)" fill="#f9c869"/></g><g transform="translate(23.58 22.227)"><path d="M629.563,433.726a1.842,1.842,0,0,1,2.175,1.146,1.772,1.772,0,0,1-1.118,2.166,1.944,1.944,0,0,1-2.3-1.227,1.836,1.836,0,0,1,1.412-2.123" transform="translate(-628.293 -433.665)" fill="#e0e0e0"/></g><g transform="translate(0 28.112)"><path d="M644.331,442.469l-1.989-3.07L606,462.82s-1.272,1.784-.349,2.879Z" transform="translate(-605.319 -439.399)" fill="#263238"/></g><g transform="translate(13.137 30.311)"><path d="M618.132,442.557c.12.185,1.116-.3,2.41-.247,1.3.014,2.265.545,2.395.366.152-.142-.808-1.1-2.376-1.133S617.988,442.408,618.132,442.557Z" transform="translate(-618.119 -441.541)" fill="#263238"/></g><g transform="translate(10.096 34.972)"><path d="M615.162,446.551c.067.209,1.078.039,2.2.453,1.133.381,1.813,1.146,2,1.025.2-.076-.339-1.261-1.743-1.749S615.058,446.369,615.162,446.551Z" transform="translate(-615.156 -446.083)" fill="#263238"/></g><g transform="translate(7.278 39.195)"><path d="M615.846,452.682c.2-.063-.108-1.164-1.214-1.907s-2.236-.624-2.222-.419c-.013.22.894.43,1.792,1.054C615.116,452.013,615.648,452.776,615.846,452.682Z" transform="translate(-612.41 -450.198)" fill="#263238"/></g></g><g transform="translate(0 2.213)"><path d="M595.36,244.033s-30.482,109.643-23.932,121.922S611.6,446.568,611.6,446.568l28.241-15.553-32.267-75.38L632.1,301.677s11.752-10.233,16.294-24.559-3.3-37.945-3.3-37.945H596.046Z" transform="translate(-570.505 -239.173)" fill="#d2e1f1"/></g><g transform="translate(36.738 24.981)"><path d="M648.868,261.357s.084.285.193.849.261,1.4.411,2.505a61.864,61.864,0,0,1,.6,9.65,38.828,38.828,0,0,1-.764,6.893,21.708,21.708,0,0,1-1.141,3.789,25.324,25.324,0,0,1-1.974,3.775,31.535,31.535,0,0,1-14.957,12.509l.147-.132L606.9,355.174l0-.243c.444,1.038.924,2.156,1.4,3.28l30.781,72.135.076.179-.168.092-20.715,11.3-5.643,3.043-1.475.777c-.334.172-.512.247-.512.247s.159-.111.483-.3l1.445-.83,5.588-3.142,20.622-11.466-.093.27c-7.908-18.419-18.851-43.9-30.945-72.066-.48-1.124-.96-2.243-1.4-3.28l-.052-.122.055-.121c9.122-20.018,17.568-38.552,24.577-53.935l.042-.091.106-.041A31.22,31.22,0,0,0,645.855,288.6a24.9,24.9,0,0,0,1.966-3.7,21.373,21.373,0,0,0,1.152-3.721,39.023,39.023,0,0,0,.816-6.826,66.05,66.05,0,0,0-.465-9.622c-.126-1.1-.255-1.945-.337-2.513S648.868,261.357,648.868,261.357Z" transform="translate(-606.3 -261.357)" fill="#455a64"/></g><g transform="translate(37.021 24.697)"><g transform="translate(0.036)"><path d="M606.621,263.18a3.842,3.842,0,0,1,.569-.063l1.717-.128,6.57-.439,23.465-1.452.282-.017v.284c.01,6.906.021,14.665.033,22.895v.138l-.106.09-3.53,3.02-12.03,10.276-.147.125-.172-.086-15.636-7.813-.135-.067-.005-.147c-.286-8.025-.523-14.691-.692-19.4-.069-2.275-.123-4.077-.162-5.359-.012-.579-.022-1.039-.03-1.393a2.7,2.7,0,0,1,.008-.46,3.734,3.734,0,0,1,.049.51c.023.365.052.841.09,1.438.07,1.294.168,3.113.294,5.409.229,4.672.553,11.281.943,19.237l-.139-.213,15.672,7.741-.318.039,12.017-10.291,3.531-3.018-.1.229c.011-8.23.023-15.989.033-22.895l.282.268-23.308,1.174-6.636.3-1.774.068A5.176,5.176,0,0,1,606.621,263.18Z" transform="translate(-606.611 -261.08)" fill="#455a64"/></g><g transform="translate(0 4.549)"><path d="M638.86,265.537a5.249,5.249,0,0,1-1.249.263c-.81.131-1.985.293-3.439.469-2.91.354-6.941.748-11.406,1.026s-8.516.383-11.447.391c-1.465,0-2.651-.01-3.47-.041a5.248,5.248,0,0,1-1.273-.106,5.2,5.2,0,0,1,1.27-.129l3.464-.151c2.924-.116,6.963-.29,11.419-.565s8.483-.6,11.4-.849l3.456-.279A5.244,5.244,0,0,1,638.86,265.537Z" transform="translate(-606.576 -265.512)" fill="#455a64"/></g></g></g><g transform="translate(91.102 65.349)"><g transform="translate(23.667)"><path d="M595.538,190.416a40.794,40.794,0,0,0-3.2,19.612c.46,4.3,2.992,15.249,2.992,15.249l-.345,20.954s55.586-4.164,55.541-4.277.6-26.388.1-44.864-8.626-37.486-8.626-37.486-7.395-4.272-12.944-3.807-28.806,3.07-28.806,3.07Z" transform="translate(-592.156 -155.762)" fill="#f9c869"/></g><g transform="translate(0 3.803)"><path d="M599.964,159.473s-9.281,1.342-17.895,14.862c-8.9,13.961-12.972,19.739-12.972,19.739l25.348,16.559s13.971-21.061,15.718-25.58S613.859,159.05,599.964,159.473Z" transform="translate(-569.097 -159.467)" fill="#f9c869"/></g><g transform="translate(68.025 2.391)"><path d="M635.376,158.091s8.023,3.172,11.337,8.278c2.157,3.322,15.427,26.624,15.427,26.624l-15.25,10.62-11.514-32.345Z" transform="translate(-635.376 -158.091)" fill="#f9c869"/></g><g transform="translate(22.949 30.518)" opacity="0.2"><path d="M591.9,212.9l2.935,1.324s13.857-18.369,14.406-28.728l-15.222,23.585-2.558-1.353Z" transform="translate(-591.457 -185.496)"/></g><g transform="translate(80.031 18.671)"><path d="M647.084,173.953a1.91,1.91,0,0,1,.116.517c.062.4.137.9.228,1.5.186,1.3.429,3.192.685,5.532.522,4.678,1.086,11.161,1.451,18.334s.5,13.679.53,18.385c.011,2.353.007,4.257-.017,5.573-.015.608-.028,1.107-.038,1.516a2.017,2.017,0,0,1-.05.529,1.978,1.978,0,0,1-.057-.529c-.017-.407-.038-.907-.062-1.514-.038-1.395-.089-3.278-.152-5.569-.131-4.7-.309-11.2-.686-18.363s-.868-13.641-1.293-18.323c-.213-2.282-.386-4.157-.515-5.546-.051-.6-.095-1.1-.128-1.51A2.076,2.076,0,0,1,647.084,173.953Z" transform="translate(-647.073 -173.953)" fill="#263238"/></g></g><g transform="translate(99.929)"><path d="M644.867,134.064c-1.164-5.918-3.6-11.5-5.461-17.232-2.166-6.679-3.848-14.083-9.236-18.585-3.556-2.972-8.226-4.2-12.768-5.121-4.115-.835-8.379-1.488-12.49-.633-2.054.427-4.014,1.22-6.053,1.714-2.366.573-4.856.749-7.066,1.765-4.568,2.1-6.9,7.317-7.585,12.3s-.121,10.073-.833,15.049a69.546,69.546,0,0,1-1.561,7.065c-2.106,4.549-4.413,9.093-4.084,13.96.238,3.521,1.856,6.789,2.634,10.232s.461,7.579-2.322,9.75a5.28,5.28,0,0,0,6.476.343,5.225,5.225,0,0,0,2.026-3.7,3.622,3.622,0,0,0,1.4,1.156,8.9,8.9,0,0,0,4.544.359c4.425-.424,9.019-.942,12.871-3.08l21.666-1.849c5.591,2.262,12.337-.875,15.551-5.98S646.03,139.981,644.867,134.064Z" transform="translate(-577.697 -92.09)" fill="#263238"/><g transform="translate(5.463 5.022)"><path d="M600.789,96.983c-2.1.42-4.31.109-6.369.689-2.982.841-5.2,3.467-6.336,6.348a30.408,30.408,0,0,0-1.586,9.12q-.292,4.155-.583,8.311a25.911,25.911,0,0,1-.741,5.293c-.546,1.915-2.034,7.009-2.131,9.5a26.825,26.825,0,0,0,6.192,18.777c1.911,2.165,10.812,2.219,13.641,2.791,1.248-1.09,4.365-1.08,5.612-2.171.214-.186-9.053-7.272-8.945-7.532a1.924,1.924,0,0,0-.123-1.342,66.249,66.249,0,0,1,2.795-49.331" transform="translate(-583.02 -96.983)" fill="#263238"/></g><g transform="translate(12.059 7.375)"><path d="M625.695,160.346l3.24-50.92h0a4.265,4.265,0,0,0-3.806-4.333l-22.616-5.769c-7.245-.783-12.083,8.13-12.557,15.4-.527,8.078-.852,17.963.092,23.994,1.9,12.127,11.186,13.69,11.186,13.69,0-.062.766,8.138.766,8.138s5.88-1.039,10.227-1.506C621.866,158.006,625.695,160.346,625.695,160.346Z" transform="translate(-589.447 -99.275)" fill="#ffbe9d"/></g><g transform="translate(15.371 30.475)"><path d="M592.675,123.184a1.556,1.556,0,0,0,1.5,1.572,1.487,1.487,0,0,0,1.605-1.4,1.555,1.555,0,0,0-1.493-1.572A1.489,1.489,0,0,0,592.675,123.184Z" transform="translate(-592.674 -121.782)" fill="#263238"/></g><g transform="translate(15.372 26.692)"><path d="M592.7,119.724c.192.2,1.372-.665,3.045-.657,1.672-.016,2.9.847,3.079.642.089-.09-.106-.457-.64-.847a4.265,4.265,0,0,0-2.464-.766,4.1,4.1,0,0,0-2.425.776C592.779,119.267,592.6,119.633,592.7,119.724Z" transform="translate(-592.674 -118.097)" fill="#263238"/></g><g transform="translate(30.738 30.679)"><path d="M607.647,123.383a1.556,1.556,0,0,0,1.5,1.572,1.488,1.488,0,0,0,1.606-1.4,1.555,1.555,0,0,0-1.494-1.572A1.488,1.488,0,0,0,607.647,123.383Z" transform="translate(-607.646 -121.981)" fill="#263238"/></g><g transform="translate(31.816 26.691)"><path d="M608.721,119.724c.193.2,1.374-.665,3.046-.657,1.671-.016,2.9.847,3.079.643.089-.09-.1-.457-.64-.847a4.271,4.271,0,0,0-2.464-.767,4.106,4.106,0,0,0-2.424.777C608.8,119.267,608.627,119.633,608.721,119.724Z" transform="translate(-608.697 -118.096)" fill="#263238"/></g><g transform="translate(21.481 26.775)"><path d="M602.888,132.116a11.061,11.061,0,0,0-2.717-.5c-.427-.045-.831-.13-.9-.422a2.174,2.174,0,0,1,.287-1.265l1.271-3.25c1.765-4.628,3.044-8.434,2.856-8.5s-1.769,3.625-3.534,8.253q-.637,1.712-1.217,3.27a2.471,2.471,0,0,0-.226,1.676,1.075,1.075,0,0,0,.7.627,2.846,2.846,0,0,0,.725.1A10.859,10.859,0,0,0,602.888,132.116Z" transform="translate(-598.627 -118.177)" fill="#263238"/></g><g transform="translate(23.847 56.213)"><path d="M600.932,151.155a32.7,32.7,0,0,0,16.94-4.3s-4.451,9.223-16.582,8.062Z" transform="translate(-600.932 -146.86)" fill="#eb996e"/></g><g transform="translate(25.873 43.044)"><path d="M608.417,135.232a3.177,3.177,0,0,0-2.193-1.182,3.478,3.478,0,0,0-3.123,1.286l-.083.064a.646.646,0,0,0,0,.718,2.132,2.132,0,0,0,.551.573,7.32,7.32,0,0,0,2.465,1.48,2.337,2.337,0,0,0,2.535-.635A2.013,2.013,0,0,0,608.417,135.232Z" transform="translate(-602.906 -134.028)" fill="#eb996e"/></g><g transform="translate(25.32 41.881)"><path d="M607.71,132.9c-.273-.016-.28,1.8-1.837,3.085s-3.49,1.082-3.505,1.335c-.026.114.431.354,1.247.378a4.523,4.523,0,0,0,2.926-1.012,3.941,3.941,0,0,0,1.424-2.586C608.036,133.336,607.834,132.886,607.71,132.9Z" transform="translate(-602.367 -132.896)" fill="#263238"/></g><g transform="translate(30.809 21.094)"><path d="M607.724,113.889c.163.456,1.834.243,3.8.484,1.968.2,3.549.779,3.811.372.116-.194-.159-.623-.8-1.064a6.651,6.651,0,0,0-5.8-.653C608.017,113.316,607.654,113.673,607.724,113.889Z" transform="translate(-607.716 -112.642)" fill="#263238"/></g><g transform="translate(15.329 21.271)"><path d="M592.675,114.54c.294.381,1.447-.011,2.833-.027,1.386-.064,2.56.262,2.831-.135.118-.193-.066-.574-.578-.935a4.1,4.1,0,0,0-4.562.131C592.708,113.965,592.546,114.355,592.675,114.54Z" transform="translate(-592.632 -112.814)" fill="#263238"/></g><g transform="translate(3.565 4.61)"><path d="M582.741,163.062a3.632,3.632,0,0,1-.242-.715c-.14-.474-.327-1.18-.516-2.1a38.446,38.446,0,0,1-.811-7.914,41.971,41.971,0,0,1,1.7-11.676c1.154-4.287,2.9-8.866,3.686-13.884.75-5.024.55-9.933,1.172-14.356.554-4.418,1.976-8.351,4.123-11.014a12.913,12.913,0,0,1,6.521-4.482,7.306,7.306,0,0,1,2.9-.3,14.959,14.959,0,0,0-2.836.527,13,13,0,0,0-6.253,4.52,22.054,22.054,0,0,0-3.906,10.822c-.586,4.366-.368,9.267-1.127,14.375-.806,5.107-2.573,9.692-3.747,13.943a42.906,42.906,0,0,0-1.806,11.529,42.46,42.46,0,0,0,.615,7.868c.154.922.3,1.633.4,2.115A3.545,3.545,0,0,1,582.741,163.062Z" transform="translate(-581.171 -96.582)" fill="#455a64"/></g><g transform="translate(21.721 1.674)"><path d="M598.861,98.658a2.892,2.892,0,0,1,1.24-1.7,17.259,17.259,0,0,1,13.163-3.008,30.738,30.738,0,0,1,12.627,5.479c3.313,2.295,6.437,5.1,8.116,8.762a29.087,29.087,0,0,1,1.969,8.271c.953,6.987,2.829,13.989,2.761,21.041-.027,2.747.471,7.368,0,10.754-.5,3.617-4.01,8.028-7.571,8.836l-8.028.8s4.346-14.99,4.01-20.39c-.294-4.735-.252-9.926-.786-14.639a1.929,1.929,0,0,0-1.382-1.907l-5.014-2.563a48.731,48.731,0,0,1-4.72-2.636,43.881,43.881,0,0,1-4.738-3.265c-2.169-1.856-4.157-3.337-6.325-5.192a25.2,25.2,0,0,1-3.943-4.707,6.458,6.458,0,0,1-1.078-5.089" transform="translate(-598.861 -93.721)" fill="#263238"/></g><g transform="translate(48.307 30.679)"><path d="M625.11,125.43a3.536,3.536,0,0,1,5.174-3.008c1.227.709,2.167,2.136,2.054,4.874-.3,7.3-7.569,5.494-7.574,5.285C624.761,132.45,624.959,128.45,625.11,125.43Z" transform="translate(-624.764 -121.982)" fill="#ffbe9d"/></g><g transform="translate(50.644 32.881)"><path d="M627.048,129.849c.033-.023.124.093.335.2a1.271,1.271,0,0,0,.95.059,3.149,3.149,0,0,0,1.572-2.764,4.19,4.19,0,0,0-.281-1.836,1.472,1.472,0,0,0-.917-1.016.648.648,0,0,0-.765.318c-.107.2-.067.348-.106.359-.022.017-.152-.129-.08-.428a.808.808,0,0,1,.306-.446.961.961,0,0,1,.711-.157,1.79,1.79,0,0,1,1.282,1.188,4.312,4.312,0,0,1,.357,2.054c-.107,1.469-.918,2.815-1.985,3.077a1.362,1.362,0,0,1-1.156-.241C627.054,130.025,627.023,129.86,627.048,129.849Z" transform="translate(-627.041 -124.126)" fill="#eb996e"/></g><g transform="translate(24.714 4.552)"><path d="M637.829,114.6a25.615,25.615,0,0,0-5.061-3.1,39.164,39.164,0,0,0-6.122-2.043c-2.356-.631-4.993-1.2-7.709-2.039a39.523,39.523,0,0,1-12.819-6.739,34.081,34.081,0,0,1-3.278-2.936,7.306,7.306,0,0,1-1.061-1.216A9.57,9.57,0,0,1,603,97.574c.766.692,1.9,1.664,3.376,2.767a42.179,42.179,0,0,0,12.739,6.5c2.681.832,5.31,1.413,7.674,2.078a36.04,36.04,0,0,1,6.157,2.192,17.5,17.5,0,0,1,3.733,2.351,9.924,9.924,0,0,1,.878.818C637.75,114.48,637.843,114.59,637.829,114.6Z" transform="translate(-601.777 -96.525)" fill="#455a64"/></g><g transform="translate(39.78 13.19)"><path d="M634.329,104.941c2.794,9.027,7.353,17.285,10.154,23.8,1.3,3.017,3.168,6.581,3.767,9.81.658,3.55-.863,7.086-1.7,10.6s-.723,7.836,2.2,9.958a23.354,23.354,0,0,1-13.787,4.975,4.3,4.3,0,0,1-2.691-.586,1.693,1.693,0,0,1-.406-2.434,11.976,11.976,0,0,1-15.186,1.57c-.33-3.9-.58-8.125,1.566-11.391,1.753-2.671,4.921-4.352,6.076-7.33.689-1.777-.221-4.009.081-5.89s1.549-4.389,2.108-4.644h0a9.266,9.266,0,0,0,9.862-6.819l.156-.583Z" transform="translate(-616.456 -104.941)" fill="#263238"/></g><g transform="translate(23.567 5.52)"><path d="M632.967,157.419a4.262,4.262,0,0,1,.381-.737l1.148-2.073a52.766,52.766,0,0,0,3.537-7.934,32.315,32.315,0,0,0,1.833-12.623,22.479,22.479,0,0,0-5.9-14.145c-3.872-4.03-8.794-6.394-13.177-8.424a98.367,98.367,0,0,1-11.611-5.76,27.274,27.274,0,0,1-6.7-5.611,15.991,15.991,0,0,1-1.407-1.921,4.223,4.223,0,0,1-.409-.721c.056-.038.634.954,1.994,2.489a28.6,28.6,0,0,0,6.746,5.4,104.387,104.387,0,0,0,11.618,5.618c4.407,2.011,9.4,4.376,13.385,8.515a22.868,22.868,0,0,1,6.015,14.525,32.116,32.116,0,0,1-1.985,12.8,47.8,47.8,0,0,1-3.735,7.907c-.519.892-.949,1.568-1.249,2.022A4.406,4.406,0,0,1,632.967,157.419Z" transform="translate(-600.66 -97.468)" fill="#455a64"/></g></g><g transform="translate(126.567 71.251)"><path d="M610.338,183.53c-.092-.043.62-1.3,1.155-3.526a16.526,16.526,0,0,0-4.919-16.2c-1.682-1.551-2.973-2.2-2.92-2.288a3.251,3.251,0,0,1,.919.42,13.987,13.987,0,0,1,2.253,1.586,16.019,16.019,0,0,1,5.034,16.579,14.057,14.057,0,0,1-.99,2.572A3.229,3.229,0,0,1,610.338,183.53Z" transform="translate(-603.651 -161.511)" fill="#263238"/></g><g transform="translate(113.069 151.282)"><g transform="translate(0.795)"><path d="M591.275,253.016l23.858.521a2.023,2.023,0,0,1,1.98,2.106c-.487,11.824-2.66,70.513,2.209,71.429,5.416,1.018,11.155-9.312,19.115-5.721s17.4,7.637,21.843,3.145,8-56.539-9.727-85.008l-56.41,3.239Z" transform="translate(-591.275 -239.488)" fill="#167377"/></g><g transform="translate(0.623 6.531)"><path d="M620.668,246.371a4.926,4.926,0,0,1-1.172.028l-3.182-.067c-2.686-.044-6.4-.012-10.481.269s-7.765.769-10.42,1.183l-3.142.507a4.992,4.992,0,0,1-1.165.135,4.915,4.915,0,0,1,1.123-.34c.731-.188,1.8-.42,3.12-.675a90,90,0,0,1,20.977-1.457c1.346.069,2.433.152,3.183.237A4.949,4.949,0,0,1,620.668,246.371Z" transform="translate(-591.107 -245.851)" fill="#263238"/></g><g transform="translate(0 9.8)"><path d="M632.692,252.905a9.939,9.939,0,0,1-1.651-.256c-1.055-.2-2.583-.485-4.475-.812-3.781-.655-9.032-1.41-14.868-1.87s-11.143-.521-14.981-.462c-1.919.029-3.472.069-4.546.106a9.868,9.868,0,0,1-1.672,0,9.96,9.96,0,0,1,1.66-.2c1.071-.1,2.625-.2,4.548-.276a130.678,130.678,0,0,1,29.927,2.338c1.887.375,3.407.712,4.45.98A10.05,10.05,0,0,1,632.692,252.905Z" transform="translate(-590.5 -249.036)" fill="#263238"/></g><g transform="translate(50.734 34.61)"><path d="M640.777,273.209a8.376,8.376,0,0,1-.013,1.528c-.046,1.08-.1,2.476-.176,4.153-.132,3.505-.218,8.351-.049,13.7s.571,10.18.928,13.67c.177,1.67.326,3.059.44,4.133a8.316,8.316,0,0,1,.112,1.524,8.285,8.285,0,0,1-.317-1.5c-.174-.968-.385-2.375-.611-4.119-.455-3.485-.911-8.329-1.086-13.7s-.025-10.227.205-13.735c.114-1.755.234-3.172.346-4.15A8.3,8.3,0,0,1,640.777,273.209Z" transform="translate(-639.931 -273.209)" fill="#263238"/></g><g transform="translate(55.423 23.593)"><path d="M648.376,309.515c-.147.012-1.13-10.509-2.2-23.5s-1.809-23.531-1.662-23.544,1.129,10.507,2.2,23.5S648.522,309.5,648.376,309.515Z" transform="translate(-644.5 -262.475)" fill="#263238"/></g></g><g transform="translate(66.746 82.098)"><g transform="translate(7.458 7.523)"><path d="M572.332,195.329l-2.059,2.737-.742-13.934-14.047-4.722s-3.3,35.023-2.8,40.456c.549,5.934.669,6.229,2.175,8.935,1.926,3.463,8.63,5.88,12.461,4.866,3.9-1.034,7.938-6.233,11-9.35,5.569-5.664,14.159-16.429,14.159-16.429Z" transform="translate(-552.632 -179.41)" fill="#ffbe9d"/></g><g transform="translate(17.127 23.44)"><path d="M572.084,194.92a17.149,17.149,0,0,1-1.537,2.34c-.982,1.416-2.315,3.387-3.7,5.621s-2.551,4.309-3.38,5.819a17.149,17.149,0,0,1-1.408,2.418,12.683,12.683,0,0,1,1.072-2.591,66.257,66.257,0,0,1,7.11-11.492A12.654,12.654,0,0,1,572.084,194.92Z" transform="translate(-562.053 -194.918)" fill="#eb996e"/></g><path d="M555.589,181.389l-5.473-3.085c-2.2-1.746-4.219-3.464-4.75-6.224h0s15.965,7.133,17.24,7.789,7.293,3.082,7.114,5.573Z" transform="translate(-545.366 -172.08)" fill="#ffbe9d"/></g><g transform="translate(114.396 157.166)" opacity="0.2"><path d="M611.557,245.3c5.9-.141,11.813-.106,17.708.267,1.19.076,2.749.545,2.7,1.736a1.593,1.593,0,0,1-1.178,1.339,4.663,4.663,0,0,1-1.886.063l-15.731-1.62A47.16,47.16,0,0,0,592,248.631l-.207-1.293S608.227,245.376,611.557,245.3Z" transform="translate(-591.793 -245.221)"/></g></g><g transform="matrix(0.799, -0.602, 0.602, 0.799, 501.565, 2014.739)"><g transform="translate(0)"><g transform="translate(19.773)"><g transform="translate(0.048 0.256)"><path d="M515.532,134.521l17.43,18.145a3.035,3.035,0,0,0,4.287.137L606.6,86.176a3.032,3.032,0,0,0,.036-4.289l-17.43-18.145a3.033,3.033,0,0,0-4.286-.137l-69.357,66.626A3.033,3.033,0,0,0,515.532,134.521Z" transform="translate(-514.662 -62.785)" fill="#f5f5f5"/></g><path d="M515.548,134.608a2.292,2.292,0,0,1-.434-.519,3.06,3.06,0,0,1,0-3.313,9.885,9.885,0,0,1,1.22-1.29q1.375-1.334,3.157-3.066l20.166-19.489,29.955-28.855,8.664-8.335,4.476-4.3c.771-.725,1.469-1.451,2.311-2.185a3.284,3.284,0,0,1,3.277-.354,4,4,0,0,1,1.338,1.029l1.114,1.159,2.242,2.331,4.538,4.721,9.268,9.648a3.359,3.359,0,0,1,.768,3.4,3.47,3.47,0,0,1-1.017,1.468l-1.208,1.161q-2.415,2.317-4.794,4.6-4.763,4.569-9.375,9l-17.728,17.007c-11.3,10.828-21.484,20.581-30.037,28.776q-3.21,3.069-6.107,5.837a3.181,3.181,0,0,1-3.8.366,7.461,7.461,0,0,1-1.387-1.281l-1.24-1.3c-3.242-3.4-6.036-6.332-8.324-8.731-2.271-2.393-4.034-4.254-5.247-5.533L516,135.115c-.3-.328-.448-.507-.448-.507s.172.153.487.469l1.393,1.411c1.228,1.263,3.017,3.1,5.318,5.463,2.305,2.384,5.122,5.294,8.39,8.67l1.247,1.29a7.3,7.3,0,0,0,1.33,1.222,2.854,2.854,0,0,0,3.4-.34l6.078-5.861c8.531-8.218,18.685-18,29.958-28.858l17.706-17.029,9.368-9.006,4.793-4.606,1.208-1.161a2.9,2.9,0,0,0,.882-1.258,2.824,2.824,0,0,0-.648-2.861L597.2,72.5q-2.286-2.379-4.536-4.723-1.124-1.172-2.24-2.334l-1.114-1.159a3.463,3.463,0,0,0-1.173-.915,2.763,2.763,0,0,0-2.756.293c-.745.651-1.515,1.436-2.266,2.141l-4.48,4.3q-4.434,4.252-8.676,8.321L539.921,107.2l-20.283,19.368-3.19,3.031a9.994,9.994,0,0,0-1.219,1.249,2.962,2.962,0,0,0-.483,1.332,3.088,3.088,0,0,0,.413,1.879C515.39,134.439,515.562,134.6,515.548,134.608Z" transform="translate(-514.63 -62.616)" fill="#263238"/></g><g transform="translate(78.735 3.525)"><rect width="17.576" height="25.628" transform="matrix(0.717, -0.697, 0.697, 0.717, 0, 12.257)" fill="#e8505b"/></g><g transform="translate(37.707 43.445)"><rect width="17.576" height="25.628" transform="translate(0 12.257) rotate(-44.216)" fill="#e8505b"/></g><g transform="translate(51.399 30.123)"><rect width="17.576" height="25.628" transform="matrix(0.717, -0.697, 0.697, 0.717, 0, 12.257)" fill="#e8505b"/></g><g transform="translate(65.101 16.791)"><rect width="17.576" height="25.628" transform="matrix(0.717, -0.697, 0.697, 0.717, 0, 12.257)" fill="#e8505b"/></g><g transform="translate(78.735 3.525)" opacity="0.8"><rect width="17.576" height="25.628" transform="matrix(0.717, -0.697, 0.697, 0.717, 0, 12.257)" fill="#c9916f"/></g><g transform="translate(37.707 43.445)" opacity="0.5"><rect width="17.576" height="25.628" transform="translate(0 12.257) rotate(-44.216)" fill="#c0626d"/></g><g transform="translate(51.399 30.123)" opacity="0.6"><rect width="17.576" height="25.628" transform="matrix(0.717, -0.697, 0.697, 0.717, 0, 12.257)" fill="#a85b6a"/></g><g transform="translate(65.101 16.791)" opacity="0.7"><rect width="17.576" height="25.628" transform="matrix(0.717, -0.697, 0.697, 0.717, 0, 12.257)" fill="#bc5c7e"/></g><g transform="translate(21.425 18.285)"><g transform="translate(0.04 0.258)"><path d="M516.142,125.18,528.317,147.2a3.013,3.013,0,0,0,4.07,1.255L615.35,102.58a3.013,3.013,0,0,0,1.1-4.114L604.277,76.447a3.011,3.011,0,0,0-4.07-1.254l-82.965,45.872A3.012,3.012,0,0,0,516.142,125.18Z" transform="translate(-515.745 -74.835)" fill="#f5f5f5"/></g><path d="M516.156,125.268a2.346,2.346,0,0,1-.286-.606,3.092,3.092,0,0,1,.014-1.953,2.942,2.942,0,0,1,.8-1.223,8.945,8.945,0,0,1,1.49-.927l3.8-2.128c5.738-3.195,14.014-7.8,24.232-13.495L582.173,84.98l10.4-5.761,5.372-2.975,1.36-.753a7.658,7.658,0,0,1,1.454-.709,3.282,3.282,0,0,1,3.155.832,5.543,5.543,0,0,1,.923,1.369l.769,1.392,1.55,2.8,3.135,5.667,6.4,11.577a3.275,3.275,0,0,1-1.437,4.611l-1.451.8q-2.9,1.6-5.753,3.181L596.8,113.227c-7.376,4.073-14.492,8-21.27,11.743L539.5,144.827c-2.577,1.407-4.979,2.765-7.346,4.016a3.179,3.179,0,0,1-3.645-1c-.712-1.082-1.209-2.141-1.794-3.16-2.234-4.075-4.158-7.587-5.734-10.463l-3.606-6.623c-.4-.75-.709-1.323-.926-1.73-.206-.39-.3-.6-.3-.6s.124.19.346.572c.229.4.551.967.973,1.7.853,1.519,2.094,3.73,3.693,6.574,1.6,2.864,3.548,6.362,5.812,10.42.578.994,1.125,2.116,1.782,3.1a2.852,2.852,0,0,0,3.27.888c2.287-1.226,4.737-2.621,7.292-4.031L575.3,124.542l21.255-11.769,11.246-6.222,5.752-3.182,1.451-.8a2.808,2.808,0,0,0,1.15-.983,2.839,2.839,0,0,0,.079-2.906l-6.4-11.578L606.7,81.429q-.779-1.407-1.548-2.8l-.769-1.392a4.982,4.982,0,0,0-.83-1.249,2.759,2.759,0,0,0-2.651-.706,7.423,7.423,0,0,0-1.345.662l-1.36.751q-2.716,1.5-5.376,2.968L582.41,85.408l-36.027,19.855-24.314,13.348-3.82,2.085a8.892,8.892,0,0,0-1.478.888,2.855,2.855,0,0,0-.784,1.159,3.088,3.088,0,0,0-.064,1.9C516.048,125.066,516.171,125.26,516.156,125.268Z" transform="translate(-515.719 -74.665)" fill="#263238"/></g><g transform="translate(90.071 22.914)"><rect width="17.576" height="25.628" transform="matrix(0.872, -0.489, 0.489, 0.872, 0, 8.596)" fill="#e8505b"/></g><g transform="translate(40.141 50.911)"><rect width="17.576" height="25.628" transform="translate(0 8.596) rotate(-29.28)" fill="#e8505b"/></g><g transform="translate(56.803 41.568)"><rect width="17.576" height="25.628" transform="matrix(0.872, -0.489, 0.489, 0.872, 0, 8.596)" fill="#e8505b"/></g><g transform="translate(73.479 32.218)"><rect width="17.576" height="25.628" transform="translate(0 8.596) rotate(-29.28)" fill="#e8505b"/></g><g transform="translate(90.071 22.914)" opacity="0.5"><rect width="17.576" height="25.628" transform="matrix(0.872, -0.489, 0.489, 0.872, 0, 8.596)" fill="#ffd947"/></g><g transform="translate(40.141 50.911)" opacity="0.2"><rect width="17.576" height="25.628" transform="translate(0 8.596) rotate(-29.28)" fill="#26aab7"/></g><g transform="translate(56.803 41.568)" opacity="0.3"><rect width="17.576" height="25.628" transform="matrix(0.872, -0.489, 0.489, 0.872, 0, 8.596)" fill="#19768e"/></g><g transform="translate(73.479 32.218)" opacity="0.4"><rect width="17.576" height="25.628" transform="translate(0 8.596) rotate(-29.28)" fill="#7d6eb2"/></g><g transform="translate(18.71 43.439)"><g transform="translate(0.025 0.256)"><path d="M514.017,116.4l5.371,24.58a3.086,3.086,0,0,0,3.688,2.334l97.3-21.262a3.087,3.087,0,0,0,2.378-3.661l-5.371-24.58a3.087,3.087,0,0,0-3.688-2.334l-97.3,21.264A3.084,3.084,0,0,0,514.017,116.4Z" transform="translate(-513.946 -91.408)" fill="#f5f5f5"/></g><path d="M514.026,116.491a2.308,2.308,0,0,1-.1-.689,3.051,3.051,0,0,1,.666-1.914,3.233,3.233,0,0,1,1.2-.929,12.252,12.252,0,0,1,1.763-.461l4.412-.988c6.659-1.477,16.266-3.606,28.131-6.234L591.836,96.1,603.9,93.45l6.233-1.364,3.161-.694a3.916,3.916,0,0,1,1.718-.094,3.373,3.373,0,0,1,1.574.771,3.288,3.288,0,0,1,.973,1.471c.159.577.247,1.085.375,1.633q.353,1.616.71,3.248l1.437,6.571q1.448,6.622,2.937,13.428a3.344,3.344,0,0,1-1.233,3.351,3.753,3.753,0,0,1-1.684.7l-1.682.367-6.672,1.457L598.7,127.146c-8.553,1.862-16.8,3.661-24.661,5.372l-41.764,9.069-8.481,1.833c-.338.07-.657.153-1.018.2a3.438,3.438,0,0,1-1.052-.056,3.273,3.273,0,0,1-1.756-1.026,3.535,3.535,0,0,1-.8-1.786l-.388-1.8c-1.014-4.718-1.886-8.787-2.6-12.118-.7-3.314-1.247-5.893-1.624-7.663q-.264-1.3-.408-2c-.089-.451-.121-.684-.121-.684s.067.226.175.672c.108.464.261,1.125.46,1.985.4,1.765.977,4.336,1.721,7.641.741,3.327,1.644,7.388,2.691,12.1q.2.883.4,1.8a3.19,3.19,0,0,0,.739,1.641,2.951,2.951,0,0,0,1.586.917,4.073,4.073,0,0,0,1.929-.155l8.473-1.871,41.74-9.179,24.654-5.4q6.415-1.4,13.043-2.855l6.672-1.458,1.683-.367a3.212,3.212,0,0,0,1.473-.605,2.816,2.816,0,0,0,1.037-2.82q-1.484-6.8-2.932-13.427-.724-3.312-1.436-6.574-.355-1.63-.709-3.246c-.12-.527-.226-1.1-.359-1.586a2.774,2.774,0,0,0-.818-1.24A2.957,2.957,0,0,0,613.4,91.9l-3.163.689-6.233,1.358q-6.169,1.345-12.068,2.629l-41.761,9.068-28.167,6.069-4.422.942a12.486,12.486,0,0,0-1.744.428,3.124,3.124,0,0,0-1.167.874,3.038,3.038,0,0,0-.7,1.847C513.977,116.257,514.044,116.488,514.026,116.491Z" transform="translate(-513.93 -91.239)" fill="#263238"/></g><g transform="translate(0 68.663)"><path d="M520.2,107.987c0,.094-1.225.024-3.362.414a18.031,18.031,0,0,0-8.156,3.876,17.385,17.385,0,0,0-6.033,11.621,17.062,17.062,0,0,0,31.8,9.915,17.6,17.6,0,0,0,2.368-8.71c-.015-.536-.03-1.017-.043-1.443s-.085-.766-.108-1.053a2.885,2.885,0,0,1-.039-.886,2.722,2.722,0,0,1,.25.85c.058.285.156.634.211,1.058s.09.921.141,1.466a17.2,17.2,0,0,1-2.128,9.086,17.621,17.621,0,0,1-10.757,8.556,17.764,17.764,0,0,1-16.318-3.489,17.972,17.972,0,0,1-6.351-15.439,17.921,17.921,0,0,1,6.527-12.109,17.585,17.585,0,0,1,8.567-3.7,14.643,14.643,0,0,1,2.547-.123A2.4,2.4,0,0,1,520.2,107.987Z" transform="translate(-501.601 -107.86)" fill="#263238"/></g><g transform="translate(30.289 75.645)"><path d="M529.136,115.475a3.832,3.832,0,1,1-4.562-2.926A3.83,3.83,0,0,1,529.136,115.475Z" transform="translate(-521.559 -112.46)" fill="#263238"/></g><g transform="translate(102.02 47.053)"><rect width="17.576" height="25.628" transform="matrix(0.977, -0.213, 0.213, 0.977, 0, 3.753)" fill="#ffd947"/></g><g transform="translate(83.436 51.114)"><rect width="17.576" height="25.628" transform="translate(0 3.752) rotate(-12.327)" fill="#7d6eb2"/></g><g transform="translate(64.758 55.196)"><rect width="17.576" height="25.628" transform="translate(0 3.752) rotate(-12.327)" fill="#167377"/></g><g transform="translate(46.096 59.274)"><rect width="17.576" height="25.628" transform="matrix(0.977, -0.213, 0.213, 0.977, 0, 3.752)" fill="#26aab7"/></g></g></g><g transform="translate(241.523 2080.076)"><g transform="translate(0 41.275)"><g transform="translate(0.368 0.368)"><rect width="205.095" height="137.324" fill="#fff"/></g><path d="M490.133,211.124s-.021-.859-.032-2.5-.018-4.076-.032-7.245c-.018-6.356-.042-15.68-.076-27.619-.036-23.857-.09-58.153-.153-99.962l.293.294-205.078.073h-.017l.367-.367c-.011,48.923-.021,95.444-.03,137.323l-.337-.335,147.758.165c18.09.038,32.4.07,42.213.09l11.229.041q1.9.014,2.9.021c.654.006,1,.02,1,.02s-.315.012-.956.02l-2.861.02-11.161.041c-9.792.02-24.08.052-42.139.09l-147.978.165-.337,0v-.338c-.009-41.879-.02-88.4-.03-137.323v-.367h.384l205.078.074h.294V73.8c-.065,41.887-.118,76.243-.155,100.146-.032,11.909-.058,21.212-.074,27.551-.015,3.146-.026,5.553-.033,7.191C490.154,210.308,490.133,211.124,490.133,211.124Z" transform="translate(-284.671 -73.432)" fill="#e0e0e0"/><g transform="translate(0.367 12.255)"><path d="M284.913,81.874c0-.2,45.878-.367,102.459-.367,56.6,0,102.466.164,102.466.367s-45.867.367-102.466.367C330.791,82.242,284.913,82.078,284.913,81.874Z" transform="translate(-284.913 -81.507)" fill="#e0e0e0"/></g><g transform="translate(5.172 4.797)"><g opacity="0.3"><path d="M291.366,78.237a1.644,1.644,0,1,1-1.644-1.644A1.644,1.644,0,0,1,291.366,78.237Z" transform="translate(-288.079 -76.593)" fill="#e0e0e0"/></g><g transform="translate(5.632)" opacity="0.3"><path d="M295.077,78.237a1.644,1.644,0,1,1-1.644-1.644A1.644,1.644,0,0,1,295.077,78.237Z" transform="translate(-291.79 -76.593)" fill="#e0e0e0"/></g><g transform="translate(11.183)" opacity="0.3"><path d="M298.735,78.237a1.644,1.644,0,1,1-1.644-1.644A1.644,1.644,0,0,1,298.735,78.237Z" transform="translate(-295.448 -76.593)" fill="#e0e0e0"/></g></g><g transform="translate(18 26.943)"><rect width="54.708" height="54.709" fill="#e0e0e0"/></g><g transform="translate(82.028 42.039)"><path d="M434.03,101.5c0,.2-21.338.367-47.652.367s-47.657-.165-47.657-.367,21.333-.369,47.657-.369S434.03,101.3,434.03,101.5Z" transform="translate(-338.721 -101.132)" fill="#e0e0e0"/></g><g transform="translate(82.028 52.205)"><path d="M434.03,108.2c0,.2-21.338.367-47.652.367s-47.657-.165-47.657-.367,21.333-.369,47.657-.369S434.03,108,434.03,108.2Z" transform="translate(-338.721 -107.831)" fill="#e0e0e0"/></g><g transform="translate(82.028 62.372)"><path d="M434.03,114.9c0,.2-21.338.367-47.652.367s-47.657-.165-47.657-.367,21.333-.369,47.657-.369S434.03,114.7,434.03,114.9Z" transform="translate(-338.721 -114.53)" fill="#e0e0e0"/></g><g transform="translate(82.028 72.538)"><path d="M395.049,121.6a12.6,12.6,0,0,1-2.213.144c-1.557.03-3.588.068-6.036.117-5.1.067-12.138.108-19.914.108s-14.82-.041-19.918-.108c-2.448-.049-4.479-.087-6.036-.117a12.6,12.6,0,0,1-2.213-.144,12.923,12.923,0,0,1,2.213-.143l6.036-.117c5.1-.067,12.14-.108,19.918-.108s14.817.041,19.914.108l6.036.117A12.925,12.925,0,0,1,395.049,121.6Z" transform="translate(-338.721 -121.229)" fill="#e0e0e0"/></g><g transform="translate(21.423 100.097)"><rect width="25.711" height="25.711" fill="#e0e0e0"/></g><g transform="translate(68.05 100.097)"><rect width="25.711" height="25.711" fill="#e0e0e0"/></g><g transform="translate(114.677 100.097)"><rect width="25.711" height="25.711" fill="#e0e0e0"/></g><g transform="translate(161.304 100.097)"><rect width="25.711" height="25.711" fill="#e0e0e0"/></g></g><g transform="translate(181.678)"><g transform="translate(2.948 3.563)"><g transform="translate(83.031 84.236)"><path d="M461.036,105.276a4.032,4.032,0,0,1,1.791-.208l.6.012-.2.194c.029-.694.1-1.187.2-1.187s.165.493.194,1.187l.009.193-.2,0-.6.012A4.07,4.07,0,0,1,461.036,105.276Z" transform="translate(-461.036 -104.088)" fill="#e0e0e0"/></g><g transform="translate(78.248 85.217)"><path d="M457.884,104.942c0-.115.536-.208,1.2-.208s1.2.093,1.2.208-.536.206-1.2.206S457.884,105.056,457.884,104.942Z" transform="translate(-457.884 -104.734)" fill="#e0e0e0"/></g><g transform="translate(73.464 85.217)"><path d="M454.732,104.942c0-.115.534-.208,1.2-.208s1.2.093,1.2.208-.536.206-1.2.206S454.732,105.056,454.732,104.942Z" transform="translate(-454.732 -104.734)" fill="#e0e0e0"/></g><g transform="translate(68.679 85.217)"><path d="M451.579,104.942c0-.115.536-.208,1.2-.208s1.2.093,1.2.208-.534.206-1.2.206S451.579,105.056,451.579,104.942Z" transform="translate(-451.579 -104.734)" fill="#e0e0e0"/></g><g transform="translate(63.895 85.217)"><path d="M448.427,104.942c0-.115.536-.208,1.2-.208s1.2.093,1.2.208-.536.206-1.2.206S448.427,105.056,448.427,104.942Z" transform="translate(-448.427 -104.734)" fill="#e0e0e0"/></g><g transform="translate(59.11 85.217)"><path d="M445.274,104.942c0-.115.536-.208,1.2-.208s1.2.093,1.2.208-.536.206-1.2.206S445.274,105.056,445.274,104.942Z" transform="translate(-445.274 -104.734)" fill="#e0e0e0"/></g><g transform="translate(54.327 85.217)"><path d="M442.122,104.942c0-.115.536-.208,1.2-.208s1.2.093,1.2.208-.536.206-1.2.206S442.122,105.056,442.122,104.942Z" transform="translate(-442.122 -104.734)" fill="#e0e0e0"/></g><g transform="translate(49.542 85.217)"><path d="M438.969,104.942c0-.115.536-.208,1.2-.208s1.2.093,1.2.208-.536.206-1.2.206S438.969,105.056,438.969,104.942Z" transform="translate(-438.969 -104.734)" fill="#e0e0e0"/></g><g transform="translate(44.758 85.217)"><path d="M435.817,104.942c0-.115.536-.208,1.2-.208s1.2.093,1.2.208-.534.206-1.2.206S435.817,105.056,435.817,104.942Z" transform="translate(-435.817 -104.734)" fill="#e0e0e0"/></g><g transform="translate(39.974 85.217)"><path d="M432.665,104.942c0-.115.536-.208,1.2-.208s1.2.093,1.2.208-.536.206-1.2.206S432.665,105.056,432.665,104.942Z" transform="translate(-432.665 -104.734)" fill="#e0e0e0"/></g><g transform="translate(35.189 85.217)"><path d="M429.512,104.942c0-.115.536-.208,1.2-.208s1.2.093,1.2.208-.534.206-1.2.206S429.512,105.056,429.512,104.942Z" transform="translate(-429.512 -104.734)" fill="#e0e0e0"/></g><g transform="translate(30.406 85.217)"><path d="M426.36,104.942c0-.115.536-.208,1.2-.208s1.2.093,1.2.208-.536.206-1.2.206S426.36,105.056,426.36,104.942Z" transform="translate(-426.36 -104.734)" fill="#e0e0e0"/></g><g transform="translate(25.621 85.217)"><path d="M423.207,104.942c0-.115.536-.208,1.2-.208s1.2.093,1.2.208-.536.206-1.2.206S423.207,105.056,423.207,104.942Z" transform="translate(-423.207 -104.734)" fill="#e0e0e0"/></g><g transform="translate(20.837 85.217)"><path d="M420.055,104.942c0-.115.536-.208,1.2-.208s1.2.093,1.2.208-.536.206-1.2.206S420.055,105.056,420.055,104.942Z" transform="translate(-420.055 -104.734)" fill="#e0e0e0"/></g><g transform="translate(16.054 85.217)"><path d="M416.9,104.942c0-.115.536-.208,1.2-.208s1.2.093,1.2.208-.536.206-1.2.206S416.9,105.056,416.9,104.942Z" transform="translate(-416.903 -104.734)" fill="#e0e0e0"/></g><g transform="translate(11.268 85.217)"><path d="M413.75,104.942c0-.115.536-.208,1.2-.208s1.2.093,1.2.208-.534.206-1.2.206S413.75,105.056,413.75,104.942Z" transform="translate(-413.75 -104.734)" fill="#e0e0e0"/></g><g transform="translate(6.485 85.217)"><path d="M410.6,104.942c0-.115.536-.208,1.2-.208s1.2.093,1.2.208-.536.206-1.2.206S410.6,105.056,410.6,104.942Z" transform="translate(-410.598 -104.734)" fill="#e0e0e0"/></g><g transform="translate(1.7 85.217)"><path d="M407.445,104.942c0-.115.536-.208,1.2-.208s1.2.093,1.2.208-.536.206-1.2.206S407.445,105.056,407.445,104.942Z" transform="translate(-407.445 -104.734)" fill="#e0e0e0"/></g><g transform="translate(0 82.133)"><path d="M406.533,102.7c.114,0,.206.536.206,1.2s-.093,1.2-.206,1.2-.208-.536-.208-1.2S406.418,102.7,406.533,102.7Z" transform="translate(-406.325 -102.702)" fill="#e0e0e0"/></g><g transform="translate(0 77.348)"><path d="M406.533,99.549c.114,0,.206.536.206,1.2s-.093,1.2-.206,1.2-.208-.536-.208-1.2S406.418,99.549,406.533,99.549Z" transform="translate(-406.325 -99.549)" fill="#e0e0e0"/></g><g transform="translate(0 72.564)"><path d="M406.533,96.4c.114,0,.206.536.206,1.2s-.093,1.2-.206,1.2-.208-.536-.208-1.2S406.418,96.4,406.533,96.4Z" transform="translate(-406.325 -96.397)" fill="#e0e0e0"/></g><g transform="translate(0 67.781)"><path d="M406.533,93.245c.114,0,.206.534.206,1.2s-.093,1.2-.206,1.2-.208-.536-.208-1.2S406.418,93.245,406.533,93.245Z" transform="translate(-406.325 -93.245)" fill="#e0e0e0"/></g><g transform="translate(0 62.996)"><path d="M406.533,90.092c.114,0,.206.536.206,1.2s-.093,1.2-.206,1.2-.208-.534-.208-1.2S406.418,90.092,406.533,90.092Z" transform="translate(-406.325 -90.092)" fill="#e0e0e0"/></g><g transform="translate(0 58.212)"><path d="M406.533,86.94c.114,0,.206.536.206,1.2s-.093,1.2-.206,1.2-.208-.536-.208-1.2S406.418,86.94,406.533,86.94Z" transform="translate(-406.325 -86.94)" fill="#e0e0e0"/></g><g transform="translate(0 53.427)"><path d="M406.533,83.787c.114,0,.206.536.206,1.2s-.093,1.2-.206,1.2-.208-.536-.208-1.2S406.418,83.787,406.533,83.787Z" transform="translate(-406.325 -83.787)" fill="#e0e0e0"/></g><g transform="translate(0 48.643)"><path d="M406.533,80.635c.114,0,.206.536.206,1.2s-.093,1.2-.206,1.2-.208-.536-.208-1.2S406.418,80.635,406.533,80.635Z" transform="translate(-406.325 -80.635)" fill="#e0e0e0"/></g><g transform="translate(0 43.86)"><path d="M406.533,77.483c.114,0,.206.534.206,1.2s-.093,1.2-.206,1.2-.208-.536-.208-1.2S406.418,77.483,406.533,77.483Z" transform="translate(-406.325 -77.483)" fill="#e0e0e0"/></g><g transform="translate(0 39.075)"><path d="M406.533,74.33c.114,0,.206.536.206,1.2s-.093,1.2-.206,1.2-.208-.536-.208-1.2S406.418,74.33,406.533,74.33Z" transform="translate(-406.325 -74.33)" fill="#e0e0e0"/></g><g transform="translate(0 34.291)"><path d="M406.533,71.178c.114,0,.206.536.206,1.2s-.093,1.2-.206,1.2-.208-.536-.208-1.2S406.418,71.178,406.533,71.178Z" transform="translate(-406.325 -71.178)" fill="#e0e0e0"/></g><g transform="translate(0 29.506)"><path d="M406.533,68.025c.114,0,.206.536.206,1.2s-.093,1.2-.206,1.2-.208-.534-.208-1.2S406.418,68.025,406.533,68.025Z" transform="translate(-406.325 -68.025)" fill="#e0e0e0"/></g><g transform="translate(0 24.722)"><path d="M406.533,64.873c.114,0,.206.536.206,1.2s-.093,1.2-.206,1.2-.208-.536-.208-1.2S406.418,64.873,406.533,64.873Z" transform="translate(-406.325 -64.873)" fill="#e0e0e0"/></g><g transform="translate(0 19.937)"><path d="M406.533,61.72c.114,0,.206.536.206,1.2s-.093,1.2-.206,1.2-.208-.536-.208-1.2S406.418,61.72,406.533,61.72Z" transform="translate(-406.325 -61.72)" fill="#e0e0e0"/></g><g transform="translate(0 15.154)"><path d="M406.533,58.568c.114,0,.206.536.206,1.2s-.093,1.2-.206,1.2-.208-.536-.208-1.2S406.418,58.568,406.533,58.568Z" transform="translate(-406.325 -58.568)" fill="#e0e0e0"/></g><g transform="translate(0 10.37)"><path d="M406.533,55.416c.114,0,.206.534.206,1.2s-.093,1.2-.206,1.2-.208-.536-.208-1.2S406.418,55.416,406.533,55.416Z" transform="translate(-406.325 -55.416)" fill="#e0e0e0"/></g><g transform="translate(0 5.585)"><path d="M406.533,52.263c.114,0,.206.536.206,1.2s-.093,1.2-.206,1.2-.208-.534-.208-1.2S406.418,52.263,406.533,52.263Z" transform="translate(-406.325 -52.263)" fill="#e0e0e0"/></g><g transform="translate(0 0.801)"><path d="M406.533,49.111c.114,0,.206.536.206,1.2s-.093,1.2-.206,1.2-.208-.536-.208-1.2S406.418,49.111,406.533,49.111Z" transform="translate(-406.325 -49.111)" fill="#e0e0e0"/></g><g transform="translate(2.005)"><path d="M410.039,48.791c0,.114-.536.206-1.2.206s-1.2-.093-1.2-.206.536-.208,1.2-.208S410.039,48.676,410.039,48.791Z" transform="translate(-407.646 -48.583)" fill="#e0e0e0"/></g><g transform="translate(6.79)"><path d="M413.191,48.791c0,.114-.536.206-1.2.206s-1.2-.093-1.2-.206.536-.208,1.2-.208S413.191,48.676,413.191,48.791Z" transform="translate(-410.799 -48.583)" fill="#e0e0e0"/></g><g transform="translate(11.573)"><path d="M416.344,48.791c0,.114-.536.206-1.2.206s-1.2-.093-1.2-.206.536-.208,1.2-.208S416.344,48.676,416.344,48.791Z" transform="translate(-413.951 -48.583)" fill="#e0e0e0"/></g><g transform="translate(16.359)"><path d="M419.5,48.791c0,.114-.536.206-1.2.206s-1.2-.093-1.2-.206.536-.208,1.2-.208S419.5,48.676,419.5,48.791Z" transform="translate(-417.104 -48.583)" fill="#e0e0e0"/></g><g transform="translate(21.142)"><path d="M422.648,48.791c0,.114-.534.206-1.2.206s-1.2-.093-1.2-.206.536-.208,1.2-.208S422.648,48.676,422.648,48.791Z" transform="translate(-420.256 -48.583)" fill="#e0e0e0"/></g><g transform="translate(25.927)"><path d="M425.8,48.791c0,.114-.536.206-1.2.206s-1.2-.093-1.2-.206.534-.208,1.2-.208S425.8,48.676,425.8,48.791Z" transform="translate(-423.409 -48.583)" fill="#e0e0e0"/></g><g transform="translate(30.711)"><path d="M428.953,48.791c0,.114-.536.206-1.2.206s-1.2-.093-1.2-.206.536-.208,1.2-.208S428.953,48.676,428.953,48.791Z" transform="translate(-426.561 -48.583)" fill="#e0e0e0"/></g><g transform="translate(35.494)"><path d="M432.106,48.791c0,.114-.536.206-1.2.206s-1.2-.093-1.2-.206.536-.208,1.2-.208S432.106,48.676,432.106,48.791Z" transform="translate(-429.713 -48.583)" fill="#e0e0e0"/></g><g transform="translate(40.279)"><path d="M435.258,48.791c0,.114-.536.206-1.2.206s-1.2-.093-1.2-.206.536-.208,1.2-.208S435.258,48.676,435.258,48.791Z" transform="translate(-432.866 -48.583)" fill="#e0e0e0"/></g><g transform="translate(45.063)"><path d="M438.41,48.791c0,.114-.534.206-1.2.206s-1.2-.093-1.2-.206.536-.208,1.2-.208S438.41,48.676,438.41,48.791Z" transform="translate(-436.018 -48.583)" fill="#e0e0e0"/></g><g transform="translate(49.848)"><path d="M441.563,48.791c0,.114-.536.206-1.2.206s-1.2-.093-1.2-.206.534-.208,1.2-.208S441.563,48.676,441.563,48.791Z" transform="translate(-439.171 -48.583)" fill="#e0e0e0"/></g><g transform="translate(54.632)"><path d="M444.715,48.791c0,.114-.536.206-1.2.206s-1.2-.093-1.2-.206.536-.208,1.2-.208S444.715,48.676,444.715,48.791Z" transform="translate(-442.323 -48.583)" fill="#e0e0e0"/></g><g transform="translate(59.415)"><path d="M447.868,48.791c0,.114-.536.206-1.2.206s-1.2-.093-1.2-.206.536-.208,1.2-.208S447.868,48.676,447.868,48.791Z" transform="translate(-445.475 -48.583)" fill="#e0e0e0"/></g><g transform="translate(64.2)"><path d="M451.02,48.791c0,.114-.536.206-1.2.206s-1.2-.093-1.2-.206.536-.208,1.2-.208S451.02,48.676,451.02,48.791Z" transform="translate(-448.628 -48.583)" fill="#e0e0e0"/></g><g transform="translate(68.984)"><path d="M454.172,48.791c0,.114-.534.206-1.2.206s-1.2-.093-1.2-.206.536-.208,1.2-.208S454.172,48.676,454.172,48.791Z" transform="translate(-451.78 -48.583)" fill="#e0e0e0"/></g><g transform="translate(73.769)"><path d="M457.325,48.791c0,.114-.536.206-1.2.206s-1.2-.093-1.2-.206.536-.208,1.2-.208S457.325,48.676,457.325,48.791Z" transform="translate(-454.933 -48.583)" fill="#e0e0e0"/></g><g transform="translate(78.553)"><path d="M460.477,48.791c0,.114-.536.206-1.2.206s-1.2-.093-1.2-.206.536-.208,1.2-.208S460.477,48.676,460.477,48.791Z" transform="translate(-458.085 -48.583)" fill="#e0e0e0"/></g><g transform="translate(83.338)"><path d="M463.325,49.1c-.053,0-.1-.114-.138-.305l.138.137a4.956,4.956,0,0,1-.891.07c-.662,0-1.2-.093-1.2-.206s.534-.208,1.2-.208a4.817,4.817,0,0,1,.891.07l.158.03-.021.108C463.425,48.982,463.376,49.1,463.325,49.1Z" transform="translate(-461.238 -48.583)" fill="#e0e0e0"/></g><g transform="translate(85.217 2.905)"><path d="M462.684,52.889c-.115,0-.208-.536-.208-1.2s.093-1.2.208-1.2.206.536.206,1.2S462.8,52.889,462.684,52.889Z" transform="translate(-462.476 -50.497)" fill="#e0e0e0"/></g><g transform="translate(85.217 7.688)"><path d="M462.684,56.041c-.115,0-.208-.534-.208-1.2s.093-1.2.208-1.2.206.536.206,1.2S462.8,56.041,462.684,56.041Z" transform="translate(-462.476 -53.649)" fill="#e0e0e0"/></g><g transform="translate(85.217 12.473)"><path d="M462.684,59.194c-.115,0-.208-.536-.208-1.2s.093-1.2.208-1.2.206.534.206,1.2S462.8,59.194,462.684,59.194Z" transform="translate(-462.476 -56.802)" fill="#e0e0e0"/></g><g transform="translate(85.217 17.257)"><path d="M462.684,62.346c-.115,0-.208-.536-.208-1.2s.093-1.2.208-1.2.206.536.206,1.2S462.8,62.346,462.684,62.346Z" transform="translate(-462.476 -59.954)" fill="#e0e0e0"/></g><g transform="translate(85.217 22.041)"><path d="M462.684,65.5c-.115,0-.208-.536-.208-1.2s.093-1.2.208-1.2.206.536.206,1.2S462.8,65.5,462.684,65.5Z" transform="translate(-462.476 -63.106)" fill="#e0e0e0"/></g><g transform="translate(85.217 26.826)"><path d="M462.684,68.651c-.115,0-.208-.536-.208-1.2s.093-1.2.208-1.2.206.536.206,1.2S462.8,68.651,462.684,68.651Z" transform="translate(-462.476 -66.259)" fill="#e0e0e0"/></g><g transform="translate(85.217 31.609)"><path d="M462.684,71.8c-.115,0-.208-.536-.208-1.2s.093-1.2.208-1.2.206.536.206,1.2S462.8,71.8,462.684,71.8Z" transform="translate(-462.476 -69.411)" fill="#e0e0e0"/></g><g transform="translate(85.217 36.394)"><path d="M462.684,74.956c-.115,0-.208-.536-.208-1.2s.093-1.2.208-1.2.206.534.206,1.2S462.8,74.956,462.684,74.956Z" transform="translate(-462.476 -72.564)" fill="#e0e0e0"/></g><g transform="translate(85.217 41.178)"><path d="M462.684,78.108c-.115,0-.208-.536-.208-1.2s.093-1.2.208-1.2.206.536.206,1.2S462.8,78.108,462.684,78.108Z" transform="translate(-462.476 -75.716)" fill="#e0e0e0"/></g><g transform="translate(85.217 45.963)"><path d="M462.684,81.261c-.115,0-.208-.536-.208-1.2s.093-1.2.208-1.2.206.534.206,1.2S462.8,81.261,462.684,81.261Z" transform="translate(-462.476 -78.869)" fill="#e0e0e0"/></g><g transform="translate(85.217 50.747)"><path d="M462.684,84.413c-.115,0-.208-.536-.208-1.2s.093-1.2.208-1.2.206.536.206,1.2S462.8,84.413,462.684,84.413Z" transform="translate(-462.476 -82.021)" fill="#e0e0e0"/></g><g transform="translate(85.217 55.53)"><path d="M462.684,87.566c-.115,0-.208-.536-.208-1.2s.093-1.2.208-1.2.206.536.206,1.2S462.8,87.566,462.684,87.566Z" transform="translate(-462.476 -85.173)" fill="#e0e0e0"/></g><g transform="translate(85.217 60.315)"><path d="M462.684,90.718c-.115,0-.208-.536-.208-1.2s.093-1.2.208-1.2.206.534.206,1.2S462.8,90.718,462.684,90.718Z" transform="translate(-462.476 -88.326)" fill="#e0e0e0"/></g><g transform="translate(85.217 65.099)"><path d="M462.684,93.87c-.115,0-.208-.534-.208-1.2s.093-1.2.208-1.2.206.536.206,1.2S462.8,93.87,462.684,93.87Z" transform="translate(-462.476 -91.478)" fill="#e0e0e0"/></g><g transform="translate(85.217 69.884)"><path d="M462.684,97.023c-.115,0-.208-.536-.208-1.2s.093-1.2.208-1.2.206.534.206,1.2S462.8,97.023,462.684,97.023Z" transform="translate(-462.476 -94.631)" fill="#e0e0e0"/></g><g transform="translate(85.217 74.668)"><path d="M462.684,100.175c-.115,0-.208-.536-.208-1.2s.093-1.2.208-1.2.206.536.206,1.2S462.8,100.175,462.684,100.175Z" transform="translate(-462.476 -97.783)" fill="#e0e0e0"/></g><g transform="translate(85.217 79.453)"><path d="M462.684,103.328c-.115,0-.208-.536-.208-1.2s.093-1.2.208-1.2.206.534.206,1.2S462.8,103.328,462.684,103.328Z" transform="translate(-462.476 -100.936)" fill="#e0e0e0"/></g></g><rect width="6.311" height="6.311" transform="translate(85.217 84.968)" fill="#e0e0e0"/><rect width="6.311" height="6.311" transform="translate(0 85.831)" fill="#e0e0e0"/><rect width="6.311" height="6.311" transform="translate(85.217)" fill="#e0e0e0"/><rect width="6.311" height="6.311" transform="translate(0 0.614)" fill="#e0e0e0"/></g></g><g transform="translate(347.173 2209.129)"><path d="M353.359,157.418a25.875,25.875,0,1,0-37.143,23.024c-.032,3.066-.068,6.527-.068,6.527l22.677.237s.176-3.662.261-6.933A25.864,25.864,0,0,0,353.359,157.418Z" transform="translate(-301.611 -131.272)" fill="#ffd947"/><g transform="translate(11.926 25.927)"><path d="M326.559,178.168s0-.108.029-.319l.115-.932c.108-.818.267-2.026.511-3.576s.571-3.444,1.088-5.614a38.361,38.361,0,0,1,2.422-7.175,24.72,24.72,0,0,1,2.169-3.85,4.764,4.764,0,0,1,1.785-1.569,2.673,2.673,0,0,1,2.457.1,1.765,1.765,0,0,1,.807,1.033,1.805,1.805,0,0,1-.121,1.326,3.678,3.678,0,0,1-2.017,1.7,7.079,7.079,0,0,1-5.374-.437,7.174,7.174,0,0,1-3.609-4.356,5.417,5.417,0,0,1-.121-2.987,2.325,2.325,0,0,1,2.369-1.773,1.673,1.673,0,0,1,1.308.926,2.349,2.349,0,0,1,.191,1.6,5.06,5.06,0,0,1-1.845,2.551,7.721,7.721,0,0,1-6.049,1.688,6.724,6.724,0,0,1-4.964-3.782,3.9,3.9,0,0,1-.143-3.135,1.979,1.979,0,0,1,1.147-1.134,1.942,1.942,0,0,1,1.59.164,2.564,2.564,0,0,1,1.081,1.147,4.036,4.036,0,0,1,.379,1.493,7.45,7.45,0,0,1-.425,2.953,7.7,7.7,0,0,1-3.692,4.3,7.835,7.835,0,0,1-5.362.68,4.1,4.1,0,0,1-2.316-1.26,2,2,0,0,1-.117-2.493,1.687,1.687,0,0,1,1.169-.555,2.439,2.439,0,0,1,1.231.252,3.744,3.744,0,0,1,1.566,1.792c.636,1.41,1.143,2.779,1.659,4.087,2.014,5.236,3.437,9.549,4.389,12.536.475,1.495.827,2.66,1.062,3.451q.166.58.259.9c.056.2.077.311.077.311s-.041-.1-.109-.3-.165-.51-.29-.892c-.259-.8-.636-1.952-1.117-3.433-.988-2.975-2.443-7.273-4.483-12.493-.517-1.3-1.04-2.682-1.668-4.06a3.516,3.516,0,0,0-1.458-1.671,1.55,1.55,0,0,0-1.959,2.4,3.836,3.836,0,0,0,2.169,1.16,7.573,7.573,0,0,0,5.163-.668,7.408,7.408,0,0,0,3.542-4.142,7.167,7.167,0,0,0,.4-2.829,2.812,2.812,0,0,0-1.3-2.392,1.625,1.625,0,0,0-1.339-.141,1.665,1.665,0,0,0-.962.962A3.6,3.6,0,0,0,318,152.6a6.411,6.411,0,0,0,4.729,3.6,7.405,7.405,0,0,0,5.8-1.618,4.774,4.774,0,0,0,1.739-2.377,2.03,2.03,0,0,0-.162-1.383,1.355,1.355,0,0,0-1.064-.762,1.816,1.816,0,0,0-1.292.4,2.237,2.237,0,0,0-.75,1.15,5.124,5.124,0,0,0,.118,2.811,6.825,6.825,0,0,0,8.593,4.618,3.417,3.417,0,0,0,1.87-1.557,1.526,1.526,0,0,0-.578-2.017,2.412,2.412,0,0,0-2.213-.1,4.531,4.531,0,0,0-1.694,1.486,24.5,24.5,0,0,0-2.161,3.8,38.584,38.584,0,0,0-2.455,7.124c-.531,2.16-.873,4.048-1.138,5.591-.246,1.537-.437,2.736-.569,3.565-.064.4-.112.706-.147.927S326.559,178.168,326.559,178.168Z" transform="translate(-309.469 -148.356)" fill="#263238"/></g><path d="M332.087,171.948l-19.47-.2a1.46,1.46,0,0,1-1.446-1.477h0a1.462,1.462,0,0,1,1.477-1.446l19.471.2a1.462,1.462,0,0,1,1.445,1.477h0A1.46,1.46,0,0,1,332.087,171.948Z" transform="translate(-296.662 -111.835)" fill="#263238"/><path d="M332.09,171.792l-19.471-.2a1.462,1.462,0,0,0-.03,2.923l2.137.021,2.779,5.427a1.88,1.88,0,0,0,1.651,1.021l6.958.073a1.878,1.878,0,0,0,1.682-1l2.811-5.35,1.454.015a1.462,1.462,0,1,0,.03-2.923Z" transform="translate(-296.677 -110.403)" fill="#263238"/><g transform="translate(2.897 4.674)" opacity="0.2"><path d="M310.047,138.893a19.075,19.075,0,0,1,5.218-3.39,13.755,13.755,0,0,1,4-1.117c.98-.091,1.537.009,1.583.216.106.472-1.862,1.147-4.522,2.885a21.276,21.276,0,0,0-9.918,20.793c.325,3.161,1.038,5.116.606,5.328-.19.1-.618-.273-1.164-1.093A13.756,13.756,0,0,1,304.2,158.7a18.986,18.986,0,0,1-.65-6.189,20.12,20.12,0,0,1,1.889-7.461" transform="translate(-303.52 -134.352)" fill="#fff"/></g><g transform="translate(23.183 2.925)" opacity="0.2"><path d="M320.138,136.378c-1.641-.032-3.082-.495-3.242-1.366-.067-.431.241-.886.838-1.238a5.19,5.19,0,0,1,4.888.076c.584.37.879.836.8,1.264" transform="translate(-316.887 -133.2)" fill="#fff"/></g><g transform="translate(21.521 68.91)"><path d="M325.021,177.874c-.024.047-.511-.182-1.334-.426a10.837,10.837,0,0,0-6.579.121c-.812.276-1.292.522-1.316.475a3.963,3.963,0,0,1,1.238-.686,9.488,9.488,0,0,1,6.726-.124A3.973,3.973,0,0,1,325.021,177.874Z" transform="translate(-315.792 -176.678)" fill="#455a64"/></g><g transform="translate(18.246 64.103)"><path d="M329.357,173.771c0,.088-3.521.123-7.863.077s-7.861-.153-7.86-.241,3.521-.121,7.863-.076S329.358,173.684,329.357,173.771Z" transform="translate(-313.634 -173.511)" fill="#455a64"/></g><g transform="translate(19.596 66.609)"><path d="M327.653,175.213a11.081,11.081,0,0,1-1.918.175c-1.188.062-2.831.114-4.646.12s-3.459-.032-4.647-.085a10.888,10.888,0,0,1-1.92-.162,12.274,12.274,0,0,1,1.924-.062c1.284,0,2.877-.006,4.641-.008l4.641-.027A12.048,12.048,0,0,1,327.653,175.213Z" transform="translate(-314.523 -175.162)" fill="#455a64"/></g></g><g transform="translate(426.251 2422.059)"><g transform="translate(6.156)"><g transform="translate(101.369 1.752)"><rect width="22.603" height="26.871" fill="#f5f5f5"/></g><rect width="102.148" height="30.313" fill="#12263f"/><g transform="translate(99.409 0.001)"><path d="M159.4,416.8H134.149v-2.549H159.4a1.273,1.273,0,0,1,1.274,1.274h0A1.274,1.274,0,0,1,159.4,416.8Z" transform="translate(-134.149 -414.251)" fill="#e0e0e0"/></g><g transform="translate(99.409 27.764)"><path d="M159.4,433.815H134.149v-2.548H159.4a1.274,1.274,0,0,1,1.274,1.274h0A1.274,1.274,0,0,1,159.4,433.815Z" transform="translate(-134.149 -431.266)" fill="#e0e0e0"/></g><g transform="translate(82.048)"><rect width="12.068" height="30.313" fill="#ebebeb"/></g><g transform="translate(9.063)"><rect width="12.068" height="30.313" fill="#ebebeb"/></g><g transform="translate(102.121 6.062)"><path d="M157.661,418.1c0,.075-4.892.134-10.924.134s-10.926-.059-10.926-.134,4.89-.134,10.926-.134S157.661,418.026,157.661,418.1Z" transform="translate(-135.811 -417.966)" fill="#e0e0e0"/></g><g transform="translate(102.121 10.091)"><path d="M157.661,420.571c0,.073-4.892.134-10.924.134s-10.926-.06-10.926-.134,4.89-.135,10.926-.135S157.661,420.5,157.661,420.571Z" transform="translate(-135.811 -420.435)" fill="#e0e0e0"/></g><g transform="translate(102.121 15.053)"><path d="M157.661,423.61c0,.075-4.892.135-10.924.135s-10.926-.06-10.926-.135,4.89-.134,10.926-.134S157.661,423.536,157.661,423.61Z" transform="translate(-135.811 -423.476)" fill="#e0e0e0"/></g><g transform="translate(102.121 20.015)"><path d="M157.661,426.651c0,.075-4.892.134-10.924.134s-10.926-.059-10.926-.134,4.89-.134,10.926-.134S157.661,426.577,157.661,426.651Z" transform="translate(-135.811 -426.517)" fill="#e0e0e0"/></g><g transform="translate(102.121 24.977)"><path d="M157.661,429.692c0,.073-4.892.134-10.924.134s-10.926-.06-10.926-.134,4.89-.134,10.926-.134S157.661,429.617,157.661,429.692Z" transform="translate(-135.811 -429.558)" fill="#e0e0e0"/></g><g transform="translate(29.605 12.458)"><rect width="45.955" height="5.458" fill="#ebebeb"/></g></g><g transform="translate(9.538 30.312)"><g transform="translate(97.41 0.594)"><rect width="22.95" height="16.373" fill="#fafafa"/></g><g transform="translate(0 0)"><rect width="97.667" height="17.561" fill="#3c4973"/></g><g transform="translate(96.957)"><path d="M134.719,434.016h24.666a.594.594,0,0,0,.6-.594h0a.594.594,0,0,0-.6-.594H134.719Z" transform="translate(-134.719 -432.828)" fill="#ebebeb"/></g><g transform="translate(96.957 16.373)"><path d="M0,0H24.9a.357.357,0,0,1,.357.357V.831a.357.357,0,0,1-.357.357H0a0,0,0,0,1,0,0V0A0,0,0,0,1,0,0Z" fill="#ebebeb"/></g><g transform="translate(97.667 3.57)"><path d="M157.847,435.151c0,.073-5.081.134-11.347.134s-11.347-.061-11.347-.134,5.079-.135,11.347-.135S157.847,435.076,157.847,435.151Z" transform="translate(-135.154 -435.016)" fill="#e0e0e0"/></g><g transform="translate(97.667 6.669)"><path d="M157.847,437.049c0,.073-5.081.134-11.347.134s-11.347-.06-11.347-.134,5.079-.134,11.347-.134S157.847,436.975,157.847,437.049Z" transform="translate(-135.154 -436.915)" fill="#e0e0e0"/></g><g transform="translate(97.667 9.766)"><path d="M157.847,438.947c0,.075-5.081.136-11.347.136s-11.347-.06-11.347-.136,5.079-.134,11.347-.134S157.847,438.873,157.847,438.947Z" transform="translate(-135.154 -438.813)" fill="#e0e0e0"/></g><g transform="translate(97.667 12.863)"><path d="M157.847,440.846c0,.074-5.081.134-11.347.134s-11.347-.061-11.347-.134,5.079-.135,11.347-.135S157.847,440.771,157.847,440.846Z" transform="translate(-135.154 -440.711)" fill="#e0e0e0"/></g></g><g transform="translate(0 47.874)"><g transform="translate(109.955 1.56)"><rect width="23.424" height="44.385" fill="#ebebeb"/></g><rect width="109.955" height="48.124" fill="#167377"/><g transform="translate(106.949 45.004)"><path d="M163.261,474.292H135v-3.12h28.264a1.56,1.56,0,0,1,1.56,1.56h0A1.56,1.56,0,0,1,163.261,474.292Z" transform="translate(-134.997 -471.172)" fill="#e0e0e0"/></g><g transform="translate(106.949)"><path d="M0,0H28.887a.938.938,0,0,1,.938.938V2.183a.938.938,0,0,1-.937.938H0a0,0,0,0,1,0,0V0A0,0,0,0,1,0,0Z" fill="#e0e0e0"/></g><g transform="translate(109.955 7.376)"><path d="M160.263,448.246c0,.073-5.244.134-11.711.134s-11.714-.06-11.714-.134,5.243-.135,11.714-.135S160.263,448.172,160.263,448.246Z" transform="translate(-136.839 -448.111)" fill="#e0e0e0"/></g><g transform="translate(109.955 13.069)"><path d="M160.263,451.734c0,.075-5.244.136-11.711.136s-11.714-.061-11.714-.136,5.243-.134,11.714-.134S160.263,451.66,160.263,451.734Z" transform="translate(-136.839 -451.6)" fill="#e0e0e0"/></g><g transform="translate(109.955 18.761)"><path d="M160.263,455.223c0,.075-5.244.134-11.711.134s-11.714-.059-11.714-.134,5.243-.134,11.714-.134S160.263,455.149,160.263,455.223Z" transform="translate(-136.839 -455.089)" fill="#e0e0e0"/></g><g transform="translate(109.955 24.454)"><path d="M160.263,458.712c0,.073-5.244.134-11.711.134s-11.714-.06-11.714-.134,5.243-.134,11.714-.134S160.263,458.637,160.263,458.712Z" transform="translate(-136.839 -458.578)" fill="#e0e0e0"/></g><g transform="translate(109.955 30.146)"><path d="M160.263,462.2c0,.073-5.244.134-11.711.134s-11.714-.061-11.714-.134,5.243-.135,11.714-.135S160.263,462.126,160.263,462.2Z" transform="translate(-136.839 -462.066)" fill="#e0e0e0"/></g><g transform="translate(109.955 35.839)"><path d="M160.263,465.689c0,.075-5.244.135-11.711.135s-11.714-.06-11.714-.135,5.243-.134,11.714-.134S160.263,465.615,160.263,465.689Z" transform="translate(-136.839 -465.555)" fill="#e0e0e0"/></g><g transform="translate(109.955 41.532)"><path d="M160.263,469.178c0,.075-5.244.134-11.711.134s-11.714-.059-11.714-.134,5.243-.134,11.714-.134S160.263,469.1,160.263,469.178Z" transform="translate(-136.839 -469.044)" fill="#e0e0e0"/></g></g><g transform="translate(28.181 61.7)"><path d="M96.167,464.935v2.677c0,3.224-1.612,5.066-4.722,5.066s-4.722-1.842-4.722-5.066v-10.48c0-3.226,1.612-5.068,4.722-5.068s4.722,1.842,4.722,5.068v1.958H93.173v-2.16c0-1.439-.633-1.987-1.641-1.987s-1.641.548-1.641,1.987v10.883c0,1.44.633,1.958,1.641,1.958s1.641-.517,1.641-1.958v-2.878Z" transform="translate(-86.723 -452.064)" fill="#ebebeb"/><g transform="translate(11.112)"><path d="M93.533,457.132c0-3.226,1.7-5.068,4.809-5.068s4.809,1.842,4.809,5.068v10.48c0,3.224-1.7,5.066-4.809,5.066s-4.809-1.842-4.809-5.066ZM96.7,467.813c0,1.44.633,1.987,1.642,1.987s1.641-.547,1.641-1.987V456.93c0-1.439-.635-1.987-1.641-1.987s-1.642.548-1.642,1.987Z" transform="translate(-93.533 -452.064)" fill="#ebebeb"/></g><g transform="translate(22.77 0.23)"><path d="M100.678,452.205h3.167v17.276h5.212v2.878h-8.379Z" transform="translate(-100.678 -452.205)" fill="#ebebeb"/></g><g transform="translate(32.27)"><path d="M106.5,457.132c0-3.226,1.7-5.068,4.807-5.068s4.809,1.842,4.809,5.068v10.48c0,3.224-1.7,5.066-4.809,5.066s-4.807-1.842-4.807-5.066Zm3.167,10.681c0,1.44.633,1.987,1.64,1.987s1.641-.547,1.641-1.987V456.93c0-1.439-.633-1.987-1.641-1.987s-1.64.548-1.64,1.987Z" transform="translate(-106.5 -452.064)" fill="#ebebeb"/></g><g transform="translate(43.785 0.23)"><path d="M116.724,452.205v15.548c0,1.439.633,1.958,1.641,1.958s1.641-.519,1.641-1.958V452.205H123v15.346c0,3.226-1.612,5.068-4.722,5.068s-4.722-1.842-4.722-5.068V452.205Z" transform="translate(-113.557 -452.205)" fill="#ebebeb"/></g><g transform="translate(55.386 0.23)"><path d="M127.288,472.36a6.192,6.192,0,0,1-.287-2.476v-3.167c0-1.872-.633-2.564-2.074-2.564h-1.093v8.206h-3.167V452.205h4.779c3.283,0,4.693,1.525,4.693,4.635v1.583c0,2.074-.662,3.427-2.072,4.089,1.583.663,2.1,2.188,2.1,4.292v3.108a5.909,5.909,0,0,0,.346,2.448Zm-3.454-17.275v6.191h1.238c1.18,0,1.9-.519,1.9-2.131v-1.988c0-1.439-.489-2.072-1.612-2.072Z" transform="translate(-120.667 -452.205)" fill="#ebebeb"/></g></g><g transform="translate(34.631 36.237)"><g transform="translate(0 0.393)"><path d="M92.985,437.3H90.676l.121-.6h5.3l-.131.6h-2.3l-1.186,5.946H91.8Z" transform="translate(-90.676 -436.7)" fill="#e0e0e0"/></g><g transform="translate(3.335 2.02)"><path d="M99.255,437.7l-3.59,5.554c-.609.935-1.065,1.225-1.777,1.225a1.592,1.592,0,0,1-1.168-.44l.354-.486a1.144,1.144,0,0,0,.87.356c.423,0,.749-.2,1.132-.794l.346-.524L94.2,437.7h.674l1.018,4.188,2.684-4.188Z" transform="translate(-92.72 -437.697)" fill="#e0e0e0"/></g><g transform="translate(9.456 1.984)"><path d="M102.353,439.751a2.771,2.771,0,0,1-2.787,2.926A1.84,1.84,0,0,1,97.7,441.6l-.561,2.842h-.664l1.338-6.732h.635l-.158.786a2.491,2.491,0,0,1,1.917-.823A1.988,1.988,0,0,1,102.353,439.751Zm-.674.037a1.44,1.44,0,0,0-1.617-1.534,2.146,2.146,0,0,0-2.123,2.309,1.434,1.434,0,0,0,1.619,1.524A2.143,2.143,0,0,0,101.679,439.788Z" transform="translate(-96.471 -437.675)" fill="#e0e0e0"/></g><g transform="translate(16.11 1.984)"><path d="M100.549,440.591a2.791,2.791,0,0,1,2.842-2.916,2.014,2.014,0,0,1,2.235,2.076,2.793,2.793,0,0,1-2.842,2.926A2.027,2.027,0,0,1,100.549,440.591Zm4.414-.8a1.44,1.44,0,0,0-1.617-1.534,2.159,2.159,0,0,0-2.133,2.309,1.434,1.434,0,0,0,1.619,1.524A2.151,2.151,0,0,0,104.963,439.788Z" transform="translate(-100.549 -437.675)" fill="#e0e0e0"/></g><g transform="translate(21.643 1.984)"><path d="M109.848,437.711l-.86,4.321a2.62,2.62,0,0,1-2.86,2.459,3.124,3.124,0,0,1-2.188-.739l.393-.5a2.573,2.573,0,0,0,1.842.654,1.924,1.924,0,0,0,2.131-1.757l.113-.543a2.551,2.551,0,0,1-1.965.842,1.949,1.949,0,0,1-2.169-1.982,2.717,2.717,0,0,1,2.8-2.786,1.884,1.884,0,0,1,1.917,1.121l.206-1.085Zm-1.121,1.973c0-.9-.607-1.429-1.627-1.429a2.085,2.085,0,0,0-2.141,2.168c0,.9.6,1.431,1.627,1.431A2.091,2.091,0,0,0,108.727,439.684Z" transform="translate(-103.94 -437.675)" fill="#e0e0e0"/></g><g transform="translate(28.427 1.984)"><path d="M111.557,437.675l-.121.645c-.065,0-.113-.01-.188-.01a1.945,1.945,0,0,0-1.991,1.824l-.5,2.495H108.1l.973-4.918h.636l-.17.9A2.225,2.225,0,0,1,111.557,437.675Z" transform="translate(-108.098 -437.675)" fill="#e0e0e0"/></g><g transform="translate(32.007 1.984)"><path d="M115.807,437.711l-.981,4.918h-.636l.16-.775a2.524,2.524,0,0,1-1.917.823,1.983,1.983,0,0,1-2.141-2.085,2.765,2.765,0,0,1,2.777-2.916,1.846,1.846,0,0,1,1.87,1.066l.206-1.03Zm-1.1,2.077a1.44,1.44,0,0,0-1.617-1.534,2.157,2.157,0,0,0-2.131,2.309,1.434,1.434,0,0,0,1.617,1.524A2.15,2.15,0,0,0,114.7,439.788Z" transform="translate(-110.292 -437.675)" fill="#e0e0e0"/></g><g transform="translate(38.025 1.984)"><path d="M119.861,439.751a2.771,2.771,0,0,1-2.785,2.926A1.841,1.841,0,0,1,115.2,441.6l-.56,2.842h-.664l1.336-6.732h.636l-.16.786a2.491,2.491,0,0,1,1.917-.823A1.988,1.988,0,0,1,119.861,439.751Zm-.672.037a1.441,1.441,0,0,0-1.619-1.534,2.146,2.146,0,0,0-2.121,2.309,1.434,1.434,0,0,0,1.617,1.524A2.145,2.145,0,0,0,119.188,439.788Z" transform="translate(-113.98 -437.675)" fill="#e0e0e0"/></g><g transform="translate(44.726)"><path d="M123.22,440.041a3,3,0,0,1-.057.561l-.561,2.8h-.664l.561-2.8a2.65,2.65,0,0,0,.047-.449c0-.7-.421-1.1-1.271-1.1a1.917,1.917,0,0,0-2,1.722l-.524,2.635h-.662l1.384-6.938h.662l-.551,2.759a2.4,2.4,0,0,1,1.88-.775A1.541,1.541,0,0,1,123.22,440.041Z" transform="translate(-118.087 -436.459)" fill="#e0e0e0"/></g><g transform="translate(49.538 2.02)"><path d="M127.571,437.7l-3.59,5.554c-.609.935-1.067,1.225-1.777,1.225a1.592,1.592,0,0,1-1.168-.44l.354-.486a1.144,1.144,0,0,0,.87.356c.421,0,.747-.2,1.132-.794l.346-.524-1.225-4.89h.672l1.02,4.188,2.682-4.188Z" transform="translate(-121.036 -437.697)" fill="#e0e0e0"/></g></g></g><g transform="translate(277.568 2295.801)"><g transform="translate(0 0)"><g transform="translate(5.659)"><g transform="translate(92.64)"><g transform="translate(0.219 0.196)"><g transform="translate(0 0)"><g transform="translate(0)"><rect width="59.081" height="73.9" transform="matrix(0.019, -1, 1, 0.019, 0, 59.07)" fill="#ebebeb"/></g></g></g><path d="M290.5,39.834s-.126.006-.358,0l-1.037-.009c-.922-.011-2.267-.03-4.015-.054l-15.127-.237c-12.978-.225-31.424-.543-53.353-.922l.2-.188c-.329,17.581-.706,37.736-1.105,59.065V97.5l-.209-.218,73.885,1.445-.181.176c.377-17.786.689-32.529.909-42.84.118-5.158.211-9.2.274-11.973.035-1.377.063-2.432.081-3.16s.041-1.094.041-1.094.006.353,0,1.057-.022,1.765-.041,3.127c-.041,2.761-.1,6.793-.181,11.934-.176,10.339-.425,25.121-.728,42.955l0,.179-.179,0-73.887-1.373-.214,0,0-.214v-.007c.416-21.327.808-41.482,1.149-59.063l.006-.192.19,0,53.473,1.116,15.083.338,3.977.1,1.015.03C290.388,39.825,290.5,39.834,290.5,39.834Z" transform="translate(-215.265 -38.228)" fill="#263238"/><g transform="translate(2.837 3.963)"><g transform="translate(0 0)"><rect width="51.642" height="68.708" transform="translate(0 51.633) rotate(-88.907)" fill="#f5f5f5"/></g></g><g transform="translate(2.837 23.959)" opacity="0.3"><path d="M216.8,82.83l24.606-31.637,14.48,20.364,10.285-10.542L285.5,84.141Z" transform="translate(-216.8 -51.193)" fill="#707070"/></g><g transform="translate(37.87 14.919)" opacity="0.3"><path d="M246.579,51.813a5.411,5.411,0,1,1-5.307-5.511A5.411,5.411,0,0,1,246.579,51.813Z" transform="translate(-235.758 -46.301)" fill="#707070"/></g></g><g transform="translate(0 28.912)"><g transform="translate(0 0)"><g transform="translate(0.323)"><g transform="translate(0)"><rect width="111.666" height="89.274" transform="translate(0 13.896) rotate(-7.148)" fill="#ebebeb"/></g></g><g transform="translate(0 0)"><path d="M276.254,53.874s-.185.033-.534.083l-1.552.213-6.015.789L245.479,57.88c-19.459,2.474-47.113,5.995-79.987,10.176l.253-.323c3.315,26.364,7.118,56.587,11.141,88.567v.009l-.36-.281,110.8-13.841-.233.3c-3.287-26.68-6.013-48.794-7.92-64.261-.939-7.737-1.678-13.808-2.182-17.964-.246-2.066-.434-3.651-.564-4.742s-.177-1.647-.177-1.647.087.527.229,1.582c.142,1.077.349,2.643.617,4.683.536,4.139,1.318,10.182,2.314,17.886,1.979,15.5,4.806,37.661,8.218,64.4l.033.266-.268.035-110.79,13.95-.322.041-.041-.322,0-.011c-4-31.984-7.778-62.208-11.075-88.574l-.035-.288.286-.035c32.967-4.075,60.7-7.5,80.209-9.912,9.711-1.186,17.372-2.12,22.628-2.761,2.6-.31,4.6-.551,5.967-.713l1.525-.176C276.089,53.883,276.254,53.874,276.254,53.874Z" transform="translate(-165.133 -53.874)" fill="#263238"/></g></g><g transform="translate(4.843 6.073)"><g transform="translate(0 0)"><g transform="translate(0)"><rect width="103.821" height="78.034" transform="matrix(0.992, -0.124, 0.124, 0.992, 0, 12.919)" fill="#f5f5f5"/></g></g></g><g transform="translate(14.553 43.78)" opacity="0.4"><path d="M173.008,130.206l29.944-52.64,26.064,27.316,13.1-17.993,33.908,30.4Z" transform="translate(-173.008 -77.565)" fill="#707070"/></g><g transform="translate(59.22 26.743)" opacity="0.4"><path d="M213.467,75.5a8.175,8.175,0,1,1-9.129-7.094A8.176,8.176,0,0,1,213.467,75.5Z" transform="translate(-197.18 -68.346)" fill="#707070"/></g></g></g><g transform="translate(0 30.428)"><path d="M181.95,54.694,162.071,80.636l4.642,7.084,23.352-29.814Z" transform="translate(-162.071 -54.694)" fill="#e0e0e0"/></g><g transform="translate(110.478 97.404)"><path d="M241.735,90.938,221.856,116.88l4.642,7.084L249.85,94.15Z" transform="translate(-221.856 -90.938)" fill="#e0e0e0"/></g></g></g></g></svg>