<svg xmlns="http://www.w3.org/2000/svg" width="252.868" height="225.48" viewBox="0 0 252.868 225.48"><g transform="translate(-1083.133 -24489.309)"><rect width="252.868" height="225.481" transform="translate(1083.133 24489.309)" fill="#63ae57"/><g transform="translate(3072.931 24882.855)"><g transform="translate(-1937.879 -357.712)"><path d="M-1787.073-282.315c.179,41.353-33.532,75.234-75.017,75.428a75.405,75.405,0,0,1-75.786-74.58,75.43,75.43,0,0,1,75.118-76.244A75.405,75.405,0,0,1-1787.073-282.315Zm-148.763-.045a73.36,73.36,0,0,0,73.286,73.42,73.409,73.409,0,0,0,73.476-73.343,73.471,73.471,0,0,0-73.267-73.4A73.412,73.412,0,0,0-1935.835-282.36Z" transform="translate(1937.88 357.712)" fill="#fff"/><path d="M-1770.521-261.06a70.791,70.791,0,0,1-70.632,70.754,70.735,70.735,0,0,1-70.949-70.678,70.688,70.688,0,0,1,70.648-70.869A70.733,70.733,0,0,1-1770.521-261.06Zm-70.915-44.051c-24.227-.148-43.991,19.851-43.815,44.186a43.933,43.933,0,0,0,43.573,43.293,43.781,43.781,0,0,0,43.938-43.727A43.709,43.709,0,0,0-1841.436-305.111Zm6.731-13.539a21.083,21.083,0,0,0,1.44-2.408,3.936,3.936,0,0,0-2.355-5.172,17.583,17.583,0,0,0-4.492-.738c-2.659-.032-5.321.216-7.983.291-.743.021-.984.25-.943,1,.161,2.931.267,5.864.4,8.8q.152,3.365.322,6.729c.023.46.031.9.715.881,3.563-.093,7.13-.093,10.689-.26a4.537,4.537,0,0,0,4.422-3.345,4.778,4.778,0,0,0-1.747-5.348C-1834.418-318.376-1834.586-318.541-1834.705-318.651Zm-13.849,9.407c-.665-.616-1.1-1.023-1.536-1.421-1.265-1.146-2.522-2.3-3.8-3.429a1.148,1.148,0,0,1-.305-1.663c1.643-3.142.372-7.441-3.6-8.311a7.551,7.551,0,0,0-4.341.244c-2.792,1.066-5.518,2.3-8.295,3.409-.722.288-.777.6-.5,1.262,2.024,4.832,4.015,9.679,6.02,14.519.109.262.26.507.43.835,1.534-.835,2.956-1.658,4.425-2.387.7-.346.831-.683.481-1.383-.555-1.11-1.01-2.271-1.495-3.382,1.54-1.03,1.622-1.036,2.923.014,1.049.846,2.069,1.729,3.121,2.57a1.186,1.186,0,0,0,.781.328C-1852.435-308.387-1850.638-308.794-1848.555-309.243Zm-16.363,5.678a4.663,4.663,0,0,0-.409-.357q-7.486-4.7-14.968-9.411a.864.864,0,0,0-1.239.072q-2.686,2.383-5.445,4.683a.9.9,0,0,0-.26,1.234q3.405,8.01,6.772,16.038c.112.264.257.514.458.909,1.084-1.205,2.008-2.384,3.091-3.392a1.888,1.888,0,0,0,.436-2.644c-.372-.673-.934-1.528-.772-2.13.175-.653,1.078-1.123,1.689-1.642.82-.7,1.611-1.805,2.514-1.914s1.908.81,2.87,1.279c.107.052.208.148.318.159a1.013,1.013,0,0,0,.583-.031C-1867.853-301.626-1866.44-302.565-1864.918-303.565Zm5.8,92.685a9.649,9.649,0,0,0-9.92-9.361,9.319,9.319,0,0,0-9,9.149,9.683,9.683,0,0,0,9.829,9.475A9.119,9.119,0,0,0-1859.116-210.88Zm37.928-112.629c-1.889-.6-3.671-1.181-5.467-1.714-.133-.04-.474.225-.538.41-1.183,3.418-2.376,6.833-3.49,10.273-.883,2.729.178,4.863,2.293,6.562a12.209,12.209,0,0,0,7.721,2.727c2.193.023,4.005-.673,5.043-2.756.786-1.578,1.606-3.143,2.3-4.759.922-2.134,1.74-4.313,2.638-6.561l-5.385-2.465c-.251.643-.449,1.135-.637,1.631-1.185,3.131-2.2,6.337-4.021,9.189-.74,1.158-1.365,1.312-2.823.7a1.9,1.9,0,0,1-1.334-2.54c.775-2.45,1.625-4.877,2.46-7.307C-1822.048-321.215-1821.631-322.3-1821.188-323.509Zm29.136,28.452c-.016-.087-.033-.174-.049-.261.272-.224.543-.45.818-.671,1-.806,2-1.622,3.017-2.411.521-.4.626-.752.158-1.313-.844-1.01-1.642-2.063-2.392-3.145-.435-.626-.8-.636-1.377-.2-1.764,1.34-3.577,2.616-5.334,3.965q-3.6,2.761-7.13,5.607c-.212.17-.435.685-.34.824.947,1.373,1.961,2.7,3.018,4.126l5.264-3.829a1.875,1.875,0,0,1-.259.9c-.933,1.741-1.89,3.47-2.791,5.228a1.372,1.372,0,0,0-.079,1.064c.7,1.423,1.472,2.809,2.232,4.2a7.949,7.949,0,0,0,.562.772c.229-.384.382-.631.527-.883,1.542-2.669,3.091-5.334,4.617-8.012a1.055,1.055,0,0,1,1.157-.613c1.16.122,2.326.2,3.49.28,1.544.107,3.089.2,4.853.31-.7-1.374-1.35-2.543-1.909-3.752a2.329,2.329,0,0,0-2.457-1.657,10.285,10.285,0,0,1-1.787-.14C-1789.513-294.791-1790.782-294.925-1792.052-295.057Zm-103.462,25.506c.977.607,1.869,1.131,2.725,1.707a.958.958,0,0,0,1.353-.111,11.292,11.292,0,0,0,3.948-10.362,5.176,5.176,0,0,0-3.948-4.622c-2.3-.623-4.162.106-5.706,2.181-.337.453-.594.967-.9,1.447a17.154,17.154,0,0,1-1.474,2.241c-.306.349-1.034.7-1.365.56a1.843,1.843,0,0,1-.806-1.325,5.344,5.344,0,0,1,1.646-4.39,13.771,13.771,0,0,1,1.372-1.112c-.984-.721-1.742-1.242-2.461-1.812-.561-.445-.966-.363-1.443.155a11.166,11.166,0,0,0-3.1,9.133,5.563,5.563,0,0,0,6.436,5.009,5.85,5.85,0,0,0,3.855-3.121,11.166,11.166,0,0,1,1.307-2.132,2.378,2.378,0,0,1,1.68-.865c.823.139.851,1.082.767,1.794a4.173,4.173,0,0,1-.565,1.86c-.764,1.092-1.681,2.077-2.551,3.093A7.729,7.729,0,0,1-1895.514-269.55Zm88.031,65.143c-.618-1.175-1.089-2.14-1.64-3.056a.871.871,0,0,0-.8-.157c-1.089.417-2.15.907-3.224,1.364s-2.128.9-3.278,1.38l-1.13-2.83c1.2-.526,2.344-1.021,3.483-1.535,2.545-1.15,2.521-1.141,1.14-3.582-.366-.647-.69-.7-1.337-.395-1.614.77-3.269,1.453-4.988,2.206-.3-.695-.511-1.283-.794-1.836-.265-.518-.159-.8.373-1.045,1.246-.585,2.468-1.222,3.7-1.844.764-.387,1.522-.785,2.375-1.225-.5-.845-.959-1.573-1.364-2.332-.362-.678-.745-.713-1.429-.367q-4.648,2.347-9.362,4.562c-.7.327-.858.594-.562,1.331,1.871,4.668,3.692,9.355,5.533,14.035.127.323.285.634.526,1.168Zm5.657-22.517c-.775-.724-1.459-1.344-2.122-1.986-.44-.427-.755-.348-1.2.063q-3.923,3.628-7.913,7.182c-.522.463-.557.751-.127,1.3q4.789,6.118,9.518,12.283a4.189,4.189,0,0,1,.34.647,104.68,104.68,0,0,0,10.449-8.933.613.613,0,0,0,.06-.592c-.775-.812-1.589-1.586-2.428-2.407l-5.932,4.864-1.893-2.5,4.876-4.128-2.433-2.616-4.985,4.086-1.724-2.11Zm10.276-54.554c-.725,0-1.615.048-2.5-.015a1.1,1.1,0,0,0-1.282.934c-1.216,3.845-.193,7.207,2.22,10.242a5.52,5.52,0,0,0,6.384,1.757c1.7-.665,3.1-3.087,3.035-5.3-.022-.717-.169-1.436-.141-2.149a7.545,7.545,0,0,1,.339-2.188.966.966,0,0,1,1.751-.373,4.818,4.818,0,0,1,1.141,2.257,13.671,13.671,0,0,1-.1,3.473c-.079.691.088.937.765.922a8.194,8.194,0,0,1,1.7.073c.772.147,1.068-.125,1.191-.878a11.988,11.988,0,0,0-1.96-8.893,5.8,5.8,0,0,0-3.225-2.306,4.667,4.667,0,0,0-6.083,2.962,13.424,13.424,0,0,0-.429,3.342c-.05.741.083,1.494.069,2.24a1.281,1.281,0,0,1-.916,1.386,1.309,1.309,0,0,1-1.6-.833,4.68,4.68,0,0,1-.629-1.845C-1791.829-278.2-1791.66-279.733-1791.549-281.479Zm-52.024,73.756c.163-1.441.334-2.768.434-4.1.011-.145-.377-.422-.612-.466-3.645-.692-7.3-1.346-10.943-2.037-.551-.1-.821,0-.961.571q-1.9,7.714-3.833,15.418c-.13.518,0,.8.514.922,1.422.348,2.847.686,4.26,1.067.585.158.811-.057.944-.6.328-1.336.743-2.653,1.031-4,.168-.789.489-1,1.28-.831,1.58.33,3.184.545,4.773.834.589.107.9-.041.962-.684a24.161,24.161,0,0,1,.379-2.573c.137-.649-.112-.829-.705-.927-1.593-.264-3.177-.586-4.762-.893-.391-.076-.8-.164-.683-.725.156-.719.324-1.436.5-2.2Zm8.283-.847c1.752-.255,3.46-.512,5.17-.75,2.285-.318,2.286-.312,1.813-2.585-.445-2.139-.444-2.127-2.646-1.839-3.113.406-6.226.81-9.345,1.169-.668.077-.965.259-.878.981.107.889.121,1.79.181,2.684.29,4.327.6,8.654.86,12.983.04.655.314.822.889.784,1.282-.084,2.565-.172,3.848-.219.918-.033,1.217-.457,1.135-1.359-.14-1.539-.187-3.087-.275-4.661.241-.053.41-.1.583-.126,1.773-.264,3.545-.535,5.321-.78.54-.074.7-.3.584-.843a15.305,15.305,0,0,1-.39-2.387c-.047-.8-.36-1-1.126-.882-1.6.236-3.2.411-4.81.546a.9.9,0,0,1-.717-.5A18.593,18.593,0,0,1-1835.29-208.571Zm37.045-94.709c.511-.262.942-.453,1.341-.694,2.579-1.559,2.574-1.561,1.155-4.267a10.15,10.15,0,0,0-10.489-5.395c-4.556.842-7.456,4.746-7.214,9.545.24,4.752,4.46,7.977,8.244,8.625.219.038.582.037.669-.09.678-.987,1.305-2.01,1.908-2.958a26.09,26.09,0,0,1-3.1-1.168,4.524,4.524,0,0,1-2.3-5.319c.887-2.367,3.345-3.931,5.561-3.4a5.441,5.441,0,0,1,3.884,3.995C-1798.468-304.076-1798.38-303.736-1798.245-303.279Zm-77.6,82.737c.963-.473,1.864-.936,2.783-1.357a.7.7,0,0,0,.4-1.086,20.664,20.664,0,0,0-2-3.57,9.48,9.48,0,0,0-11.983-2.5,9.133,9.133,0,0,0-4.07,10.257c1,3.821,5,7,8.761,6.957.243,0,.611-.079.705-.244.554-.969,1.044-1.974,1.635-3.122a6.754,6.754,0,0,1-4.3-1.412,4.369,4.369,0,0,1-1.758-3.827,5.178,5.178,0,0,1,4.207-4.639C-1879.3-225.5-1877.381-223.984-1875.845-220.542Zm-8-63.527c.848-1.36,1.591-2.584,2.368-3.787.456-.705.3-1.127-.411-1.58-3-1.92-5.95-3.912-8.945-5.837-.6-.387-.676-.708-.29-1.284.665-.994,1.267-2.029,1.909-3.038a.569.569,0,0,0-.236-.943c-.913-.511-1.82-1.037-2.708-1.591-.483-.3-.728-.144-.994.3-.724,1.2-1.5,2.378-2.236,3.577-1.734,2.832-3.465,5.666-5.167,8.517-.141.236-.188.788-.054.886,1.048.772,2.151,1.469,3.271,2.211l2.643-4.188Zm98.34,29.957-.248-.025c-.132.29-.275.576-.394.871-.447,1.11-.845,2.242-1.353,3.323a1.27,1.27,0,0,1-.91.6c-1.224.067-2.454.016-3.682.022-.3,0-.606.052-1.146.1.46.408.712.655.987.873.893.705,1.779,1.421,2.7,2.09a.921.921,0,0,1,.378,1.215c-.347,1.018-.619,2.063-.913,3.1-.1.348-.171.7-.255,1.055l.218.142q1.355-.847,2.711-1.694c1.668-1.038,1.668-1.035,3.251.076.662.464,1.325.927,2,1.378.2.133.424.225.824.432-.222-.947-.395-1.666-.558-2.387-.211-.931-.788-1.994-.521-2.761.281-.811,1.365-1.347,2.106-1.993.591-.515,1.194-1.016,1.792-1.523a1.676,1.676,0,0,0-.955-.275c-1.2-.007-2.4-.038-3.594.011a.983.983,0,0,1-1.147-.826C-1784.606-251.586-1785.072-252.844-1785.505-254.112Zm-104.574,4.916-.077-.314c-1.151,0-2.3,0-3.452,0-1.865,0-1.861-.007-2.446-1.746-.327-.974-.673-1.942-1.011-2.912a1.818,1.818,0,0,0-.629.849c-.407,1.062-.811,2.125-1.194,3.2a1.056,1.056,0,0,1-1.2.8c-1.075-.06-2.156-.027-3.234-.019-.4,0-.793.045-1.189.07l-.069.226c.593.481,1.188.96,1.779,1.444.738.6,1.875,1.095,2.1,1.853.238.806-.386,1.87-.641,2.819-.179.667-.371,1.331-.557,2l.236.161c1.137-.7,2.3-1.367,3.4-2.112a1.466,1.466,0,0,1,2,.073c1.013.807,2.123,1.491,3.192,2.228a27.134,27.134,0,0,0-.879-4.468,1.055,1.055,0,0,1,.433-1.295C-1892.352-247.27-1891.223-248.242-1890.079-249.2Z" transform="translate(1916.737 336.503)" fill="#fff"/><path d="M-1738.956-191.314l2.573-2.084-4.386-2.734-.154.172Z" transform="translate(1776.332 225.181)" fill="#fff"/><path d="M-1676.95-129.563c.24.72.37,1.084.482,1.454a1.574,1.574,0,0,0,1.473,1.162,18.771,18.771,0,0,1,3.48,1.131c.861.337,1.665.82,2.507,1.209a6.93,6.93,0,0,0,5.6.4c-.052,1.139-.036,2.143-.181,3.123a1.1,1.1,0,0,1-.844.676,16.842,16.842,0,0,1-3.571-.637c-1.3-.432-2.479-1.209-3.767-1.678a19.772,19.772,0,0,0-3-.589c.171.915.249,1.535.42,2.129.054.187.34.356.557.439,1.164.451,2.393.767,3.5,1.327,1.889.957,3.634,2.234,5.928,2.226-.1.779-.144,1.465-.273,2.135-.167.863-.607,1.157-1.421.838-1.221-.478-2.392-1.083-3.6-1.607-1.037-.451-2.078-.9-3.141-1.284-.7-.253-1.037.061-1.069.825-.035.821.081,1.318,1.053,1.585a18.7,18.7,0,0,1,3.07,1.457c1.231.6,2.464,1.2,3.8,1.845,0-.048.021.068,0,.173-.569,2.5-1.06,2.713-3.32,1.541a30.5,30.5,0,0,0-3.57-1.661c-1.1-.4-1.17-.277-1.406.87-.066.321-.128.642-.145.73,1.98,1.069,3.862,2.078,5.731,3.108.146.081.339.366.3.453a17.788,17.788,0,0,1-1.08,1.945c-.061.094-.449.047-.647-.033-.443-.179-.852-.439-1.29-.632-1.19-.524-2.387-1.029-3.708-1.6l.336-2.278c-2.663.5-4.062-1.391-5.729-2.738a1.087,1.087,0,0,1-.364-.673,10.277,10.277,0,0,0-1.792-4.553c-.75-1.19-1.542-2.357-2.247-3.574a6.848,6.848,0,0,1-.459-6.207,13.694,13.694,0,0,0-.7-11.234,10.787,10.787,0,0,0-1.9-2.172l-.275.195c.184.419.346.85.555,1.256a13.362,13.362,0,0,1,.687,10.637c-.321,1-.608,2.007-.83,3.029a5.4,5.4,0,0,0,.714,4.227c.748,1.157,1.519,2.3,2.217,3.488a23.639,23.639,0,0,1,1.609,3.1,6.783,6.783,0,0,1-.5,6.212c-1.233,2.13-1.214,2.151.7,3.706a11.257,11.257,0,0,0,5.095,2.714,1.058,1.058,0,0,0,1.382-.742c.886-2.214.9-2.211,3.023-1.153.8.4,1.6.806,2.617,1.323-.566.721-1.036,1.385-1.587,1.974-.115.123-.545.024-.8-.065-.7-.25-1.371-.616-2.086-.812-1.411-.387-1.872-.059-2.177,1.428l3.228,1.429c-.787.786-1.39,1.422-2.04,2.008a.845.845,0,0,1-.659.038,7.893,7.893,0,0,1-1.35-.488.9.9,0,0,0-1.282.353c-.735.981-.736,1.1.321,1.733.254.151.488.335.97.668l-3.849,2.727c-1.325-2.2-2.589-4.255-3.817-6.336a8.55,8.55,0,0,1-1.226-4.272.747.747,0,0,0-.252-.533,3.681,3.681,0,0,0-.386.828,5.7,5.7,0,0,0,.484,4.263c.693,1.12,1.455,2.2,2.109,3.343.487.852.859,1.77,1.265,2.667a1.146,1.146,0,0,1-.749,1.705c-.385.159-.778.3-1.278.488-.22-2.923-1.983-5.064-3.358-7.392a17.492,17.492,0,0,1-.918-1.749,5.239,5.239,0,0,1,.855-5.861c1.077-1.321,2.069-2.716,3.038-4.119a6.4,6.4,0,0,0,.06-7.8c-.8-1.192-1.657-2.35-2.464-3.539a6.972,6.972,0,0,1-.967-6.48,41.424,41.424,0,0,0,1.644-6.335c.537-3.279-.666-6.119-2.759-8.611a5.311,5.311,0,0,0-.808-.71,1.425,1.425,0,0,0-.7-.3c.112.182.221.365.337.545,2.662,4.158,3.216,8.468,1.108,13.057a24.468,24.468,0,0,0-1.416,4.325,4.089,4.089,0,0,0,.715,3.249c.933,1.43,1.907,2.835,2.791,4.295,1.07,1.769,1.908,3.652,1.435,5.782a8.014,8.014,0,0,1-1.1,2.51c-.967,1.511-2.124,2.9-3.075,4.422a6.57,6.57,0,0,0,.157,7.892,20.276,20.276,0,0,1,2.227,3.783,15.674,15.674,0,0,1,.72,3.47c.08.472-.167.77-.661.9-.663.174-1.309.41-1.946.614a8.36,8.36,0,0,0-.034-2.235,31.705,31.705,0,0,0-1.617-4.339c-.562-1.219-1.366-2.323-2-3.513a6.374,6.374,0,0,1,.658-7.468c1.036-1.318,2.068-2.645,3-4.04a6.073,6.073,0,0,0-.087-7.382c-.652-.932-1.349-1.834-2.047-2.732a6.33,6.33,0,0,1-1.144-6.405c.621-1.717,1.212-3.446,1.79-5.178a11.7,11.7,0,0,0,.635-6.788,9.784,9.784,0,0,0-3.591-5.447c-.131-.1-.283-.173-.544-.33a1.685,1.685,0,0,0,.129.343c3.2,3.911,3.545,8.166,1.522,12.7-.622,1.395-1.316,2.759-1.891,4.172a6.376,6.376,0,0,0,.731,6.628,38.025,38.025,0,0,1,2.288,3.439c1.52,2.585,1.532,5.082-.491,7.48a39,39,0,0,0-2.662,3.615,6.761,6.761,0,0,0-.22,7.845,38.809,38.809,0,0,1,2.276,4.38,7.814,7.814,0,0,1,.5,5.351c-.157.586-.4.946-1.048,1.023-.617.074-1.223.247-1.868.384-.017-.129-.061-.222-.035-.287a8.583,8.583,0,0,0-.325-6.9c-.8-1.836-1.737-3.616-2.677-5.387a5.469,5.469,0,0,1,.12-5.8c.71-1.139,1.6-2.164,2.37-3.269a27.132,27.132,0,0,0,1.986-3.087,4.766,4.766,0,0,0-.234-4.891c-.582-.94-1.307-1.789-1.918-2.711a15.476,15.476,0,0,1-1.493-2.544,1.483,1.483,0,0,0-1.663-1.035,5.869,5.869,0,0,0-1.392.326,5.907,5.907,0,0,1-4.044-.046c-1.618-.587-1.963-.332-2.678,1.2a25.125,25.125,0,0,1-2.051,3.467c-2.408,3.531-2.393,5.1.183,8.488.816,1.073,1.662,2.124,2.432,3.228a6.283,6.283,0,0,1,.635,6.556c-.568,1.254-1.218,2.471-1.79,3.723a35.6,35.6,0,0,0-1.425,3.389,7.066,7.066,0,0,0,.468,5.589,13.28,13.28,0,0,1-2.3-.248,1.482,1.482,0,0,1-.823-.918,7.736,7.736,0,0,1,.559-5.678c.7-1.393,1.434-2.764,2.16-4.142a7.853,7.853,0,0,0-.894-9.145c-.754-.969-1.538-1.916-2.267-2.9a5.734,5.734,0,0,1-.4-6.51c.515-.977,1.157-1.888,1.739-2.831.409-.662.845-1.31,1.215-1.994a5.946,5.946,0,0,0,.343-5.361c-.809-1.934-1.646-3.857-2.389-5.816a10.058,10.058,0,0,1-.643-6.249,22.861,22.861,0,0,1,1.631-3.755,9.668,9.668,0,0,1,.881-1.286l-.165-.161a10.915,10.915,0,0,0-1.147.912c-2.916,3.013-3.454,6.6-2.361,10.493a36.59,36.59,0,0,0,1.744,4.426c1.3,3.038,1.194,5.858-1.048,8.476a18.571,18.571,0,0,0-1.948,2.905,6.142,6.142,0,0,0,.4,7.089c.872,1.216,1.851,2.354,2.77,3.536a6.8,6.8,0,0,1,.812,7.437c-.244.546-.539,1.069-.823,1.6-.17.316-.365.62-.551.927-1.453,2.4-2.938,4.785-2.056,7.974-.977-.319-1.779-.531-2.532-.858a1.116,1.116,0,0,1-.425-.793,6.437,6.437,0,0,1,.984-4.119c.6-1.035,1.272-2.03,1.894-3.054,2.13-3.505,1.937-6.337-.64-9.5-.681-.836-1.39-1.65-2.051-2.5a6.684,6.684,0,0,1-.718-7.356,16.354,16.354,0,0,1,1.335-2.231c.665-1,1.381-1.958,2.066-2.941a5.656,5.656,0,0,0,.719-5.308,29.013,29.013,0,0,0-1.41-3.4c-2.008-4.1-1.3-7.961.908-11.717.226-.385.5-.74.759-1.109l-.161-.193a9.34,9.34,0,0,0-1.647,1.458c-2.208,3.141-3.4,6.525-2.144,10.393.5,1.537,1.062,3.056,1.524,4.6a6.63,6.63,0,0,1-1.458,6.607,21.66,21.66,0,0,0-2.667,3.921,6.062,6.062,0,0,0,.294,6.41c.464.732.99,1.425,1.5,2.126.672.918,1.387,1.806,2.036,2.74a5.7,5.7,0,0,1,.344,6.507c-.34.6-.68,1.2-1.06,1.772-1.3,1.967-2.771,3.856-2.806,6.364a.976.976,0,0,1-.27,0c-2.233-1-2.476-.988-1.429-3.434a39.011,39.011,0,0,1,2.134-3.527,17.726,17.726,0,0,0,1.411-2.982,3.975,3.975,0,0,0-.712-3.4,18.768,18.768,0,0,1-.36,1.886A17.589,17.589,0,0,1-1721.707-97c-1.081,2.024-2.317,3.965-3.61,6.146l-3.956-2.864,1.68-1.106c-.565-1.746-1.194-2.07-2.712-1.249a1.272,1.272,0,0,1-1.786-.283,12.29,12.29,0,0,0-1.5-1.155l.163-.4a6.511,6.511,0,0,1,1-.606c.385-.152.836-.139,1.216-.3a7.049,7.049,0,0,0,1.057-.67c-.313-.44-.549-1.138-.957-1.26a3.682,3.682,0,0,0-1.974.145,11.607,11.607,0,0,0-1.894.955l-1.719-2.182a9.507,9.507,0,0,1,3.895-1.895,1.023,1.023,0,0,1,1.278.783c.675,1.934,1.009,2.082,2.991,1.4,2.3-.789,3.991-2.472,5.847-3.964-.361-.661-.7-1.256-1.016-1.864a8.3,8.3,0,0,1,.454-9.013c.749-1.121,1.492-2.246,2.217-3.382a7.082,7.082,0,0,0,.714-6.76,15.083,15.083,0,0,1-.862-8.993,35.617,35.617,0,0,1,1.524-4.15,8.513,8.513,0,0,0-1.41,1.292,10.747,10.747,0,0,0-2.025,8.32c.338,1.794.728,3.58,1.033,5.379a6.628,6.628,0,0,1-1.053,5.049,40.961,40.961,0,0,0-2.24,3.788,7.53,7.53,0,0,0-1.087,2.638c-.156,1.678-1.294,2.439-2.443,3.288a4.818,4.818,0,0,1-4.084,1.091c.088.87.168,1.651.223,2.2-1.481.733-2.89,1.413-4.281,2.126-1.033.529-1.4.445-1.9-.58-.2-.4-.329-.829-.532-1.35,1.981-.763,3.389-2.542,5.6-2.77.131-.013.365-.139.359-.192a7.108,7.108,0,0,0-.3-1.822c-.081-.21-.686-.378-.994-.307a7.912,7.912,0,0,0-1.91.731c-.845.447-1.625,1.019-2.465,1.477-1.509.823-2.259.44-2.574-1.271-.059-.319-.081-.646-.09-.725,1.809-.956,3.483-1.849,5.166-2.723a4.35,4.35,0,0,1,1.4-.591c1.134-.129,1.416-.767,1.293-1.765-.025-.2,0-.407,0-.882a19.379,19.379,0,0,0-2.643.647,30.244,30.244,0,0,0-2.793,1.436c-.053.028-.108.053-.161.08-2.77,1.371-3.419,1.029-3.88-2.155,2.66.045,4.667-1.6,6.916-2.654a6.1,6.1,0,0,1,1.947-.648,1.374,1.374,0,0,0,1.389-1.423c.041-.353.1-.7.172-1.159a6.313,6.313,0,0,0-1.7.026c-1.054.319-2.063.783-3.092,1.184-1.277.5-2.549,1.012-3.839,1.475a2.874,2.874,0,0,1-1.068.081c-1.322-.058-1.375-.125-1.457-1.461-.045-.739-.1-1.477-.163-2.349,2.981,1.006,5.434-.194,7.882-1.455,1.3-.668,2.542-1.474,4.11-1.4.5.024,1.628-1.658,1.425-2.12a1.012,1.012,0,0,0-.811-.5,14.408,14.408,0,0,0-3.134.645c-1.255.47-2.413,1.194-3.634,1.763a6,6,0,0,1-4.783.45,1.441,1.441,0,0,1-1.107-1.687c1.641-14.453,8.255-25.766,21.151-32.928,11.03-6.125,22.639-6.605,34.266-2.151a39.85,39.85,0,0,1,20.617,18.065,40.316,40.316,0,0,1,4.959,17.3,1.144,1.144,0,0,1-.712,1.265,4.324,4.324,0,0,1-3.81.3c-1.1-.451-2.149-1.048-3.232-1.555a16.2,16.2,0,0,0-2.8-1.2A16.4,16.4,0,0,0-1676.95-129.563Zm-12.849-24.45c-3.439.247-5.988,2.239-8.81,3.82l-1.566-3.78c-.08-.194-.238-.4-.215-.581a1.325,1.325,0,0,1,.318-.737c.911-.909,1.863-1.777,2.783-2.678a5.853,5.853,0,0,0,.571-.817,10.56,10.56,0,0,0-2.153-.145c-2.363.358-3.59-.715-4.1-2.942a10.285,10.285,0,0,0-.974-1.982c-.648,1.438-1.223,2.59-1.685,3.785a1.517,1.517,0,0,1-1.638,1.141c-1.27-.014-2.542.138-4.072.236.366.4.541.621.746.809.905.829,1.826,1.642,2.724,2.478.184.171.456.456.418.628a10.559,10.559,0,0,1-1.952,4.77c-.444-.265-.82-.51-1.214-.72-1.821-.97-3.631-1.961-5.48-2.874a1.819,1.819,0,0,0-1.969-.112c.648,1.7,1.738,3.251,1.562,5.287-2.073-.652-3.906-1.951-6.306-1.646a21.543,21.543,0,0,1,3.865,8.374c10.1-4.831,20.163-5.058,30.331-.065.24-3.367,2.106-5.821,3.6-8.56-2.336-.118-4.131,1.176-6.23,1.67C-1691.31-150.6-1690.141-152.121-1689.8-154.013Zm-6.276,15.172c-.1-.453-.133-.735-.216-1a4.83,4.83,0,0,0-3.122-3.129,12.4,12.4,0,0,0-8.36-.145,5.469,5.469,0,0,0-3.336,2.957c-.377.783-.157,1.118.7,1.111.747-.006,1.5-.056,2.241.006a3.262,3.262,0,0,1,2.763,4.618,1.355,1.355,0,0,1-.959.64,14.971,14.971,0,0,1-2.082-.1,7.54,7.54,0,0,1-1.759-.062c-1.206-.359-1.661-.113-1.7,1.181a9.964,9.964,0,0,0,2.459,7.04,9.274,9.274,0,0,0,3.1,2.489c2.859,1.222,5,.6,7.11-1.7a13.773,13.773,0,0,0,3.157-7.126,3.254,3.254,0,0,0-.194-1.408c-.154-.531-.5-.681-1.108-.563a6.408,6.408,0,0,1-2.379.074c-.871-.169-1.5-.152-1.945.719a.759.759,0,0,1-.631.348.79.79,0,0,1-.472-.569,16.2,16.2,0,0,1-.1-3.115,2.4,2.4,0,0,1,1.92-2.118A9.822,9.822,0,0,1-1696.075-138.842Zm31.135,8.159c-.4-.624-.75-1.176-1.1-1.73-1.116-1.773-2.3-3.508-3.328-5.329a12.352,12.352,0,0,1-1.618-7.953,4.322,4.322,0,0,0-.161-1.166,3.864,3.864,0,0,0-1.208.32,7.924,7.924,0,0,0-3.341,4.624c-.221.82-.454,1.637-.691,2.488-.933-.423-1.717-.792-2.512-1.136a9.649,9.649,0,0,0-6.144-.644,7.482,7.482,0,0,0-1.559.836,22.323,22.323,0,0,1,7.545,7.118,1.224,1.224,0,0,0,.918.313,11.587,11.587,0,0,1,6.153,1.3,23.036,23.036,0,0,0,3.268,1.467A3.92,3.92,0,0,0-1664.94-130.682Zm-77.88.047a4.768,4.768,0,0,0,4.287.251c1.447-.572,2.842-1.273,4.275-1.88a10.119,10.119,0,0,1,4.916-.807,1.233,1.233,0,0,0,.893-.473,23.667,23.667,0,0,1,5.939-5.937,14.262,14.262,0,0,0,1.321-1.1c-3.733-2.012-6.932-.149-10.257.94-.061-.334-.111-.592-.155-.851a9.544,9.544,0,0,0-3.545-6.157,3.994,3.994,0,0,0-1.127-.419c-.055.36-.127.718-.162,1.08a36.407,36.407,0,0,1-.459,4.618,21.473,21.473,0,0,1-3.368,6.811Zm35.633-5.2c-.48-1.381-2.945-2.24-3.953-1.386-.284.241-.175.945-.247,1.437.3-.063.593-.132.892-.187a6.421,6.421,0,0,1,1.451-.228A13.115,13.115,0,0,1-1707.186-135.831Zm6.439-.29.249.25a3.881,3.881,0,0,1,3.381.038,2.1,2.1,0,0,0,.781-.062,3.5,3.5,0,0,0-.186-1.041.848.848,0,0,0-.69-.334,27.61,27.61,0,0,0-3.047.416C-1700.462-136.812-1700.586-136.375-1700.747-136.121Z" transform="translate(1779.194 200.887)" fill="#fff"/><path d="M-1524.989-248.362c.933,0,1.74-.05,2.538.013,1.027.081,1.546.635,1.542,1.507a1.585,1.585,0,0,1-1.626,1.758c-2.63.029-2.263.545-2.451-2.223C-1525.006-247.6-1524.989-247.895-1524.989-248.362Z" transform="translate(1599.224 268.036)" fill="#fff"/><path d="M-1526.047-280.41c-.057-.569-.116-.892-.117-1.215,0-.595.032-1.19.051-1.784a11.187,11.187,0,0,1,3.03.268c.871.321.624,1.969-.35,2.307A14.826,14.826,0,0,1-1526.047-280.41Z" transform="translate(1600.182 296.767)" fill="#fff"/><path d="M-1647.124-262.618c.861-.414,1.594-.822,2.369-1.121a1.681,1.681,0,0,1,2.058.342,2.426,2.426,0,0,1,.32,2.449,1.514,1.514,0,0,1-.583.516,10.886,10.886,0,0,1-1.07.458c-1.645.686-1.646.686-2.383-.993C-1646.639-261.482-1646.858-262-1647.124-262.618Z" transform="translate(1699.396 280.795)" fill="#fff"/><path d="M-1738.956-191.314l-1.967-4.646.154-.172,4.386,2.734Z" transform="translate(1776.332 225.181)" fill="#fff"/><path d="M-1684.467,318.4a6.321,6.321,0,0,1-2.572,4.625,3.379,3.379,0,0,1-3.949.325,3.527,3.527,0,0,1-1.811-3.869,7.042,7.042,0,0,1,2.291-4.262,3.566,3.566,0,0,1,4-.648C-1684.979,315.334-1684.507,316.7-1684.467,318.4Z" transform="translate(1736.899 -193.421)" fill="#fff"/><path d="M-1532.711-82.312a2.682,2.682,0,0,1-.764.265c-1.936.049-3.873.089-5.81.074a3.338,3.338,0,0,1-1.067-.409,4.421,4.421,0,0,1,.64-.853c.805-.663,1.638-1.3,2.489-1.9.2-.144.612-.264.771-.16,1.287.843,2.538,1.743,3.8,2.625Z" transform="translate(1611.818 134.3)" fill="#fff"/><path d="M-1530.719,46.6c-.977,1.4-1.857,2.5-3.533,2.436a4.411,4.411,0,0,1-3.011-2.436Z" transform="translate(1609.286 26.089)" fill="#fff"/><path d="M-1524.716,29.923a6.255,6.255,0,0,1-1.314.47,9.588,9.588,0,0,1-1.78-.04c-.165-.013-.451-.191-.446-.282a.832.832,0,0,1,.276-.577A2.82,2.82,0,0,1-1524.716,29.923Z" transform="translate(1601.898 40.402)" fill="#fff"/></g></g></g></svg>