<svg xmlns="http://www.w3.org/2000/svg" width="252.868" height="225.48" viewBox="0 0 252.868 225.48"><g transform="translate(-215.521 -24842.977)"><rect width="252.868" height="225.481" transform="translate(215.521 24842.977)" fill="#d7d7d7"/><g transform="translate(285.232 24885.902)"><g transform="translate(54.522)"><path d="M5763.315,4511.5c-7.079.488-15.355,5.022-20.178,10.923-4.4,5.355-8.018,13.307-6.607,21.035,7.735.241,15.729-4.4,20.362-10.4C5761.223,4527.467,5764.5,4519.564,5763.315,4511.5Z" transform="translate(-5736.22 -4511.496)" fill="#fff"/></g><g transform="translate(0 31.085)"><path d="M5819.386,4540.041c-6.8-8.525-16.353-13.474-25.376-13.474-11.911,0-16.951,5.7-25.226,5.7-8.533,0-15.016-5.687-25.317-5.687-10.118,0-20.894,6.186-27.725,16.761-9.6,14.891-7.959,42.89,7.6,66.737,5.571,8.532,13.009,18.128,22.736,18.21,8.659.084,11.1-5.553,22.828-5.61s13.952,5.687,22.594,5.594c9.736-.075,17.581-10.706,23.151-19.239a95.847,95.847,0,0,0,8.574-16.1C5800.71,4584.357,5797.1,4552.333,5819.386,4540.041Z" transform="translate(-5709.787 -4526.567)" fill="#fff"/></g></g></g></svg>