<svg xmlns="http://www.w3.org/2000/svg" xmlns:xlink="http://www.w3.org/1999/xlink" width="124.767" height="124.767" viewBox="0 0 124.767 124.767"><defs><radialGradient id="a" cx="0.076" cy="0.019" r="1.465" gradientTransform="translate(0.001)" gradientUnits="objectBoundingBox"><stop offset="0" stop-color="#f6f6f7"/><stop offset="0.477" stop-color="#f9f9fa"/><stop offset="0.715" stop-color="#fff"/></radialGradient></defs><g transform="translate(-217 -997)"><g transform="translate(217 997)"><g transform="translate(0 0)"><path d="M319.39,2208.1a62.384,62.384,0,1,1-62.383-62.382A62.383,62.383,0,0,1,319.39,2208.1Z" transform="translate(-194.623 -2145.721)" fill="#fff"/><path d="M318.65,2207.3a62.382,62.382,0,1,0-62.383,62.385A62.136,62.136,0,0,0,318.65,2207.3Z" transform="translate(-193.883 -2144.915)" fill="url(#a)"/><path d="M297.307,2200.746a47.617,47.617,0,1,0-47.617,47.617A47.44,47.44,0,0,0,297.307,2200.746Z" transform="translate(-187.117 -2138.156)" fill="none" stroke="#7d6eb2" stroke-miterlimit="10" stroke-width="4"/><g transform="translate(11.052 35.024)"><path d="M307.953,2164.488a62.391,62.391,0,0,1-107.408,62.125,62.193,62.193,0,0,0,107.408-62.125Z" transform="translate(-200.545 -2164.488)" fill="#eceef0"/></g></g></g><g transform="translate(-5056.702 622.034)"><path d="M5357.884,458.332h2.341V442.325h-2.341a.816.816,0,0,1-.816-.816V435.2a.816.816,0,0,1,.816-.82h2.341v-16h-2.341a.818.818,0,0,1-.816-.82v-2.338H5341.06v2.338a.819.819,0,0,1-.816.82h-6.312a.819.819,0,0,1-.82-.82v-2.338h-16v2.338a.821.821,0,0,1-.819.82h-2.338v16h2.338a.819.819,0,0,1,.819.82v6.312a.818.818,0,0,1-.819.816h-2.338v16.007h2.338a.818.818,0,0,1,.819.817v2.341h16v-2.341a.816.816,0,0,1,.82-.817h6.312a.816.816,0,0,1,.816.817v2.341h16.007v-2.341a.816.816,0,0,1,.816-.817Zm-38.179-19.762a.818.818,0,1,1,0-1.636h9.875a.818.818,0,0,1,0,1.636Zm0,7.806a.818.818,0,1,1,0-1.636h9.875a.818.818,0,0,1,0,1.636Zm0,7.806a.818.818,0,1,1,0-1.636h9.875a.818.818,0,0,1,0,1.636Zm0-11.709a.818.818,0,1,1,0-1.636h9.875a.818.818,0,0,1,0,1.636Zm0,7.806a.818.818,0,1,1,0-1.636h9.875a.818.818,0,0,1,0,1.636Zm23.55-18.021a.818.818,0,1,1,0,1.636h-6.4v3.04h5.914a.816.816,0,0,1,.816.82v14.792h3.04V437.754a.817.817,0,0,1,.819-.82h5.911v-3.04h-6.4a.818.818,0,1,1,0-1.636h7.215a.818.818,0,0,1,.817.82v4.676a.816.816,0,0,1-.817.816h-5.913v14.792a.818.818,0,0,1-.817.82h-4.676a.82.82,0,0,1-.819-.82V438.57h-1.828v14.792a.818.818,0,0,1-.816.819h-6.316a.818.818,0,0,1-.816-.819V429.53h-8.27a.819.819,0,0,1-.82-.816V422.4a.818.818,0,0,1,.82-.816H5334.3a.818.818,0,0,1,0,1.636h-9.572v4.676h8.266a.819.819,0,0,1,.82.82v23.832h4.676V438.57h-2.449a.815.815,0,0,1-.816-.816v-4.676a.818.818,0,0,1,.816-.82h2.449v-3.544a.817.817,0,0,1,.82-.82h8.267v-4.676H5338a.818.818,0,0,1,0-1.636H5348.4a.816.816,0,0,1,.816.816v6.315a.816.816,0,0,1-.816.816h-8.269v2.728h3.129Zm18.6,26.074h2.338a.816.816,0,0,1,.816.817v6.315a.816.816,0,0,1-.816.816h-6.315a.815.815,0,0,1-.816-.816v-2.338H5341.06v2.338a.816.816,0,0,1-.816.816h-6.312a.817.817,0,0,1-.82-.816v-2.338h-16v2.338a.818.818,0,0,1-.819.816h-6.312a.818.818,0,0,1-.819-.816v-6.315a.818.818,0,0,1,.819-.817h2.338V442.325h-2.338a.818.818,0,0,1-.819-.816V435.2a.819.819,0,0,1,.819-.82h2.338v-16h-2.338a.821.821,0,0,1-.819-.82v-6.312a.821.821,0,0,1,.819-.82h6.312a.821.821,0,0,1,.819.82v2.338h16v-2.338a.819.819,0,0,1,.82-.82h6.312a.819.819,0,0,1,.816.82v2.338h16.007v-2.338a.818.818,0,0,1,.816-.82h6.315a.819.819,0,0,1,.817.82v6.312a.819.819,0,0,1-.817.82h-2.338v16h2.338a.817.817,0,0,1,.817.82v6.312a.816.816,0,0,1-.817.816h-2.338v16.007Zm1.519,1.636H5358.7v4.676h4.676Zm-47.911-47.911h-4.676v4.676h4.676Zm23.955,0h-4.676v4.676h4.676Zm23.956,0H5358.7v4.676h4.676Zm0,23.956H5358.7v4.676h4.676Zm-47.911,0h-4.676v4.676h4.676Zm0,23.956h-4.676v4.676h4.676Zm23.955,0h-4.676v4.676h4.676Z" transform="translate(-0.001)" fill="#12263f"/></g></g></svg>