<svg xmlns="http://www.w3.org/2000/svg" width="22.193" height="273.891" viewBox="0 0 22.193 273.891">
  <g id="Grupo_73288" data-name="Grupo 73288" transform="translate(-776.8 -14360.51)">
    <path id="Trazado_134210" data-name="Trazado 134210" d="M1443.253,349.31h-19.627V236.955a.851.851,0,0,1,1.7,0V347.608h17.924a.851.851,0,1,1,0,1.7Z" transform="translate(-646.826 14124.405)" fill="#00223d"/>
    <path id="Trazado_134205" data-name="Trazado 134205" d="M1424.477,847.32c-.47,0-.851-.507-.851-1.133V707.516c0-.625.381-1.133.851-1.133s.851.507.851,1.133V846.188C1425.328,846.813,1424.947,847.32,1424.477,847.32Z" transform="translate(-646.826 13787.08)" fill="#00223d"/>
    <path id="Trazado_134211" data-name="Trazado 134211" d="M1458.373,615.99a.851.851,0,0,1-.6-1.453l9.953-9.953-9.953-9.953a.851.851,0,0,1,1.2-1.2l11.157,11.157-11.157,11.156A.848.848,0,0,1,1458.373,615.99Z" transform="translate(-671.14 13868.28)" fill="#00223d"/>
  </g>
</svg>
