<svg xmlns="http://www.w3.org/2000/svg" xmlns:xlink="http://www.w3.org/1999/xlink" width="124.767" height="124.767" viewBox="0 0 124.767 124.767"><defs><radialGradient id="a" cx="0.076" cy="0.019" r="1.465" gradientTransform="translate(0.001)" gradientUnits="objectBoundingBox"><stop offset="0" stop-color="#f6f6f7"/><stop offset="0.477" stop-color="#f9f9fa"/><stop offset="0.715" stop-color="#fff"/></radialGradient></defs><g transform="translate(-217 -997)"><g transform="translate(217 997)"><g transform="translate(0 0)"><path d="M319.39,2208.1a62.384,62.384,0,1,1-62.383-62.382A62.383,62.383,0,0,1,319.39,2208.1Z" transform="translate(-194.623 -2145.721)" fill="#fff"/><path d="M318.65,2207.3a62.382,62.382,0,1,0-62.383,62.385A62.136,62.136,0,0,0,318.65,2207.3Z" transform="translate(-193.883 -2144.915)" fill="url(#a)"/><path d="M297.307,2200.746a47.617,47.617,0,1,0-47.617,47.617A47.44,47.44,0,0,0,297.307,2200.746Z" transform="translate(-187.117 -2138.156)" fill="none" stroke="#7d6eb2" stroke-miterlimit="10" stroke-width="4"/><g transform="translate(11.052 35.024)"><path d="M307.953,2164.488a62.391,62.391,0,0,1-107.408,62.125,62.193,62.193,0,0,0,107.408-62.125Z" transform="translate(-200.545 -2164.488)" fill="#eceef0"/></g></g></g><g transform="translate(-4514.447 619.597)"><path d="M4918.171,639.576a1.069,1.069,0,1,1,.755-.313A1.077,1.077,0,0,1,4918.171,639.576Z" transform="translate(-131.135 -200.964)" fill="#12263f"/><path d="M4802.141,551.148h-23.373a1.069,1.069,0,0,1-1.069-1.068V545.8a1.069,1.069,0,0,1,1.069-1.068h7.2V525.972a1.068,1.068,0,0,1,2.137,0V545.8a1.068,1.068,0,0,1-1.068,1.068h-7.2v2.143h21.236v-2.143h-7.2a1.068,1.068,0,0,1-1.068-1.068V511.849a1.068,1.068,0,0,1,1.068-1.068h11.574a1.068,1.068,0,0,1,1.054.9l.552,3.377h1.436v-6.416h-36.069v6.416h1.436l.552-3.377a1.068,1.068,0,0,1,1.054-.9h11.574a1.068,1.068,0,0,1,1.068,1.068V517.5a1.068,1.068,0,0,1-2.137,0v-4.58h-9.6l-.552,3.377a1.068,1.068,0,0,1-1.054.9h-3.412a1.068,1.068,0,0,1-1.068-1.068v-8.546a1.074,1.074,0,0,1,1.068-1.075h38.2a1.069,1.069,0,0,1,1.069,1.068v8.553a1.068,1.068,0,0,1-1.069,1.068h-3.412a1.068,1.068,0,0,1-1.054-.9l-.552-3.377h-9.6v31.814h7.2a1.068,1.068,0,0,1,1.068,1.068v4.28A1.068,1.068,0,0,1,4802.141,551.148Z" transform="translate(0 -84.013)" fill="#12263f"/><path d="M5189.352,774.589a1.067,1.067,0,1,0,.755.312A1.074,1.074,0,0,0,5189.352,774.589Z" transform="translate(-373.347 -323.463)" fill="#12263f"/><path d="M5171.625,824.935l-.481.482v-6.692a1.069,1.069,0,0,0-2.137,0v6.692l-.481-.482a1.068,1.068,0,0,0-1.511,1.511l2.305,2.305a1.068,1.068,0,0,0,1.511,0l2.306-2.305a1.068,1.068,0,0,0-1.511-1.511Z" transform="translate(-354.07 -361.93)" fill="#12263f"/><path d="M5168.526,511.008l.482-.482V532.15a1.068,1.068,0,0,0,2.137,0V510.526l.481.482a1.068,1.068,0,0,0,1.511-1.511l-2.306-2.305a1.068,1.068,0,0,0-1.511,0l-2.305,2.305a1.068,1.068,0,0,0,1.511,1.511Z" transform="translate(-354.071 -84.351)" fill="#12263f"/><path d="M4808.344,412.752a1.068,1.068,0,0,0-1.51,1.511l.481.482h-33.006l.481-.482a1.068,1.068,0,0,0-1.51-1.511l-2.306,2.305a1.069,1.069,0,0,0,0,1.511l2.306,2.305a1.068,1.068,0,1,0,1.51-1.511l-.481-.482h33.006l-.481.482a1.068,1.068,0,0,0,1.511,1.511l2.306-2.305a1.069,1.069,0,0,0,0-1.511Z" transform="translate(-0.338 0)" fill="#12263f"/></g></g></svg>