<svg xmlns="http://www.w3.org/2000/svg" xmlns:xlink="http://www.w3.org/1999/xlink" width="124.767" height="124.767" viewBox="0 0 124.767 124.767"><defs><radialGradient id="a" cx="0.076" cy="0.019" r="1.465" gradientTransform="translate(0.001)" gradientUnits="objectBoundingBox"><stop offset="0" stop-color="#f6f6f7"/><stop offset="0.477" stop-color="#f9f9fa"/><stop offset="0.715" stop-color="#fff"/></radialGradient></defs><g transform="translate(-217 -997)"><g transform="translate(217 997)"><g transform="translate(0 0)"><path d="M319.39,2208.1a62.384,62.384,0,1,1-62.383-62.382A62.383,62.383,0,0,1,319.39,2208.1Z" transform="translate(-194.623 -2145.721)" fill="#fff"/><path d="M318.65,2207.3a62.382,62.382,0,1,0-62.383,62.385A62.136,62.136,0,0,0,318.65,2207.3Z" transform="translate(-193.883 -2144.915)" fill="url(#a)"/><path d="M297.307,2200.746a47.617,47.617,0,1,0-47.617,47.617A47.44,47.44,0,0,0,297.307,2200.746Z" transform="translate(-187.117 -2138.156)" fill="none" stroke="#7d6eb2" stroke-miterlimit="10" stroke-width="4"/><g transform="translate(11.052 35.024)"><path d="M307.953,2164.488a62.391,62.391,0,0,1-107.408,62.125,62.193,62.193,0,0,0,107.408-62.125Z" transform="translate(-200.545 -2164.488)" fill="#eceef0"/></g></g></g><g transform="translate(-5649.562 580.718)"><path d="M5931.11,499.873a1.163,1.163,0,1,1-1.162-1.162A1.165,1.165,0,0,1,5931.11,499.873Zm28.332-31.18-1.832,31.248a1.162,1.162,0,0,1-1.159,1.094h-21.272a1.162,1.162,0,0,1,0-2.325h20.176l1.767-30.154a1.18,1.18,0,0,0-1.16-1.23h-52.026a1.179,1.179,0,0,0-1.16,1.23l1.768,30.154h20.176a1.162,1.162,0,0,1,0,2.325h-21.285a1.162,1.162,0,0,1-1.147-1.093l-1.832-31.248a3.5,3.5,0,0,1,2.761-3.615V462.56a3.491,3.491,0,0,1,3.021-3.456v-2.472a3.491,3.491,0,0,1,3.487-3.487h9.625a5.776,5.776,0,0,1,4.106,1.7l3.217,3.211a3.464,3.464,0,0,0,2.463,1.019H5953.2a3.491,3.491,0,0,1,3.487,3.487v2.517a3.492,3.492,0,0,1,2.76,3.615Zm-5.085-6.132a1.163,1.163,0,0,0-1.162-1.162h-24.062a5.772,5.772,0,0,1-4.105-1.7l-3.217-3.211a3.465,3.465,0,0,0-2.464-1.019h-9.625a1.164,1.164,0,0,0-1.163,1.162v3.6a1.162,1.162,0,0,1-1.162,1.162h-.7a1.164,1.164,0,0,0-1.162,1.162V465h48.819Zm-22.717,29.579a1.163,1.163,0,0,1-2.176.821l-1.47-3.9h-9.831l-1.485,3.9a1.163,1.163,0,0,1-2.173-.828l7.115-18.682.011-.026a1.586,1.586,0,0,1,1.472-.989h0a1.586,1.586,0,0,1,1.472.986c0,.01.009.021.013.032Zm-4.523-5.4L5923.1,476.1l-4.053,10.64Zm16.663,5.812v-1.308a6.849,6.849,0,1,1,0-10.272v-1.307a1.162,1.162,0,1,1,2.324,0V492.55a1.162,1.162,0,1,1-2.324,0Zm0-6.443a4.525,4.525,0,1,0-4.524,4.525A4.53,4.53,0,0,0,5943.78,486.107Z" transform="translate(0 0)" fill="#12263f"/></g></g></svg>