<svg xmlns="http://www.w3.org/2000/svg" width="133.524" height="54.778" viewBox="0 0 133.524 54.778"><g transform="translate(-301.835 -268.002)"><path d="M446.353,312.513a10.419,10.419,0,1,0-10.4-10.419,10.412,10.412,0,0,0,10.4,10.419Z" transform="translate(-38.397 -6.777)" fill="#12263f" fill-rule="evenodd"/><path d="M424.843,268a27.29,27.29,0,0,0-25.77,18.344,25.865,25.865,0,0,0,.206-3.446,13.751,13.751,0,0,0-5.51-10.576A16.213,16.213,0,0,0,384,268.8H360.379v53.8h22.143c4.374,0,8.121-1.607,11.859-4.291a14.05,14.05,0,0,0,5.664-11.037c0-.195,0-.388-.006-.58a27.289,27.289,0,1,0,24.8-38.69Zm-50.666,12.457h5.775c2.816,0,5.775.494,5.775,4.09.206,3.247-1.735,5.171-5.626,5.171l-5.924.022v-9.283Zm10.715,28.935c-1.2.991-2.825.92-4.309.92h-6.428v-9.878h5.862c3.55,0,6.588.921,6.742,5.068a5.394,5.394,0,0,1-1.868,3.89Zm13-10.37a15.642,15.642,0,0,0-4.823-4.007A10.439,10.439,0,0,0,398.162,290a27.588,27.588,0,0,0-.27,9.028Zm26.826,10.5a14.211,14.211,0,1,1,14.187-14.21,14.2,14.2,0,0,1-14.187,14.21Z" transform="translate(-16.761 0)" fill="#12263f" fill-rule="evenodd"/><path d="M326.733,288.823H315.585V268.98h-13.75v53.992h13.683V301.9h11.148v21.074h13.93V268.98H326.733v19.843Z" transform="translate(0 -0.28)" fill="#12263f" fill-rule="evenodd"/><path d="M480.5,340.291a1.594,1.594,0,1,0,1.651,1.594,1.575,1.575,0,0,0-1.651-1.594Zm0,2.731a1.139,1.139,0,1,1,1.15-1.137,1.124,1.124,0,0,1-1.15,1.137Z" transform="translate(-50.679 -20.696)" fill="#12263f" fill-rule="evenodd"/><path d="M481.175,342.293a.4.4,0,0,0,.413-.451c0-.413-.27-.517-.721-.517h-.647v1.713h.432v-.729h.073l.393.729h.5l-.439-.744Zm-.278-.276h-.246v-.4h.208c.127,0,.273.016.273.181s-.085.216-.236.216Z" transform="translate(-51.071 -20.992)" fill="#12263f" fill-rule="evenodd"/></g></svg>