<svg xmlns="http://www.w3.org/2000/svg" xmlns:xlink="http://www.w3.org/1999/xlink" width="78.709" height="78.709" viewBox="0 0 78.709 78.709"><defs><radialGradient id="a" cx="0.076" cy="0.019" r="1.465" gradientTransform="translate(0.001)" gradientUnits="objectBoundingBox"><stop offset="0" stop-color="#f6f6f7"/><stop offset="0.477" stop-color="#f9f9fa"/><stop offset="0.715" stop-color="#fff"/></radialGradient></defs><g transform="translate(-217 -997)"><g transform="translate(217 997)"><g transform="translate(0 0)"><path d="M273.332,2185.074a39.354,39.354,0,1,1-39.354-39.353A39.354,39.354,0,0,1,273.332,2185.074Z" transform="translate(-194.623 -2145.721)" fill="#fff"/><path d="M273.18,2184.909a39.353,39.353,0,1,0-39.354,39.355A39.2,39.2,0,0,0,273.18,2184.909Z" transform="translate(-194.472 -2145.556)" fill="url(#a)"/><path d="M269.058,2186.837a33.31,33.31,0,1,0-33.31,33.31A33.186,33.186,0,0,0,269.058,2186.837Z" transform="translate(-196.316 -2147.398)" fill="none" stroke="#7d6eb2" stroke-miterlimit="10" stroke-width="4"/><g transform="translate(6.972 22.095)"><path d="M268.3,2164.488a39.359,39.359,0,0,1-67.757,39.191,39.234,39.234,0,0,0,67.757-39.191Z" transform="translate(-200.545 -2164.488)" fill="#eceef0"/></g></g></g><g transform="translate(237.801 1016.481)"><g transform="translate(21.934)"><path d="M326.01,2236.547a3.114,3.114,0,0,1-2.381-1.111,3.2,3.2,0,0,1-.752-2.315h-4.943a.776.776,0,0,1-.776-.776v-5.235a.776.776,0,0,1,.917-.764l.046.009a1.6,1.6,0,1,0,0-3.139l-.047.009a.777.777,0,0,1-.916-.764v-5.736a.776.776,0,0,1,.776-.776h12.878a3.521,3.521,0,0,1,3.518,3.517v12.878a.776.776,0,0,1-.776.776h-4.409a3.148,3.148,0,0,1-3.089,3.426Zm-7.3-4.979h5.08a.777.777,0,0,1,.764.916l-.106.579a1.653,1.653,0,0,0,.366,1.37,1.547,1.547,0,0,0,1.219.561,1.595,1.595,0,0,0,1.545-1.883l-.115-.627a.777.777,0,0,1,.764-.916h4.551v-12.1a1.967,1.967,0,0,0-1.965-1.965h-12.1v4.15a3.149,3.149,0,0,1,0,6.269Z" transform="translate(-317.157 -2215.949)" fill="#12263f"/></g><g transform="translate(0)"><g transform="translate(0.641 6.955)"><path d="M284.646,2257.007a.776.776,0,0,0,.776-.776v-2.811a.776.776,0,0,0-.776-.776h-5.327a.776.776,0,0,0-.764.916l.115.627a1.6,1.6,0,0,1-1.545,1.883,1.551,1.551,0,0,1-1.219-.561,1.655,1.655,0,0,1-.366-1.371l.106-.578a.776.776,0,0,0-.764-.916H269.8v-3.649a3.149,3.149,0,0,0,0-6.269V2237.8a.777.777,0,0,0-.776-.776H256.148a3.521,3.521,0,0,0-3.518,3.518V2266.3a3.522,3.522,0,0,0,3.518,3.518H281.9a3.522,3.522,0,0,0,3.518-3.518v-2.253a.776.776,0,1,0-1.553,0v2.253a1.967,1.967,0,0,1-1.965,1.965H269.8v-5.007a.777.777,0,0,0-.916-.764l-.047.009a1.6,1.6,0,1,1,0-3.139l.047.009a.777.777,0,0,0,.916-.763V2254.2h4.167a3.2,3.2,0,0,0,.752,2.315,3.138,3.138,0,0,0,5.516-2.315h3.633v2.034a.776.776,0,0,0,.776.776Zm-30.463-16.466a1.967,1.967,0,0,1,1.965-1.965h12.1v4.959a.776.776,0,0,0,.916.764l.047-.009h0a1.6,1.6,0,1,1,0,3.138l-.047-.008a.776.776,0,0,0-.916.764v4.459h-3.331a3.152,3.152,0,0,0-6.049,0h-4.687Zm12.354,17.972a3.149,3.149,0,0,0,1.713,5.552v4.2h-12.1a1.967,1.967,0,0,1-1.965-1.965v-12.1h5.342a.776.776,0,0,0,.776-.743,1.6,1.6,0,0,1,3.189,0,.776.776,0,0,0,.775.743h3.985v3.6a3.141,3.141,0,0,0-1.713.716Z" transform="translate(-252.63 -2237.023)" fill="#12263f"/></g><path d="M250.689,2215.948" transform="translate(-250.689 -2215.948)" fill="#12263f"/><g transform="translate(31.881 29.254)"><path d="M348.076,2306.15a.776.776,0,1,1,.762-.624.782.782,0,0,1-.762.624Z" transform="translate(-347.301 -2304.6)" fill="#12263f"/></g></g></g></g></svg>