<svg xmlns="http://www.w3.org/2000/svg" xmlns:xlink="http://www.w3.org/1999/xlink" width="252.868" height="225.481" viewBox="0 0 252.868 225.481"><defs><radialGradient id="a" cx="1.024" cy="0.922" r="1.232" gradientTransform="translate(0)" gradientUnits="objectBoundingBox"><stop offset="0" stop-color="#d81081"/><stop offset="0.999" stop-color="#5266b0"/></radialGradient><radialGradient id="b" cx="1.024" cy="0.922" r="1.232" gradientTransform="matrix(1, 0, 0, 1, 0, 0)" xlink:href="#a"/><radialGradient id="c" cx="0.258" cy="0.995" r="0.861" gradientTransform="translate(0)" gradientUnits="objectBoundingBox"><stop offset="0" stop-color="#feee6e"/><stop offset="0.061" stop-color="#fde56c" stop-opacity="0.969"/><stop offset="0.167" stop-color="#fccf69" stop-opacity="0.882"/><stop offset="0.305" stop-color="#faaa64" stop-opacity="0.745"/><stop offset="0.468" stop-color="#f8795c" stop-opacity="0.557"/><stop offset="0.622" stop-color="#f64555" stop-opacity="0.357"/><stop offset="0.843" stop-color="#f25048" stop-opacity="0.137"/><stop offset="1" stop-color="#f15740" stop-opacity="0"/></radialGradient><radialGradient id="d" cx="0.258" cy="0.995" r="0.861" gradientTransform="matrix(1, 0, 0, 1, 0, 0)" xlink:href="#c"/><linearGradient id="e" x1="0.5" x2="0.5" y2="1" gradientUnits="objectBoundingBox"><stop offset="0" stop-color="#fff"/><stop offset="1" stop-color="#f8f8f8"/></linearGradient><clipPath id="g"><path d="M4482.858,191.67h58.88c18.277,0,24.9,1.9,31.586,5.477a37.251,37.251,0,0,1,15.5,15.5c3.573,6.682,5.476,13.309,5.476,31.585v58.88c0,18.276-1.9,24.9-5.476,31.585a37.251,37.251,0,0,1-15.5,15.5c-6.682,3.574-13.309,5.477-31.586,5.477h-58.88c-18.277,0-24.9-1.9-31.585-5.477a37.253,37.253,0,0,1-15.5-15.5c-3.572-6.682-5.476-13.309-5.476-31.585V244.23c0-18.276,1.9-24.9,5.476-31.585a37.253,37.253,0,0,1,15.5-15.5C4457.954,193.573,4464.581,191.67,4482.858,191.67Z" transform="translate(-4430.298 -191.67)" fill="url(#a)" clip-rule="evenodd"/></clipPath><clipPath id="i"><rect width="164" height="164" transform="translate(0 0)" fill="url(#b)"/></clipPath><radialGradient id="j" cx="0.85" cy="0.781" r="0.821" xlink:href="#a"/><radialGradient id="o" cx="0.339" cy="0.83" r="0.574" xlink:href="#c"/></defs><g transform="translate(-503.575 -15847.308)"><rect width="252.868" height="225.481" transform="translate(503.575 15847.308)" fill="url(#e)"/><g transform="translate(-3879.298 15687.33)"><g transform="translate(4430.298 191.67)"><path d="M4482.858,191.67h58.88c18.277,0,24.9,1.9,31.586,5.477a37.251,37.251,0,0,1,15.5,15.5c3.573,6.682,5.476,13.309,5.476,31.585v58.88c0,18.276-1.9,24.9-5.476,31.585a37.251,37.251,0,0,1-15.5,15.5c-6.682,3.574-13.309,5.477-31.586,5.477h-58.88c-18.277,0-24.9-1.9-31.585-5.477a37.253,37.253,0,0,1-15.5-15.5c-3.572-6.682-5.476-13.309-5.476-31.585V244.23c0-18.276,1.9-24.9,5.476-31.585a37.253,37.253,0,0,1,15.5-15.5C4457.954,193.573,4464.581,191.67,4482.858,191.67Z" transform="translate(-4430.298 -191.67)" fill-rule="evenodd" fill="url(#a)"/><g clip-path="url(#g)"><g transform="translate(0 0)"><rect width="164" height="164" transform="translate(0 0)" fill="url(#b)"/><g clip-path="url(#i)"><rect width="246" height="246" transform="translate(-41 -41)" fill="url(#j)"/></g></g></g></g><g transform="translate(4430.298 191.67)"><path d="M4482.858,191.67h58.88c18.277,0,24.9,1.9,31.586,5.477a37.251,37.251,0,0,1,15.5,15.5c3.573,6.682,5.476,13.309,5.476,31.585v58.88c0,18.276-1.9,24.9-5.476,31.585a37.251,37.251,0,0,1-15.5,15.5c-6.682,3.574-13.309,5.477-31.586,5.477h-58.88c-18.277,0-24.9-1.9-31.585-5.477a37.253,37.253,0,0,1-15.5-15.5c-3.572-6.682-5.476-13.309-5.476-31.585V244.23c0-18.276,1.9-24.9,5.476-31.585a37.253,37.253,0,0,1,15.5-15.5C4457.954,193.573,4464.581,191.67,4482.858,191.67Z" transform="translate(-4430.298 -191.67)" fill-rule="evenodd" fill="url(#c)"/><g clip-path="url(#g)"><g transform="translate(0 0)"><rect width="164" height="164" transform="translate(0 0)" fill="url(#d)"/><g clip-path="url(#i)"><rect width="246" height="246" transform="translate(-41 -41)" fill="url(#o)"/></g></g></g></g><g transform="translate(4455.558 216.587)"><path d="M4511.061,242.834a29.264,29.264,0,1,0,29.264,29.264A29.264,29.264,0,0,0,4511.061,242.834Zm0,48.273a19.009,19.009,0,1,1,19.008-19.008A19.009,19.009,0,0,1,4511.061,291.107Z" transform="translate(-4454.112 -215.15)" fill="#fff"/><circle cx="6.825" cy="6.825" r="6.825" transform="translate(80.544 19.78)" fill="#fff"/><path d="M4568.5,249.6a41.851,41.851,0,0,0-2.66-14.034,29.152,29.152,0,0,0-16.657-16.657,41.853,41.853,0,0,0-13.841-2.66c-6.093-.27-8.021-.347-23.482-.347s-17.426,0-23.48.347a41.863,41.863,0,0,0-13.842,2.66,29.155,29.155,0,0,0-16.657,16.657,41.805,41.805,0,0,0-2.66,13.842c-.271,6.091-.347,8.019-.347,23.48s0,17.428.347,23.481a41.8,41.8,0,0,0,2.66,13.841,29.152,29.152,0,0,0,16.657,16.657,41.815,41.815,0,0,0,13.842,2.853c6.091.27,8.02.348,23.48.348s17.428,0,23.482-.348a41.851,41.851,0,0,0,13.841-2.66,29.152,29.152,0,0,0,16.657-16.657,41.83,41.83,0,0,0,2.66-13.842c.27-6.091.347-8.02.347-23.48S4568.842,255.658,4568.5,249.6Zm-10.3,46.307h-.078a31.539,31.539,0,0,1-1.964,10.68,18.9,18.9,0,0,1-10.835,10.835,31.556,31.556,0,0,1-10.564,1.966c-6.015.27-7.711.347-23.134.347s-17,0-23.135-.347a31.558,31.558,0,0,1-10.564-1.966,18.858,18.858,0,0,1-10.873-10.835,31.514,31.514,0,0,1-1.966-10.565c-.27-6.014-.347-7.711-.347-23.134s0-17,.347-23.134a31.541,31.541,0,0,1,1.966-10.68,18.858,18.858,0,0,1,10.873-10.835,31.558,31.558,0,0,1,10.564-1.967c6.015-.269,7.711-.346,23.135-.346s17,0,23.134.346a31.556,31.556,0,0,1,10.564,1.967,18.9,18.9,0,0,1,10.835,10.835,31.536,31.536,0,0,1,1.964,10.565c.271,6.014.349,7.711.349,23.134S4558.471,289.858,4558.2,295.911Z" transform="translate(-4454.869 -215.906)" fill="#fff"/></g></g></g></svg>