<svg xmlns="http://www.w3.org/2000/svg" xmlns:xlink="http://www.w3.org/1999/xlink" width="78.709" height="78.708" viewBox="0 0 78.709 78.708"><defs><radialGradient id="a" cx="0.076" cy="0.019" r="1.465" gradientTransform="translate(0.001)" gradientUnits="objectBoundingBox"><stop offset="0" stop-color="#f6f6f7"/><stop offset="0.477" stop-color="#f9f9fa"/><stop offset="0.715" stop-color="#fff"/></radialGradient></defs><g transform="translate(-217 -997)"><g transform="translate(217 997)"><g transform="translate(0 0)"><path d="M273.332,2185.074a39.354,39.354,0,1,1-39.354-39.353A39.354,39.354,0,0,1,273.332,2185.074Z" transform="translate(-194.623 -2145.721)" fill="#fff"/><path d="M273.18,2184.909a39.353,39.353,0,1,0-39.354,39.355A39.2,39.2,0,0,0,273.18,2184.909Z" transform="translate(-194.472 -2145.556)" fill="url(#a)"/><path d="M269.058,2186.837a33.31,33.31,0,1,0-33.31,33.31A33.186,33.186,0,0,0,269.058,2186.837Z" transform="translate(-196.316 -2147.398)" fill="none" stroke="#7d6eb2" stroke-miterlimit="10" stroke-width="4"/><g transform="translate(6.972 22.095)"><path d="M268.3,2164.488a39.359,39.359,0,0,1-67.757,39.191,39.234,39.234,0,0,0,67.757-39.191Z" transform="translate(-200.545 -2164.488)" fill="#eceef0"/></g></g></g><g transform="translate(229.177 1026.116)"><path d="M363.124,229.855a1.691,1.691,0,0,1,1.025.41,1.4,1.4,0,0,1,.308,1.477,6.027,6.027,0,0,1-3.59,2.79,4.05,4.05,0,0,1-2.216-.082c-.308.185-.568.782-.944.534-.544-.425-.073-1.09-.388-1.563-.065-.1-.228-.1-.31-.263a2.441,2.441,0,0,1,.7-2.565c.992-1.106,3.837-2.339,5.417-.739Zm-3.3.739a2.724,2.724,0,0,0-1.518.739c-.339.395-.554.779-.349,1.19.718-.534,1.067-1.272,1.867-1.724,0-.082.123-.144,0-.205Zm3.344.205c-1.416-.123-2.482.944-3.488,1.97-.062.164-.431.349-.144.534a4.657,4.657,0,0,0,3.632-1.169.908.908,0,0,0,.349-.985.72.72,0,0,0-.349-.349Z" transform="translate(-335.145 -227.346)" fill="#12263f" fill-rule="evenodd"/><path d="M400.154,247.984c.656,1.6,1.211,4.124,0,5.663-.328.369-.9.71-1.272.431-1.354-1.087-1.929-2.647-2.77-4.042-.123-.061-.123.1-.185.164-.308,1.416.267,3.262-.7,4.37a.738.738,0,0,1-.841-.493c-.472-1.457.02-2.975.144-4.431a4.92,4.92,0,0,1,1.046-2.154c1.026.41,1.518,1.559,2.113,2.4a20.9,20.9,0,0,0,1.272,1.929c.431-.185.219-.747.205-1.087a26.724,26.724,0,0,0-.882-3.837c-.021-.328-.205-.882.144-1.087a4.1,4.1,0,0,1,1.723,2.175Z" transform="translate(-359.865 -238.416)" fill="#12263f" fill-rule="evenodd"/><path d="M377.942,249.6a.853.853,0,0,1-.451.739c-1.969.308-4.165.123-6.011.739-.061.226.205.267.349.328,1.58.246,3.241.308,4.78.7.814.207,1.108,1.17,1.169,1.97a2.1,2.1,0,0,1-.821,1.826,5.563,5.563,0,0,1-5.375.041,2.079,2.079,0,0,1-1.19-1.518,1.227,1.227,0,0,1,.6-1.129,5.414,5.414,0,0,1,4.575.493c.082.41-.363.388-.575.533-1.415.821-2.482-.923-3.8-.287-.185.123-.318.467-.1.575,1.621.718,3.426.205,5.026-.246.185-.062.411-.246.431-.431-.062-.657-.8-.8-1.272-.985a30.833,30.833,0,0,0-4.431-.492,1.083,1.083,0,0,1-.739-.492,1.669,1.669,0,0,1,.205-1.58c1.908-1.682,4.8-1.539,7.222-1.087.164.061.349.123.41.308Z" transform="translate(-343.85 -240.526)" fill="#12263f" fill-rule="evenodd"/><path d="M363.956,250.6a50.061,50.061,0,0,1,.246,5.868c-.041.267-.349.328-.554.431a1.03,1.03,0,0,1-.882-.185,5.629,5.629,0,0,1-.349-2.708,18.234,18.234,0,0,1,.451-4.39c.079-.2.308-.369.492-.246a1.27,1.27,0,0,1,.6,1.231Z" transform="translate(-338.829 -240.747)" fill="#12263f" fill-rule="evenodd"/><path d="M421.542,250.485c.1.166.2.422,0,.534a11.825,11.825,0,0,1-3.242.349,1.075,1.075,0,0,0-.411,1.026c.1.062.195.155.308.144.656.041,1.641-.308,2.072.308.106.183-.014.867-.308.882a17.5,17.5,0,0,0-2.5.1c-.492.328-.451.964-.636,1.477.349.225.715-.005,1.128-.062a6.576,6.576,0,0,1,2.36-.184c.144.267.349.554.205.882-1.293,1.026-2.961,2.077-4.74,1.334a1.9,1.9,0,0,1-.739-2.175c.144-.615.78-1.21.39-1.867a.488.488,0,0,1,.349-.6c.677,0,.534-.841.882-1.231-.39-.431-1.374-.41-1.272-1.272a4.994,4.994,0,0,1,1.58-.246,12.435,12.435,0,0,1,3.8-.246c.246.05.575.534.78.841Z" transform="translate(-373.621 -240.917)" fill="#12263f" fill-rule="evenodd"/><path d="M311.23,228.819c1.893,1.547,4.349,4.185,4.042,7.222-.369,2.4-2.914,4.206-5.068,4.781a14.337,14.337,0,0,1-6.853.061c-.144.39-.287.862-.739,1.026a.964.964,0,0,1-.882-.144c-.636-.6-.123-1.744-1.046-2.113a9.483,9.483,0,0,1-4.678-4.1,1.1,1.1,0,0,1,.246-1.026,11.232,11.232,0,0,1,4.985-1.929c.1.041.062-.1.144-.144a14.586,14.586,0,0,1,.534-3.59.32.32,0,0,1,.451-.1c1.128.862.595,2.483,1.087,3.652,2.154.1,4.309.205,6.011,1.416a1.868,1.868,0,0,1,.533,1.887,1.57,1.57,0,0,1-1.334.923c-.369,0-1.067.036-1.026-.246s1.255-.744.882-1.129c-.536-.553-3.218-.882-4.879-1.087-.205-.041-.393.021-.393.246a24.714,24.714,0,0,0,.1,4.78.369.369,0,0,0,.246.246c2.934.472,6.032.205,8.33-1.477a3.518,3.518,0,0,0,1.231-3.406c-.923-3.714-4.8-5.95-7.981-7.386a22.446,22.446,0,0,0-10.2-1.867c-.585.043-1.511.245-1.518.451s1.05.142.923.534-1.2.159-1.518.061-.287-.554-.205-.841c.8-1.415,3.033-1.53,4.042-1.58a22.77,22.77,0,0,1,14.526,4.883Zm-10.053,5.5a12.747,12.747,0,0,0-4.227.657c-.267.1-.6.39-.39.739a6.779,6.779,0,0,0,2.01,1.723,7.719,7.719,0,0,0,2.524,1.067,23.837,23.837,0,0,0,.185-4.021c-.082-.041,0-.123-.1-.164Z" transform="translate(-292.607 -223.929)" fill="#12263f" fill-rule="evenodd"/><path d="M435.484,248.947c-.062,1.785-1.723,2.893-1.723,4.678.062.061.1.144.185.1,1.334-1.457,2.647-3.529,4.6-4.144a1.4,1.4,0,0,1,1.169.739,4.484,4.484,0,0,1-.431,4.493,5.451,5.451,0,0,1-4.6,2.215,26.334,26.334,0,0,0-1.662,6.2c-.164.431-.554.041-.8-.041-1.662-1.313-.3-4.789-.185-5.232s.557-1.486.882-2.359c-.78-1.4-.287-3.077.349-4.37a8.715,8.715,0,0,1,1.97-2.38.276.276,0,0,1,.246.1Zm3.3,2.216c-.246-.041-.349.287-.554.349a11.426,11.426,0,0,0-2.359,3.406,3.5,3.5,0,0,0,1.724-.554,3,3,0,0,0,1.477-2.708c-.041-.185-.205-.328-.287-.493Z" transform="translate(-384.506 -240.426)" fill="#12263f" fill-rule="evenodd"/></g></g></svg>