<svg xmlns="http://www.w3.org/2000/svg" xmlns:xlink="http://www.w3.org/1999/xlink" width="252.868" height="225.481" viewBox="0 0 252.868 225.481"><defs><linearGradient id="a" x1="0.5" x2="0.5" y2="1" gradientUnits="objectBoundingBox"><stop offset="0" stop-color="#fff"/><stop offset="1" stop-color="#f8f8f8"/></linearGradient></defs><g transform="translate(-1046.272 -15847.308)"><rect width="252.868" height="225.481" transform="translate(1046.272 15847.308)" fill="url(#a)"/><g transform="translate(-3516.592 15693.36)"><path d="M4719.572,210.989a16.35,16.35,0,1,1-16.351-16.349A16.351,16.351,0,0,1,4719.572,210.989Z" transform="translate(-4.63)" fill="#ff7f00"/><g transform="translate(4627.456 230.75)"><path d="M4647.146,240.447a2.191,2.191,0,0,0-1.606-1.461,9.309,9.309,0,0,0-2.883-.387c-2.456,0-3.542.447-3.542,1.222,0,3.217,19.562,1.221,19.562,9.027,0,4.975-6.569,7.388-15.924,7.388-8.978,0-14.838-3.306-15.072-7.18h10.678a2.8,2.8,0,0,0,1.843,1.7,9.014,9.014,0,0,0,3.165.536c2.789,0,4.631-.566,4.631-1.579,0-3.248-19.562-1.013-19.562-9.206,0-4.558,6.238-6.852,14.742-6.852,9.451,0,13.751,3.039,14.555,6.793Z" transform="translate(-4627.68 -233.654)" fill="#ff7f00"/><path d="M4666.733,255.716V234.265h27.737v5.006h-16.586v3.069h14.033v5h-14.033v3.366h17.247v5.005Z" transform="translate(-4630.587 -233.699)" fill="#ff7f00"/><path d="M4725.82,245.974l-.425-4.887v-6.822h10.679v21.451H4725.63l-12.143-11.679.425,4.886v6.793h-10.679V234.265h10.442Z" transform="translate(-4633.303 -233.699)" fill="#ff7f00"/><path d="M4742.8,255.716l12.192-21.451h11.339l12.191,21.451h-11.1l-1.325-2.83h-11.1l-1.278,2.83Zm17.768-14.986-3.451,7.687h7.041Z" transform="translate(-4636.248 -233.699)" fill="#ff7f00"/></g><g transform="translate(4624.66 257.439)"><path d="M4778.588,262.488H4710.41l39.686,70.479,8.75-7.62L4727.1,272.33l51.807-.129Z" transform="translate(-4631.042 -262.488)" fill="#ff7f00"/><path d="M4624.977,262.488h68.178l-39.685,70.479-8.75-7.62,31.747-53.017-51.806-.129Z" transform="translate(-4624.66 -262.488)" fill="#ff7f00"/><path d="M4663.992,339.582l37.213-64.207,38.266,63.577-10.1,4.562-27.317-48.832L4672.976,344.1Z" transform="translate(-4627.588 -263.448)" fill="#ff7f00"/></g></g></g></svg>