<svg xmlns="http://www.w3.org/2000/svg" width="171.422" height="49.442" viewBox="0 0 171.422 49.442"><g transform="translate(-1196.681 -767.871)"><g transform="translate(1196.681 767.871)"><path d="M1363.534,797.744c-1.962,0-3.836.011-5.711-.019-.165,0-.4-.243-.479-.426-.841-1.9-1.67-3.811-2.472-5.73a.76.76,0,0,0-.84-.542q-4.916.033-9.834,0a.709.709,0,0,0-.76.492c-.861,1.915-1.754,3.815-2.614,5.73a.7.7,0,0,1-.749.506c-1.779-.027-3.559-.012-5.408-.012.09-.221.15-.393.227-.557q6.551-14.069,13.117-28.13a2.5,2.5,0,0,1,.887-1.05,1.134,1.134,0,0,1,1.58.671c.372.765.708,1.547,1.057,2.324q5.861,13.041,11.72,26.083C1363.339,797.275,1363.416,797.465,1363.534,797.744Zm-11.188-11.958-3.09-7.082c-1.1,2.408-2.156,4.718-3.237,7.082Z" transform="translate(-1235.044 -767.871)" fill="#12263f"/><path d="M1275.706,789.106l5.536-1.219c.1.668.15,1.308.286,1.93a3.743,3.743,0,0,0,2.9,3.261,3.889,3.889,0,0,0,4.7-5,3.564,3.564,0,0,0-1.142-1.632,13.928,13.928,0,0,0-2.449-1.4c-1.656-.825-3.382-1.523-4.988-2.434a6.821,6.821,0,0,1-3.369-4.773,7.072,7.072,0,0,1,1.237-5.769,8.826,8.826,0,0,1,6.741-3.588c4.208-.332,7.3,1.772,9.179,5.51l-4.4,2.611c-.51-.679-1.006-1.337-1.5-2-.955-1.276-4.219-1.256-5.328.351a2.08,2.08,0,0,0,.213,2.961,9.5,9.5,0,0,0,2.08,1.235c1.785.864,3.631,1.611,5.384,2.534a7.38,7.38,0,0,1,3.8,5.015,9.251,9.251,0,0,1-7.306,11.527,10.117,10.117,0,0,1-5.749-.491c-3.042-1.222-4.659-3.614-5.444-6.673C1275.923,790.44,1275.838,789.8,1275.706,789.106Z" transform="translate(-1218.652 -768.03)" fill="#12263f"/><path d="M1214.833,769.221v5.2h-6.273v23.643h-5.5V774.453h-6.317a4.426,4.426,0,0,1-.057-.484c0-1.421.008-2.841-.009-4.262-.005-.375.078-.539.5-.538q8.641.017,17.283.01A3.686,3.686,0,0,1,1214.833,769.221Z" transform="translate(-1196.681 -768.232)" fill="#12263f"/><path d="M1315.507,774.451h-6.33v-5.214h18.094v5.177H1321v23.661h-5.49Z" transform="translate(-1227.957 -768.251)" fill="#12263f"/><path d="M1428.532,780.844l-4.115-.775c.209-1.181.408-2.328.615-3.473.441-2.435.889-4.869,1.328-7.305a1.578,1.578,0,0,1,1.917-1.38q.84.132,1.678.284a1.558,1.558,0,0,1,1.379,2.128q-1.31,4.986-2.629,9.971C1428.662,780.455,1428.605,780.613,1428.532,780.844Z" transform="translate(-1259.997 -767.875)" fill="#12263f"/></g><path d="M1256.788,771.26l-3.877,3.877a9.754,9.754,0,0,1,1.995,1.086l3.715-3.714A15.1,15.1,0,0,0,1256.788,771.26Z" transform="translate(-15.633 -0.942)"/><path d="M1263.756,777.857a14.978,14.978,0,0,0-1.262-1.818l-3.715,3.715a9.732,9.732,0,0,1,1.127,1.953Z" transform="translate(-17.265 -2.271)"/><g transform="translate(1219.446 769.084)"><path d="M1235.664,797.405l-3.707,3.707a15.018,15.018,0,0,0,1.718,1.731l3.693-3.693A9.854,9.854,0,0,1,1235.664,797.405Z" transform="translate(-1229.254 -777.295)" fill="#b0b0b0"/><path d="M1248.4,773.974a9.737,9.737,0,0,1,2.9.555l3.932-3.932a14.914,14.914,0,0,0-2.4-1.046Z" transform="translate(-1233.825 -769.551)" fill="#b0b0b0"/><path d="M1257.812,778.706l3.693-3.693a15.061,15.061,0,0,0-1.731-1.718L1256.067,777A9.828,9.828,0,0,1,1257.812,778.706Z" transform="translate(-1235.957 -770.592)" fill="#b0b0b0"/><path d="M1264.43,778.985l-3.9,3.9a9.718,9.718,0,0,1,.616,2.835l4.362-4.363A14.92,14.92,0,0,0,1264.43,778.985Z" transform="translate(-1237.197 -772.174)" fill="#b0b0b0"/><path d="M1229.259,796.562l3.932-3.932a9.743,9.743,0,0,1-.554-2.9l-4.423,4.424A14.9,14.9,0,0,0,1229.259,796.562Z" transform="translate(-1228.213 -775.163)" fill="#b0b0b0"/><path d="M1244.383,802.482a9.723,9.723,0,0,1-2.834-.616l-3.9,3.9a14.94,14.94,0,0,0,2.373,1.076Z" transform="translate(-1230.836 -778.535)" fill="#b0b0b0"/></g><path d="M1230.021,785.625h0l2.293-2.292a9.781,9.781,0,0,1,9.68-9.681l4.541-4.541a15,15,0,0,0-18.762,18.762Z" transform="translate(-8.458 -0.159)" fill="#12263f"/><path d="M1260.332,782.776l-4.472,4.472c0,.058.009.113.009.171a9.788,9.788,0,0,1-9.787,9.788c-.059,0-.114-.008-.172-.009l-2.158,2.158h0l-2.313,2.313a14.98,14.98,0,0,0,18.893-18.893Z" transform="translate(-12.444 -4.144)" fill="#12263f"/><path d="M1236.578,805l3.877-3.877a9.777,9.777,0,0,1-1.994-1.086l-3.715,3.714A14.861,14.861,0,0,0,1236.578,805Z" transform="translate(-10.583 -8.943)"/><path d="M1229.892,798.131a14.986,14.986,0,0,0,1.263,1.818l3.714-3.715a9.753,9.753,0,0,1-1.128-1.952Z" transform="translate(-9.234 -7.343)"/><g transform="translate(1326.111 768.283)"><path d="M1405.638,771.26l-3.877,3.877a9.771,9.771,0,0,1,1.994,1.086l3.715-3.714A15.013,15.013,0,0,0,1405.638,771.26Z" transform="translate(-1383.128 -769.226)"/><path d="M1412.606,777.857a15.039,15.039,0,0,0-1.263-1.818l-3.714,3.715a9.74,9.74,0,0,1,1.128,1.953Z" transform="translate(-1384.759 -770.554)"/><g transform="translate(0.801 0.801)"><path d="M1384.513,797.405l-3.706,3.707a15.008,15.008,0,0,0,1.718,1.731l3.693-3.693A9.833,9.833,0,0,1,1384.513,797.405Z" transform="translate(-1378.104 -777.295)" fill="#b0b0b0"/><path d="M1397.247,773.974a9.742,9.742,0,0,1,2.9.555l3.932-3.932a14.916,14.916,0,0,0-2.4-1.046Z" transform="translate(-1382.675 -769.551)" fill="#b0b0b0"/><path d="M1406.662,778.706l3.693-3.693a15.08,15.08,0,0,0-1.731-1.718L1404.917,777A9.848,9.848,0,0,1,1406.662,778.706Z" transform="translate(-1384.807 -770.592)" fill="#b0b0b0"/><path d="M1413.28,778.985l-3.9,3.9a9.721,9.721,0,0,1,.615,2.835l4.363-4.363A14.909,14.909,0,0,0,1413.28,778.985Z" transform="translate(-1386.047 -772.174)" fill="#b0b0b0"/><path d="M1378.109,796.562l3.932-3.932a9.727,9.727,0,0,1-.554-2.9l-4.424,4.424A14.839,14.839,0,0,0,1378.109,796.562Z" transform="translate(-1377.063 -775.163)" fill="#b0b0b0"/><path d="M1393.232,802.482a9.726,9.726,0,0,1-2.834-.616l-3.9,3.9a14.89,14.89,0,0,0,2.373,1.076Z" transform="translate(-1379.686 -778.535)" fill="#b0b0b0"/></g><path d="M1378.871,785.625h0l2.293-2.292a9.782,9.782,0,0,1,9.68-9.681l4.541-4.541a15,15,0,0,0-18.763,18.762Z" transform="translate(-1375.953 -768.442)" fill="#12263f"/><path d="M1409.182,782.776l-4.472,4.472c0,.058.009.113.009.171a9.788,9.788,0,0,1-9.787,9.788c-.058,0-.114-.008-.172-.009l-2.158,2.158h0l-2.313,2.313a14.979,14.979,0,0,0,18.893-18.893Z" transform="translate(-1379.939 -772.427)" fill="#12263f"/><path d="M1385.428,805l3.877-3.877a9.758,9.758,0,0,1-1.995-1.086l-3.715,3.714A14.9,14.9,0,0,0,1385.428,805Z" transform="translate(-1378.078 -777.226)"/><path d="M1378.742,798.131a14.939,14.939,0,0,0,1.262,1.818l3.714-3.715a9.774,9.774,0,0,1-1.127-1.952Z" transform="translate(-1376.729 -775.626)"/></g><g transform="translate(1237.361 806.604)"><path d="M1253.026,836.36a5.41,5.41,0,0,1,9.376-3.341l-1.46,1.347a3.161,3.161,0,0,0-2.47-1.15,3.144,3.144,0,1,0,0,6.288,3.131,3.131,0,0,0,2.47-1.165l1.46,1.348a5.4,5.4,0,0,1-9.376-3.327Z" transform="translate(-1253.026 -830.731)" fill="#12263f"/><path d="M1274.335,837.86v4.309h-2.05v-.941a2.476,2.476,0,0,1-2.3,1.053c-1.769,0-2.822-.982-2.822-2.287,0-1.334.94-2.26,3.243-2.26h1.74c0-.941-.561-1.487-1.74-1.487a3.636,3.636,0,0,0-2.176.7l-.785-1.53a5.806,5.806,0,0,1,3.256-.912C1273,834.506,1274.335,835.572,1274.335,837.86Zm-2.19,1.923v-.772h-1.5c-1.024,0-1.347.379-1.347.884,0,.548.463.913,1.235.913A1.613,1.613,0,0,0,1272.146,839.783Z" transform="translate(-1256.957 -831.628)" fill="#12263f"/><path d="M1281.9,833.684h1.937v1.684h-1.88v5.7h-2.191v-5.7H1278.6v-1.684h1.164v-.336a2.636,2.636,0,0,1,2.92-2.807,3.1,3.1,0,0,1,1.671.407l-.576,1.586a1.536,1.536,0,0,0-.884-.266c-.646,0-1,.351-1,1.094Z" transform="translate(-1260.135 -830.526)" fill="#12263f"/><path d="M1294.369,837.9h-5.712a2.014,2.014,0,0,0,2.162,1.516,2.558,2.558,0,0,0,1.895-.729l1.165,1.263a3.955,3.955,0,0,1-3.116,1.221c-2.61,0-4.308-1.642-4.308-3.888a3.843,3.843,0,0,1,4.028-3.887,3.738,3.738,0,0,1,3.93,3.915C1294.412,837.482,1294.384,837.72,1294.369,837.9Zm-5.74-1.277h3.72a1.887,1.887,0,0,0-3.72,0Zm2.246-4.084h-1.712l1.894-2.021h2.359Z" transform="translate(-1262.32 -830.52)" fill="#12263f"/><path d="M1312.514,841.456l-1.179-1.095a5.256,5.256,0,0,1-3.284,1.095c-2.162,0-3.748-1.123-3.748-2.694,0-1.235.659-2.092,2.161-2.934a2.927,2.927,0,0,1-1.01-2.077c0-1.431,1.207-2.414,3.059-2.414,1.7,0,2.821.871,2.821,2.259,0,1.011-.589,1.755-1.923,2.485l1.8,1.67a6.3,6.3,0,0,0,.491-1.53l1.755.547a6.482,6.482,0,0,1-.9,2.232l1.151,1.066Zm-2.471-2.288-2.372-2.217c-.9.52-1.221.968-1.221,1.572,0,.716.674,1.221,1.755,1.221A3.131,3.131,0,0,0,1310.044,839.168Zm-2.6-5.445c0,.379.154.659.758,1.249.968-.519,1.277-.884,1.277-1.334,0-.477-.337-.814-.969-.814C1307.841,832.825,1307.448,833.2,1307.448,833.723Z" transform="translate(-1267.282 -830.747)" fill="#12263f"/><path d="M1333.4,835.077c0,2.189-1.642,3.551-4.266,3.551h-1.979v2.709h-2.274v-9.825h4.253C1331.755,831.512,1333.4,832.874,1333.4,835.077Zm-2.3,0c0-1.081-.7-1.712-2.091-1.712h-1.853v3.41H1329C1330.393,836.774,1331.1,836.144,1331.1,835.077Z" transform="translate(-1273.003 -830.796)" fill="#12263f"/><path d="M1345.1,837.86v4.309h-2.05v-.941a2.477,2.477,0,0,1-2.3,1.053c-1.769,0-2.821-.982-2.821-2.287,0-1.334.94-2.26,3.242-2.26h1.741c0-.941-.562-1.487-1.741-1.487a3.636,3.636,0,0,0-2.176.7l-.785-1.53a5.8,5.8,0,0,1,3.256-.912C1343.765,834.506,1345.1,835.572,1345.1,837.86Zm-2.19,1.923v-.772h-1.5c-1.024,0-1.347.379-1.347.884,0,.548.464.913,1.235.913A1.614,1.614,0,0,0,1342.909,839.783Z" transform="translate(-1276.63 -831.628)" fill="#12263f"/><path d="M1358.323,837.846v4.323h-2.19v-3.986c0-1.221-.561-1.782-1.529-1.782-1.053,0-1.811.645-1.811,2.034v3.733h-2.19v-7.551h2.091v.884a3.308,3.308,0,0,1,2.5-1C1356.975,834.506,1358.323,835.544,1358.323,837.846Z" transform="translate(-1280.155 -831.628)" fill="#12263f"/></g></g></svg>