<svg xmlns="http://www.w3.org/2000/svg" width="154.512" height="41.499" viewBox="0 0 154.512 41.499"><g transform="translate(-206.379 -10247.786)"><g transform="translate(206.379 10247.786)"><path d="M2650.665,783.2c-12.731-.194-25.175.328-36.826,2.833-4.655-.371-3.946,6.239-1.518,6.475,3.979-.464,7.959-.852,11.938-1.316.776-.1,4.283-.91,2.934,1.821L2620.111,818c-.944,6.172,8.836,5.868,10.219,1.215l5.058-24.585c.506-1.484.607-3.474,1.518-4.451,4.771-.339,9.263-.576,14.67-1.215,3.238-1.112,3.44-5.463-.91-5.766Z" transform="translate(-2610.415 -781.179)" fill="#12263f" fill-rule="evenodd"/><path d="M2763.173,782.725c10.683-1.436,30.355-2.628,45.9-3.821,7.5-.228,7.374,5.527,3.387,6.86a34.833,34.833,0,0,1-9.118.782c-2.01-.02-2.648,1.383-3.04,3.561-1.361,7.9-3.2,16.153-4.646,24.142.058,4.342-9.089,7.469-9.726.347.488-6.911,2.58-14.307,5.384-22.145,1.043-3.879.7-5.239-3.126-5.124-6.195-.405-8.626,1.592-8.684,5.645l-2.344,19.8c-.26,8.308-11.116,9.234-10.856,4.516l5.385-27.1c.3-.937-.5-1.061-2.137-.871-8.759,1.92-11.23.646-11.063-2.6.429-1.8,1.668-3.271,4.689-3.995Z" transform="translate(-2689.599 -778.897)" fill="#12263f" fill-rule="evenodd"/><path d="M2708.771,794.514c-4.516-1.795-9.205-1.158-11.985,1.042-7.256,5.831-14.292,11.012-11.463,19.974,3.473,9.5,14.068,15.981,23.274,10.6,8.055-5.667,11.456-11.761,11.636-17.89-.868-6.716-4.863-11.753-11.463-13.721Zm-1.39,7.642q-6.252-3.995-13.2,4.516-4.6,5.645,1.216,11.29,6.861,5.993,13.721-1.216,7.816-9.727-1.737-14.59Z" transform="translate(-2650.134 -786.692)" fill="#12263f" fill-rule="evenodd"/><path d="M2890.227,788.914c-4.516-1.795-9.2-1.158-11.985,1.042-7.256,5.831-14.292,11.011-11.463,19.974,3.473,9.5,14.068,15.981,23.274,10.595,8.055-5.667,11.457-11.76,11.637-17.89-.869-6.716-4.864-11.753-11.463-13.721Zm-1.39,7.642q-6.253-4-13.2,4.516-4.6,5.645,1.216,11.29,6.861,5.992,13.721-1.216,7.816-9.726-1.737-14.589Z" transform="translate(-2747.178 -783.697)" fill="#12263f" fill-rule="evenodd"/></g></g></svg>